M48
;Layer_Color=9474304
;FILE_FORMAT=2:5
INCH,LZ
;TYPE=PLATED
T1F00S00C0.01181
T2F00S00C0.01968
T3F00S00C0.04331
T4F00S00C0.04370
T5F00S00C0.16535
%
T01
X001063Y0039055
X0038386Y0029921
X0040551Y0022441
X0044193Y0057972
X0066693Y0046063
X0062205Y0035827
X0060236Y0027339
X006063Y002185
X0077165Y0020079
X009685
X0106693Y0039764
X0126378
X0116535Y0059449
X009685
X0087008Y0079134
X0067323
X0047638
X001811Y0059449
T02
X0025394Y0045882
X0032465
X0025394Y0052953
T03
X0032465Y0052953
T04
X0082362Y003937
Y004937
Y005937
T05
X0015157Y0015157
X0118701
Y0083268
X0015157
M30
