G04*
G04 #@! TF.GenerationSoftware,Altium Limited,Altium Designer,20.2.6 (244)*
G04*
G04 Layer_Color=8421504*
%FSLAX25Y25*%
%MOIN*%
G70*
G04*
G04 #@! TF.SameCoordinates,2912C924-6B85-435B-98AD-5968C9E07C92*
G04*
G04*
G04 #@! TF.FilePolarity,Positive*
G04*
G01*
G75*
%ADD12C,0.07874*%
%ADD13R,0.01772X0.05709*%
%ADD14R,0.03937X0.04134*%
%ADD15R,0.03347X0.03543*%
%ADD16R,0.03543X0.03347*%
%ADD17R,0.04134X0.03937*%
D12*
X59646Y24016D02*
D03*
X68307Y60433D02*
D03*
D13*
X41240Y36614D02*
D03*
X43799D02*
D03*
X46358D02*
D03*
X48917D02*
D03*
X41240Y53937D02*
D03*
X43799D02*
D03*
X46358D02*
D03*
X48917D02*
D03*
D14*
X55118Y41732D02*
D03*
Y35827D02*
D03*
X61221Y41732D02*
D03*
Y35827D02*
D03*
X60827Y54331D02*
D03*
Y60236D02*
D03*
D15*
X40551Y24213D02*
D03*
X34449D02*
D03*
Y29921D02*
D03*
X40551D02*
D03*
X43012Y61221D02*
D03*
X49114D02*
D03*
X46358Y29921D02*
D03*
X52461D02*
D03*
D16*
X54921Y60138D02*
D03*
Y54035D02*
D03*
D17*
X46457Y24016D02*
D03*
X52362D02*
D03*
X29035Y60827D02*
D03*
X34941D02*
D03*
X17028D02*
D03*
X22933D02*
D03*
M02*
