G04*
G04 #@! TF.GenerationSoftware,Altium Limited,Altium Designer,20.2.6 (244)*
G04*
G04 Layer_Physical_Order=2*
G04 Layer_Color=16711680*
%FSLAX25Y25*%
%MOIN*%
G70*
G04*
G04 #@! TF.SameCoordinates,2912C924-6B85-435B-98AD-5968C9E07C92*
G04*
G04*
G04 #@! TF.FilePolarity,Positive*
G04*
G01*
G75*
%ADD27C,0.00600*%
%ADD28C,0.01000*%
%ADD30C,0.24410*%
%ADD31C,0.03347*%
%ADD32C,0.03937*%
%ADD33C,0.02165*%
G36*
X85302Y1313D02*
X1313D01*
Y92585D01*
X85302Y92585D01*
Y1313D01*
D02*
G37*
%LPC*%
G36*
X15558Y91954D02*
Y79140D01*
X28372D01*
X28240Y80812D01*
X27755Y82833D01*
X26959Y84754D01*
X25873Y86526D01*
X24523Y88106D01*
X22943Y89456D01*
X21171Y90542D01*
X19251Y91337D01*
X17230Y91823D01*
X15558Y91954D01*
D02*
G37*
G36*
X14758D02*
X13085Y91823D01*
X11064Y91337D01*
X9144Y90542D01*
X7372Y89456D01*
X5791Y88106D01*
X4442Y86526D01*
X3356Y84754D01*
X2560Y82833D01*
X2075Y80812D01*
X1943Y79140D01*
X14758D01*
Y91954D01*
D02*
G37*
G36*
X28372Y78340D02*
X15558D01*
Y65526D01*
X17230Y65658D01*
X19251Y66143D01*
X21171Y66938D01*
X22943Y68024D01*
X24523Y69374D01*
X25873Y70955D01*
X26959Y72727D01*
X27755Y74647D01*
X28240Y76668D01*
X28372Y78340D01*
D02*
G37*
G36*
X14758D02*
X1943D01*
X2075Y76668D01*
X2560Y74647D01*
X3356Y72727D01*
X4442Y70955D01*
X5791Y69374D01*
X7372Y68024D01*
X9144Y66938D01*
X11064Y66143D01*
X13085Y65658D01*
X14758Y65526D01*
Y78340D01*
D02*
G37*
G36*
X25386Y51328D02*
X24423Y51136D01*
X23606Y50591D01*
X23061Y49774D01*
X22869Y48811D01*
X23061Y47848D01*
X23606Y47031D01*
X24423Y46486D01*
X25386Y46294D01*
X26349Y46486D01*
X27165Y47031D01*
X27711Y47848D01*
X27903Y48811D01*
X27711Y49774D01*
X27165Y50591D01*
X26349Y51136D01*
X25386Y51328D01*
D02*
G37*
G36*
X18315D02*
X17352Y51136D01*
X16535Y50591D01*
X15990Y49774D01*
X15798Y48811D01*
X15990Y47848D01*
X16073Y47723D01*
X14171Y45820D01*
X13994Y45555D01*
X13932Y45243D01*
X13932Y45243D01*
Y36434D01*
X13932Y36434D01*
X13994Y36122D01*
X14171Y35857D01*
X20683Y29344D01*
X20683Y29344D01*
X20948Y29168D01*
X21260Y29106D01*
X29153D01*
X29371Y28780D01*
X29894Y28430D01*
X30512Y28308D01*
X31129Y28430D01*
X31653Y28780D01*
X32003Y29304D01*
X32125Y29921D01*
X32003Y30539D01*
X31653Y31062D01*
X31129Y31412D01*
X30512Y31535D01*
X29894Y31412D01*
X29371Y31062D01*
X29153Y30737D01*
X21598D01*
X15563Y36772D01*
Y40555D01*
X16063Y40667D01*
X16535Y39961D01*
X17352Y39415D01*
X17491Y39387D01*
Y37163D01*
X17491Y37163D01*
X17553Y36850D01*
X17730Y36586D01*
X18082Y36234D01*
X18082Y36234D01*
X18082Y36234D01*
X21822Y32494D01*
X21822Y32494D01*
X22087Y32317D01*
X22399Y32255D01*
X33914D01*
X36825Y29344D01*
X36825Y29344D01*
X37089Y29168D01*
X37402Y29106D01*
X37402Y29106D01*
X55039D01*
X55257Y28780D01*
X55780Y28430D01*
X56398Y28308D01*
X57015Y28430D01*
X57539Y28780D01*
X57889Y29304D01*
X58011Y29921D01*
X57889Y30539D01*
X57539Y31062D01*
X57015Y31412D01*
X56398Y31535D01*
X55780Y31412D01*
X55257Y31062D01*
X55039Y30737D01*
X37739D01*
X34829Y33648D01*
X34564Y33824D01*
X34252Y33887D01*
X34252Y33887D01*
X22737D01*
X19235Y37388D01*
X19235Y37388D01*
X19123Y37500D01*
Y39384D01*
X19278Y39415D01*
X20095Y39961D01*
X20640Y40777D01*
X20832Y41740D01*
X20640Y42703D01*
X20095Y43520D01*
X19278Y44065D01*
X18315Y44257D01*
X17352Y44065D01*
X16535Y43520D01*
X16063Y42813D01*
X15563Y42926D01*
Y44905D01*
X17227Y46569D01*
X17352Y46486D01*
X18315Y46294D01*
X19278Y46486D01*
X20095Y47031D01*
X20640Y47848D01*
X20832Y48811D01*
X20640Y49774D01*
X20095Y50591D01*
X19278Y51136D01*
X18315Y51328D01*
D02*
G37*
G36*
X68898Y52216D02*
X68050Y52047D01*
X67331Y51567D01*
X66851Y50848D01*
X66682Y50000D01*
X66851Y49152D01*
X67331Y48433D01*
X67856Y48082D01*
X67823Y47527D01*
X67550Y47414D01*
X66991Y46985D01*
X66563Y46427D01*
X66293Y45777D01*
X66254Y45479D01*
X68898D01*
X71541D01*
X71502Y45777D01*
X71233Y46427D01*
X70804Y46985D01*
X70246Y47414D01*
X69972Y47527D01*
X69939Y48082D01*
X70464Y48433D01*
X70945Y49152D01*
X71114Y50000D01*
X70945Y50848D01*
X70464Y51567D01*
X69746Y52047D01*
X68898Y52216D01*
D02*
G37*
G36*
X25786Y44682D02*
Y42140D01*
X28327D01*
X28278Y42515D01*
X27979Y43237D01*
X27503Y43857D01*
X26883Y44333D01*
X26161Y44632D01*
X25786Y44682D01*
D02*
G37*
G36*
X24986D02*
X24611Y44632D01*
X23889Y44333D01*
X23269Y43857D01*
X22793Y43237D01*
X22494Y42515D01*
X22444Y42140D01*
X24986D01*
Y44682D01*
D02*
G37*
G36*
X28327Y41340D02*
X25786D01*
Y38799D01*
X26161Y38848D01*
X26883Y39147D01*
X27503Y39623D01*
X27979Y40243D01*
X28278Y40965D01*
X28327Y41340D01*
D02*
G37*
G36*
X24986D02*
X22444D01*
X22494Y40965D01*
X22793Y40243D01*
X23269Y39623D01*
X23889Y39147D01*
X24611Y38848D01*
X24986Y38799D01*
Y41340D01*
D02*
G37*
G36*
X71541Y44679D02*
X68898D01*
X66254D01*
X66293Y44381D01*
X66563Y43731D01*
X66991Y43172D01*
X67550Y42744D01*
X67823Y42630D01*
X67856Y42075D01*
X67331Y41724D01*
X66851Y41005D01*
X66682Y40157D01*
X66851Y39309D01*
X67331Y38591D01*
X67787Y38286D01*
X67820Y37766D01*
X55286Y25232D01*
X31734D01*
X31653Y25354D01*
X31129Y25703D01*
X30512Y25826D01*
X29894Y25703D01*
X29371Y25354D01*
X29021Y24830D01*
X28898Y24213D01*
X29021Y23595D01*
X29371Y23072D01*
X29894Y22722D01*
X30512Y22599D01*
X31129Y22722D01*
X31653Y23072D01*
X31734Y23193D01*
X55709D01*
X56099Y23271D01*
X56430Y23492D01*
X69619Y36681D01*
X69840Y37011D01*
X69917Y37402D01*
Y38225D01*
X70464Y38591D01*
X70945Y39309D01*
X71114Y40157D01*
X70945Y41005D01*
X70464Y41724D01*
X69939Y42075D01*
X69972Y42630D01*
X70246Y42744D01*
X70804Y43172D01*
X71233Y43731D01*
X71502Y44381D01*
X71541Y44679D01*
D02*
G37*
G36*
X15558Y28372D02*
Y15558D01*
X28372D01*
X28240Y17230D01*
X27755Y19251D01*
X26959Y21171D01*
X25873Y22943D01*
X24523Y24523D01*
X22943Y25873D01*
X21171Y26959D01*
X19251Y27755D01*
X17230Y28240D01*
X15558Y28372D01*
D02*
G37*
G36*
X14758D02*
X13085Y28240D01*
X11064Y27755D01*
X9144Y26959D01*
X7372Y25873D01*
X5791Y24523D01*
X4442Y22943D01*
X3356Y21171D01*
X2560Y19251D01*
X2075Y17230D01*
X1943Y15558D01*
X14758D01*
Y28372D01*
D02*
G37*
G36*
X28372Y14758D02*
X15558D01*
Y1943D01*
X17230Y2075D01*
X19251Y2560D01*
X21171Y3356D01*
X22943Y4442D01*
X24523Y5791D01*
X25873Y7372D01*
X26959Y9144D01*
X27755Y11064D01*
X28240Y13085D01*
X28372Y14758D01*
D02*
G37*
G36*
X14758D02*
X1943D01*
X2075Y13085D01*
X2560Y11064D01*
X3356Y9144D01*
X4442Y7372D01*
X5791Y5791D01*
X7372Y4442D01*
X9144Y3356D01*
X11064Y2560D01*
X13085Y2075D01*
X14758Y1943D01*
Y14758D01*
D02*
G37*
%LPD*%
D27*
X34252Y33071D02*
X37402Y29921D01*
X56398D01*
X22399Y33071D02*
X34252D01*
X18659Y36811D02*
X18659D01*
X22399Y33071D01*
X18307Y41732D02*
X18315Y41740D01*
X18307Y37163D02*
Y41732D01*
Y37163D02*
X18659Y36811D01*
X30512Y29921D02*
X30634D01*
X21260D02*
X30512D01*
X14747Y36434D02*
X21260Y29921D01*
X14747Y36434D02*
Y45243D01*
X18315Y48811D01*
D28*
X30512Y24213D02*
X55709D01*
X68898Y37402D02*
Y40157D01*
X55709Y24213D02*
X68898Y37402D01*
D30*
X15157Y78740D02*
D03*
Y15157D02*
D03*
D31*
X68898Y50000D02*
D03*
Y45079D02*
D03*
Y40157D02*
D03*
D32*
X25386Y41740D02*
D03*
X18315D02*
D03*
Y48811D02*
D03*
X25386D02*
D03*
D33*
X72244Y79134D02*
D03*
Y24016D02*
D03*
X65354Y10236D02*
D03*
X58465Y79134D02*
D03*
X51575Y65354D02*
D03*
Y10236D02*
D03*
X44685Y79134D02*
D03*
X37795Y37795D02*
D03*
Y10236D02*
D03*
X30906Y79134D02*
D03*
X24016Y65354D02*
D03*
X30906Y51575D02*
D03*
X10236Y37795D02*
D03*
X61221Y46063D02*
D03*
X29126Y41740D02*
D03*
X12697Y60827D02*
D03*
X46457Y19685D02*
D03*
X56398Y29921D02*
D03*
X38091Y53937D02*
D03*
X55118Y46063D02*
D03*
X30512Y24213D02*
D03*
Y29921D02*
D03*
M02*
