G04*
G04 #@! TF.GenerationSoftware,Altium Limited,Altium Designer,20.2.6 (244)*
G04*
G04 Layer_Color=65535*
%FSLAX25Y25*%
%MOIN*%
G70*
G04*
G04 #@! TF.SameCoordinates,9326E741-AAEA-4F7E-AF2F-977F5830F9C7*
G04*
G04*
G04 #@! TF.FilePolarity,Positive*
G04*
G01*
G75*
%ADD10C,0.00787*%
%ADD11C,0.00620*%
D10*
X40044Y49125D02*
G03*
X40044Y43773I-11099J-2676D01*
G01*
X57284Y47195D02*
G03*
X57284Y45915I0J-640D01*
G01*
X58544Y54055D02*
G03*
X58544Y54055I-379J0D01*
G01*
X40051Y49126D02*
X44142D01*
Y43772D02*
Y49126D01*
X40051Y43772D02*
X44142D01*
X57284Y47195D02*
Y49075D01*
Y44035D02*
Y45915D01*
X47047Y44035D02*
X57284D01*
X47047D02*
Y49075D01*
X57284D01*
D11*
X80036Y29703D02*
Y28084D01*
X81493Y27923D01*
X81331Y28084D01*
X81169Y28570D01*
Y29056D01*
X81331Y29541D01*
X81655Y29865D01*
X82140Y30027D01*
X82464D01*
X82950Y29865D01*
X83273Y29541D01*
X83435Y29056D01*
Y28570D01*
X83273Y28084D01*
X83111Y27923D01*
X82788Y27761D01*
X80036Y30788D02*
X83435Y32083D01*
X80036Y33378D02*
X83435Y32083D01*
X80845Y38914D02*
X80521Y38752D01*
X80198Y38428D01*
X80036Y38104D01*
Y37457D01*
X80198Y37133D01*
X80521Y36809D01*
X80845Y36647D01*
X81331Y36485D01*
X82140D01*
X82626Y36647D01*
X82950Y36809D01*
X83273Y37133D01*
X83435Y37457D01*
Y38104D01*
X83273Y38428D01*
X82950Y38752D01*
X82626Y38914D01*
X82140D01*
Y38104D02*
Y38914D01*
X80036Y39691D02*
X83435D01*
X80036D02*
X83435Y41957D01*
X80036D02*
X83435D01*
X80036Y42896D02*
X83435D01*
X80036D02*
Y44029D01*
X80198Y44514D01*
X80521Y44838D01*
X80845Y45000D01*
X81331Y45162D01*
X82140D01*
X82626Y45000D01*
X82950Y44838D01*
X83273Y44514D01*
X83435Y44029D01*
Y42896D01*
X80036Y48593D02*
X83435Y49888D01*
X80036Y51183D02*
X83435Y49888D01*
X81169Y52430D02*
X81331Y52106D01*
X81655Y51782D01*
X82140Y51620D01*
X82464D01*
X82950Y51782D01*
X83273Y52106D01*
X83435Y52430D01*
Y52915D01*
X83273Y53239D01*
X82950Y53563D01*
X82464Y53725D01*
X82140D01*
X81655Y53563D01*
X81331Y53239D01*
X81169Y52915D01*
Y52430D01*
Y54469D02*
X82788D01*
X83273Y54631D01*
X83435Y54955D01*
Y55440D01*
X83273Y55764D01*
X82788Y56250D01*
X81169D02*
X83435D01*
X80036Y57626D02*
X82788D01*
X83273Y57788D01*
X83435Y58111D01*
Y58435D01*
X81169Y57140D02*
Y58273D01*
X68869Y77051D02*
X70164Y73651D01*
X71459Y77051D02*
X70164Y73651D01*
X72705Y75918D02*
X72382Y75756D01*
X72058Y75432D01*
X71896Y74946D01*
Y74623D01*
X72058Y74137D01*
X72382Y73813D01*
X72705Y73651D01*
X73191D01*
X73515Y73813D01*
X73838Y74137D01*
X74000Y74623D01*
Y74946D01*
X73838Y75432D01*
X73515Y75756D01*
X73191Y75918D01*
X72705D01*
X74745D02*
Y74299D01*
X74907Y73813D01*
X75230Y73651D01*
X75716D01*
X76040Y73813D01*
X76525Y74299D01*
Y75918D02*
Y73651D01*
X77901Y77051D02*
Y74299D01*
X78063Y73813D01*
X78387Y73651D01*
X78711D01*
X77416Y75918D02*
X78549D01*
X31139Y11106D02*
X32434Y7707D01*
X33729Y11106D02*
X32434Y7707D01*
X34166Y9973D02*
Y7707D01*
Y9002D02*
X34328Y9487D01*
X34652Y9811D01*
X34975Y9973D01*
X35461D01*
X35768Y9002D02*
X37711D01*
Y9325D01*
X37549Y9649D01*
X37387Y9811D01*
X37064Y9973D01*
X36578D01*
X36254Y9811D01*
X35930Y9487D01*
X35768Y9002D01*
Y8678D01*
X35930Y8192D01*
X36254Y7869D01*
X36578Y7707D01*
X37064D01*
X37387Y7869D01*
X37711Y8192D01*
X39734Y11106D02*
X39411D01*
X39087Y10944D01*
X38925Y10458D01*
Y7707D01*
X38439Y9973D02*
X39573D01*
X71741Y82408D02*
Y79818D01*
X71580Y79333D01*
X71418Y79171D01*
X71094Y79009D01*
X70770D01*
X70446Y79171D01*
X70285Y79333D01*
X70123Y79818D01*
Y80142D01*
X72616Y80628D02*
X74072D01*
X74558Y80790D01*
X74720Y80951D01*
X74882Y81275D01*
Y81761D01*
X74720Y82085D01*
X74558Y82246D01*
X74072Y82408D01*
X72616D01*
Y79009D01*
X75804Y81599D02*
Y81761D01*
X75966Y82085D01*
X76128Y82246D01*
X76452Y82408D01*
X77099D01*
X77423Y82246D01*
X77585Y82085D01*
X77747Y81761D01*
Y81437D01*
X77585Y81113D01*
X77261Y80628D01*
X75643Y79009D01*
X77909D01*
X33553Y24928D02*
Y22338D01*
X33391Y21853D01*
X33229Y21691D01*
X32905Y21529D01*
X32581D01*
X32258Y21691D01*
X32096Y21853D01*
X31934Y22338D01*
Y22662D01*
X34427Y23147D02*
X35883D01*
X36369Y23309D01*
X36531Y23471D01*
X36693Y23795D01*
Y24281D01*
X36531Y24604D01*
X36369Y24766D01*
X35883Y24928D01*
X34427D01*
Y21529D01*
X37777Y24928D02*
X39558D01*
X38587Y23633D01*
X39072D01*
X39396Y23471D01*
X39558Y23309D01*
X39720Y22824D01*
Y22500D01*
X39558Y22014D01*
X39234Y21691D01*
X38748Y21529D01*
X38263D01*
X37777Y21691D01*
X37615Y21853D01*
X37454Y22176D01*
X53263Y14670D02*
X53101Y14994D01*
X52777Y15317D01*
X52453Y15479D01*
X51806D01*
X51482Y15317D01*
X51158Y14994D01*
X50997Y14670D01*
X50835Y14184D01*
Y13375D01*
X50997Y12889D01*
X51158Y12565D01*
X51482Y12242D01*
X51806Y12080D01*
X52453D01*
X52777Y12242D01*
X53101Y12565D01*
X53263Y12889D01*
X55836Y15479D02*
X54218Y13213D01*
X56646D01*
X55836Y15479D02*
Y12080D01*
X60265Y74928D02*
Y71529D01*
Y74928D02*
X61721D01*
X62207Y74766D01*
X62369Y74604D01*
X62531Y74281D01*
Y73957D01*
X62369Y73633D01*
X62207Y73471D01*
X61721Y73309D01*
X60265D01*
X61398D02*
X62531Y71529D01*
X64910Y74928D02*
X63292Y72662D01*
X65720D01*
X64910Y74928D02*
Y71529D01*
X45348Y59607D02*
X47776D01*
X48261Y59769D01*
X48585Y60093D01*
X48747Y60578D01*
Y60902D01*
X48585Y61388D01*
X48261Y61711D01*
X47776Y61873D01*
X45348D01*
X45995Y62812D02*
X45833Y63136D01*
X45348Y63621D01*
X48747D01*
X42592Y10149D02*
X45991D01*
X42592D02*
Y11605D01*
X42754Y12091D01*
X42915Y12253D01*
X43239Y12415D01*
X43563D01*
X43887Y12253D01*
X44049Y12091D01*
X44210Y11605D01*
Y10149D01*
Y11282D02*
X45991Y12415D01*
X42592Y15118D02*
Y13499D01*
X44049Y13338D01*
X43887Y13499D01*
X43725Y13985D01*
Y14471D01*
X43887Y14956D01*
X44210Y15280D01*
X44696Y15442D01*
X45020D01*
X45505Y15280D01*
X45829Y14956D01*
X45991Y14471D01*
Y13985D01*
X45829Y13499D01*
X45667Y13338D01*
X45344Y13176D01*
X52631Y71566D02*
X56030D01*
X52631D02*
Y73023D01*
X52793Y73509D01*
X52955Y73670D01*
X53278Y73832D01*
X53602D01*
X53926Y73670D01*
X54088Y73509D01*
X54250Y73023D01*
Y71566D01*
Y72699D02*
X56030Y73832D01*
X52631Y74917D02*
Y76697D01*
X53926Y75726D01*
Y76212D01*
X54088Y76535D01*
X54250Y76697D01*
X54735Y76859D01*
X55059D01*
X55545Y76697D01*
X55869Y76374D01*
X56030Y75888D01*
Y75402D01*
X55869Y74917D01*
X55707Y74755D01*
X55383Y74593D01*
X59914Y28062D02*
X63314D01*
X59914D02*
Y29519D01*
X60076Y30005D01*
X60238Y30166D01*
X60562Y30328D01*
X60886D01*
X61209Y30166D01*
X61371Y30005D01*
X61533Y29519D01*
Y28062D01*
Y29195D02*
X63314Y30328D01*
X60724Y31251D02*
X60562D01*
X60238Y31413D01*
X60076Y31575D01*
X59914Y31898D01*
Y32546D01*
X60076Y32870D01*
X60238Y33031D01*
X60562Y33193D01*
X60886D01*
X61209Y33031D01*
X61695Y32708D01*
X63314Y31089D01*
Y33355D01*
X39814Y38511D02*
Y35111D01*
Y38511D02*
X41271D01*
X41757Y38349D01*
X41918Y38187D01*
X42080Y37863D01*
Y37539D01*
X41918Y37216D01*
X41757Y37054D01*
X41271Y36892D01*
X39814D01*
X40947D02*
X42080Y35111D01*
X42841Y37863D02*
X43165Y38025D01*
X43650Y38511D01*
Y35111D01*
X11308Y57196D02*
Y53796D01*
X12021Y57196D02*
Y53796D01*
Y57196D02*
X13477D01*
X13963Y57034D01*
X14125Y56872D01*
X14287Y56548D01*
Y56225D01*
X14125Y55901D01*
X13963Y55739D01*
X13477Y55577D01*
X12021D01*
X13154D02*
X14287Y53796D01*
X15048Y56548D02*
X15371Y56710D01*
X15857Y57196D01*
Y53796D01*
X37299Y71732D02*
X36975Y71570D01*
X36651Y71246D01*
X36489Y70922D01*
Y70275D01*
X36651Y69951D01*
X36975Y69627D01*
X37299Y69465D01*
X37784Y69304D01*
X38594D01*
X39079Y69465D01*
X39403Y69627D01*
X39727Y69951D01*
X39889Y70275D01*
Y70922D01*
X39727Y71246D01*
X39403Y71570D01*
X39079Y71732D01*
X36975Y74629D02*
X36651Y74467D01*
X36489Y73982D01*
Y73658D01*
X36651Y73172D01*
X37137Y72848D01*
X37946Y72687D01*
X38756D01*
X39403Y72848D01*
X39727Y73172D01*
X39889Y73658D01*
Y73820D01*
X39727Y74305D01*
X39403Y74629D01*
X38917Y74791D01*
X38756D01*
X38270Y74629D01*
X37946Y74305D01*
X37784Y73820D01*
Y73658D01*
X37946Y73172D01*
X38270Y72848D01*
X38756Y72687D01*
X19092Y62308D02*
X18930Y62631D01*
X18606Y62955D01*
X18282Y63117D01*
X17635D01*
X17311Y62955D01*
X16987Y62631D01*
X16825Y62308D01*
X16664Y61822D01*
Y61013D01*
X16825Y60527D01*
X16987Y60203D01*
X17311Y59880D01*
X17635Y59718D01*
X18282D01*
X18606Y59880D01*
X18930Y60203D01*
X19092Y60527D01*
X21989Y63117D02*
X20370D01*
X20209Y61660D01*
X20370Y61822D01*
X20856Y61984D01*
X21342D01*
X21827Y61822D01*
X22151Y61498D01*
X22313Y61013D01*
Y60689D01*
X22151Y60203D01*
X21827Y59880D01*
X21342Y59718D01*
X20856D01*
X20370Y59880D01*
X20209Y60041D01*
X20047Y60365D01*
X76572Y62308D02*
X76410Y62631D01*
X76086Y62955D01*
X75763Y63117D01*
X75115D01*
X74791Y62955D01*
X74468Y62631D01*
X74306Y62308D01*
X74144Y61822D01*
Y61013D01*
X74306Y60527D01*
X74468Y60203D01*
X74791Y59880D01*
X75115Y59718D01*
X75763D01*
X76086Y59880D01*
X76410Y60203D01*
X76572Y60527D01*
X77851Y63117D02*
X79631D01*
X78660Y61822D01*
X79146D01*
X79469Y61660D01*
X79631Y61498D01*
X79793Y61013D01*
Y60689D01*
X79631Y60203D01*
X79308Y59880D01*
X78822Y59718D01*
X78336D01*
X77851Y59880D01*
X77689Y60041D01*
X77527Y60365D01*
X61118Y51375D02*
X60794Y51213D01*
X60470Y50889D01*
X60308Y50566D01*
Y49918D01*
X60470Y49595D01*
X60794Y49271D01*
X61118Y49109D01*
X61603Y48947D01*
X62413D01*
X62898Y49109D01*
X63222Y49271D01*
X63546Y49595D01*
X63708Y49918D01*
Y50566D01*
X63546Y50889D01*
X63222Y51213D01*
X62898Y51375D01*
X61118Y52492D02*
X60956D01*
X60632Y52654D01*
X60470Y52816D01*
X60308Y53140D01*
Y53787D01*
X60470Y54111D01*
X60632Y54273D01*
X60956Y54434D01*
X61279D01*
X61603Y54273D01*
X62089Y53949D01*
X63708Y52330D01*
Y54596D01*
X65251Y30450D02*
X64928Y30288D01*
X64604Y29964D01*
X64442Y29641D01*
Y28993D01*
X64604Y28669D01*
X64928Y28346D01*
X65251Y28184D01*
X65737Y28022D01*
X66546D01*
X67032Y28184D01*
X67356Y28346D01*
X67680Y28669D01*
X67841Y28993D01*
Y29641D01*
X67680Y29964D01*
X67356Y30288D01*
X67032Y30450D01*
X65090Y31405D02*
X64928Y31729D01*
X64442Y32214D01*
X67841D01*
X73060Y26700D02*
Y24110D01*
X72899Y23624D01*
X72737Y23462D01*
X72413Y23300D01*
X72089D01*
X71766Y23462D01*
X71604Y23624D01*
X71442Y24110D01*
Y24433D01*
X73935Y24919D02*
X75391D01*
X75877Y25081D01*
X76039Y25243D01*
X76201Y25567D01*
Y26052D01*
X76039Y26376D01*
X75877Y26538D01*
X75391Y26700D01*
X73935D01*
Y23300D01*
X76961Y26052D02*
X77285Y26214D01*
X77771Y26700D01*
Y23300D01*
M02*
