G04*
G04 #@! TF.GenerationSoftware,Altium Limited,Altium Designer,20.2.6 (244)*
G04*
G04 Layer_Color=8388736*
%FSLAX25Y25*%
%MOIN*%
G70*
G04*
G04 #@! TF.SameCoordinates,2912C924-6B85-435B-98AD-5968C9E07C92*
G04*
G04*
G04 #@! TF.FilePolarity,Negative*
G04*
G01*
G75*
%ADD18C,0.08465*%
%ADD19R,0.02362X0.06299*%
%ADD20R,0.04528X0.04724*%
%ADD21R,0.03937X0.04134*%
%ADD22R,0.04134X0.03937*%
%ADD23R,0.04724X0.04528*%
%ADD24C,0.25000*%
%ADD25C,0.03937*%
%ADD26C,0.04528*%
D18*
X59646Y24016D02*
D03*
X68307Y60433D02*
D03*
D19*
X41240Y36614D02*
D03*
X43799D02*
D03*
X46358D02*
D03*
X48917D02*
D03*
X41240Y53937D02*
D03*
X43799D02*
D03*
X46358D02*
D03*
X48917D02*
D03*
D20*
X55118Y41732D02*
D03*
Y35827D02*
D03*
X61221Y41732D02*
D03*
Y35827D02*
D03*
X60827Y54331D02*
D03*
Y60236D02*
D03*
D21*
X40551Y24213D02*
D03*
X34449D02*
D03*
Y29921D02*
D03*
X40551D02*
D03*
X43012Y61221D02*
D03*
X49114D02*
D03*
X46358Y29921D02*
D03*
X52461D02*
D03*
D22*
X54921Y60138D02*
D03*
Y54035D02*
D03*
D23*
X46457Y24016D02*
D03*
X52362D02*
D03*
X29035Y60827D02*
D03*
X34941D02*
D03*
X17028D02*
D03*
X22933D02*
D03*
D24*
X15157Y78740D02*
D03*
Y15157D02*
D03*
D25*
X68898Y50000D02*
D03*
Y45079D02*
D03*
Y40157D02*
D03*
D26*
X25386Y41740D02*
D03*
X18315D02*
D03*
Y48811D02*
D03*
X25386D02*
D03*
M02*
