G04*
G04 #@! TF.GenerationSoftware,Altium Limited,Altium Designer,20.2.6 (244)*
G04*
G04 Layer_Color=65535*
%FSLAX25Y25*%
%MOIN*%
G70*
G04*
G04 #@! TF.SameCoordinates,C04A9063-7A41-4EBF-B6AE-4B4DE63A84DA*
G04*
G04*
G04 #@! TF.FilePolarity,Positive*
G04*
G01*
G75*
%ADD10C,0.00787*%
%ADD11C,0.00620*%
D10*
X40044Y49125D02*
G03*
X40044Y43773I-11099J-2676D01*
G01*
X57284Y47195D02*
G03*
X57284Y45915I0J-640D01*
G01*
X58544Y54055D02*
G03*
X58544Y54055I-379J0D01*
G01*
X40051Y49126D02*
X44142D01*
Y43772D02*
Y49126D01*
X40051Y43772D02*
X44142D01*
X57284Y47195D02*
Y49075D01*
Y44035D02*
Y45915D01*
X47047Y44035D02*
X57284D01*
X47047D02*
Y49075D01*
X57284D01*
D11*
X73987Y33854D02*
X75282Y30455D01*
X76577Y33854D02*
X75282Y30455D01*
X77823Y32721D02*
X77500Y32559D01*
X77176Y32236D01*
X77014Y31750D01*
Y31426D01*
X77176Y30941D01*
X77500Y30617D01*
X77823Y30455D01*
X78309D01*
X78633Y30617D01*
X78957Y30941D01*
X79118Y31426D01*
Y31750D01*
X78957Y32236D01*
X78633Y32559D01*
X78309Y32721D01*
X77823D01*
X79863D02*
Y31102D01*
X80025Y30617D01*
X80349Y30455D01*
X80834D01*
X81158Y30617D01*
X81644Y31102D01*
Y32721D02*
Y30455D01*
X83020Y33854D02*
Y31102D01*
X83181Y30617D01*
X83505Y30455D01*
X83829D01*
X82534Y32721D02*
X83667D01*
X77581Y27478D02*
X77419Y27802D01*
X77095Y28125D01*
X76771Y28287D01*
X76124D01*
X75800Y28125D01*
X75476Y27802D01*
X75314Y27478D01*
X75153Y26992D01*
Y26183D01*
X75314Y25697D01*
X75476Y25374D01*
X75800Y25050D01*
X76124Y24888D01*
X76771D01*
X77095Y25050D01*
X77419Y25374D01*
X77581Y25697D01*
Y26183D01*
X76771D02*
X77581D01*
X78358Y28287D02*
Y24888D01*
Y28287D02*
X80624Y24888D01*
Y28287D02*
Y24888D01*
X81563Y28287D02*
Y24888D01*
Y28287D02*
X82696D01*
X83181Y28125D01*
X83505Y27802D01*
X83667Y27478D01*
X83829Y26992D01*
Y26183D01*
X83667Y25697D01*
X83505Y25374D01*
X83181Y25050D01*
X82696Y24888D01*
X81563D01*
X80154Y22720D02*
X78536D01*
X78374Y21263D01*
X78536Y21425D01*
X79021Y21587D01*
X79507D01*
X79993Y21425D01*
X80316Y21101D01*
X80478Y20616D01*
Y20292D01*
X80316Y19806D01*
X79993Y19483D01*
X79507Y19321D01*
X79021D01*
X78536Y19483D01*
X78374Y19645D01*
X78212Y19968D01*
X81239Y22720D02*
X82534Y19321D01*
X83829Y22720D02*
X82534Y19321D01*
X11308Y57196D02*
Y53796D01*
X12021Y57196D02*
Y53796D01*
Y57196D02*
X13477D01*
X13963Y57034D01*
X14125Y56872D01*
X14287Y56548D01*
Y56225D01*
X14125Y55901D01*
X13963Y55739D01*
X13477Y55577D01*
X12021D01*
X13154D02*
X14287Y53796D01*
X15048Y56548D02*
X15371Y56710D01*
X15857Y57196D01*
Y53796D01*
X37299Y71732D02*
X36975Y71570D01*
X36651Y71246D01*
X36489Y70922D01*
Y70275D01*
X36651Y69951D01*
X36975Y69627D01*
X37299Y69465D01*
X37784Y69304D01*
X38594D01*
X39079Y69465D01*
X39403Y69627D01*
X39727Y69951D01*
X39889Y70275D01*
Y70922D01*
X39727Y71246D01*
X39403Y71570D01*
X39079Y71732D01*
X36975Y74629D02*
X36651Y74467D01*
X36489Y73982D01*
Y73658D01*
X36651Y73172D01*
X37137Y72848D01*
X37946Y72687D01*
X38756D01*
X39403Y72848D01*
X39727Y73172D01*
X39889Y73658D01*
Y73820D01*
X39727Y74305D01*
X39403Y74629D01*
X38917Y74791D01*
X38756D01*
X38270Y74629D01*
X37946Y74305D01*
X37784Y73820D01*
Y73658D01*
X37946Y73172D01*
X38270Y72848D01*
X38756Y72687D01*
X53263Y14670D02*
X53101Y14994D01*
X52777Y15317D01*
X52453Y15479D01*
X51806D01*
X51482Y15317D01*
X51158Y14994D01*
X50997Y14670D01*
X50835Y14184D01*
Y13375D01*
X50997Y12889D01*
X51158Y12565D01*
X51482Y12242D01*
X51806Y12080D01*
X52453D01*
X52777Y12242D01*
X53101Y12565D01*
X53263Y12889D01*
X55836Y15479D02*
X54218Y13213D01*
X56646D01*
X55836Y15479D02*
Y12080D01*
X60265Y74928D02*
Y71529D01*
Y74928D02*
X61721D01*
X62207Y74766D01*
X62369Y74604D01*
X62531Y74281D01*
Y73957D01*
X62369Y73633D01*
X62207Y73471D01*
X61721Y73309D01*
X60265D01*
X61398D02*
X62531Y71529D01*
X64910Y74928D02*
X63292Y72662D01*
X65720D01*
X64910Y74928D02*
Y71529D01*
X45348Y59607D02*
X47776D01*
X48261Y59769D01*
X48585Y60093D01*
X48747Y60578D01*
Y60902D01*
X48585Y61387D01*
X48261Y61711D01*
X47776Y61873D01*
X45348D01*
X45995Y62812D02*
X45833Y63136D01*
X45348Y63621D01*
X48747D01*
X42592Y11330D02*
X45991D01*
X42592D02*
Y12787D01*
X42754Y13272D01*
X42915Y13434D01*
X43239Y13596D01*
X43563D01*
X43887Y13434D01*
X44049Y13272D01*
X44210Y12787D01*
Y11330D01*
Y12463D02*
X45991Y13596D01*
X42592Y16299D02*
Y14681D01*
X44049Y14519D01*
X43887Y14681D01*
X43725Y15166D01*
Y15652D01*
X43887Y16137D01*
X44210Y16461D01*
X44696Y16623D01*
X45020D01*
X45505Y16461D01*
X45829Y16137D01*
X45991Y15652D01*
Y15166D01*
X45829Y14681D01*
X45667Y14519D01*
X45344Y14357D01*
X52631Y71566D02*
X56030D01*
X52631D02*
Y73023D01*
X52793Y73509D01*
X52955Y73670D01*
X53278Y73832D01*
X53602D01*
X53926Y73670D01*
X54088Y73509D01*
X54250Y73023D01*
Y71566D01*
Y72699D02*
X56030Y73832D01*
X52631Y74917D02*
Y76697D01*
X53926Y75726D01*
Y76212D01*
X54088Y76535D01*
X54250Y76697D01*
X54735Y76859D01*
X55059D01*
X55545Y76697D01*
X55869Y76374D01*
X56030Y75888D01*
Y75402D01*
X55869Y74917D01*
X55707Y74755D01*
X55383Y74593D01*
X59914Y28062D02*
X63314D01*
X59914D02*
Y29519D01*
X60076Y30005D01*
X60238Y30166D01*
X60562Y30328D01*
X60886D01*
X61209Y30166D01*
X61371Y30005D01*
X61533Y29519D01*
Y28062D01*
Y29195D02*
X63314Y30328D01*
X60724Y31251D02*
X60562D01*
X60238Y31413D01*
X60076Y31575D01*
X59914Y31898D01*
Y32546D01*
X60076Y32870D01*
X60238Y33031D01*
X60562Y33193D01*
X60886D01*
X61209Y33031D01*
X61695Y32708D01*
X63314Y31089D01*
Y33355D01*
X37058Y24731D02*
Y21332D01*
Y24731D02*
X38515D01*
X39001Y24569D01*
X39162Y24407D01*
X39324Y24084D01*
Y23760D01*
X39162Y23436D01*
X39001Y23274D01*
X38515Y23112D01*
X37058D01*
X38191D02*
X39324Y21332D01*
X40085Y24084D02*
X40409Y24246D01*
X40894Y24731D01*
Y21332D01*
X19092Y62308D02*
X18930Y62631D01*
X18606Y62955D01*
X18282Y63117D01*
X17635D01*
X17311Y62955D01*
X16987Y62631D01*
X16825Y62308D01*
X16664Y61822D01*
Y61013D01*
X16825Y60527D01*
X16987Y60203D01*
X17311Y59880D01*
X17635Y59718D01*
X18282D01*
X18606Y59880D01*
X18930Y60203D01*
X19092Y60527D01*
X21989Y63117D02*
X20370D01*
X20209Y61660D01*
X20370Y61822D01*
X20856Y61984D01*
X21342D01*
X21827Y61822D01*
X22151Y61498D01*
X22313Y61013D01*
Y60689D01*
X22151Y60203D01*
X21827Y59880D01*
X21342Y59718D01*
X20856D01*
X20370Y59880D01*
X20209Y60041D01*
X20047Y60365D01*
X72044Y62898D02*
X71882Y63222D01*
X71559Y63546D01*
X71235Y63708D01*
X70587D01*
X70264Y63546D01*
X69940Y63222D01*
X69778Y62898D01*
X69616Y62413D01*
Y61603D01*
X69778Y61118D01*
X69940Y60794D01*
X70264Y60470D01*
X70587Y60308D01*
X71235D01*
X71559Y60470D01*
X71882Y60794D01*
X72044Y61118D01*
X73323Y63708D02*
X75104D01*
X74133Y62413D01*
X74618D01*
X74942Y62251D01*
X75104Y62089D01*
X75266Y61603D01*
Y61279D01*
X75104Y60794D01*
X74780Y60470D01*
X74294Y60308D01*
X73809D01*
X73323Y60470D01*
X73161Y60632D01*
X72999Y60956D01*
X61118Y51375D02*
X60794Y51213D01*
X60470Y50889D01*
X60308Y50566D01*
Y49918D01*
X60470Y49595D01*
X60794Y49271D01*
X61118Y49109D01*
X61603Y48947D01*
X62413D01*
X62898Y49109D01*
X63222Y49271D01*
X63546Y49595D01*
X63708Y49918D01*
Y50566D01*
X63546Y50889D01*
X63222Y51213D01*
X62898Y51375D01*
X61118Y52492D02*
X60956D01*
X60632Y52654D01*
X60470Y52816D01*
X60308Y53140D01*
Y53787D01*
X60470Y54111D01*
X60632Y54273D01*
X60956Y54434D01*
X61279D01*
X61603Y54273D01*
X62089Y53949D01*
X63708Y52330D01*
Y54596D01*
X65251Y30450D02*
X64928Y30288D01*
X64604Y29964D01*
X64442Y29641D01*
Y28993D01*
X64604Y28669D01*
X64928Y28346D01*
X65251Y28184D01*
X65737Y28022D01*
X66546D01*
X67032Y28184D01*
X67356Y28346D01*
X67680Y28669D01*
X67841Y28993D01*
Y29641D01*
X67680Y29964D01*
X67356Y30288D01*
X67032Y30450D01*
X65090Y31405D02*
X64928Y31729D01*
X64442Y32214D01*
X67841D01*
X79557Y59574D02*
Y56984D01*
X79395Y56498D01*
X79233Y56336D01*
X78909Y56174D01*
X78585D01*
X78262Y56336D01*
X78100Y56498D01*
X77938Y56984D01*
Y57307D01*
X80431Y57793D02*
X81887D01*
X82373Y57955D01*
X82535Y58117D01*
X82697Y58441D01*
Y58926D01*
X82535Y59250D01*
X82373Y59412D01*
X81887Y59574D01*
X80431D01*
Y56174D01*
X83458Y58926D02*
X83781Y59088D01*
X84267Y59574D01*
Y56174D01*
M02*
