G04*
G04 #@! TF.GenerationSoftware,Altium Limited,Altium Designer,20.2.6 (244)*
G04*
G04 Layer_Physical_Order=1*
G04 Layer_Color=255*
%FSLAX25Y25*%
%MOIN*%
G70*
G04*
G04 #@! TF.SameCoordinates,2912C924-6B85-435B-98AD-5968C9E07C92*
G04*
G04*
G04 #@! TF.FilePolarity,Positive*
G04*
G01*
G75*
%ADD12C,0.07874*%
%ADD13R,0.01772X0.05709*%
%ADD14R,0.03937X0.04134*%
%ADD15R,0.03347X0.03543*%
%ADD16R,0.03543X0.03347*%
%ADD17R,0.04134X0.03937*%
%ADD27C,0.00600*%
%ADD28C,0.01000*%
%ADD29C,0.01600*%
%ADD30C,0.24410*%
%ADD31C,0.03347*%
%ADD32C,0.03937*%
%ADD33C,0.02165*%
G36*
X85302Y1313D02*
X1313D01*
Y92585D01*
X85302Y92585D01*
Y1313D01*
D02*
G37*
%LPC*%
G36*
X15558Y91954D02*
Y79140D01*
X28372D01*
X28240Y80812D01*
X27755Y82833D01*
X26959Y84754D01*
X25873Y86526D01*
X24523Y88106D01*
X22943Y89456D01*
X21171Y90542D01*
X19251Y91337D01*
X17230Y91823D01*
X15558Y91954D01*
D02*
G37*
G36*
X14758D02*
X13085Y91823D01*
X11064Y91337D01*
X9144Y90542D01*
X7372Y89456D01*
X5791Y88106D01*
X4442Y86526D01*
X3356Y84754D01*
X2560Y82833D01*
X2075Y80812D01*
X1943Y79140D01*
X14758D01*
Y91954D01*
D02*
G37*
G36*
X28372Y78340D02*
X15558D01*
Y65526D01*
X17230Y65658D01*
X19251Y66143D01*
X21171Y66938D01*
X22943Y68024D01*
X24523Y69374D01*
X25873Y70955D01*
X26959Y72727D01*
X27755Y74647D01*
X28240Y76668D01*
X28372Y78340D01*
D02*
G37*
G36*
X14758D02*
X1943D01*
X2075Y76668D01*
X2560Y74647D01*
X3356Y72727D01*
X4442Y70955D01*
X5791Y69374D01*
X7372Y68024D01*
X9144Y66938D01*
X11064Y66143D01*
X13085Y65658D01*
X14758Y65526D01*
Y78340D01*
D02*
G37*
G36*
X39764Y65383D02*
X39764Y65383D01*
X29921D01*
X29609Y65320D01*
X29344Y65144D01*
X29344Y65144D01*
X28459Y64258D01*
X28282Y63993D01*
X28220Y63681D01*
X27922Y63295D01*
X20595D01*
X20366Y63295D01*
X20095Y63683D01*
Y63795D01*
X17428D01*
Y60827D01*
Y57858D01*
X20095D01*
Y57971D01*
X20366Y58358D01*
X20595Y58358D01*
X22117D01*
Y57326D01*
X21512Y56721D01*
X17323D01*
X17011Y56659D01*
X16746Y56482D01*
X16746Y56482D01*
X14171Y53907D01*
X13994Y53642D01*
X13932Y53330D01*
X13932Y53330D01*
Y45308D01*
X13932Y45308D01*
X13994Y44996D01*
X14171Y44731D01*
X16073Y42828D01*
X15990Y42703D01*
X15798Y41740D01*
X15990Y40777D01*
X16535Y39961D01*
X17352Y39415D01*
X18315Y39223D01*
X19278Y39415D01*
X20095Y39961D01*
X20640Y40777D01*
X20832Y41740D01*
X20640Y42703D01*
X20095Y43520D01*
X19278Y44065D01*
X18315Y44257D01*
X17352Y44065D01*
X17227Y43982D01*
X15563Y45646D01*
Y47625D01*
X16063Y47738D01*
X16535Y47031D01*
X17352Y46486D01*
X18315Y46294D01*
X19278Y46486D01*
X20095Y47031D01*
X20640Y47848D01*
X20832Y48811D01*
X20640Y49774D01*
X20095Y50591D01*
X19278Y51136D01*
X18315Y51328D01*
X17352Y51136D01*
X16535Y50591D01*
X16063Y49884D01*
X15563Y49997D01*
Y52992D01*
X17661Y55090D01*
X21850D01*
X21850Y55090D01*
X22163Y55152D01*
X22427Y55329D01*
X23510Y56411D01*
X23687Y56676D01*
X23749Y56988D01*
X23749Y56988D01*
Y58358D01*
X34125D01*
Y57326D01*
X33127Y56327D01*
X28740D01*
X28740Y56327D01*
X28428Y56265D01*
X28163Y56089D01*
X28163Y56089D01*
X25014Y52939D01*
X24837Y52674D01*
X24775Y52362D01*
X24775Y52362D01*
Y51206D01*
X24423Y51136D01*
X23606Y50591D01*
X23061Y49774D01*
X22869Y48811D01*
X23061Y47848D01*
X23606Y47031D01*
X24423Y46486D01*
X25386Y46294D01*
X26349Y46486D01*
X27165Y47031D01*
X27711Y47848D01*
X27903Y48811D01*
X27711Y49774D01*
X27165Y50591D01*
X26406Y51098D01*
Y52024D01*
X29078Y54696D01*
X33465D01*
X33465Y54696D01*
X33777Y54758D01*
X34041Y54935D01*
X35518Y56411D01*
X35518Y56411D01*
X35695Y56676D01*
X35757Y56988D01*
X35757Y56988D01*
Y58358D01*
X37508D01*
Y58358D01*
X37945Y58539D01*
X38990Y57494D01*
X38990Y57494D01*
X39255Y57317D01*
X39354Y57297D01*
Y54957D01*
X38091D01*
X37700Y54879D01*
X37370Y54658D01*
X37149Y54327D01*
X37071Y53937D01*
X37149Y53547D01*
X37370Y53216D01*
X37700Y52995D01*
X38091Y52917D01*
X39354D01*
Y50083D01*
X40840D01*
Y53937D01*
X41640D01*
Y50083D01*
X43126D01*
Y50583D01*
X50303D01*
Y53121D01*
X52650D01*
Y51862D01*
X57193D01*
Y53220D01*
X58358D01*
Y51764D01*
X60011D01*
Y51181D01*
X60011Y51181D01*
X60073Y50869D01*
X60250Y50604D01*
X61431Y49423D01*
X61431Y49423D01*
X61696Y49246D01*
X62008Y49184D01*
X62008Y49184D01*
X66844D01*
X66851Y49152D01*
X67331Y48433D01*
X67856Y48082D01*
X67823Y47527D01*
X67550Y47414D01*
X66991Y46985D01*
X66563Y46427D01*
X66293Y45777D01*
X66254Y45479D01*
X68898D01*
X71541D01*
X71502Y45777D01*
X71233Y46427D01*
X70804Y46985D01*
X70246Y47414D01*
X69972Y47527D01*
X69939Y48082D01*
X70464Y48433D01*
X70945Y49152D01*
X71114Y50000D01*
X70945Y50848D01*
X70464Y51567D01*
X69746Y52047D01*
X69713Y52054D01*
Y53150D01*
X69651Y53462D01*
X69474Y53726D01*
X69474Y53726D01*
X69123Y54078D01*
Y56065D01*
X69465Y56110D01*
X70545Y56557D01*
X71472Y57269D01*
X72183Y58195D01*
X72630Y59275D01*
X72782Y60433D01*
X72630Y61591D01*
X72183Y62671D01*
X71472Y63598D01*
X70545Y64309D01*
X69465Y64756D01*
X68307Y64908D01*
X67149Y64756D01*
X66069Y64309D01*
X65143Y63598D01*
X64431Y62671D01*
X63984Y61591D01*
X63832Y60433D01*
X63984Y59275D01*
X64431Y58195D01*
X65143Y57269D01*
X66069Y56557D01*
X67149Y56110D01*
X67491Y56065D01*
Y53740D01*
X67491Y53740D01*
X67554Y53428D01*
X67730Y53163D01*
X68082Y52812D01*
Y52054D01*
X68050Y52047D01*
X67331Y51567D01*
X66851Y50848D01*
X66844Y50816D01*
X62346D01*
X61898Y51264D01*
X62105Y51764D01*
X63295D01*
Y56898D01*
X58358D01*
Y54851D01*
X57193D01*
Y56209D01*
X52650D01*
Y54753D01*
X50303D01*
Y57291D01*
X47174D01*
Y58028D01*
X48094Y58949D01*
X51287D01*
Y59322D01*
X52650D01*
Y57965D01*
X57193D01*
Y59421D01*
X58358D01*
Y57669D01*
X63295D01*
Y62803D01*
X58358D01*
Y61052D01*
X57193D01*
Y62311D01*
X52650D01*
Y60953D01*
X51287D01*
Y63492D01*
X46941D01*
Y60102D01*
X45781Y58943D01*
X45605Y58678D01*
X45543Y58366D01*
X45543Y58366D01*
Y57291D01*
X44615D01*
Y57382D01*
X44553Y57694D01*
X44376Y57959D01*
X44376Y57959D01*
X43886Y58449D01*
X44093Y58949D01*
X45185D01*
Y63492D01*
X41992D01*
X40341Y65144D01*
X40076Y65320D01*
X39764Y65383D01*
D02*
G37*
G36*
X16628Y63795D02*
X13961D01*
Y61846D01*
X12697D01*
X12307Y61769D01*
X11976Y61548D01*
X11755Y61217D01*
X11677Y60827D01*
X11755Y60437D01*
X11976Y60106D01*
X12307Y59885D01*
X12697Y59807D01*
X13961D01*
Y57858D01*
X16628D01*
Y60827D01*
Y63795D01*
D02*
G37*
G36*
X61221Y47083D02*
X60830Y47005D01*
X60500Y46784D01*
X60278Y46453D01*
X60201Y46063D01*
Y44799D01*
X58252D01*
Y44799D01*
X58087D01*
Y44799D01*
X56138D01*
Y46063D01*
X56060Y46453D01*
X55839Y46784D01*
X55508Y47005D01*
X55118Y47083D01*
X54728Y47005D01*
X54397Y46784D01*
X54176Y46453D01*
X54098Y46063D01*
Y44799D01*
X52150D01*
Y42132D01*
X55118D01*
Y41332D01*
X52150D01*
Y38665D01*
X52179D01*
X52337Y38519D01*
X52370Y38014D01*
X52296Y37940D01*
X50303D01*
Y39968D01*
X39854D01*
Y33260D01*
X40424D01*
Y32193D01*
X38378D01*
Y27650D01*
X39735D01*
Y26484D01*
X38378D01*
Y21941D01*
X42724D01*
Y26484D01*
X41367D01*
Y27650D01*
X42724D01*
Y32193D01*
X42056D01*
Y33260D01*
X45543D01*
Y32193D01*
X44185D01*
Y27650D01*
X48531D01*
Y32193D01*
X47174D01*
Y33260D01*
X50303D01*
Y35289D01*
X52650D01*
Y33260D01*
X57587D01*
Y34501D01*
X58752D01*
Y33260D01*
X63689D01*
Y34807D01*
X64567D01*
X64957Y34885D01*
X65288Y35106D01*
X68252Y38070D01*
X68898Y37942D01*
X69746Y38110D01*
X70464Y38591D01*
X70945Y39309D01*
X71114Y40157D01*
X70945Y41005D01*
X70464Y41724D01*
X69939Y42075D01*
X69972Y42630D01*
X70246Y42744D01*
X70804Y43172D01*
X71233Y43731D01*
X71502Y44381D01*
X71541Y44679D01*
X68898D01*
X66254D01*
X66293Y44381D01*
X66429Y44052D01*
X65129Y42752D01*
X64189D01*
Y44799D01*
X62240D01*
Y46063D01*
X62163Y46453D01*
X61941Y46784D01*
X61611Y47005D01*
X61221Y47083D01*
D02*
G37*
G36*
X24986Y44682D02*
X24611Y44632D01*
X23889Y44333D01*
X23269Y43857D01*
X22793Y43237D01*
X22494Y42515D01*
X22444Y42140D01*
X24986D01*
Y44682D01*
D02*
G37*
G36*
X25786D02*
Y41740D01*
Y38799D01*
X26161Y38848D01*
X26883Y39147D01*
X27503Y39623D01*
X27979Y40243D01*
X28261Y40925D01*
X29126D01*
X29438Y40987D01*
X29703Y41163D01*
X29880Y41428D01*
X29942Y41740D01*
X29880Y42052D01*
X29703Y42317D01*
X29438Y42494D01*
X29126Y42556D01*
X28261D01*
X27979Y43237D01*
X27503Y43857D01*
X26883Y44333D01*
X26161Y44632D01*
X25786Y44682D01*
D02*
G37*
G36*
X24986Y41340D02*
X22444D01*
X22494Y40965D01*
X22793Y40243D01*
X23269Y39623D01*
X23889Y39147D01*
X24611Y38848D01*
X24986Y38799D01*
Y41340D01*
D02*
G37*
G36*
X36622Y32193D02*
X32276D01*
Y31030D01*
X31776Y30879D01*
X31653Y31062D01*
X31129Y31412D01*
X30512Y31535D01*
X29894Y31412D01*
X29371Y31062D01*
X29021Y30539D01*
X28898Y29921D01*
X29021Y29304D01*
X29371Y28780D01*
X29894Y28430D01*
X30512Y28308D01*
X31129Y28430D01*
X31653Y28780D01*
X31776Y28964D01*
X32276Y28812D01*
Y27650D01*
X36622D01*
Y32193D01*
D02*
G37*
G36*
X54634Y32193D02*
X50287D01*
Y27650D01*
X51547D01*
Y26838D01*
X51193Y26484D01*
X49795Y26484D01*
X49524Y26872D01*
Y26984D01*
X46857D01*
Y24016D01*
X46457D01*
Y23616D01*
X43390D01*
Y21047D01*
X45437D01*
Y19685D01*
X45515Y19295D01*
X45736Y18964D01*
X46066Y18743D01*
X46457Y18665D01*
X46847Y18743D01*
X47178Y18964D01*
X47399Y19295D01*
X47476Y19685D01*
Y21047D01*
X49524D01*
Y21160D01*
X49795Y21547D01*
X50024Y21547D01*
X54929D01*
Y22501D01*
X55429Y22601D01*
X55770Y21778D01*
X56481Y20851D01*
X57408Y20140D01*
X58487Y19693D01*
X59646Y19541D01*
X60804Y19693D01*
X61883Y20140D01*
X62810Y20851D01*
X63521Y21778D01*
X63968Y22858D01*
X64121Y24016D01*
X63968Y25174D01*
X63521Y26253D01*
X62810Y27180D01*
X61883Y27891D01*
X60804Y28339D01*
X59646Y28491D01*
X58487Y28339D01*
X57408Y27891D01*
X56481Y27180D01*
X55770Y26253D01*
X55429Y25431D01*
X54929Y25530D01*
Y26484D01*
X53178D01*
Y27650D01*
X54634D01*
Y28812D01*
X55134Y28964D01*
X55257Y28780D01*
X55780Y28430D01*
X56398Y28308D01*
X57015Y28430D01*
X57539Y28780D01*
X57889Y29304D01*
X58011Y29921D01*
X57889Y30539D01*
X57539Y31062D01*
X57015Y31412D01*
X56398Y31535D01*
X55780Y31412D01*
X55257Y31062D01*
X55134Y30879D01*
X54634Y31030D01*
Y32193D01*
D02*
G37*
G36*
X36622Y26484D02*
X32276D01*
Y25322D01*
X31776Y25170D01*
X31653Y25354D01*
X31129Y25703D01*
X30512Y25826D01*
X29894Y25703D01*
X29371Y25354D01*
X29021Y24830D01*
X28898Y24213D01*
X29021Y23595D01*
X29371Y23072D01*
X29894Y22722D01*
X30512Y22599D01*
X31129Y22722D01*
X31653Y23072D01*
X31776Y23255D01*
X32276Y23104D01*
Y21941D01*
X36622D01*
Y26484D01*
D02*
G37*
G36*
X46057Y26984D02*
X43390D01*
Y24416D01*
X46057D01*
Y26984D01*
D02*
G37*
G36*
X15558Y28372D02*
Y15558D01*
X28372D01*
X28240Y17230D01*
X27755Y19251D01*
X26959Y21171D01*
X25873Y22943D01*
X24523Y24523D01*
X22943Y25873D01*
X21171Y26959D01*
X19251Y27755D01*
X17230Y28240D01*
X15558Y28372D01*
D02*
G37*
G36*
X14758D02*
X13085Y28240D01*
X11064Y27755D01*
X9144Y26959D01*
X7372Y25873D01*
X5791Y24523D01*
X4442Y22943D01*
X3356Y21171D01*
X2560Y19251D01*
X2075Y17230D01*
X1943Y15558D01*
X14758D01*
Y28372D01*
D02*
G37*
G36*
X28372Y14758D02*
X15558D01*
Y1943D01*
X17230Y2075D01*
X19251Y2560D01*
X21171Y3356D01*
X22943Y4442D01*
X24523Y5791D01*
X25873Y7372D01*
X26959Y9144D01*
X27755Y11064D01*
X28240Y13085D01*
X28372Y14758D01*
D02*
G37*
G36*
X14758D02*
X1943D01*
X2075Y13085D01*
X2560Y11064D01*
X3356Y9144D01*
X4442Y7372D01*
X5791Y5791D01*
X7372Y4442D01*
X9144Y3356D01*
X11064Y2560D01*
X13085Y2075D01*
X14758Y1943D01*
Y14758D01*
D02*
G37*
%LPD*%
D12*
X59646Y24016D02*
D03*
X68307Y60433D02*
D03*
D13*
X41240Y36614D02*
D03*
X43799D02*
D03*
X46358D02*
D03*
X48917D02*
D03*
X41240Y53937D02*
D03*
X43799D02*
D03*
X46358D02*
D03*
X48917D02*
D03*
D14*
X55118Y41732D02*
D03*
Y35827D02*
D03*
X61221Y41732D02*
D03*
Y35827D02*
D03*
X60827Y54331D02*
D03*
Y60236D02*
D03*
D15*
X40551Y24213D02*
D03*
X34449D02*
D03*
Y29921D02*
D03*
X40551D02*
D03*
X43012Y61221D02*
D03*
X49114D02*
D03*
X46358Y29921D02*
D03*
X52461D02*
D03*
D16*
X54921Y60138D02*
D03*
Y54035D02*
D03*
D17*
X46457Y24016D02*
D03*
X52362D02*
D03*
X29035Y60827D02*
D03*
X34941D02*
D03*
X17028D02*
D03*
X22933D02*
D03*
D27*
X50098Y60138D02*
X54921D01*
X49114Y61122D02*
X50098Y60138D01*
X52362Y24016D02*
X52362Y24016D01*
X59646D01*
X60827Y51181D02*
Y54331D01*
X68898Y50000D02*
Y53150D01*
X68307Y53740D02*
X68898Y53150D01*
X68307Y53740D02*
Y60433D01*
X62008Y50000D02*
X68898D01*
X60827Y51181D02*
X62008Y50000D01*
X43012Y61221D02*
Y61319D01*
X39764Y64567D02*
X43012Y61319D01*
X29921Y64567D02*
X39764D01*
X46358Y58366D02*
X49114Y61122D01*
X46358Y53937D02*
Y58366D01*
X39567Y58071D02*
X43110D01*
X34941Y60827D02*
X35686Y60082D01*
X37556D01*
X39567Y58071D01*
X43110D02*
X43799Y57382D01*
X25386Y41740D02*
X29126D01*
X52362Y29823D02*
X52461Y29921D01*
X56398D01*
X34941Y56988D02*
Y60827D01*
X33465Y55512D02*
X34941Y56988D01*
X28740Y55512D02*
X33465D01*
X25591Y52362D02*
X28740Y55512D01*
X25591Y49016D02*
Y52362D01*
X25386Y48811D02*
X25591Y49016D01*
X52362Y24016D02*
Y29823D01*
X30512Y24213D02*
X34449D01*
X30512Y29921D02*
X34449D01*
X14747Y45308D02*
Y53330D01*
X17323Y55905D01*
X21850D01*
X14747Y45308D02*
X18315Y41740D01*
X22933Y56988D02*
Y60827D01*
X21850Y55905D02*
X22933Y56988D01*
X55020Y60236D02*
X60827D01*
X54921Y60138D02*
X55020Y60236D01*
X54921Y54035D02*
X60532D01*
X60827Y54331D01*
X48917Y53937D02*
X54823D01*
X54921Y54035D01*
X41240Y30610D02*
Y36614D01*
X40551Y29921D02*
X41240Y30610D01*
X40551Y24213D02*
Y29921D01*
X22933Y60827D02*
X29035D01*
Y63681D01*
X29921Y64567D01*
X43799Y53937D02*
Y57382D01*
X54331Y36614D02*
X55118Y35827D01*
X46358Y29921D02*
Y36614D01*
X43799D02*
X46358D01*
D28*
X64567Y35827D02*
X68898Y40157D01*
X61221Y35827D02*
X64567D01*
X65551Y41732D02*
X68898Y45079D01*
X61221Y41732D02*
X65551D01*
X61221D02*
Y46063D01*
X12697Y60827D02*
X17028D01*
X46457Y19685D02*
Y24016D01*
X55118Y41732D02*
Y46063D01*
X38091Y53937D02*
X41240D01*
D29*
X55118Y41732D02*
X61221D01*
X55118Y35827D02*
X61221D01*
X48917Y36614D02*
X54331D01*
D30*
X15157Y78740D02*
D03*
Y15157D02*
D03*
D31*
X68898Y50000D02*
D03*
Y45079D02*
D03*
Y40157D02*
D03*
D32*
X25386Y41740D02*
D03*
X18315D02*
D03*
Y48811D02*
D03*
X25386D02*
D03*
D33*
X72244Y79134D02*
D03*
Y24016D02*
D03*
X65354Y10236D02*
D03*
X58465Y79134D02*
D03*
X51575Y65354D02*
D03*
Y10236D02*
D03*
X44685Y79134D02*
D03*
X37795Y37795D02*
D03*
Y10236D02*
D03*
X30906Y79134D02*
D03*
X24016Y65354D02*
D03*
X30906Y51575D02*
D03*
X10236Y37795D02*
D03*
X61221Y46063D02*
D03*
X29126Y41740D02*
D03*
X12697Y60827D02*
D03*
X46457Y19685D02*
D03*
X56398Y29921D02*
D03*
X38091Y53937D02*
D03*
X55118Y46063D02*
D03*
X30512Y24213D02*
D03*
Y29921D02*
D03*
M02*
