G04*
G04 #@! TF.GenerationSoftware,Altium Limited,Altium Designer,20.2.6 (244)*
G04*
G04 Layer_Color=8388736*
%FSLAX25Y25*%
%MOIN*%
G70*
G04*
G04 #@! TF.SameCoordinates,C04A9063-7A41-4EBF-B6AE-4B4DE63A84DA*
G04*
G04*
G04 #@! TF.FilePolarity,Negative*
G04*
G01*
G75*
%ADD17R,0.04724X0.04528*%
%ADD18R,0.03937X0.04134*%
%ADD19R,0.04528X0.04724*%
%ADD20R,0.02362X0.06299*%
%ADD21R,0.04134X0.03937*%
%ADD22C,0.25000*%
%ADD23C,0.04528*%
%ADD24C,0.03937*%
D17*
X56299Y19094D02*
D03*
X50394D02*
D03*
X25984Y61811D02*
D03*
X31890D02*
D03*
X65945Y62008D02*
D03*
X60039D02*
D03*
D18*
X65847Y67913D02*
D03*
X59744D02*
D03*
X44685Y31299D02*
D03*
X38583D02*
D03*
D19*
X31890Y73819D02*
D03*
Y67913D02*
D03*
X56102Y25197D02*
D03*
Y31102D02*
D03*
X62205Y43307D02*
D03*
Y37402D02*
D03*
D20*
X56004Y55216D02*
D03*
X53445D02*
D03*
X50886D02*
D03*
X48327D02*
D03*
X56004Y37894D02*
D03*
X53445D02*
D03*
X50886D02*
D03*
X48327D02*
D03*
D21*
X54134Y61713D02*
D03*
Y67815D02*
D03*
X44488Y25787D02*
D03*
Y19685D02*
D03*
X50197Y25394D02*
D03*
Y31496D02*
D03*
D22*
X15157Y79331D02*
D03*
Y15157D02*
D03*
D23*
X32480Y49984D02*
D03*
X25409D02*
D03*
Y42913D02*
D03*
X32480D02*
D03*
D24*
X68898Y50000D02*
D03*
Y45079D02*
D03*
Y40157D02*
D03*
M02*
