G04*
G04 #@! TF.GenerationSoftware,Altium Limited,Altium Designer,20.2.6 (244)*
G04*
G04 Layer_Physical_Order=1*
G04 Layer_Color=255*
%FSLAX25Y25*%
%MOIN*%
G70*
G04*
G04 #@! TF.SameCoordinates,C04A9063-7A41-4EBF-B6AE-4B4DE63A84DA*
G04*
G04*
G04 #@! TF.FilePolarity,Positive*
G04*
G01*
G75*
%ADD12R,0.04134X0.03937*%
%ADD13R,0.03347X0.03543*%
%ADD14R,0.03937X0.04134*%
%ADD15R,0.01772X0.05709*%
%ADD16R,0.03543X0.03347*%
%ADD25C,0.00600*%
%ADD26C,0.01000*%
%ADD27C,0.24410*%
%ADD28C,0.03937*%
%ADD29C,0.03347*%
%ADD30C,0.02165*%
G36*
X85302Y1313D02*
X1313D01*
Y93176D01*
X85302Y93176D01*
Y1313D01*
D02*
G37*
%LPC*%
G36*
X15558Y92545D02*
Y79731D01*
X28372D01*
X28240Y81403D01*
X27755Y83424D01*
X26959Y85344D01*
X25873Y87116D01*
X24523Y88697D01*
X22943Y90047D01*
X21171Y91133D01*
X19251Y91928D01*
X17230Y92413D01*
X15558Y92545D01*
D02*
G37*
G36*
X14758D02*
X13085Y92413D01*
X11064Y91928D01*
X9144Y91133D01*
X7372Y90047D01*
X5791Y88697D01*
X4442Y87116D01*
X3356Y85344D01*
X2560Y83424D01*
X2075Y81403D01*
X1943Y79731D01*
X14758D01*
Y92545D01*
D02*
G37*
G36*
X31890Y78972D02*
X31500Y78895D01*
X31169Y78674D01*
X30948Y78343D01*
X30870Y77953D01*
Y76886D01*
X28921D01*
Y74219D01*
X34858D01*
Y76886D01*
X32909D01*
Y77953D01*
X32832Y78343D01*
X32611Y78674D01*
X32280Y78895D01*
X31890Y78972D01*
D02*
G37*
G36*
X28372Y78931D02*
X15558D01*
Y66117D01*
X17230Y66248D01*
X19251Y66733D01*
X21171Y67529D01*
X22943Y68615D01*
X24523Y69965D01*
X25873Y71545D01*
X26959Y73317D01*
X27755Y75238D01*
X28240Y77259D01*
X28372Y78931D01*
D02*
G37*
G36*
X14758D02*
X1943D01*
X2075Y77259D01*
X2560Y75238D01*
X3356Y73317D01*
X4442Y71545D01*
X5791Y69965D01*
X7372Y68615D01*
X9144Y67529D01*
X11064Y66733D01*
X13085Y66248D01*
X14758Y66117D01*
Y78931D01*
D02*
G37*
G36*
X34858Y73419D02*
X28921D01*
Y70752D01*
X29034D01*
X29421Y70480D01*
X29421Y70252D01*
Y66324D01*
X29416Y66298D01*
X27398Y64280D01*
X23417D01*
Y60398D01*
X20289Y57270D01*
X20113Y57005D01*
X20051Y56693D01*
X20051Y56693D01*
Y47473D01*
X20051Y47472D01*
X20113Y47160D01*
X20289Y46896D01*
X23174Y44011D01*
X23084Y43876D01*
X22893Y42913D01*
X23084Y41950D01*
X23630Y41134D01*
X24446Y40588D01*
X24594Y40559D01*
Y26953D01*
X24594Y26953D01*
X24656Y26641D01*
X24833Y26376D01*
X35447Y15762D01*
X35447Y15762D01*
X35712Y15585D01*
X36024Y15523D01*
X47539D01*
X47851Y15585D01*
X48116Y15762D01*
X48116Y15762D01*
X48980Y16626D01*
X52732D01*
X52961Y16626D01*
X53232Y16239D01*
Y16126D01*
X55899D01*
Y19094D01*
X56699D01*
Y16126D01*
X59366D01*
Y18075D01*
X60630D01*
X61020Y18153D01*
X61351Y18373D01*
X61572Y18704D01*
X61650Y19094D01*
X61572Y19485D01*
X61351Y19815D01*
X61020Y20037D01*
X60630Y20114D01*
X59720D01*
X59366Y20468D01*
X59366Y22063D01*
X59071Y22441D01*
Y24177D01*
X60236D01*
X60626Y24255D01*
X60957Y24476D01*
X61178Y24807D01*
X61256Y25197D01*
X61178Y25587D01*
X60957Y25918D01*
X60626Y26139D01*
X60236Y26216D01*
X59071D01*
Y28264D01*
X58958D01*
X58571Y28535D01*
X58571Y28764D01*
Y33669D01*
X57024D01*
Y34539D01*
X57390D01*
Y36874D01*
X59736D01*
Y34835D01*
X64673D01*
Y36382D01*
X66142D01*
X66532Y36460D01*
X66863Y36681D01*
X68252Y38070D01*
X68898Y37942D01*
X69746Y38110D01*
X70464Y38591D01*
X70945Y39309D01*
X71114Y40157D01*
X70945Y41005D01*
X70464Y41724D01*
X69939Y42075D01*
X69972Y42630D01*
X70246Y42744D01*
X70804Y43172D01*
X71233Y43731D01*
X71502Y44381D01*
X71541Y44679D01*
X68898D01*
X66105D01*
X65796Y44327D01*
X65173D01*
Y46374D01*
X63224D01*
Y47441D01*
X63147Y47831D01*
X62926Y48162D01*
X62595Y48383D01*
X62205Y48461D01*
X61814Y48383D01*
X61484Y48162D01*
X61263Y47831D01*
X61185Y47441D01*
Y46374D01*
X59236D01*
Y43707D01*
X62205D01*
Y42907D01*
X59236D01*
Y40240D01*
X59349D01*
X59736Y39968D01*
X59736Y39740D01*
Y38913D01*
X57390D01*
Y41248D01*
X46941D01*
Y37387D01*
X46925Y37308D01*
X46925Y37308D01*
Y34791D01*
X45705Y33571D01*
X42512D01*
Y29028D01*
X43672D01*
Y27961D01*
X42217D01*
Y23614D01*
X46760D01*
Y27961D01*
X45304D01*
Y29028D01*
X46858D01*
Y32417D01*
X47463Y33022D01*
X47925Y32831D01*
Y29323D01*
X52469D01*
Y33669D01*
X51701D01*
Y34539D01*
X54984D01*
Y33669D01*
X53634D01*
Y28764D01*
X53634Y28535D01*
X53246Y28264D01*
X53134D01*
Y25597D01*
X56102D01*
Y24797D01*
X53134D01*
Y22522D01*
X53134Y22130D01*
X53167Y21978D01*
X52847Y21563D01*
X51209D01*
Y23221D01*
X52469D01*
Y27567D01*
X47925D01*
Y23221D01*
X49578D01*
Y21563D01*
X47827D01*
Y17798D01*
X47467Y17441D01*
X46823Y17447D01*
X46760Y17512D01*
X46760Y17654D01*
Y21858D01*
X42217D01*
Y20941D01*
X41717Y20790D01*
X41692Y20826D01*
X41169Y21176D01*
X40551Y21299D01*
X39934Y21176D01*
X39410Y20826D01*
X39060Y20303D01*
X38938Y19685D01*
X39060Y19068D01*
X39410Y18544D01*
X39934Y18194D01*
X40551Y18071D01*
X41169Y18194D01*
X41692Y18544D01*
X41717Y18580D01*
X42217Y18429D01*
X42217Y17512D01*
X41873Y17154D01*
X36362D01*
X26225Y27291D01*
Y40559D01*
X26373Y40588D01*
X27189Y41134D01*
X27735Y41950D01*
X27926Y42913D01*
X27735Y43876D01*
X27189Y44693D01*
X26373Y45239D01*
X25409Y45430D01*
X24446Y45239D01*
X24331Y45161D01*
X21682Y47810D01*
Y56355D01*
X24669Y59342D01*
X28551D01*
Y63092D01*
X28866Y63348D01*
X29323Y63149D01*
Y59342D01*
X31665D01*
Y52339D01*
X31517Y52310D01*
X30701Y51764D01*
X30155Y50947D01*
X29963Y49984D01*
X30155Y49021D01*
X30701Y48205D01*
X31517Y47659D01*
X32480Y47467D01*
X33443Y47659D01*
X34260Y48205D01*
X34806Y49021D01*
X34997Y49984D01*
X34806Y50947D01*
X34260Y51764D01*
X33443Y52310D01*
X33296Y52339D01*
Y59342D01*
X34457D01*
Y60995D01*
X47890D01*
X49353Y59533D01*
X49162Y59071D01*
X48727D01*
Y55216D01*
Y51362D01*
X50213D01*
Y51862D01*
X56236D01*
X58675Y49423D01*
X58675Y49423D01*
X58940Y49246D01*
X59252Y49184D01*
X59252Y49184D01*
X66844D01*
X66851Y49152D01*
X67331Y48433D01*
X67856Y48082D01*
X67823Y47527D01*
X67550Y47414D01*
X66991Y46985D01*
X66563Y46427D01*
X66293Y45777D01*
X66254Y45479D01*
X68898D01*
X71541D01*
X71502Y45777D01*
X71233Y46427D01*
X70804Y46985D01*
X70246Y47414D01*
X69972Y47527D01*
X69939Y48082D01*
X70464Y48433D01*
X70945Y49152D01*
X71114Y50000D01*
X70945Y50848D01*
X70464Y51567D01*
X69746Y52047D01*
X68898Y52216D01*
X68050Y52047D01*
X67331Y51567D01*
X66851Y50848D01*
X66844Y50816D01*
X59590D01*
X57390Y53016D01*
Y54401D01*
X59055D01*
X59055Y54401D01*
X59367Y54463D01*
X59632Y54640D01*
X64531Y59539D01*
X68512D01*
Y64476D01*
X66761D01*
Y65642D01*
X68020D01*
Y70185D01*
X63673D01*
Y65642D01*
X65129D01*
Y64476D01*
X63378D01*
Y60727D01*
X63064Y60471D01*
X62606Y60669D01*
Y64476D01*
X60658D01*
Y65642D01*
X61917D01*
Y70185D01*
X57571D01*
Y65642D01*
X59027D01*
Y64476D01*
X57472D01*
Y62528D01*
X56406D01*
Y63886D01*
X51862D01*
Y60038D01*
X51362Y59831D01*
X48805Y62388D01*
X48540Y62565D01*
X48228Y62627D01*
X48228Y62627D01*
X34457D01*
Y64280D01*
X30358D01*
X30167Y64741D01*
X30772Y65346D01*
X34358D01*
Y67098D01*
X51862D01*
Y65642D01*
X56406D01*
Y69988D01*
X51862D01*
Y68729D01*
X34712D01*
X34358Y69083D01*
X34358Y70480D01*
X34746Y70752D01*
X34858D01*
Y73419D01*
D02*
G37*
G36*
X47927Y59071D02*
X46441D01*
Y56236D01*
X44193D01*
X43803Y56159D01*
X43472Y55937D01*
X43251Y55607D01*
X43173Y55216D01*
X43251Y54826D01*
X43472Y54496D01*
X43803Y54274D01*
X44193Y54197D01*
X46441D01*
Y51362D01*
X47927D01*
Y55216D01*
Y59071D01*
D02*
G37*
G36*
X25409Y52501D02*
X24446Y52310D01*
X23630Y51764D01*
X23084Y50947D01*
X22893Y49984D01*
X23084Y49021D01*
X23630Y48205D01*
X24446Y47659D01*
X25409Y47467D01*
X26373Y47659D01*
X27189Y48205D01*
X27735Y49021D01*
X27926Y49984D01*
X27735Y50947D01*
X27189Y51764D01*
X26373Y52310D01*
X25409Y52501D01*
D02*
G37*
G36*
X32880Y45855D02*
Y43313D01*
X35422D01*
X35372Y43688D01*
X35073Y44410D01*
X34598Y45031D01*
X33977Y45506D01*
X33255Y45805D01*
X32880Y45855D01*
D02*
G37*
G36*
X32080D02*
X31705Y45805D01*
X30983Y45506D01*
X30363Y45031D01*
X29887Y44410D01*
X29588Y43688D01*
X29539Y43313D01*
X32080D01*
Y45855D01*
D02*
G37*
G36*
X35422Y42513D02*
X32880D01*
Y39972D01*
X33255Y40021D01*
X33977Y40320D01*
X34598Y40796D01*
X35073Y41416D01*
X35372Y42138D01*
X35422Y42513D01*
D02*
G37*
G36*
X32080D02*
X29539D01*
X29588Y42138D01*
X29887Y41416D01*
X30363Y40796D01*
X30983Y40320D01*
X31705Y40021D01*
X32080Y39972D01*
Y42513D01*
D02*
G37*
G36*
X40756Y33571D02*
X36409D01*
Y29028D01*
X37366D01*
Y28387D01*
X37245Y28306D01*
X36895Y27783D01*
X36772Y27165D01*
X36895Y26548D01*
X37245Y26024D01*
X37768Y25675D01*
X38386Y25552D01*
X39003Y25675D01*
X39527Y26024D01*
X39877Y26548D01*
X39999Y27165D01*
X39877Y27783D01*
X39527Y28306D01*
X39405Y28387D01*
Y29028D01*
X40756D01*
Y33571D01*
D02*
G37*
G36*
X15558Y28372D02*
Y15558D01*
X28372D01*
X28240Y17230D01*
X27755Y19251D01*
X26959Y21171D01*
X25873Y22943D01*
X24523Y24523D01*
X22943Y25873D01*
X21171Y26959D01*
X19251Y27755D01*
X17230Y28240D01*
X15558Y28372D01*
D02*
G37*
G36*
X14758D02*
X13085Y28240D01*
X11064Y27755D01*
X9144Y26959D01*
X7372Y25873D01*
X5791Y24523D01*
X4442Y22943D01*
X3356Y21171D01*
X2560Y19251D01*
X2075Y17230D01*
X1943Y15558D01*
X14758D01*
Y28372D01*
D02*
G37*
G36*
X28372Y14758D02*
X15558D01*
Y1943D01*
X17230Y2075D01*
X19251Y2560D01*
X21171Y3356D01*
X22943Y4442D01*
X24523Y5791D01*
X25873Y7372D01*
X26959Y9144D01*
X27755Y11064D01*
X28240Y13085D01*
X28372Y14758D01*
D02*
G37*
G36*
X14758D02*
X1943D01*
X2075Y13085D01*
X2560Y11064D01*
X3356Y9144D01*
X4442Y7372D01*
X5791Y5791D01*
X7372Y4442D01*
X9144Y3356D01*
X11064Y2560D01*
X13085Y2075D01*
X14758Y1943D01*
Y14758D01*
D02*
G37*
%LPD*%
D12*
X56299Y19094D02*
D03*
X50394D02*
D03*
X25984Y61811D02*
D03*
X31890D02*
D03*
X65945Y62008D02*
D03*
X60039D02*
D03*
D13*
X65847Y67913D02*
D03*
X59744D02*
D03*
X44685Y31299D02*
D03*
X38583D02*
D03*
D14*
X31890Y73819D02*
D03*
Y67913D02*
D03*
X56102Y25197D02*
D03*
Y31102D02*
D03*
X62205Y43307D02*
D03*
Y37402D02*
D03*
D15*
X56004Y55216D02*
D03*
X53445D02*
D03*
X50886D02*
D03*
X48327D02*
D03*
X56004Y37894D02*
D03*
X53445D02*
D03*
X50886D02*
D03*
X48327D02*
D03*
D16*
X54134Y61713D02*
D03*
Y67815D02*
D03*
X44488Y25787D02*
D03*
Y19685D02*
D03*
X50197Y25394D02*
D03*
Y31496D02*
D03*
D25*
X31890Y61811D02*
X32480Y61221D01*
Y49984D02*
Y61221D01*
X31890Y61811D02*
X48228D01*
X31890Y67913D02*
X54035D01*
X54134Y67815D01*
X25984Y61811D02*
X26083D01*
X30221Y65950D01*
Y66245D01*
X31890Y67913D01*
X20866Y56693D02*
X25984Y61811D01*
X20866Y47472D02*
Y56693D01*
X25409Y42913D02*
Y42929D01*
X20866Y47472D02*
X25409Y42929D01*
X50394Y19094D02*
Y25197D01*
X50197Y25394D02*
X50394Y25197D01*
X50295Y19094D02*
X50394D01*
X47539Y16339D02*
X50295Y19094D01*
X47539Y16339D02*
Y16339D01*
X51005Y55335D02*
Y59035D01*
X48228Y61811D02*
X51005Y59035D01*
X65945Y62008D02*
Y67913D01*
X56004Y55216D02*
X59055D01*
X65847Y62008D01*
X53445Y61024D02*
X54134Y61713D01*
X53445Y55216D02*
Y61024D01*
X25409Y26953D02*
Y42913D01*
X59842Y62205D02*
Y67913D01*
X59350Y61713D02*
X59842Y62205D01*
X65945Y67913D02*
X65945Y67913D01*
X25409Y26953D02*
X36024Y16339D01*
X59252Y50000D02*
X68898D01*
X56004Y53248D02*
X59252Y50000D01*
X56004Y53248D02*
Y55216D01*
X62205Y43307D02*
X62205Y43307D01*
X54134Y61713D02*
X59350D01*
X38386Y31102D02*
X38583Y31299D01*
X44685D02*
Y31398D01*
X44488Y25787D02*
Y31102D01*
X44685Y31299D01*
X47741Y34453D02*
Y37308D01*
X48327Y37894D01*
X50886Y55216D02*
X51005Y55335D01*
X56102Y25197D02*
X56102Y25197D01*
X56004Y31201D02*
X56102Y31102D01*
X61713Y37894D02*
X62205Y37402D01*
X65847Y62008D02*
X65945D01*
X68802Y45079D02*
X68898D01*
X50197Y31496D02*
X50886Y32185D01*
X44685Y31398D02*
X47741Y34453D01*
X50886Y32185D02*
Y37894D01*
X36024Y16339D02*
X47539D01*
X40551Y19685D02*
X44488D01*
X50886Y37894D02*
X53445D01*
D26*
X62205Y43307D02*
Y47441D01*
X31890Y73819D02*
Y77953D01*
X44193Y55216D02*
X48327D01*
X38386Y27165D02*
Y31102D01*
X62205Y37402D02*
X66142D01*
X62205Y43307D02*
X67030D01*
X56004Y31201D02*
Y37894D01*
X56299Y19094D02*
X60630D01*
X56102Y25197D02*
X60236D01*
X56004Y37894D02*
X61713D01*
X67030Y43307D02*
X68802Y45079D01*
X66142Y37402D02*
X68898Y40157D01*
D27*
X15157Y79331D02*
D03*
Y15157D02*
D03*
D28*
X32480Y49984D02*
D03*
X25409D02*
D03*
Y42913D02*
D03*
X32480D02*
D03*
D29*
X68898Y50000D02*
D03*
Y45079D02*
D03*
Y40157D02*
D03*
D30*
X77165Y77165D02*
D03*
X83071Y65354D02*
D03*
X77165Y53543D02*
D03*
X83071Y41732D02*
D03*
X77165Y29921D02*
D03*
X83071Y18110D02*
D03*
X77165Y6299D02*
D03*
X65354Y77165D02*
D03*
X71260Y65354D02*
D03*
X65354Y53543D02*
D03*
Y29921D02*
D03*
X71260Y18110D02*
D03*
X65354Y6299D02*
D03*
X53543Y77165D02*
D03*
Y6299D02*
D03*
X41732Y77165D02*
D03*
Y6299D02*
D03*
X29921D02*
D03*
X18110Y53543D02*
D03*
X6299D02*
D03*
X12205Y41732D02*
D03*
X6299Y29921D02*
D03*
X62205Y47441D02*
D03*
X44193Y55216D02*
D03*
X31890Y77953D02*
D03*
X40551Y19685D02*
D03*
X38386Y27165D02*
D03*
X60630Y19094D02*
D03*
X60236Y25197D02*
D03*
M02*
