G04*
G04 #@! TF.GenerationSoftware,Altium Limited,Altium Designer,20.2.6 (244)*
G04*
G04 Layer_Color=65535*
%FSLAX25Y25*%
%MOIN*%
G70*
G04*
G04 #@! TF.SameCoordinates,6BFEBE0F-75FA-40C3-9952-2E119760A06E*
G04*
G04*
G04 #@! TF.FilePolarity,Positive*
G04*
G01*
G75*
%ADD10C,0.00787*%
%ADD11C,0.00620*%
D10*
X57284Y49951D02*
G03*
X57284Y48671I0J-640D01*
G01*
X58544Y56811D02*
G03*
X58544Y56811I-379J0D01*
G01*
X57284Y49951D02*
Y51831D01*
Y46791D02*
Y48671D01*
X47047Y46791D02*
X57284D01*
X47047D02*
Y51831D01*
X57284D01*
D11*
X59853Y53271D02*
X61148Y49872D01*
X62443Y53271D02*
X61148Y49872D01*
X63690Y52138D02*
X63366Y51976D01*
X63042Y51652D01*
X62880Y51167D01*
Y50843D01*
X63042Y50358D01*
X63366Y50034D01*
X63690Y49872D01*
X64175D01*
X64499Y50034D01*
X64823Y50358D01*
X64985Y50843D01*
Y51167D01*
X64823Y51652D01*
X64499Y51976D01*
X64175Y52138D01*
X63690D01*
X65729D02*
Y50519D01*
X65891Y50034D01*
X66215Y49872D01*
X66700D01*
X67024Y50034D01*
X67510Y50519D01*
Y52138D02*
Y49872D01*
X68886Y53271D02*
Y50519D01*
X69047Y50034D01*
X69371Y49872D01*
X69695D01*
X68400Y52138D02*
X69533D01*
X45391Y9531D02*
X46686Y6132D01*
X47981Y9531D02*
X46686Y6132D01*
X48418Y8398D02*
Y6132D01*
Y7427D02*
X48580Y7912D01*
X48904Y8236D01*
X49227Y8398D01*
X49713D01*
X50020Y7427D02*
X51963D01*
Y7750D01*
X51801Y8074D01*
X51639Y8236D01*
X51315Y8398D01*
X50830D01*
X50506Y8236D01*
X50182Y7912D01*
X50020Y7427D01*
Y7103D01*
X50182Y6617D01*
X50506Y6294D01*
X50830Y6132D01*
X51315D01*
X51639Y6294D01*
X51963Y6617D01*
X53986Y9531D02*
X53663D01*
X53339Y9369D01*
X53177Y8884D01*
Y6132D01*
X52691Y8398D02*
X53824D01*
X74288Y35451D02*
Y33832D01*
X75745Y33671D01*
X75583Y33832D01*
X75421Y34318D01*
Y34804D01*
X75583Y35289D01*
X75906Y35613D01*
X76392Y35775D01*
X76716D01*
X77201Y35613D01*
X77525Y35289D01*
X77687Y34804D01*
Y34318D01*
X77525Y33832D01*
X77363Y33671D01*
X77040Y33509D01*
X74288Y36536D02*
X77687Y37831D01*
X74288Y39126D02*
X77687Y37831D01*
X75097Y44662D02*
X74773Y44500D01*
X74450Y44176D01*
X74288Y43852D01*
Y43205D01*
X74450Y42881D01*
X74773Y42557D01*
X75097Y42395D01*
X75583Y42234D01*
X76392D01*
X76878Y42395D01*
X77201Y42557D01*
X77525Y42881D01*
X77687Y43205D01*
Y43852D01*
X77525Y44176D01*
X77201Y44500D01*
X76878Y44662D01*
X76392D01*
Y43852D02*
Y44662D01*
X74288Y45439D02*
X77687D01*
X74288D02*
X77687Y47705D01*
X74288D02*
X77687D01*
X74288Y48644D02*
X77687D01*
X74288D02*
Y49777D01*
X74450Y50262D01*
X74773Y50586D01*
X75097Y50748D01*
X75583Y50910D01*
X76392D01*
X76878Y50748D01*
X77201Y50586D01*
X77525Y50262D01*
X77687Y49777D01*
Y48644D01*
X74288Y54342D02*
X77687Y55636D01*
X74288Y56931D02*
X77687Y55636D01*
X75421Y58178D02*
X75583Y57854D01*
X75906Y57530D01*
X76392Y57368D01*
X76716D01*
X77201Y57530D01*
X77525Y57854D01*
X77687Y58178D01*
Y58663D01*
X77525Y58987D01*
X77201Y59311D01*
X76716Y59473D01*
X76392D01*
X75906Y59311D01*
X75583Y58987D01*
X75421Y58663D01*
Y58178D01*
Y60217D02*
X77040D01*
X77525Y60379D01*
X77687Y60703D01*
Y61189D01*
X77525Y61512D01*
X77040Y61998D01*
X75421D02*
X77687D01*
X74288Y63374D02*
X77040D01*
X77525Y63536D01*
X77687Y63859D01*
Y64183D01*
X75421Y62888D02*
Y64021D01*
X87684Y75833D02*
Y73244D01*
X87522Y72758D01*
X87360Y72596D01*
X87037Y72434D01*
X86713D01*
X86389Y72596D01*
X86227Y72758D01*
X86066Y73244D01*
Y73567D01*
X88558Y75186D02*
X88882Y75348D01*
X89368Y75833D01*
Y72434D01*
X45348Y62363D02*
X47776D01*
X48261Y62525D01*
X48585Y62849D01*
X48747Y63334D01*
Y63658D01*
X48585Y64144D01*
X48261Y64467D01*
X47776Y64629D01*
X45348D01*
X45995Y65568D02*
X45833Y65892D01*
X45348Y66377D01*
X48747D01*
X52631Y74322D02*
X56030D01*
X52631D02*
Y75779D01*
X52793Y76264D01*
X52955Y76426D01*
X53278Y76588D01*
X53602D01*
X53926Y76426D01*
X54088Y76264D01*
X54250Y75779D01*
Y74322D01*
Y75455D02*
X56030Y76588D01*
X52631Y77673D02*
Y79453D01*
X53926Y78482D01*
Y78968D01*
X54088Y79291D01*
X54250Y79453D01*
X54735Y79615D01*
X55059D01*
X55545Y79453D01*
X55869Y79129D01*
X56030Y78644D01*
Y78158D01*
X55869Y77673D01*
X55707Y77511D01*
X55383Y77349D01*
X17047Y34906D02*
X16885Y35230D01*
X16561Y35554D01*
X16237Y35715D01*
X15590D01*
X15266Y35554D01*
X14942Y35230D01*
X14780Y34906D01*
X14618Y34420D01*
Y33611D01*
X14780Y33125D01*
X14942Y32802D01*
X15266Y32478D01*
X15590Y32316D01*
X16237D01*
X16561Y32478D01*
X16885Y32802D01*
X17047Y33125D01*
X19944Y35230D02*
X19782Y35554D01*
X19297Y35715D01*
X18973D01*
X18487Y35554D01*
X18164Y35068D01*
X18002Y34259D01*
Y33449D01*
X18164Y32802D01*
X18487Y32478D01*
X18973Y32316D01*
X19135D01*
X19620Y32478D01*
X19944Y32802D01*
X20106Y33287D01*
Y33449D01*
X19944Y33935D01*
X19620Y34259D01*
X19135Y34420D01*
X18973D01*
X18487Y34259D01*
X18164Y33935D01*
X18002Y33449D01*
X57475Y17150D02*
X57313Y17474D01*
X56990Y17798D01*
X56666Y17959D01*
X56018D01*
X55695Y17798D01*
X55371Y17474D01*
X55209Y17150D01*
X55047Y16665D01*
Y15855D01*
X55209Y15370D01*
X55371Y15046D01*
X55695Y14722D01*
X56018Y14560D01*
X56666D01*
X56990Y14722D01*
X57313Y15046D01*
X57475Y15370D01*
X60049Y17959D02*
X58430Y15693D01*
X60858D01*
X60049Y17959D02*
Y14560D01*
X41135Y13849D02*
X44534D01*
X41135D02*
Y15306D01*
X41297Y15792D01*
X41459Y15954D01*
X41783Y16116D01*
X42106D01*
X42430Y15954D01*
X42592Y15792D01*
X42754Y15306D01*
Y13849D01*
Y14983D02*
X44534Y16116D01*
X41135Y18819D02*
Y17200D01*
X42592Y17038D01*
X42430Y17200D01*
X42268Y17686D01*
Y18171D01*
X42430Y18657D01*
X42754Y18981D01*
X43239Y19143D01*
X43563D01*
X44049Y18981D01*
X44372Y18657D01*
X44534Y18171D01*
Y17686D01*
X44372Y17200D01*
X44210Y17038D01*
X43887Y16876D01*
X39814Y41267D02*
Y37867D01*
Y41267D02*
X41271D01*
X41757Y41105D01*
X41918Y40943D01*
X42080Y40619D01*
Y40295D01*
X41918Y39972D01*
X41757Y39810D01*
X41271Y39648D01*
X39814D01*
X40947D02*
X42080Y37867D01*
X42841Y40619D02*
X43165Y40781D01*
X43650Y41267D01*
Y37867D01*
X66590Y39761D02*
X66266Y39599D01*
X65943Y39275D01*
X65781Y38952D01*
Y38304D01*
X65943Y37980D01*
X66266Y37657D01*
X66590Y37495D01*
X67076Y37333D01*
X67885D01*
X68371Y37495D01*
X68694Y37657D01*
X69018Y37980D01*
X69180Y38304D01*
Y38952D01*
X69018Y39275D01*
X68694Y39599D01*
X68371Y39761D01*
X66590Y40878D02*
X66428D01*
X66104Y41040D01*
X65943Y41201D01*
X65781Y41525D01*
Y42173D01*
X65943Y42496D01*
X66104Y42658D01*
X66428Y42820D01*
X66752D01*
X67076Y42658D01*
X67561Y42335D01*
X69180Y40716D01*
Y42982D01*
X59954Y29716D02*
X63353D01*
X59954D02*
Y31172D01*
X60116Y31658D01*
X60278Y31820D01*
X60601Y31982D01*
X60925D01*
X61249Y31820D01*
X61411Y31658D01*
X61573Y31172D01*
Y29716D01*
Y30849D02*
X63353Y31982D01*
X60763Y32904D02*
X60601D01*
X60278Y33066D01*
X60116Y33228D01*
X59954Y33552D01*
Y34199D01*
X60116Y34523D01*
X60278Y34685D01*
X60601Y34847D01*
X60925D01*
X61249Y34685D01*
X61734Y34361D01*
X63353Y32743D01*
Y35009D01*
X65448Y32379D02*
X65124Y32217D01*
X64801Y31894D01*
X64639Y31570D01*
Y30922D01*
X64801Y30599D01*
X65124Y30275D01*
X65448Y30113D01*
X65934Y29951D01*
X66743D01*
X67229Y30113D01*
X67553Y30275D01*
X67876Y30599D01*
X68038Y30922D01*
Y31570D01*
X67876Y31894D01*
X67553Y32217D01*
X67229Y32379D01*
X65286Y33334D02*
X65124Y33658D01*
X64639Y34143D01*
X68038D01*
X72162Y69040D02*
X72001Y69364D01*
X71677Y69687D01*
X71353Y69849D01*
X70706D01*
X70382Y69687D01*
X70058Y69364D01*
X69896Y69040D01*
X69734Y68554D01*
Y67745D01*
X69896Y67259D01*
X70058Y66936D01*
X70382Y66612D01*
X70706Y66450D01*
X71353D01*
X71677Y66612D01*
X72001Y66936D01*
X72162Y67259D01*
X73441Y69849D02*
X75222D01*
X74251Y68554D01*
X74736D01*
X75060Y68392D01*
X75222Y68230D01*
X75384Y67745D01*
Y67421D01*
X75222Y66936D01*
X74898Y66612D01*
X74413Y66450D01*
X73927D01*
X73441Y66612D01*
X73279Y66774D01*
X73118Y67098D01*
X29564Y34512D02*
X29402Y34836D01*
X29078Y35160D01*
X28755Y35322D01*
X28107D01*
X27784Y35160D01*
X27460Y34836D01*
X27298Y34512D01*
X27136Y34027D01*
Y33217D01*
X27298Y32732D01*
X27460Y32408D01*
X27784Y32084D01*
X28107Y31922D01*
X28755D01*
X29078Y32084D01*
X29402Y32408D01*
X29564Y32732D01*
X32462Y35322D02*
X30843D01*
X30681Y33865D01*
X30843Y34027D01*
X31328Y34189D01*
X31814D01*
X32300Y34027D01*
X32623Y33703D01*
X32785Y33217D01*
Y32894D01*
X32623Y32408D01*
X32300Y32084D01*
X31814Y31922D01*
X31328D01*
X30843Y32084D01*
X30681Y32246D01*
X30519Y32570D01*
X60265Y77684D02*
Y74285D01*
Y77684D02*
X61721D01*
X62207Y77522D01*
X62369Y77360D01*
X62531Y77036D01*
Y76713D01*
X62369Y76389D01*
X62207Y76227D01*
X61721Y76065D01*
X60265D01*
X61398D02*
X62531Y74285D01*
X64910Y77684D02*
X63292Y75418D01*
X65720D01*
X64910Y77684D02*
Y74285D01*
M02*
