G04*
G04 #@! TF.GenerationSoftware,Altium Limited,Altium Designer,20.2.6 (244)*
G04*
G04 Layer_Color=24703*
%FSLAX25Y25*%
%MOIN*%
G70*
G04*
G04 #@! TF.SameCoordinates,24C1D65A-0545-48CF-8A99-6B624FE080D9*
G04*
G04*
G04 #@! TF.FilePolarity,Positive*
G04*
G01*
G75*
%ADD11C,0.00620*%
D11*
X90757Y88589D02*
Y85190D01*
Y88589D02*
X92052Y85190D01*
X93347Y88589D02*
X92052Y85190D01*
X93347Y88589D02*
Y85190D01*
X94318Y88589D02*
Y85190D01*
X96584Y88589D02*
Y85190D01*
X94318Y86971D02*
X96584D01*
X99142Y88589D02*
X97523Y86323D01*
X99951D01*
X99142Y88589D02*
Y85190D01*
X94500Y10204D02*
Y6804D01*
Y10204D02*
X95794Y6804D01*
X97089Y10204D02*
X95794Y6804D01*
X97089Y10204D02*
Y6804D01*
X98061Y10204D02*
Y6804D01*
X100327Y10204D02*
Y6804D01*
X98061Y8585D02*
X100327D01*
X101590Y10204D02*
X103370D01*
X102399Y8909D01*
X102884D01*
X103208Y8747D01*
X103370Y8585D01*
X103532Y8099D01*
Y7775D01*
X103370Y7290D01*
X103046Y6966D01*
X102561Y6804D01*
X102075D01*
X101590Y6966D01*
X101428Y7128D01*
X101266Y7452D01*
X2905Y34574D02*
Y31174D01*
Y34574D02*
X4200Y31174D01*
X5495Y34574D02*
X4200Y31174D01*
X5495Y34574D02*
Y31174D01*
X6466Y34574D02*
Y31174D01*
X8732Y34574D02*
Y31174D01*
X6466Y32955D02*
X8732D01*
X9671Y33926D02*
X9995Y34088D01*
X10481Y34574D01*
Y31174D01*
X3161Y67448D02*
Y64048D01*
Y67448D02*
X4456Y64048D01*
X5751Y67448D02*
X4456Y64048D01*
X5751Y67448D02*
Y64048D01*
X6722Y67448D02*
Y64048D01*
X8988Y67448D02*
Y64048D01*
X6722Y65829D02*
X8988D01*
X10089Y66638D02*
Y66800D01*
X10251Y67124D01*
X10413Y67286D01*
X10736Y67448D01*
X11384D01*
X11708Y67286D01*
X11870Y67124D01*
X12032Y66800D01*
Y66476D01*
X11870Y66153D01*
X11546Y65667D01*
X9927Y64048D01*
X12193D01*
M02*
