G04*
G04 #@! TF.GenerationSoftware,Altium Limited,Altium Designer,20.2.6 (244)*
G04*
G04 Layer_Color=8421504*
%FSLAX25Y25*%
%MOIN*%
G70*
G04*
G04 #@! TF.SameCoordinates,6BFEBE0F-75FA-40C3-9952-2E119760A06E*
G04*
G04*
G04 #@! TF.FilePolarity,Positive*
G04*
G01*
G75*
%ADD12R,0.01772X0.05709*%
%ADD13R,0.03543X0.03347*%
%ADD14R,0.04134X0.03937*%
%ADD15R,0.03347X0.03543*%
%ADD16R,0.03937X0.04134*%
%ADD17C,0.07874*%
D12*
X56004Y57972D02*
D03*
X53445D02*
D03*
X50886D02*
D03*
X48327D02*
D03*
X56004Y40650D02*
D03*
X53445D02*
D03*
X50886D02*
D03*
X48327D02*
D03*
D13*
X54134Y64468D02*
D03*
Y70571D02*
D03*
X44488Y28543D02*
D03*
Y22441D02*
D03*
X50197Y28150D02*
D03*
Y34252D02*
D03*
D14*
X14961Y39055D02*
D03*
X20866D02*
D03*
X56299Y21850D02*
D03*
X50394D02*
D03*
X65945Y64764D02*
D03*
X60039D02*
D03*
X26969Y39016D02*
D03*
X32874D02*
D03*
D15*
X44685Y34055D02*
D03*
X38583D02*
D03*
X65847Y70669D02*
D03*
X59744D02*
D03*
D16*
X62205Y46063D02*
D03*
Y40157D02*
D03*
X56102Y27953D02*
D03*
Y33858D02*
D03*
D17*
X50315Y14409D02*
D03*
X65866Y57441D02*
D03*
M02*
