G04*
G04 #@! TF.GenerationSoftware,Altium Limited,Altium Designer,20.2.6 (244)*
G04*
G04 Layer_Color=65535*
%FSLAX25Y25*%
%MOIN*%
G70*
G04*
G04 #@! TF.SameCoordinates,5806B406-0A0F-4617-BDC6-480E6ACD825D*
G04*
G04*
G04 #@! TF.FilePolarity,Positive*
G04*
G01*
G75*
%ADD10C,0.00787*%
%ADD11C,0.00620*%
D10*
X58544Y54843D02*
G03*
X58544Y54843I-379J0D01*
G01*
X57284Y47982D02*
G03*
X57284Y46703I0J-640D01*
G01*
X47047Y49862D02*
X57284D01*
X47047Y44823D02*
Y49862D01*
Y44823D02*
X57284D01*
Y46703D01*
Y47982D02*
Y49862D01*
D11*
X59853Y51303D02*
X61148Y47903D01*
X62443Y51303D02*
X61148Y47903D01*
X63690Y50170D02*
X63366Y50008D01*
X63042Y49684D01*
X62880Y49198D01*
Y48875D01*
X63042Y48389D01*
X63366Y48065D01*
X63690Y47903D01*
X64175D01*
X64499Y48065D01*
X64823Y48389D01*
X64985Y48875D01*
Y49198D01*
X64823Y49684D01*
X64499Y50008D01*
X64175Y50170D01*
X63690D01*
X65729D02*
Y48551D01*
X65891Y48065D01*
X66215Y47903D01*
X66700D01*
X67024Y48065D01*
X67510Y48551D01*
Y50170D02*
Y47903D01*
X68886Y51303D02*
Y48551D01*
X69047Y48065D01*
X69371Y47903D01*
X69695D01*
X68400Y50170D02*
X69533D01*
X45391Y7563D02*
X46686Y4163D01*
X47981Y7563D02*
X46686Y4163D01*
X48418Y6430D02*
Y4163D01*
Y5458D02*
X48580Y5944D01*
X48904Y6268D01*
X49227Y6430D01*
X49713D01*
X50020Y5458D02*
X51963D01*
Y5782D01*
X51801Y6106D01*
X51639Y6268D01*
X51315Y6430D01*
X50830D01*
X50506Y6268D01*
X50182Y5944D01*
X50020Y5458D01*
Y5134D01*
X50182Y4649D01*
X50506Y4325D01*
X50830Y4163D01*
X51315D01*
X51639Y4325D01*
X51963Y4649D01*
X53986Y7563D02*
X53663D01*
X53339Y7401D01*
X53177Y6915D01*
Y4163D01*
X52691Y6430D02*
X53824D01*
X74288Y33483D02*
Y31864D01*
X75745Y31702D01*
X75583Y31864D01*
X75421Y32350D01*
Y32835D01*
X75583Y33321D01*
X75906Y33645D01*
X76392Y33806D01*
X76716D01*
X77201Y33645D01*
X77525Y33321D01*
X77687Y32835D01*
Y32350D01*
X77525Y31864D01*
X77363Y31702D01*
X77040Y31540D01*
X74288Y34567D02*
X77687Y35862D01*
X74288Y37157D02*
X77687Y35862D01*
X75097Y42693D02*
X74773Y42531D01*
X74450Y42208D01*
X74288Y41884D01*
Y41236D01*
X74450Y40913D01*
X74773Y40589D01*
X75097Y40427D01*
X75583Y40265D01*
X76392D01*
X76878Y40427D01*
X77201Y40589D01*
X77525Y40913D01*
X77687Y41236D01*
Y41884D01*
X77525Y42208D01*
X77201Y42531D01*
X76878Y42693D01*
X76392D01*
Y41884D02*
Y42693D01*
X74288Y43470D02*
X77687D01*
X74288D02*
X77687Y45736D01*
X74288D02*
X77687D01*
X74288Y46675D02*
X77687D01*
X74288D02*
Y47808D01*
X74450Y48294D01*
X74773Y48618D01*
X75097Y48779D01*
X75583Y48941D01*
X76392D01*
X76878Y48779D01*
X77201Y48618D01*
X77525Y48294D01*
X77687Y47808D01*
Y46675D01*
X74288Y52373D02*
X77687Y53668D01*
X74288Y54963D02*
X77687Y53668D01*
X75421Y56209D02*
X75583Y55885D01*
X75906Y55562D01*
X76392Y55400D01*
X76716D01*
X77201Y55562D01*
X77525Y55885D01*
X77687Y56209D01*
Y56695D01*
X77525Y57019D01*
X77201Y57342D01*
X76716Y57504D01*
X76392D01*
X75906Y57342D01*
X75583Y57019D01*
X75421Y56695D01*
Y56209D01*
Y58249D02*
X77040D01*
X77525Y58411D01*
X77687Y58735D01*
Y59220D01*
X77525Y59544D01*
X77040Y60029D01*
X75421D02*
X77687D01*
X74288Y61405D02*
X77040D01*
X77525Y61567D01*
X77687Y61891D01*
Y62215D01*
X75421Y60920D02*
Y62053D01*
X87684Y73865D02*
Y71275D01*
X87522Y70789D01*
X87360Y70628D01*
X87037Y70466D01*
X86713D01*
X86389Y70628D01*
X86227Y70789D01*
X86066Y71275D01*
Y71599D01*
X88558Y73217D02*
X88882Y73379D01*
X89368Y73865D01*
Y70466D01*
X66590Y37792D02*
X66266Y37631D01*
X65943Y37307D01*
X65781Y36983D01*
Y36336D01*
X65943Y36012D01*
X66266Y35688D01*
X66590Y35526D01*
X67076Y35364D01*
X67885D01*
X68371Y35526D01*
X68694Y35688D01*
X69018Y36012D01*
X69180Y36336D01*
Y36983D01*
X69018Y37307D01*
X68694Y37631D01*
X68371Y37792D01*
X66590Y38909D02*
X66428D01*
X66104Y39071D01*
X65943Y39233D01*
X65781Y39557D01*
Y40204D01*
X65943Y40528D01*
X66104Y40690D01*
X66428Y40852D01*
X66752D01*
X67076Y40690D01*
X67561Y40366D01*
X69180Y38747D01*
Y41014D01*
X17047Y32937D02*
X16885Y33261D01*
X16561Y33585D01*
X16237Y33747D01*
X15590D01*
X15266Y33585D01*
X14942Y33261D01*
X14780Y32937D01*
X14618Y32452D01*
Y31643D01*
X14780Y31157D01*
X14942Y30833D01*
X15266Y30509D01*
X15590Y30348D01*
X16237D01*
X16561Y30509D01*
X16885Y30833D01*
X17047Y31157D01*
X19944Y33261D02*
X19782Y33585D01*
X19297Y33747D01*
X18973D01*
X18487Y33585D01*
X18164Y33099D01*
X18002Y32290D01*
Y31481D01*
X18164Y30833D01*
X18487Y30509D01*
X18973Y30348D01*
X19135D01*
X19620Y30509D01*
X19944Y30833D01*
X20106Y31319D01*
Y31481D01*
X19944Y31966D01*
X19620Y32290D01*
X19135Y32452D01*
X18973D01*
X18487Y32290D01*
X18164Y31966D01*
X18002Y31481D01*
X29564Y32544D02*
X29402Y32868D01*
X29078Y33191D01*
X28755Y33353D01*
X28107D01*
X27784Y33191D01*
X27460Y32868D01*
X27298Y32544D01*
X27136Y32058D01*
Y31249D01*
X27298Y30763D01*
X27460Y30439D01*
X27784Y30116D01*
X28107Y29954D01*
X28755D01*
X29078Y30116D01*
X29402Y30439D01*
X29564Y30763D01*
X32462Y33353D02*
X30843D01*
X30681Y31896D01*
X30843Y32058D01*
X31328Y32220D01*
X31814D01*
X32300Y32058D01*
X32623Y31734D01*
X32785Y31249D01*
Y30925D01*
X32623Y30439D01*
X32300Y30116D01*
X31814Y29954D01*
X31328D01*
X30843Y30116D01*
X30681Y30278D01*
X30519Y30601D01*
X57475Y15182D02*
X57313Y15505D01*
X56990Y15829D01*
X56666Y15991D01*
X56018D01*
X55695Y15829D01*
X55371Y15505D01*
X55209Y15182D01*
X55047Y14696D01*
Y13887D01*
X55209Y13401D01*
X55371Y13077D01*
X55695Y12754D01*
X56018Y12592D01*
X56666D01*
X56990Y12754D01*
X57313Y13077D01*
X57475Y13401D01*
X60049Y15991D02*
X58430Y13725D01*
X60858D01*
X60049Y15991D02*
Y12592D01*
X65448Y30411D02*
X65124Y30249D01*
X64801Y29925D01*
X64639Y29601D01*
Y28954D01*
X64801Y28630D01*
X65124Y28306D01*
X65448Y28144D01*
X65934Y27983D01*
X66743D01*
X67229Y28144D01*
X67553Y28306D01*
X67876Y28630D01*
X68038Y28954D01*
Y29601D01*
X67876Y29925D01*
X67553Y30249D01*
X67229Y30411D01*
X65286Y31366D02*
X65124Y31689D01*
X64639Y32175D01*
X68038D01*
X60265Y75715D02*
Y72316D01*
Y75715D02*
X61721D01*
X62207Y75554D01*
X62369Y75392D01*
X62531Y75068D01*
Y74744D01*
X62369Y74420D01*
X62207Y74259D01*
X61721Y74097D01*
X60265D01*
X61398D02*
X62531Y72316D01*
X64910Y75715D02*
X63292Y73449D01*
X65720D01*
X64910Y75715D02*
Y72316D01*
X59954Y27747D02*
X63353D01*
X59954D02*
Y29204D01*
X60116Y29690D01*
X60278Y29851D01*
X60601Y30013D01*
X60925D01*
X61249Y29851D01*
X61411Y29690D01*
X61573Y29204D01*
Y27747D01*
Y28880D02*
X63353Y30013D01*
X60763Y30936D02*
X60601D01*
X60278Y31098D01*
X60116Y31260D01*
X59954Y31583D01*
Y32231D01*
X60116Y32555D01*
X60278Y32717D01*
X60601Y32878D01*
X60925D01*
X61249Y32717D01*
X61734Y32393D01*
X63353Y30774D01*
Y33040D01*
X72162Y67071D02*
X72001Y67395D01*
X71677Y67719D01*
X71353Y67881D01*
X70706D01*
X70382Y67719D01*
X70058Y67395D01*
X69896Y67071D01*
X69734Y66586D01*
Y65776D01*
X69896Y65291D01*
X70058Y64967D01*
X70382Y64643D01*
X70706Y64482D01*
X71353D01*
X71677Y64643D01*
X72001Y64967D01*
X72162Y65291D01*
X73441Y67881D02*
X75222D01*
X74251Y66586D01*
X74736D01*
X75060Y66424D01*
X75222Y66262D01*
X75384Y65776D01*
Y65453D01*
X75222Y64967D01*
X74898Y64643D01*
X74413Y64482D01*
X73927D01*
X73441Y64643D01*
X73279Y64805D01*
X73118Y65129D01*
X39814Y39298D02*
Y35899D01*
Y39298D02*
X41271D01*
X41757Y39136D01*
X41918Y38974D01*
X42080Y38651D01*
Y38327D01*
X41918Y38003D01*
X41757Y37841D01*
X41271Y37679D01*
X39814D01*
X40947D02*
X42080Y35899D01*
X42841Y38651D02*
X43165Y38813D01*
X43650Y39298D01*
Y35899D01*
X41135Y11881D02*
X44534D01*
X41135D02*
Y13338D01*
X41297Y13823D01*
X41459Y13985D01*
X41783Y14147D01*
X42106D01*
X42430Y13985D01*
X42592Y13823D01*
X42754Y13338D01*
Y11881D01*
Y13014D02*
X44534Y14147D01*
X41135Y16850D02*
Y15232D01*
X42592Y15070D01*
X42430Y15232D01*
X42268Y15717D01*
Y16203D01*
X42430Y16689D01*
X42754Y17012D01*
X43239Y17174D01*
X43563D01*
X44049Y17012D01*
X44372Y16689D01*
X44534Y16203D01*
Y15717D01*
X44372Y15232D01*
X44210Y15070D01*
X43887Y14908D01*
X52631Y72353D02*
X56030D01*
X52631D02*
Y73810D01*
X52793Y74296D01*
X52955Y74458D01*
X53278Y74620D01*
X53602D01*
X53926Y74458D01*
X54088Y74296D01*
X54250Y73810D01*
Y72353D01*
Y73487D02*
X56030Y74620D01*
X52631Y75704D02*
Y77485D01*
X53926Y76513D01*
Y76999D01*
X54088Y77323D01*
X54250Y77485D01*
X54735Y77647D01*
X55059D01*
X55545Y77485D01*
X55869Y77161D01*
X56030Y76675D01*
Y76190D01*
X55869Y75704D01*
X55707Y75542D01*
X55383Y75380D01*
X45348Y60394D02*
X47776D01*
X48261Y60556D01*
X48585Y60880D01*
X48747Y61366D01*
Y61689D01*
X48585Y62175D01*
X48261Y62499D01*
X47776Y62661D01*
X45348D01*
X45995Y63599D02*
X45833Y63923D01*
X45348Y64409D01*
X48747D01*
M02*
