G04*
G04 #@! TF.GenerationSoftware,Altium Limited,Altium Designer,20.2.6 (244)*
G04*
G04 Layer_Physical_Order=1*
G04 Layer_Color=255*
%FSLAX25Y25*%
%MOIN*%
G70*
G04*
G04 #@! TF.SameCoordinates,5806B406-0A0F-4617-BDC6-480E6ACD825D*
G04*
G04*
G04 #@! TF.FilePolarity,Positive*
G04*
G01*
G75*
%ADD12R,0.04134X0.03937*%
%ADD13R,0.03937X0.04134*%
%ADD14R,0.03347X0.03543*%
%ADD15C,0.07874*%
%ADD16R,0.03543X0.03347*%
%ADD17R,0.01772X0.05709*%
%ADD28C,0.01000*%
%ADD29C,0.00600*%
%ADD30C,0.06693*%
%ADD31C,0.04724*%
%ADD32C,0.07087*%
%ADD33C,0.24410*%
%ADD34C,0.02165*%
G36*
X132546Y1313D02*
X1313D01*
Y93176D01*
X132546Y93176D01*
Y1313D01*
D02*
G37*
%LPC*%
G36*
X15558Y92545D02*
Y79731D01*
X28372D01*
X28240Y81403D01*
X27755Y83424D01*
X26959Y85344D01*
X25873Y87116D01*
X24523Y88697D01*
X22943Y90047D01*
X21171Y91133D01*
X19251Y91928D01*
X17230Y92413D01*
X15558Y92545D01*
D02*
G37*
G36*
X14758D02*
X13085Y92413D01*
X11064Y91928D01*
X9144Y91133D01*
X7372Y90047D01*
X5791Y88697D01*
X4442Y87116D01*
X3356Y85344D01*
X2560Y83424D01*
X2075Y81403D01*
X1943Y79731D01*
X14758D01*
Y92545D01*
D02*
G37*
G36*
X28372Y78931D02*
X15558D01*
Y66117D01*
X17230Y66248D01*
X19251Y66733D01*
X21171Y67529D01*
X22943Y68615D01*
X24523Y69965D01*
X25873Y71545D01*
X26959Y73317D01*
X27755Y75238D01*
X28240Y77259D01*
X28372Y78931D01*
D02*
G37*
G36*
X14758D02*
X1943D01*
X2075Y77259D01*
X2560Y75238D01*
X3356Y73317D01*
X4442Y71545D01*
X5791Y69965D01*
X7372Y68615D01*
X9144Y67529D01*
X11064Y66733D01*
X13085Y66248D01*
X14758Y66117D01*
Y78931D01*
D02*
G37*
G36*
X68020Y70972D02*
X63673D01*
Y66429D01*
X65129D01*
Y65264D01*
X63378D01*
Y60327D01*
X64914D01*
X64947Y59827D01*
X64708Y59795D01*
X63629Y59348D01*
X62702Y58637D01*
X61990Y57710D01*
X61543Y56631D01*
X61498Y56288D01*
X57390D01*
Y59358D01*
X54261D01*
Y60327D01*
X56406D01*
Y61684D01*
X57472D01*
Y60327D01*
X62606D01*
Y65264D01*
X60658D01*
Y66429D01*
X61917D01*
Y70972D01*
X57571D01*
Y66429D01*
X59027D01*
Y65264D01*
X57472D01*
Y63316D01*
X56406D01*
Y64673D01*
X51862D01*
Y60825D01*
X51362Y60618D01*
X50380Y61600D01*
X50115Y61777D01*
X49803Y61839D01*
X49803Y61839D01*
X42598D01*
X42286Y61777D01*
X42022Y61600D01*
X42022Y61600D01*
X39541Y59120D01*
X39364Y58855D01*
X39302Y58543D01*
X39302Y58543D01*
Y46716D01*
X37300Y44713D01*
X35231D01*
X34965Y45357D01*
X34506Y45955D01*
X34154Y46225D01*
X34229Y46797D01*
X34756Y47016D01*
X35705Y47744D01*
X36433Y48693D01*
X36891Y49798D01*
X36994Y50584D01*
X32465D01*
Y50984D01*
X32065D01*
Y55514D01*
X31278Y55411D01*
X30173Y54953D01*
X29224Y54225D01*
X28496Y53276D01*
X28278Y52749D01*
X27705Y52673D01*
X27435Y53026D01*
X26837Y53484D01*
X26209Y53744D01*
Y59505D01*
X34590Y67885D01*
X51862D01*
Y66429D01*
X56406D01*
Y70776D01*
X51862D01*
Y69516D01*
X34252D01*
X34252Y69516D01*
X33940Y69454D01*
X33675Y69278D01*
X33675Y69278D01*
X24817Y60419D01*
X24640Y60155D01*
X24578Y59842D01*
X24578Y59842D01*
Y53744D01*
X23950Y53484D01*
X23352Y53026D01*
X22894Y52428D01*
X22605Y51731D01*
X22507Y50984D01*
X22605Y50237D01*
X22865Y49609D01*
X20289Y47034D01*
X20113Y46769D01*
X20051Y46457D01*
X20051Y46457D01*
Y39909D01*
X19697Y39555D01*
X18299Y39555D01*
X18028Y39943D01*
Y40055D01*
X15361D01*
Y37087D01*
Y34118D01*
X18028D01*
Y34231D01*
X18299Y34618D01*
X18528Y34618D01*
X23433D01*
Y36232D01*
X24402D01*
Y34579D01*
X26153D01*
Y26535D01*
X26153Y26535D01*
X26215Y26223D01*
X26392Y25959D01*
X40486Y11864D01*
X40751Y11687D01*
X41063Y11625D01*
X41063Y11625D01*
X45947D01*
X45992Y11283D01*
X46439Y10203D01*
X47150Y9276D01*
X48077Y8565D01*
X49157Y8118D01*
X50315Y7966D01*
X51473Y8118D01*
X52553Y8565D01*
X53479Y9276D01*
X54191Y10203D01*
X54638Y11283D01*
X54790Y12441D01*
X54638Y13599D01*
X54191Y14679D01*
X53479Y15605D01*
X52553Y16317D01*
X51473Y16764D01*
X51131Y16809D01*
Y17413D01*
X52961Y17413D01*
X53232Y17026D01*
Y16913D01*
X55899D01*
Y19882D01*
X56699D01*
Y16913D01*
X59366D01*
Y18862D01*
X60630D01*
X61020Y18940D01*
X61351Y19161D01*
X61572Y19492D01*
X61650Y19882D01*
X61572Y20272D01*
X61351Y20603D01*
X61020Y20824D01*
X60630Y20901D01*
X59720D01*
X59366Y21255D01*
X59366Y22850D01*
X59071Y23228D01*
Y24134D01*
X59509Y24414D01*
X59571Y24420D01*
X59921Y24351D01*
X60236D01*
X60626Y24428D01*
X60957Y24649D01*
X61178Y24980D01*
X61256Y25370D01*
X61178Y25760D01*
X60957Y26091D01*
X60626Y26312D01*
X60370Y26363D01*
X60028Y26705D01*
X59697Y26926D01*
X59307Y27004D01*
X59071D01*
Y29051D01*
X58958D01*
X58571Y29323D01*
X58571Y29551D01*
Y34457D01*
X57024D01*
Y35327D01*
X57390D01*
Y37661D01*
X59736D01*
Y35622D01*
X61185D01*
Y35081D01*
X61064Y34999D01*
X60714Y34476D01*
X60591Y33858D01*
X60714Y33241D01*
X61064Y32717D01*
X61587Y32367D01*
X62205Y32245D01*
X62822Y32367D01*
X63346Y32717D01*
X63696Y33241D01*
X63818Y33858D01*
X63696Y34476D01*
X63346Y34999D01*
X63224Y35081D01*
Y35622D01*
X64673D01*
Y35949D01*
X78800D01*
X79002Y35462D01*
X79619Y34658D01*
X80422Y34042D01*
X81358Y33654D01*
X82362Y33522D01*
X83366Y33654D01*
X84302Y34042D01*
X85106Y34658D01*
X85722Y35462D01*
X86110Y36397D01*
X86242Y37402D01*
X86110Y38406D01*
X85722Y39341D01*
X85106Y40145D01*
X84302Y40761D01*
X83366Y41149D01*
X82362Y41281D01*
X81358Y41149D01*
X80422Y40761D01*
X79619Y40145D01*
X79002Y39341D01*
X78615Y38406D01*
X78560Y37988D01*
X64673D01*
Y40527D01*
X64673Y40756D01*
X65061Y41028D01*
X65173D01*
Y43075D01*
X66693D01*
X67083Y43152D01*
X67414Y43374D01*
X67635Y43704D01*
X67712Y44094D01*
X67635Y44485D01*
X67414Y44815D01*
X67083Y45037D01*
X66693Y45114D01*
X65173D01*
Y47161D01*
X62605D01*
Y44094D01*
X62205D01*
Y43694D01*
X59236D01*
Y41028D01*
X59349D01*
X59736Y40756D01*
X59736Y40527D01*
Y39701D01*
X57390D01*
Y42035D01*
X46941D01*
Y38174D01*
X46925Y38095D01*
X46925Y38095D01*
Y35579D01*
X45705Y34358D01*
X42512D01*
Y29815D01*
X43672D01*
Y28748D01*
X42217D01*
Y24402D01*
X46760D01*
Y28748D01*
X45304D01*
Y29815D01*
X46858D01*
Y33205D01*
X47463Y33810D01*
X47925Y33618D01*
Y30110D01*
X52469D01*
Y34457D01*
X51701D01*
Y35327D01*
X54984D01*
Y34457D01*
X53634D01*
Y29551D01*
X53634Y29323D01*
X53246Y29051D01*
X53134D01*
Y26384D01*
X56102D01*
Y25584D01*
X53134D01*
Y23310D01*
X53134Y22917D01*
X53167Y22765D01*
X52847Y22350D01*
X51209D01*
Y24008D01*
X52469D01*
Y28354D01*
X47925D01*
Y24008D01*
X49578D01*
Y22350D01*
X47827D01*
Y17413D01*
X49499D01*
Y16809D01*
X49157Y16764D01*
X48077Y16317D01*
X47150Y15605D01*
X46439Y14679D01*
X45992Y13599D01*
X45947Y13257D01*
X41401D01*
X27784Y26873D01*
Y34579D01*
X29535D01*
Y39516D01*
X24402D01*
Y37863D01*
X23433D01*
Y39555D01*
X21682D01*
Y46119D01*
X24019Y48456D01*
X24646Y48196D01*
X25394Y48097D01*
X26141Y48196D01*
X26837Y48484D01*
X27435Y48943D01*
X27705Y49295D01*
X28278Y49220D01*
X28496Y48693D01*
X29224Y47744D01*
X30173Y47016D01*
X30700Y46797D01*
X30775Y46225D01*
X30423Y45955D01*
X29964Y45357D01*
X29676Y44661D01*
X29578Y43913D01*
X29676Y43166D01*
X29964Y42470D01*
X30423Y41872D01*
X31021Y41413D01*
X31649Y41153D01*
Y39516D01*
X30307D01*
Y34579D01*
X35441D01*
Y39516D01*
X33280D01*
Y41153D01*
X33908Y41413D01*
X34506Y41872D01*
X34965Y42470D01*
X35218Y43082D01*
X37638D01*
X37638Y43082D01*
X37950Y43144D01*
X38215Y43321D01*
X40695Y45801D01*
X40695Y45801D01*
X40872Y46066D01*
X40934Y46378D01*
Y58205D01*
X42936Y60208D01*
X46086D01*
X46441Y59858D01*
Y57024D01*
X44193D01*
X43803Y56946D01*
X43472Y56725D01*
X43251Y56394D01*
X43173Y56004D01*
X43251Y55614D01*
X43472Y55283D01*
X43803Y55062D01*
X44193Y54984D01*
X46441D01*
Y52150D01*
X47927D01*
Y56004D01*
X48727D01*
Y52150D01*
X50213D01*
Y52650D01*
X57390D01*
Y54657D01*
X61498D01*
X61543Y54314D01*
X61990Y53235D01*
X62702Y52308D01*
X63629Y51597D01*
X64708Y51150D01*
X65866Y50997D01*
X67024Y51150D01*
X68104Y51597D01*
X69031Y52308D01*
X69742Y53235D01*
X70189Y54314D01*
X70255Y54813D01*
X70703Y54927D01*
X71015Y54989D01*
X71280Y55166D01*
X72858Y56743D01*
X78569D01*
X78615Y56397D01*
X79002Y55462D01*
X79619Y54658D01*
X80422Y54042D01*
X81358Y53654D01*
X82362Y53522D01*
X83366Y53654D01*
X84302Y54042D01*
X85106Y54658D01*
X85722Y55462D01*
X86110Y56397D01*
X86242Y57402D01*
X86110Y58406D01*
X85722Y59341D01*
X85106Y60145D01*
X84302Y60761D01*
X83366Y61149D01*
X82362Y61281D01*
X81358Y61149D01*
X80422Y60761D01*
X79619Y60145D01*
X79002Y59341D01*
X78615Y58406D01*
X78611Y58375D01*
X72520D01*
X72520Y58375D01*
X72208Y58313D01*
X71943Y58136D01*
X71943Y58136D01*
X70644Y56837D01*
X70055Y56955D01*
X69742Y57710D01*
X69031Y58637D01*
X68104Y59348D01*
X67024Y59795D01*
X66785Y59827D01*
X66818Y60327D01*
X68512D01*
Y65264D01*
X66761D01*
Y66429D01*
X68020D01*
Y70972D01*
D02*
G37*
G36*
X32865Y55514D02*
Y51384D01*
X36994D01*
X36891Y52170D01*
X36433Y53276D01*
X35705Y54225D01*
X34756Y54953D01*
X33651Y55411D01*
X32865Y55514D01*
D02*
G37*
G36*
X82762Y51733D02*
Y47802D01*
X86694D01*
X86597Y48536D01*
X86159Y49593D01*
X85462Y50502D01*
X84554Y51198D01*
X83497Y51636D01*
X82762Y51733D01*
D02*
G37*
G36*
X81962D02*
X81227Y51636D01*
X80170Y51198D01*
X79262Y50502D01*
X78566Y49593D01*
X78128Y48536D01*
X78031Y47802D01*
X81962D01*
Y51733D01*
D02*
G37*
G36*
X61805Y47161D02*
X59236D01*
Y44495D01*
X61805D01*
Y47161D01*
D02*
G37*
G36*
X86694Y47002D02*
X82762D01*
Y43070D01*
X83497Y43167D01*
X84554Y43605D01*
X85462Y44302D01*
X86159Y45210D01*
X86597Y46267D01*
X86694Y47002D01*
D02*
G37*
G36*
X81962D02*
X78031D01*
X78128Y46267D01*
X78566Y45210D01*
X79262Y44302D01*
X80170Y43605D01*
X81227Y43167D01*
X81962Y43070D01*
Y47002D01*
D02*
G37*
G36*
X25394Y46800D02*
X24646Y46702D01*
X23950Y46413D01*
X23352Y45955D01*
X22894Y45357D01*
X22605Y44661D01*
X22507Y43913D01*
X22605Y43166D01*
X22894Y42470D01*
X23352Y41872D01*
X23950Y41413D01*
X24646Y41125D01*
X25394Y41026D01*
X26141Y41125D01*
X26837Y41413D01*
X27435Y41872D01*
X27894Y42470D01*
X28182Y43166D01*
X28281Y43913D01*
X28182Y44661D01*
X27894Y45357D01*
X27435Y45955D01*
X26837Y46413D01*
X26141Y46702D01*
X25394Y46800D01*
D02*
G37*
G36*
X14561Y40055D02*
X11894D01*
Y38106D01*
X10630D01*
X10240Y38029D01*
X9909Y37808D01*
X9688Y37477D01*
X9610Y37087D01*
X9688Y36696D01*
X9909Y36366D01*
X10240Y36145D01*
X10630Y36067D01*
X11894D01*
Y34118D01*
X14561D01*
Y37087D01*
Y40055D01*
D02*
G37*
G36*
X40756Y34358D02*
X36409D01*
Y29815D01*
X37366D01*
Y29175D01*
X37245Y29094D01*
X36895Y28570D01*
X36772Y27953D01*
X36895Y27335D01*
X37245Y26812D01*
X37768Y26462D01*
X38386Y26339D01*
X39003Y26462D01*
X39527Y26812D01*
X39877Y27335D01*
X39999Y27953D01*
X39877Y28570D01*
X39527Y29094D01*
X39405Y29175D01*
Y29815D01*
X40756D01*
Y34358D01*
D02*
G37*
G36*
X46760Y22646D02*
X42217D01*
Y21729D01*
X41717Y21577D01*
X41692Y21613D01*
X41169Y21963D01*
X40551Y22086D01*
X39934Y21963D01*
X39410Y21613D01*
X39060Y21090D01*
X38938Y20472D01*
X39060Y19855D01*
X39410Y19331D01*
X39934Y18982D01*
X40551Y18859D01*
X41169Y18982D01*
X41692Y19331D01*
X41717Y19368D01*
X42217Y19216D01*
Y18299D01*
X46760D01*
Y22646D01*
D02*
G37*
G36*
X15558Y28372D02*
Y15558D01*
X28372D01*
X28240Y17230D01*
X27755Y19251D01*
X26959Y21171D01*
X25873Y22943D01*
X24523Y24523D01*
X22943Y25873D01*
X21171Y26959D01*
X19251Y27755D01*
X17230Y28240D01*
X15558Y28372D01*
D02*
G37*
G36*
X14758D02*
X13085Y28240D01*
X11064Y27755D01*
X9144Y26959D01*
X7372Y25873D01*
X5791Y24523D01*
X4442Y22943D01*
X3356Y21171D01*
X2560Y19251D01*
X2075Y17230D01*
X1943Y15558D01*
X14758D01*
Y28372D01*
D02*
G37*
G36*
X28372Y14758D02*
X15558D01*
Y1943D01*
X17230Y2075D01*
X19251Y2560D01*
X21171Y3356D01*
X22943Y4442D01*
X24523Y5791D01*
X25873Y7372D01*
X26959Y9144D01*
X27755Y11064D01*
X28240Y13085D01*
X28372Y14758D01*
D02*
G37*
G36*
X14758D02*
X1943D01*
X2075Y13085D01*
X2560Y11064D01*
X3356Y9144D01*
X4442Y7372D01*
X5791Y5791D01*
X7372Y4442D01*
X9144Y3356D01*
X11064Y2560D01*
X13085Y2075D01*
X14758Y1943D01*
Y14758D01*
D02*
G37*
%LPD*%
D12*
X20866Y37087D02*
D03*
X14961D02*
D03*
X32874Y37047D02*
D03*
X26969D02*
D03*
X50394Y19882D02*
D03*
X56299D02*
D03*
X60039Y62795D02*
D03*
X65945D02*
D03*
D13*
X56102Y31890D02*
D03*
Y25984D02*
D03*
X62205Y38189D02*
D03*
Y44094D02*
D03*
D14*
X59744Y68701D02*
D03*
X65847D02*
D03*
X38583Y32087D02*
D03*
X44685D02*
D03*
D15*
X50315Y12441D02*
D03*
X65866Y55472D02*
D03*
D16*
X50197Y32283D02*
D03*
Y26181D02*
D03*
X44488Y20472D02*
D03*
Y26575D02*
D03*
X54134Y68602D02*
D03*
Y62500D02*
D03*
D17*
X48327Y38681D02*
D03*
X50886D02*
D03*
X53445D02*
D03*
X56004D02*
D03*
X48327Y56004D02*
D03*
X50886D02*
D03*
X53445D02*
D03*
X56004D02*
D03*
D28*
X62205Y38189D02*
X63425Y36968D01*
X81929D01*
X82362Y37402D01*
X10630Y37087D02*
X14961D01*
X44193Y56004D02*
X48327D01*
X62205Y33858D02*
Y38189D01*
Y44094D02*
X66693D01*
X56299Y19882D02*
X60630D01*
X56004Y38681D02*
X61713D01*
X59921Y25370D02*
X60236D01*
X59307Y25984D02*
X59921Y25370D01*
X56004Y31988D02*
Y38681D01*
X38386Y27953D02*
Y31890D01*
X61713Y38681D02*
X62205Y38189D01*
X56102Y25984D02*
X59307D01*
X38386Y31890D02*
X38583Y32087D01*
D29*
X82205Y57559D02*
X82362Y57402D01*
X72520Y57559D02*
X82205D01*
X65866Y55472D02*
X66136Y55743D01*
X70703D01*
X72520Y57559D01*
X32465Y37457D02*
X32874Y37047D01*
X32465Y37457D02*
Y43913D01*
X25394Y50984D02*
Y59842D01*
X34252Y68701D01*
X37638Y43898D02*
X40118Y46378D01*
Y58543D01*
X42598Y61024D01*
X32465Y43913D02*
X32480Y43898D01*
X37638D01*
X20866Y37087D02*
Y46457D01*
X25394Y50984D01*
X20906Y37047D02*
X26969D01*
X20866Y37087D02*
X20906Y37047D01*
X26969Y26535D02*
X41063Y12441D01*
X26969Y26535D02*
Y37047D01*
X40551Y20472D02*
X44488D01*
X42598Y61024D02*
X49803D01*
X51005Y59822D01*
X34252Y68701D02*
X54035D01*
X41063Y12441D02*
X50315D01*
Y19803D02*
X50394Y19882D01*
X50315Y12441D02*
Y19803D01*
X65945Y62795D02*
Y68701D01*
X65866Y55472D02*
Y62776D01*
X65847Y62795D02*
X65866Y62776D01*
X56004Y56004D02*
X56535Y55472D01*
X65866D01*
X59842Y62992D02*
Y68701D01*
X59350Y62500D02*
X59842Y62992D01*
X50886Y38681D02*
X53445D01*
X50886Y32972D02*
Y38681D01*
X65945Y68701D02*
X65945Y68701D01*
X54035Y68701D02*
X54134Y68602D01*
X53445Y56004D02*
Y61811D01*
X47741Y35241D02*
Y38095D01*
X44488Y26575D02*
Y31890D01*
X50394Y19882D02*
Y25984D01*
X65847Y62795D02*
X65945D01*
X54134Y62500D02*
X59350D01*
X53445Y61811D02*
X54134Y62500D01*
X56004Y54035D02*
Y56004D01*
Y31988D02*
X56102Y31890D01*
Y25984D02*
X56102Y25984D01*
X50886Y56004D02*
X51005Y56123D01*
Y59822D01*
X47741Y38095D02*
X48327Y38681D01*
X44685Y32185D02*
X47741Y35241D01*
X50197Y32283D02*
X50886Y32972D01*
X44488Y31890D02*
X44685Y32087D01*
Y32185D01*
X50197Y26181D02*
X50394Y25984D01*
D30*
X82362Y37402D02*
D03*
Y47402D02*
D03*
Y57402D02*
D03*
D31*
X25394Y43913D02*
D03*
Y50984D02*
D03*
X32465Y43913D02*
D03*
D32*
Y50984D02*
D03*
D33*
X15157Y79331D02*
D03*
Y15157D02*
D03*
D34*
X10630Y37087D02*
D03*
X44193Y56004D02*
D03*
X40551Y20472D02*
D03*
X38386Y27953D02*
D03*
X62205Y33858D02*
D03*
X66693Y44094D02*
D03*
X60630Y19882D02*
D03*
X60236Y25370D02*
D03*
M02*
