G04*
G04 #@! TF.GenerationSoftware,Altium Limited,Altium Designer,20.2.6 (244)*
G04*
G04 Layer_Color=8421504*
%FSLAX25Y25*%
%MOIN*%
G70*
G04*
G04 #@! TF.SameCoordinates,5806B406-0A0F-4617-BDC6-480E6ACD825D*
G04*
G04*
G04 #@! TF.FilePolarity,Positive*
G04*
G01*
G75*
%ADD12R,0.04134X0.03937*%
%ADD13R,0.03937X0.04134*%
%ADD14R,0.03347X0.03543*%
%ADD15C,0.07874*%
%ADD16R,0.03543X0.03347*%
%ADD17R,0.01772X0.05709*%
D12*
X20866Y37087D02*
D03*
X14961D02*
D03*
X32874Y37047D02*
D03*
X26969D02*
D03*
X50394Y19882D02*
D03*
X56299D02*
D03*
X60039Y62795D02*
D03*
X65945D02*
D03*
D13*
X56102Y31890D02*
D03*
Y25984D02*
D03*
X62205Y38189D02*
D03*
Y44094D02*
D03*
D14*
X59744Y68701D02*
D03*
X65847D02*
D03*
X38583Y32087D02*
D03*
X44685D02*
D03*
D15*
X50315Y12441D02*
D03*
X65866Y55472D02*
D03*
D16*
X50197Y32283D02*
D03*
Y26181D02*
D03*
X44488Y20472D02*
D03*
Y26575D02*
D03*
X54134Y68602D02*
D03*
Y62500D02*
D03*
D17*
X48327Y38681D02*
D03*
X50886D02*
D03*
X53445D02*
D03*
X56004D02*
D03*
X48327Y56004D02*
D03*
X50886D02*
D03*
X53445D02*
D03*
X56004D02*
D03*
M02*
