G04*
G04 #@! TF.GenerationSoftware,Altium Limited,Altium Designer,20.2.6 (244)*
G04*
G04 Layer_Color=8388736*
%FSLAX25Y25*%
%MOIN*%
G70*
G04*
G04 #@! TF.SameCoordinates,5806B406-0A0F-4617-BDC6-480E6ACD825D*
G04*
G04*
G04 #@! TF.FilePolarity,Negative*
G04*
G01*
G75*
%ADD18R,0.04724X0.04528*%
%ADD19R,0.04528X0.04724*%
%ADD20R,0.03937X0.04134*%
%ADD21C,0.08465*%
%ADD22R,0.04134X0.03937*%
%ADD23R,0.02362X0.06299*%
%ADD24C,0.07284*%
%ADD25C,0.05315*%
%ADD26C,0.07677*%
%ADD27C,0.25000*%
D18*
X20866Y37087D02*
D03*
X14961D02*
D03*
X32874Y37047D02*
D03*
X26969D02*
D03*
X50394Y19882D02*
D03*
X56299D02*
D03*
X60039Y62795D02*
D03*
X65945D02*
D03*
D19*
X56102Y31890D02*
D03*
Y25984D02*
D03*
X62205Y38189D02*
D03*
Y44094D02*
D03*
D20*
X59744Y68701D02*
D03*
X65847D02*
D03*
X38583Y32087D02*
D03*
X44685D02*
D03*
D21*
X50315Y12441D02*
D03*
X65866Y55472D02*
D03*
D22*
X50197Y32283D02*
D03*
Y26181D02*
D03*
X44488Y20472D02*
D03*
Y26575D02*
D03*
X54134Y68602D02*
D03*
Y62500D02*
D03*
D23*
X48327Y38681D02*
D03*
X50886D02*
D03*
X53445D02*
D03*
X56004D02*
D03*
X48327Y56004D02*
D03*
X50886D02*
D03*
X53445D02*
D03*
X56004D02*
D03*
D24*
X82362Y37402D02*
D03*
Y47402D02*
D03*
Y57402D02*
D03*
D25*
X25394Y43913D02*
D03*
Y50984D02*
D03*
X32465Y43913D02*
D03*
D26*
Y50984D02*
D03*
D27*
X15157Y79331D02*
D03*
Y15157D02*
D03*
M02*
