G04*
G04 #@! TF.GenerationSoftware,Altium Limited,Altium Designer,20.2.6 (244)*
G04*
G04 Layer_Color=8421504*
%FSLAX25Y25*%
%MOIN*%
G70*
G04*
G04 #@! TF.SameCoordinates,B7C649A0-D185-4167-BDA9-E368864AB92A*
G04*
G04*
G04 #@! TF.FilePolarity,Positive*
G04*
G01*
G75*
%ADD16C,0.07874*%
%ADD17R,0.03937X0.04134*%
%ADD18O,0.07480X0.02362*%
%ADD19O,0.01181X0.05709*%
%ADD20R,0.02362X0.05315*%
%ADD21R,0.01575X0.05315*%
%ADD22R,0.03347X0.03543*%
%ADD23R,0.03543X0.03347*%
%ADD24R,0.03150X0.03150*%
%ADD25R,0.04134X0.03937*%
D16*
X259095Y152166D02*
D03*
X98655Y139276D02*
D03*
X98813Y148370D02*
D03*
X191811Y161772D02*
D03*
X164094Y154921D02*
D03*
X241142Y152166D02*
D03*
X250118D02*
D03*
X134252Y90236D02*
D03*
X125039D02*
D03*
X115827D02*
D03*
X68189Y72126D02*
D03*
D17*
X199134Y101850D02*
D03*
Y107756D02*
D03*
X212913Y104449D02*
D03*
Y98543D02*
D03*
D18*
X226535Y127657D02*
D03*
Y122658D02*
D03*
Y117657D02*
D03*
Y112657D02*
D03*
Y107658D02*
D03*
Y102657D02*
D03*
Y97658D02*
D03*
Y92658D02*
D03*
X263937Y127657D02*
D03*
Y122658D02*
D03*
Y117657D02*
D03*
Y112657D02*
D03*
Y107658D02*
D03*
Y102657D02*
D03*
Y97658D02*
D03*
Y92658D02*
D03*
X226535Y84153D02*
D03*
Y79154D02*
D03*
Y74154D02*
D03*
Y69153D02*
D03*
Y64153D02*
D03*
Y59153D02*
D03*
Y54154D02*
D03*
Y49154D02*
D03*
X263937Y84153D02*
D03*
Y79154D02*
D03*
Y74154D02*
D03*
Y69153D02*
D03*
Y64153D02*
D03*
Y59153D02*
D03*
Y54154D02*
D03*
Y49154D02*
D03*
X181417Y49154D02*
D03*
Y54154D02*
D03*
Y59153D02*
D03*
Y64153D02*
D03*
Y69153D02*
D03*
Y74154D02*
D03*
Y79154D02*
D03*
Y84153D02*
D03*
X144016Y49154D02*
D03*
Y54154D02*
D03*
Y59153D02*
D03*
Y64153D02*
D03*
Y69153D02*
D03*
Y74154D02*
D03*
Y79154D02*
D03*
Y84153D02*
D03*
D19*
X201102Y91536D02*
D03*
X199134D02*
D03*
X197165D02*
D03*
X195197D02*
D03*
X193228D02*
D03*
X201102Y74213D02*
D03*
X199134D02*
D03*
X197165D02*
D03*
X195197D02*
D03*
X193228D02*
D03*
X215669Y91536D02*
D03*
X213701D02*
D03*
X211732D02*
D03*
X209764D02*
D03*
X207795D02*
D03*
X215669Y74213D02*
D03*
X213701D02*
D03*
X211732D02*
D03*
X209764D02*
D03*
X207795D02*
D03*
D20*
X116004Y139272D02*
D03*
X144941D02*
D03*
X116004Y162303D02*
D03*
X144941D02*
D03*
D21*
X118957Y139272D02*
D03*
X121516D02*
D03*
X124075D02*
D03*
X126634D02*
D03*
X129193D02*
D03*
X131752D02*
D03*
X134311D02*
D03*
X136870D02*
D03*
X139429D02*
D03*
X141988D02*
D03*
X118957Y162303D02*
D03*
X124075D02*
D03*
X126634D02*
D03*
X129193D02*
D03*
X131752D02*
D03*
X121516D02*
D03*
X134311D02*
D03*
X136870D02*
D03*
X141988D02*
D03*
X139429D02*
D03*
D22*
X205059Y184213D02*
D03*
X211161D02*
D03*
Y189921D02*
D03*
X205059D02*
D03*
X156398Y139252D02*
D03*
X150295D02*
D03*
D23*
X42913Y186713D02*
D03*
Y192815D02*
D03*
X52953Y186713D02*
D03*
Y192815D02*
D03*
X94449Y126201D02*
D03*
Y120098D02*
D03*
X103307D02*
D03*
Y126201D02*
D03*
X112165D02*
D03*
Y120098D02*
D03*
X121024Y126201D02*
D03*
Y120098D02*
D03*
X129882Y126201D02*
D03*
Y120098D02*
D03*
X138740Y126201D02*
D03*
Y120098D02*
D03*
X147598Y126201D02*
D03*
Y120098D02*
D03*
X156457Y126201D02*
D03*
Y120098D02*
D03*
X165315Y126201D02*
D03*
Y120098D02*
D03*
X174173Y126201D02*
D03*
Y120098D02*
D03*
D24*
X222874Y184213D02*
D03*
X216575D02*
D03*
X222874Y189921D02*
D03*
X216575D02*
D03*
D25*
X277638Y127657D02*
D03*
X271732D02*
D03*
X277638Y84153D02*
D03*
X271732D02*
D03*
X130315Y49134D02*
D03*
X136221D02*
D03*
X156496Y145158D02*
D03*
X150591D02*
D03*
M02*
