G04*
G04 #@! TF.GenerationSoftware,Altium Limited,Altium Designer,20.2.6 (244)*
G04*
G04 Layer_Physical_Order=1*
G04 Layer_Color=255*
%FSLAX25Y25*%
%MOIN*%
G70*
G04*
G04 #@! TF.SameCoordinates,AB67291A-AA9B-40AF-8186-DAF89046D4B2*
G04*
G04*
G04 #@! TF.FilePolarity,Positive*
G04*
G01*
G75*
%ADD13C,0.01000*%
%ADD18R,0.03347X0.03543*%
%ADD19R,0.05315X0.01575*%
%ADD20R,0.05315X0.02362*%
%ADD21C,0.07874*%
%ADD22R,0.03937X0.04134*%
%ADD23R,0.03937X0.07284*%
%ADD24R,0.12598X0.07284*%
%ADD25R,0.03150X0.03150*%
%ADD26R,0.04134X0.03937*%
%ADD27O,0.02362X0.07480*%
%ADD28R,0.03543X0.03347*%
%ADD29O,0.01181X0.05709*%
%ADD47C,0.00600*%
%ADD48C,0.01600*%
%ADD49C,0.03200*%
%ADD50C,0.02200*%
%ADD51C,0.01598*%
%ADD52C,0.06299*%
%ADD53C,0.12205*%
%ADD54C,0.06693*%
%ADD55C,0.05512*%
%ADD56C,0.24410*%
%ADD57C,0.02953*%
G36*
X163315Y2039D02*
X2039D01*
Y446780D01*
X163315D01*
X163315Y2039D01*
D02*
G37*
%LPC*%
G36*
X148038Y444316D02*
Y431502D01*
X160852D01*
X160720Y433174D01*
X160235Y435195D01*
X159440Y437116D01*
X158354Y438888D01*
X157004Y440468D01*
X155423Y441818D01*
X153651Y442904D01*
X151731Y443700D01*
X149710Y444185D01*
X148038Y444316D01*
D02*
G37*
G36*
X147238D02*
X145566Y444185D01*
X143545Y443700D01*
X141624Y442904D01*
X139852Y441818D01*
X138272Y440468D01*
X136922Y438888D01*
X135836Y437116D01*
X135040Y435195D01*
X134555Y433174D01*
X134424Y431502D01*
X147238D01*
Y444316D01*
D02*
G37*
G36*
X18116D02*
Y431502D01*
X30931D01*
X30799Y433174D01*
X30314Y435195D01*
X29518Y437116D01*
X28432Y438888D01*
X27083Y440468D01*
X25502Y441818D01*
X23730Y442904D01*
X21810Y443700D01*
X19789Y444185D01*
X18116Y444316D01*
D02*
G37*
G36*
X17316D02*
X15644Y444185D01*
X13623Y443700D01*
X11703Y442904D01*
X9931Y441818D01*
X8350Y440468D01*
X7001Y438888D01*
X5915Y437116D01*
X5119Y435195D01*
X4634Y433174D01*
X4502Y431502D01*
X17316D01*
Y444316D01*
D02*
G37*
G36*
X117672Y433395D02*
X115005D01*
Y430426D01*
Y427458D01*
X117672D01*
Y429022D01*
X119447D01*
X119955Y429123D01*
X120385Y429410D01*
X120672Y429840D01*
X120773Y430348D01*
X120672Y430855D01*
X120385Y431285D01*
X119955Y431572D01*
X119447Y431673D01*
X117672D01*
Y433395D01*
D02*
G37*
G36*
X114205D02*
X111538D01*
Y433282D01*
X111266Y432895D01*
X111038Y432895D01*
X106132D01*
Y427958D01*
X106519D01*
Y426779D01*
X106191D01*
Y424778D01*
X89037D01*
X88218Y424615D01*
X87523Y424151D01*
X76163Y412791D01*
X75699Y412097D01*
X75536Y411277D01*
Y402976D01*
X43931Y402976D01*
X43549Y402818D01*
X43549Y402818D01*
X16952Y376222D01*
X16794Y375839D01*
X16794Y375839D01*
X16794Y173583D01*
Y170915D01*
X16794Y170915D01*
Y152408D01*
X11681Y147295D01*
X11327Y146766D01*
X11203Y146142D01*
Y110079D01*
X11327Y109454D01*
X11681Y108925D01*
X41248Y79358D01*
X41777Y79005D01*
X42402Y78880D01*
X49914D01*
X50001Y78671D01*
X50586Y77909D01*
X51348Y77324D01*
X51518Y77254D01*
Y73117D01*
X42941Y64539D01*
X42587Y64010D01*
X42463Y63386D01*
Y45669D01*
X42587Y45045D01*
X42941Y44516D01*
X45500Y41957D01*
X46029Y41603D01*
X46654Y41479D01*
X49914D01*
X50001Y41270D01*
X50586Y40507D01*
X51348Y39922D01*
X52236Y39555D01*
X53189Y39429D01*
X54142Y39555D01*
X55029Y39922D01*
X55792Y40507D01*
X56377Y41270D01*
X56745Y42158D01*
X56870Y43110D01*
X56745Y44063D01*
X56377Y44951D01*
X55792Y45713D01*
X55029Y46298D01*
X54142Y46666D01*
X53189Y46791D01*
X52236Y46666D01*
X51348Y46298D01*
X50586Y45713D01*
X50001Y44951D01*
X49914Y44742D01*
X47329D01*
X45726Y46345D01*
Y62710D01*
X54303Y71287D01*
X54657Y71817D01*
X54781Y72441D01*
Y77221D01*
X55029Y77324D01*
X55792Y77909D01*
X56377Y78671D01*
X56745Y79559D01*
X56870Y80512D01*
X56745Y81464D01*
X56377Y82352D01*
X55792Y83115D01*
X55029Y83700D01*
X54142Y84067D01*
X53189Y84193D01*
X52236Y84067D01*
X51348Y83700D01*
X50586Y83115D01*
X50001Y82352D01*
X49914Y82143D01*
X43077D01*
X14466Y110755D01*
Y145466D01*
X19579Y150579D01*
X19932Y151108D01*
X20056Y151732D01*
Y172218D01*
X20880Y173041D01*
X23976D01*
X27618Y173041D01*
X27864Y172541D01*
X27428Y171973D01*
X27049Y171059D01*
X26973Y170479D01*
X30709D01*
Y169679D01*
X26973D01*
X27049Y169098D01*
X27428Y168185D01*
X28030Y167400D01*
X28815Y166798D01*
X29728Y166419D01*
X29923Y166394D01*
Y165890D01*
X29728Y165864D01*
X28815Y165486D01*
X28030Y164883D01*
X27428Y164099D01*
X27049Y163185D01*
X26973Y162605D01*
X30709D01*
Y161805D01*
X26973D01*
X27049Y161224D01*
X27428Y160311D01*
X28030Y159526D01*
X28815Y158924D01*
X29728Y158545D01*
X29923Y158520D01*
Y158016D01*
X29728Y157990D01*
X28815Y157612D01*
X28030Y157009D01*
X27428Y156225D01*
X27049Y155311D01*
X26973Y154731D01*
X30709D01*
Y153931D01*
X26973D01*
X27049Y153350D01*
X27428Y152437D01*
X28030Y151652D01*
X28815Y151050D01*
X29728Y150672D01*
X29923Y150646D01*
Y150142D01*
X29728Y150116D01*
X28815Y149738D01*
X28030Y149135D01*
X27428Y148351D01*
X27049Y147437D01*
X26973Y146857D01*
X30709D01*
Y146457D01*
X31109D01*
Y142721D01*
X31689Y142798D01*
X32603Y143176D01*
X33387Y143778D01*
X33989Y144562D01*
X34368Y145476D01*
X34394Y145671D01*
X34898D01*
X34923Y145476D01*
X35302Y144562D01*
X35904Y143778D01*
X36689Y143176D01*
X37602Y142798D01*
X38183Y142721D01*
Y146457D01*
X38583D01*
Y146857D01*
X42318D01*
X42242Y147437D01*
X41864Y148351D01*
X41261Y149135D01*
X40477Y149738D01*
X39563Y150116D01*
X39369Y150142D01*
Y150646D01*
X39563Y150672D01*
X40477Y151050D01*
X41261Y151652D01*
X41864Y152437D01*
X42242Y153350D01*
X42318Y153931D01*
X38583D01*
Y154731D01*
X42318D01*
X42242Y155311D01*
X41864Y156225D01*
X41261Y157009D01*
X40477Y157612D01*
X39563Y157990D01*
X39369Y158016D01*
Y158520D01*
X39563Y158545D01*
X40477Y158924D01*
X41261Y159526D01*
X41864Y160311D01*
X42242Y161224D01*
X42318Y161805D01*
X38583D01*
Y162605D01*
X42318D01*
X42242Y163185D01*
X41864Y164099D01*
X41261Y164883D01*
X40477Y165486D01*
X39563Y165864D01*
X39369Y165890D01*
Y166394D01*
X39563Y166419D01*
X40477Y166798D01*
X41261Y167400D01*
X41864Y168185D01*
X42242Y169098D01*
X42318Y169679D01*
X38583D01*
Y170479D01*
X42318D01*
X42242Y171059D01*
X41864Y171973D01*
X41427Y172541D01*
X41674Y173041D01*
X41693D01*
X41693Y173041D01*
X42076Y173200D01*
X43663Y174787D01*
X43663Y174787D01*
X43821Y175170D01*
X43821Y175170D01*
X43821Y212372D01*
X45498Y214026D01*
X55118D01*
X55501Y214184D01*
X57469Y216153D01*
X57628Y216535D01*
X57628Y216535D01*
Y234198D01*
X57628Y234198D01*
X57469Y234580D01*
X55474Y236576D01*
X55091Y236735D01*
X55091Y236735D01*
X53678D01*
X53579Y237234D01*
X53846Y237345D01*
X54754Y238042D01*
X55450Y238950D01*
X55888Y240007D01*
X55985Y240742D01*
X51653D01*
X47322D01*
X47419Y240007D01*
X47857Y238950D01*
X48554Y238042D01*
X49462Y237345D01*
X49729Y237234D01*
X49629Y236735D01*
X43678D01*
X43578Y237234D01*
X43845Y237345D01*
X44754Y238042D01*
X45450Y238950D01*
X45888Y240007D01*
X45985Y240742D01*
X41654D01*
X37322D01*
X37419Y240007D01*
X37857Y238950D01*
X38554Y238042D01*
X39462Y237345D01*
X39729Y237234D01*
X39629Y236735D01*
X29827D01*
X28073Y239541D01*
Y373764D01*
X40827Y386518D01*
X59068Y386518D01*
X59509Y386077D01*
X59509Y375998D01*
X59509Y375998D01*
X59667Y375615D01*
X63645Y371637D01*
X64028Y371479D01*
X64028Y371479D01*
X69658Y371479D01*
X69658Y371479D01*
X70041Y371637D01*
X73190Y374787D01*
X73349Y375170D01*
X73349Y375170D01*
Y381649D01*
X77030Y385590D01*
X77430Y385831D01*
X82564D01*
X82836Y385444D01*
Y385332D01*
X85503D01*
Y388300D01*
Y391268D01*
X83441D01*
Y394129D01*
X83635Y394224D01*
X83941Y394264D01*
X84577Y393436D01*
X85485Y392739D01*
X86542Y392301D01*
X87277Y392204D01*
Y396535D01*
Y400867D01*
X86542Y400770D01*
X85485Y400332D01*
X84577Y399635D01*
X83941Y398807D01*
X83635Y398847D01*
X83441Y398941D01*
Y399900D01*
X83283Y400283D01*
X83112Y400353D01*
X80647Y402818D01*
X80265Y402976D01*
X79818Y403183D01*
Y410390D01*
X89924Y420496D01*
X106191D01*
Y418495D01*
X106984D01*
X107115Y418269D01*
X107190Y417995D01*
X106798Y417408D01*
X106645Y416637D01*
X106798Y415866D01*
X107235Y415212D01*
X107889Y414775D01*
X108660Y414622D01*
X109431Y414775D01*
X110085Y415212D01*
X110522Y415866D01*
X110675Y416637D01*
X110522Y417408D01*
X110129Y417995D01*
X110205Y418269D01*
X110336Y418495D01*
X111128D01*
Y426779D01*
X110801D01*
Y427545D01*
X110935Y427677D01*
X111494Y427633D01*
X111538Y427570D01*
Y427458D01*
X114205D01*
Y430426D01*
Y433395D01*
D02*
G37*
G36*
X126370Y427279D02*
X123802D01*
Y423037D01*
X126370D01*
Y427279D01*
D02*
G37*
G36*
X129739D02*
X127170D01*
Y422637D01*
Y417995D01*
X129739D01*
Y421312D01*
X133770D01*
X134277Y421412D01*
X134707Y421700D01*
X134995Y422130D01*
X135096Y422637D01*
X134995Y423144D01*
X134707Y423574D01*
X134277Y423862D01*
X133770Y423962D01*
X129739D01*
Y427279D01*
D02*
G37*
G36*
X126370Y422237D02*
X123802D01*
Y417995D01*
X126370D01*
Y422237D01*
D02*
G37*
G36*
X160852Y430702D02*
X148038D01*
Y417888D01*
X149710Y418020D01*
X151731Y418505D01*
X153651Y419301D01*
X155423Y420387D01*
X157004Y421736D01*
X158354Y423317D01*
X159440Y425089D01*
X160235Y427009D01*
X160720Y429030D01*
X160852Y430702D01*
D02*
G37*
G36*
X147238D02*
X134424D01*
X134555Y429030D01*
X135040Y427009D01*
X135836Y425089D01*
X136922Y423317D01*
X138272Y421736D01*
X139852Y420387D01*
X141624Y419301D01*
X143545Y418505D01*
X145566Y418020D01*
X147238Y417888D01*
Y430702D01*
D02*
G37*
G36*
X30931D02*
X18116D01*
Y417888D01*
X19789Y418020D01*
X21810Y418505D01*
X23730Y419301D01*
X25502Y420387D01*
X27083Y421736D01*
X28432Y423317D01*
X29518Y425089D01*
X30314Y427009D01*
X30799Y429030D01*
X30931Y430702D01*
D02*
G37*
G36*
X17316D02*
X4502D01*
X4634Y429030D01*
X5119Y427009D01*
X5915Y425089D01*
X7001Y423317D01*
X8350Y421736D01*
X9931Y420387D01*
X11703Y419301D01*
X13623Y418505D01*
X15644Y418020D01*
X17316Y417888D01*
Y430702D01*
D02*
G37*
G36*
X148440Y404665D02*
X144290D01*
Y403718D01*
X143125D01*
Y404665D01*
X138779D01*
Y400122D01*
X143125D01*
Y401069D01*
X144290D01*
Y400516D01*
X148440D01*
Y404665D01*
D02*
G37*
G36*
X152265Y405165D02*
X150090D01*
Y402990D01*
X152265D01*
Y405165D01*
D02*
G37*
G36*
X134850Y408909D02*
X134078Y408755D01*
X133425Y408319D01*
X132988Y407665D01*
X132834Y406894D01*
X132988Y406122D01*
X133425Y405469D01*
X133524Y405402D01*
Y404665D01*
X132676D01*
Y400122D01*
X137023D01*
Y404665D01*
X136175D01*
Y405402D01*
X136275Y405469D01*
X136711Y406122D01*
X136865Y406894D01*
X136711Y407665D01*
X136275Y408319D01*
X135621Y408755D01*
X134850Y408909D01*
D02*
G37*
G36*
X155239Y405165D02*
X153065D01*
Y402591D01*
Y400016D01*
X155239D01*
Y401108D01*
X157153D01*
X157660Y401208D01*
X158090Y401496D01*
X158377Y401926D01*
X158478Y402433D01*
X158377Y402940D01*
X158090Y403370D01*
X157660Y403658D01*
X157153Y403758D01*
X155239D01*
Y405165D01*
D02*
G37*
G36*
X152265Y402190D02*
X150090D01*
Y400016D01*
X152265D01*
Y402190D01*
D02*
G37*
G36*
X152225Y399177D02*
X150050D01*
Y397002D01*
X152225D01*
Y399177D01*
D02*
G37*
G36*
X88077Y400867D02*
Y396935D01*
X92009D01*
X91912Y397670D01*
X91474Y398727D01*
X90777Y399635D01*
X89869Y400332D01*
X88812Y400770D01*
X88077Y400867D01*
D02*
G37*
G36*
X143086Y398874D02*
X138739D01*
Y394331D01*
X143086D01*
Y395277D01*
X144251D01*
Y394528D01*
X148401D01*
Y398677D01*
X144251D01*
Y397928D01*
X143086D01*
Y398874D01*
D02*
G37*
G36*
X120184Y426779D02*
X115246D01*
Y418495D01*
X116084D01*
Y402566D01*
X110916D01*
Y394283D01*
X116084D01*
Y393117D01*
X115187D01*
Y388180D01*
X116390D01*
Y380364D01*
X115304Y379278D01*
X96773D01*
X96395Y380190D01*
X95684Y381117D01*
X94757Y381828D01*
X93678Y382276D01*
X92520Y382428D01*
X91361Y382276D01*
X90282Y381828D01*
X89355Y381117D01*
X88644Y380190D01*
X88197Y379111D01*
X88044Y377953D01*
X88197Y376795D01*
X88644Y375715D01*
X89355Y374788D01*
X90282Y374077D01*
X91194Y373699D01*
Y370930D01*
X91295Y370423D01*
X91582Y369993D01*
X106293Y355283D01*
Y348166D01*
X106276Y347673D01*
X103688D01*
Y350000D01*
X103587Y350507D01*
X103299Y350937D01*
X102869Y351225D01*
X102362Y351325D01*
X101855Y351225D01*
X101425Y350937D01*
X101138Y350507D01*
X101037Y350000D01*
Y347673D01*
X98961D01*
Y345892D01*
X102618D01*
Y345092D01*
X98961D01*
Y343311D01*
X99461D01*
Y340796D01*
X98958D01*
X97816Y341938D01*
Y355950D01*
X97816Y355950D01*
X97754Y356262D01*
X97577Y356527D01*
X97577Y356527D01*
X91827Y362277D01*
X91562Y362454D01*
X91250Y362516D01*
X91250Y362516D01*
X89523D01*
Y363972D01*
X85177D01*
Y359428D01*
X89523D01*
Y360884D01*
X90912D01*
X96184Y355612D01*
Y341990D01*
X95705Y341777D01*
X95416Y342004D01*
Y352600D01*
X95416Y352600D01*
X95354Y352912D01*
X95177Y353177D01*
X91785Y356568D01*
X91521Y356745D01*
X91209Y356807D01*
X91209Y356807D01*
X89523D01*
Y358263D01*
X85177D01*
Y353720D01*
X89523D01*
Y355176D01*
X90871D01*
X93784Y352262D01*
Y341550D01*
X93784Y341550D01*
X93846Y341238D01*
X93893Y341167D01*
X93505Y340849D01*
X92766Y341588D01*
Y349200D01*
X92704Y349512D01*
X92527Y349777D01*
X92527Y349777D01*
X91477Y350827D01*
X91212Y351004D01*
X90900Y351066D01*
X90900Y351066D01*
X89526D01*
Y352522D01*
X85179D01*
Y347978D01*
X85871D01*
X86063Y347516D01*
X85512Y346966D01*
X61888D01*
X55718Y353136D01*
X55453Y353313D01*
X55141Y353375D01*
X55141Y353375D01*
X54520D01*
X54496Y353563D01*
X54108Y354499D01*
X53491Y355302D01*
X52688Y355919D01*
X51752Y356307D01*
X50748Y356439D01*
X49744Y356307D01*
X48808Y355919D01*
X48005Y355302D01*
X47388Y354499D01*
X47001Y353563D01*
X46868Y352559D01*
X47001Y351555D01*
X47388Y350619D01*
X48005Y349816D01*
X48808Y349199D01*
X49744Y348812D01*
X50748Y348679D01*
X51752Y348812D01*
X52688Y349199D01*
X53491Y349816D01*
X54108Y350619D01*
X54438Y351417D01*
X54839Y351550D01*
X54999Y351548D01*
X60973Y345573D01*
X60973Y345573D01*
X61209Y345416D01*
X61229Y345286D01*
X61200Y344916D01*
X60888Y344854D01*
X60623Y344677D01*
X60623Y344677D01*
X59321Y343375D01*
X54520D01*
X54496Y343563D01*
X54108Y344499D01*
X53491Y345302D01*
X52688Y345919D01*
X51752Y346306D01*
X50748Y346439D01*
X49744Y346306D01*
X48808Y345919D01*
X48005Y345302D01*
X47388Y344499D01*
X47001Y343563D01*
X46868Y342559D01*
X47001Y341555D01*
X47388Y340619D01*
X48005Y339816D01*
X48808Y339199D01*
X49744Y338812D01*
X50748Y338679D01*
X51752Y338812D01*
X52688Y339199D01*
X53491Y339816D01*
X54108Y340619D01*
X54496Y341555D01*
X54520Y341743D01*
X59659D01*
X59659Y341743D01*
X59971Y341806D01*
X60236Y341982D01*
X61538Y343284D01*
X85412D01*
X86000Y342696D01*
X85809Y342234D01*
X85179D01*
Y337691D01*
X89526D01*
Y338644D01*
X90026Y338851D01*
X97151Y331726D01*
X97151Y331726D01*
X97415Y331550D01*
X97727Y331487D01*
X97728Y331487D01*
X99461D01*
Y330560D01*
X96578D01*
X92388Y334750D01*
X92123Y334927D01*
X91811Y334989D01*
X91811Y334989D01*
X89555D01*
Y336445D01*
X85209D01*
Y331902D01*
X89555D01*
Y333358D01*
X91473D01*
X95664Y329167D01*
X95664Y329167D01*
X95928Y328991D01*
X96240Y328928D01*
X99461D01*
Y328001D01*
X94455D01*
X93532Y328923D01*
X93268Y329100D01*
X92956Y329162D01*
X92956Y329162D01*
X89555D01*
Y330736D01*
X85209D01*
Y326193D01*
X89555D01*
Y327531D01*
X92618D01*
X93540Y326608D01*
X93540Y326608D01*
X93805Y326431D01*
X94117Y326369D01*
X94117Y326369D01*
X99461D01*
Y325442D01*
X95886D01*
X95886Y325442D01*
X95574Y325380D01*
X95309Y325203D01*
X93678Y323572D01*
X89555D01*
Y325028D01*
X85209D01*
Y320484D01*
X89555D01*
Y321940D01*
X94016D01*
X94016Y321940D01*
X94328Y322002D01*
X94592Y322179D01*
X96224Y323810D01*
X99461D01*
Y322883D01*
X98445D01*
X98445Y322883D01*
X98133Y322820D01*
X97868Y322644D01*
X97868Y322644D01*
X92891Y317666D01*
X89555D01*
Y319122D01*
X85209D01*
Y314579D01*
X89555D01*
Y316035D01*
X93228D01*
X93228Y316035D01*
X93541Y316097D01*
X93805Y316274D01*
X98783Y321251D01*
X99461D01*
Y320554D01*
X99035Y320323D01*
X98723Y320261D01*
X98459Y320085D01*
X98459Y320085D01*
X90331Y311957D01*
X89555D01*
Y313413D01*
X85209D01*
Y308870D01*
X89555D01*
Y310326D01*
X90669D01*
X90669Y310326D01*
X90981Y310388D01*
X91246Y310565D01*
X98961Y318280D01*
X99112Y318262D01*
X99461Y318072D01*
Y314874D01*
X105776D01*
Y318220D01*
Y320779D01*
Y323339D01*
Y325898D01*
Y328457D01*
Y331016D01*
Y333575D01*
Y336134D01*
Y340840D01*
X105968Y340966D01*
X106276Y341059D01*
X106847Y340678D01*
X107618Y340524D01*
X108389Y340678D01*
X109043Y341114D01*
X109480Y341768D01*
X109633Y342539D01*
X109480Y343310D01*
X109043Y343964D01*
X108944Y344031D01*
Y355832D01*
X108843Y356339D01*
X108555Y356769D01*
X93845Y371479D01*
Y373699D01*
X94757Y374077D01*
X95684Y374788D01*
X96395Y375715D01*
X96773Y376627D01*
X115853D01*
X116360Y376728D01*
X116790Y377015D01*
X118652Y378878D01*
X118939Y379308D01*
X119040Y379815D01*
Y387827D01*
X119394Y388180D01*
X120321Y388180D01*
X120593Y387793D01*
Y387680D01*
X123260D01*
Y390649D01*
Y393617D01*
X120593D01*
Y393505D01*
X120321Y393117D01*
X120093Y393117D01*
X119346D01*
Y394283D01*
X124514D01*
Y397405D01*
X125053D01*
X126577Y395881D01*
X126908Y395660D01*
X127298Y395583D01*
X132637D01*
Y394331D01*
X136984D01*
Y398874D01*
X132637D01*
Y397622D01*
X127720D01*
X126197Y399145D01*
X125866Y399366D01*
X125476Y399444D01*
X124514D01*
Y402566D01*
X119346D01*
Y418495D01*
X120184D01*
Y426779D01*
D02*
G37*
G36*
X155200Y399177D02*
X153025D01*
Y396602D01*
Y394028D01*
X155200D01*
Y395119D01*
X156759D01*
X157266Y395220D01*
X157696Y395508D01*
X157984Y395938D01*
X158084Y396445D01*
X157984Y396952D01*
X157696Y397382D01*
X157266Y397670D01*
X156759Y397770D01*
X155200D01*
Y399177D01*
D02*
G37*
G36*
X152225Y396202D02*
X150050D01*
Y394028D01*
X152225D01*
Y396202D01*
D02*
G37*
G36*
X92009Y396135D02*
X88077D01*
Y392204D01*
X88812Y392301D01*
X89869Y392739D01*
X90777Y393436D01*
X91474Y394343D01*
X91912Y395401D01*
X92009Y396135D01*
D02*
G37*
G36*
X126727Y393617D02*
X124060D01*
Y390649D01*
Y387680D01*
X126727D01*
Y389284D01*
X128463D01*
X128970Y389385D01*
X129400Y389672D01*
X129688Y390102D01*
X129788Y390610D01*
X129688Y391117D01*
X129400Y391547D01*
X128970Y391834D01*
X128463Y391935D01*
X126727D01*
Y393617D01*
D02*
G37*
G36*
X88970Y391268D02*
X86303D01*
Y388300D01*
Y385332D01*
X88970D01*
Y387093D01*
X90745D01*
X91252Y387193D01*
X91682Y387481D01*
X91970Y387911D01*
X92071Y388418D01*
X91970Y388925D01*
X91682Y389355D01*
X91252Y389643D01*
X90745Y389744D01*
X88970D01*
Y391268D01*
D02*
G37*
G36*
X80300Y382880D02*
Y378353D01*
X84827D01*
X84710Y379242D01*
X84212Y380443D01*
X83421Y381474D01*
X82390Y382265D01*
X81189Y382763D01*
X80300Y382880D01*
D02*
G37*
G36*
X79500D02*
X78611Y382763D01*
X77410Y382265D01*
X76379Y381474D01*
X75587Y380443D01*
X75090Y379242D01*
X74973Y378353D01*
X79500D01*
Y382880D01*
D02*
G37*
G36*
X84827Y377553D02*
X80300D01*
Y373026D01*
X81189Y373143D01*
X82390Y373640D01*
X83421Y374432D01*
X84212Y375463D01*
X84710Y376664D01*
X84827Y377553D01*
D02*
G37*
G36*
X79500D02*
X74973D01*
X75090Y376664D01*
X75587Y375463D01*
X76379Y374432D01*
X77410Y373640D01*
X78611Y373143D01*
X79500Y373026D01*
Y377553D01*
D02*
G37*
G36*
X50748Y376439D02*
X49744Y376307D01*
X48808Y375919D01*
X48005Y375302D01*
X47388Y374499D01*
X47001Y373563D01*
X46868Y372559D01*
X47001Y371555D01*
X47388Y370619D01*
X48005Y369816D01*
X48808Y369199D01*
X49744Y368812D01*
X50748Y368679D01*
X51752Y368812D01*
X52688Y369199D01*
X53146Y369551D01*
X61573Y361123D01*
X61573Y361123D01*
X61838Y360946D01*
X62150Y360884D01*
X62150Y360884D01*
X79074D01*
Y359428D01*
X83421D01*
Y363972D01*
X79074D01*
Y362516D01*
X62488D01*
X54189Y370815D01*
X54496Y371555D01*
X54628Y372559D01*
X54496Y373563D01*
X54108Y374499D01*
X53491Y375302D01*
X52688Y375919D01*
X51752Y376307D01*
X50748Y376439D01*
D02*
G37*
G36*
X122653Y360252D02*
X120085D01*
Y357585D01*
X122653D01*
Y360252D01*
D02*
G37*
G36*
X127862Y359457D02*
X123319D01*
Y355110D01*
X127862D01*
Y355958D01*
X128599D01*
X128666Y355859D01*
X129319Y355422D01*
X130091Y355268D01*
X130862Y355422D01*
X131515Y355859D01*
X131952Y356512D01*
X132106Y357283D01*
X131952Y358055D01*
X131515Y358708D01*
X130862Y359145D01*
X130091Y359299D01*
X129319Y359145D01*
X128666Y358708D01*
X128599Y358609D01*
X127862D01*
Y359457D01*
D02*
G37*
G36*
X50748Y366439D02*
X49744Y366306D01*
X48808Y365919D01*
X48005Y365302D01*
X47388Y364499D01*
X47001Y363563D01*
X46868Y362559D01*
X47001Y361555D01*
X47388Y360619D01*
X48005Y359816D01*
X48808Y359199D01*
X49744Y358812D01*
X50748Y358679D01*
X51752Y358812D01*
X52688Y359199D01*
X53491Y359816D01*
X54108Y360619D01*
X54496Y361555D01*
X54520Y361743D01*
X55853D01*
X62182Y355415D01*
X62182Y355415D01*
X62446Y355238D01*
X62759Y355176D01*
X79074D01*
Y353720D01*
X83421D01*
Y358263D01*
X79074D01*
Y356807D01*
X63096D01*
X56768Y363136D01*
X56503Y363313D01*
X56191Y363375D01*
X56191Y363375D01*
X54520D01*
X54496Y363563D01*
X54108Y364499D01*
X53491Y365302D01*
X52688Y365919D01*
X51752Y366306D01*
X50748Y366439D01*
D02*
G37*
G36*
X83423Y352522D02*
X79077D01*
Y351220D01*
X78596D01*
X78325Y351625D01*
X77671Y352062D01*
X76900Y352215D01*
X76129Y352062D01*
X75475Y351625D01*
X75038Y350971D01*
X74885Y350200D01*
X75038Y349429D01*
X75475Y348775D01*
X76129Y348338D01*
X76900Y348185D01*
X77671Y348338D01*
X78325Y348775D01*
X78596Y349180D01*
X79077D01*
Y347978D01*
X83423D01*
Y352522D01*
D02*
G37*
G36*
Y342234D02*
X79077D01*
Y340982D01*
X78596D01*
X78325Y341388D01*
X77671Y341824D01*
X76900Y341978D01*
X76129Y341824D01*
X75475Y341388D01*
X75038Y340734D01*
X74885Y339963D01*
X75038Y339191D01*
X75475Y338538D01*
X76129Y338101D01*
X76900Y337948D01*
X77671Y338101D01*
X78325Y338538D01*
X78596Y338943D01*
X79077D01*
Y337691D01*
X83423D01*
Y342234D01*
D02*
G37*
G36*
X83453Y336445D02*
X79106D01*
Y334989D01*
X62913D01*
X62601Y334927D01*
X62337Y334750D01*
X62337Y334750D01*
X61079Y333493D01*
X54505D01*
X54496Y333563D01*
X54108Y334499D01*
X53491Y335302D01*
X52688Y335919D01*
X51752Y336307D01*
X50748Y336439D01*
X49744Y336307D01*
X48808Y335919D01*
X48005Y335302D01*
X47388Y334499D01*
X47001Y333563D01*
X46868Y332559D01*
X47001Y331555D01*
X47388Y330619D01*
X48005Y329816D01*
X48808Y329199D01*
X49744Y328812D01*
X50748Y328679D01*
X51752Y328812D01*
X52688Y329199D01*
X53491Y329816D01*
X54108Y330619D01*
X54496Y331555D01*
X54536Y331861D01*
X61417D01*
X61417Y331861D01*
X61730Y331924D01*
X61994Y332100D01*
X63251Y333358D01*
X79106D01*
Y331902D01*
X83453D01*
Y336445D01*
D02*
G37*
G36*
X119285Y360252D02*
X116717D01*
Y358412D01*
X114961D01*
X114453Y358311D01*
X114023Y358024D01*
X113736Y357594D01*
X113635Y357087D01*
X113736Y356579D01*
X114023Y356149D01*
X114453Y355862D01*
X114961Y355761D01*
X116717D01*
Y354118D01*
X116829D01*
X117217Y353847D01*
X117217Y353618D01*
Y348713D01*
X122153D01*
Y349856D01*
X123319D01*
Y349008D01*
X124324D01*
Y347173D01*
X122492D01*
Y343811D01*
Y341252D01*
Y338693D01*
Y336134D01*
Y333575D01*
Y330560D01*
X115965D01*
X115965Y330560D01*
X115652Y330498D01*
X115388Y330321D01*
X112022Y326955D01*
X111845Y326690D01*
X111783Y326378D01*
X111783Y326378D01*
Y316480D01*
X107930Y312627D01*
X98819D01*
X98819Y312627D01*
X98507Y312565D01*
X98242Y312388D01*
X98242Y312388D01*
X88245Y302391D01*
X83071D01*
X82759Y302328D01*
X82494Y302152D01*
X82494Y302151D01*
X81313Y300971D01*
X81136Y300706D01*
X81074Y300394D01*
X81074Y300394D01*
Y296661D01*
X79618D01*
Y295304D01*
X77953D01*
X77641Y295242D01*
X77376Y295065D01*
X77376Y295065D01*
X75801Y293490D01*
X75624Y293226D01*
X75562Y292913D01*
X75562Y292913D01*
Y272163D01*
X75220Y272118D01*
X74140Y271671D01*
X73213Y270960D01*
X72502Y270033D01*
X72055Y268954D01*
X71903Y267795D01*
X72055Y266637D01*
X72502Y265558D01*
X73213Y264631D01*
X74140Y263920D01*
X75220Y263473D01*
X76378Y263320D01*
X77536Y263473D01*
X78616Y263920D01*
X78890Y264130D01*
X81628Y261392D01*
X81584Y260818D01*
X81145Y260525D01*
X80708Y259871D01*
X80555Y259100D01*
X80708Y258329D01*
X81145Y257675D01*
X81799Y257238D01*
X82570Y257085D01*
X83341Y257238D01*
X83995Y257675D01*
X84432Y258329D01*
X84585Y259100D01*
X84432Y259871D01*
X83995Y260525D01*
X83416Y260912D01*
Y261573D01*
X83416Y261573D01*
X83354Y261885D01*
X83177Y262150D01*
X83177Y262150D01*
X80043Y265283D01*
X80254Y265558D01*
X80648Y266510D01*
X81163Y266510D01*
X81557Y265558D01*
X82269Y264631D01*
X83195Y263920D01*
X84275Y263473D01*
X85433Y263320D01*
X86591Y263473D01*
X87671Y263920D01*
X87703Y263944D01*
X89434Y262212D01*
Y260892D01*
X88885Y260525D01*
X88448Y259871D01*
X88295Y259100D01*
X88448Y258329D01*
X88885Y257675D01*
X89539Y257238D01*
X90310Y257085D01*
X91081Y257238D01*
X91735Y257675D01*
X92172Y258329D01*
X92325Y259100D01*
X92172Y259871D01*
X91735Y260525D01*
X91081Y260962D01*
X91066Y260965D01*
Y262550D01*
X91066Y262550D01*
X91004Y262862D01*
X90827Y263127D01*
X90827Y263127D01*
X88912Y265041D01*
X89309Y265558D01*
X89703Y266510D01*
X90218Y266510D01*
X90613Y265558D01*
X91324Y264631D01*
X92251Y263920D01*
X93330Y263473D01*
X94488Y263320D01*
X95647Y263473D01*
X96726Y263920D01*
X96856Y264020D01*
X97284Y263718D01*
Y260963D01*
X97279Y260962D01*
X96625Y260525D01*
X96188Y259871D01*
X96035Y259100D01*
X96188Y258329D01*
X96625Y257675D01*
X97279Y257238D01*
X98050Y257085D01*
X98821Y257238D01*
X99475Y257675D01*
X99912Y258329D01*
X100065Y259100D01*
X99912Y259871D01*
X99475Y260525D01*
X98916Y260898D01*
Y264183D01*
X98916Y264183D01*
X98854Y264496D01*
X98677Y264760D01*
X98154Y265283D01*
X98364Y265558D01*
X98759Y266510D01*
X99273Y266510D01*
X99668Y265558D01*
X100379Y264631D01*
X101306Y263920D01*
X102385Y263473D01*
X103543Y263320D01*
X104702Y263473D01*
X105781Y263920D01*
X106055Y264130D01*
X136747Y233438D01*
Y227304D01*
X136351Y227039D01*
X135979Y226483D01*
X135849Y225827D01*
Y220709D01*
X135979Y220053D01*
X136351Y219497D01*
X136907Y219125D01*
X137563Y218995D01*
X138219Y219125D01*
X138775Y219497D01*
X139147Y220053D01*
X139277Y220709D01*
Y225827D01*
X139147Y226483D01*
X138775Y227039D01*
X138379Y227304D01*
Y233776D01*
X138317Y234088D01*
X138140Y234352D01*
X138140Y234352D01*
X107209Y265283D01*
X107419Y265558D01*
X107814Y266510D01*
X108328D01*
X108723Y265558D01*
X109434Y264631D01*
X110361Y263920D01*
X111440Y263473D01*
X112598Y263320D01*
X113757Y263473D01*
X114476Y263770D01*
X141747Y236499D01*
Y227304D01*
X141351Y227039D01*
X140979Y226483D01*
X140849Y225827D01*
Y220709D01*
X140979Y220053D01*
X141351Y219497D01*
X141907Y219125D01*
X142563Y218995D01*
X143219Y219125D01*
X143775Y219497D01*
X144147Y220053D01*
X144277Y220709D01*
Y225827D01*
X144147Y226483D01*
X143775Y227039D01*
X143379Y227304D01*
Y236837D01*
X143379Y236837D01*
X143317Y237149D01*
X143140Y237414D01*
X143140Y237414D01*
X115832Y264721D01*
X116474Y265558D01*
X116816Y266383D01*
X117357D01*
X117699Y265558D01*
X118410Y264631D01*
X119337Y263920D01*
X120416Y263473D01*
X121575Y263320D01*
X122733Y263473D01*
X123812Y263920D01*
X123964Y264036D01*
X124381Y263726D01*
Y258309D01*
X124381Y258309D01*
X124443Y257997D01*
X124620Y257732D01*
X152304Y230048D01*
Y177207D01*
X138893Y163797D01*
X109381D01*
X109381Y163797D01*
X109069Y163735D01*
X108804Y163558D01*
X107385Y162138D01*
X107208Y161874D01*
X107169Y161680D01*
X107063Y161600D01*
X106866Y161513D01*
X106653Y161476D01*
X106637Y161480D01*
X106418Y161627D01*
X105993Y161711D01*
X105567Y161627D01*
X105349Y161480D01*
X105171Y161746D01*
X104645Y162098D01*
X104424Y162141D01*
Y158335D01*
Y154530D01*
X104579Y154560D01*
X104898Y154359D01*
X104940Y154043D01*
X104684Y153769D01*
X101214D01*
X100986Y153769D01*
X100714Y154156D01*
Y154269D01*
X98047D01*
Y151300D01*
X97647D01*
Y150900D01*
X94580D01*
Y148331D01*
X96322D01*
Y146300D01*
X96423Y145793D01*
X96710Y145363D01*
X97140Y145075D01*
X97647Y144975D01*
X98154Y145075D01*
X98585Y145363D01*
X98872Y145793D01*
X98973Y146300D01*
Y148331D01*
X100714D01*
Y148444D01*
X100986Y148831D01*
X101214Y148831D01*
X102524D01*
Y147591D01*
X102425Y147525D01*
X101988Y146871D01*
X101835Y146100D01*
X101988Y145329D01*
X102425Y144675D01*
X103079Y144238D01*
X103850Y144085D01*
X104621Y144238D01*
X105275Y144675D01*
X105712Y145329D01*
X105865Y146100D01*
X105712Y146871D01*
X105275Y147525D01*
X105175Y147591D01*
Y148831D01*
X106120D01*
Y152615D01*
X106570Y153065D01*
X106570Y153065D01*
X106684Y153237D01*
X107147Y153168D01*
X107184Y153153D01*
Y115738D01*
X86554Y95107D01*
X68574D01*
X68556Y95244D01*
X68188Y96132D01*
X67603Y96894D01*
X66840Y97479D01*
X65953Y97847D01*
X65000Y97972D01*
X64047Y97847D01*
X63159Y97479D01*
X62397Y96894D01*
X61812Y96132D01*
X61444Y95244D01*
X61319Y94291D01*
X61444Y93339D01*
X61812Y92451D01*
X62397Y91688D01*
X63159Y91103D01*
X64047Y90736D01*
X65000Y90610D01*
X65953Y90736D01*
X66840Y91103D01*
X67603Y91688D01*
X68188Y92451D01*
X68556Y93339D01*
X68574Y93476D01*
X86891D01*
X86891Y93476D01*
X87204Y93538D01*
X87422Y93494D01*
X88269Y92222D01*
X77374Y81327D01*
X68574D01*
X68556Y81464D01*
X68188Y82352D01*
X67603Y83115D01*
X66840Y83700D01*
X65953Y84067D01*
X65000Y84193D01*
X64047Y84067D01*
X63159Y83700D01*
X62397Y83115D01*
X61812Y82352D01*
X61444Y81464D01*
X61319Y80512D01*
X61444Y79559D01*
X61812Y78671D01*
X62397Y77909D01*
X63159Y77324D01*
X64047Y76956D01*
X65000Y76831D01*
X65953Y76956D01*
X66840Y77324D01*
X67603Y77909D01*
X68188Y78671D01*
X68556Y79559D01*
X68574Y79696D01*
X77712D01*
X77712Y79696D01*
X78024Y79758D01*
X78289Y79935D01*
X110507Y112153D01*
X110507Y112153D01*
X110684Y112418D01*
X110746Y112730D01*
X110746Y112730D01*
Y155329D01*
X110957Y155646D01*
X111042Y156072D01*
Y157520D01*
X139585D01*
X139585Y157520D01*
X139898Y157582D01*
X140162Y157759D01*
X156077Y173673D01*
X156077Y173673D01*
X156254Y173938D01*
X156316Y174250D01*
Y232100D01*
X156316Y232100D01*
X156254Y232412D01*
X156077Y232677D01*
X156077Y232677D01*
X127981Y260772D01*
Y263696D01*
X128440Y263973D01*
X128510Y263920D01*
X129590Y263473D01*
X130748Y263320D01*
X131906Y263473D01*
X132986Y263920D01*
X133913Y264631D01*
X134624Y265558D01*
X134985Y266430D01*
X135527D01*
X135888Y265558D01*
X136599Y264631D01*
X137526Y263920D01*
X138605Y263473D01*
X139764Y263320D01*
X140922Y263473D01*
X142001Y263920D01*
X142491Y263665D01*
Y251969D01*
X142491Y251969D01*
X142553Y251656D01*
X142730Y251392D01*
X158640Y235482D01*
Y151683D01*
X66950Y59993D01*
X66840Y60078D01*
X65953Y60445D01*
X65000Y60571D01*
X64047Y60445D01*
X63160Y60078D01*
X62397Y59493D01*
X61812Y58730D01*
X61444Y57842D01*
X61319Y56890D01*
X61444Y55937D01*
X61812Y55049D01*
X62397Y54287D01*
X63160Y53702D01*
X64047Y53334D01*
X65000Y53209D01*
X65953Y53334D01*
X66840Y53702D01*
X67603Y54287D01*
X68188Y55049D01*
X68556Y55937D01*
X68681Y56890D01*
X68556Y57842D01*
X68188Y58730D01*
X68104Y58840D01*
X72872Y63608D01*
X73654Y63310D01*
X73656Y63304D01*
X73594Y62992D01*
X73594Y62992D01*
Y51519D01*
X67777Y45702D01*
X67603Y45713D01*
X66841Y46298D01*
X65953Y46666D01*
X65000Y46791D01*
X64047Y46666D01*
X63160Y46298D01*
X62397Y45713D01*
X61812Y44951D01*
X61444Y44063D01*
X61319Y43110D01*
X61444Y42158D01*
X61812Y41270D01*
X62397Y40507D01*
X63160Y39922D01*
X64047Y39555D01*
X65000Y39429D01*
X65953Y39555D01*
X66841Y39922D01*
X67603Y40507D01*
X68188Y41270D01*
X68556Y42158D01*
X68681Y43110D01*
X68556Y44063D01*
X68523Y44141D01*
X74986Y50604D01*
X74986Y50604D01*
X75163Y50869D01*
X75225Y51181D01*
X75225Y51181D01*
Y62654D01*
X162277Y149706D01*
X162454Y149970D01*
X162516Y150283D01*
X162516Y150283D01*
Y236725D01*
X162454Y237037D01*
X162277Y237302D01*
X162277Y237302D01*
X146049Y253530D01*
Y263698D01*
X146457Y264015D01*
X146581Y263920D01*
X147661Y263473D01*
X148819Y263320D01*
X149977Y263473D01*
X151057Y263920D01*
X151983Y264631D01*
X152695Y265558D01*
X153142Y266637D01*
X153294Y267795D01*
X153142Y268954D01*
X152695Y270033D01*
X151983Y270960D01*
X151057Y271671D01*
X149977Y272118D01*
X149635Y272163D01*
Y293307D01*
X149573Y293619D01*
X149396Y293884D01*
X149396Y293884D01*
X148352Y294927D01*
X148088Y295104D01*
X147776Y295166D01*
X147775Y295166D01*
X147153D01*
Y296524D01*
X145697D01*
Y297244D01*
X145635Y297556D01*
X145459Y297821D01*
X145459Y297821D01*
X142548Y300732D01*
Y333858D01*
X142548Y333858D01*
X142486Y334171D01*
X142309Y334435D01*
X142309Y334435D01*
X136187Y340557D01*
X135923Y340734D01*
X135610Y340796D01*
X135610Y340796D01*
X128807D01*
Y343811D01*
Y347173D01*
X126975D01*
Y349008D01*
X127862D01*
Y353354D01*
X123319D01*
Y352507D01*
X122507D01*
X122153Y352860D01*
X122153Y353847D01*
X122541Y354118D01*
X122653D01*
Y356785D01*
X119685D01*
Y357185D01*
X119285D01*
Y360252D01*
D02*
G37*
G36*
X83453Y330736D02*
X79106D01*
Y329280D01*
X66654D01*
X66341Y329218D01*
X66077Y329041D01*
X66077Y329041D01*
X60292Y323257D01*
X54536D01*
X54496Y323563D01*
X54108Y324499D01*
X53491Y325302D01*
X52688Y325919D01*
X51752Y326307D01*
X50748Y326439D01*
X49744Y326307D01*
X48808Y325919D01*
X48005Y325302D01*
X47388Y324499D01*
X47001Y323563D01*
X46868Y322559D01*
X47001Y321555D01*
X47388Y320619D01*
X48005Y319816D01*
X48808Y319199D01*
X49744Y318812D01*
X50748Y318679D01*
X51752Y318812D01*
X52688Y319199D01*
X53491Y319816D01*
X54108Y320619D01*
X54496Y321555D01*
X54505Y321625D01*
X60630D01*
X60630Y321625D01*
X60942Y321687D01*
X61207Y321864D01*
X66991Y327649D01*
X79106D01*
Y326193D01*
X83453D01*
Y330736D01*
D02*
G37*
G36*
Y325028D02*
X79106D01*
Y323650D01*
X70079D01*
X70079Y323650D01*
X69767Y323588D01*
X69502Y323411D01*
X69502Y323411D01*
X59111Y313020D01*
X54567D01*
X54496Y313563D01*
X54108Y314499D01*
X53491Y315302D01*
X52688Y315919D01*
X51752Y316306D01*
X50748Y316439D01*
X49744Y316306D01*
X48808Y315919D01*
X48005Y315302D01*
X47388Y314499D01*
X47001Y313563D01*
X46868Y312559D01*
X47001Y311555D01*
X47388Y310619D01*
X48005Y309816D01*
X48808Y309199D01*
X49744Y308812D01*
X50748Y308679D01*
X51752Y308812D01*
X52688Y309199D01*
X53491Y309816D01*
X54108Y310619D01*
X54427Y311389D01*
X59449D01*
X59449Y311389D01*
X59761Y311451D01*
X60026Y311628D01*
X70417Y322019D01*
X79106D01*
Y320484D01*
X83453D01*
Y325028D01*
D02*
G37*
G36*
Y319122D02*
X79106D01*
Y317666D01*
X71575D01*
X71263Y317604D01*
X70998Y317427D01*
X70998Y317427D01*
X57412Y303842D01*
X54380D01*
X54108Y304499D01*
X53491Y305302D01*
X52688Y305919D01*
X51752Y306307D01*
X50748Y306439D01*
X49744Y306307D01*
X48808Y305919D01*
X48005Y305302D01*
X47388Y304499D01*
X47001Y303563D01*
X46868Y302559D01*
X47001Y301555D01*
X47388Y300619D01*
X48005Y299816D01*
X48808Y299199D01*
X49744Y298812D01*
X50748Y298679D01*
X51752Y298812D01*
X52688Y299199D01*
X53491Y299816D01*
X54108Y300619D01*
X54496Y301555D01*
X54582Y302210D01*
X57750D01*
X57750Y302210D01*
X58062Y302272D01*
X58327Y302449D01*
X71913Y316035D01*
X79106D01*
Y314579D01*
X83453D01*
Y319122D01*
D02*
G37*
G36*
Y313413D02*
X79106D01*
Y311839D01*
X74803D01*
X74803Y311839D01*
X74491Y311777D01*
X74226Y311600D01*
X74226Y311600D01*
X58478Y295852D01*
X58478Y295852D01*
X57419Y294793D01*
X57384Y294741D01*
X56766Y294123D01*
X54264D01*
X54108Y294499D01*
X53491Y295302D01*
X52688Y295919D01*
X51752Y296306D01*
X50748Y296439D01*
X49744Y296306D01*
X48808Y295919D01*
X48005Y295302D01*
X47388Y294499D01*
X47001Y293563D01*
X46868Y292559D01*
X47001Y291555D01*
X47388Y290619D01*
X48005Y289816D01*
X48808Y289199D01*
X49744Y288812D01*
X50748Y288679D01*
X51752Y288812D01*
X52688Y289199D01*
X53491Y289816D01*
X54108Y290619D01*
X54496Y291555D01*
X54619Y292491D01*
X57104D01*
X57104Y292491D01*
X57416Y292553D01*
X57681Y292730D01*
X58573Y293622D01*
X58573Y293622D01*
X58608Y293675D01*
X59632Y294699D01*
X59632Y294699D01*
X59632Y294699D01*
X75141Y310208D01*
X79106D01*
Y308870D01*
X83453D01*
Y313413D01*
D02*
G37*
G36*
X52053Y255473D02*
Y251542D01*
X55985D01*
X55888Y252276D01*
X55450Y253334D01*
X54754Y254242D01*
X53846Y254938D01*
X52788Y255376D01*
X52053Y255473D01*
D02*
G37*
G36*
X42054D02*
Y251542D01*
X45985D01*
X45888Y252276D01*
X45450Y253334D01*
X44754Y254242D01*
X43845Y254938D01*
X42788Y255376D01*
X42054Y255473D01*
D02*
G37*
G36*
X51253D02*
X50519Y255376D01*
X49462Y254938D01*
X48554Y254242D01*
X47857Y253334D01*
X47419Y252276D01*
X47322Y251542D01*
X51253D01*
Y255473D01*
D02*
G37*
G36*
X41254D02*
X40519Y255376D01*
X39462Y254938D01*
X38554Y254242D01*
X37857Y253334D01*
X37419Y252276D01*
X37322Y251542D01*
X41254D01*
Y255473D01*
D02*
G37*
G36*
X55985Y250742D02*
X52053D01*
Y246810D01*
X52788Y246907D01*
X53846Y247345D01*
X54754Y248042D01*
X55450Y248950D01*
X55888Y250007D01*
X55985Y250742D01*
D02*
G37*
G36*
X45985D02*
X42054D01*
Y246810D01*
X42788Y246907D01*
X43845Y247345D01*
X44754Y248042D01*
X45450Y248950D01*
X45888Y250007D01*
X45985Y250742D01*
D02*
G37*
G36*
X51253D02*
X47322D01*
X47419Y250007D01*
X47857Y248950D01*
X48554Y248042D01*
X49462Y247345D01*
X50519Y246907D01*
X51253Y246810D01*
Y250742D01*
D02*
G37*
G36*
X41254D02*
X37322D01*
X37419Y250007D01*
X37857Y248950D01*
X38554Y248042D01*
X39462Y247345D01*
X40519Y246907D01*
X41254Y246810D01*
Y250742D01*
D02*
G37*
G36*
X52053Y245473D02*
Y241542D01*
X55985D01*
X55888Y242276D01*
X55450Y243334D01*
X54754Y244242D01*
X53846Y244938D01*
X52788Y245376D01*
X52053Y245473D01*
D02*
G37*
G36*
X42054D02*
Y241542D01*
X45985D01*
X45888Y242276D01*
X45450Y243334D01*
X44754Y244242D01*
X43845Y244938D01*
X42788Y245376D01*
X42054Y245473D01*
D02*
G37*
G36*
X51253D02*
X50519Y245376D01*
X49462Y244938D01*
X48554Y244242D01*
X47857Y243334D01*
X47419Y242276D01*
X47322Y241542D01*
X51253D01*
Y245473D01*
D02*
G37*
G36*
X41254D02*
X40519Y245376D01*
X39462Y244938D01*
X38554Y244242D01*
X37857Y243334D01*
X37419Y242276D01*
X37322Y241542D01*
X41254D01*
Y245473D01*
D02*
G37*
G36*
X69200Y242516D02*
X68888Y242454D01*
X68623Y242277D01*
X68446Y242012D01*
X68384Y241700D01*
Y240120D01*
X66132D01*
Y237453D01*
X72069D01*
Y240120D01*
X70016D01*
Y241700D01*
X69954Y242012D01*
X69777Y242277D01*
X69512Y242454D01*
X69200Y242516D01*
D02*
G37*
G36*
X72069Y236653D02*
X66132D01*
Y233986D01*
X66244D01*
X66632Y233714D01*
X66632Y233486D01*
Y232167D01*
X66071D01*
X65800Y232572D01*
X65147Y233009D01*
X64376Y233162D01*
X63604Y233009D01*
X62951Y232572D01*
X62514Y231918D01*
X62361Y231147D01*
X62514Y230376D01*
X62951Y229722D01*
X63604Y229286D01*
X64376Y229132D01*
X65147Y229286D01*
X65800Y229722D01*
X66071Y230128D01*
X66632D01*
Y228580D01*
X67655D01*
Y226908D01*
X67397Y226522D01*
X67266Y225866D01*
Y220748D01*
X67397Y220092D01*
X67768Y219536D01*
X68324Y219164D01*
X68980Y219034D01*
X69636Y219164D01*
X70192Y219536D01*
X70564Y220092D01*
X70694Y220748D01*
Y225866D01*
X70564Y226522D01*
X70306Y226908D01*
Y228580D01*
X71569D01*
Y233486D01*
X71569Y233714D01*
X71956Y233986D01*
X72069D01*
Y236653D01*
D02*
G37*
G36*
X90310Y241615D02*
X89539Y241462D01*
X88885Y241025D01*
X88448Y240371D01*
X88295Y239600D01*
X88448Y238829D01*
X88885Y238175D01*
X89494Y237768D01*
Y236590D01*
X89494Y236590D01*
X89556Y236278D01*
X89733Y236013D01*
X97971Y227775D01*
X97923Y227182D01*
X97768Y227078D01*
X97397Y226522D01*
X97266Y225866D01*
Y220748D01*
X97397Y220092D01*
X97768Y219536D01*
X98324Y219164D01*
X98980Y219034D01*
X99636Y219164D01*
X100192Y219536D01*
X100564Y220092D01*
X100694Y220748D01*
Y225866D01*
X100564Y226522D01*
X100192Y227078D01*
X99796Y227343D01*
Y227920D01*
X99734Y228232D01*
X99557Y228497D01*
X99557Y228497D01*
X91126Y236928D01*
Y237768D01*
X91735Y238175D01*
X92172Y238829D01*
X92325Y239600D01*
X92172Y240371D01*
X91735Y241025D01*
X91081Y241462D01*
X90310Y241615D01*
D02*
G37*
G36*
X82570D02*
X81799Y241462D01*
X81145Y241025D01*
X80708Y240371D01*
X80555Y239600D01*
X80708Y238829D01*
X81145Y238175D01*
X81754Y237768D01*
Y234830D01*
X81754Y234830D01*
X81816Y234518D01*
X81993Y234253D01*
X84573Y231673D01*
X84838Y231496D01*
X85150Y231434D01*
X85150Y231434D01*
X90073D01*
X93165Y228343D01*
Y227343D01*
X92768Y227078D01*
X92397Y226522D01*
X92266Y225866D01*
Y220748D01*
X92397Y220092D01*
X92768Y219536D01*
X93324Y219164D01*
X93980Y219034D01*
X94636Y219164D01*
X95192Y219536D01*
X95564Y220092D01*
X95694Y220748D01*
Y225866D01*
X95564Y226522D01*
X95192Y227078D01*
X94796Y227343D01*
Y228680D01*
X94796Y228680D01*
X94734Y228993D01*
X94557Y229257D01*
X90987Y232827D01*
X90723Y233004D01*
X90411Y233066D01*
X90411Y233066D01*
X85488D01*
X83386Y235168D01*
Y237768D01*
X83995Y238175D01*
X84432Y238829D01*
X84585Y239600D01*
X84432Y240371D01*
X83995Y241025D01*
X83341Y241462D01*
X82570Y241615D01*
D02*
G37*
G36*
X147563Y227541D02*
X146907Y227410D01*
X146351Y227039D01*
X145979Y226483D01*
X145849Y225827D01*
Y220709D01*
X145979Y220053D01*
X146351Y219497D01*
X146907Y219125D01*
X147563Y218995D01*
X148219Y219125D01*
X148775Y219497D01*
X149147Y220053D01*
X149277Y220709D01*
Y225827D01*
X149147Y226483D01*
X148775Y227039D01*
X148219Y227410D01*
X147563Y227541D01*
D02*
G37*
G36*
X55866Y279989D02*
X55866Y279989D01*
X40984D01*
X40672Y279927D01*
X40407Y279750D01*
X40407Y279750D01*
X34463Y273805D01*
X34286Y273540D01*
X34224Y273228D01*
X34224Y273228D01*
Y263386D01*
X34224Y263386D01*
X34286Y263074D01*
X34463Y262809D01*
X36707Y260565D01*
X36707Y260565D01*
X36971Y260388D01*
X37284Y260326D01*
X37284Y260326D01*
X37881D01*
X37906Y260138D01*
X38294Y259202D01*
X38910Y258398D01*
X39714Y257782D01*
X40649Y257394D01*
X41653Y257262D01*
X42658Y257394D01*
X43593Y257782D01*
X44397Y258398D01*
X45013Y259202D01*
X45401Y260138D01*
X45533Y261142D01*
X45401Y262146D01*
X45013Y263082D01*
X44397Y263885D01*
X43593Y264502D01*
X42658Y264889D01*
X41653Y265021D01*
X40649Y264889D01*
X39714Y264502D01*
X38910Y263885D01*
X38294Y263082D01*
X37975Y262311D01*
X37539Y262166D01*
X37405Y262173D01*
X35855Y263724D01*
Y272890D01*
X41322Y278358D01*
X42954D01*
X43161Y277858D01*
X41549Y276246D01*
X41372Y275981D01*
X41310Y275669D01*
X41310Y275669D01*
Y274976D01*
X40649Y274889D01*
X39714Y274502D01*
X38910Y273885D01*
X38294Y273082D01*
X37906Y272146D01*
X37774Y271142D01*
X37906Y270138D01*
X38294Y269202D01*
X38910Y268398D01*
X39714Y267782D01*
X40649Y267394D01*
X41653Y267262D01*
X42658Y267394D01*
X43593Y267782D01*
X44397Y268398D01*
X45013Y269202D01*
X45401Y270138D01*
X45533Y271142D01*
X45401Y272146D01*
X45013Y273082D01*
X44397Y273885D01*
X43593Y274502D01*
X42942Y274771D01*
Y275331D01*
X44354Y276743D01*
X53953D01*
X57649Y273048D01*
Y268235D01*
X57649Y268235D01*
X57651Y268226D01*
X57190Y267979D01*
X55293Y269877D01*
X55401Y270138D01*
X55533Y271142D01*
X55401Y272146D01*
X55013Y273082D01*
X54397Y273885D01*
X53593Y274502D01*
X52658Y274889D01*
X51653Y275021D01*
X50649Y274889D01*
X49714Y274502D01*
X48910Y273885D01*
X48294Y273082D01*
X47906Y272146D01*
X47774Y271142D01*
X47906Y270138D01*
X48294Y269202D01*
X48910Y268398D01*
X49714Y267782D01*
X50649Y267394D01*
X51653Y267262D01*
X52658Y267394D01*
X53593Y267782D01*
X54397Y268398D01*
X54460Y268403D01*
X76139Y246723D01*
X76139Y246723D01*
X76404Y246546D01*
X76716Y246484D01*
X76716Y246484D01*
X110412D01*
X121747Y235149D01*
Y227304D01*
X121351Y227039D01*
X120979Y226483D01*
X120849Y225827D01*
Y220709D01*
X120979Y220053D01*
X121351Y219497D01*
X121907Y219125D01*
X122563Y218995D01*
X123219Y219125D01*
X123775Y219497D01*
X124147Y220053D01*
X124277Y220709D01*
Y225827D01*
X124147Y226483D01*
X123775Y227039D01*
X123379Y227304D01*
Y235487D01*
X123317Y235799D01*
X123140Y236064D01*
X123140Y236064D01*
X111327Y247877D01*
X111062Y248054D01*
X110750Y248116D01*
X110750Y248116D01*
X77054D01*
X76244Y248925D01*
X76490Y249386D01*
X76500Y249384D01*
X111812D01*
X126747Y234449D01*
Y227304D01*
X126351Y227039D01*
X125979Y226483D01*
X125849Y225827D01*
Y220709D01*
X125979Y220053D01*
X126351Y219497D01*
X126907Y219125D01*
X127563Y218995D01*
X128219Y219125D01*
X128775Y219497D01*
X129147Y220053D01*
X129277Y220709D01*
Y225827D01*
X129147Y226483D01*
X128775Y227039D01*
X128379Y227304D01*
Y234787D01*
X128317Y235099D01*
X128140Y235364D01*
X128140Y235364D01*
X112727Y250777D01*
X112462Y250954D01*
X112150Y251016D01*
X112150Y251016D01*
X76838D01*
X59280Y268573D01*
Y273386D01*
X59280Y273386D01*
X59218Y273698D01*
X59041Y273963D01*
X59041Y273963D01*
X55477Y277527D01*
X55642Y278069D01*
X55787Y278099D01*
X59814Y274072D01*
Y269220D01*
X59814Y269220D01*
X59876Y268908D01*
X60053Y268643D01*
X75973Y252723D01*
X75973Y252723D01*
X76238Y252546D01*
X76550Y252484D01*
X76550Y252484D01*
X113512D01*
X131747Y234249D01*
Y227304D01*
X131351Y227039D01*
X130979Y226483D01*
X130849Y225827D01*
Y220709D01*
X130979Y220053D01*
X131351Y219497D01*
X131907Y219125D01*
X132563Y218995D01*
X133219Y219125D01*
X133775Y219497D01*
X134147Y220053D01*
X134277Y220709D01*
Y225827D01*
X134147Y226483D01*
X133775Y227039D01*
X133379Y227304D01*
Y234587D01*
X133379Y234587D01*
X133317Y234899D01*
X133140Y235164D01*
X133140Y235164D01*
X114427Y253877D01*
X114162Y254054D01*
X113850Y254116D01*
X113850Y254116D01*
X76888D01*
X61446Y269558D01*
Y274410D01*
X61383Y274722D01*
X61207Y274986D01*
X61207Y274986D01*
X56443Y279750D01*
X56178Y279927D01*
X55866Y279989D01*
D02*
G37*
G36*
X51653Y265021D02*
X50649Y264889D01*
X49714Y264502D01*
X48910Y263885D01*
X48294Y263082D01*
X47906Y262146D01*
X47774Y261142D01*
X47906Y260138D01*
X48294Y259202D01*
X48910Y258398D01*
X49714Y257782D01*
X50649Y257394D01*
X51653Y257262D01*
X52658Y257394D01*
X53593Y257782D01*
X54397Y258398D01*
X55013Y259202D01*
X55401Y260138D01*
X55426Y260326D01*
X59320D01*
X75623Y244023D01*
X75623Y244023D01*
X75888Y243846D01*
X76200Y243784D01*
X108262D01*
X111549Y240497D01*
X111358Y240035D01*
X110022D01*
Y237368D01*
X112591D01*
Y238803D01*
X113052Y238994D01*
X116747Y235299D01*
Y227304D01*
X116351Y227039D01*
X115979Y226483D01*
X115849Y225827D01*
Y220709D01*
X115979Y220053D01*
X116351Y219497D01*
X116907Y219125D01*
X117563Y218995D01*
X118219Y219125D01*
X118775Y219497D01*
X119147Y220053D01*
X119277Y220709D01*
Y225827D01*
X119147Y226483D01*
X118775Y227039D01*
X118379Y227304D01*
Y235637D01*
X118379Y235637D01*
X118317Y235949D01*
X118140Y236214D01*
X118140Y236214D01*
X109177Y245177D01*
X108912Y245354D01*
X108600Y245416D01*
X108600Y245416D01*
X76538D01*
X60235Y261719D01*
X59970Y261895D01*
X59658Y261957D01*
X59658Y261957D01*
X55426D01*
X55401Y262146D01*
X55013Y263082D01*
X54397Y263885D01*
X53593Y264502D01*
X52658Y264889D01*
X51653Y265021D01*
D02*
G37*
G36*
X73980Y227580D02*
X73324Y227450D01*
X72768Y227078D01*
X72397Y226522D01*
X72266Y225866D01*
Y220748D01*
X72397Y220092D01*
X72768Y219536D01*
X73165Y219271D01*
Y218768D01*
X70462Y216066D01*
X64000D01*
X64000Y216066D01*
X63688Y216004D01*
X63423Y215827D01*
X46423Y198827D01*
X46246Y198562D01*
X46184Y198250D01*
X46184Y198250D01*
Y147338D01*
X40252Y141406D01*
X40225Y141427D01*
X39433Y141755D01*
X38583Y141867D01*
X37733Y141755D01*
X36941Y141427D01*
X36261Y140905D01*
X35739Y140225D01*
X35411Y139433D01*
X35299Y138583D01*
X35411Y137733D01*
X35739Y136941D01*
X36261Y136260D01*
X36941Y135739D01*
X37733Y135411D01*
X38583Y135299D01*
X39433Y135411D01*
X40225Y135739D01*
X40905Y136260D01*
X41427Y136941D01*
X41755Y137733D01*
X41867Y138583D01*
X41755Y139433D01*
X41427Y140225D01*
X41406Y140252D01*
X47577Y146423D01*
X47577Y146423D01*
X47754Y146688D01*
X47816Y147000D01*
X47816Y147000D01*
Y197912D01*
X64338Y214434D01*
X70800D01*
X70800Y214434D01*
X71112Y214496D01*
X71377Y214673D01*
X74557Y217853D01*
X74557Y217853D01*
X74734Y218118D01*
X74796Y218430D01*
Y219271D01*
X75192Y219536D01*
X75564Y220092D01*
X75694Y220748D01*
Y225866D01*
X75564Y226522D01*
X75192Y227078D01*
X74636Y227450D01*
X73980Y227580D01*
D02*
G37*
G36*
X98050Y241615D02*
X97279Y241462D01*
X96625Y241025D01*
X96188Y240371D01*
X96035Y239600D01*
X96188Y238829D01*
X96625Y238175D01*
X97234Y237768D01*
Y233650D01*
X97234Y233650D01*
X97296Y233338D01*
X97473Y233073D01*
X102828Y227719D01*
X102768Y227078D01*
X102397Y226522D01*
X102266Y225866D01*
Y220748D01*
X102397Y220092D01*
X102768Y219536D01*
X103324Y219164D01*
X103980Y219034D01*
X104636Y219164D01*
X105192Y219536D01*
X105564Y220092D01*
X105694Y220748D01*
Y225866D01*
X105564Y226522D01*
X105192Y227078D01*
X104796Y227343D01*
Y227720D01*
X104796Y227720D01*
X104734Y228032D01*
X104557Y228296D01*
X104152Y228701D01*
X104398Y229162D01*
X104974Y229048D01*
X105745Y229201D01*
X106398Y229638D01*
X106465Y229737D01*
X107153D01*
Y228496D01*
X110216D01*
X111238Y227475D01*
Y226869D01*
X110979Y226483D01*
X110849Y225827D01*
Y220709D01*
X110979Y220053D01*
X111238Y219667D01*
Y218759D01*
X111138Y218693D01*
X110701Y218039D01*
X110548Y217268D01*
X110701Y216496D01*
X111138Y215843D01*
X111792Y215406D01*
X112563Y215253D01*
X113334Y215406D01*
X113988Y215843D01*
X114425Y216496D01*
X114578Y217268D01*
X114425Y218039D01*
X113988Y218693D01*
X113889Y218759D01*
Y219667D01*
X114147Y220053D01*
X114277Y220709D01*
Y225827D01*
X114147Y226483D01*
X113889Y226869D01*
Y228024D01*
X113788Y228531D01*
X113500Y228961D01*
X112091Y230371D01*
Y233402D01*
X112091Y233630D01*
X112478Y233902D01*
X112591D01*
Y236568D01*
X109622D01*
Y236968D01*
X109222D01*
Y240035D01*
X106653D01*
Y238326D01*
X104900D01*
X104393Y238225D01*
X103963Y237937D01*
X103675Y237507D01*
X103575Y237000D01*
X103675Y236493D01*
X103963Y236063D01*
X104393Y235775D01*
X104900Y235675D01*
X106653D01*
Y233902D01*
X106766D01*
X107153Y233630D01*
X107153Y233402D01*
Y232388D01*
X106465D01*
X106398Y232488D01*
X105745Y232925D01*
X104974Y233078D01*
X104202Y232925D01*
X103549Y232488D01*
X103112Y231834D01*
X102959Y231063D01*
X103073Y230488D01*
X102612Y230241D01*
X98866Y233988D01*
Y237768D01*
X99475Y238175D01*
X99912Y238829D01*
X100065Y239600D01*
X99912Y240371D01*
X99475Y241025D01*
X98821Y241462D01*
X98050Y241615D01*
D02*
G37*
G36*
X78980Y227580D02*
X78324Y227450D01*
X77768Y227078D01*
X77397Y226522D01*
X77266Y225866D01*
Y220748D01*
X77397Y220092D01*
X77768Y219536D01*
X78165Y219271D01*
Y216318D01*
X75312Y213466D01*
X66500D01*
X66188Y213404D01*
X65923Y213227D01*
X65923Y213227D01*
X49523Y196827D01*
X49346Y196562D01*
X49284Y196250D01*
X49284Y196250D01*
Y142564D01*
X40252Y133532D01*
X40225Y133553D01*
X39433Y133881D01*
X38583Y133993D01*
X37733Y133881D01*
X36941Y133553D01*
X36261Y133031D01*
X35739Y132351D01*
X35411Y131559D01*
X35299Y130709D01*
X35411Y129859D01*
X35739Y129067D01*
X36261Y128386D01*
X36941Y127865D01*
X37733Y127537D01*
X38583Y127425D01*
X39433Y127537D01*
X40225Y127865D01*
X40905Y128386D01*
X41427Y129067D01*
X41755Y129859D01*
X41867Y130709D01*
X41755Y131559D01*
X41427Y132351D01*
X41406Y132378D01*
X50677Y141649D01*
X50854Y141914D01*
X50916Y142226D01*
X50916Y142226D01*
Y195912D01*
X66838Y211834D01*
X75650D01*
X75650Y211834D01*
X75962Y211896D01*
X76227Y212073D01*
X79557Y215404D01*
X79557Y215404D01*
X79734Y215668D01*
X79796Y215980D01*
Y219271D01*
X80192Y219536D01*
X80564Y220092D01*
X80694Y220748D01*
Y225866D01*
X80564Y226522D01*
X80192Y227078D01*
X79636Y227450D01*
X78980Y227580D01*
D02*
G37*
G36*
X83980D02*
X83324Y227450D01*
X82768Y227078D01*
X82397Y226522D01*
X82266Y225866D01*
Y220748D01*
X82397Y220092D01*
X82768Y219536D01*
X83165Y219271D01*
Y211718D01*
X81462Y210016D01*
X68150D01*
X67838Y209954D01*
X67573Y209777D01*
X67573Y209777D01*
X52523Y194727D01*
X52346Y194462D01*
X52284Y194150D01*
X52284Y194150D01*
Y137690D01*
X40252Y125658D01*
X40225Y125679D01*
X39433Y126007D01*
X38583Y126119D01*
X37733Y126007D01*
X36941Y125679D01*
X36261Y125157D01*
X35739Y124477D01*
X35411Y123685D01*
X35299Y122835D01*
X35411Y121985D01*
X35739Y121193D01*
X36261Y120512D01*
X36941Y119991D01*
X37733Y119663D01*
X38583Y119551D01*
X39433Y119663D01*
X40225Y119991D01*
X40905Y120512D01*
X41427Y121193D01*
X41755Y121985D01*
X41867Y122835D01*
X41755Y123685D01*
X41427Y124477D01*
X41406Y124504D01*
X53677Y136775D01*
X53854Y137040D01*
X53916Y137352D01*
X53916Y137352D01*
Y193812D01*
X68488Y208384D01*
X81800D01*
X81800Y208384D01*
X82112Y208446D01*
X82377Y208623D01*
X84557Y210804D01*
X84557Y210804D01*
X84734Y211068D01*
X84796Y211380D01*
X84796Y211380D01*
Y219271D01*
X85192Y219536D01*
X85564Y220092D01*
X85694Y220748D01*
Y225866D01*
X85564Y226522D01*
X85192Y227078D01*
X84636Y227450D01*
X83980Y227580D01*
D02*
G37*
G36*
X88980D02*
X88324Y227450D01*
X87768Y227078D01*
X87397Y226522D01*
X87266Y225866D01*
Y220748D01*
X87397Y220092D01*
X87768Y219536D01*
X88165Y219271D01*
Y211368D01*
X83962Y207166D01*
X70150D01*
X70150Y207166D01*
X69838Y207104D01*
X69573Y206927D01*
X55573Y192927D01*
X55396Y192662D01*
X55334Y192350D01*
X55334Y192350D01*
Y132866D01*
X40252Y117784D01*
X40225Y117805D01*
X39433Y118133D01*
X38583Y118245D01*
X37733Y118133D01*
X36941Y117805D01*
X36261Y117283D01*
X35739Y116603D01*
X35411Y115811D01*
X35299Y114961D01*
X35411Y114111D01*
X35739Y113319D01*
X36261Y112638D01*
X36941Y112117D01*
X37733Y111788D01*
X38583Y111677D01*
X39433Y111788D01*
X40225Y112117D01*
X40905Y112638D01*
X41427Y113319D01*
X41755Y114111D01*
X41867Y114961D01*
X41755Y115811D01*
X41427Y116603D01*
X41406Y116630D01*
X56727Y131951D01*
X56727Y131951D01*
X56904Y132216D01*
X56966Y132528D01*
Y192012D01*
X70488Y205534D01*
X84300D01*
X84300Y205534D01*
X84612Y205596D01*
X84877Y205773D01*
X89557Y210454D01*
X89557Y210454D01*
X89734Y210718D01*
X89796Y211030D01*
Y219271D01*
X90192Y219536D01*
X90564Y220092D01*
X90694Y220748D01*
Y225866D01*
X90564Y226522D01*
X90192Y227078D01*
X89636Y227450D01*
X88980Y227580D01*
D02*
G37*
G36*
X85150Y196166D02*
X85150Y196166D01*
X63600D01*
X63600Y196166D01*
X63288Y196104D01*
X63023Y195927D01*
X63023Y195927D01*
X58823Y191727D01*
X58646Y191462D01*
X58584Y191150D01*
X58584Y191150D01*
Y128438D01*
X40980Y110834D01*
X32445D01*
X31894Y111386D01*
X32011Y111976D01*
X32351Y112117D01*
X33031Y112638D01*
X33553Y113319D01*
X33881Y114111D01*
X33993Y114961D01*
X33881Y115811D01*
X33553Y116603D01*
X33031Y117283D01*
X32351Y117805D01*
X31559Y118133D01*
X30709Y118245D01*
X29859Y118133D01*
X29067Y117805D01*
X28387Y117283D01*
X27865Y116603D01*
X27537Y115811D01*
X27425Y114961D01*
X27537Y114111D01*
X27865Y113319D01*
X28387Y112638D01*
X29067Y112117D01*
X29859Y111788D01*
X29893Y111417D01*
X29955Y111105D01*
X30132Y110841D01*
X31531Y109442D01*
X31531Y109442D01*
X31795Y109265D01*
X32108Y109203D01*
X41318D01*
X41318Y109203D01*
X41631Y109265D01*
X41895Y109442D01*
X59977Y127523D01*
X59977Y127523D01*
X60154Y127788D01*
X60216Y128100D01*
Y190812D01*
X63938Y194534D01*
X84812D01*
X88165Y191182D01*
Y189941D01*
X87768Y189676D01*
X87397Y189120D01*
X87266Y188465D01*
Y183346D01*
X87397Y182691D01*
X87768Y182134D01*
X88324Y181763D01*
X88980Y181632D01*
X89636Y181763D01*
X90192Y182134D01*
X90564Y182691D01*
X90694Y183346D01*
Y188465D01*
X90564Y189120D01*
X90192Y189676D01*
X89796Y189941D01*
Y191520D01*
X89796Y191520D01*
X89734Y191832D01*
X89557Y192096D01*
X85727Y195927D01*
X85462Y196104D01*
X85150Y196166D01*
D02*
G37*
G36*
X82800Y192816D02*
X82800Y192816D01*
X64000D01*
X64000Y192816D01*
X63688Y192754D01*
X63423Y192577D01*
X63423Y192577D01*
X62223Y191377D01*
X62046Y191112D01*
X61984Y190800D01*
X61984Y190800D01*
Y125938D01*
X43812Y107766D01*
X29608D01*
X24831Y112543D01*
Y120135D01*
X26561Y121864D01*
X27586D01*
X27865Y121193D01*
X28387Y120512D01*
X29067Y119991D01*
X29859Y119663D01*
X30709Y119551D01*
X31559Y119663D01*
X32351Y119991D01*
X33031Y120512D01*
X33553Y121193D01*
X33881Y121985D01*
X33993Y122835D01*
X33881Y123685D01*
X33553Y124477D01*
X33031Y125157D01*
X32351Y125679D01*
X31559Y126007D01*
X30709Y126119D01*
X29859Y126007D01*
X29067Y125679D01*
X28387Y125157D01*
X27865Y124477D01*
X27537Y123685D01*
X27512Y123495D01*
X26223D01*
X26223Y123495D01*
X25911Y123433D01*
X25646Y123257D01*
X25646Y123257D01*
X23439Y121049D01*
X23262Y120785D01*
X23200Y120472D01*
X23200Y120472D01*
Y112205D01*
X23200Y112205D01*
X23262Y111893D01*
X23439Y111628D01*
X28694Y106373D01*
X28958Y106196D01*
X29270Y106134D01*
X29270Y106134D01*
X44150D01*
X44150Y106134D01*
X44462Y106196D01*
X44727Y106373D01*
X63377Y125023D01*
X63377Y125023D01*
X63554Y125288D01*
X63616Y125600D01*
Y190462D01*
X64338Y191184D01*
X82462D01*
X83165Y190482D01*
Y189941D01*
X82768Y189676D01*
X82397Y189120D01*
X82266Y188465D01*
Y183346D01*
X82397Y182691D01*
X82768Y182134D01*
X83324Y181763D01*
X83980Y181632D01*
X84636Y181763D01*
X85192Y182134D01*
X85564Y182691D01*
X85694Y183346D01*
Y188465D01*
X85564Y189120D01*
X85192Y189676D01*
X84796Y189941D01*
Y190820D01*
X84734Y191132D01*
X84557Y191396D01*
X84557Y191396D01*
X83377Y192577D01*
X83112Y192754D01*
X82800Y192816D01*
D02*
G37*
G36*
X98980Y193231D02*
X98473Y193130D01*
X98043Y192843D01*
X97756Y192413D01*
X97655Y191905D01*
Y190202D01*
X97408Y190037D01*
X96926Y189316D01*
X96757Y188465D01*
Y187231D01*
X96204D01*
Y188465D01*
X96035Y189316D01*
X95553Y190037D01*
X94831Y190519D01*
X94380Y190609D01*
Y185906D01*
X93980D01*
Y185505D01*
X91756D01*
Y183346D01*
X91926Y182495D01*
X92408Y181774D01*
X92869Y181466D01*
X92718Y180966D01*
X79796D01*
Y181870D01*
X80192Y182134D01*
X80564Y182691D01*
X80694Y183346D01*
Y188465D01*
X80564Y189120D01*
X80192Y189676D01*
X79636Y190048D01*
X78980Y190179D01*
X78324Y190048D01*
X77768Y189676D01*
X77397Y189120D01*
X77266Y188465D01*
Y183346D01*
X77397Y182691D01*
X77768Y182134D01*
X78165Y181870D01*
Y180501D01*
X78165Y180501D01*
X78227Y180189D01*
X78404Y179925D01*
X78755Y179573D01*
X78755Y179573D01*
X79020Y179396D01*
X79332Y179334D01*
X79332Y179334D01*
X100485D01*
X100752Y178834D01*
X100558Y178543D01*
X100434Y177922D01*
Y176435D01*
X97213D01*
X96901Y176373D01*
X96637Y176196D01*
X96460Y175931D01*
X96398Y175619D01*
X96460Y175307D01*
X96637Y175042D01*
X96901Y174865D01*
X97213Y174803D01*
X100434D01*
Y173395D01*
X100558Y172774D01*
X100909Y172248D01*
X101435Y171896D01*
X101656Y171852D01*
Y175658D01*
X102456D01*
Y171852D01*
X102676Y171896D01*
X103203Y172248D01*
X103380Y172513D01*
X103599Y172367D01*
X104024Y172283D01*
X104450Y172367D01*
X104669Y172513D01*
X104846Y172248D01*
X105372Y171896D01*
X105593Y171852D01*
Y175658D01*
Y179464D01*
X105372Y179420D01*
X105340Y179399D01*
X105157Y179437D01*
X104811Y179647D01*
X104778Y179815D01*
X104601Y180079D01*
X104601Y180079D01*
X104041Y180640D01*
X104105Y181000D01*
X104197Y181166D01*
X104831Y181292D01*
X105553Y181774D01*
X106035Y182495D01*
X106204Y183346D01*
Y185505D01*
X103980D01*
Y185906D01*
X103580D01*
Y190609D01*
X103129Y190519D01*
X102408Y190037D01*
X101926Y189316D01*
X101757Y188465D01*
Y187231D01*
X101204D01*
Y188465D01*
X101035Y189316D01*
X100553Y190037D01*
X100306Y190202D01*
Y191905D01*
X100205Y192413D01*
X99918Y192843D01*
X99488Y193130D01*
X98980Y193231D01*
D02*
G37*
G36*
X104380Y190609D02*
Y186305D01*
X106204D01*
Y188465D01*
X106035Y189316D01*
X105553Y190037D01*
X104831Y190519D01*
X104380Y190609D01*
D02*
G37*
G36*
X93580D02*
X93129Y190519D01*
X92408Y190037D01*
X91926Y189316D01*
X91756Y188465D01*
Y186305D01*
X93580D01*
Y190609D01*
D02*
G37*
G36*
X147963Y190569D02*
Y186266D01*
X149787D01*
Y188425D01*
X149618Y189276D01*
X149135Y189998D01*
X148414Y190480D01*
X147963Y190569D01*
D02*
G37*
G36*
X137163D02*
X136712Y190480D01*
X135991Y189998D01*
X135508Y189276D01*
X135339Y188425D01*
Y186266D01*
X137163D01*
Y190569D01*
D02*
G37*
G36*
X142963D02*
Y185866D01*
X142163D01*
Y190569D01*
X141712Y190480D01*
X140990Y189998D01*
X140508Y189276D01*
X140339Y188425D01*
Y187192D01*
X139787D01*
Y188425D01*
X139618Y189276D01*
X139136Y189998D01*
X138414Y190480D01*
X137963Y190569D01*
Y185866D01*
Y181163D01*
X138414Y181253D01*
X139136Y181735D01*
X139618Y182456D01*
X139787Y183307D01*
Y184541D01*
X140339D01*
Y183307D01*
X140508Y182456D01*
X140990Y181735D01*
X141237Y181570D01*
Y179366D01*
X141338Y178859D01*
X141626Y178429D01*
X142056Y178142D01*
X142563Y178041D01*
X143070Y178142D01*
X143500Y178429D01*
X143788Y178859D01*
X143888Y179366D01*
Y181570D01*
X144135Y181735D01*
X144618Y182456D01*
X144787Y183307D01*
Y184541D01*
X145339D01*
Y183307D01*
X145508Y182456D01*
X145991Y181735D01*
X146712Y181253D01*
X147163Y181163D01*
Y185866D01*
X147563D01*
D01*
X147163D01*
Y190569D01*
X146712Y190480D01*
X145991Y189998D01*
X145508Y189276D01*
X145339Y188425D01*
Y187192D01*
X144787D01*
Y188425D01*
X144618Y189276D01*
X144135Y189998D01*
X143414Y190480D01*
X142963Y190569D01*
D02*
G37*
G36*
X132563Y190139D02*
X131907Y190009D01*
X131351Y189637D01*
X130979Y189081D01*
X130849Y188425D01*
Y183307D01*
X130979Y182651D01*
X131351Y182095D01*
X131907Y181723D01*
X132563Y181593D01*
X133219Y181723D01*
X133775Y182095D01*
X134147Y182651D01*
X134277Y183307D01*
Y188425D01*
X134147Y189081D01*
X133775Y189637D01*
X133219Y190009D01*
X132563Y190139D01*
D02*
G37*
G36*
X127563D02*
X126907Y190009D01*
X126351Y189637D01*
X125979Y189081D01*
X125849Y188425D01*
Y183307D01*
X125979Y182651D01*
X126351Y182095D01*
X126907Y181723D01*
X127563Y181593D01*
X128219Y181723D01*
X128775Y182095D01*
X129147Y182651D01*
X129277Y183307D01*
Y188425D01*
X129147Y189081D01*
X128775Y189637D01*
X128219Y190009D01*
X127563Y190139D01*
D02*
G37*
G36*
X117563D02*
X116907Y190009D01*
X116351Y189637D01*
X115979Y189081D01*
X115849Y188425D01*
Y183307D01*
X115979Y182651D01*
X116351Y182095D01*
X116907Y181723D01*
X117563Y181593D01*
X118219Y181723D01*
X118775Y182095D01*
X119147Y182651D01*
X119277Y183307D01*
Y188425D01*
X119147Y189081D01*
X118775Y189637D01*
X118219Y190009D01*
X117563Y190139D01*
D02*
G37*
G36*
X112563D02*
X111907Y190009D01*
X111351Y189637D01*
X110979Y189081D01*
X110849Y188425D01*
Y183307D01*
X110979Y182651D01*
X111351Y182095D01*
X111907Y181723D01*
X112563Y181593D01*
X113219Y181723D01*
X113775Y182095D01*
X114147Y182651D01*
X114277Y183307D01*
Y188425D01*
X114147Y189081D01*
X113775Y189637D01*
X113219Y190009D01*
X112563Y190139D01*
D02*
G37*
G36*
X149787Y185466D02*
X147963D01*
Y181163D01*
X148414Y181253D01*
X149135Y181735D01*
X149618Y182456D01*
X149787Y183307D01*
Y185466D01*
D02*
G37*
G36*
X137163D02*
X135339D01*
Y183307D01*
X135508Y182456D01*
X135991Y181735D01*
X136712Y181253D01*
X137163Y181163D01*
Y185466D01*
D02*
G37*
G36*
X109530Y179464D02*
X109309Y179420D01*
X108946Y179177D01*
X108582Y179420D01*
X108361Y179464D01*
Y175658D01*
Y171852D01*
X108582Y171896D01*
X108946Y172139D01*
X109309Y171896D01*
X109530Y171852D01*
Y175658D01*
Y179464D01*
D02*
G37*
G36*
X107561D02*
X107341Y179420D01*
X106977Y179177D01*
X106614Y179420D01*
X106393Y179464D01*
Y175658D01*
Y171852D01*
X106614Y171896D01*
X106977Y172139D01*
X107341Y171896D01*
X107561Y171852D01*
Y175658D01*
Y179464D01*
D02*
G37*
G36*
X110330D02*
Y175658D01*
Y171852D01*
X110550Y171896D01*
X111077Y172248D01*
X111428Y172774D01*
X111552Y173395D01*
Y174639D01*
X114733D01*
X115123Y174716D01*
X115454Y174937D01*
X115675Y175268D01*
X115753Y175658D01*
X115675Y176048D01*
X115454Y176379D01*
X115123Y176600D01*
X114733Y176678D01*
X111552D01*
Y177922D01*
X111428Y178543D01*
X111077Y179069D01*
X110550Y179420D01*
X110330Y179464D01*
D02*
G37*
G36*
X122563Y190139D02*
X121907Y190009D01*
X121351Y189637D01*
X120979Y189081D01*
X120849Y188425D01*
Y183307D01*
X120979Y182651D01*
X121351Y182095D01*
X121747Y181830D01*
Y174001D01*
X115512Y167766D01*
X106576D01*
X106264Y167704D01*
X105999Y167527D01*
X105999Y167527D01*
X101479Y163007D01*
X101302Y162742D01*
X101240Y162430D01*
X101240Y162430D01*
Y161341D01*
X101029Y161025D01*
X100944Y160599D01*
Y156072D01*
X101029Y155646D01*
X101270Y155285D01*
X101630Y155044D01*
X102056Y154960D01*
X102481Y155044D01*
X102700Y155191D01*
X102878Y154925D01*
X103404Y154573D01*
X103624Y154530D01*
Y158335D01*
Y162151D01*
X103383Y162603D01*
X106914Y166134D01*
X115850D01*
X115850Y166134D01*
X116162Y166196D01*
X116427Y166373D01*
X123140Y173086D01*
X123140Y173086D01*
X123317Y173351D01*
X123379Y173663D01*
X123379Y173663D01*
Y181830D01*
X123775Y182095D01*
X124147Y182651D01*
X124277Y183307D01*
Y188425D01*
X124147Y189081D01*
X123775Y189637D01*
X123219Y190009D01*
X122563Y190139D01*
D02*
G37*
G36*
X97247Y154269D02*
X94580D01*
Y151700D01*
X97247D01*
Y154269D01*
D02*
G37*
G36*
X30309Y146057D02*
X26973D01*
X27049Y145476D01*
X27428Y144562D01*
X28030Y143778D01*
X28815Y143176D01*
X29728Y142798D01*
X30309Y142721D01*
Y146057D01*
D02*
G37*
G36*
X42318Y146057D02*
X38983D01*
Y142721D01*
X39563Y142798D01*
X40477Y143176D01*
X41261Y143778D01*
X41864Y144562D01*
X42242Y145476D01*
X42318Y146057D01*
D02*
G37*
G36*
X73980Y190179D02*
X73324Y190048D01*
X72768Y189676D01*
X72397Y189120D01*
X72266Y188465D01*
Y183346D01*
X72397Y182691D01*
X72768Y182134D01*
X73165Y181870D01*
Y125618D01*
X49512Y101966D01*
X28338D01*
X20416Y109888D01*
Y127136D01*
X29039Y135760D01*
X29067Y135739D01*
X29859Y135411D01*
X30709Y135299D01*
X31559Y135411D01*
X32351Y135739D01*
X33031Y136260D01*
X33553Y136941D01*
X33881Y137733D01*
X33993Y138583D01*
X33881Y139433D01*
X33553Y140225D01*
X33031Y140905D01*
X32351Y141427D01*
X31559Y141755D01*
X30709Y141867D01*
X29859Y141755D01*
X29067Y141427D01*
X28387Y140905D01*
X27865Y140225D01*
X27537Y139433D01*
X27425Y138583D01*
X27537Y137733D01*
X27865Y136941D01*
X27886Y136913D01*
X19023Y128051D01*
X18846Y127786D01*
X18784Y127474D01*
X18784Y127474D01*
Y109550D01*
X18784Y109550D01*
X18846Y109238D01*
X19023Y108973D01*
X27423Y100573D01*
X27423Y100573D01*
X27688Y100396D01*
X28000Y100334D01*
X49850D01*
X49850Y100334D01*
X50162Y100396D01*
X50427Y100573D01*
X74557Y124704D01*
X74557Y124704D01*
X74734Y124968D01*
X74796Y125280D01*
X74796Y125280D01*
Y181870D01*
X75192Y182134D01*
X75564Y182691D01*
X75694Y183346D01*
Y188465D01*
X75564Y189120D01*
X75192Y189676D01*
X74636Y190048D01*
X73980Y190179D01*
D02*
G37*
G36*
X90350Y139077D02*
Y134550D01*
X94877D01*
X94760Y135439D01*
X94262Y136640D01*
X93471Y137671D01*
X92440Y138462D01*
X91239Y138960D01*
X90350Y139077D01*
D02*
G37*
G36*
X89550D02*
X88661Y138960D01*
X87460Y138462D01*
X86429Y137671D01*
X85637Y136640D01*
X85140Y135439D01*
X85023Y134550D01*
X89550D01*
Y139077D01*
D02*
G37*
G36*
X94877Y133750D02*
X90350D01*
Y129223D01*
X91239Y129340D01*
X92440Y129838D01*
X93471Y130629D01*
X94262Y131660D01*
X94760Y132861D01*
X94877Y133750D01*
D02*
G37*
G36*
X89550D02*
X85023D01*
X85140Y132861D01*
X85637Y131660D01*
X86429Y130629D01*
X87460Y129838D01*
X88661Y129340D01*
X89550Y129223D01*
Y133750D01*
D02*
G37*
G36*
X68980Y190179D02*
X68324Y190048D01*
X67768Y189676D01*
X67397Y189120D01*
X67266Y188465D01*
Y183346D01*
X67397Y182691D01*
X67768Y182134D01*
X68165Y181870D01*
Y125268D01*
X47831Y104934D01*
X28769D01*
X22666Y111038D01*
Y121512D01*
X29039Y127886D01*
X29067Y127865D01*
X29859Y127537D01*
X30709Y127425D01*
X31559Y127537D01*
X32351Y127865D01*
X33031Y128386D01*
X33553Y129067D01*
X33881Y129859D01*
X33993Y130709D01*
X33881Y131559D01*
X33553Y132351D01*
X33031Y133031D01*
X32351Y133553D01*
X31559Y133881D01*
X30709Y133993D01*
X29859Y133881D01*
X29067Y133553D01*
X28387Y133031D01*
X27865Y132351D01*
X27537Y131559D01*
X27425Y130709D01*
X27537Y129859D01*
X27865Y129067D01*
X27886Y129039D01*
X21273Y122427D01*
X21096Y122162D01*
X21034Y121850D01*
X21034Y121850D01*
Y110700D01*
X21034Y110700D01*
X21096Y110388D01*
X21273Y110123D01*
X27855Y103542D01*
X28119Y103365D01*
X28431Y103303D01*
X28432Y103303D01*
X48169D01*
X48169Y103303D01*
X48481Y103365D01*
X48745Y103542D01*
X69557Y124354D01*
X69557Y124354D01*
X69734Y124618D01*
X69796Y124930D01*
X69796Y124930D01*
Y181870D01*
X70192Y182134D01*
X70564Y182691D01*
X70694Y183346D01*
Y188465D01*
X70564Y189120D01*
X70192Y189676D01*
X69636Y190048D01*
X68980Y190179D01*
D02*
G37*
G36*
X53589Y98424D02*
Y94691D01*
X57322D01*
X57232Y95375D01*
X56814Y96384D01*
X56148Y97251D01*
X55282Y97916D01*
X54272Y98334D01*
X53589Y98424D01*
D02*
G37*
G36*
X52789D02*
X52106Y98334D01*
X51096Y97916D01*
X50229Y97251D01*
X49564Y96384D01*
X49146Y95375D01*
X49056Y94691D01*
X52789D01*
Y98424D01*
D02*
G37*
G36*
X57322Y93891D02*
X53589D01*
Y90159D01*
X54272Y90249D01*
X55282Y90667D01*
X56148Y91332D01*
X56814Y92199D01*
X57232Y93208D01*
X57322Y93891D01*
D02*
G37*
G36*
X52789D02*
X49056D01*
X49146Y93208D01*
X49564Y92199D01*
X50229Y91332D01*
X51096Y90667D01*
X52106Y90249D01*
X52789Y90159D01*
Y93891D01*
D02*
G37*
G36*
X22047Y94523D02*
X20658Y94386D01*
X19322Y93980D01*
X18091Y93322D01*
X17012Y92437D01*
X16126Y91358D01*
X15468Y90127D01*
X15063Y88791D01*
X14926Y87402D01*
X15063Y86012D01*
X15468Y84676D01*
X16126Y83445D01*
X17012Y82366D01*
X18091Y81481D01*
X19322Y80823D01*
X20658Y80418D01*
X22047Y80281D01*
X23436Y80418D01*
X24772Y80823D01*
X26003Y81481D01*
X27082Y82366D01*
X27968Y83445D01*
X28626Y84676D01*
X29031Y86012D01*
X29168Y87402D01*
X29031Y88791D01*
X28626Y90127D01*
X27968Y91358D01*
X27082Y92437D01*
X26003Y93322D01*
X24772Y93980D01*
X23436Y94386D01*
X22047Y94523D01*
D02*
G37*
G36*
X53589Y61023D02*
Y57290D01*
X57322D01*
X57232Y57973D01*
X56814Y58982D01*
X56148Y59849D01*
X55282Y60514D01*
X54272Y60933D01*
X53589Y61023D01*
D02*
G37*
G36*
X52789D02*
X52106Y60933D01*
X51096Y60514D01*
X50230Y59849D01*
X49564Y58982D01*
X49146Y57973D01*
X49056Y57290D01*
X52789D01*
Y61023D01*
D02*
G37*
G36*
X57322Y56490D02*
X53589D01*
Y52757D01*
X54272Y52847D01*
X55282Y53265D01*
X56148Y53930D01*
X56814Y54797D01*
X57232Y55806D01*
X57322Y56490D01*
D02*
G37*
G36*
X52789D02*
X49056D01*
X49146Y55806D01*
X49564Y54797D01*
X50230Y53930D01*
X51096Y53265D01*
X52106Y52847D01*
X52789Y52757D01*
Y56490D01*
D02*
G37*
G36*
X22047Y57121D02*
X20658Y56984D01*
X19322Y56579D01*
X18091Y55921D01*
X17012Y55035D01*
X16126Y53956D01*
X15468Y52725D01*
X15063Y51389D01*
X14926Y50000D01*
X15063Y48611D01*
X15468Y47275D01*
X16126Y46044D01*
X17012Y44965D01*
X18091Y44079D01*
X19322Y43421D01*
X20658Y43016D01*
X22047Y42879D01*
X23437Y43016D01*
X24772Y43421D01*
X26003Y44079D01*
X27082Y44965D01*
X27968Y46044D01*
X28626Y47275D01*
X29031Y48611D01*
X29168Y50000D01*
X29031Y51389D01*
X28626Y52725D01*
X27968Y53956D01*
X27082Y55035D01*
X26003Y55921D01*
X24772Y56579D01*
X23437Y56984D01*
X22047Y57121D01*
D02*
G37*
G36*
X148038Y30931D02*
Y18116D01*
X160852D01*
X160720Y19789D01*
X160235Y21810D01*
X159440Y23730D01*
X158354Y25502D01*
X157004Y27083D01*
X155423Y28432D01*
X153651Y29518D01*
X151731Y30314D01*
X149710Y30799D01*
X148038Y30931D01*
D02*
G37*
G36*
X147238D02*
X145566Y30799D01*
X143545Y30314D01*
X141624Y29518D01*
X139852Y28432D01*
X138272Y27083D01*
X136922Y25502D01*
X135836Y23730D01*
X135040Y21810D01*
X134555Y19789D01*
X134424Y18116D01*
X147238D01*
Y30931D01*
D02*
G37*
G36*
X18116D02*
Y18116D01*
X30931D01*
X30799Y19789D01*
X30314Y21810D01*
X29518Y23730D01*
X28432Y25502D01*
X27083Y27083D01*
X25502Y28432D01*
X23730Y29518D01*
X21810Y30314D01*
X19789Y30799D01*
X18116Y30931D01*
D02*
G37*
G36*
X17316D02*
X15644Y30799D01*
X13623Y30314D01*
X11703Y29518D01*
X9931Y28432D01*
X8350Y27083D01*
X7001Y25502D01*
X5915Y23730D01*
X5119Y21810D01*
X4634Y19789D01*
X4502Y18116D01*
X17316D01*
Y30931D01*
D02*
G37*
G36*
X160852Y17316D02*
X148038D01*
Y4502D01*
X149710Y4634D01*
X151731Y5119D01*
X153651Y5915D01*
X155423Y7001D01*
X157004Y8350D01*
X158354Y9931D01*
X159440Y11703D01*
X160235Y13623D01*
X160720Y15644D01*
X160852Y17316D01*
D02*
G37*
G36*
X147238D02*
X134424D01*
X134555Y15644D01*
X135040Y13623D01*
X135836Y11703D01*
X136922Y9931D01*
X138272Y8350D01*
X139852Y7001D01*
X141624Y5915D01*
X143545Y5119D01*
X145566Y4634D01*
X147238Y4502D01*
Y17316D01*
D02*
G37*
G36*
X30931D02*
X18116D01*
Y4502D01*
X19789Y4634D01*
X21810Y5119D01*
X23730Y5915D01*
X25502Y7001D01*
X27083Y8350D01*
X28432Y9931D01*
X29518Y11703D01*
X30314Y13623D01*
X30799Y15644D01*
X30931Y17316D01*
D02*
G37*
G36*
X17316D02*
X4502D01*
X4634Y15644D01*
X5119Y13623D01*
X5915Y11703D01*
X7001Y9931D01*
X8350Y8350D01*
X9931Y7001D01*
X11703Y5915D01*
X13623Y5119D01*
X15644Y4634D01*
X17316Y4502D01*
Y17316D01*
D02*
G37*
%LPD*%
G36*
X80265Y402435D02*
X82800Y399900D01*
X82900D01*
Y391268D01*
X80397D01*
Y388300D01*
X79997D01*
Y387900D01*
X76930D01*
Y386275D01*
X72808Y381863D01*
Y375170D01*
X69658Y372020D01*
X64028Y372020D01*
X60050Y375998D01*
X60050Y386600D01*
X59591Y387059D01*
X40603Y387059D01*
X27532Y373989D01*
Y239386D01*
X29528Y236193D01*
X55091D01*
X57087Y234198D01*
Y216535D01*
X55118Y214567D01*
X45276D01*
X43280Y212598D01*
X43280Y175170D01*
X41693Y173583D01*
X23976Y173583D01*
X20656D01*
X17797Y170724D01*
X17335Y170915D01*
Y173583D01*
X17335Y375839D01*
X43931Y402435D01*
X76067Y402435D01*
X80265Y402435D01*
D02*
G37*
%LPC*%
G36*
X78077Y400867D02*
Y396935D01*
X82008D01*
X81912Y397670D01*
X81474Y398727D01*
X80777Y399635D01*
X79869Y400332D01*
X78812Y400770D01*
X78077Y400867D01*
D02*
G37*
G36*
X77277D02*
X76543Y400770D01*
X75485Y400332D01*
X74577Y399635D01*
X73881Y398727D01*
X73443Y397670D01*
X73346Y396935D01*
X77277D01*
Y400867D01*
D02*
G37*
G36*
Y396135D02*
X73346D01*
X73443Y395401D01*
X73881Y394343D01*
X74577Y393436D01*
X75485Y392739D01*
X76543Y392301D01*
X77277Y392204D01*
Y396135D01*
D02*
G37*
G36*
X82008D02*
X78077D01*
Y392204D01*
X78812Y392301D01*
X79869Y392739D01*
X80777Y393436D01*
X81474Y394343D01*
X81912Y395401D01*
X82008Y396135D01*
D02*
G37*
G36*
X79597Y391268D02*
X76930D01*
Y388700D01*
X79597D01*
Y391268D01*
D02*
G37*
G36*
X66300Y382880D02*
Y378353D01*
X70827D01*
X70710Y379242D01*
X70213Y380443D01*
X69421Y381474D01*
X68390Y382265D01*
X67189Y382763D01*
X66300Y382880D01*
D02*
G37*
G36*
X65500D02*
X64611Y382763D01*
X63410Y382265D01*
X62379Y381474D01*
X61588Y380443D01*
X61090Y379242D01*
X60973Y378353D01*
X65500D01*
Y382880D01*
D02*
G37*
G36*
X70827Y377553D02*
X66300D01*
Y373026D01*
X67189Y373143D01*
X68390Y373640D01*
X69421Y374432D01*
X70213Y375463D01*
X70710Y376664D01*
X70827Y377553D01*
D02*
G37*
G36*
X65500D02*
X60973D01*
X61090Y376664D01*
X61588Y375463D01*
X62379Y374432D01*
X63410Y373640D01*
X64611Y373143D01*
X65500Y373026D01*
Y377553D01*
D02*
G37*
G36*
X52053Y235473D02*
Y231542D01*
X55985D01*
X55888Y232276D01*
X55450Y233334D01*
X54754Y234242D01*
X53846Y234938D01*
X52788Y235376D01*
X52053Y235473D01*
D02*
G37*
G36*
X42054D02*
Y231542D01*
X45985D01*
X45888Y232276D01*
X45450Y233334D01*
X44754Y234242D01*
X43845Y234938D01*
X42788Y235376D01*
X42054Y235473D01*
D02*
G37*
G36*
X51253D02*
X50519Y235376D01*
X49462Y234938D01*
X48554Y234242D01*
X47857Y233334D01*
X47419Y232276D01*
X47322Y231542D01*
X51253D01*
Y235473D01*
D02*
G37*
G36*
X41254D02*
X40519Y235376D01*
X39462Y234938D01*
X38554Y234242D01*
X37857Y233334D01*
X37419Y232276D01*
X37322Y231542D01*
X41254D01*
Y235473D01*
D02*
G37*
G36*
X55985Y230742D02*
X52053D01*
Y226810D01*
X52788Y226907D01*
X53846Y227345D01*
X54754Y228042D01*
X55450Y228950D01*
X55888Y230007D01*
X55985Y230742D01*
D02*
G37*
G36*
X45985D02*
X42054D01*
Y226810D01*
X42788Y226907D01*
X43845Y227345D01*
X44754Y228042D01*
X45450Y228950D01*
X45888Y230007D01*
X45985Y230742D01*
D02*
G37*
G36*
X51253D02*
X47322D01*
X47419Y230007D01*
X47857Y228950D01*
X48554Y228042D01*
X49462Y227345D01*
X50519Y226907D01*
X51253Y226810D01*
Y230742D01*
D02*
G37*
G36*
X41254D02*
X37322D01*
X37419Y230007D01*
X37857Y228950D01*
X38554Y228042D01*
X39462Y227345D01*
X40519Y226907D01*
X41254Y226810D01*
Y230742D01*
D02*
G37*
G36*
X52053Y225473D02*
Y221542D01*
X55985D01*
X55888Y222276D01*
X55450Y223334D01*
X54754Y224242D01*
X53846Y224938D01*
X52788Y225376D01*
X52053Y225473D01*
D02*
G37*
G36*
X42054D02*
Y221542D01*
X45985D01*
X45888Y222276D01*
X45450Y223334D01*
X44754Y224242D01*
X43845Y224938D01*
X42788Y225376D01*
X42054Y225473D01*
D02*
G37*
G36*
X51253D02*
X50519Y225376D01*
X49462Y224938D01*
X48554Y224242D01*
X47857Y223334D01*
X47419Y222276D01*
X47322Y221542D01*
X51253D01*
Y225473D01*
D02*
G37*
G36*
X41254D02*
X40519Y225376D01*
X39462Y224938D01*
X38554Y224242D01*
X37857Y223334D01*
X37419Y222276D01*
X37322Y221542D01*
X41254D01*
Y225473D01*
D02*
G37*
G36*
X55985Y220742D02*
X52053D01*
Y216810D01*
X52788Y216907D01*
X53846Y217345D01*
X54754Y218042D01*
X55450Y218950D01*
X55888Y220007D01*
X55985Y220742D01*
D02*
G37*
G36*
X45985D02*
X42054D01*
Y216810D01*
X42788Y216907D01*
X43845Y217345D01*
X44754Y218042D01*
X45450Y218950D01*
X45888Y220007D01*
X45985Y220742D01*
D02*
G37*
G36*
X51253D02*
X47322D01*
X47419Y220007D01*
X47857Y218950D01*
X48554Y218042D01*
X49462Y217345D01*
X50519Y216907D01*
X51253Y216810D01*
Y220742D01*
D02*
G37*
G36*
X41254D02*
X37322D01*
X37419Y220007D01*
X37857Y218950D01*
X38554Y218042D01*
X39462Y217345D01*
X40519Y216907D01*
X41254Y216810D01*
Y220742D01*
D02*
G37*
G36*
X38983Y205310D02*
Y201975D01*
X42318D01*
X42242Y202555D01*
X41864Y203469D01*
X41261Y204254D01*
X40477Y204856D01*
X39563Y205234D01*
X38983Y205310D01*
D02*
G37*
G36*
X30309Y205311D02*
X29728Y205234D01*
X28815Y204856D01*
X28030Y204254D01*
X27428Y203469D01*
X27049Y202555D01*
X26973Y201975D01*
X30309D01*
Y205311D01*
D02*
G37*
G36*
X42318Y177553D02*
X38983D01*
Y174217D01*
X39563Y174293D01*
X40477Y174672D01*
X41261Y175274D01*
X41864Y176059D01*
X42242Y176972D01*
X42318Y177553D01*
D02*
G37*
G36*
X31109Y205311D02*
Y201575D01*
X30709D01*
Y201175D01*
X26973D01*
X27049Y200594D01*
X27428Y199681D01*
X28030Y198896D01*
X28815Y198294D01*
X29728Y197916D01*
X29923Y197890D01*
Y197386D01*
X29728Y197360D01*
X28815Y196982D01*
X28030Y196379D01*
X27428Y195595D01*
X27049Y194681D01*
X26973Y194101D01*
X30709D01*
Y193301D01*
X26973D01*
X27049Y192720D01*
X27428Y191807D01*
X28030Y191022D01*
X28815Y190420D01*
X29728Y190042D01*
X29923Y190016D01*
Y189512D01*
X29728Y189486D01*
X28815Y189108D01*
X28030Y188505D01*
X27428Y187721D01*
X27049Y186807D01*
X26973Y186227D01*
X30709D01*
Y185427D01*
X26973D01*
X27049Y184846D01*
X27428Y183933D01*
X28030Y183148D01*
X28815Y182546D01*
X29728Y182168D01*
X29923Y182142D01*
Y181638D01*
X29728Y181612D01*
X28815Y181234D01*
X28030Y180631D01*
X27428Y179847D01*
X27049Y178933D01*
X26973Y178353D01*
X30709D01*
Y177953D01*
X31109D01*
Y174217D01*
X31689Y174293D01*
X32603Y174672D01*
X33387Y175274D01*
X33989Y176059D01*
X34368Y176972D01*
X34394Y177167D01*
X34898D01*
X34923Y176972D01*
X35302Y176059D01*
X35904Y175274D01*
X36689Y174672D01*
X37602Y174293D01*
X38183Y174217D01*
Y177953D01*
X38583D01*
Y178353D01*
X42318D01*
X42242Y178933D01*
X41864Y179847D01*
X41261Y180631D01*
X40477Y181234D01*
X39563Y181612D01*
X39369Y181638D01*
Y182142D01*
X39563Y182167D01*
X40477Y182546D01*
X41261Y183148D01*
X41864Y183933D01*
X42242Y184846D01*
X42318Y185427D01*
X38583D01*
Y186227D01*
X42318D01*
X42242Y186807D01*
X41864Y187721D01*
X41261Y188505D01*
X40477Y189108D01*
X39563Y189486D01*
X39369Y189512D01*
Y190016D01*
X39563Y190042D01*
X40477Y190420D01*
X41261Y191022D01*
X41864Y191807D01*
X42242Y192720D01*
X42318Y193301D01*
X38583D01*
Y194101D01*
X42318D01*
X42242Y194681D01*
X41864Y195595D01*
X41261Y196379D01*
X40477Y196982D01*
X39563Y197360D01*
X39369Y197386D01*
Y197890D01*
X39563Y197916D01*
X40477Y198294D01*
X41261Y198896D01*
X41864Y199681D01*
X42242Y200594D01*
X42318Y201175D01*
X38583D01*
Y201575D01*
X38183D01*
Y205310D01*
X37602Y205234D01*
X36689Y204856D01*
X35904Y204254D01*
X35302Y203469D01*
X34923Y202555D01*
X34898Y202361D01*
X34394D01*
X34368Y202555D01*
X33989Y203469D01*
X33387Y204254D01*
X32603Y204856D01*
X31689Y205234D01*
X31109Y205311D01*
D02*
G37*
G36*
X30309Y177553D02*
X26973D01*
X27049Y176972D01*
X27428Y176059D01*
X28030Y175274D01*
X28815Y174672D01*
X29728Y174293D01*
X30309Y174217D01*
Y177553D01*
D02*
G37*
%LPD*%
D13*
X76900Y350200D02*
X81200D01*
X76900Y339963D02*
X81250D01*
X102618Y342539D02*
X107618D01*
X109930Y175658D02*
X114733D01*
X127298Y396602D02*
X134810D01*
X117715Y398424D02*
X125476D01*
X127298Y396602D01*
X64376Y231147D02*
X69100D01*
X105993Y175658D02*
X107961D01*
X109930D01*
D18*
X81279Y334173D02*
D03*
X87382D02*
D03*
X140952Y402394D02*
D03*
X134850D02*
D03*
X134810Y396602D02*
D03*
X140913D02*
D03*
X87382Y311142D02*
D03*
X81279D02*
D03*
Y322756D02*
D03*
X87382D02*
D03*
X81248Y361700D02*
D03*
X87350D02*
D03*
X81250Y339963D02*
D03*
X87352D02*
D03*
X87382Y316850D02*
D03*
X81279D02*
D03*
X87382Y328465D02*
D03*
X81279D02*
D03*
X87350Y355991D02*
D03*
X81248D02*
D03*
X81250Y350250D02*
D03*
X87352D02*
D03*
D19*
X125650Y319508D02*
D03*
Y322067D02*
D03*
Y327185D02*
D03*
Y329744D02*
D03*
X102618Y339980D02*
D03*
Y342539D02*
D03*
Y337421D02*
D03*
Y334862D02*
D03*
Y322067D02*
D03*
Y332303D02*
D03*
Y329744D02*
D03*
Y327185D02*
D03*
Y324626D02*
D03*
Y319508D02*
D03*
X125650Y342539D02*
D03*
Y339980D02*
D03*
Y337421D02*
D03*
Y334862D02*
D03*
Y332303D02*
D03*
Y324626D02*
D03*
D20*
X102618Y345492D02*
D03*
Y316555D02*
D03*
X125650Y345492D02*
D03*
Y316555D02*
D03*
D21*
X89950Y134150D02*
D03*
X79900Y377953D02*
D03*
X65900D02*
D03*
X121575Y267795D02*
D03*
X85433Y267795D02*
D03*
X94488Y267795D02*
D03*
X76378D02*
D03*
X103543Y267795D02*
D03*
X112598D02*
D03*
X130748Y267795D02*
D03*
X139764Y267795D02*
D03*
X148819D02*
D03*
X92520Y377953D02*
D03*
D22*
X109622Y231063D02*
D03*
Y236968D02*
D03*
X69100Y237053D02*
D03*
Y231147D02*
D03*
X119685Y351279D02*
D03*
Y357185D02*
D03*
D23*
X126770Y422637D02*
D03*
X117715D02*
D03*
X108660D02*
D03*
D24*
X117715Y398424D02*
D03*
D25*
X152625Y396602D02*
D03*
X146326D02*
D03*
X152665Y402591D02*
D03*
X146365D02*
D03*
D26*
X108699Y430426D02*
D03*
X114605D02*
D03*
X117754Y390649D02*
D03*
X123660D02*
D03*
X85903Y388300D02*
D03*
X79997D02*
D03*
X97647Y151300D02*
D03*
X103553D02*
D03*
D27*
X103980Y223307D02*
D03*
X98980D02*
D03*
X93980D02*
D03*
X88980D02*
D03*
X83980D02*
D03*
X78980D02*
D03*
X73980D02*
D03*
X68980D02*
D03*
X103980Y185906D02*
D03*
X98980D02*
D03*
X93980D02*
D03*
X88980D02*
D03*
X83980D02*
D03*
X78980D02*
D03*
X73980D02*
D03*
X68980D02*
D03*
X147563Y223268D02*
D03*
X142563D02*
D03*
X137563D02*
D03*
X132563D02*
D03*
X127563D02*
D03*
X122563D02*
D03*
X117563D02*
D03*
X112563D02*
D03*
X147563Y185866D02*
D03*
X142563D02*
D03*
X137563D02*
D03*
X132563D02*
D03*
X127563D02*
D03*
X122563D02*
D03*
X117563D02*
D03*
X112563D02*
D03*
D28*
X105512Y288386D02*
D03*
Y294488D02*
D03*
X113386Y288386D02*
D03*
Y294488D02*
D03*
X121260Y294350D02*
D03*
Y288248D02*
D03*
X129134Y294350D02*
D03*
Y288248D02*
D03*
X137008Y294350D02*
D03*
Y288248D02*
D03*
X144882D02*
D03*
Y294350D02*
D03*
X81890Y288386D02*
D03*
Y294488D02*
D03*
X89764Y288386D02*
D03*
Y294488D02*
D03*
X125591Y351181D02*
D03*
Y357283D02*
D03*
X97638Y288386D02*
D03*
Y294488D02*
D03*
D29*
X102056Y158335D02*
D03*
X104024D02*
D03*
X105993D02*
D03*
X107961D02*
D03*
X109930D02*
D03*
X102056Y175658D02*
D03*
X104024D02*
D03*
X105993D02*
D03*
X107961D02*
D03*
X109930D02*
D03*
D47*
X78980Y180501D02*
Y185906D01*
X103377Y180150D02*
X104024Y179503D01*
X78980Y180501D02*
X79332Y180150D01*
X103377D01*
X82570Y234830D02*
Y239600D01*
Y234830D02*
X85150Y232250D01*
X90411D02*
X93980Y228680D01*
X85150Y232250D02*
X90411D01*
X93980Y223307D02*
Y228680D01*
X90310Y236590D02*
Y239600D01*
X98980Y223307D02*
Y227920D01*
X90310Y236590D02*
X98980Y227920D01*
X98050Y233650D02*
Y239600D01*
X103980Y223307D02*
Y227720D01*
X98050Y233650D02*
X103980Y227720D01*
X98050Y259100D02*
X98100Y259150D01*
Y264183D01*
X94488Y267795D02*
X98100Y264183D01*
X85827Y267795D02*
Y293307D01*
X90250Y259160D02*
X90310Y259100D01*
X90250Y259160D02*
Y262550D01*
X85433Y267367D02*
Y267795D01*
Y267367D02*
X90250Y262550D01*
X76378Y267795D02*
Y292913D01*
Y267795D02*
X82600Y261573D01*
X82570Y259100D02*
X82600Y259130D01*
Y261573D01*
X112150Y250200D02*
X127563Y234787D01*
X60630Y269220D02*
X76550Y253300D01*
X52874Y271142D02*
X76716Y247300D01*
X59658Y261142D02*
X76200Y244600D01*
X108600D02*
X117563Y235637D01*
X76716Y247300D02*
X110750D01*
X122563Y223268D02*
Y235487D01*
X58465Y268235D02*
X76500Y250200D01*
X76200Y244600D02*
X108600D01*
X117563Y223268D02*
Y235637D01*
X113850Y253300D02*
X132563Y234587D01*
X76500Y250200D02*
X112150D01*
X76550Y253300D02*
X113850D01*
X110750Y247300D02*
X122563Y235487D01*
X94500Y267807D02*
Y275550D01*
X94488Y267795D02*
X94500Y267807D01*
X93701Y276349D02*
X94500Y275550D01*
X108660Y430387D02*
X108699Y430426D01*
X81200Y350200D02*
X81250Y350250D01*
X102362Y345748D02*
X102618Y345492D01*
X59659Y342559D02*
X61200Y344100D01*
X85750D01*
X87352Y342498D01*
Y339963D02*
Y342498D01*
X50748Y342559D02*
X59659D01*
X50748Y352559D02*
X55141D01*
X61550Y346150D02*
X85850D01*
X55141Y352559D02*
X61550Y346150D01*
X50748Y362559D02*
X56191D01*
X62759Y355991D02*
X81248D01*
X56191Y362559D02*
X62759Y355991D01*
X50748Y372559D02*
X51291D01*
X62150Y361700D02*
X81248D01*
X51291Y372559D02*
X62150Y361700D01*
X87350D02*
X91250D01*
X97000Y341600D02*
Y355950D01*
X91250Y361700D02*
X97000Y355950D01*
X87350Y355991D02*
X91209D01*
X94600Y352600D01*
X87352Y350250D02*
X90900D01*
X91950Y349200D01*
X87352Y347652D02*
Y350250D01*
X85850Y346150D02*
X87352Y347652D01*
X97000Y341600D02*
X98620Y339980D01*
X102618D01*
X94600Y341550D02*
Y352600D01*
Y341550D02*
X98729Y337421D01*
X90068Y339963D02*
X97727Y332303D01*
X87382Y334173D02*
X91811D01*
X96240Y329744D01*
X87352Y339963D02*
X90068D01*
X91950Y341250D02*
Y349200D01*
X97727Y332303D02*
X102618D01*
X96240Y329744D02*
X102618D01*
X91950Y341250D02*
X98338Y334862D01*
X102618D01*
X98729Y337421D02*
X102618D01*
X92956Y328346D02*
X94117Y327185D01*
X102618D01*
X90669Y311142D02*
X99035Y319508D01*
X102618D01*
X87382Y311142D02*
X90669D01*
X139585Y158335D02*
X155500Y174250D01*
Y232100D01*
X127165Y260435D02*
X155500Y232100D01*
X115850Y166950D02*
X122563Y173663D01*
Y185866D01*
X106576Y166950D02*
X115850D01*
X102056Y162430D02*
X106576Y166950D01*
X85150Y195350D02*
X88980Y191520D01*
X63600Y195350D02*
X85150D01*
X88980Y185906D02*
Y191520D01*
X59400Y191150D02*
X63600Y195350D01*
X59400Y128100D02*
Y191150D01*
X70150Y206350D02*
X84300D01*
X56150Y132528D02*
Y192350D01*
X70150Y206350D01*
X50100Y142226D02*
Y196250D01*
X66500Y212650D02*
X75650D01*
X50100Y196250D02*
X66500Y212650D01*
X47000Y198250D02*
X64000Y215250D01*
X47000Y147000D02*
Y198250D01*
X64000Y215250D02*
X70800D01*
X53100Y137352D02*
Y194150D01*
X68150Y209200D02*
X81800D01*
X53100Y194150D02*
X68150Y209200D01*
X38583Y122835D02*
X53100Y137352D01*
X62800Y190800D02*
X64000Y192000D01*
X62800Y125600D02*
Y190800D01*
X41318Y110018D02*
X59400Y128100D01*
X38583Y138583D02*
X47000Y147000D01*
X38583Y114961D02*
X56150Y132528D01*
X44150Y106950D02*
X62800Y125600D01*
X38583Y130709D02*
X50100Y142226D01*
X29270Y106950D02*
X44150D01*
X32108Y110018D02*
X41318D01*
X24016Y112205D02*
X29270Y106950D01*
X19600Y109550D02*
X28000Y101150D01*
X49850D02*
X73980Y125280D01*
X28000Y101150D02*
X49850D01*
X125197Y280503D02*
X130748Y274952D01*
X125197Y280503D02*
Y293999D01*
X130748Y267874D02*
Y274952D01*
X120866Y275590D02*
X120866D01*
X117323Y279134D02*
Y293307D01*
Y279134D02*
X120866Y275590D01*
X120866D02*
X121575Y274882D01*
X21850Y110700D02*
X28431Y104119D01*
X21850Y110700D02*
Y121850D01*
X30709Y130709D01*
X19600Y127474D02*
X30709Y138583D01*
X19600Y109550D02*
Y127474D01*
X28431Y104119D02*
X48169D01*
X68980Y124930D01*
Y185906D01*
X73980Y125280D02*
Y185906D01*
X105993Y153642D02*
Y158335D01*
X103651Y151300D02*
X105993Y153642D01*
X103553Y151300D02*
X103850Y151003D01*
X73980Y218430D02*
Y223307D01*
X70800Y215250D02*
X73980Y218430D01*
X78980Y215980D02*
Y223307D01*
X75650Y212650D02*
X78980Y215980D01*
X83980Y211380D02*
Y223307D01*
X81800Y209200D02*
X83980Y211380D01*
X88980Y211030D02*
Y223307D01*
X84300Y206350D02*
X88980Y211030D01*
X69200Y237153D02*
Y241700D01*
X69100Y237053D02*
X69200Y237153D01*
X68980Y231028D02*
X69100Y231147D01*
X82800Y192000D02*
X83980Y190820D01*
X64000Y192000D02*
X82800D01*
X83980Y185906D02*
Y190820D01*
X109524Y231063D02*
X109622Y230965D01*
X51653Y261142D02*
X59658D01*
X58465Y268235D02*
Y273386D01*
X60630Y269220D02*
Y274410D01*
X109591Y237000D02*
X109622Y236968D01*
X127563Y223268D02*
Y234787D01*
X132563Y223268D02*
Y234587D01*
X137563Y223268D02*
Y233776D01*
X103543Y267795D02*
X137563Y233776D01*
X142563Y223268D02*
Y236837D01*
X112598Y266802D02*
X142563Y236837D01*
X112598Y266802D02*
Y275197D01*
X139231Y162981D02*
X153119Y176869D01*
X125197Y258309D02*
X153119Y230386D01*
Y176869D02*
Y230386D01*
X109381Y162981D02*
X139231D01*
X109930Y158335D02*
X139585D01*
X161700Y150283D02*
Y236725D01*
X74410Y62992D02*
X161700Y150283D01*
X159456Y151346D02*
Y235820D01*
X65000Y56890D02*
X159456Y151346D01*
X143307Y251969D02*
X159456Y235820D01*
X145276Y253150D02*
X161700Y236725D01*
X104024Y175658D02*
Y179503D01*
X65000Y94291D02*
X86891D01*
X108000Y115400D02*
Y158297D01*
X86891Y94291D02*
X108000Y115400D01*
X130709Y267835D02*
X130748Y267874D01*
X130709Y267756D02*
Y267835D01*
X107961Y158335D02*
Y161561D01*
X109381Y162981D01*
X65000Y80512D02*
X77712D01*
X109930Y112730D02*
Y158335D01*
X77712Y80512D02*
X109930Y112730D01*
X74410Y51181D02*
Y62992D01*
X107961Y158335D02*
X108000Y158297D01*
X103543Y267657D02*
Y267795D01*
Y267657D02*
Y276378D01*
X125197Y258309D02*
Y264173D01*
X127165Y260435D02*
Y264213D01*
X146168Y402394D02*
X146365Y402591D01*
X59055Y295276D02*
X74803Y311024D01*
X81161D01*
X71575Y316850D02*
X81279D01*
X57750Y303026D02*
X71575Y316850D01*
X51215Y303026D02*
X57750D01*
X70079Y322835D02*
X81201D01*
X59449Y312205D02*
X70079Y322835D01*
X51102Y312205D02*
X59449D01*
X66654Y328465D02*
X81279D01*
X60630Y322441D02*
X66654Y328465D01*
X50866Y322441D02*
X60630D01*
X62913Y334173D02*
X81279D01*
X61417Y332677D02*
X62913Y334173D01*
X50866Y332677D02*
X61417D01*
X77953Y294488D02*
X81890D01*
X76378Y292913D02*
X77953Y294488D01*
X81890Y300394D02*
X83071Y301575D01*
X81161Y311024D02*
X81279Y311142D01*
X81201Y322835D02*
X81279Y322756D01*
X81279Y328465D02*
X81279Y328465D01*
X89764Y294488D02*
Y298819D01*
X87008Y294488D02*
X89764D01*
X85827Y293307D02*
X87008Y294488D01*
X87382Y328465D02*
X87500Y328346D01*
X93701Y292913D02*
X95276Y294488D01*
X97638D01*
X93228Y316850D02*
X98445Y322067D01*
X101575Y278346D02*
X103543Y276378D01*
X102362Y294488D02*
X105512D01*
X101575Y293701D02*
X102362Y294488D01*
X105512Y302756D02*
X107480Y304724D01*
X109800Y294488D02*
X113386D01*
X109449Y294137D02*
X109800Y294488D01*
X109843Y309449D02*
X114961Y314567D01*
X121260Y294350D02*
X121260Y294350D01*
Y299606D01*
X118366Y294350D02*
X121260D01*
X117323Y293307D02*
X118366Y294350D01*
X119685Y320866D02*
X120886Y322067D01*
X119685Y351279D02*
X119783Y351181D01*
X125548Y294350D02*
X129134D01*
X125197Y293999D02*
X125548Y294350D01*
X129134D02*
X129134Y294351D01*
X130099Y319508D02*
X131102Y318504D01*
X125650Y319508D02*
X130099D01*
X125591Y351181D02*
X125650Y351122D01*
X137008Y294350D02*
Y297638D01*
X145233Y253150D02*
X145276D01*
X144882Y294350D02*
Y297244D01*
X81890Y294488D02*
Y300394D01*
X97638Y294488D02*
Y302756D01*
X94016Y322756D02*
X95886Y324626D01*
X105512Y294488D02*
Y302756D01*
X109449Y278346D02*
X112598Y275197D01*
X113386Y294488D02*
Y300394D01*
X121575Y267795D02*
Y274882D01*
X121260Y299606D02*
X122441Y300787D01*
X117323Y322835D02*
X119114Y324626D01*
X127165Y264213D02*
X130709Y267756D01*
X125197Y303150D02*
X131102Y309055D01*
Y318504D01*
X129134Y294351D02*
Y300000D01*
X132854Y334862D02*
X135827Y331890D01*
X141732Y300394D02*
X144882Y297244D01*
X148819Y267717D02*
Y267795D01*
X93701Y276349D02*
Y292913D01*
X101575Y278346D02*
Y293701D01*
X109449Y278346D02*
Y294137D01*
X112598Y316142D02*
Y326378D01*
X114961Y314567D02*
Y324409D01*
X117323Y312598D02*
Y322835D01*
X119685Y310630D02*
Y320866D01*
X135827Y306693D02*
Y331890D01*
X133465Y307480D02*
Y330709D01*
X140945Y279528D02*
Y293307D01*
X143307Y251969D02*
Y264252D01*
X145233Y253150D02*
Y264131D01*
X148819Y267795D02*
Y293307D01*
X141732Y300394D02*
Y333858D01*
X83071Y301575D02*
X88583D01*
X87382Y316850D02*
X93228D01*
X87382Y322756D02*
X94016D01*
X87500Y328346D02*
X92956D01*
X97638Y302756D02*
X101969Y307087D01*
X111811D01*
X113386Y300394D02*
X116142Y303150D01*
X125197D01*
X122441Y300787D02*
X126772D01*
X107480Y304724D02*
X113779D01*
X98819Y311811D02*
X108268D01*
X100394Y309449D02*
X109843D01*
X98445Y322067D02*
X102618D01*
X120886D02*
X125650D01*
X114961Y324409D02*
X117736Y327185D01*
X112598Y326378D02*
X115965Y329744D01*
X125650D01*
X119114Y324626D02*
X125650D01*
X117736Y327185D02*
X125650D01*
X139764Y278346D02*
X140945Y279528D01*
X144882Y294350D02*
X147776D01*
X148819Y293307D01*
X137008Y294350D02*
X139901D01*
X140945Y293307D01*
X135020Y337421D02*
X139764Y332677D01*
X121575Y267795D02*
X125197Y264173D01*
X108268Y311811D02*
X112598Y316142D01*
X111811Y307087D02*
X117323Y312598D01*
X113779Y304724D02*
X119685Y310630D01*
X145233Y264131D02*
X148819Y267717D01*
X139764Y267795D02*
X143307Y264252D01*
X139764Y267795D02*
X139764Y267795D01*
X139764Y267795D02*
Y278346D01*
X137008Y297638D02*
X139764Y300394D01*
X129134Y300000D02*
X135827Y306693D01*
X135610Y339980D02*
X141732Y333858D01*
X131870Y332303D02*
X133465Y330709D01*
X139764Y300394D02*
Y332677D01*
X126772Y300787D02*
X133465Y307480D01*
X95886Y324626D02*
X102618D01*
X125650Y337421D02*
X135020D01*
X125650Y334862D02*
X132854D01*
X125650Y332303D02*
X131870D01*
X88583Y301575D02*
X98819Y311811D01*
X89764Y298819D02*
X100394Y309449D01*
X125650Y339980D02*
X135610D01*
X51653Y231142D02*
X51693Y231102D01*
X97213Y175619D02*
X102016D01*
X102056Y175658D01*
Y158335D02*
Y162430D01*
X35039Y273228D02*
X40984Y279173D01*
X55866D02*
X60630Y274410D01*
X40984Y279173D02*
X55866D01*
X42126Y271614D02*
Y275669D01*
X44016Y277559D02*
X54291D01*
X42126Y275669D02*
X44016Y277559D01*
X54291D02*
X58465Y273386D01*
X66339Y43110D02*
X74410Y51181D01*
X35039Y263386D02*
Y273228D01*
X57996Y294199D02*
Y294216D01*
X51496Y293307D02*
X57104D01*
X57996Y294199D01*
Y294216D02*
X59055Y295276D01*
Y295276D01*
X50748Y292559D02*
X51496Y293307D01*
X50748Y312559D02*
X51102Y312205D01*
X50748Y322559D02*
X50866Y322441D01*
X50748Y332559D02*
X50866Y332677D01*
X65000Y43110D02*
X66339D01*
X51653Y271142D02*
X52874D01*
X51653Y261142D02*
X51653Y261142D01*
X50748Y302559D02*
X51215Y303026D01*
X37284Y261142D02*
X41653D01*
X35039Y263386D02*
X37284Y261142D01*
X30709Y111417D02*
X32108Y110018D01*
X30709Y111417D02*
Y114961D01*
X24016Y112205D02*
Y120472D01*
X26223Y122680D02*
X30554D01*
X24016Y120472D02*
X26223Y122680D01*
X30554D02*
X30709Y122835D01*
X41653Y271142D02*
X42126Y271614D01*
D48*
X104974Y231063D02*
X109524D01*
X125650Y342539D02*
Y345492D01*
X102362Y345748D02*
Y350000D01*
X107618Y342539D02*
Y355832D01*
X117715Y379815D02*
Y390688D01*
X92520Y370930D02*
X107618Y355832D01*
X92520Y370930D02*
Y377953D01*
X112563Y217268D02*
Y223268D01*
X103850Y146100D02*
Y151003D01*
X97647Y146300D02*
Y151300D01*
X68980Y223307D02*
Y231028D01*
X98980Y185906D02*
Y191905D01*
Y185906D02*
X103980D01*
X93980D02*
X98980D01*
X142563Y179366D02*
Y185866D01*
X147563D01*
X137563D02*
X142563D01*
X104900Y237000D02*
X109591D01*
X109622Y230965D02*
X112563Y228024D01*
Y223268D02*
Y228024D01*
X134850Y402394D02*
Y406894D01*
X125591Y357283D02*
X130091D01*
X108660Y416637D02*
Y422637D01*
X115853Y377953D02*
X117715Y379815D01*
X92520Y377953D02*
X115853D01*
X126770Y422637D02*
X133770D01*
X152822Y402433D02*
X157153D01*
X152783Y396445D02*
X156759D01*
X152665Y402591D02*
X152822Y402433D01*
X152625Y396602D02*
X152783Y396445D01*
X140913Y396602D02*
X146326D01*
X123660Y390649D02*
X123699Y390610D01*
X128463D01*
X114605Y430426D02*
X114683Y430348D01*
X119447D01*
X86021Y388418D02*
X90745D01*
X85903Y388300D02*
X86021Y388418D01*
X81890Y288386D02*
X81890Y288386D01*
X97638D02*
X97638Y288386D01*
X105512Y288386D02*
X105512Y288386D01*
X113386Y288386D02*
X113386Y288386D01*
X121260Y288248D02*
X121260Y288248D01*
X119587Y357087D02*
X119685Y357185D01*
X129134Y288248D02*
X129134Y288248D01*
X137008Y288248D02*
X137008Y288248D01*
X144882Y288248D02*
X144882Y288248D01*
X125650Y345492D02*
Y351122D01*
X81890Y283858D02*
Y288386D01*
X89764Y283858D02*
Y288386D01*
X97638Y283858D02*
Y288386D01*
X105512Y283858D02*
Y288386D01*
X113386Y283858D02*
Y288386D01*
X121260Y283858D02*
Y288248D01*
X129134Y283858D02*
Y288248D01*
X137008Y283858D02*
Y288248D01*
X144882Y283858D02*
Y288248D01*
X119783Y351181D02*
X125591D01*
X114961Y357087D02*
X119587D01*
D49*
X108660Y422637D02*
Y430387D01*
X77677Y411277D02*
X89037Y422637D01*
X77677Y396535D02*
Y411277D01*
X89037Y422637D02*
X108660D01*
D50*
X117715Y398424D02*
Y422637D01*
Y390688D02*
Y398424D01*
X53110Y80512D02*
X53150Y80472D01*
X42402Y80512D02*
X53110D01*
X12835Y110079D02*
Y146142D01*
Y110079D02*
X42402Y80512D01*
X12835Y146142D02*
X18425Y151732D01*
Y173447D01*
X44094Y63386D02*
X53150Y72441D01*
X44094Y45669D02*
Y63386D01*
X46654Y43110D02*
X53189D01*
X44094Y45669D02*
X46654Y43110D01*
X53150Y72441D02*
Y80472D01*
D51*
X140952Y402394D02*
X146168D01*
D52*
X65000Y94291D02*
D03*
Y80512D02*
D03*
X53189D02*
D03*
Y94291D02*
D03*
X53189Y56890D02*
D03*
Y43110D02*
D03*
X65000D02*
D03*
Y56890D02*
D03*
D53*
X22047Y87402D02*
D03*
X22047Y50000D02*
D03*
D54*
X50748Y292559D02*
D03*
Y302559D02*
D03*
Y312559D02*
D03*
Y322559D02*
D03*
Y332559D02*
D03*
Y342559D02*
D03*
Y352559D02*
D03*
Y362559D02*
D03*
Y372559D02*
D03*
X87677Y396535D02*
D03*
X77677D02*
D03*
X41653Y271142D02*
D03*
Y261142D02*
D03*
Y251142D02*
D03*
Y241142D02*
D03*
Y231142D02*
D03*
X51653Y261142D02*
D03*
Y221142D02*
D03*
Y231142D02*
D03*
Y241142D02*
D03*
Y251142D02*
D03*
Y271142D02*
D03*
X41653Y221142D02*
D03*
D55*
X38583Y114961D02*
D03*
Y122835D02*
D03*
Y130709D02*
D03*
Y138583D02*
D03*
Y146457D02*
D03*
Y154331D02*
D03*
Y162205D02*
D03*
Y170079D02*
D03*
Y177953D02*
D03*
Y185827D02*
D03*
Y193701D02*
D03*
Y201575D02*
D03*
X30709Y201575D02*
D03*
Y193701D02*
D03*
Y185827D02*
D03*
Y177953D02*
D03*
Y170079D02*
D03*
Y162205D02*
D03*
Y154331D02*
D03*
Y146457D02*
D03*
Y138583D02*
D03*
Y130709D02*
D03*
Y114961D02*
D03*
Y122835D02*
D03*
D56*
X17717Y431102D02*
D03*
X147638D02*
D03*
Y17717D02*
D03*
X17717D02*
D03*
D57*
X136221Y411811D02*
D03*
X146063Y392126D02*
D03*
Y352756D02*
D03*
Y313386D02*
D03*
X136221Y214961D02*
D03*
X146063Y195276D02*
D03*
X136221Y175591D02*
D03*
X146063Y155905D02*
D03*
X136221Y136221D02*
D03*
X146063Y116535D02*
D03*
X136221Y96850D02*
D03*
X146063Y77165D02*
D03*
X136221Y57480D02*
D03*
X146063Y37795D02*
D03*
X126378Y431496D02*
D03*
X116535Y372441D02*
D03*
Y333071D02*
D03*
Y214961D02*
D03*
Y136221D02*
D03*
Y96850D02*
D03*
X126378Y77165D02*
D03*
X116535Y57480D02*
D03*
X126378Y37795D02*
D03*
X116535Y18110D02*
D03*
X96850Y411811D02*
D03*
X106693Y392126D02*
D03*
X96850Y372441D02*
D03*
Y214961D02*
D03*
X106693Y195276D02*
D03*
Y77165D02*
D03*
X96850Y57480D02*
D03*
X106693Y37795D02*
D03*
X96850Y18110D02*
D03*
X87008Y431496D02*
D03*
X77165Y175591D02*
D03*
X87008Y155905D02*
D03*
X77165Y136221D02*
D03*
X87008Y116535D02*
D03*
Y37795D02*
D03*
X77165Y18110D02*
D03*
X67323Y431496D02*
D03*
X57480Y411811D02*
D03*
Y372441D02*
D03*
X67323Y352756D02*
D03*
Y274016D02*
D03*
X57480Y18110D02*
D03*
X47638Y431496D02*
D03*
X37795Y411811D02*
D03*
Y372441D02*
D03*
Y333071D02*
D03*
Y293701D02*
D03*
Y96850D02*
D03*
Y57480D02*
D03*
X47638Y37795D02*
D03*
X37795Y18110D02*
D03*
X18110Y411811D02*
D03*
X27953Y392126D02*
D03*
X18110Y136221D02*
D03*
Y96850D02*
D03*
X27953Y77165D02*
D03*
Y37795D02*
D03*
X104974Y231063D02*
D03*
X90310Y239600D02*
D03*
X98050D02*
D03*
X82570D02*
D03*
Y259100D02*
D03*
X90310D02*
D03*
X98050D02*
D03*
X102362Y350000D02*
D03*
X107618Y342539D02*
D03*
X45350Y347350D02*
D03*
X76900Y350200D02*
D03*
Y339963D02*
D03*
X65050Y87600D02*
D03*
X64950Y49900D02*
D03*
X112563Y217268D02*
D03*
X142563Y179366D02*
D03*
X104900Y237000D02*
D03*
X134850Y406894D02*
D03*
X114733Y175658D02*
D03*
X130091Y357283D02*
D03*
X108660Y416637D02*
D03*
X103850Y146100D02*
D03*
X98980Y191905D02*
D03*
X157153Y402433D02*
D03*
X156759Y396445D02*
D03*
X119447Y430348D02*
D03*
X133770Y422637D02*
D03*
X128463Y390610D02*
D03*
X90745Y388418D02*
D03*
X69200Y241700D02*
D03*
X81890Y283858D02*
D03*
X89764D02*
D03*
X97638D02*
D03*
X105512D02*
D03*
X113386D02*
D03*
X121260D02*
D03*
X129134D02*
D03*
X137008D02*
D03*
X144882D02*
D03*
X114961Y357087D02*
D03*
X97213Y175619D02*
D03*
X97647Y146300D02*
D03*
X64376Y231147D02*
D03*
X22441Y283858D02*
D03*
M02*
