G04*
G04 #@! TF.GenerationSoftware,Altium Limited,Altium Designer,20.2.6 (244)*
G04*
G04 Layer_Physical_Order=2*
G04 Layer_Color=16711680*
%FSLAX25Y25*%
%MOIN*%
G70*
G04*
G04 #@! TF.SameCoordinates,F9407C2F-A710-425B-A60E-68E32FB4EAEC*
G04*
G04*
G04 #@! TF.FilePolarity,Positive*
G04*
G01*
G75*
%ADD13C,0.01000*%
%ADD47C,0.00600*%
%ADD48C,0.01600*%
%ADD52C,0.06299*%
%ADD53C,0.12205*%
%ADD54C,0.06693*%
%ADD55C,0.05512*%
%ADD56C,0.24410*%
%ADD57C,0.02953*%
G36*
X163315Y2039D02*
X2039D01*
Y446780D01*
X163315D01*
X163315Y2039D01*
D02*
G37*
%LPC*%
G36*
X148038Y444316D02*
Y431502D01*
X160852D01*
X160720Y433174D01*
X160235Y435195D01*
X159440Y437116D01*
X158354Y438888D01*
X157004Y440468D01*
X155423Y441818D01*
X153651Y442904D01*
X151731Y443700D01*
X149710Y444185D01*
X148038Y444316D01*
D02*
G37*
G36*
X147238D02*
X145566Y444185D01*
X143545Y443700D01*
X141624Y442904D01*
X139852Y441818D01*
X138272Y440468D01*
X136922Y438888D01*
X135836Y437116D01*
X135040Y435195D01*
X134555Y433174D01*
X134424Y431502D01*
X147238D01*
Y444316D01*
D02*
G37*
G36*
X18116D02*
Y431502D01*
X30931D01*
X30799Y433174D01*
X30314Y435195D01*
X29518Y437116D01*
X28432Y438888D01*
X27083Y440468D01*
X25502Y441818D01*
X23730Y442904D01*
X21810Y443700D01*
X19789Y444185D01*
X18116Y444316D01*
D02*
G37*
G36*
X17316D02*
X15644Y444185D01*
X13623Y443700D01*
X11703Y442904D01*
X9931Y441818D01*
X8350Y440468D01*
X7001Y438888D01*
X5915Y437116D01*
X5119Y435195D01*
X4634Y433174D01*
X4502Y431502D01*
X17316D01*
Y444316D01*
D02*
G37*
G36*
X160852Y430702D02*
X148038D01*
Y417888D01*
X149710Y418020D01*
X151731Y418505D01*
X153651Y419301D01*
X155423Y420387D01*
X157004Y421736D01*
X158354Y423317D01*
X159440Y425089D01*
X160235Y427009D01*
X160720Y429030D01*
X160852Y430702D01*
D02*
G37*
G36*
X147238D02*
X134424D01*
X134555Y429030D01*
X135040Y427009D01*
X135836Y425089D01*
X136922Y423317D01*
X138272Y421736D01*
X139852Y420387D01*
X141624Y419301D01*
X143545Y418505D01*
X145566Y418020D01*
X147238Y417888D01*
Y430702D01*
D02*
G37*
G36*
X30931D02*
X18116D01*
Y417888D01*
X19789Y418020D01*
X21810Y418505D01*
X23730Y419301D01*
X25502Y420387D01*
X27083Y421736D01*
X28432Y423317D01*
X29518Y425089D01*
X30314Y427009D01*
X30799Y429030D01*
X30931Y430702D01*
D02*
G37*
G36*
X17316D02*
X4502D01*
X4634Y429030D01*
X5119Y427009D01*
X5915Y425089D01*
X7001Y423317D01*
X8350Y421736D01*
X9931Y420387D01*
X11703Y419301D01*
X13623Y418505D01*
X15644Y418020D01*
X17316Y417888D01*
Y430702D01*
D02*
G37*
G36*
X88077Y400867D02*
Y396935D01*
X92009D01*
X91912Y397670D01*
X91474Y398727D01*
X90777Y399635D01*
X89869Y400332D01*
X88812Y400770D01*
X88077Y400867D01*
D02*
G37*
G36*
X87277D02*
X86542Y400770D01*
X85485Y400332D01*
X84577Y399635D01*
X83881Y398727D01*
X83443Y397670D01*
X83346Y396935D01*
X87277D01*
Y400867D01*
D02*
G37*
G36*
X77677Y400415D02*
X76673Y400283D01*
X75737Y399895D01*
X74934Y399279D01*
X74317Y398475D01*
X73930Y397540D01*
X73798Y396535D01*
X73930Y395531D01*
X74317Y394596D01*
X74934Y393792D01*
X75737Y393176D01*
X76673Y392788D01*
X77677Y392656D01*
X78681Y392788D01*
X79617Y393176D01*
X80421Y393792D01*
X81037Y394596D01*
X81425Y395531D01*
X81557Y396535D01*
X81425Y397540D01*
X81037Y398475D01*
X80421Y399279D01*
X79617Y399895D01*
X78681Y400283D01*
X77677Y400415D01*
D02*
G37*
G36*
X87277Y396135D02*
X83346D01*
X83443Y395401D01*
X83881Y394343D01*
X84577Y393436D01*
X85485Y392739D01*
X86542Y392301D01*
X87277Y392204D01*
Y396135D01*
D02*
G37*
G36*
X92009D02*
X88077D01*
Y392204D01*
X88812Y392301D01*
X89869Y392739D01*
X90777Y393436D01*
X91474Y394343D01*
X91912Y395401D01*
X92009Y396135D01*
D02*
G37*
G36*
X50748Y376439D02*
X49744Y376307D01*
X48808Y375919D01*
X48005Y375302D01*
X47388Y374499D01*
X47001Y373563D01*
X46868Y372559D01*
X47001Y371555D01*
X47388Y370619D01*
X48005Y369816D01*
X48808Y369199D01*
X49744Y368812D01*
X50748Y368679D01*
X51752Y368812D01*
X52688Y369199D01*
X53491Y369816D01*
X54108Y370619D01*
X54496Y371555D01*
X54628Y372559D01*
X54496Y373563D01*
X54108Y374499D01*
X53491Y375302D01*
X52688Y375919D01*
X51752Y376307D01*
X50748Y376439D01*
D02*
G37*
G36*
X108660Y418652D02*
X107889Y418499D01*
X107235Y418062D01*
X106798Y417408D01*
X106645Y416637D01*
X106798Y415866D01*
X107235Y415212D01*
X107889Y414775D01*
X108660Y414622D01*
X109431Y414775D01*
X110085Y415212D01*
X110151Y415311D01*
X124557D01*
X132858Y407011D01*
X132834Y406894D01*
X132988Y406122D01*
X133425Y405469D01*
X133524Y405402D01*
Y362592D01*
X130208Y359275D01*
X130091Y359299D01*
X129319Y359145D01*
X128666Y358708D01*
X128229Y358055D01*
X128076Y357283D01*
X128229Y356512D01*
X128666Y355859D01*
X129319Y355422D01*
X130091Y355268D01*
X130862Y355422D01*
X131515Y355859D01*
X131952Y356512D01*
X132106Y357283D01*
X132082Y357401D01*
X135787Y361105D01*
X136074Y361535D01*
X136175Y362042D01*
Y405402D01*
X136275Y405469D01*
X136711Y406122D01*
X136865Y406894D01*
X136711Y407665D01*
X136275Y408319D01*
X135621Y408755D01*
X134850Y408909D01*
X134732Y408885D01*
X126043Y417574D01*
X125613Y417862D01*
X125106Y417963D01*
X110151D01*
X110085Y418062D01*
X109431Y418499D01*
X108660Y418652D01*
D02*
G37*
G36*
X50748Y366439D02*
X49744Y366306D01*
X48808Y365919D01*
X48005Y365302D01*
X47388Y364499D01*
X47001Y363563D01*
X46868Y362559D01*
X47001Y361555D01*
X47388Y360619D01*
X48005Y359816D01*
X48808Y359199D01*
X49744Y358812D01*
X50748Y358679D01*
X51752Y358812D01*
X52688Y359199D01*
X53491Y359816D01*
X54108Y360619D01*
X54496Y361555D01*
X54628Y362559D01*
X54496Y363563D01*
X54108Y364499D01*
X53491Y365302D01*
X52688Y365919D01*
X51752Y366306D01*
X50748Y366439D01*
D02*
G37*
G36*
Y356439D02*
X49744Y356307D01*
X48808Y355919D01*
X48005Y355302D01*
X47388Y354499D01*
X47001Y353563D01*
X46868Y352559D01*
X47001Y351555D01*
X47388Y350619D01*
X48005Y349816D01*
X48808Y349199D01*
X49744Y348812D01*
X50748Y348679D01*
X51752Y348812D01*
X52688Y349199D01*
X53491Y349816D01*
X54108Y350619D01*
X54496Y351555D01*
X54628Y352559D01*
X54496Y353563D01*
X54108Y354499D01*
X53491Y355302D01*
X52688Y355919D01*
X51752Y356307D01*
X50748Y356439D01*
D02*
G37*
G36*
X76900Y352215D02*
X76129Y352062D01*
X75475Y351625D01*
X75038Y350971D01*
X74885Y350200D01*
X75038Y349429D01*
X75475Y348775D01*
X75880Y348504D01*
Y341658D01*
X75475Y341388D01*
X75038Y340734D01*
X74885Y339963D01*
X75038Y339191D01*
X75475Y338538D01*
X76129Y338101D01*
X76900Y337948D01*
X77671Y338101D01*
X78325Y338538D01*
X78554Y338880D01*
X94000D01*
X94390Y338958D01*
X94721Y339179D01*
X97062Y341520D01*
X105922D01*
X106193Y341114D01*
X106847Y340678D01*
X107618Y340524D01*
X108389Y340678D01*
X109043Y341114D01*
X109480Y341768D01*
X109633Y342539D01*
X109480Y343310D01*
X109043Y343964D01*
X108389Y344401D01*
X107618Y344554D01*
X106847Y344401D01*
X106193Y343964D01*
X105922Y343559D01*
X96639D01*
X96249Y343481D01*
X95918Y343260D01*
X93578Y340920D01*
X78637D01*
X78325Y341388D01*
X77920Y341658D01*
Y348504D01*
X78325Y348775D01*
X78762Y349429D01*
X78915Y350200D01*
X78762Y350971D01*
X78325Y351625D01*
X77671Y352062D01*
X76900Y352215D01*
D02*
G37*
G36*
X50748Y346439D02*
X49744Y346306D01*
X48808Y345919D01*
X48005Y345302D01*
X47388Y344499D01*
X47001Y343563D01*
X46868Y342559D01*
X47001Y341555D01*
X47388Y340619D01*
X48005Y339816D01*
X48808Y339199D01*
X49744Y338812D01*
X50748Y338679D01*
X51752Y338812D01*
X52688Y339199D01*
X53491Y339816D01*
X54108Y340619D01*
X54496Y341555D01*
X54628Y342559D01*
X54496Y343563D01*
X54108Y344499D01*
X53491Y345302D01*
X52688Y345919D01*
X51752Y346306D01*
X50748Y346439D01*
D02*
G37*
G36*
Y336439D02*
X49744Y336307D01*
X48808Y335919D01*
X48005Y335302D01*
X47388Y334499D01*
X47001Y333563D01*
X46868Y332559D01*
X47001Y331555D01*
X47388Y330619D01*
X48005Y329816D01*
X48808Y329199D01*
X49744Y328812D01*
X50748Y328679D01*
X51752Y328812D01*
X52688Y329199D01*
X53491Y329816D01*
X54108Y330619D01*
X54496Y331555D01*
X54628Y332559D01*
X54496Y333563D01*
X54108Y334499D01*
X53491Y335302D01*
X52688Y335919D01*
X51752Y336307D01*
X50748Y336439D01*
D02*
G37*
G36*
Y326439D02*
X49744Y326307D01*
X48808Y325919D01*
X48005Y325302D01*
X47388Y324499D01*
X47001Y323563D01*
X46868Y322559D01*
X47001Y321555D01*
X47388Y320619D01*
X48005Y319816D01*
X48808Y319199D01*
X49744Y318812D01*
X50748Y318679D01*
X51752Y318812D01*
X52688Y319199D01*
X53491Y319816D01*
X54108Y320619D01*
X54496Y321555D01*
X54628Y322559D01*
X54496Y323563D01*
X54108Y324499D01*
X53491Y325302D01*
X52688Y325919D01*
X51752Y326307D01*
X50748Y326439D01*
D02*
G37*
G36*
Y316439D02*
X49744Y316306D01*
X48808Y315919D01*
X48005Y315302D01*
X47388Y314499D01*
X47001Y313563D01*
X46868Y312559D01*
X47001Y311555D01*
X47388Y310619D01*
X48005Y309816D01*
X48808Y309199D01*
X49744Y308812D01*
X50748Y308679D01*
X51752Y308812D01*
X52688Y309199D01*
X53491Y309816D01*
X54108Y310619D01*
X54496Y311555D01*
X54628Y312559D01*
X54496Y313563D01*
X54108Y314499D01*
X53491Y315302D01*
X52688Y315919D01*
X51752Y316306D01*
X50748Y316439D01*
D02*
G37*
G36*
Y306439D02*
X49744Y306307D01*
X48808Y305919D01*
X48005Y305302D01*
X47388Y304499D01*
X47001Y303563D01*
X46868Y302559D01*
X47001Y301555D01*
X47388Y300619D01*
X48005Y299816D01*
X48808Y299199D01*
X49744Y298812D01*
X50748Y298679D01*
X51752Y298812D01*
X52688Y299199D01*
X53491Y299816D01*
X54108Y300619D01*
X54496Y301555D01*
X54628Y302559D01*
X54496Y303563D01*
X54108Y304499D01*
X53491Y305302D01*
X52688Y305919D01*
X51752Y306307D01*
X50748Y306439D01*
D02*
G37*
G36*
Y296439D02*
X49744Y296306D01*
X48808Y295919D01*
X48005Y295302D01*
X47388Y294499D01*
X47001Y293563D01*
X46868Y292559D01*
X47001Y291555D01*
X47388Y290619D01*
X48005Y289816D01*
X48808Y289199D01*
X49744Y288812D01*
X50748Y288679D01*
X51752Y288812D01*
X52688Y289199D01*
X53491Y289816D01*
X54108Y290619D01*
X54496Y291555D01*
X54628Y292559D01*
X54496Y293563D01*
X54108Y294499D01*
X53491Y295302D01*
X52688Y295919D01*
X51752Y296306D01*
X50748Y296439D01*
D02*
G37*
G36*
X144882Y285873D02*
X144111Y285720D01*
X143457Y285283D01*
X143391Y285184D01*
X138499D01*
X138433Y285283D01*
X137779Y285720D01*
X137008Y285873D01*
X136237Y285720D01*
X135583Y285283D01*
X135517Y285184D01*
X130625D01*
X130559Y285283D01*
X129905Y285720D01*
X129134Y285873D01*
X128363Y285720D01*
X127709Y285283D01*
X127643Y285184D01*
X122751D01*
X122685Y285283D01*
X122031Y285720D01*
X121260Y285873D01*
X120489Y285720D01*
X119835Y285283D01*
X119769Y285184D01*
X114877D01*
X114811Y285283D01*
X114157Y285720D01*
X113386Y285873D01*
X112615Y285720D01*
X111961Y285283D01*
X111895Y285184D01*
X107003D01*
X106937Y285283D01*
X106283Y285720D01*
X105512Y285873D01*
X104741Y285720D01*
X104087Y285283D01*
X104021Y285184D01*
X99129D01*
X99063Y285283D01*
X98409Y285720D01*
X97638Y285873D01*
X96867Y285720D01*
X96213Y285283D01*
X96147Y285184D01*
X91255D01*
X91189Y285283D01*
X90535Y285720D01*
X89764Y285873D01*
X88993Y285720D01*
X88339Y285283D01*
X88273Y285184D01*
X83381D01*
X83315Y285283D01*
X82661Y285720D01*
X81890Y285873D01*
X81119Y285720D01*
X80465Y285283D01*
X80398Y285184D01*
X23932D01*
X23866Y285283D01*
X23212Y285720D01*
X22441Y285873D01*
X21670Y285720D01*
X21016Y285283D01*
X20579Y284629D01*
X20426Y283858D01*
X20579Y283087D01*
X21016Y282433D01*
X21670Y281997D01*
X22441Y281843D01*
X23212Y281997D01*
X23866Y282433D01*
X23932Y282533D01*
X80398D01*
X80465Y282433D01*
X81119Y281997D01*
X81890Y281843D01*
X82661Y281997D01*
X83315Y282433D01*
X83381Y282533D01*
X88273D01*
X88339Y282433D01*
X88993Y281997D01*
X89764Y281843D01*
X90535Y281997D01*
X91189Y282433D01*
X91255Y282533D01*
X96147D01*
X96213Y282433D01*
X96867Y281997D01*
X97638Y281843D01*
X98409Y281997D01*
X99063Y282433D01*
X99129Y282533D01*
X104021D01*
X104087Y282433D01*
X104741Y281997D01*
X105512Y281843D01*
X106283Y281997D01*
X106937Y282433D01*
X107003Y282533D01*
X111895D01*
X111961Y282433D01*
X112615Y281997D01*
X113386Y281843D01*
X114157Y281997D01*
X114811Y282433D01*
X114877Y282533D01*
X119769D01*
X119835Y282433D01*
X120489Y281997D01*
X121260Y281843D01*
X122031Y281997D01*
X122685Y282433D01*
X122751Y282533D01*
X127643D01*
X127709Y282433D01*
X128363Y281997D01*
X129134Y281843D01*
X129905Y281997D01*
X130559Y282433D01*
X130625Y282533D01*
X135517D01*
X135583Y282433D01*
X136237Y281997D01*
X137008Y281843D01*
X137779Y281997D01*
X138433Y282433D01*
X138499Y282533D01*
X143391D01*
X143457Y282433D01*
X144111Y281997D01*
X144882Y281843D01*
X145653Y281997D01*
X146307Y282433D01*
X146744Y283087D01*
X146897Y283858D01*
X146744Y284629D01*
X146307Y285283D01*
X145653Y285720D01*
X144882Y285873D01*
D02*
G37*
G36*
X51653Y275021D02*
X50649Y274889D01*
X49714Y274502D01*
X48910Y273885D01*
X48294Y273082D01*
X47906Y272146D01*
X47774Y271142D01*
X47906Y270138D01*
X48294Y269202D01*
X48910Y268398D01*
X49714Y267782D01*
X50649Y267394D01*
X51653Y267262D01*
X52658Y267394D01*
X53593Y267782D01*
X54397Y268398D01*
X55013Y269202D01*
X55401Y270138D01*
X55533Y271142D01*
X55401Y272146D01*
X55013Y273082D01*
X54397Y273885D01*
X53593Y274502D01*
X52658Y274889D01*
X51653Y275021D01*
D02*
G37*
G36*
X41653D02*
X40649Y274889D01*
X39714Y274502D01*
X38910Y273885D01*
X38294Y273082D01*
X37906Y272146D01*
X37774Y271142D01*
X37906Y270138D01*
X38294Y269202D01*
X38910Y268398D01*
X39714Y267782D01*
X40649Y267394D01*
X41653Y267262D01*
X42658Y267394D01*
X43593Y267782D01*
X44397Y268398D01*
X45013Y269202D01*
X45401Y270138D01*
X45533Y271142D01*
X45401Y272146D01*
X45013Y273082D01*
X44397Y273885D01*
X43593Y274502D01*
X42658Y274889D01*
X41653Y275021D01*
D02*
G37*
G36*
X51653Y265021D02*
X50649Y264889D01*
X49714Y264502D01*
X48910Y263885D01*
X48294Y263082D01*
X47906Y262146D01*
X47774Y261142D01*
X47906Y260138D01*
X48294Y259202D01*
X48910Y258398D01*
X49714Y257782D01*
X50649Y257394D01*
X51653Y257262D01*
X52658Y257394D01*
X53593Y257782D01*
X54397Y258398D01*
X55013Y259202D01*
X55401Y260138D01*
X55533Y261142D01*
X55401Y262146D01*
X55013Y263082D01*
X54397Y263885D01*
X53593Y264502D01*
X52658Y264889D01*
X51653Y265021D01*
D02*
G37*
G36*
X41653D02*
X40649Y264889D01*
X39714Y264502D01*
X38910Y263885D01*
X38294Y263082D01*
X37906Y262146D01*
X37774Y261142D01*
X37906Y260138D01*
X38294Y259202D01*
X38910Y258398D01*
X39714Y257782D01*
X40649Y257394D01*
X41653Y257262D01*
X42658Y257394D01*
X43593Y257782D01*
X44397Y258398D01*
X45013Y259202D01*
X45401Y260138D01*
X45533Y261142D01*
X45401Y262146D01*
X45013Y263082D01*
X44397Y263885D01*
X43593Y264502D01*
X42658Y264889D01*
X41653Y265021D01*
D02*
G37*
G36*
X52053Y255473D02*
Y251542D01*
X55985D01*
X55888Y252276D01*
X55450Y253334D01*
X54754Y254242D01*
X53846Y254938D01*
X52788Y255376D01*
X52053Y255473D01*
D02*
G37*
G36*
X42054D02*
Y251542D01*
X45985D01*
X45888Y252276D01*
X45450Y253334D01*
X44754Y254242D01*
X43845Y254938D01*
X42788Y255376D01*
X42054Y255473D01*
D02*
G37*
G36*
X41254D02*
X40519Y255376D01*
X39462Y254938D01*
X38554Y254242D01*
X37857Y253334D01*
X37419Y252276D01*
X37322Y251542D01*
X41254D01*
Y255473D01*
D02*
G37*
G36*
X51253D02*
X50519Y255376D01*
X49462Y254938D01*
X48554Y254242D01*
X47857Y253334D01*
X47419Y252276D01*
X47322Y251542D01*
X51253D01*
Y255473D01*
D02*
G37*
G36*
X55985Y250742D02*
X52053D01*
Y246810D01*
X52788Y246907D01*
X53846Y247345D01*
X54754Y248042D01*
X55450Y248950D01*
X55888Y250007D01*
X55985Y250742D01*
D02*
G37*
G36*
X45985D02*
X42054D01*
Y246810D01*
X42788Y246907D01*
X43845Y247345D01*
X44754Y248042D01*
X45450Y248950D01*
X45888Y250007D01*
X45985Y250742D01*
D02*
G37*
G36*
X51253D02*
X47322D01*
X47419Y250007D01*
X47857Y248950D01*
X48554Y248042D01*
X49462Y247345D01*
X50519Y246907D01*
X51253Y246810D01*
Y250742D01*
D02*
G37*
G36*
X41254D02*
X37322D01*
X37419Y250007D01*
X37857Y248950D01*
X38554Y248042D01*
X39462Y247345D01*
X40519Y246907D01*
X41254Y246810D01*
Y250742D01*
D02*
G37*
G36*
X52053Y245473D02*
Y241542D01*
X55985D01*
X55888Y242276D01*
X55450Y243334D01*
X54754Y244242D01*
X53846Y244938D01*
X52788Y245376D01*
X52053Y245473D01*
D02*
G37*
G36*
X42054D02*
Y241542D01*
X45985D01*
X45888Y242276D01*
X45450Y243334D01*
X44754Y244242D01*
X43845Y244938D01*
X42788Y245376D01*
X42054Y245473D01*
D02*
G37*
G36*
X41254D02*
X40519Y245376D01*
X39462Y244938D01*
X38554Y244242D01*
X37857Y243334D01*
X37419Y242276D01*
X37322Y241542D01*
X41254D01*
Y245473D01*
D02*
G37*
G36*
X51253D02*
X50519Y245376D01*
X49462Y244938D01*
X48554Y244242D01*
X47857Y243334D01*
X47419Y242276D01*
X47322Y241542D01*
X51253D01*
Y245473D01*
D02*
G37*
G36*
X98050Y261115D02*
X97279Y260962D01*
X96625Y260525D01*
X96188Y259871D01*
X96035Y259100D01*
X96188Y258329D01*
X96625Y257675D01*
X97234Y257268D01*
Y241432D01*
X96625Y241025D01*
X96188Y240371D01*
X96035Y239600D01*
X96188Y238829D01*
X96625Y238175D01*
X97279Y237738D01*
X98050Y237585D01*
X98821Y237738D01*
X99475Y238175D01*
X99912Y238829D01*
X100065Y239600D01*
X99912Y240371D01*
X99475Y241025D01*
X98866Y241432D01*
Y257268D01*
X99475Y257675D01*
X99912Y258329D01*
X100065Y259100D01*
X99912Y259871D01*
X99475Y260525D01*
X98821Y260962D01*
X98050Y261115D01*
D02*
G37*
G36*
X90310D02*
X89539Y260962D01*
X88885Y260525D01*
X88448Y259871D01*
X88295Y259100D01*
X88448Y258329D01*
X88885Y257675D01*
X89494Y257268D01*
Y241432D01*
X88885Y241025D01*
X88448Y240371D01*
X88295Y239600D01*
X88448Y238829D01*
X88885Y238175D01*
X89539Y237738D01*
X90310Y237585D01*
X91081Y237738D01*
X91735Y238175D01*
X92172Y238829D01*
X92325Y239600D01*
X92172Y240371D01*
X91735Y241025D01*
X91126Y241432D01*
Y257268D01*
X91735Y257675D01*
X92172Y258329D01*
X92325Y259100D01*
X92172Y259871D01*
X91735Y260525D01*
X91081Y260962D01*
X90310Y261115D01*
D02*
G37*
G36*
X82570D02*
X81799Y260962D01*
X81145Y260525D01*
X80708Y259871D01*
X80555Y259100D01*
X80708Y258329D01*
X81145Y257675D01*
X81754Y257268D01*
Y241432D01*
X81145Y241025D01*
X80708Y240371D01*
X80555Y239600D01*
X80708Y238829D01*
X81145Y238175D01*
X81799Y237738D01*
X82570Y237585D01*
X83341Y237738D01*
X83995Y238175D01*
X84432Y238829D01*
X84585Y239600D01*
X84432Y240371D01*
X83995Y241025D01*
X83386Y241432D01*
Y257268D01*
X83995Y257675D01*
X84432Y258329D01*
X84585Y259100D01*
X84432Y259871D01*
X83995Y260525D01*
X83341Y260962D01*
X82570Y261115D01*
D02*
G37*
G36*
X55985Y240742D02*
X52053D01*
Y236810D01*
X52788Y236907D01*
X53846Y237345D01*
X54754Y238042D01*
X55450Y238950D01*
X55888Y240007D01*
X55985Y240742D01*
D02*
G37*
G36*
X45985D02*
X42054D01*
Y236810D01*
X42788Y236907D01*
X43845Y237345D01*
X44754Y238042D01*
X45450Y238950D01*
X45888Y240007D01*
X45985Y240742D01*
D02*
G37*
G36*
X51253D02*
X47322D01*
X47419Y240007D01*
X47857Y238950D01*
X48554Y238042D01*
X49462Y237345D01*
X50519Y236907D01*
X51253Y236810D01*
Y240742D01*
D02*
G37*
G36*
X41254D02*
X37322D01*
X37419Y240007D01*
X37857Y238950D01*
X38554Y238042D01*
X39462Y237345D01*
X40519Y236907D01*
X41254Y236810D01*
Y240742D01*
D02*
G37*
G36*
X51653Y235021D02*
X50649Y234889D01*
X49714Y234502D01*
X48910Y233885D01*
X48294Y233082D01*
X47906Y232146D01*
X47774Y231142D01*
X47906Y230138D01*
X48294Y229202D01*
X48910Y228398D01*
X49714Y227782D01*
X50649Y227394D01*
X51653Y227262D01*
X52658Y227394D01*
X53593Y227782D01*
X54397Y228398D01*
X55013Y229202D01*
X55252Y229777D01*
X60078D01*
X60276Y229737D01*
X60276Y229737D01*
X62941D01*
X62951Y229722D01*
X63604Y229286D01*
X64376Y229132D01*
X65147Y229286D01*
X65800Y229722D01*
X65811Y229737D01*
X103482D01*
X103549Y229638D01*
X104202Y229201D01*
X104974Y229048D01*
X105745Y229201D01*
X106398Y229638D01*
X106835Y230292D01*
X106989Y231063D01*
X106835Y231834D01*
X106398Y232488D01*
X105745Y232925D01*
X104974Y233078D01*
X104202Y232925D01*
X103549Y232488D01*
X103482Y232388D01*
X65923D01*
X65800Y232572D01*
X65147Y233009D01*
X64376Y233162D01*
X63604Y233009D01*
X62951Y232572D01*
X62828Y232388D01*
X60474D01*
X60276Y232428D01*
X55284D01*
X55013Y233082D01*
X54397Y233885D01*
X53593Y234502D01*
X52658Y234889D01*
X51653Y235021D01*
D02*
G37*
G36*
X41653D02*
X40649Y234889D01*
X39714Y234502D01*
X38910Y233885D01*
X38294Y233082D01*
X37906Y232146D01*
X37774Y231142D01*
X37906Y230138D01*
X38294Y229202D01*
X38910Y228398D01*
X39714Y227782D01*
X40649Y227394D01*
X41653Y227262D01*
X42658Y227394D01*
X43593Y227782D01*
X44397Y228398D01*
X45013Y229202D01*
X45401Y230138D01*
X45533Y231142D01*
X45401Y232146D01*
X45013Y233082D01*
X44397Y233885D01*
X43593Y234502D01*
X42658Y234889D01*
X41653Y235021D01*
D02*
G37*
G36*
X51653Y225021D02*
X50649Y224889D01*
X49714Y224502D01*
X48910Y223885D01*
X48294Y223082D01*
X47906Y222146D01*
X47774Y221142D01*
X47906Y220138D01*
X48294Y219202D01*
X48910Y218398D01*
X49714Y217782D01*
X50649Y217394D01*
X51653Y217262D01*
X52658Y217394D01*
X53593Y217782D01*
X54397Y218398D01*
X55013Y219202D01*
X55401Y220138D01*
X55533Y221142D01*
X55401Y222146D01*
X55013Y223082D01*
X54397Y223885D01*
X53593Y224502D01*
X52658Y224889D01*
X51653Y225021D01*
D02*
G37*
G36*
X41653D02*
X40649Y224889D01*
X39714Y224502D01*
X38910Y223885D01*
X38294Y223082D01*
X37906Y222146D01*
X37774Y221142D01*
X37906Y220138D01*
X38294Y219202D01*
X38910Y218398D01*
X39714Y217782D01*
X40649Y217394D01*
X41653Y217262D01*
X42658Y217394D01*
X43593Y217782D01*
X44397Y218398D01*
X45013Y219202D01*
X45401Y220138D01*
X45533Y221142D01*
X45401Y222146D01*
X45013Y223082D01*
X44397Y223885D01*
X43593Y224502D01*
X42658Y224889D01*
X41653Y225021D01*
D02*
G37*
G36*
X30709Y204859D02*
X29859Y204747D01*
X29067Y204419D01*
X28387Y203897D01*
X27865Y203217D01*
X27537Y202425D01*
X27425Y201575D01*
X27537Y200725D01*
X27865Y199933D01*
X28387Y199253D01*
X29067Y198731D01*
X29859Y198403D01*
X30709Y198291D01*
X31559Y198403D01*
X32351Y198731D01*
X33031Y199253D01*
X33553Y199933D01*
X33881Y200725D01*
X33993Y201575D01*
X33881Y202425D01*
X33553Y203217D01*
X33031Y203897D01*
X32351Y204419D01*
X31559Y204747D01*
X30709Y204859D01*
D02*
G37*
G36*
X38583Y204859D02*
X37733Y204747D01*
X36941Y204419D01*
X36261Y203897D01*
X35739Y203217D01*
X35411Y202425D01*
X35299Y201575D01*
X35411Y200725D01*
X35739Y199933D01*
X36261Y199253D01*
X36941Y198731D01*
X37733Y198403D01*
X38583Y198291D01*
X39433Y198403D01*
X40225Y198731D01*
X40905Y199253D01*
X41427Y199933D01*
X41755Y200725D01*
X41867Y201575D01*
X41755Y202425D01*
X41427Y203217D01*
X40905Y203897D01*
X40225Y204419D01*
X39433Y204747D01*
X38583Y204859D01*
D02*
G37*
G36*
X30709Y196985D02*
X29859Y196873D01*
X29067Y196545D01*
X28387Y196023D01*
X27865Y195343D01*
X27537Y194551D01*
X27425Y193701D01*
X27537Y192851D01*
X27865Y192059D01*
X28387Y191379D01*
X29067Y190857D01*
X29859Y190529D01*
X30709Y190417D01*
X31559Y190529D01*
X32351Y190857D01*
X33031Y191379D01*
X33553Y192059D01*
X33881Y192851D01*
X33993Y193701D01*
X33881Y194551D01*
X33553Y195343D01*
X33031Y196023D01*
X32351Y196545D01*
X31559Y196873D01*
X30709Y196985D01*
D02*
G37*
G36*
X38583Y196985D02*
X37733Y196873D01*
X36941Y196545D01*
X36261Y196023D01*
X35739Y195343D01*
X35411Y194551D01*
X35299Y193701D01*
X35411Y192851D01*
X35739Y192059D01*
X36261Y191379D01*
X36941Y190857D01*
X37733Y190529D01*
X38583Y190417D01*
X39433Y190529D01*
X40225Y190857D01*
X40905Y191379D01*
X41427Y192059D01*
X41755Y192851D01*
X41867Y193701D01*
X41755Y194551D01*
X41427Y195343D01*
X40905Y196023D01*
X40225Y196545D01*
X39433Y196873D01*
X38583Y196985D01*
D02*
G37*
G36*
X30709Y189111D02*
X29859Y188999D01*
X29067Y188671D01*
X28387Y188149D01*
X27865Y187469D01*
X27537Y186677D01*
X27425Y185827D01*
X27537Y184977D01*
X27865Y184185D01*
X28387Y183505D01*
X29067Y182983D01*
X29859Y182655D01*
X30709Y182543D01*
X31559Y182655D01*
X32351Y182983D01*
X33031Y183505D01*
X33553Y184185D01*
X33881Y184977D01*
X33993Y185827D01*
X33881Y186677D01*
X33553Y187469D01*
X33031Y188149D01*
X32351Y188671D01*
X31559Y188999D01*
X30709Y189111D01*
D02*
G37*
G36*
X38583Y189111D02*
X37733Y188999D01*
X36941Y188671D01*
X36261Y188149D01*
X35739Y187469D01*
X35411Y186677D01*
X35299Y185827D01*
X35411Y184977D01*
X35739Y184185D01*
X36261Y183505D01*
X36941Y182983D01*
X37733Y182655D01*
X38583Y182543D01*
X39433Y182655D01*
X40225Y182983D01*
X40905Y183505D01*
X41427Y184185D01*
X41755Y184977D01*
X41867Y185827D01*
X41755Y186677D01*
X41427Y187469D01*
X40905Y188149D01*
X40225Y188671D01*
X39433Y188999D01*
X38583Y189111D01*
D02*
G37*
G36*
Y181237D02*
X37733Y181125D01*
X36941Y180797D01*
X36261Y180275D01*
X35739Y179595D01*
X35411Y178803D01*
X35299Y177953D01*
X35411Y177103D01*
X35739Y176311D01*
X36261Y175631D01*
X36941Y175109D01*
X37733Y174781D01*
X38583Y174669D01*
X39433Y174781D01*
X40225Y175109D01*
X40905Y175631D01*
X41427Y176311D01*
X41755Y177103D01*
X41867Y177953D01*
X41755Y178803D01*
X41427Y179595D01*
X40905Y180275D01*
X40225Y180797D01*
X39433Y181125D01*
X38583Y181237D01*
D02*
G37*
G36*
X30709D02*
X29859Y181125D01*
X29067Y180797D01*
X28387Y180275D01*
X27865Y179595D01*
X27537Y178803D01*
X27425Y177953D01*
X27537Y177103D01*
X27865Y176311D01*
X28387Y175631D01*
X29067Y175109D01*
X29859Y174781D01*
X30709Y174669D01*
X31559Y174781D01*
X32351Y175109D01*
X33031Y175631D01*
X33553Y176311D01*
X33881Y177103D01*
X33993Y177953D01*
X33881Y178803D01*
X33553Y179595D01*
X33031Y180275D01*
X32351Y180797D01*
X31559Y181125D01*
X30709Y181237D01*
D02*
G37*
G36*
X30309Y173814D02*
X29728Y173738D01*
X28815Y173360D01*
X28030Y172757D01*
X27428Y171973D01*
X27049Y171059D01*
X26973Y170479D01*
X30309D01*
Y173814D01*
D02*
G37*
G36*
X38983Y173814D02*
Y170479D01*
X42318D01*
X42242Y171059D01*
X41864Y171973D01*
X41261Y172757D01*
X40477Y173360D01*
X39563Y173738D01*
X38983Y173814D01*
D02*
G37*
G36*
X112563Y219283D02*
X111792Y219129D01*
X111138Y218693D01*
X110701Y218039D01*
X110548Y217268D01*
X110701Y216496D01*
X111138Y215843D01*
X111238Y215776D01*
Y209037D01*
X111338Y208530D01*
X111626Y208100D01*
X126174Y193551D01*
Y151949D01*
X121651Y147425D01*
X105341D01*
X105275Y147525D01*
X104621Y147962D01*
X103850Y148115D01*
X103079Y147962D01*
X102425Y147525D01*
X101988Y146871D01*
X101835Y146100D01*
X101988Y145329D01*
X102425Y144675D01*
X103079Y144238D01*
X103850Y144085D01*
X104621Y144238D01*
X105275Y144675D01*
X105341Y144774D01*
X122200D01*
X122707Y144875D01*
X123137Y145163D01*
X128437Y150463D01*
X128725Y150893D01*
X128825Y151400D01*
Y194100D01*
X128725Y194607D01*
X128437Y195037D01*
X113889Y209586D01*
Y215776D01*
X113988Y215843D01*
X114425Y216496D01*
X114578Y217268D01*
X114425Y218039D01*
X113988Y218693D01*
X113334Y219129D01*
X112563Y219283D01*
D02*
G37*
G36*
X30309Y146057D02*
X26973D01*
X27049Y145476D01*
X27428Y144562D01*
X28030Y143778D01*
X28815Y143176D01*
X29728Y142798D01*
X30309Y142721D01*
Y146057D01*
D02*
G37*
G36*
X31109Y173814D02*
Y170079D01*
X30709D01*
Y169679D01*
X26973D01*
X27049Y169098D01*
X27428Y168185D01*
X28030Y167400D01*
X28815Y166798D01*
X29728Y166419D01*
X29923Y166394D01*
Y165890D01*
X29728Y165864D01*
X28815Y165486D01*
X28030Y164883D01*
X27428Y164099D01*
X27049Y163185D01*
X26973Y162605D01*
X30709D01*
Y161805D01*
X26973D01*
X27049Y161224D01*
X27428Y160311D01*
X28030Y159526D01*
X28815Y158924D01*
X29728Y158545D01*
X29923Y158520D01*
Y158016D01*
X29728Y157990D01*
X28815Y157612D01*
X28030Y157009D01*
X27428Y156225D01*
X27049Y155311D01*
X26973Y154731D01*
X30709D01*
Y153931D01*
X26973D01*
X27049Y153350D01*
X27428Y152437D01*
X28030Y151652D01*
X28815Y151050D01*
X29728Y150672D01*
X29923Y150646D01*
Y150142D01*
X29728Y150116D01*
X28815Y149738D01*
X28030Y149135D01*
X27428Y148351D01*
X27049Y147437D01*
X26973Y146857D01*
X30709D01*
Y146457D01*
X31109D01*
Y142721D01*
X31689Y142798D01*
X32603Y143176D01*
X33387Y143778D01*
X33989Y144562D01*
X34368Y145476D01*
X34394Y145671D01*
X34898D01*
X34923Y145476D01*
X35302Y144562D01*
X35904Y143778D01*
X36689Y143176D01*
X37602Y142798D01*
X38183Y142721D01*
Y146457D01*
X38583D01*
Y146857D01*
X42318D01*
X42242Y147437D01*
X41864Y148351D01*
X41261Y149135D01*
X40477Y149738D01*
X39563Y150116D01*
X39369Y150142D01*
Y150646D01*
X39563Y150672D01*
X40477Y151050D01*
X41261Y151652D01*
X41864Y152437D01*
X42242Y153350D01*
X42318Y153931D01*
X38583D01*
Y154731D01*
X42318D01*
X42242Y155311D01*
X41864Y156225D01*
X41261Y157009D01*
X40477Y157612D01*
X39563Y157990D01*
X39369Y158016D01*
Y158520D01*
X39563Y158545D01*
X40477Y158924D01*
X41261Y159526D01*
X41864Y160311D01*
X42242Y161224D01*
X42318Y161805D01*
X38583D01*
Y162605D01*
X42318D01*
X42242Y163185D01*
X41864Y164099D01*
X41261Y164883D01*
X40477Y165486D01*
X39563Y165864D01*
X39369Y165890D01*
Y166394D01*
X39563Y166419D01*
X40477Y166798D01*
X41261Y167400D01*
X41864Y168185D01*
X42242Y169098D01*
X42318Y169679D01*
X38583D01*
Y170079D01*
X38183D01*
Y173814D01*
X37602Y173738D01*
X36689Y173360D01*
X35904Y172757D01*
X35302Y171973D01*
X34923Y171059D01*
X34898Y170865D01*
X34394D01*
X34368Y171059D01*
X33989Y171973D01*
X33387Y172757D01*
X32603Y173360D01*
X31689Y173738D01*
X31109Y173814D01*
D02*
G37*
G36*
X42318Y146057D02*
X38983D01*
Y142721D01*
X39563Y142798D01*
X40477Y143176D01*
X41261Y143778D01*
X41864Y144562D01*
X42242Y145476D01*
X42318Y146057D01*
D02*
G37*
G36*
X30709Y141867D02*
X29859Y141755D01*
X29067Y141427D01*
X28387Y140905D01*
X27865Y140225D01*
X27537Y139433D01*
X27425Y138583D01*
X27537Y137733D01*
X27865Y136941D01*
X28387Y136260D01*
X29067Y135739D01*
X29859Y135411D01*
X30709Y135299D01*
X31559Y135411D01*
X32351Y135739D01*
X33031Y136260D01*
X33553Y136941D01*
X33881Y137733D01*
X33993Y138583D01*
X33881Y139433D01*
X33553Y140225D01*
X33031Y140905D01*
X32351Y141427D01*
X31559Y141755D01*
X30709Y141867D01*
D02*
G37*
G36*
X38583Y141867D02*
X37733Y141755D01*
X36941Y141427D01*
X36261Y140905D01*
X35739Y140225D01*
X35411Y139433D01*
X35299Y138583D01*
X35411Y137733D01*
X35739Y136941D01*
X36261Y136260D01*
X36941Y135739D01*
X37733Y135411D01*
X38583Y135299D01*
X39433Y135411D01*
X40225Y135739D01*
X40905Y136260D01*
X41427Y136941D01*
X41755Y137733D01*
X41867Y138583D01*
X41755Y139433D01*
X41427Y140225D01*
X40905Y140905D01*
X40225Y141427D01*
X39433Y141755D01*
X38583Y141867D01*
D02*
G37*
G36*
X30709Y133993D02*
X29859Y133881D01*
X29067Y133553D01*
X28387Y133031D01*
X27865Y132351D01*
X27537Y131559D01*
X27425Y130709D01*
X27537Y129859D01*
X27865Y129067D01*
X28387Y128386D01*
X29067Y127865D01*
X29859Y127537D01*
X30709Y127425D01*
X31559Y127537D01*
X32351Y127865D01*
X33031Y128386D01*
X33553Y129067D01*
X33881Y129859D01*
X33993Y130709D01*
X33881Y131559D01*
X33553Y132351D01*
X33031Y133031D01*
X32351Y133553D01*
X31559Y133881D01*
X30709Y133993D01*
D02*
G37*
G36*
X38583Y133993D02*
X37733Y133881D01*
X36941Y133553D01*
X36261Y133031D01*
X35739Y132351D01*
X35411Y131559D01*
X35299Y130709D01*
X35411Y129859D01*
X35739Y129067D01*
X36261Y128386D01*
X36941Y127865D01*
X37733Y127537D01*
X38583Y127425D01*
X39433Y127537D01*
X40225Y127865D01*
X40905Y128386D01*
X41427Y129067D01*
X41755Y129859D01*
X41867Y130709D01*
X41755Y131559D01*
X41427Y132351D01*
X40905Y133031D01*
X40225Y133553D01*
X39433Y133881D01*
X38583Y133993D01*
D02*
G37*
G36*
Y126119D02*
X37733Y126007D01*
X36941Y125679D01*
X36261Y125157D01*
X35739Y124477D01*
X35411Y123685D01*
X35299Y122835D01*
X35411Y121985D01*
X35739Y121193D01*
X36261Y120512D01*
X36941Y119991D01*
X37733Y119663D01*
X38583Y119551D01*
X39433Y119663D01*
X40225Y119991D01*
X40905Y120512D01*
X41427Y121193D01*
X41755Y121985D01*
X41867Y122835D01*
X41755Y123685D01*
X41427Y124477D01*
X40905Y125157D01*
X40225Y125679D01*
X39433Y126007D01*
X38583Y126119D01*
D02*
G37*
G36*
X30709D02*
X29859Y126007D01*
X29067Y125679D01*
X28387Y125157D01*
X27865Y124477D01*
X27537Y123685D01*
X27425Y122835D01*
X27537Y121985D01*
X27865Y121193D01*
X28387Y120512D01*
X29067Y119991D01*
X29859Y119663D01*
X30709Y119551D01*
X31559Y119663D01*
X32351Y119991D01*
X33031Y120512D01*
X33553Y121193D01*
X33881Y121985D01*
X33993Y122835D01*
X33881Y123685D01*
X33553Y124477D01*
X33031Y125157D01*
X32351Y125679D01*
X31559Y126007D01*
X30709Y126119D01*
D02*
G37*
G36*
X38583Y118245D02*
X37733Y118133D01*
X36941Y117805D01*
X36261Y117283D01*
X35739Y116603D01*
X35411Y115811D01*
X35299Y114961D01*
X35411Y114111D01*
X35739Y113319D01*
X36261Y112638D01*
X36941Y112117D01*
X37733Y111788D01*
X38583Y111677D01*
X39433Y111788D01*
X40225Y112117D01*
X40905Y112638D01*
X41427Y113319D01*
X41755Y114111D01*
X41867Y114961D01*
X41755Y115811D01*
X41427Y116603D01*
X40905Y117283D01*
X40225Y117805D01*
X39433Y118133D01*
X38583Y118245D01*
D02*
G37*
G36*
X30709D02*
X29859Y118133D01*
X29067Y117805D01*
X28387Y117283D01*
X27865Y116603D01*
X27537Y115811D01*
X27425Y114961D01*
X27537Y114111D01*
X27865Y113319D01*
X28387Y112638D01*
X29067Y112117D01*
X29859Y111788D01*
X30709Y111677D01*
X31559Y111788D01*
X32351Y112117D01*
X33031Y112638D01*
X33553Y113319D01*
X33881Y114111D01*
X33993Y114961D01*
X33881Y115811D01*
X33553Y116603D01*
X33031Y117283D01*
X32351Y117805D01*
X31559Y118133D01*
X30709Y118245D01*
D02*
G37*
G36*
X53589Y98424D02*
Y94691D01*
X57322D01*
X57232Y95375D01*
X56814Y96384D01*
X56148Y97251D01*
X55282Y97916D01*
X54272Y98334D01*
X53589Y98424D01*
D02*
G37*
G36*
X52789D02*
X52106Y98334D01*
X51096Y97916D01*
X50229Y97251D01*
X49564Y96384D01*
X49146Y95375D01*
X49056Y94691D01*
X52789D01*
Y98424D01*
D02*
G37*
G36*
X65000Y97972D02*
X64047Y97847D01*
X63159Y97479D01*
X62397Y96894D01*
X61812Y96132D01*
X61444Y95244D01*
X61319Y94291D01*
X61444Y93339D01*
X61812Y92451D01*
X62397Y91688D01*
X63159Y91103D01*
X64047Y90736D01*
X65000Y90610D01*
X65953Y90736D01*
X66840Y91103D01*
X67603Y91688D01*
X68188Y92451D01*
X68556Y93339D01*
X68681Y94291D01*
X68556Y95244D01*
X68188Y96132D01*
X67603Y96894D01*
X66840Y97479D01*
X65953Y97847D01*
X65000Y97972D01*
D02*
G37*
G36*
X57322Y93891D02*
X53589D01*
Y90159D01*
X54272Y90249D01*
X55282Y90667D01*
X56148Y91332D01*
X56814Y92199D01*
X57232Y93208D01*
X57322Y93891D01*
D02*
G37*
G36*
X52789D02*
X49056D01*
X49146Y93208D01*
X49564Y92199D01*
X50229Y91332D01*
X51096Y90667D01*
X52106Y90249D01*
X52789Y90159D01*
Y93891D01*
D02*
G37*
G36*
X22047Y94523D02*
X20658Y94386D01*
X19322Y93980D01*
X18091Y93322D01*
X17012Y92437D01*
X16126Y91358D01*
X15468Y90127D01*
X15063Y88791D01*
X14926Y87402D01*
X15063Y86012D01*
X15468Y84676D01*
X16126Y83445D01*
X17012Y82366D01*
X18091Y81481D01*
X19322Y80823D01*
X20658Y80418D01*
X22047Y80281D01*
X23436Y80418D01*
X24772Y80823D01*
X26003Y81481D01*
X27082Y82366D01*
X27968Y83445D01*
X28626Y84676D01*
X29031Y86012D01*
X29168Y87402D01*
X29031Y88791D01*
X28626Y90127D01*
X27968Y91358D01*
X27082Y92437D01*
X26003Y93322D01*
X24772Y93980D01*
X23436Y94386D01*
X22047Y94523D01*
D02*
G37*
G36*
X65000Y84193D02*
X64047Y84067D01*
X63159Y83700D01*
X62397Y83115D01*
X61812Y82352D01*
X61444Y81464D01*
X61319Y80512D01*
X61444Y79559D01*
X61812Y78671D01*
X62397Y77909D01*
X63159Y77324D01*
X64047Y76956D01*
X65000Y76831D01*
X65953Y76956D01*
X66840Y77324D01*
X67603Y77909D01*
X68188Y78671D01*
X68556Y79559D01*
X68681Y80512D01*
X68556Y81464D01*
X68188Y82352D01*
X67603Y83115D01*
X66840Y83700D01*
X65953Y84067D01*
X65000Y84193D01*
D02*
G37*
G36*
X53189D02*
X52236Y84067D01*
X51348Y83700D01*
X50586Y83115D01*
X50001Y82352D01*
X49633Y81464D01*
X49508Y80512D01*
X49633Y79559D01*
X50001Y78671D01*
X50586Y77909D01*
X51348Y77324D01*
X52236Y76956D01*
X53189Y76831D01*
X54142Y76956D01*
X55029Y77324D01*
X55792Y77909D01*
X56377Y78671D01*
X56745Y79559D01*
X56870Y80512D01*
X56745Y81464D01*
X56377Y82352D01*
X55792Y83115D01*
X55029Y83700D01*
X54142Y84067D01*
X53189Y84193D01*
D02*
G37*
G36*
X53589Y61023D02*
Y57290D01*
X57322D01*
X57232Y57973D01*
X56814Y58982D01*
X56148Y59849D01*
X55282Y60514D01*
X54272Y60933D01*
X53589Y61023D01*
D02*
G37*
G36*
X52789D02*
X52106Y60933D01*
X51096Y60514D01*
X50230Y59849D01*
X49564Y58982D01*
X49146Y57973D01*
X49056Y57290D01*
X52789D01*
Y61023D01*
D02*
G37*
G36*
X65000Y60571D02*
X64047Y60445D01*
X63160Y60078D01*
X62397Y59493D01*
X61812Y58730D01*
X61444Y57842D01*
X61319Y56890D01*
X61444Y55937D01*
X61812Y55049D01*
X62397Y54287D01*
X63160Y53702D01*
X64047Y53334D01*
X65000Y53209D01*
X65953Y53334D01*
X66840Y53702D01*
X67603Y54287D01*
X68188Y55049D01*
X68556Y55937D01*
X68681Y56890D01*
X68556Y57842D01*
X68188Y58730D01*
X67603Y59493D01*
X66840Y60078D01*
X65953Y60445D01*
X65000Y60571D01*
D02*
G37*
G36*
X57322Y56490D02*
X53589D01*
Y52757D01*
X54272Y52847D01*
X55282Y53265D01*
X56148Y53930D01*
X56814Y54797D01*
X57232Y55806D01*
X57322Y56490D01*
D02*
G37*
G36*
X52789D02*
X49056D01*
X49146Y55806D01*
X49564Y54797D01*
X50230Y53930D01*
X51096Y53265D01*
X52106Y52847D01*
X52789Y52757D01*
Y56490D01*
D02*
G37*
G36*
X22047Y57121D02*
X20658Y56984D01*
X19322Y56579D01*
X18091Y55921D01*
X17012Y55035D01*
X16126Y53956D01*
X15468Y52725D01*
X15063Y51389D01*
X14926Y50000D01*
X15063Y48611D01*
X15468Y47275D01*
X16126Y46044D01*
X17012Y44965D01*
X18091Y44079D01*
X19322Y43421D01*
X20658Y43016D01*
X22047Y42879D01*
X23437Y43016D01*
X24772Y43421D01*
X26003Y44079D01*
X27082Y44965D01*
X27968Y46044D01*
X28626Y47275D01*
X29031Y48611D01*
X29168Y50000D01*
X29031Y51389D01*
X28626Y52725D01*
X27968Y53956D01*
X27082Y55035D01*
X26003Y55921D01*
X24772Y56579D01*
X23437Y56984D01*
X22047Y57121D01*
D02*
G37*
G36*
X65000Y46791D02*
X64047Y46666D01*
X63160Y46298D01*
X62397Y45713D01*
X61812Y44951D01*
X61444Y44063D01*
X61319Y43110D01*
X61444Y42158D01*
X61812Y41270D01*
X62397Y40507D01*
X63160Y39922D01*
X64047Y39555D01*
X65000Y39429D01*
X65953Y39555D01*
X66841Y39922D01*
X67603Y40507D01*
X68188Y41270D01*
X68556Y42158D01*
X68681Y43110D01*
X68556Y44063D01*
X68188Y44951D01*
X67603Y45713D01*
X66841Y46298D01*
X65953Y46666D01*
X65000Y46791D01*
D02*
G37*
G36*
X53189D02*
X52236Y46666D01*
X51348Y46298D01*
X50586Y45713D01*
X50001Y44951D01*
X49633Y44063D01*
X49508Y43110D01*
X49633Y42158D01*
X50001Y41270D01*
X50586Y40507D01*
X51348Y39922D01*
X52236Y39555D01*
X53189Y39429D01*
X54142Y39555D01*
X55029Y39922D01*
X55792Y40507D01*
X56377Y41270D01*
X56745Y42158D01*
X56870Y43110D01*
X56745Y44063D01*
X56377Y44951D01*
X55792Y45713D01*
X55029Y46298D01*
X54142Y46666D01*
X53189Y46791D01*
D02*
G37*
G36*
X148038Y30931D02*
Y18116D01*
X160852D01*
X160720Y19789D01*
X160235Y21810D01*
X159440Y23730D01*
X158354Y25502D01*
X157004Y27083D01*
X155423Y28432D01*
X153651Y29518D01*
X151731Y30314D01*
X149710Y30799D01*
X148038Y30931D01*
D02*
G37*
G36*
X147238D02*
X145566Y30799D01*
X143545Y30314D01*
X141624Y29518D01*
X139852Y28432D01*
X138272Y27083D01*
X136922Y25502D01*
X135836Y23730D01*
X135040Y21810D01*
X134555Y19789D01*
X134424Y18116D01*
X147238D01*
Y30931D01*
D02*
G37*
G36*
X18116D02*
Y18116D01*
X30931D01*
X30799Y19789D01*
X30314Y21810D01*
X29518Y23730D01*
X28432Y25502D01*
X27083Y27083D01*
X25502Y28432D01*
X23730Y29518D01*
X21810Y30314D01*
X19789Y30799D01*
X18116Y30931D01*
D02*
G37*
G36*
X17316D02*
X15644Y30799D01*
X13623Y30314D01*
X11703Y29518D01*
X9931Y28432D01*
X8350Y27083D01*
X7001Y25502D01*
X5915Y23730D01*
X5119Y21810D01*
X4634Y19789D01*
X4502Y18116D01*
X17316D01*
Y30931D01*
D02*
G37*
G36*
X160852Y17316D02*
X148038D01*
Y4502D01*
X149710Y4634D01*
X151731Y5119D01*
X153651Y5915D01*
X155423Y7001D01*
X157004Y8350D01*
X158354Y9931D01*
X159440Y11703D01*
X160235Y13623D01*
X160720Y15644D01*
X160852Y17316D01*
D02*
G37*
G36*
X147238D02*
X134424D01*
X134555Y15644D01*
X135040Y13623D01*
X135836Y11703D01*
X136922Y9931D01*
X138272Y8350D01*
X139852Y7001D01*
X141624Y5915D01*
X143545Y5119D01*
X145566Y4634D01*
X147238Y4502D01*
Y17316D01*
D02*
G37*
G36*
X30931D02*
X18116D01*
Y4502D01*
X19789Y4634D01*
X21810Y5119D01*
X23730Y5915D01*
X25502Y7001D01*
X27083Y8350D01*
X28432Y9931D01*
X29518Y11703D01*
X30314Y13623D01*
X30799Y15644D01*
X30931Y17316D01*
D02*
G37*
G36*
X17316D02*
X4502D01*
X4634Y15644D01*
X5119Y13623D01*
X5915Y11703D01*
X7001Y9931D01*
X8350Y8350D01*
X9931Y7001D01*
X11703Y5915D01*
X13623Y5119D01*
X15644Y4634D01*
X17316Y4502D01*
Y17316D01*
D02*
G37*
%LPD*%
D13*
X96639Y342539D02*
X107618D01*
X94000Y339900D02*
X96639Y342539D01*
X76963Y339900D02*
X94000D01*
X76900Y339963D02*
Y350200D01*
D47*
X98050Y239600D02*
Y259100D01*
X90310Y239600D02*
Y259100D01*
X82570Y239600D02*
Y259100D01*
X76900Y339963D02*
X76963Y339900D01*
D48*
X60276Y231063D02*
X60276Y231063D01*
X104974D01*
X103850Y146100D02*
X122200D01*
X127500Y151400D01*
Y194100D01*
X112563Y209037D02*
X127500Y194100D01*
X112563Y209037D02*
Y217268D01*
X51693Y231102D02*
X60276D01*
X134850Y362042D02*
Y406894D01*
X130091Y357283D02*
X134850Y362042D01*
X108660Y416637D02*
X125106D01*
X134850Y406894D01*
X22441Y283858D02*
X81890D01*
X89764D01*
X97638D01*
X105512D01*
X113386D01*
X121260D01*
X129134D01*
X137008D01*
X144882D01*
X51653Y231142D02*
X51693Y231102D01*
D52*
X65000Y94291D02*
D03*
Y80512D02*
D03*
X53189D02*
D03*
Y94291D02*
D03*
X53189Y56890D02*
D03*
Y43110D02*
D03*
X65000D02*
D03*
Y56890D02*
D03*
D53*
X22047Y87402D02*
D03*
X22047Y50000D02*
D03*
D54*
X50748Y292559D02*
D03*
Y302559D02*
D03*
Y312559D02*
D03*
Y322559D02*
D03*
Y332559D02*
D03*
Y342559D02*
D03*
Y352559D02*
D03*
Y362559D02*
D03*
Y372559D02*
D03*
X87677Y396535D02*
D03*
X77677D02*
D03*
X41653Y271142D02*
D03*
Y261142D02*
D03*
Y251142D02*
D03*
Y241142D02*
D03*
Y231142D02*
D03*
X51653Y261142D02*
D03*
Y221142D02*
D03*
Y231142D02*
D03*
Y241142D02*
D03*
Y251142D02*
D03*
Y271142D02*
D03*
X41653Y221142D02*
D03*
D55*
X38583Y114961D02*
D03*
Y122835D02*
D03*
Y130709D02*
D03*
Y138583D02*
D03*
Y146457D02*
D03*
Y154331D02*
D03*
Y162205D02*
D03*
Y170079D02*
D03*
Y177953D02*
D03*
Y185827D02*
D03*
Y193701D02*
D03*
Y201575D02*
D03*
X30709Y201575D02*
D03*
Y193701D02*
D03*
Y185827D02*
D03*
Y177953D02*
D03*
Y170079D02*
D03*
Y162205D02*
D03*
Y154331D02*
D03*
Y146457D02*
D03*
Y138583D02*
D03*
Y130709D02*
D03*
Y114961D02*
D03*
Y122835D02*
D03*
D56*
X17717Y431102D02*
D03*
X147638D02*
D03*
Y17717D02*
D03*
X17717D02*
D03*
D57*
X136221Y411811D02*
D03*
X146063Y392126D02*
D03*
Y352756D02*
D03*
Y313386D02*
D03*
X136221Y214961D02*
D03*
X146063Y195276D02*
D03*
X136221Y175591D02*
D03*
X146063Y155905D02*
D03*
X136221Y136221D02*
D03*
X146063Y116535D02*
D03*
X136221Y96850D02*
D03*
X146063Y77165D02*
D03*
X136221Y57480D02*
D03*
X146063Y37795D02*
D03*
X126378Y431496D02*
D03*
X116535Y372441D02*
D03*
Y333071D02*
D03*
Y214961D02*
D03*
Y136221D02*
D03*
Y96850D02*
D03*
X126378Y77165D02*
D03*
X116535Y57480D02*
D03*
X126378Y37795D02*
D03*
X116535Y18110D02*
D03*
X96850Y411811D02*
D03*
X106693Y392126D02*
D03*
X96850Y372441D02*
D03*
Y214961D02*
D03*
X106693Y195276D02*
D03*
Y77165D02*
D03*
X96850Y57480D02*
D03*
X106693Y37795D02*
D03*
X96850Y18110D02*
D03*
X87008Y431496D02*
D03*
X77165Y175591D02*
D03*
X87008Y155905D02*
D03*
X77165Y136221D02*
D03*
X87008Y116535D02*
D03*
Y37795D02*
D03*
X77165Y18110D02*
D03*
X67323Y431496D02*
D03*
X57480Y411811D02*
D03*
Y372441D02*
D03*
X67323Y352756D02*
D03*
Y274016D02*
D03*
X57480Y18110D02*
D03*
X47638Y431496D02*
D03*
X37795Y411811D02*
D03*
Y372441D02*
D03*
Y333071D02*
D03*
Y293701D02*
D03*
Y96850D02*
D03*
Y57480D02*
D03*
X47638Y37795D02*
D03*
X37795Y18110D02*
D03*
X18110Y411811D02*
D03*
X27953Y392126D02*
D03*
X18110Y136221D02*
D03*
Y96850D02*
D03*
X27953Y77165D02*
D03*
Y37795D02*
D03*
X104974Y231063D02*
D03*
X90310Y239600D02*
D03*
X98050D02*
D03*
X82570D02*
D03*
Y259100D02*
D03*
X90310D02*
D03*
X98050D02*
D03*
X102362Y350000D02*
D03*
X107618Y342539D02*
D03*
X45350Y347350D02*
D03*
X76900Y350200D02*
D03*
Y339963D02*
D03*
X65050Y87600D02*
D03*
X64950Y49900D02*
D03*
X112563Y217268D02*
D03*
X142563Y179366D02*
D03*
X104900Y237000D02*
D03*
X134850Y406894D02*
D03*
X114733Y175658D02*
D03*
X130091Y357283D02*
D03*
X108660Y416637D02*
D03*
X103850Y146100D02*
D03*
X98980Y191905D02*
D03*
X157153Y402433D02*
D03*
X156759Y396445D02*
D03*
X119447Y430348D02*
D03*
X133770Y422637D02*
D03*
X128463Y390610D02*
D03*
X90745Y388418D02*
D03*
X69200Y241700D02*
D03*
X81890Y283858D02*
D03*
X89764D02*
D03*
X97638D02*
D03*
X105512D02*
D03*
X113386D02*
D03*
X121260D02*
D03*
X129134D02*
D03*
X137008D02*
D03*
X144882D02*
D03*
X114961Y357087D02*
D03*
X97213Y175619D02*
D03*
X97647Y146300D02*
D03*
X64376Y231147D02*
D03*
X22441Y283858D02*
D03*
M02*
