G04*
G04 #@! TF.GenerationSoftware,Altium Limited,Altium Designer,20.2.6 (244)*
G04*
G04 Layer_Color=65535*
%FSLAX25Y25*%
%MOIN*%
G70*
G04*
G04 #@! TF.SameCoordinates,6C8D4563-3A2C-4F61-AD53-F99773DFA7E0*
G04*
G04*
G04 #@! TF.FilePolarity,Positive*
G04*
G01*
G75*
%ADD10C,0.00984*%
%ADD11C,0.02362*%
%ADD12C,0.00787*%
%ADD13C,0.01000*%
%ADD14C,0.00197*%
%ADD15C,0.00620*%
%ADD16C,0.00800*%
%ADD17C,0.01181*%
G36*
X149833Y75215D02*
X149957Y75200D01*
X150066Y75179D01*
X150146Y75164D01*
X150183Y75157D01*
X150205D01*
X150219Y75150D01*
X150226D01*
X153529Y74318D01*
X153689Y74260D01*
X153835Y74187D01*
X153966Y74100D01*
X154076Y74005D01*
X154163Y73918D01*
X154229Y73845D01*
X154251Y73815D01*
X154265Y73801D01*
X154272Y73786D01*
X154280Y73779D01*
X154382Y73619D01*
X154455Y73458D01*
X154506Y73298D01*
X154542Y73159D01*
X154564Y73035D01*
X154571Y72984D01*
Y72941D01*
X154579Y72904D01*
Y71898D01*
X150766Y72853D01*
X150642Y72882D01*
X150540Y72890D01*
X150452D01*
X150380Y72882D01*
X150329Y72868D01*
X150285Y72853D01*
X150263Y72846D01*
X150256Y72839D01*
X150197Y72795D01*
X150161Y72729D01*
X150132Y72664D01*
X150110Y72591D01*
X150095Y72525D01*
X150088Y72474D01*
Y72423D01*
X150095Y72306D01*
X150117Y72204D01*
X150139Y72110D01*
X150168Y72037D01*
X150205Y71971D01*
X150226Y71927D01*
X150248Y71898D01*
X150256Y71891D01*
X150329Y71818D01*
X150409Y71760D01*
X150489Y71709D01*
X150576Y71672D01*
X150649Y71636D01*
X150708Y71614D01*
X150751Y71607D01*
X150759Y71599D01*
X150766D01*
X154579Y70644D01*
Y68494D01*
X150773Y69441D01*
X150649Y69471D01*
X150547Y69485D01*
X150452D01*
X150380Y69478D01*
X150329Y69463D01*
X150285Y69449D01*
X150263Y69441D01*
X150256Y69434D01*
X150197Y69383D01*
X150161Y69325D01*
X150132Y69252D01*
X150110Y69179D01*
X150095Y69113D01*
X150088Y69062D01*
Y69011D01*
X150095Y68902D01*
X150117Y68800D01*
X150139Y68713D01*
X150168Y68639D01*
X150205Y68581D01*
X150226Y68537D01*
X150248Y68508D01*
X150256Y68501D01*
X150329Y68428D01*
X150409Y68370D01*
X150489Y68319D01*
X150576Y68282D01*
X150649Y68253D01*
X150708Y68231D01*
X150751Y68224D01*
X150759Y68217D01*
X150766D01*
X154579Y67254D01*
Y65104D01*
X148805Y66547D01*
Y68720D01*
X149505Y68552D01*
Y68574D01*
X149352Y68705D01*
X149221Y68836D01*
X149111Y68975D01*
X149024Y69099D01*
X148951Y69208D01*
X148922Y69252D01*
X148900Y69288D01*
X148885Y69325D01*
X148871Y69347D01*
X148863Y69361D01*
Y69369D01*
X148790Y69543D01*
X148739Y69726D01*
X148696Y69901D01*
X148674Y70068D01*
X148659Y70141D01*
Y70207D01*
X148652Y70265D01*
X148645Y70316D01*
Y70542D01*
X148652Y70659D01*
X148659Y70761D01*
X148674Y70848D01*
X148681Y70921D01*
X148696Y70972D01*
X148703Y71001D01*
Y71016D01*
X148725Y71111D01*
X148747Y71191D01*
X148776Y71264D01*
X148805Y71330D01*
X148827Y71381D01*
X148849Y71417D01*
X148856Y71439D01*
X148863Y71446D01*
X148907Y71504D01*
X148958Y71556D01*
X149002Y71607D01*
X149046Y71643D01*
X149089Y71672D01*
X149118Y71694D01*
X149140Y71701D01*
X149148Y71709D01*
X149279Y71774D01*
X149344Y71803D01*
X149410Y71825D01*
X149461Y71840D01*
X149505Y71854D01*
X149534Y71862D01*
X149541D01*
X149454Y71935D01*
X149374Y72008D01*
X149301Y72073D01*
X149235Y72139D01*
X149184Y72197D01*
X149148Y72241D01*
X149126Y72270D01*
X149118Y72277D01*
X149053Y72365D01*
X149002Y72452D01*
X148958Y72532D01*
X148914Y72605D01*
X148885Y72671D01*
X148863Y72722D01*
X148856Y72751D01*
X148849Y72766D01*
X148783Y72948D01*
X148754Y73028D01*
X148732Y73108D01*
X148717Y73167D01*
X148703Y73218D01*
X148696Y73254D01*
Y73261D01*
X148666Y73444D01*
X148659Y73531D01*
X148652Y73611D01*
X148645Y73677D01*
Y73910D01*
X148659Y74034D01*
X148666Y74151D01*
X148681Y74253D01*
X148696Y74333D01*
X148710Y74391D01*
X148717Y74428D01*
X148725Y74442D01*
X148754Y74552D01*
X148790Y74647D01*
X148834Y74741D01*
X148871Y74814D01*
X148907Y74872D01*
X148936Y74923D01*
X148958Y74953D01*
X148965Y74960D01*
X149038Y75026D01*
X149118Y75084D01*
X149199Y75128D01*
X149272Y75157D01*
X149344Y75179D01*
X149403Y75200D01*
X149439Y75208D01*
X149446D01*
X149454D01*
X149578Y75222D01*
X149709D01*
X149833Y75215D01*
D02*
G37*
G36*
X154586Y64040D02*
Y61896D01*
X153893Y62064D01*
Y62035D01*
X154039Y61904D01*
X154163Y61772D01*
X154272Y61641D01*
X154360Y61517D01*
X154426Y61408D01*
X154455Y61364D01*
X154476Y61328D01*
X154491Y61291D01*
X154506Y61269D01*
X154513Y61255D01*
Y61247D01*
X154586Y61072D01*
X154637Y60898D01*
X154673Y60723D01*
X154695Y60562D01*
X154710Y60489D01*
Y60424D01*
X154717Y60358D01*
X154724Y60314D01*
Y60074D01*
X154717Y59950D01*
X154702Y59833D01*
X154688Y59738D01*
X154673Y59658D01*
X154666Y59600D01*
X154651Y59563D01*
Y59549D01*
X154615Y59447D01*
X154579Y59352D01*
X154535Y59272D01*
X154491Y59199D01*
X154455Y59148D01*
X154426Y59104D01*
X154404Y59075D01*
X154396Y59068D01*
X154331Y58995D01*
X154258Y58929D01*
X154185Y58886D01*
X154112Y58849D01*
X154039Y58820D01*
X153988Y58805D01*
X153952Y58791D01*
X153937D01*
X153813Y58776D01*
X153689D01*
X153565Y58784D01*
X153441Y58798D01*
X153339Y58820D01*
X153252Y58834D01*
X153223Y58842D01*
X153201D01*
X153186Y58849D01*
X153179D01*
X148805Y59943D01*
Y62093D01*
X152625Y61138D01*
X152749Y61116D01*
X152851Y61102D01*
X152938D01*
X153011Y61116D01*
X153070Y61124D01*
X153106Y61138D01*
X153135Y61145D01*
X153142Y61153D01*
X153201Y61204D01*
X153244Y61262D01*
X153274Y61328D01*
X153296Y61401D01*
X153310Y61459D01*
X153317Y61510D01*
Y61561D01*
X153310Y61678D01*
X153288Y61780D01*
X153259Y61867D01*
X153230Y61940D01*
X153201Y61998D01*
X153172Y62042D01*
X153150Y62071D01*
X153142Y62078D01*
X153070Y62151D01*
X152989Y62210D01*
X152902Y62261D01*
X152814Y62305D01*
X152742Y62334D01*
X152683Y62356D01*
X152639Y62363D01*
X152632Y62370D01*
X152625D01*
X148805Y63332D01*
Y65483D01*
X154586Y64040D01*
D02*
G37*
G36*
Y57515D02*
Y55365D01*
X148805Y56808D01*
Y58966D01*
X154586Y57515D01*
D02*
G37*
G36*
X150102Y55692D02*
Y54789D01*
X152851Y54103D01*
X152931Y54089D01*
X153004D01*
X153062D01*
X153113Y54103D01*
X153150Y54118D01*
X153179Y54132D01*
X153193Y54140D01*
X153201Y54147D01*
X153237Y54198D01*
X153266Y54249D01*
X153281Y54315D01*
X153296Y54380D01*
X153303Y54439D01*
Y54891D01*
X154586Y54570D01*
X154593Y54446D01*
X154601Y54329D01*
X154608Y54227D01*
X154615Y54132D01*
Y54052D01*
X154622Y53987D01*
Y53936D01*
X154630Y53826D01*
Y53615D01*
X154637Y53527D01*
Y53170D01*
X154630Y53010D01*
X154622Y52871D01*
X154608Y52747D01*
X154601Y52653D01*
X154586Y52580D01*
X154579Y52536D01*
Y52521D01*
X154550Y52405D01*
X154520Y52303D01*
X154484Y52215D01*
X154455Y52142D01*
X154426Y52084D01*
X154404Y52047D01*
X154389Y52018D01*
X154382Y52011D01*
X154323Y51946D01*
X154258Y51894D01*
X154185Y51851D01*
X154119Y51822D01*
X154054Y51800D01*
X154003Y51785D01*
X153966Y51778D01*
X153952D01*
X153835Y51771D01*
X153704Y51778D01*
X153580Y51792D01*
X153456Y51814D01*
X153347Y51829D01*
X153266Y51851D01*
X153230Y51858D01*
X153208D01*
X153193Y51865D01*
X153186D01*
X147041Y53418D01*
Y55576D01*
X148805Y55109D01*
Y56013D01*
X150102Y55692D01*
D02*
G37*
G36*
X154586Y50488D02*
Y48330D01*
X146961Y50247D01*
Y52397D01*
X154586Y50488D01*
D02*
G37*
G36*
Y45392D02*
X153259Y45465D01*
Y43613D01*
X154579Y43030D01*
X154586Y40551D01*
X148477Y43824D01*
X148353Y43897D01*
X148244Y43977D01*
X148134Y44058D01*
X148047Y44123D01*
X147974Y44189D01*
X147916Y44233D01*
X147886Y44262D01*
X147872Y44276D01*
X147770Y44378D01*
X147682Y44480D01*
X147602Y44575D01*
X147529Y44663D01*
X147478Y44743D01*
X147434Y44801D01*
X147405Y44838D01*
X147398Y44852D01*
X147325Y44976D01*
X147267Y45093D01*
X147208Y45210D01*
X147165Y45319D01*
X147128Y45406D01*
X147106Y45479D01*
X147099Y45501D01*
X147092Y45523D01*
X147084Y45530D01*
Y45537D01*
X147048Y45676D01*
X147019Y45815D01*
X146997Y45946D01*
X146982Y46062D01*
X146968Y46165D01*
Y46245D01*
X146961Y46274D01*
Y47593D01*
X154586Y47878D01*
Y45392D01*
D02*
G37*
G36*
X140610Y99484D02*
X138015D01*
X140610Y98478D01*
Y97894D01*
X138015Y96874D01*
X140610D01*
Y96232D01*
X136892D01*
Y96947D01*
X139706Y98201D01*
X136892Y99440D01*
Y100125D01*
X140610D01*
Y99484D01*
D02*
G37*
G36*
X139079Y95561D02*
X139283Y95532D01*
X139517Y95474D01*
X139750Y95401D01*
X139969Y95284D01*
X140173Y95124D01*
X140187Y95109D01*
X140246Y95037D01*
X140319Y94935D01*
X140406Y94774D01*
X140493Y94585D01*
X140566Y94351D01*
X140625Y94074D01*
X140639Y93754D01*
Y93666D01*
X140625Y93608D01*
X140610Y93447D01*
X140581Y93243D01*
X140523Y93025D01*
X140435Y92806D01*
X140333Y92587D01*
X140173Y92383D01*
X140144Y92369D01*
X140085Y92310D01*
X139969Y92237D01*
X139808Y92150D01*
X139619Y92062D01*
X139371Y91975D01*
X139094Y91917D01*
X138758Y91887D01*
X138744D01*
X138715D01*
X138671D01*
X138598Y91902D01*
X138438Y91917D01*
X138233Y91946D01*
X138000Y92004D01*
X137767Y92092D01*
X137548Y92194D01*
X137359Y92354D01*
X137344Y92383D01*
X137286Y92441D01*
X137213Y92558D01*
X137111Y92704D01*
X137023Y92908D01*
X136951Y93141D01*
X136892Y93433D01*
X136878Y93754D01*
Y93899D01*
X136907Y94060D01*
X136936Y94264D01*
X136994Y94483D01*
X137082Y94716D01*
X137198Y94935D01*
X137359Y95124D01*
X137373Y95139D01*
X137446Y95197D01*
X137548Y95270D01*
X137709Y95357D01*
X137898Y95445D01*
X138146Y95518D01*
X138423Y95576D01*
X138758Y95591D01*
X138773D01*
X138802D01*
X138846D01*
X138904D01*
X139079Y95561D01*
D02*
G37*
G36*
X137490Y90575D02*
X140610D01*
Y89875D01*
X137490D01*
Y88811D01*
X136892D01*
Y91625D01*
X137490D01*
Y90575D01*
D02*
G37*
G36*
X140610Y87747D02*
X137855Y85778D01*
X140610D01*
Y85108D01*
X136892D01*
Y85808D01*
X139604Y87761D01*
X136892D01*
Y88417D01*
X140610D01*
Y87747D01*
D02*
G37*
G36*
Y83927D02*
X139604Y83504D01*
Y82265D01*
X139006Y82512D01*
Y83256D01*
X137607Y82673D01*
X140610Y81448D01*
Y80748D01*
X136892Y82308D01*
Y83052D01*
X140610Y84670D01*
Y83927D01*
D02*
G37*
G36*
Y79611D02*
X139035D01*
Y77774D01*
X140610D01*
Y77089D01*
X136892D01*
Y77774D01*
X138438D01*
Y79611D01*
X136892D01*
Y80282D01*
X140610D01*
Y79611D01*
D02*
G37*
G36*
X138146Y76622D02*
X138263Y76593D01*
X138409Y76535D01*
X138569Y76476D01*
X138715Y76374D01*
X138860Y76243D01*
X138875Y76228D01*
X138919Y76170D01*
X138977Y76083D01*
X139050Y75951D01*
X139123Y75791D01*
X139196Y75587D01*
X139269Y75354D01*
X139313Y75077D01*
X138715Y74975D01*
Y74989D01*
X138700Y75047D01*
X138671Y75135D01*
X138642Y75237D01*
X138554Y75470D01*
X138496Y75572D01*
X138438Y75674D01*
X138423Y75689D01*
X138409Y75718D01*
X138365Y75747D01*
X138306Y75806D01*
X138161Y75879D01*
X138073Y75908D01*
X137971Y75922D01*
X137957D01*
X137927D01*
X137840Y75908D01*
X137738Y75879D01*
X137636Y75806D01*
X137621Y75791D01*
X137577Y75718D01*
X137534Y75616D01*
X137519Y75456D01*
Y74523D01*
X140610D01*
Y73837D01*
X136892D01*
Y75587D01*
X136907Y75689D01*
X136921Y75820D01*
X136951Y75951D01*
X137009Y76097D01*
X137067Y76228D01*
X137155Y76345D01*
X137169Y76360D01*
X137198Y76389D01*
X137271Y76433D01*
X137344Y76491D01*
X137461Y76549D01*
X137592Y76593D01*
X137752Y76622D01*
X137942Y76637D01*
X137971D01*
X138029D01*
X138146Y76622D01*
D02*
G37*
G36*
X140610Y71257D02*
X138015D01*
X140610Y70236D01*
Y69653D01*
X138015Y68632D01*
X140610D01*
Y67991D01*
X136892D01*
Y68720D01*
X139706Y69959D01*
X136892Y71198D01*
Y71884D01*
X140610D01*
Y71257D01*
D02*
G37*
G36*
Y66810D02*
X139604Y66387D01*
Y65148D01*
X139006Y65381D01*
Y66139D01*
X137607Y65556D01*
X140610Y64317D01*
Y63631D01*
X136892Y65191D01*
Y65935D01*
X140610Y67553D01*
Y66810D01*
D02*
G37*
G36*
Y60745D02*
X136892D01*
Y63281D01*
X137490D01*
Y61415D01*
X138423D01*
Y63179D01*
X139035D01*
Y61415D01*
X140012D01*
Y63311D01*
X140610D01*
Y60745D01*
D02*
G37*
G36*
X137490Y59272D02*
X140610D01*
Y58601D01*
X137490D01*
Y57537D01*
X136892D01*
Y60351D01*
X137490D01*
Y59272D01*
D02*
G37*
G36*
X138481Y54402D02*
X138831Y54373D01*
X139225Y54329D01*
X139648Y54242D01*
X140071Y54140D01*
X140085D01*
X140114Y54125D01*
X140187Y54111D01*
X140260Y54081D01*
X140362Y54038D01*
X140479Y53994D01*
X140610Y53950D01*
X140756Y53892D01*
X141077Y53746D01*
X141441Y53557D01*
X141806Y53352D01*
X142170Y53105D01*
X142185Y53090D01*
X142214Y53075D01*
X142258Y53032D01*
X142331Y52988D01*
X142403Y52915D01*
X142506Y52842D01*
X142724Y52638D01*
X142987Y52405D01*
X143264Y52113D01*
X143541Y51792D01*
X143803Y51442D01*
X143818Y51428D01*
X143832Y51399D01*
X143861Y51340D01*
X143920Y51267D01*
X143978Y51180D01*
X144036Y51078D01*
X144109Y50947D01*
X144182Y50815D01*
X144343Y50495D01*
X144503Y50145D01*
X144663Y49751D01*
X144794Y49328D01*
Y49314D01*
X144809Y49255D01*
X144838Y49168D01*
X144867Y49051D01*
X144897Y48906D01*
X144926Y48745D01*
X144984Y48410D01*
Y48395D01*
X144999Y48337D01*
Y48235D01*
X145013Y48118D01*
X145028Y47987D01*
Y47827D01*
X145042Y47477D01*
Y47360D01*
X145028Y47229D01*
Y47054D01*
X145013Y46850D01*
X144984Y46617D01*
X144955Y46383D01*
X144911Y46121D01*
Y46092D01*
X144882Y46004D01*
X144853Y45873D01*
X144809Y45698D01*
X144751Y45494D01*
X144678Y45275D01*
X144503Y44809D01*
X144226Y44925D01*
Y44940D01*
X144240Y44969D01*
X144270Y45027D01*
X144299Y45115D01*
X144328Y45217D01*
X144372Y45319D01*
X144415Y45450D01*
X144459Y45610D01*
X144547Y45931D01*
X144634Y46310D01*
X144693Y46704D01*
X144736Y47112D01*
Y47652D01*
X144722Y47812D01*
X144707Y48133D01*
X144663Y48497D01*
X144590Y48891D01*
X144503Y49285D01*
Y49299D01*
X144488Y49328D01*
X144474Y49387D01*
X144445Y49460D01*
X144415Y49562D01*
X144372Y49664D01*
X144270Y49926D01*
X144138Y50232D01*
X143978Y50568D01*
X143789Y50918D01*
X143570Y51267D01*
X143555Y51282D01*
X143541Y51311D01*
X143511Y51355D01*
X143453Y51428D01*
X143395Y51501D01*
X143322Y51588D01*
X143132Y51807D01*
X142899Y52069D01*
X142637Y52332D01*
X142331Y52609D01*
X141981Y52871D01*
X141966Y52886D01*
X141937Y52900D01*
X141893Y52930D01*
X141820Y52988D01*
X141733Y53032D01*
X141631Y53105D01*
X141514Y53177D01*
X141383Y53250D01*
X141077Y53411D01*
X140727Y53571D01*
X140348Y53732D01*
X139954Y53863D01*
X139939D01*
X139910Y53877D01*
X139852Y53892D01*
X139764Y53907D01*
X139677Y53936D01*
X139560Y53950D01*
X139429Y53979D01*
X139283Y54009D01*
X138948Y54052D01*
X138584Y54096D01*
X138204Y54111D01*
X137796D01*
X137782D01*
X137752D01*
X137694D01*
X137607Y54096D01*
X137519Y54081D01*
X137402D01*
X137271Y54052D01*
X137126Y54038D01*
X136805Y53979D01*
X136440Y53892D01*
X136061Y53790D01*
X135668Y53644D01*
X135653D01*
X135624Y53629D01*
X135565Y53600D01*
X135493Y53571D01*
X135390Y53527D01*
X135288Y53469D01*
X135026Y53338D01*
X134734Y53177D01*
X134414Y52973D01*
X134078Y52740D01*
X133743Y52463D01*
X133539Y52696D01*
X133553Y52711D01*
X133582Y52725D01*
X133626Y52769D01*
X133685Y52828D01*
X133772Y52886D01*
X133874Y52959D01*
X133976Y53046D01*
X134107Y53134D01*
X134399Y53338D01*
X134720Y53527D01*
X135099Y53732D01*
X135493Y53907D01*
X135507D01*
X135536Y53921D01*
X135595Y53950D01*
X135682Y53979D01*
X135784Y54009D01*
X135901Y54052D01*
X136032Y54096D01*
X136178Y54140D01*
X136513Y54227D01*
X136892Y54300D01*
X137300Y54373D01*
X137738Y54417D01*
X137752D01*
X137796D01*
X137855D01*
X137942D01*
X138044D01*
X138175D01*
X138321D01*
X138481Y54402D01*
D02*
G37*
G36*
X130521Y53921D02*
X130535Y53907D01*
X130579Y53863D01*
X130637Y53819D01*
X130798Y53673D01*
X131002Y53498D01*
X131235Y53280D01*
X131512Y53046D01*
X131789Y52784D01*
X132095Y52521D01*
X132110Y52507D01*
X132124Y52492D01*
X132168Y52448D01*
X132227Y52405D01*
X132387Y52259D01*
X132591Y52069D01*
X132839Y51865D01*
X133116Y51617D01*
X133393Y51355D01*
X133699Y51092D01*
X133714Y51078D01*
X133728Y51063D01*
X133772Y51020D01*
X133830Y50976D01*
X133991Y50830D01*
X134195Y50640D01*
X134443Y50422D01*
X134720Y50189D01*
X135011Y49926D01*
X135318Y49649D01*
X135332Y49635D01*
X135347Y49620D01*
X135390Y49576D01*
X135449Y49532D01*
X135609Y49387D01*
X135813Y49197D01*
X136061Y48978D01*
X136338Y48745D01*
X136615Y48483D01*
X136921Y48206D01*
Y48220D01*
X136936Y48249D01*
X136951Y48293D01*
X136965Y48351D01*
X136980Y48424D01*
X137009Y48512D01*
X137067Y48731D01*
X137140Y48993D01*
X137213Y49270D01*
X137300Y49576D01*
X137388Y49897D01*
Y49911D01*
X137402Y49941D01*
Y49984D01*
X137432Y50043D01*
X137446Y50116D01*
X137475Y50203D01*
X137519Y50422D01*
X137592Y50684D01*
X137665Y50976D01*
X137752Y51282D01*
X137840Y51603D01*
X137855Y51588D01*
X137884Y51544D01*
X137942Y51472D01*
X138015Y51370D01*
X138102Y51238D01*
X138219Y51092D01*
X138336Y50932D01*
X138481Y50743D01*
X138627Y50538D01*
X138788Y50320D01*
X139137Y49853D01*
X139517Y49358D01*
X139910Y48847D01*
X139925Y48833D01*
X139954Y48789D01*
X140012Y48716D01*
X140085Y48614D01*
X140187Y48483D01*
X140289Y48337D01*
X140420Y48177D01*
X140552Y47987D01*
X140712Y47797D01*
X140873Y47579D01*
X141222Y47112D01*
X141587Y46617D01*
X141981Y46106D01*
X141995Y46092D01*
X142024Y46048D01*
X142083Y45975D01*
X142156Y45873D01*
X142243Y45756D01*
X142360Y45610D01*
X142476Y45436D01*
X142622Y45261D01*
X142768Y45056D01*
X142928Y44852D01*
X143278Y44386D01*
X143643Y43890D01*
X144022Y43380D01*
X144036Y43365D01*
X144065Y43321D01*
X144124Y43249D01*
X144197Y43146D01*
X144284Y43015D01*
X144401Y42869D01*
X144518Y42709D01*
X144663Y42520D01*
X144809Y42330D01*
X144969Y42111D01*
X145319Y41645D01*
X145684Y41164D01*
X146063Y40653D01*
X146048Y40639D01*
X146019Y40624D01*
X146005D01*
X145990D01*
X145975Y40639D01*
X145961Y40653D01*
X145917Y40697D01*
X145859Y40755D01*
X145698Y40887D01*
X145494Y41076D01*
X145261Y41295D01*
X144999Y41543D01*
X144722Y41805D01*
X144430Y42082D01*
X144415Y42097D01*
X144401Y42111D01*
X144357Y42155D01*
X144299Y42213D01*
X144138Y42344D01*
X143934Y42534D01*
X143701Y42753D01*
X143439Y43001D01*
X143162Y43263D01*
X142870Y43540D01*
X142855Y43555D01*
X142841Y43569D01*
X142797Y43613D01*
X142739Y43671D01*
X142578Y43817D01*
X142374Y44007D01*
X142141Y44225D01*
X141864Y44488D01*
X141572Y44750D01*
X141281Y45027D01*
X141266Y45042D01*
X141252Y45056D01*
X141208Y45100D01*
X141149Y45158D01*
X140989Y45304D01*
X140785Y45479D01*
X140552Y45713D01*
X140275Y45960D01*
X139983Y46223D01*
X139691Y46500D01*
Y46485D01*
X139677Y46471D01*
X139648Y46383D01*
X139604Y46237D01*
X139546Y46062D01*
X139473Y45844D01*
X139385Y45610D01*
X139313Y45363D01*
X139225Y45100D01*
Y45086D01*
X139210Y45071D01*
X139181Y44984D01*
X139137Y44852D01*
X139079Y44663D01*
X139006Y44459D01*
X138919Y44225D01*
X138831Y43963D01*
X138744Y43701D01*
X138729Y43715D01*
X138700Y43759D01*
X138642Y43832D01*
X138569Y43919D01*
X138467Y44036D01*
X138350Y44182D01*
X138233Y44342D01*
X138088Y44502D01*
X137927Y44692D01*
X137767Y44896D01*
X137417Y45333D01*
X137038Y45785D01*
X136644Y46266D01*
X136630Y46281D01*
X136601Y46325D01*
X136542Y46398D01*
X136469Y46485D01*
X136367Y46602D01*
X136265Y46733D01*
X136134Y46894D01*
X136003Y47068D01*
X135842Y47258D01*
X135682Y47447D01*
X135332Y47885D01*
X134953Y48351D01*
X134574Y48818D01*
X134559Y48833D01*
X134530Y48876D01*
X134472Y48949D01*
X134399Y49037D01*
X134297Y49153D01*
X134180Y49285D01*
X134064Y49445D01*
X133918Y49620D01*
X133772Y49810D01*
X133597Y49999D01*
X133247Y50436D01*
X132868Y50903D01*
X132489Y51370D01*
X132474Y51384D01*
X132445Y51428D01*
X132387Y51501D01*
X132314Y51588D01*
X132212Y51705D01*
X132110Y51836D01*
X131979Y51996D01*
X131848Y52157D01*
X131687Y52346D01*
X131527Y52551D01*
X131177Y52973D01*
X130798Y53440D01*
X130419Y53907D01*
X130433Y53921D01*
X130462D01*
X130477Y53936D01*
X130506D01*
X130521Y53921D01*
D02*
G37*
G36*
X131935Y49882D02*
Y49868D01*
X131920Y49839D01*
X131891Y49780D01*
X131877Y49693D01*
X131833Y49605D01*
X131804Y49489D01*
X131760Y49358D01*
X131731Y49212D01*
X131643Y48891D01*
X131570Y48526D01*
X131527Y48133D01*
X131498Y47725D01*
Y47331D01*
X131512Y47200D01*
Y47054D01*
X131541Y46718D01*
X131585Y46369D01*
X131658Y45990D01*
X131760Y45596D01*
Y45581D01*
X131775Y45552D01*
X131789Y45494D01*
X131818Y45421D01*
X131848Y45333D01*
X131891Y45231D01*
X131993Y44969D01*
X132124Y44677D01*
X132285Y44357D01*
X132474Y44021D01*
X132693Y43671D01*
Y43657D01*
X132722Y43628D01*
X132752Y43584D01*
X132810Y43525D01*
X132941Y43350D01*
X133131Y43146D01*
X133349Y42899D01*
X133626Y42636D01*
X133918Y42374D01*
X134253Y42111D01*
X134268D01*
X134297Y42082D01*
X134341Y42053D01*
X134414Y42009D01*
X134501Y41951D01*
X134589Y41892D01*
X134705Y41820D01*
X134836Y41747D01*
X135128Y41586D01*
X135463Y41426D01*
X135828Y41266D01*
X136222Y41134D01*
X136236D01*
X136265Y41120D01*
X136324Y41105D01*
X136411Y41091D01*
X136498Y41061D01*
X136615Y41032D01*
X136746Y41018D01*
X136892Y40989D01*
X137213Y40930D01*
X137563Y40887D01*
X137957Y40857D01*
X138350D01*
X138365D01*
X138394D01*
X138452D01*
X138525Y40872D01*
X138627Y40887D01*
X138744D01*
X138875Y40901D01*
X139006Y40930D01*
X139327Y40974D01*
X139691Y41061D01*
X140056Y41149D01*
X140450Y41280D01*
X140464D01*
X140493Y41295D01*
X140552Y41324D01*
X140625Y41353D01*
X140712Y41397D01*
X140829Y41441D01*
X141077Y41572D01*
X141368Y41718D01*
X141689Y41907D01*
X142024Y42140D01*
X142360Y42388D01*
X142535Y42140D01*
X142549D01*
X142535Y42126D01*
X142506Y42111D01*
X142462Y42068D01*
X142389Y42024D01*
X142301Y41951D01*
X142199Y41878D01*
X142083Y41805D01*
X141951Y41718D01*
X141660Y41528D01*
X141324Y41339D01*
X140945Y41149D01*
X140552Y40989D01*
X140537D01*
X140508Y40974D01*
X140450Y40959D01*
X140362Y40930D01*
X140275Y40901D01*
X140158Y40857D01*
X140027Y40828D01*
X139881Y40784D01*
X139546Y40712D01*
X139181Y40639D01*
X138788Y40580D01*
X138365Y40551D01*
X138350D01*
X138321D01*
X138248D01*
X138175D01*
X138073D01*
X137957Y40566D01*
X137811D01*
X137665Y40580D01*
X137330Y40609D01*
X136951Y40668D01*
X136542Y40741D01*
X136134Y40843D01*
X136119D01*
X136090Y40857D01*
X136032Y40872D01*
X135944Y40901D01*
X135857Y40945D01*
X135740Y40974D01*
X135609Y41032D01*
X135463Y41091D01*
X135143Y41236D01*
X134793Y41397D01*
X134428Y41616D01*
X134064Y41849D01*
X134049Y41863D01*
X134020Y41878D01*
X133976Y41922D01*
X133903Y41980D01*
X133816Y42038D01*
X133728Y42126D01*
X133495Y42315D01*
X133247Y42563D01*
X132985Y42840D01*
X132708Y43161D01*
X132460Y43496D01*
X132445Y43511D01*
X132431Y43540D01*
X132402Y43598D01*
X132343Y43657D01*
X132299Y43744D01*
X132227Y43846D01*
X132154Y43977D01*
X132081Y44109D01*
X131920Y44400D01*
X131760Y44750D01*
X131600Y45115D01*
X131468Y45508D01*
Y45523D01*
X131454Y45552D01*
X131439Y45610D01*
X131425Y45698D01*
X131395Y45800D01*
X131366Y45917D01*
X131337Y46048D01*
X131308Y46194D01*
X131250Y46529D01*
X131206Y46908D01*
X131177Y47316D01*
Y47856D01*
X131191Y47929D01*
X131206Y48031D01*
Y48162D01*
X131235Y48293D01*
X131250Y48454D01*
X131308Y48789D01*
X131395Y49168D01*
X131512Y49576D01*
X131658Y49984D01*
X131935Y49882D01*
D02*
G37*
%LPC*%
G36*
X148623Y45727D02*
X151801Y44254D01*
Y45545D01*
X148623Y45727D01*
D02*
G37*
G36*
X138744Y94876D02*
X138729D01*
X138715D01*
X138642D01*
X138525Y94862D01*
X138394Y94847D01*
X138233Y94803D01*
X138073Y94760D01*
X137927Y94687D01*
X137796Y94585D01*
X137782Y94570D01*
X137738Y94526D01*
X137694Y94468D01*
X137621Y94380D01*
X137563Y94264D01*
X137519Y94118D01*
X137475Y93943D01*
X137461Y93754D01*
Y93651D01*
X137475Y93550D01*
X137504Y93433D01*
X137548Y93287D01*
X137607Y93141D01*
X137680Y92995D01*
X137796Y92879D01*
X137811Y92864D01*
X137855Y92835D01*
X137927Y92791D01*
X138029Y92748D01*
X138175Y92689D01*
X138336Y92646D01*
X138525Y92616D01*
X138744Y92602D01*
X138773D01*
X138846D01*
X138962Y92616D01*
X139108Y92631D01*
X139254Y92675D01*
X139415Y92718D01*
X139575Y92791D01*
X139706Y92879D01*
X139721Y92893D01*
X139750Y92937D01*
X139808Y92995D01*
X139866Y93098D01*
X139925Y93214D01*
X139983Y93375D01*
X140012Y93550D01*
X140027Y93754D01*
Y93841D01*
X140012Y93943D01*
X139983Y94060D01*
X139954Y94206D01*
X139896Y94337D01*
X139808Y94468D01*
X139706Y94585D01*
X139691Y94599D01*
X139648Y94628D01*
X139575Y94672D01*
X139458Y94731D01*
X139327Y94789D01*
X139167Y94832D01*
X138962Y94862D01*
X138744Y94876D01*
D02*
G37*
%LPD*%
D10*
X131396Y422637D02*
G03*
X131396Y422637I-492J0D01*
G01*
X66126Y185906D02*
G03*
X66126Y185906I-492J0D01*
G01*
X109709Y185866D02*
G03*
X109709Y185866I-492J0D01*
G01*
X112587Y175068D02*
G03*
X112587Y175068I-492J0D01*
G01*
D11*
X70929Y195158D02*
G03*
X70929Y195158I-1181J0D01*
G01*
X114512Y195118D02*
G03*
X114512Y195118I-1181J0D01*
G01*
D12*
X113494Y346378D02*
G03*
X114774Y346378I640J0D01*
G01*
X105547Y348232D02*
G03*
X105547Y348232I-315J0D01*
G01*
X104526Y417814D02*
X130904D01*
X104526Y403247D02*
X130904D01*
Y417814D01*
X104526Y403247D02*
Y417814D01*
X107150Y191220D02*
Y217992D01*
X65811Y191220D02*
Y217992D01*
X107150D01*
X65811Y191220D02*
X107150D01*
X150732Y191181D02*
Y217953D01*
X109394Y191181D02*
Y217953D01*
X150732D01*
X109394Y191181D02*
X150732D01*
X108563Y315669D02*
Y346378D01*
Y315669D02*
X119705D01*
Y346378D01*
X114774D02*
X119705D01*
X108563D02*
X113494D01*
X112095Y160895D02*
Y173296D01*
X99891Y160895D02*
Y173099D01*
D13*
X98000Y393750D02*
Y446900D01*
X67900Y393750D02*
Y446900D01*
X2047Y67716D02*
X66220D01*
Y32283D02*
X79331D01*
X66220Y67716D02*
X79213D01*
X66181Y105118D02*
X79173D01*
X66181Y69685D02*
X79291D01*
X2047Y32283D02*
X66220D01*
X2008Y69685D02*
X66181D01*
X2047Y105118D02*
X66181D01*
X2008Y107087D02*
X39685D01*
X2008Y209449D02*
X39646D01*
X2047Y382598D02*
X53504D01*
X2008Y282638D02*
X19370D01*
X25709Y282677D02*
X53504D01*
X2047Y280669D02*
X52874D01*
X2008Y211457D02*
X52874D01*
D14*
X154889Y395126D02*
Y398079D01*
X154928Y401114D02*
Y404067D01*
D15*
X48639Y388250D02*
Y385660D01*
X48477Y385174D01*
X48316Y385012D01*
X47992Y384850D01*
X47668D01*
X47344Y385012D01*
X47182Y385174D01*
X47021Y385660D01*
Y385983D01*
X49837Y388250D02*
X51618D01*
X50646Y386955D01*
X51132D01*
X51456Y386793D01*
X51618Y386631D01*
X51780Y386145D01*
Y385822D01*
X51618Y385336D01*
X51294Y385012D01*
X50808Y384850D01*
X50323D01*
X49837Y385012D01*
X49675Y385174D01*
X49513Y385498D01*
X87689Y142080D02*
X87527Y142403D01*
X87204Y142727D01*
X86880Y142889D01*
X86233D01*
X85909Y142727D01*
X85585Y142403D01*
X85423Y142080D01*
X85261Y141594D01*
Y140785D01*
X85423Y140299D01*
X85585Y139975D01*
X85909Y139652D01*
X86233Y139490D01*
X86880D01*
X87204Y139652D01*
X87527Y139975D01*
X87689Y140299D01*
Y140785D01*
X86880D02*
X87689D01*
X88466Y142889D02*
Y139490D01*
Y142889D02*
X90733Y139490D01*
Y142889D02*
Y139490D01*
X91671Y142889D02*
Y139490D01*
Y142889D02*
X92804D01*
X93290Y142727D01*
X93614Y142403D01*
X93776Y142080D01*
X93937Y141594D01*
Y140785D01*
X93776Y140299D01*
X93614Y139975D01*
X93290Y139652D01*
X92804Y139490D01*
X91671D01*
X77539Y371080D02*
X77377Y371403D01*
X77054Y371727D01*
X76730Y371889D01*
X76082D01*
X75759Y371727D01*
X75435Y371403D01*
X75273Y371080D01*
X75111Y370594D01*
Y369785D01*
X75273Y369299D01*
X75435Y368975D01*
X75759Y368652D01*
X76082Y368490D01*
X76730D01*
X77054Y368652D01*
X77377Y368975D01*
X77539Y369299D01*
Y369785D01*
X76730D02*
X77539D01*
X78316Y371889D02*
Y368490D01*
Y371889D02*
X80582Y368490D01*
Y371889D02*
Y368490D01*
X81521Y371889D02*
Y368490D01*
Y371889D02*
X82654D01*
X83140Y371727D01*
X83464Y371403D01*
X83626Y371080D01*
X83788Y370594D01*
Y369785D01*
X83626Y369299D01*
X83464Y368975D01*
X83140Y368652D01*
X82654Y368490D01*
X81521D01*
X113760Y231334D02*
X113436Y231172D01*
X113112Y230849D01*
X112950Y230525D01*
Y229877D01*
X113112Y229554D01*
X113436Y229230D01*
X113760Y229068D01*
X114245Y228906D01*
X115055D01*
X115540Y229068D01*
X115864Y229230D01*
X116188Y229554D01*
X116350Y229877D01*
Y230525D01*
X116188Y230849D01*
X115864Y231172D01*
X115540Y231334D01*
X113436Y234232D02*
X113112Y234070D01*
X112950Y233584D01*
Y233261D01*
X113112Y232775D01*
X113598Y232451D01*
X114407Y232289D01*
X115217D01*
X115864Y232451D01*
X116188Y232775D01*
X116350Y233261D01*
Y233422D01*
X116188Y233908D01*
X115864Y234232D01*
X115378Y234394D01*
X115217D01*
X114731Y234232D01*
X114407Y233908D01*
X114245Y233422D01*
Y233261D01*
X114407Y232775D01*
X114731Y232451D01*
X115217Y232289D01*
X137632Y409350D02*
Y405950D01*
Y409350D02*
X139089D01*
X139574Y409188D01*
X139736Y409026D01*
X139898Y408702D01*
Y408378D01*
X139736Y408055D01*
X139574Y407893D01*
X139089Y407731D01*
X137632D01*
X138765D02*
X139898Y405950D01*
X140659Y408702D02*
X140982Y408864D01*
X141468Y409350D01*
Y405950D01*
X91056Y355503D02*
X94455D01*
X91056D02*
Y356960D01*
X91218Y357446D01*
X91380Y357607D01*
X91704Y357769D01*
X92027D01*
X92351Y357607D01*
X92513Y357446D01*
X92675Y356960D01*
Y355503D01*
Y356636D02*
X94455Y357769D01*
X91056Y358854D02*
Y360634D01*
X92351Y359663D01*
Y360149D01*
X92513Y360472D01*
X92675Y360634D01*
X93161Y360796D01*
X93484D01*
X93970Y360634D01*
X94294Y360311D01*
X94455Y359825D01*
Y359339D01*
X94294Y358854D01*
X94132Y358692D01*
X93808Y358530D01*
X132450Y413543D02*
X134878D01*
X135364Y413705D01*
X135688Y414028D01*
X135850Y414514D01*
Y414838D01*
X135688Y415323D01*
X135364Y415647D01*
X134878Y415809D01*
X132450D01*
X133098Y416748D02*
X132936Y417072D01*
X132450Y417557D01*
X135850D01*
X135453Y392550D02*
Y389150D01*
Y392550D02*
X136910D01*
X137396Y392388D01*
X137558Y392226D01*
X137720Y391902D01*
Y391578D01*
X137558Y391255D01*
X137396Y391093D01*
X136910Y390931D01*
X135453D01*
X136586D02*
X137720Y389150D01*
X138642Y391740D02*
Y391902D01*
X138804Y392226D01*
X138966Y392388D01*
X139290Y392550D01*
X139937D01*
X140261Y392388D01*
X140423Y392226D01*
X140585Y391902D01*
Y391578D01*
X140423Y391255D01*
X140099Y390769D01*
X138480Y389150D01*
X140747D01*
X146603Y392850D02*
Y389450D01*
Y392850D02*
X147737D01*
X148222Y392688D01*
X148546Y392364D01*
X148708Y392040D01*
X148870Y391555D01*
Y390745D01*
X148708Y390260D01*
X148546Y389936D01*
X148222Y389612D01*
X147737Y389450D01*
X146603D01*
X149792Y392040D02*
Y392202D01*
X149954Y392526D01*
X150116Y392688D01*
X150440Y392850D01*
X151087D01*
X151411Y392688D01*
X151573Y392526D01*
X151735Y392202D01*
Y391878D01*
X151573Y391555D01*
X151249Y391069D01*
X149630Y389450D01*
X151897D01*
X147182Y409750D02*
Y406350D01*
Y409750D02*
X148315D01*
X148801Y409588D01*
X149124Y409264D01*
X149286Y408940D01*
X149448Y408455D01*
Y407645D01*
X149286Y407160D01*
X149124Y406836D01*
X148801Y406512D01*
X148315Y406350D01*
X147182D01*
X150209Y409102D02*
X150532Y409264D01*
X151018Y409750D01*
Y406350D01*
X117203Y436890D02*
X117042Y437214D01*
X116718Y437538D01*
X116394Y437700D01*
X115747D01*
X115423Y437538D01*
X115099Y437214D01*
X114937Y436890D01*
X114775Y436405D01*
Y435595D01*
X114937Y435110D01*
X115099Y434786D01*
X115423Y434462D01*
X115747Y434300D01*
X116394D01*
X116718Y434462D01*
X117042Y434786D01*
X117203Y435110D01*
X118320Y436890D02*
Y437052D01*
X118482Y437376D01*
X118644Y437538D01*
X118968Y437700D01*
X119615D01*
X119939Y437538D01*
X120101Y437376D01*
X120263Y437052D01*
Y436728D01*
X120101Y436405D01*
X119777Y435919D01*
X118158Y434300D01*
X120425D01*
X124917Y385201D02*
X124755Y385524D01*
X124431Y385848D01*
X124107Y386010D01*
X123460D01*
X123136Y385848D01*
X122812Y385524D01*
X122651Y385201D01*
X122489Y384715D01*
Y383906D01*
X122651Y383420D01*
X122812Y383096D01*
X123136Y382772D01*
X123460Y382611D01*
X124107D01*
X124431Y382772D01*
X124755Y383096D01*
X124917Y383420D01*
X126196Y386010D02*
X127976D01*
X127005Y384715D01*
X127490D01*
X127814Y384553D01*
X127976Y384391D01*
X128138Y383906D01*
Y383582D01*
X127976Y383096D01*
X127652Y382772D01*
X127167Y382611D01*
X126681D01*
X126196Y382772D01*
X126034Y382934D01*
X125872Y383258D01*
X159431Y390794D02*
Y392574D01*
X160726Y391603D01*
Y392089D01*
X160888Y392412D01*
X161049Y392574D01*
X161535Y392736D01*
X161859D01*
X162344Y392574D01*
X162668Y392251D01*
X162830Y391765D01*
Y391279D01*
X162668Y390794D01*
X162506Y390632D01*
X162182Y390470D01*
X159431Y393497D02*
X162830Y394792D01*
X159431Y396087D02*
X162830Y394792D01*
X159431Y396848D02*
Y398628D01*
X160726Y397657D01*
Y398143D01*
X160888Y398466D01*
X161049Y398628D01*
X161535Y398790D01*
X161859D01*
X162344Y398628D01*
X162668Y398305D01*
X162830Y397819D01*
Y397333D01*
X162668Y396848D01*
X162506Y396686D01*
X162182Y396524D01*
X159181Y405262D02*
Y403644D01*
X160638Y403482D01*
X160476Y403644D01*
X160314Y404129D01*
Y404615D01*
X160476Y405101D01*
X160799Y405424D01*
X161285Y405586D01*
X161609D01*
X162094Y405424D01*
X162418Y405101D01*
X162580Y404615D01*
Y404129D01*
X162418Y403644D01*
X162256Y403482D01*
X161933Y403320D01*
X159181Y406347D02*
X162580Y407642D01*
X159181Y408937D02*
X162580Y407642D01*
X96195Y389308D02*
X96033Y389632D01*
X95710Y389956D01*
X95386Y390118D01*
X94738D01*
X94415Y389956D01*
X94091Y389632D01*
X93929Y389308D01*
X93767Y388823D01*
Y388013D01*
X93929Y387528D01*
X94091Y387204D01*
X94415Y386880D01*
X94738Y386719D01*
X95386D01*
X95710Y386880D01*
X96033Y387204D01*
X96195Y387528D01*
X97150Y389470D02*
X97474Y389632D01*
X97960Y390118D01*
Y386719D01*
X63039Y397550D02*
Y394960D01*
X62877Y394474D01*
X62716Y394312D01*
X62392Y394150D01*
X62068D01*
X61744Y394312D01*
X61582Y394474D01*
X61421Y394960D01*
Y395284D01*
X64075Y396740D02*
Y396902D01*
X64237Y397226D01*
X64399Y397388D01*
X64723Y397550D01*
X65370D01*
X65694Y397388D01*
X65856Y397226D01*
X66018Y396902D01*
Y396578D01*
X65856Y396255D01*
X65532Y395769D01*
X63913Y394150D01*
X66180D01*
X60500Y191164D02*
X62928D01*
X63414Y191326D01*
X63738Y191650D01*
X63900Y192136D01*
Y192459D01*
X63738Y192945D01*
X63414Y193269D01*
X62928Y193431D01*
X60500D01*
X61310Y194531D02*
X61148D01*
X60824Y194693D01*
X60662Y194855D01*
X60500Y195179D01*
Y195826D01*
X60662Y196150D01*
X60824Y196312D01*
X61148Y196474D01*
X61472D01*
X61795Y196312D01*
X62281Y195988D01*
X63900Y194369D01*
Y196636D01*
X152050Y191734D02*
X154478D01*
X154964Y191895D01*
X155288Y192219D01*
X155450Y192705D01*
Y193028D01*
X155288Y193514D01*
X154964Y193838D01*
X154478Y194000D01*
X152050D01*
Y196557D02*
X154316Y194939D01*
Y197366D01*
X152050Y196557D02*
X155450D01*
X109075Y352093D02*
Y349665D01*
X109237Y349180D01*
X109561Y348856D01*
X110047Y348694D01*
X110370D01*
X110856Y348856D01*
X111180Y349180D01*
X111342Y349665D01*
Y352093D01*
X112604D02*
X114385D01*
X113414Y350798D01*
X113899D01*
X114223Y350637D01*
X114385Y350475D01*
X114547Y349989D01*
Y349665D01*
X114385Y349180D01*
X114061Y348856D01*
X113575Y348694D01*
X113090D01*
X112604Y348856D01*
X112442Y349018D01*
X112280Y349342D01*
X74660Y232973D02*
X74336Y232811D01*
X74012Y232487D01*
X73850Y232163D01*
Y231516D01*
X74012Y231192D01*
X74336Y230868D01*
X74660Y230706D01*
X75145Y230544D01*
X75955D01*
X76440Y230706D01*
X76764Y230868D01*
X77088Y231192D01*
X77250Y231516D01*
Y232163D01*
X77088Y232487D01*
X76764Y232811D01*
X76440Y232973D01*
X73850Y235546D02*
X76117Y233927D01*
Y236356D01*
X73850Y235546D02*
X77250D01*
X103930Y298045D02*
X107329D01*
X103930D02*
Y299501D01*
X104092Y299987D01*
X104254Y300149D01*
X104578Y300311D01*
X104902D01*
X105225Y300149D01*
X105387Y299987D01*
X105549Y299501D01*
Y298045D01*
Y299178D02*
X107329Y300311D01*
X104740Y301234D02*
X104578D01*
X104254Y301395D01*
X104092Y301557D01*
X103930Y301881D01*
Y302529D01*
X104092Y302852D01*
X104254Y303014D01*
X104578Y303176D01*
X104902D01*
X105225Y303014D01*
X105711Y302690D01*
X107329Y301072D01*
Y303338D01*
X103930Y305070D02*
X104092Y304584D01*
X104578Y304260D01*
X105387Y304099D01*
X105873D01*
X106682Y304260D01*
X107168Y304584D01*
X107329Y305070D01*
Y305394D01*
X107168Y305879D01*
X106682Y306203D01*
X105873Y306365D01*
X105387D01*
X104578Y306203D01*
X104092Y305879D01*
X103930Y305394D01*
Y305070D01*
X111686Y299639D02*
X115085D01*
X111686D02*
Y301096D01*
X111848Y301582D01*
X112010Y301744D01*
X112334Y301905D01*
X112657D01*
X112981Y301744D01*
X113143Y301582D01*
X113305Y301096D01*
Y299639D01*
Y300772D02*
X115085Y301905D01*
X112496Y302828D02*
X112334D01*
X112010Y302990D01*
X111848Y303152D01*
X111686Y303476D01*
Y304123D01*
X111848Y304447D01*
X112010Y304609D01*
X112334Y304770D01*
X112657D01*
X112981Y304609D01*
X113467Y304285D01*
X115085Y302666D01*
Y304932D01*
X112334Y305693D02*
X112172Y306017D01*
X111686Y306503D01*
X115085D01*
X119285Y275088D02*
X121874D01*
X122360Y274926D01*
X122522Y274764D01*
X122684Y274441D01*
Y274117D01*
X122522Y273793D01*
X122360Y273631D01*
X121874Y273469D01*
X121551D01*
X121065Y275962D02*
Y277419D01*
X120903Y277905D01*
X120741Y278066D01*
X120418Y278228D01*
X119932D01*
X119608Y278066D01*
X119447Y277905D01*
X119285Y277419D01*
Y275962D01*
X122684D01*
X119285Y279798D02*
X119447Y279313D01*
X119770Y279151D01*
X120094D01*
X120418Y279313D01*
X120580Y279637D01*
X120741Y280284D01*
X120903Y280770D01*
X121227Y281093D01*
X121551Y281255D01*
X122036D01*
X122360Y281093D01*
X122522Y280931D01*
X122684Y280446D01*
Y279798D01*
X122522Y279313D01*
X122360Y279151D01*
X122036Y278989D01*
X121551D01*
X121227Y279151D01*
X120903Y279475D01*
X120741Y279960D01*
X120580Y280608D01*
X120418Y280931D01*
X120094Y281093D01*
X119770D01*
X119447Y280931D01*
X119285Y280446D01*
Y279798D01*
X119718Y298865D02*
X123117D01*
X119718D02*
Y300322D01*
X119879Y300808D01*
X120041Y300969D01*
X120365Y301131D01*
X120689D01*
X121013Y300969D01*
X121175Y300808D01*
X121336Y300322D01*
Y298865D01*
Y299998D02*
X123117Y301131D01*
X120365Y301892D02*
X120203Y302216D01*
X119718Y302701D01*
X123117D01*
X120203Y306327D02*
X119879Y306166D01*
X119718Y305680D01*
Y305356D01*
X119879Y304871D01*
X120365Y304547D01*
X121175Y304385D01*
X121984D01*
X122631Y304547D01*
X122955Y304871D01*
X123117Y305356D01*
Y305518D01*
X122955Y306004D01*
X122631Y306327D01*
X122146Y306489D01*
X121984D01*
X121498Y306327D01*
X121175Y306004D01*
X121013Y305518D01*
Y305356D01*
X121175Y304871D01*
X121498Y304547D01*
X121984Y304385D01*
X118007Y363777D02*
X117684Y363615D01*
X117360Y363291D01*
X117198Y362967D01*
Y362320D01*
X117360Y361996D01*
X117684Y361672D01*
X118007Y361510D01*
X118493Y361349D01*
X119302D01*
X119788Y361510D01*
X120112Y361672D01*
X120435Y361996D01*
X120597Y362320D01*
Y362967D01*
X120435Y363291D01*
X120112Y363615D01*
X119788Y363777D01*
X117198Y366674D02*
Y365055D01*
X118655Y364894D01*
X118493Y365055D01*
X118331Y365541D01*
Y366027D01*
X118493Y366512D01*
X118817Y366836D01*
X119302Y366998D01*
X119626D01*
X120112Y366836D01*
X120435Y366512D01*
X120597Y366027D01*
Y365541D01*
X120435Y365055D01*
X120273Y364894D01*
X119950Y364732D01*
X127513Y298784D02*
X130912D01*
X127513D02*
Y300241D01*
X127675Y300727D01*
X127837Y300888D01*
X128160Y301050D01*
X128484D01*
X128808Y300888D01*
X128970Y300727D01*
X129132Y300241D01*
Y298784D01*
Y299917D02*
X130912Y301050D01*
X128160Y301811D02*
X127999Y302135D01*
X127513Y302621D01*
X130912D01*
X127513Y306246D02*
Y304628D01*
X128970Y304466D01*
X128808Y304628D01*
X128646Y305113D01*
Y305599D01*
X128808Y306084D01*
X129132Y306408D01*
X129617Y306570D01*
X129941D01*
X130427Y306408D01*
X130750Y306084D01*
X130912Y305599D01*
Y305113D01*
X130750Y304628D01*
X130588Y304466D01*
X130265Y304304D01*
X135663Y298782D02*
X139062D01*
X135663D02*
Y300239D01*
X135824Y300724D01*
X135986Y300886D01*
X136310Y301048D01*
X136634D01*
X136958Y300886D01*
X137119Y300724D01*
X137281Y300239D01*
Y298782D01*
Y299915D02*
X139062Y301048D01*
X136310Y301809D02*
X136148Y302133D01*
X135663Y302618D01*
X139062D01*
X135663Y305921D02*
X137929Y304302D01*
Y306730D01*
X135663Y305921D02*
X139062D01*
X143104Y298981D02*
X146503D01*
X143104D02*
Y300438D01*
X143265Y300923D01*
X143427Y301085D01*
X143751Y301247D01*
X144075D01*
X144398Y301085D01*
X144560Y300923D01*
X144722Y300438D01*
Y298981D01*
Y300114D02*
X146503Y301247D01*
X143751Y302008D02*
X143589Y302332D01*
X143104Y302817D01*
X146503D01*
X143104Y304825D02*
Y306605D01*
X144398Y305634D01*
Y306119D01*
X144560Y306443D01*
X144722Y306605D01*
X145208Y306767D01*
X145532D01*
X146017Y306605D01*
X146341Y306281D01*
X146503Y305796D01*
Y305310D01*
X146341Y304825D01*
X146179Y304663D01*
X145855Y304501D01*
X74498Y242803D02*
X77897D01*
X74498Y241670D02*
Y243936D01*
Y246445D02*
Y244341D01*
X77897D01*
Y246445D01*
X76116Y244341D02*
Y245636D01*
X74498Y247012D02*
X77897D01*
X74498D02*
X77897Y248307D01*
X74498Y249602D02*
X77897Y248307D01*
X74498Y249602D02*
X77897D01*
X76278Y250573D02*
Y252030D01*
X76116Y252515D01*
X75955Y252677D01*
X75631Y252839D01*
X75145D01*
X74821Y252677D01*
X74660Y252515D01*
X74498Y252030D01*
Y250573D01*
X77897D01*
X79030Y253600D02*
Y256190D01*
X74983Y258893D02*
X74660Y258569D01*
X74498Y258084D01*
Y257436D01*
X74660Y256950D01*
X74983Y256627D01*
X75307D01*
X75631Y256789D01*
X75793Y256950D01*
X75955Y257274D01*
X76278Y258245D01*
X76440Y258569D01*
X76602Y258731D01*
X76926Y258893D01*
X77411D01*
X77735Y258569D01*
X77897Y258084D01*
Y257436D01*
X77735Y256950D01*
X77411Y256627D01*
X74498Y260625D02*
X74660Y260139D01*
X75145Y259816D01*
X75955Y259654D01*
X76440D01*
X77249Y259816D01*
X77735Y260139D01*
X77897Y260625D01*
Y260949D01*
X77735Y261434D01*
X77249Y261758D01*
X76440Y261920D01*
X75955D01*
X75145Y261758D01*
X74660Y261434D01*
X74498Y260949D01*
Y260625D01*
X83398Y243903D02*
X86797D01*
X83398Y242770D02*
Y245036D01*
Y247545D02*
Y245441D01*
X86797D01*
Y247545D01*
X85016Y245441D02*
Y246736D01*
X83398Y248112D02*
X86797D01*
X83398D02*
X86797Y249407D01*
X83398Y250702D02*
X86797Y249407D01*
X83398Y250702D02*
X86797D01*
X85178Y251673D02*
Y253130D01*
X85016Y253615D01*
X84854Y253777D01*
X84531Y253939D01*
X84045D01*
X83721Y253777D01*
X83560Y253615D01*
X83398Y253130D01*
Y251673D01*
X86797D01*
X87930Y254700D02*
Y257290D01*
X83883Y259993D02*
X83560Y259669D01*
X83398Y259184D01*
Y258536D01*
X83560Y258050D01*
X83883Y257727D01*
X84207D01*
X84531Y257889D01*
X84693Y258050D01*
X84854Y258374D01*
X85178Y259346D01*
X85340Y259669D01*
X85502Y259831D01*
X85826Y259993D01*
X86311D01*
X86635Y259669D01*
X86797Y259184D01*
Y258536D01*
X86635Y258050D01*
X86311Y257727D01*
X84045Y260754D02*
X83883Y261077D01*
X83398Y261563D01*
X86797D01*
X93098Y243103D02*
X96497D01*
X93098Y241970D02*
Y244236D01*
Y246745D02*
Y244641D01*
X96497D01*
Y246745D01*
X94716Y244641D02*
Y245936D01*
X93098Y247312D02*
X96497D01*
X93098D02*
X96497Y248607D01*
X93098Y249902D02*
X96497Y248607D01*
X93098Y249902D02*
X96497D01*
X94878Y250873D02*
Y252330D01*
X94716Y252815D01*
X94555Y252977D01*
X94231Y253139D01*
X93745D01*
X93421Y252977D01*
X93260Y252815D01*
X93098Y252330D01*
Y250873D01*
X96497D01*
X97630Y253900D02*
Y256490D01*
X93583Y259193D02*
X93260Y258869D01*
X93098Y258384D01*
Y257736D01*
X93260Y257250D01*
X93583Y256927D01*
X93907D01*
X94231Y257089D01*
X94393Y257250D01*
X94555Y257574D01*
X94878Y258545D01*
X95040Y258869D01*
X95202Y259031D01*
X95526Y259193D01*
X96011D01*
X96335Y258869D01*
X96497Y258384D01*
Y257736D01*
X96335Y257250D01*
X96011Y256927D01*
X93907Y260116D02*
X93745D01*
X93421Y260278D01*
X93260Y260439D01*
X93098Y260763D01*
Y261411D01*
X93260Y261734D01*
X93421Y261896D01*
X93745Y262058D01*
X94069D01*
X94393Y261896D01*
X94878Y261573D01*
X96497Y259954D01*
Y262220D01*
X101433Y241736D02*
X101110Y241412D01*
X100948Y240927D01*
Y240279D01*
X101110Y239794D01*
X101433Y239470D01*
X101757D01*
X102081Y239632D01*
X102243Y239794D01*
X102404Y240118D01*
X102728Y241089D01*
X102890Y241412D01*
X103052Y241574D01*
X103376Y241736D01*
X103861D01*
X104185Y241412D01*
X104347Y240927D01*
Y240279D01*
X104185Y239794D01*
X103861Y239470D01*
X100948Y242497D02*
X104347D01*
X100948Y244763D02*
X104347D01*
X102566Y242497D02*
Y244763D01*
X100948Y246673D02*
X101110Y246350D01*
X101433Y246026D01*
X101757Y245864D01*
X102243Y245702D01*
X103052D01*
X103537Y245864D01*
X103861Y246026D01*
X104185Y246350D01*
X104347Y246673D01*
Y247321D01*
X104185Y247644D01*
X103861Y247968D01*
X103537Y248130D01*
X103052Y248292D01*
X102243D01*
X101757Y248130D01*
X101433Y247968D01*
X101110Y247644D01*
X100948Y247321D01*
Y246673D01*
X101757Y251513D02*
X101433Y251351D01*
X101110Y251027D01*
X100948Y250704D01*
Y250056D01*
X101110Y249733D01*
X101433Y249409D01*
X101757Y249247D01*
X102243Y249085D01*
X103052D01*
X103537Y249247D01*
X103861Y249409D01*
X104185Y249733D01*
X104347Y250056D01*
Y250704D01*
X104185Y251027D01*
X103861Y251351D01*
X103537Y251513D01*
X100948Y252468D02*
X104347D01*
X100948Y254734D02*
X103214Y252468D01*
X102404Y253277D02*
X104347Y254734D01*
X105480Y255495D02*
Y258085D01*
X101433Y260788D02*
X101110Y260465D01*
X100948Y259979D01*
Y259331D01*
X101110Y258846D01*
X101433Y258522D01*
X101757D01*
X102081Y258684D01*
X102243Y258846D01*
X102404Y259170D01*
X102728Y260141D01*
X102890Y260465D01*
X103052Y260626D01*
X103376Y260788D01*
X103861D01*
X104185Y260465D01*
X104347Y259979D01*
Y259331D01*
X104185Y258846D01*
X103861Y258522D01*
X101595Y261549D02*
X101433Y261873D01*
X100948Y262358D01*
X104347D01*
X120466Y256086D02*
X120143Y255762D01*
X119981Y255277D01*
Y254629D01*
X120143Y254144D01*
X120466Y253820D01*
X120790D01*
X121114Y253982D01*
X121276Y254144D01*
X121438Y254468D01*
X121761Y255439D01*
X121923Y255762D01*
X122085Y255924D01*
X122409Y256086D01*
X122894D01*
X123218Y255762D01*
X123380Y255277D01*
Y254629D01*
X123218Y254144D01*
X122894Y253820D01*
X120790Y259275D02*
X120466Y259113D01*
X120143Y258789D01*
X119981Y258466D01*
Y257818D01*
X120143Y257494D01*
X120466Y257171D01*
X120790Y257009D01*
X121276Y256847D01*
X122085D01*
X122571Y257009D01*
X122894Y257171D01*
X123218Y257494D01*
X123380Y257818D01*
Y258466D01*
X123218Y258789D01*
X122894Y259113D01*
X122571Y259275D01*
X119981Y260230D02*
X123380D01*
Y262173D01*
X69335Y313117D02*
Y309718D01*
Y313117D02*
X70792D01*
X71278Y312955D01*
X71440Y312793D01*
X71602Y312470D01*
Y312146D01*
X71440Y311822D01*
X71278Y311660D01*
X70792Y311498D01*
X69335D01*
X70468D02*
X71602Y309718D01*
X72362Y312470D02*
X72686Y312631D01*
X73172Y313117D01*
Y309718D01*
X75017Y312308D02*
Y312470D01*
X75179Y312793D01*
X75341Y312955D01*
X75665Y313117D01*
X76312D01*
X76636Y312955D01*
X76798Y312793D01*
X76960Y312470D01*
Y312146D01*
X76798Y311822D01*
X76474Y311336D01*
X74855Y309718D01*
X77121D01*
X70663Y330046D02*
Y326647D01*
Y330046D02*
X72119D01*
X72605Y329884D01*
X72767Y329722D01*
X72929Y329399D01*
Y329075D01*
X72767Y328751D01*
X72605Y328589D01*
X72119Y328427D01*
X70663D01*
X71796D02*
X72929Y326647D01*
X75794Y328913D02*
X75632Y328427D01*
X75308Y328104D01*
X74823Y327942D01*
X74661D01*
X74175Y328104D01*
X73852Y328427D01*
X73690Y328913D01*
Y329075D01*
X73852Y329560D01*
X74175Y329884D01*
X74661Y330046D01*
X74823D01*
X75308Y329884D01*
X75632Y329560D01*
X75794Y328913D01*
Y328104D01*
X75632Y327294D01*
X75308Y326809D01*
X74823Y326647D01*
X74499D01*
X74013Y326809D01*
X73852Y327132D01*
X72157Y347369D02*
Y343970D01*
Y347369D02*
X73613D01*
X74099Y347207D01*
X74261Y347045D01*
X74423Y346722D01*
Y346398D01*
X74261Y346074D01*
X74099Y345912D01*
X73613Y345750D01*
X72157D01*
X73290D02*
X74423Y343970D01*
X77126Y347369D02*
X75507D01*
X75345Y345912D01*
X75507Y346074D01*
X75993Y346236D01*
X76478D01*
X76964Y346074D01*
X77288Y345750D01*
X77450Y345265D01*
Y344941D01*
X77288Y344455D01*
X76964Y344131D01*
X76478Y343970D01*
X75993D01*
X75507Y344131D01*
X75345Y344293D01*
X75184Y344617D01*
X73891Y357902D02*
X77290D01*
X73891D02*
Y359359D01*
X74053Y359845D01*
X74215Y360007D01*
X74538Y360169D01*
X74862D01*
X75186Y360007D01*
X75348Y359845D01*
X75510Y359359D01*
Y357902D01*
Y359035D02*
X77290Y360169D01*
X73891Y362548D02*
X76157Y360929D01*
Y363357D01*
X73891Y362548D02*
X77290D01*
X84521Y275366D02*
X87111D01*
X87596Y275204D01*
X87758Y275042D01*
X87920Y274718D01*
Y274394D01*
X87758Y274071D01*
X87596Y273909D01*
X87111Y273747D01*
X86787D01*
X86301Y276240D02*
Y277697D01*
X86140Y278182D01*
X85978Y278344D01*
X85654Y278506D01*
X85168D01*
X84845Y278344D01*
X84683Y278182D01*
X84521Y277697D01*
Y276240D01*
X87920D01*
X85654Y281371D02*
X86140Y281209D01*
X86463Y280886D01*
X86625Y280400D01*
Y280238D01*
X86463Y279752D01*
X86140Y279429D01*
X85654Y279267D01*
X85492D01*
X85006Y279429D01*
X84683Y279752D01*
X84521Y280238D01*
Y280400D01*
X84683Y280886D01*
X85006Y281209D01*
X85654Y281371D01*
X86463D01*
X87273Y281209D01*
X87758Y280886D01*
X87920Y280400D01*
Y280076D01*
X87758Y279591D01*
X87435Y279429D01*
X91922Y274826D02*
X94512D01*
X94998Y274664D01*
X95160Y274502D01*
X95322Y274178D01*
Y273855D01*
X95160Y273531D01*
X94998Y273369D01*
X94512Y273207D01*
X94189D01*
X93703Y275700D02*
Y277157D01*
X93541Y277642D01*
X93379Y277804D01*
X93055Y277966D01*
X92570D01*
X92246Y277804D01*
X92084Y277642D01*
X91922Y277157D01*
Y275700D01*
X95322D01*
X92570Y278727D02*
X92408Y279051D01*
X91922Y279536D01*
X95322D01*
X91922Y282191D02*
X92084Y281705D01*
X92570Y281382D01*
X93379Y281220D01*
X93865D01*
X94674Y281382D01*
X95160Y281705D01*
X95322Y282191D01*
Y282515D01*
X95160Y283000D01*
X94674Y283324D01*
X93865Y283486D01*
X93379D01*
X92570Y283324D01*
X92084Y283000D01*
X91922Y282515D01*
Y282191D01*
X75072Y275366D02*
X77662D01*
X78148Y275204D01*
X78309Y275042D01*
X78471Y274718D01*
Y274394D01*
X78309Y274071D01*
X78148Y273909D01*
X77662Y273747D01*
X77338D01*
X76853Y276240D02*
Y277697D01*
X76691Y278182D01*
X76529Y278344D01*
X76205Y278506D01*
X75719D01*
X75396Y278344D01*
X75234Y278182D01*
X75072Y277697D01*
Y276240D01*
X78471D01*
X75558Y281209D02*
X75234Y281047D01*
X75072Y280562D01*
Y280238D01*
X75234Y279752D01*
X75719Y279429D01*
X76529Y279267D01*
X77338D01*
X77986Y279429D01*
X78309Y279752D01*
X78471Y280238D01*
Y280400D01*
X78309Y280886D01*
X77986Y281209D01*
X77500Y281371D01*
X77338D01*
X76853Y281209D01*
X76529Y280886D01*
X76367Y280400D01*
Y280238D01*
X76529Y279752D01*
X76853Y279429D01*
X77338Y279267D01*
X70064Y318629D02*
Y315230D01*
Y318629D02*
X71521D01*
X72006Y318467D01*
X72168Y318305D01*
X72330Y317981D01*
Y317657D01*
X72168Y317334D01*
X72006Y317172D01*
X71521Y317010D01*
X70064D01*
X71197D02*
X72330Y315230D01*
X73091Y317981D02*
X73414Y318143D01*
X73900Y318629D01*
Y315230D01*
X75584Y317981D02*
X75907Y318143D01*
X76393Y318629D01*
Y315230D01*
X80190Y298863D02*
X83589D01*
X80190D02*
Y300320D01*
X80352Y300805D01*
X80514Y300967D01*
X80838Y301129D01*
X81161D01*
X81485Y300967D01*
X81647Y300805D01*
X81809Y300320D01*
Y298863D01*
Y299996D02*
X83589Y301129D01*
X80838Y301890D02*
X80676Y302214D01*
X80190Y302699D01*
X83589D01*
X80190Y306649D02*
X83589Y305030D01*
X80190Y304383D02*
Y306649D01*
X88064Y298863D02*
X91463D01*
X88064D02*
Y300320D01*
X88226Y300805D01*
X88388Y300967D01*
X88712Y301129D01*
X89035D01*
X89359Y300967D01*
X89521Y300805D01*
X89683Y300320D01*
Y298863D01*
Y299996D02*
X91463Y301129D01*
X88712Y301890D02*
X88550Y302214D01*
X88064Y302699D01*
X91463D01*
X88064Y305192D02*
X88226Y304706D01*
X88550Y304545D01*
X88873D01*
X89197Y304706D01*
X89359Y305030D01*
X89521Y305678D01*
X89683Y306163D01*
X90007Y306487D01*
X90330Y306649D01*
X90816D01*
X91140Y306487D01*
X91302Y306325D01*
X91463Y305839D01*
Y305192D01*
X91302Y304706D01*
X91140Y304545D01*
X90816Y304383D01*
X90330D01*
X90007Y304545D01*
X89683Y304868D01*
X89521Y305354D01*
X89359Y306001D01*
X89197Y306325D01*
X88873Y306487D01*
X88550D01*
X88226Y306325D01*
X88064Y305839D01*
Y305192D01*
X71763Y335952D02*
Y332552D01*
Y335952D02*
X73220D01*
X73705Y335790D01*
X73867Y335628D01*
X74029Y335304D01*
Y334980D01*
X73867Y334657D01*
X73705Y334495D01*
X73220Y334333D01*
X71763D01*
X72896D02*
X74029Y332552D01*
X75599Y335952D02*
X75114Y335790D01*
X74952Y335466D01*
Y335142D01*
X75114Y334819D01*
X75437Y334657D01*
X76085Y334495D01*
X76570Y334333D01*
X76894Y334009D01*
X77056Y333685D01*
Y333200D01*
X76894Y332876D01*
X76732Y332714D01*
X76247Y332552D01*
X75599D01*
X75114Y332714D01*
X74952Y332876D01*
X74790Y333200D01*
Y333685D01*
X74952Y334009D01*
X75275Y334333D01*
X75761Y334495D01*
X76409Y334657D01*
X76732Y334819D01*
X76894Y335142D01*
Y335466D01*
X76732Y335790D01*
X76247Y335952D01*
X75599D01*
X72157Y341463D02*
Y338064D01*
Y341463D02*
X73613D01*
X74099Y341301D01*
X74261Y341140D01*
X74423Y340816D01*
Y340492D01*
X74261Y340168D01*
X74099Y340007D01*
X73613Y339845D01*
X72157D01*
X73290D02*
X74423Y338064D01*
X77450Y341463D02*
X75831Y338064D01*
X75184Y341463D02*
X77450D01*
X71450Y324534D02*
Y321135D01*
Y324534D02*
X72907D01*
X73393Y324372D01*
X73554Y324211D01*
X73716Y323887D01*
Y323563D01*
X73554Y323239D01*
X73393Y323077D01*
X72907Y322916D01*
X71450D01*
X72583D02*
X73716Y321135D01*
X76420Y324049D02*
X76258Y324372D01*
X75772Y324534D01*
X75448D01*
X74963Y324372D01*
X74639Y323887D01*
X74477Y323077D01*
Y322268D01*
X74639Y321621D01*
X74963Y321297D01*
X75448Y321135D01*
X75610D01*
X76096Y321297D01*
X76420Y321621D01*
X76581Y322106D01*
Y322268D01*
X76420Y322754D01*
X76096Y323077D01*
X75610Y323239D01*
X75448D01*
X74963Y323077D01*
X74639Y322754D01*
X74477Y322268D01*
X99875Y275554D02*
X102465D01*
X102951Y275392D01*
X103113Y275231D01*
X103274Y274907D01*
Y274583D01*
X103113Y274259D01*
X102951Y274097D01*
X102465Y273936D01*
X102141D01*
X101656Y276428D02*
Y277885D01*
X101494Y278371D01*
X101332Y278533D01*
X101008Y278695D01*
X100523D01*
X100199Y278533D01*
X100037Y278371D01*
X99875Y277885D01*
Y276428D01*
X103274D01*
X100523Y279455D02*
X100361Y279779D01*
X99875Y280265D01*
X103274D01*
X100523Y281948D02*
X100361Y282272D01*
X99875Y282757D01*
X103274D01*
X108222Y274156D02*
X110811D01*
X111297Y273995D01*
X111459Y273833D01*
X111621Y273509D01*
Y273185D01*
X111459Y272862D01*
X111297Y272700D01*
X110811Y272538D01*
X110488D01*
X110002Y275031D02*
Y276487D01*
X109840Y276973D01*
X109678Y277135D01*
X109355Y277297D01*
X108869D01*
X108545Y277135D01*
X108384Y276973D01*
X108222Y276487D01*
Y275031D01*
X111621D01*
X108869Y278058D02*
X108707Y278381D01*
X108222Y278867D01*
X111621D01*
X109031Y280712D02*
X108869D01*
X108545Y280874D01*
X108384Y281036D01*
X108222Y281360D01*
Y282007D01*
X108384Y282331D01*
X108545Y282493D01*
X108869Y282655D01*
X109193D01*
X109517Y282493D01*
X110002Y282169D01*
X111621Y280550D01*
Y282817D01*
X128812Y274891D02*
X131402D01*
X131888Y274729D01*
X132050Y274567D01*
X132211Y274244D01*
Y273920D01*
X132050Y273596D01*
X131888Y273434D01*
X131402Y273272D01*
X131078D01*
X130593Y275765D02*
Y277222D01*
X130431Y277708D01*
X130269Y277870D01*
X129945Y278031D01*
X129460D01*
X129136Y277870D01*
X128974Y277708D01*
X128812Y277222D01*
Y275765D01*
X132211D01*
X128812Y281058D02*
X132211Y279440D01*
X128812Y278792D02*
Y281058D01*
X137710Y274810D02*
X140300D01*
X140785Y274648D01*
X140947Y274486D01*
X141109Y274163D01*
Y273839D01*
X140947Y273515D01*
X140785Y273353D01*
X140300Y273191D01*
X139976D01*
X139490Y275684D02*
Y277141D01*
X139329Y277627D01*
X139167Y277789D01*
X138843Y277950D01*
X138357D01*
X138033Y277789D01*
X137872Y277627D01*
X137710Y277141D01*
Y275684D01*
X141109D01*
X137710Y280330D02*
X139976Y278711D01*
Y281139D01*
X137710Y280330D02*
X141109D01*
X146804Y275009D02*
X149394D01*
X149880Y274847D01*
X150042Y274685D01*
X150204Y274362D01*
Y274038D01*
X150042Y273714D01*
X149880Y273552D01*
X149394Y273391D01*
X149071D01*
X148585Y275883D02*
Y277340D01*
X148423Y277826D01*
X148261Y277988D01*
X147937Y278150D01*
X147452D01*
X147128Y277988D01*
X146966Y277826D01*
X146804Y277340D01*
Y275883D01*
X150204D01*
X146804Y279234D02*
Y281015D01*
X148099Y280043D01*
Y280529D01*
X148261Y280853D01*
X148423Y281015D01*
X148909Y281176D01*
X149232D01*
X149718Y281015D01*
X150042Y280691D01*
X150204Y280205D01*
Y279720D01*
X150042Y279234D01*
X149880Y279072D01*
X149556Y278910D01*
X113383Y240286D02*
X113059Y239962D01*
X112898Y239477D01*
Y238829D01*
X113059Y238344D01*
X113383Y238020D01*
X113707D01*
X114031Y238182D01*
X114193Y238344D01*
X114355Y238667D01*
X114678Y239639D01*
X114840Y239962D01*
X115002Y240124D01*
X115326Y240286D01*
X115811D01*
X116135Y239962D01*
X116297Y239477D01*
Y238829D01*
X116135Y238344D01*
X115811Y238020D01*
X112898Y241047D02*
X116297D01*
X112898Y243313D02*
X116297D01*
X114516Y241047D02*
Y243313D01*
X112898Y245223D02*
X113059Y244900D01*
X113383Y244576D01*
X113707Y244414D01*
X114193Y244252D01*
X115002D01*
X115488Y244414D01*
X115811Y244576D01*
X116135Y244900D01*
X116297Y245223D01*
Y245871D01*
X116135Y246194D01*
X115811Y246518D01*
X115488Y246680D01*
X115002Y246842D01*
X114193D01*
X113707Y246680D01*
X113383Y246518D01*
X113059Y246194D01*
X112898Y245871D01*
Y245223D01*
X113707Y250063D02*
X113383Y249901D01*
X113059Y249577D01*
X112898Y249254D01*
Y248606D01*
X113059Y248283D01*
X113383Y247959D01*
X113707Y247797D01*
X114193Y247635D01*
X115002D01*
X115488Y247797D01*
X115811Y247959D01*
X116135Y248283D01*
X116297Y248606D01*
Y249254D01*
X116135Y249577D01*
X115811Y249901D01*
X115488Y250063D01*
X112898Y251018D02*
X116297D01*
X112898Y253284D02*
X115164Y251018D01*
X114355Y251828D02*
X116297Y253284D01*
X117430Y254045D02*
Y256635D01*
X113383Y259338D02*
X113059Y259015D01*
X112898Y258529D01*
Y257881D01*
X113059Y257396D01*
X113383Y257072D01*
X113707D01*
X114031Y257234D01*
X114193Y257396D01*
X114355Y257720D01*
X114678Y258691D01*
X114840Y259015D01*
X115002Y259176D01*
X115326Y259338D01*
X115811D01*
X116135Y259015D01*
X116297Y258529D01*
Y257881D01*
X116135Y257396D01*
X115811Y257072D01*
X112898Y261070D02*
X113059Y260585D01*
X113545Y260261D01*
X114355Y260099D01*
X114840D01*
X115649Y260261D01*
X116135Y260585D01*
X116297Y261070D01*
Y261394D01*
X116135Y261880D01*
X115649Y262203D01*
X114840Y262365D01*
X114355D01*
X113545Y262203D01*
X113059Y261880D01*
X112898Y261394D01*
Y261070D01*
X147631Y257603D02*
X151030D01*
X147631Y256470D02*
Y258736D01*
Y259141D02*
X151030Y261407D01*
X147631D02*
X151030Y259141D01*
X138131Y256220D02*
X141530D01*
X138131D02*
Y257677D01*
X138293Y258162D01*
X138454Y258324D01*
X138778Y258486D01*
X139102D01*
X139426Y258324D01*
X139588Y258162D01*
X139749Y257677D01*
Y256220D01*
Y257353D02*
X141530Y258486D01*
X138131Y259247D02*
X141530Y261513D01*
X138131D02*
X141530Y259247D01*
X129966Y255536D02*
X129643Y255212D01*
X129481Y254727D01*
Y254079D01*
X129643Y253594D01*
X129966Y253270D01*
X130290D01*
X130614Y253432D01*
X130776Y253594D01*
X130938Y253918D01*
X131261Y254889D01*
X131423Y255212D01*
X131585Y255374D01*
X131909Y255536D01*
X132394D01*
X132718Y255212D01*
X132880Y254727D01*
Y254079D01*
X132718Y253594D01*
X132394Y253270D01*
X129481Y256297D02*
X132880D01*
X129481D02*
Y257430D01*
X129643Y257916D01*
X129966Y258239D01*
X130290Y258401D01*
X130776Y258563D01*
X131585D01*
X132071Y258401D01*
X132394Y258239D01*
X132718Y257916D01*
X132880Y257430D01*
Y256297D01*
Y261914D02*
X129481Y260619D01*
X132880Y259324D01*
X131747Y259809D02*
Y261428D01*
X132600Y350107D02*
X136000D01*
X132600D02*
Y351564D01*
X132762Y352049D01*
X132924Y352211D01*
X133248Y352373D01*
X133572D01*
X133895Y352211D01*
X134057Y352049D01*
X134219Y351564D01*
Y350107D01*
Y351240D02*
X136000Y352373D01*
X133248Y353134D02*
X133086Y353458D01*
X132600Y353943D01*
X136000D01*
X132600Y356598D02*
X132762Y356112D01*
X133248Y355789D01*
X134057Y355627D01*
X134543D01*
X135352Y355789D01*
X135838Y356112D01*
X136000Y356598D01*
Y356922D01*
X135838Y357407D01*
X135352Y357731D01*
X134543Y357893D01*
X134057D01*
X133248Y357731D01*
X132762Y357407D01*
X132600Y356922D01*
Y356598D01*
X64925Y371303D02*
X63306D01*
X63144Y369846D01*
X63306Y370008D01*
X63792Y370170D01*
X64277D01*
X64763Y370008D01*
X65087Y369684D01*
X65248Y369198D01*
Y368875D01*
X65087Y368389D01*
X64763Y368065D01*
X64277Y367903D01*
X63792D01*
X63306Y368065D01*
X63144Y368227D01*
X62982Y368551D01*
X66009Y371303D02*
X67304Y367903D01*
X68599Y371303D02*
X67304Y367903D01*
X96056Y299219D02*
X99455D01*
X96056D02*
Y300676D01*
X96218Y301162D01*
X96380Y301324D01*
X96704Y301486D01*
X97027D01*
X97351Y301324D01*
X97513Y301162D01*
X97675Y300676D01*
Y299219D01*
Y300353D02*
X99455Y301486D01*
X96704Y302246D02*
X96542Y302570D01*
X96056Y303056D01*
X99455D01*
X97189Y306844D02*
X97675Y306682D01*
X97999Y306358D01*
X98161Y305872D01*
Y305711D01*
X97999Y305225D01*
X97675Y304901D01*
X97189Y304739D01*
X97027D01*
X96542Y304901D01*
X96218Y305225D01*
X96056Y305711D01*
Y305872D01*
X96218Y306358D01*
X96542Y306682D01*
X97189Y306844D01*
X97999D01*
X98808Y306682D01*
X99294Y306358D01*
X99455Y305872D01*
Y305549D01*
X99294Y305063D01*
X98970Y304901D01*
X88897Y371421D02*
X90677D01*
X89706Y370126D01*
X90192D01*
X90515Y369964D01*
X90677Y369802D01*
X90839Y369317D01*
Y368993D01*
X90677Y368507D01*
X90353Y368183D01*
X89868Y368022D01*
X89382D01*
X88897Y368183D01*
X88735Y368345D01*
X88573Y368669D01*
X91600Y371421D02*
X92895Y368022D01*
X94190Y371421D02*
X92895Y368022D01*
X94950Y371421D02*
X96731D01*
X95760Y370126D01*
X96245D01*
X96569Y369964D01*
X96731Y369802D01*
X96893Y369317D01*
Y368993D01*
X96731Y368507D01*
X96407Y368183D01*
X95922Y368022D01*
X95436D01*
X94950Y368183D01*
X94789Y368345D01*
X94627Y368669D01*
X116000Y157464D02*
X118428D01*
X118914Y157626D01*
X119238Y157950D01*
X119400Y158436D01*
Y158759D01*
X119238Y159245D01*
X118914Y159569D01*
X118428Y159731D01*
X116000D01*
Y162612D02*
Y160993D01*
X117457Y160831D01*
X117295Y160993D01*
X117133Y161479D01*
Y161964D01*
X117295Y162450D01*
X117619Y162774D01*
X118105Y162936D01*
X118428D01*
X118914Y162774D01*
X119238Y162450D01*
X119400Y161964D01*
Y161479D01*
X119238Y160993D01*
X119076Y160831D01*
X118752Y160669D01*
X88703Y151590D02*
X88542Y151914D01*
X88218Y152238D01*
X87894Y152400D01*
X87247D01*
X86923Y152238D01*
X86599Y151914D01*
X86437Y151590D01*
X86275Y151105D01*
Y150295D01*
X86437Y149810D01*
X86599Y149486D01*
X86923Y149162D01*
X87247Y149000D01*
X87894D01*
X88218Y149162D01*
X88542Y149486D01*
X88703Y149810D01*
X91925Y152400D02*
X90306Y149000D01*
X89658Y152400D02*
X91925D01*
X56777Y404434D02*
Y401520D01*
X55320Y402977D02*
X58234D01*
X61908D02*
X64822D01*
X55663Y278060D02*
X58253D01*
X58738Y277898D01*
X58900Y277737D01*
X59062Y277413D01*
Y277089D01*
X58900Y276765D01*
X58738Y276604D01*
X58253Y276442D01*
X57929D01*
X56148Y280877D02*
X55824Y280715D01*
X55663Y280229D01*
Y279906D01*
X55824Y279420D01*
X56310Y279096D01*
X57119Y278934D01*
X57929D01*
X58576Y279096D01*
X58900Y279420D01*
X59062Y279906D01*
Y280067D01*
X58900Y280553D01*
X58576Y280877D01*
X58091Y281039D01*
X57929D01*
X57443Y280877D01*
X57119Y280553D01*
X56958Y280067D01*
Y279906D01*
X57119Y279420D01*
X57443Y279096D01*
X57929Y278934D01*
X46332Y204357D02*
X48922D01*
X49407Y204195D01*
X49569Y204034D01*
X49731Y203710D01*
Y203386D01*
X49569Y203062D01*
X49407Y202901D01*
X48922Y202739D01*
X48598D01*
X46332Y207174D02*
Y205555D01*
X47789Y205393D01*
X47627Y205555D01*
X47465Y206041D01*
Y206526D01*
X47627Y207012D01*
X47951Y207336D01*
X48436Y207498D01*
X48760D01*
X49246Y207336D01*
X49569Y207012D01*
X49731Y206526D01*
Y206041D01*
X49569Y205555D01*
X49407Y205393D01*
X49084Y205231D01*
X68182Y63432D02*
X70772D01*
X71258Y63270D01*
X71420Y63108D01*
X71582Y62785D01*
Y62461D01*
X71420Y62137D01*
X71258Y61975D01*
X70772Y61813D01*
X70448D01*
X68830Y64306D02*
X68668Y64630D01*
X68182Y65116D01*
X71582D01*
X62828Y108961D02*
X65418D01*
X65903Y108800D01*
X66065Y108638D01*
X66227Y108314D01*
Y107990D01*
X66065Y107667D01*
X65903Y107505D01*
X65418Y107343D01*
X65094D01*
X62828Y111454D02*
X65094Y109836D01*
Y112264D01*
X62828Y111454D02*
X66227D01*
D16*
X58864Y219461D02*
X58301Y218898D01*
X58020Y218055D01*
Y216930D01*
X58301Y216087D01*
X58864Y215524D01*
X59426D01*
X59988Y215806D01*
X60269Y216087D01*
X60550Y216649D01*
X61113Y218336D01*
X61394Y218898D01*
X61675Y219179D01*
X62238Y219461D01*
X63081D01*
X63643Y218898D01*
X63924Y218055D01*
Y216930D01*
X63643Y216087D01*
X63081Y215524D01*
X58020Y220782D02*
X63924D01*
X58020Y224718D02*
X63924D01*
X60832Y220782D02*
Y224718D01*
X58020Y228036D02*
X58301Y227473D01*
X58864Y226911D01*
X59426Y226630D01*
X60269Y226349D01*
X61675D01*
X62519Y226630D01*
X63081Y226911D01*
X63643Y227473D01*
X63924Y228036D01*
Y229160D01*
X63643Y229723D01*
X63081Y230285D01*
X62519Y230566D01*
X61675Y230847D01*
X60269D01*
X59426Y230566D01*
X58864Y230285D01*
X58301Y229723D01*
X58020Y229160D01*
Y228036D01*
X59426Y236442D02*
X58864Y236161D01*
X58301Y235599D01*
X58020Y235036D01*
Y233912D01*
X58301Y233350D01*
X58864Y232787D01*
X59426Y232506D01*
X60269Y232225D01*
X61675D01*
X62519Y232506D01*
X63081Y232787D01*
X63643Y233350D01*
X63924Y233912D01*
Y235036D01*
X63643Y235599D01*
X63081Y236161D01*
X62519Y236442D01*
X58020Y238101D02*
X63924D01*
X58020Y242037D02*
X61956Y238101D01*
X60550Y239507D02*
X63924Y242037D01*
X58020Y249966D02*
X63924D01*
X58020Y247998D02*
Y251934D01*
Y252637D02*
X63924D01*
X58020D02*
Y255167D01*
X58301Y256011D01*
X58583Y256292D01*
X59145Y256573D01*
X59707D01*
X60269Y256292D01*
X60550Y256011D01*
X60832Y255167D01*
Y252637D01*
Y254605D02*
X63924Y256573D01*
Y262393D02*
X58020Y260144D01*
X63924Y257894D01*
X61956Y258738D02*
Y261549D01*
X58020Y263771D02*
X63924Y266020D01*
X58020Y268269D02*
X63924Y266020D01*
X58020Y272683D02*
Y269028D01*
X63924D01*
Y272683D01*
X60832Y269028D02*
Y271277D01*
X58020Y273667D02*
X63924D01*
Y277041D01*
X72930Y46750D02*
X72368Y46468D01*
X71805Y45906D01*
X71524Y45344D01*
Y44219D01*
X71805Y43657D01*
X72368Y43095D01*
X72930Y42813D01*
X73773Y42532D01*
X75179D01*
X76023Y42813D01*
X76585Y43095D01*
X77147Y43657D01*
X77428Y44219D01*
Y45344D01*
X77147Y45906D01*
X76585Y46468D01*
X76023Y46750D01*
X75179D01*
Y45344D02*
Y46750D01*
X74617Y48099D02*
Y50630D01*
X74336Y51473D01*
X74054Y51754D01*
X73492Y52035D01*
X72649D01*
X72086Y51754D01*
X71805Y51473D01*
X71524Y50630D01*
Y48099D01*
X77428D01*
X72368Y57293D02*
X71805Y56731D01*
X71524Y55887D01*
Y54763D01*
X71805Y53919D01*
X72368Y53357D01*
X72930D01*
X73492Y53638D01*
X73773Y53919D01*
X74054Y54481D01*
X74617Y56168D01*
X74898Y56731D01*
X75179Y57012D01*
X75741Y57293D01*
X76585D01*
X77147Y56731D01*
X77428Y55887D01*
Y54763D01*
X77147Y53919D01*
X76585Y53357D01*
X71327Y81036D02*
X77232D01*
X71327Y82273D02*
X77232D01*
X71327D02*
X77232Y84522D01*
X71327Y86772D02*
X77232Y84522D01*
X71327Y86772D02*
X77232D01*
X71327Y88459D02*
X75545D01*
X76388Y88740D01*
X76950Y89302D01*
X77232Y90146D01*
Y90708D01*
X76950Y91551D01*
X76388Y92114D01*
X75545Y92395D01*
X71327D01*
X58256Y302768D02*
X64161D01*
X58256D02*
Y305299D01*
X58538Y306142D01*
X58819Y306423D01*
X59381Y306705D01*
X59943D01*
X60506Y306423D01*
X60787Y306142D01*
X61068Y305299D01*
Y302768D01*
Y304737D02*
X64161Y306705D01*
Y312525D02*
X58256Y310275D01*
X64161Y308026D01*
X62193Y308870D02*
Y311681D01*
X59100Y317838D02*
X58538Y317276D01*
X58256Y316433D01*
Y315308D01*
X58538Y314464D01*
X59100Y313902D01*
X59662D01*
X60224Y314183D01*
X60506Y314464D01*
X60787Y315027D01*
X61349Y316714D01*
X61630Y317276D01*
X61911Y317557D01*
X62474Y317838D01*
X63317D01*
X63880Y317276D01*
X64161Y316433D01*
Y315308D01*
X63880Y314464D01*
X63317Y313902D01*
X61349Y319160D02*
Y321690D01*
X61068Y322534D01*
X60787Y322815D01*
X60224Y323096D01*
X59381D01*
X58819Y322815D01*
X58538Y322534D01*
X58256Y321690D01*
Y319160D01*
X64161D01*
X58256Y324417D02*
X64161D01*
X58256D02*
Y326948D01*
X58538Y327791D01*
X58819Y328072D01*
X59381Y328354D01*
X59943D01*
X60506Y328072D01*
X60787Y327791D01*
X61068Y326948D01*
Y324417D02*
Y326948D01*
X61349Y327791D01*
X61630Y328072D01*
X62193Y328354D01*
X63036D01*
X63598Y328072D01*
X63880Y327791D01*
X64161Y326948D01*
Y324417D01*
X58256Y333330D02*
Y329675D01*
X64161D01*
Y333330D01*
X61068Y329675D02*
Y331924D01*
X58256Y334314D02*
X64161D01*
X58256D02*
Y336844D01*
X58538Y337688D01*
X58819Y337969D01*
X59381Y338250D01*
X59943D01*
X60506Y337969D01*
X60787Y337688D01*
X61068Y336844D01*
Y334314D01*
Y336282D02*
X64161Y338250D01*
X58256Y339572D02*
X64161D01*
X58256D02*
Y342102D01*
X58538Y342946D01*
X58819Y343227D01*
X59381Y343508D01*
X59943D01*
X60506Y343227D01*
X60787Y342946D01*
X61068Y342102D01*
Y339572D01*
Y341540D02*
X64161Y343508D01*
X58256Y344829D02*
X61068Y347078D01*
X64161D01*
X58256Y349328D02*
X61068Y347078D01*
X61349Y354726D02*
Y357256D01*
X61068Y358100D01*
X60787Y358381D01*
X60224Y358662D01*
X59381D01*
X58819Y358381D01*
X58538Y358100D01*
X58256Y357256D01*
Y354726D01*
X64161D01*
X58256Y359983D02*
X64161D01*
X48700Y431361D02*
X51230D01*
X52074Y431643D01*
X52355Y431924D01*
X52636Y432486D01*
Y433330D01*
X52355Y433892D01*
X52074Y434173D01*
X51230Y434454D01*
X48700D01*
Y428550D01*
X53958Y434454D02*
Y428550D01*
Y434454D02*
X55926D01*
X56769Y434173D01*
X57331Y433611D01*
X57613Y433048D01*
X57894Y432205D01*
Y430799D01*
X57613Y429956D01*
X57331Y429393D01*
X56769Y428831D01*
X55926Y428550D01*
X53958D01*
X59215Y434454D02*
Y428550D01*
Y434454D02*
X61746D01*
X62589Y434173D01*
X62870Y433892D01*
X63151Y433330D01*
Y432767D01*
X62870Y432205D01*
X62589Y431924D01*
X61746Y431643D01*
X59215D02*
X61746D01*
X62589Y431361D01*
X62870Y431080D01*
X63151Y430518D01*
Y429675D01*
X62870Y429112D01*
X62589Y428831D01*
X61746Y428550D01*
X59215D01*
D17*
X121880Y42126D02*
X127784D01*
X121880D02*
Y44094D01*
X122161Y44938D01*
X122723Y45500D01*
X123286Y45781D01*
X124129Y46062D01*
X125535D01*
X126378Y45781D01*
X126941Y45500D01*
X127503Y44938D01*
X127784Y44094D01*
Y42126D01*
Y51882D02*
X121880Y49633D01*
X127784Y47384D01*
X125816Y48227D02*
Y51039D01*
X121880Y54947D02*
X122161Y54384D01*
X122723Y53822D01*
X123286Y53541D01*
X124129Y53260D01*
X125535D01*
X126378Y53541D01*
X126941Y53822D01*
X127503Y54384D01*
X127784Y54947D01*
Y56071D01*
X127503Y56634D01*
X126941Y57196D01*
X126378Y57477D01*
X125535Y57758D01*
X124129D01*
X123286Y57477D01*
X122723Y57196D01*
X122161Y56634D01*
X121880Y56071D01*
Y54947D01*
X126660Y55790D02*
X128347Y57477D01*
X121880Y63775D02*
X127784D01*
X121880D02*
Y66305D01*
X122161Y67149D01*
X122442Y67430D01*
X123004Y67711D01*
X123567D01*
X124129Y67430D01*
X124410Y67149D01*
X124691Y66305D01*
Y63775D02*
Y66305D01*
X124973Y67149D01*
X125254Y67430D01*
X125816Y67711D01*
X126660D01*
X127222Y67430D01*
X127503Y67149D01*
X127784Y66305D01*
Y63775D01*
X123848Y70438D02*
X124129Y69876D01*
X124691Y69314D01*
X125535Y69033D01*
X126097D01*
X126941Y69314D01*
X127503Y69876D01*
X127784Y70438D01*
Y71282D01*
X127503Y71844D01*
X126941Y72406D01*
X126097Y72688D01*
X125535D01*
X124691Y72406D01*
X124129Y71844D01*
X123848Y71282D01*
Y70438D01*
Y77355D02*
X127784D01*
X124691D02*
X124129Y76792D01*
X123848Y76230D01*
Y75387D01*
X124129Y74824D01*
X124691Y74262D01*
X125535Y73981D01*
X126097D01*
X126941Y74262D01*
X127503Y74824D01*
X127784Y75387D01*
Y76230D01*
X127503Y76792D01*
X126941Y77355D01*
X123848Y78929D02*
X127784D01*
X125535D02*
X124691Y79210D01*
X124129Y79773D01*
X123848Y80335D01*
Y81178D01*
X121880Y85086D02*
X127784D01*
X124691D02*
X124129Y84524D01*
X123848Y83962D01*
Y83118D01*
X124129Y82556D01*
X124691Y81994D01*
X125535Y81713D01*
X126097D01*
X126941Y81994D01*
X127503Y82556D01*
X127784Y83118D01*
Y83962D01*
X127503Y84524D01*
X126941Y85086D01*
X121880Y91300D02*
X127784D01*
X121880D02*
Y93830D01*
X122161Y94674D01*
X122442Y94955D01*
X123004Y95236D01*
X123567D01*
X124129Y94955D01*
X124410Y94674D01*
X124691Y93830D01*
Y91300D01*
Y93268D02*
X127784Y95236D01*
X125535Y96557D02*
Y99931D01*
X124973D01*
X124410Y99650D01*
X124129Y99369D01*
X123848Y98807D01*
Y97963D01*
X124129Y97401D01*
X124691Y96839D01*
X125535Y96557D01*
X126097D01*
X126941Y96839D01*
X127503Y97401D01*
X127784Y97963D01*
Y98807D01*
X127503Y99369D01*
X126941Y99931D01*
X123848Y101197D02*
X127784Y102884D01*
X123848Y104570D02*
X127784Y102884D01*
X123004Y110165D02*
X122723Y110728D01*
X121880Y111571D01*
X127784D01*
M02*
