G04*
G04 #@! TF.GenerationSoftware,Altium Limited,Altium Designer,20.2.6 (244)*
G04*
G04 Layer_Color=8388736*
%FSLAX25Y25*%
%MOIN*%
G70*
G04*
G04 #@! TF.SameCoordinates,F9407C2F-A710-425B-A60E-68E32FB4EAEC*
G04*
G04*
G04 #@! TF.FilePolarity,Negative*
G04*
G01*
G75*
%ADD30R,0.03937X0.04134*%
%ADD31R,0.05906X0.02165*%
%ADD32R,0.05906X0.02953*%
%ADD33C,0.08465*%
%ADD34R,0.04528X0.04724*%
%ADD35R,0.04528X0.07874*%
%ADD36R,0.13189X0.07874*%
%ADD37R,0.03740X0.03740*%
%ADD38R,0.04724X0.04528*%
%ADD39O,0.02953X0.08071*%
%ADD40R,0.04134X0.03937*%
%ADD41O,0.01772X0.06299*%
%ADD42C,0.06890*%
%ADD43C,0.12795*%
%ADD44C,0.07284*%
%ADD45C,0.06102*%
%ADD46C,0.25000*%
D30*
X81279Y334173D02*
D03*
X87382D02*
D03*
X140952Y402394D02*
D03*
X134850D02*
D03*
X134810Y396602D02*
D03*
X140913D02*
D03*
X87382Y311142D02*
D03*
X81279D02*
D03*
Y322756D02*
D03*
X87382D02*
D03*
X81248Y361700D02*
D03*
X87350D02*
D03*
X81250Y339963D02*
D03*
X87352D02*
D03*
X87382Y316850D02*
D03*
X81279D02*
D03*
X87382Y328465D02*
D03*
X81279D02*
D03*
X87350Y355991D02*
D03*
X81248D02*
D03*
X81250Y350250D02*
D03*
X87352D02*
D03*
D31*
X125650Y319508D02*
D03*
Y322067D02*
D03*
Y327185D02*
D03*
Y329744D02*
D03*
X102618Y339980D02*
D03*
Y342539D02*
D03*
Y337421D02*
D03*
Y334862D02*
D03*
Y322067D02*
D03*
Y332303D02*
D03*
Y329744D02*
D03*
Y327185D02*
D03*
Y324626D02*
D03*
Y319508D02*
D03*
X125650Y342539D02*
D03*
Y339980D02*
D03*
Y337421D02*
D03*
Y334862D02*
D03*
Y332303D02*
D03*
Y324626D02*
D03*
D32*
X102618Y345492D02*
D03*
Y316555D02*
D03*
X125650Y345492D02*
D03*
Y316555D02*
D03*
D33*
X89950Y134150D02*
D03*
X79900Y377953D02*
D03*
X65900D02*
D03*
X121575Y267795D02*
D03*
X85433Y267795D02*
D03*
X94488Y267795D02*
D03*
X76378D02*
D03*
X103543Y267795D02*
D03*
X112598D02*
D03*
X130748Y267795D02*
D03*
X139764Y267795D02*
D03*
X148819D02*
D03*
X92520Y377953D02*
D03*
D34*
X109622Y231063D02*
D03*
Y236968D02*
D03*
X69100Y237053D02*
D03*
Y231147D02*
D03*
X119685Y351279D02*
D03*
Y357185D02*
D03*
D35*
X126770Y422637D02*
D03*
X117715D02*
D03*
X108660D02*
D03*
D36*
X117715Y398424D02*
D03*
D37*
X152625Y396602D02*
D03*
X146326D02*
D03*
X152665Y402591D02*
D03*
X146365D02*
D03*
D38*
X108699Y430426D02*
D03*
X114605D02*
D03*
X117754Y390649D02*
D03*
X123660D02*
D03*
X85903Y388300D02*
D03*
X79997D02*
D03*
X97647Y151300D02*
D03*
X103553D02*
D03*
D39*
X103980Y223307D02*
D03*
X98980D02*
D03*
X93980D02*
D03*
X88980D02*
D03*
X83980D02*
D03*
X78980D02*
D03*
X73980D02*
D03*
X68980D02*
D03*
X103980Y185906D02*
D03*
X98980D02*
D03*
X93980D02*
D03*
X88980D02*
D03*
X83980D02*
D03*
X78980D02*
D03*
X73980D02*
D03*
X68980D02*
D03*
X147563Y223268D02*
D03*
X142563D02*
D03*
X137563D02*
D03*
X132563D02*
D03*
X127563D02*
D03*
X122563D02*
D03*
X117563D02*
D03*
X112563D02*
D03*
X147563Y185866D02*
D03*
X142563D02*
D03*
X137563D02*
D03*
X132563D02*
D03*
X127563D02*
D03*
X122563D02*
D03*
X117563D02*
D03*
X112563D02*
D03*
D40*
X105512Y288386D02*
D03*
Y294488D02*
D03*
X113386Y288386D02*
D03*
Y294488D02*
D03*
X121260Y294350D02*
D03*
Y288248D02*
D03*
X129134Y294350D02*
D03*
Y288248D02*
D03*
X137008Y294350D02*
D03*
Y288248D02*
D03*
X144882D02*
D03*
Y294350D02*
D03*
X81890Y288386D02*
D03*
Y294488D02*
D03*
X89764Y288386D02*
D03*
Y294488D02*
D03*
X125591Y351181D02*
D03*
Y357283D02*
D03*
X97638Y288386D02*
D03*
Y294488D02*
D03*
D41*
X102056Y158335D02*
D03*
X104024D02*
D03*
X105993D02*
D03*
X107961D02*
D03*
X109930D02*
D03*
X102056Y175658D02*
D03*
X104024D02*
D03*
X105993D02*
D03*
X107961D02*
D03*
X109930D02*
D03*
D42*
X65000Y94291D02*
D03*
Y80512D02*
D03*
X53189D02*
D03*
Y94291D02*
D03*
X53189Y56890D02*
D03*
Y43110D02*
D03*
X65000D02*
D03*
Y56890D02*
D03*
D43*
X22047Y87402D02*
D03*
X22047Y50000D02*
D03*
D44*
X50748Y292559D02*
D03*
Y302559D02*
D03*
Y312559D02*
D03*
Y322559D02*
D03*
Y332559D02*
D03*
Y342559D02*
D03*
Y352559D02*
D03*
Y362559D02*
D03*
Y372559D02*
D03*
X87677Y396535D02*
D03*
X77677D02*
D03*
X41653Y271142D02*
D03*
Y261142D02*
D03*
Y251142D02*
D03*
Y241142D02*
D03*
Y231142D02*
D03*
X51653Y261142D02*
D03*
Y221142D02*
D03*
Y231142D02*
D03*
Y241142D02*
D03*
Y251142D02*
D03*
Y271142D02*
D03*
X41653Y221142D02*
D03*
D45*
X38583Y114961D02*
D03*
Y122835D02*
D03*
Y130709D02*
D03*
Y138583D02*
D03*
Y146457D02*
D03*
Y154331D02*
D03*
Y162205D02*
D03*
Y170079D02*
D03*
Y177953D02*
D03*
Y185827D02*
D03*
Y193701D02*
D03*
Y201575D02*
D03*
X30709Y201575D02*
D03*
Y193701D02*
D03*
Y185827D02*
D03*
Y177953D02*
D03*
Y170079D02*
D03*
Y162205D02*
D03*
Y154331D02*
D03*
Y146457D02*
D03*
Y138583D02*
D03*
Y130709D02*
D03*
Y114961D02*
D03*
Y122835D02*
D03*
D46*
X17717Y431102D02*
D03*
X147638D02*
D03*
Y17717D02*
D03*
X17717D02*
D03*
M02*
