G04*
G04 #@! TF.GenerationSoftware,Altium Limited,Altium Designer,20.2.6 (244)*
G04*
G04 Layer_Color=24703*
%FSLAX25Y25*%
%MOIN*%
G70*
G04*
G04 #@! TF.SameCoordinates,B7C649A0-D185-4167-BDA9-E368864AB92A*
G04*
G04*
G04 #@! TF.FilePolarity,Positive*
G04*
G01*
G75*
%ADD14C,0.00620*%
D14*
X2200Y31999D02*
Y28600D01*
Y31999D02*
X3495Y28600D01*
X4790Y31999D02*
X3495Y28600D01*
X4790Y31999D02*
Y28600D01*
X5761Y31999D02*
Y28600D01*
X8027Y31999D02*
Y28600D01*
X5761Y30381D02*
X8027D01*
X9128Y31190D02*
Y31352D01*
X9290Y31675D01*
X9452Y31837D01*
X9775Y31999D01*
X10423D01*
X10747Y31837D01*
X10909Y31675D01*
X11071Y31352D01*
Y31028D01*
X10909Y30704D01*
X10585Y30219D01*
X8966Y28600D01*
X11232D01*
X3850Y193274D02*
Y189875D01*
Y193274D02*
X5145Y189875D01*
X6440Y193274D02*
X5145Y189875D01*
X6440Y193274D02*
Y189875D01*
X7411Y193274D02*
Y189875D01*
X9677Y193274D02*
Y189875D01*
X7411Y191656D02*
X9677D01*
X10616Y192627D02*
X10940Y192789D01*
X11426Y193274D01*
Y189875D01*
X237610Y33353D02*
Y29954D01*
Y33353D02*
X238905Y29954D01*
X240200Y33353D02*
X238905Y29954D01*
X240200Y33353D02*
Y29954D01*
X241171Y33353D02*
Y29954D01*
X243437Y33353D02*
Y29954D01*
X241171Y31734D02*
X243437D01*
X244700Y33353D02*
X246480D01*
X245509Y32058D01*
X245995D01*
X246318Y31896D01*
X246480Y31734D01*
X246642Y31249D01*
Y30925D01*
X246480Y30439D01*
X246157Y30116D01*
X245671Y29954D01*
X245185D01*
X244700Y30116D01*
X244538Y30278D01*
X244376Y30601D01*
X255757Y214101D02*
Y210702D01*
Y214101D02*
X257052Y210702D01*
X258347Y214101D02*
X257052Y210702D01*
X258347Y214101D02*
Y210702D01*
X259318Y214101D02*
Y210702D01*
X261584Y214101D02*
Y210702D01*
X259318Y212483D02*
X261584D01*
X264142Y214101D02*
X262523Y211835D01*
X264951D01*
X264142Y214101D02*
Y210702D01*
M02*
