G04*
G04 #@! TF.GenerationSoftware,Altium Limited,Altium Designer,20.2.6 (244)*
G04*
G04 Layer_Color=65535*
%FSLAX25Y25*%
%MOIN*%
G70*
G04*
G04 #@! TF.SameCoordinates,A761004E-7D6E-4A87-B3DE-CFC7A672E5A2*
G04*
G04*
G04 #@! TF.FilePolarity,Positive*
G04*
G01*
G75*
%ADD10C,0.00787*%
%ADD11C,0.00984*%
%ADD12C,0.01000*%
%ADD13C,0.00197*%
%ADD14C,0.00620*%
%ADD15C,0.00800*%
%ADD16C,0.01181*%
G36*
X149833Y75215D02*
X149957Y75201D01*
X150066Y75179D01*
X150146Y75164D01*
X150183Y75157D01*
X150205D01*
X150219Y75150D01*
X150226D01*
X153529Y74318D01*
X153689Y74260D01*
X153835Y74187D01*
X153966Y74100D01*
X154076Y74005D01*
X154163Y73918D01*
X154229Y73845D01*
X154251Y73816D01*
X154265Y73801D01*
X154272Y73786D01*
X154280Y73779D01*
X154382Y73619D01*
X154455Y73458D01*
X154506Y73298D01*
X154542Y73159D01*
X154564Y73035D01*
X154571Y72984D01*
Y72941D01*
X154579Y72904D01*
Y71898D01*
X150766Y72853D01*
X150642Y72882D01*
X150540Y72890D01*
X150452D01*
X150380Y72882D01*
X150329Y72868D01*
X150285Y72853D01*
X150263Y72846D01*
X150256Y72839D01*
X150197Y72795D01*
X150161Y72729D01*
X150132Y72664D01*
X150110Y72591D01*
X150095Y72525D01*
X150088Y72474D01*
Y72423D01*
X150095Y72306D01*
X150117Y72204D01*
X150139Y72110D01*
X150168Y72037D01*
X150205Y71971D01*
X150226Y71927D01*
X150248Y71898D01*
X150256Y71891D01*
X150329Y71818D01*
X150409Y71760D01*
X150489Y71709D01*
X150576Y71672D01*
X150649Y71636D01*
X150708Y71614D01*
X150751Y71607D01*
X150759Y71599D01*
X150766D01*
X154579Y70644D01*
Y68494D01*
X150773Y69441D01*
X150649Y69471D01*
X150547Y69485D01*
X150452D01*
X150380Y69478D01*
X150329Y69463D01*
X150285Y69449D01*
X150263Y69441D01*
X150256Y69434D01*
X150197Y69383D01*
X150161Y69325D01*
X150132Y69252D01*
X150110Y69179D01*
X150095Y69113D01*
X150088Y69062D01*
Y69011D01*
X150095Y68902D01*
X150117Y68800D01*
X150139Y68713D01*
X150168Y68640D01*
X150205Y68581D01*
X150226Y68537D01*
X150248Y68508D01*
X150256Y68501D01*
X150329Y68428D01*
X150409Y68370D01*
X150489Y68319D01*
X150576Y68282D01*
X150649Y68253D01*
X150708Y68231D01*
X150751Y68224D01*
X150759Y68217D01*
X150766D01*
X154579Y67255D01*
Y65104D01*
X148805Y66547D01*
Y68720D01*
X149505Y68552D01*
Y68574D01*
X149352Y68705D01*
X149221Y68836D01*
X149111Y68975D01*
X149024Y69099D01*
X148951Y69208D01*
X148922Y69252D01*
X148900Y69288D01*
X148885Y69325D01*
X148871Y69347D01*
X148863Y69361D01*
Y69369D01*
X148790Y69543D01*
X148739Y69726D01*
X148696Y69901D01*
X148674Y70068D01*
X148659Y70141D01*
Y70207D01*
X148652Y70265D01*
X148644Y70316D01*
Y70542D01*
X148652Y70659D01*
X148659Y70761D01*
X148674Y70848D01*
X148681Y70921D01*
X148696Y70972D01*
X148703Y71001D01*
Y71016D01*
X148725Y71111D01*
X148747Y71191D01*
X148776Y71264D01*
X148805Y71330D01*
X148827Y71381D01*
X148849Y71417D01*
X148856Y71439D01*
X148863Y71446D01*
X148907Y71504D01*
X148958Y71556D01*
X149002Y71607D01*
X149046Y71643D01*
X149089Y71672D01*
X149118Y71694D01*
X149140Y71701D01*
X149148Y71709D01*
X149279Y71774D01*
X149344Y71803D01*
X149410Y71825D01*
X149461Y71840D01*
X149505Y71854D01*
X149534Y71862D01*
X149541D01*
X149454Y71935D01*
X149373Y72008D01*
X149301Y72073D01*
X149235Y72139D01*
X149184Y72197D01*
X149148Y72241D01*
X149126Y72270D01*
X149118Y72277D01*
X149053Y72365D01*
X149002Y72452D01*
X148958Y72532D01*
X148914Y72605D01*
X148885Y72671D01*
X148863Y72722D01*
X148856Y72751D01*
X148849Y72766D01*
X148783Y72948D01*
X148754Y73028D01*
X148732Y73108D01*
X148717Y73167D01*
X148703Y73218D01*
X148696Y73254D01*
Y73261D01*
X148666Y73444D01*
X148659Y73531D01*
X148652Y73611D01*
X148644Y73677D01*
Y73910D01*
X148659Y74034D01*
X148666Y74151D01*
X148681Y74253D01*
X148696Y74333D01*
X148710Y74391D01*
X148717Y74428D01*
X148725Y74442D01*
X148754Y74552D01*
X148790Y74647D01*
X148834Y74741D01*
X148871Y74814D01*
X148907Y74872D01*
X148936Y74923D01*
X148958Y74953D01*
X148965Y74960D01*
X149038Y75026D01*
X149118Y75084D01*
X149199Y75128D01*
X149272Y75157D01*
X149344Y75179D01*
X149403Y75201D01*
X149439Y75208D01*
X149446D01*
X149454D01*
X149578Y75222D01*
X149709D01*
X149833Y75215D01*
D02*
G37*
G36*
X154586Y64040D02*
Y61896D01*
X153893Y62064D01*
Y62035D01*
X154039Y61904D01*
X154163Y61772D01*
X154272Y61641D01*
X154360Y61517D01*
X154426Y61408D01*
X154455Y61364D01*
X154476Y61328D01*
X154491Y61291D01*
X154506Y61269D01*
X154513Y61255D01*
Y61247D01*
X154586Y61072D01*
X154637Y60898D01*
X154673Y60723D01*
X154695Y60562D01*
X154710Y60489D01*
Y60424D01*
X154717Y60358D01*
X154724Y60314D01*
Y60074D01*
X154717Y59950D01*
X154702Y59833D01*
X154688Y59738D01*
X154673Y59658D01*
X154666Y59600D01*
X154651Y59563D01*
Y59549D01*
X154615Y59447D01*
X154579Y59352D01*
X154535Y59272D01*
X154491Y59199D01*
X154455Y59148D01*
X154426Y59104D01*
X154404Y59075D01*
X154396Y59068D01*
X154331Y58995D01*
X154258Y58929D01*
X154185Y58886D01*
X154112Y58849D01*
X154039Y58820D01*
X153988Y58805D01*
X153952Y58791D01*
X153937D01*
X153813Y58776D01*
X153689D01*
X153565Y58784D01*
X153441Y58798D01*
X153339Y58820D01*
X153252Y58834D01*
X153223Y58842D01*
X153201D01*
X153186Y58849D01*
X153179D01*
X148805Y59943D01*
Y62093D01*
X152625Y61138D01*
X152749Y61116D01*
X152851Y61102D01*
X152938D01*
X153011Y61116D01*
X153070Y61124D01*
X153106Y61138D01*
X153135Y61145D01*
X153142Y61153D01*
X153201Y61204D01*
X153244Y61262D01*
X153274Y61328D01*
X153296Y61401D01*
X153310Y61459D01*
X153317Y61510D01*
Y61561D01*
X153310Y61678D01*
X153288Y61780D01*
X153259Y61867D01*
X153230Y61940D01*
X153201Y61998D01*
X153172Y62042D01*
X153150Y62071D01*
X153142Y62079D01*
X153070Y62151D01*
X152989Y62210D01*
X152902Y62261D01*
X152814Y62305D01*
X152742Y62334D01*
X152683Y62356D01*
X152639Y62363D01*
X152632Y62370D01*
X152625D01*
X148805Y63332D01*
Y65483D01*
X154586Y64040D01*
D02*
G37*
G36*
Y57515D02*
Y55365D01*
X148805Y56808D01*
Y58966D01*
X154586Y57515D01*
D02*
G37*
G36*
X150102Y55692D02*
Y54789D01*
X152851Y54103D01*
X152931Y54089D01*
X153004D01*
X153062D01*
X153113Y54103D01*
X153150Y54118D01*
X153179Y54132D01*
X153193Y54140D01*
X153201Y54147D01*
X153237Y54198D01*
X153266Y54249D01*
X153281Y54315D01*
X153296Y54380D01*
X153303Y54439D01*
Y54891D01*
X154586Y54570D01*
X154593Y54446D01*
X154601Y54329D01*
X154608Y54227D01*
X154615Y54132D01*
Y54052D01*
X154622Y53987D01*
Y53936D01*
X154630Y53826D01*
Y53615D01*
X154637Y53527D01*
Y53170D01*
X154630Y53010D01*
X154622Y52871D01*
X154608Y52747D01*
X154601Y52653D01*
X154586Y52580D01*
X154579Y52536D01*
Y52521D01*
X154549Y52405D01*
X154520Y52303D01*
X154484Y52215D01*
X154455Y52142D01*
X154426Y52084D01*
X154404Y52047D01*
X154389Y52018D01*
X154382Y52011D01*
X154323Y51946D01*
X154258Y51894D01*
X154185Y51851D01*
X154119Y51822D01*
X154054Y51800D01*
X154003Y51785D01*
X153966Y51778D01*
X153952D01*
X153835Y51771D01*
X153704Y51778D01*
X153580Y51792D01*
X153456Y51814D01*
X153347Y51829D01*
X153266Y51851D01*
X153230Y51858D01*
X153208D01*
X153193Y51865D01*
X153186D01*
X147041Y53418D01*
Y55576D01*
X148805Y55109D01*
Y56013D01*
X150102Y55692D01*
D02*
G37*
G36*
X154586Y50488D02*
Y48330D01*
X146960Y50247D01*
Y52397D01*
X154586Y50488D01*
D02*
G37*
G36*
Y45392D02*
X153259Y45465D01*
Y43613D01*
X154579Y43030D01*
X154586Y40551D01*
X148477Y43824D01*
X148353Y43897D01*
X148244Y43977D01*
X148134Y44058D01*
X148047Y44123D01*
X147974Y44189D01*
X147915Y44233D01*
X147886Y44262D01*
X147872Y44276D01*
X147770Y44378D01*
X147682Y44480D01*
X147602Y44575D01*
X147529Y44663D01*
X147478Y44743D01*
X147434Y44801D01*
X147405Y44838D01*
X147398Y44852D01*
X147325Y44976D01*
X147267Y45093D01*
X147208Y45210D01*
X147165Y45319D01*
X147128Y45406D01*
X147106Y45479D01*
X147099Y45501D01*
X147092Y45523D01*
X147084Y45530D01*
Y45537D01*
X147048Y45676D01*
X147019Y45815D01*
X146997Y45946D01*
X146982Y46062D01*
X146968Y46165D01*
Y46245D01*
X146960Y46274D01*
Y47593D01*
X154586Y47878D01*
Y45392D01*
D02*
G37*
G36*
X140610Y99484D02*
X138015D01*
X140610Y98478D01*
Y97894D01*
X138015Y96874D01*
X140610D01*
Y96232D01*
X136892D01*
Y96947D01*
X139706Y98201D01*
X136892Y99440D01*
Y100125D01*
X140610D01*
Y99484D01*
D02*
G37*
G36*
X139079Y95561D02*
X139283Y95532D01*
X139517Y95474D01*
X139750Y95401D01*
X139969Y95284D01*
X140173Y95124D01*
X140187Y95109D01*
X140246Y95037D01*
X140319Y94935D01*
X140406Y94774D01*
X140493Y94585D01*
X140566Y94351D01*
X140625Y94074D01*
X140639Y93754D01*
Y93666D01*
X140625Y93608D01*
X140610Y93447D01*
X140581Y93243D01*
X140523Y93025D01*
X140435Y92806D01*
X140333Y92587D01*
X140173Y92383D01*
X140144Y92369D01*
X140085Y92310D01*
X139969Y92237D01*
X139808Y92150D01*
X139619Y92062D01*
X139371Y91975D01*
X139094Y91917D01*
X138758Y91887D01*
X138744D01*
X138715D01*
X138671D01*
X138598Y91902D01*
X138438Y91917D01*
X138233Y91946D01*
X138000Y92004D01*
X137767Y92092D01*
X137548Y92194D01*
X137359Y92354D01*
X137344Y92383D01*
X137286Y92441D01*
X137213Y92558D01*
X137111Y92704D01*
X137023Y92908D01*
X136951Y93141D01*
X136892Y93433D01*
X136878Y93754D01*
Y93899D01*
X136907Y94060D01*
X136936Y94264D01*
X136994Y94483D01*
X137082Y94716D01*
X137198Y94935D01*
X137359Y95124D01*
X137373Y95139D01*
X137446Y95197D01*
X137548Y95270D01*
X137709Y95357D01*
X137898Y95445D01*
X138146Y95518D01*
X138423Y95576D01*
X138758Y95591D01*
X138773D01*
X138802D01*
X138846D01*
X138904D01*
X139079Y95561D01*
D02*
G37*
G36*
X137490Y90575D02*
X140610D01*
Y89875D01*
X137490D01*
Y88811D01*
X136892D01*
Y91625D01*
X137490D01*
Y90575D01*
D02*
G37*
G36*
X140610Y87747D02*
X137855Y85778D01*
X140610D01*
Y85108D01*
X136892D01*
Y85808D01*
X139604Y87761D01*
X136892D01*
Y88417D01*
X140610D01*
Y87747D01*
D02*
G37*
G36*
Y83927D02*
X139604Y83504D01*
Y82265D01*
X139006Y82512D01*
Y83256D01*
X137607Y82673D01*
X140610Y81448D01*
Y80748D01*
X136892Y82308D01*
Y83052D01*
X140610Y84670D01*
Y83927D01*
D02*
G37*
G36*
Y79611D02*
X139035D01*
Y77774D01*
X140610D01*
Y77089D01*
X136892D01*
Y77774D01*
X138438D01*
Y79611D01*
X136892D01*
Y80282D01*
X140610D01*
Y79611D01*
D02*
G37*
G36*
X138146Y76622D02*
X138263Y76593D01*
X138409Y76535D01*
X138569Y76476D01*
X138715Y76374D01*
X138860Y76243D01*
X138875Y76228D01*
X138919Y76170D01*
X138977Y76083D01*
X139050Y75951D01*
X139123Y75791D01*
X139196Y75587D01*
X139269Y75354D01*
X139313Y75077D01*
X138715Y74975D01*
Y74989D01*
X138700Y75047D01*
X138671Y75135D01*
X138642Y75237D01*
X138554Y75470D01*
X138496Y75572D01*
X138438Y75674D01*
X138423Y75689D01*
X138409Y75718D01*
X138365Y75747D01*
X138306Y75806D01*
X138161Y75879D01*
X138073Y75908D01*
X137971Y75922D01*
X137957D01*
X137927D01*
X137840Y75908D01*
X137738Y75879D01*
X137636Y75806D01*
X137621Y75791D01*
X137577Y75718D01*
X137534Y75616D01*
X137519Y75456D01*
Y74523D01*
X140610D01*
Y73837D01*
X136892D01*
Y75587D01*
X136907Y75689D01*
X136921Y75820D01*
X136951Y75951D01*
X137009Y76097D01*
X137067Y76228D01*
X137155Y76345D01*
X137169Y76360D01*
X137198Y76389D01*
X137271Y76433D01*
X137344Y76491D01*
X137461Y76549D01*
X137592Y76593D01*
X137752Y76622D01*
X137942Y76637D01*
X137971D01*
X138029D01*
X138146Y76622D01*
D02*
G37*
G36*
X140610Y71257D02*
X138015D01*
X140610Y70236D01*
Y69653D01*
X138015Y68632D01*
X140610D01*
Y67991D01*
X136892D01*
Y68720D01*
X139706Y69959D01*
X136892Y71198D01*
Y71884D01*
X140610D01*
Y71257D01*
D02*
G37*
G36*
Y66810D02*
X139604Y66387D01*
Y65148D01*
X139006Y65381D01*
Y66139D01*
X137607Y65556D01*
X140610Y64317D01*
Y63631D01*
X136892Y65191D01*
Y65935D01*
X140610Y67553D01*
Y66810D01*
D02*
G37*
G36*
Y60745D02*
X136892D01*
Y63281D01*
X137490D01*
Y61415D01*
X138423D01*
Y63179D01*
X139035D01*
Y61415D01*
X140012D01*
Y63311D01*
X140610D01*
Y60745D01*
D02*
G37*
G36*
X137490Y59272D02*
X140610D01*
Y58601D01*
X137490D01*
Y57537D01*
X136892D01*
Y60351D01*
X137490D01*
Y59272D01*
D02*
G37*
G36*
X138481Y54402D02*
X138831Y54373D01*
X139225Y54329D01*
X139648Y54242D01*
X140071Y54140D01*
X140085D01*
X140114Y54125D01*
X140187Y54111D01*
X140260Y54081D01*
X140362Y54038D01*
X140479Y53994D01*
X140610Y53950D01*
X140756Y53892D01*
X141077Y53746D01*
X141441Y53557D01*
X141806Y53352D01*
X142170Y53105D01*
X142185Y53090D01*
X142214Y53075D01*
X142258Y53032D01*
X142331Y52988D01*
X142403Y52915D01*
X142506Y52842D01*
X142724Y52638D01*
X142987Y52405D01*
X143264Y52113D01*
X143541Y51792D01*
X143803Y51442D01*
X143818Y51428D01*
X143832Y51399D01*
X143861Y51340D01*
X143920Y51267D01*
X143978Y51180D01*
X144036Y51078D01*
X144109Y50947D01*
X144182Y50815D01*
X144343Y50495D01*
X144503Y50145D01*
X144663Y49751D01*
X144794Y49328D01*
Y49314D01*
X144809Y49255D01*
X144838Y49168D01*
X144867Y49051D01*
X144897Y48906D01*
X144926Y48745D01*
X144984Y48410D01*
Y48395D01*
X144999Y48337D01*
Y48235D01*
X145013Y48118D01*
X145028Y47987D01*
Y47827D01*
X145042Y47477D01*
Y47360D01*
X145028Y47229D01*
Y47054D01*
X145013Y46850D01*
X144984Y46617D01*
X144955Y46383D01*
X144911Y46121D01*
Y46092D01*
X144882Y46004D01*
X144853Y45873D01*
X144809Y45698D01*
X144751Y45494D01*
X144678Y45275D01*
X144503Y44809D01*
X144226Y44925D01*
Y44940D01*
X144240Y44969D01*
X144270Y45027D01*
X144299Y45115D01*
X144328Y45217D01*
X144372Y45319D01*
X144415Y45450D01*
X144459Y45610D01*
X144547Y45931D01*
X144634Y46310D01*
X144693Y46704D01*
X144736Y47112D01*
Y47652D01*
X144722Y47812D01*
X144707Y48133D01*
X144663Y48497D01*
X144590Y48891D01*
X144503Y49285D01*
Y49299D01*
X144488Y49328D01*
X144474Y49387D01*
X144445Y49460D01*
X144415Y49562D01*
X144372Y49664D01*
X144270Y49926D01*
X144138Y50232D01*
X143978Y50568D01*
X143789Y50918D01*
X143570Y51267D01*
X143555Y51282D01*
X143541Y51311D01*
X143511Y51355D01*
X143453Y51428D01*
X143395Y51501D01*
X143322Y51588D01*
X143132Y51807D01*
X142899Y52069D01*
X142637Y52332D01*
X142331Y52609D01*
X141981Y52871D01*
X141966Y52886D01*
X141937Y52900D01*
X141893Y52930D01*
X141820Y52988D01*
X141733Y53032D01*
X141631Y53105D01*
X141514Y53177D01*
X141383Y53250D01*
X141077Y53411D01*
X140727Y53571D01*
X140348Y53732D01*
X139954Y53863D01*
X139939D01*
X139910Y53877D01*
X139852Y53892D01*
X139764Y53907D01*
X139677Y53936D01*
X139560Y53950D01*
X139429Y53979D01*
X139283Y54009D01*
X138948Y54052D01*
X138584Y54096D01*
X138204Y54111D01*
X137796D01*
X137782D01*
X137752D01*
X137694D01*
X137607Y54096D01*
X137519Y54081D01*
X137402D01*
X137271Y54052D01*
X137126Y54038D01*
X136805Y53979D01*
X136440Y53892D01*
X136061Y53790D01*
X135668Y53644D01*
X135653D01*
X135624Y53629D01*
X135565Y53600D01*
X135493Y53571D01*
X135390Y53527D01*
X135288Y53469D01*
X135026Y53338D01*
X134734Y53177D01*
X134414Y52973D01*
X134078Y52740D01*
X133743Y52463D01*
X133539Y52696D01*
X133553Y52711D01*
X133582Y52725D01*
X133626Y52769D01*
X133685Y52828D01*
X133772Y52886D01*
X133874Y52959D01*
X133976Y53046D01*
X134107Y53134D01*
X134399Y53338D01*
X134720Y53527D01*
X135099Y53732D01*
X135493Y53907D01*
X135507D01*
X135536Y53921D01*
X135595Y53950D01*
X135682Y53979D01*
X135784Y54009D01*
X135901Y54052D01*
X136032Y54096D01*
X136178Y54140D01*
X136513Y54227D01*
X136892Y54300D01*
X137300Y54373D01*
X137738Y54417D01*
X137752D01*
X137796D01*
X137855D01*
X137942D01*
X138044D01*
X138175D01*
X138321D01*
X138481Y54402D01*
D02*
G37*
G36*
X130521Y53921D02*
X130535Y53907D01*
X130579Y53863D01*
X130637Y53819D01*
X130798Y53673D01*
X131002Y53498D01*
X131235Y53280D01*
X131512Y53046D01*
X131789Y52784D01*
X132095Y52521D01*
X132110Y52507D01*
X132124Y52492D01*
X132168Y52448D01*
X132227Y52405D01*
X132387Y52259D01*
X132591Y52069D01*
X132839Y51865D01*
X133116Y51617D01*
X133393Y51355D01*
X133699Y51092D01*
X133714Y51078D01*
X133728Y51063D01*
X133772Y51020D01*
X133830Y50976D01*
X133991Y50830D01*
X134195Y50640D01*
X134443Y50422D01*
X134720Y50189D01*
X135011Y49926D01*
X135318Y49649D01*
X135332Y49635D01*
X135347Y49620D01*
X135390Y49576D01*
X135449Y49532D01*
X135609Y49387D01*
X135813Y49197D01*
X136061Y48978D01*
X136338Y48745D01*
X136615Y48483D01*
X136921Y48206D01*
Y48220D01*
X136936Y48249D01*
X136951Y48293D01*
X136965Y48351D01*
X136980Y48424D01*
X137009Y48512D01*
X137067Y48731D01*
X137140Y48993D01*
X137213Y49270D01*
X137300Y49576D01*
X137388Y49897D01*
Y49911D01*
X137402Y49941D01*
Y49984D01*
X137432Y50043D01*
X137446Y50116D01*
X137475Y50203D01*
X137519Y50422D01*
X137592Y50684D01*
X137665Y50976D01*
X137752Y51282D01*
X137840Y51603D01*
X137855Y51588D01*
X137884Y51544D01*
X137942Y51472D01*
X138015Y51370D01*
X138102Y51238D01*
X138219Y51092D01*
X138336Y50932D01*
X138481Y50743D01*
X138627Y50538D01*
X138788Y50320D01*
X139137Y49853D01*
X139517Y49358D01*
X139910Y48847D01*
X139925Y48833D01*
X139954Y48789D01*
X140012Y48716D01*
X140085Y48614D01*
X140187Y48483D01*
X140289Y48337D01*
X140420Y48177D01*
X140552Y47987D01*
X140712Y47797D01*
X140873Y47579D01*
X141222Y47112D01*
X141587Y46617D01*
X141981Y46106D01*
X141995Y46092D01*
X142024Y46048D01*
X142083Y45975D01*
X142156Y45873D01*
X142243Y45756D01*
X142360Y45610D01*
X142476Y45436D01*
X142622Y45261D01*
X142768Y45056D01*
X142928Y44852D01*
X143278Y44386D01*
X143643Y43890D01*
X144022Y43380D01*
X144036Y43365D01*
X144065Y43321D01*
X144124Y43249D01*
X144197Y43146D01*
X144284Y43015D01*
X144401Y42869D01*
X144518Y42709D01*
X144663Y42520D01*
X144809Y42330D01*
X144969Y42111D01*
X145319Y41645D01*
X145684Y41164D01*
X146063Y40653D01*
X146048Y40639D01*
X146019Y40624D01*
X146005D01*
X145990D01*
X145975Y40639D01*
X145961Y40653D01*
X145917Y40697D01*
X145859Y40755D01*
X145698Y40887D01*
X145494Y41076D01*
X145261Y41295D01*
X144999Y41543D01*
X144722Y41805D01*
X144430Y42082D01*
X144415Y42097D01*
X144401Y42111D01*
X144357Y42155D01*
X144299Y42213D01*
X144138Y42344D01*
X143934Y42534D01*
X143701Y42753D01*
X143439Y43001D01*
X143162Y43263D01*
X142870Y43540D01*
X142855Y43555D01*
X142841Y43569D01*
X142797Y43613D01*
X142739Y43671D01*
X142578Y43817D01*
X142374Y44007D01*
X142141Y44225D01*
X141864Y44488D01*
X141572Y44750D01*
X141281Y45027D01*
X141266Y45042D01*
X141252Y45056D01*
X141208Y45100D01*
X141149Y45158D01*
X140989Y45304D01*
X140785Y45479D01*
X140552Y45713D01*
X140275Y45960D01*
X139983Y46223D01*
X139691Y46500D01*
Y46485D01*
X139677Y46471D01*
X139648Y46383D01*
X139604Y46237D01*
X139546Y46062D01*
X139473Y45844D01*
X139385Y45610D01*
X139313Y45363D01*
X139225Y45100D01*
Y45086D01*
X139210Y45071D01*
X139181Y44984D01*
X139137Y44852D01*
X139079Y44663D01*
X139006Y44459D01*
X138919Y44225D01*
X138831Y43963D01*
X138744Y43701D01*
X138729Y43715D01*
X138700Y43759D01*
X138642Y43832D01*
X138569Y43919D01*
X138467Y44036D01*
X138350Y44182D01*
X138233Y44342D01*
X138088Y44502D01*
X137927Y44692D01*
X137767Y44896D01*
X137417Y45333D01*
X137038Y45785D01*
X136644Y46266D01*
X136630Y46281D01*
X136601Y46325D01*
X136542Y46398D01*
X136469Y46485D01*
X136367Y46602D01*
X136265Y46733D01*
X136134Y46894D01*
X136003Y47068D01*
X135842Y47258D01*
X135682Y47447D01*
X135332Y47885D01*
X134953Y48351D01*
X134574Y48818D01*
X134559Y48833D01*
X134530Y48876D01*
X134472Y48949D01*
X134399Y49037D01*
X134297Y49153D01*
X134180Y49285D01*
X134064Y49445D01*
X133918Y49620D01*
X133772Y49810D01*
X133597Y49999D01*
X133247Y50436D01*
X132868Y50903D01*
X132489Y51370D01*
X132474Y51384D01*
X132445Y51428D01*
X132387Y51501D01*
X132314Y51588D01*
X132212Y51705D01*
X132110Y51836D01*
X131979Y51996D01*
X131848Y52157D01*
X131687Y52346D01*
X131527Y52551D01*
X131177Y52973D01*
X130798Y53440D01*
X130419Y53907D01*
X130433Y53921D01*
X130462D01*
X130477Y53936D01*
X130506D01*
X130521Y53921D01*
D02*
G37*
G36*
X131935Y49882D02*
Y49868D01*
X131920Y49839D01*
X131891Y49780D01*
X131877Y49693D01*
X131833Y49605D01*
X131804Y49489D01*
X131760Y49358D01*
X131731Y49212D01*
X131643Y48891D01*
X131570Y48526D01*
X131527Y48133D01*
X131498Y47725D01*
Y47331D01*
X131512Y47200D01*
Y47054D01*
X131541Y46718D01*
X131585Y46369D01*
X131658Y45990D01*
X131760Y45596D01*
Y45581D01*
X131775Y45552D01*
X131789Y45494D01*
X131818Y45421D01*
X131848Y45333D01*
X131891Y45231D01*
X131993Y44969D01*
X132124Y44677D01*
X132285Y44357D01*
X132474Y44021D01*
X132693Y43671D01*
Y43657D01*
X132722Y43628D01*
X132752Y43584D01*
X132810Y43525D01*
X132941Y43350D01*
X133131Y43146D01*
X133349Y42899D01*
X133626Y42636D01*
X133918Y42374D01*
X134253Y42111D01*
X134268D01*
X134297Y42082D01*
X134341Y42053D01*
X134414Y42009D01*
X134501Y41951D01*
X134589Y41892D01*
X134705Y41820D01*
X134836Y41747D01*
X135128Y41586D01*
X135463Y41426D01*
X135828Y41266D01*
X136222Y41134D01*
X136236D01*
X136265Y41120D01*
X136324Y41105D01*
X136411Y41091D01*
X136498Y41061D01*
X136615Y41032D01*
X136746Y41018D01*
X136892Y40989D01*
X137213Y40930D01*
X137563Y40887D01*
X137957Y40857D01*
X138350D01*
X138365D01*
X138394D01*
X138452D01*
X138525Y40872D01*
X138627Y40887D01*
X138744D01*
X138875Y40901D01*
X139006Y40930D01*
X139327Y40974D01*
X139691Y41061D01*
X140056Y41149D01*
X140450Y41280D01*
X140464D01*
X140493Y41295D01*
X140552Y41324D01*
X140625Y41353D01*
X140712Y41397D01*
X140829Y41441D01*
X141077Y41572D01*
X141368Y41718D01*
X141689Y41907D01*
X142024Y42140D01*
X142360Y42388D01*
X142535Y42140D01*
X142549D01*
X142535Y42126D01*
X142506Y42111D01*
X142462Y42068D01*
X142389Y42024D01*
X142301Y41951D01*
X142199Y41878D01*
X142083Y41805D01*
X141951Y41718D01*
X141660Y41528D01*
X141324Y41339D01*
X140945Y41149D01*
X140552Y40989D01*
X140537D01*
X140508Y40974D01*
X140450Y40959D01*
X140362Y40930D01*
X140275Y40901D01*
X140158Y40857D01*
X140027Y40828D01*
X139881Y40784D01*
X139546Y40712D01*
X139181Y40639D01*
X138788Y40580D01*
X138365Y40551D01*
X138350D01*
X138321D01*
X138248D01*
X138175D01*
X138073D01*
X137957Y40566D01*
X137811D01*
X137665Y40580D01*
X137330Y40609D01*
X136951Y40668D01*
X136542Y40741D01*
X136134Y40843D01*
X136119D01*
X136090Y40857D01*
X136032Y40872D01*
X135944Y40901D01*
X135857Y40945D01*
X135740Y40974D01*
X135609Y41032D01*
X135463Y41091D01*
X135143Y41236D01*
X134793Y41397D01*
X134428Y41616D01*
X134064Y41849D01*
X134049Y41863D01*
X134020Y41878D01*
X133976Y41922D01*
X133903Y41980D01*
X133816Y42038D01*
X133728Y42126D01*
X133495Y42315D01*
X133247Y42563D01*
X132985Y42840D01*
X132708Y43161D01*
X132460Y43496D01*
X132445Y43511D01*
X132431Y43540D01*
X132402Y43598D01*
X132343Y43657D01*
X132299Y43744D01*
X132227Y43846D01*
X132154Y43977D01*
X132081Y44109D01*
X131920Y44400D01*
X131760Y44750D01*
X131600Y45115D01*
X131468Y45508D01*
Y45523D01*
X131454Y45552D01*
X131439Y45610D01*
X131425Y45698D01*
X131395Y45800D01*
X131366Y45917D01*
X131337Y46048D01*
X131308Y46194D01*
X131250Y46529D01*
X131206Y46908D01*
X131177Y47316D01*
Y47856D01*
X131191Y47929D01*
X131206Y48031D01*
Y48162D01*
X131235Y48293D01*
X131250Y48454D01*
X131308Y48789D01*
X131395Y49168D01*
X131512Y49576D01*
X131658Y49984D01*
X131935Y49882D01*
D02*
G37*
%LPC*%
G36*
X148623Y45727D02*
X151801Y44254D01*
Y45545D01*
X148623Y45727D01*
D02*
G37*
G36*
X138744Y94876D02*
X138729D01*
X138715D01*
X138642D01*
X138525Y94862D01*
X138394Y94847D01*
X138233Y94803D01*
X138073Y94760D01*
X137927Y94687D01*
X137796Y94585D01*
X137782Y94570D01*
X137738Y94526D01*
X137694Y94468D01*
X137621Y94380D01*
X137563Y94264D01*
X137519Y94118D01*
X137475Y93943D01*
X137461Y93754D01*
Y93651D01*
X137475Y93550D01*
X137504Y93433D01*
X137548Y93287D01*
X137607Y93141D01*
X137680Y92995D01*
X137796Y92879D01*
X137811Y92864D01*
X137855Y92835D01*
X137927Y92791D01*
X138029Y92748D01*
X138175Y92689D01*
X138336Y92646D01*
X138525Y92616D01*
X138744Y92602D01*
X138773D01*
X138846D01*
X138962Y92616D01*
X139108Y92631D01*
X139254Y92675D01*
X139415Y92718D01*
X139575Y92791D01*
X139706Y92879D01*
X139721Y92893D01*
X139750Y92937D01*
X139808Y92995D01*
X139866Y93098D01*
X139925Y93214D01*
X139983Y93375D01*
X140012Y93550D01*
X140027Y93754D01*
Y93841D01*
X140012Y93943D01*
X139983Y94060D01*
X139954Y94206D01*
X139896Y94337D01*
X139808Y94468D01*
X139706Y94585D01*
X139691Y94599D01*
X139648Y94628D01*
X139575Y94672D01*
X139458Y94731D01*
X139327Y94789D01*
X139167Y94832D01*
X138962Y94862D01*
X138744Y94876D01*
D02*
G37*
%LPD*%
D10*
X105547Y348232D02*
G03*
X105547Y348232I-315J0D01*
G01*
X113494Y346378D02*
G03*
X114774Y346378I640J0D01*
G01*
X70571Y204748D02*
G03*
X70571Y204748I-315J0D01*
G01*
X72303Y213474D02*
G03*
X72303Y214754I0J640D01*
G01*
X116014Y221693D02*
G03*
X117293Y221693I640J0D01*
G01*
X107602Y223740D02*
G03*
X107602Y223740I-315J0D01*
G01*
X108563Y346378D02*
X113494D01*
X114774D02*
X119705D01*
Y315669D02*
Y346378D01*
X108563Y315669D02*
X119705D01*
X108563D02*
Y346378D01*
X77520Y385512D02*
X92087D01*
X77520Y411890D02*
X92087D01*
Y385512D02*
Y411890D01*
X77520Y385512D02*
Y411890D01*
X122244Y186417D02*
X134449D01*
X122047Y198622D02*
X134449D01*
X72303Y208543D02*
X92776D01*
Y219685D01*
X72303D02*
X92776D01*
X72303Y214754D02*
Y219685D01*
Y208543D02*
Y213474D01*
X111083Y221693D02*
X116014D01*
X117293D02*
X122224D01*
Y201220D02*
Y221693D01*
X111083Y201220D02*
X122224D01*
X111083D02*
Y221693D01*
D11*
X73189Y411890D02*
G03*
X73189Y411890I-492J0D01*
G01*
X120768Y198622D02*
G03*
X120768Y198622I-492J0D01*
G01*
D12*
X2047Y67716D02*
X66220D01*
Y32283D02*
X79331D01*
X66220Y67716D02*
X79213D01*
X66181Y105118D02*
X79173D01*
X66181Y69685D02*
X79291D01*
X2047Y32283D02*
X66220D01*
X2008Y69685D02*
X66181D01*
X2047Y105118D02*
X66181D01*
X2008Y107087D02*
X39685D01*
X2008Y209449D02*
X39646D01*
X2008Y413583D02*
X53504D01*
X2047Y382598D02*
X53504D01*
X2008Y282638D02*
X19370D01*
X25709Y282677D02*
X53504D01*
X2047Y280669D02*
X52874D01*
X2008Y211457D02*
X52874D01*
D13*
X137067Y380138D02*
Y383090D01*
X136752Y386083D02*
Y389035D01*
X136713Y391595D02*
Y394547D01*
D14*
X91922Y274826D02*
X94512D01*
X94998Y274664D01*
X95160Y274502D01*
X95322Y274178D01*
Y273855D01*
X95160Y273531D01*
X94998Y273369D01*
X94512Y273207D01*
X94189D01*
X93703Y275700D02*
Y277157D01*
X93541Y277642D01*
X93379Y277804D01*
X93055Y277966D01*
X92570D01*
X92246Y277804D01*
X92084Y277642D01*
X91922Y277157D01*
Y275700D01*
X95322D01*
X92570Y278727D02*
X92408Y279051D01*
X91922Y279536D01*
X95322D01*
X91922Y282191D02*
X92084Y281705D01*
X92570Y281382D01*
X93379Y281220D01*
X93865D01*
X94674Y281382D01*
X95160Y281705D01*
X95322Y282191D01*
Y282515D01*
X95160Y283000D01*
X94674Y283324D01*
X93865Y283486D01*
X93379D01*
X92570Y283324D01*
X92084Y283000D01*
X91922Y282515D01*
Y282191D01*
X50797Y417825D02*
X53711D01*
X52254Y416368D02*
Y419282D01*
Y422956D02*
Y425870D01*
X77379Y370808D02*
X77217Y371132D01*
X76893Y371456D01*
X76569Y371618D01*
X75922D01*
X75598Y371456D01*
X75274Y371132D01*
X75113Y370808D01*
X74951Y370323D01*
Y369513D01*
X75113Y369028D01*
X75274Y368704D01*
X75598Y368380D01*
X75922Y368218D01*
X76569D01*
X76893Y368380D01*
X77217Y368704D01*
X77379Y369028D01*
Y369513D01*
X76569D02*
X77379D01*
X78156Y371618D02*
Y368218D01*
Y371618D02*
X80422Y368218D01*
Y371618D02*
Y368218D01*
X81361Y371618D02*
Y368218D01*
Y371618D02*
X82494D01*
X82980Y371456D01*
X83303Y371132D01*
X83465Y370808D01*
X83627Y370323D01*
Y369513D01*
X83465Y369028D01*
X83303Y368704D01*
X82980Y368380D01*
X82494Y368218D01*
X81361D01*
X88897Y371421D02*
X90677D01*
X89706Y370126D01*
X90192D01*
X90515Y369964D01*
X90677Y369802D01*
X90839Y369317D01*
Y368993D01*
X90677Y368507D01*
X90353Y368183D01*
X89868Y368022D01*
X89382D01*
X88897Y368183D01*
X88735Y368345D01*
X88573Y368669D01*
X91600Y371421D02*
X92895Y368022D01*
X94190Y371421D02*
X92895Y368022D01*
X94950Y371421D02*
X96731D01*
X95760Y370126D01*
X96245D01*
X96569Y369964D01*
X96731Y369802D01*
X96893Y369317D01*
Y368993D01*
X96731Y368507D01*
X96407Y368183D01*
X95922Y368022D01*
X95436D01*
X94950Y368183D01*
X94789Y368345D01*
X94627Y368669D01*
X64925Y371303D02*
X63306D01*
X63144Y369846D01*
X63306Y370008D01*
X63792Y370170D01*
X64277D01*
X64763Y370008D01*
X65087Y369684D01*
X65248Y369198D01*
Y368875D01*
X65087Y368389D01*
X64763Y368065D01*
X64277Y367903D01*
X63792D01*
X63306Y368065D01*
X63144Y368227D01*
X62982Y368551D01*
X66009Y371303D02*
X67304Y367903D01*
X68599Y371303D02*
X67304Y367903D01*
X143507Y389059D02*
X141889D01*
X141727Y387602D01*
X141889Y387764D01*
X142374Y387926D01*
X142860D01*
X143345Y387764D01*
X143669Y387440D01*
X143831Y386954D01*
Y386631D01*
X143669Y386145D01*
X143345Y385821D01*
X142860Y385659D01*
X142374D01*
X141889Y385821D01*
X141727Y385983D01*
X141565Y386307D01*
X144592Y389059D02*
X145887Y385659D01*
X147182Y389059D02*
X145887Y385659D01*
X141565Y383153D02*
Y379754D01*
Y383153D02*
X142698D01*
X143184Y382991D01*
X143507Y382667D01*
X143669Y382344D01*
X143831Y381858D01*
Y381049D01*
X143669Y380563D01*
X143507Y380240D01*
X143184Y379916D01*
X142698Y379754D01*
X141565D01*
X147182D02*
X145887Y383153D01*
X144592Y379754D01*
X145078Y380887D02*
X146696D01*
X149108Y383153D02*
Y379754D01*
X147975Y383153D02*
X150241D01*
X153236Y379754D02*
X151941Y383153D01*
X150646Y379754D01*
X151131Y380887D02*
X152750D01*
X141889Y394964D02*
X143669D01*
X142698Y393669D01*
X143184D01*
X143507Y393507D01*
X143669Y393345D01*
X143831Y392860D01*
Y392536D01*
X143669Y392051D01*
X143345Y391727D01*
X142860Y391565D01*
X142374D01*
X141889Y391727D01*
X141727Y391889D01*
X141565Y392212D01*
X144592Y394964D02*
X145887Y391565D01*
X147182Y394964D02*
X145887Y391565D01*
X147943Y394964D02*
X149723D01*
X148752Y393669D01*
X149238D01*
X149561Y393507D01*
X149723Y393345D01*
X149885Y392860D01*
Y392536D01*
X149723Y392051D01*
X149399Y391727D01*
X148914Y391565D01*
X148428D01*
X147943Y391727D01*
X147781Y391889D01*
X147619Y392212D01*
X92643Y241005D02*
X96042D01*
X92643Y239872D02*
Y242138D01*
Y244647D02*
Y242543D01*
X96042D01*
Y244647D01*
X94262Y242543D02*
Y243838D01*
X92643Y245214D02*
X96042D01*
X92643D02*
X96042Y246509D01*
X92643Y247804D02*
X96042Y246509D01*
X92643Y247804D02*
X96042D01*
X94424Y248775D02*
Y250232D01*
X94262Y250717D01*
X94100Y250879D01*
X93776Y251041D01*
X93290D01*
X92967Y250879D01*
X92805Y250717D01*
X92643Y250232D01*
Y248775D01*
X96042D01*
X97175Y251802D02*
Y254392D01*
X93129Y257095D02*
X92805Y256771D01*
X92643Y256286D01*
Y255638D01*
X92805Y255153D01*
X93129Y254829D01*
X93452D01*
X93776Y254991D01*
X93938Y255153D01*
X94100Y255476D01*
X94424Y256448D01*
X94585Y256771D01*
X94747Y256933D01*
X95071Y257095D01*
X95557D01*
X95880Y256771D01*
X96042Y256286D01*
Y255638D01*
X95880Y255153D01*
X95557Y254829D01*
X93452Y258018D02*
X93290D01*
X92967Y258179D01*
X92805Y258341D01*
X92643Y258665D01*
Y259313D01*
X92805Y259636D01*
X92967Y259798D01*
X93290Y259960D01*
X93614D01*
X93938Y259798D01*
X94424Y259474D01*
X96042Y257856D01*
Y260122D01*
X148343Y256477D02*
X151742D01*
X148343Y255344D02*
Y257611D01*
Y258015D02*
X151742Y260281D01*
X148343D02*
X151742Y258015D01*
X102617Y239855D02*
X102293Y239531D01*
X102131Y239045D01*
Y238398D01*
X102293Y237912D01*
X102617Y237589D01*
X102940D01*
X103264Y237750D01*
X103426Y237912D01*
X103588Y238236D01*
X103912Y239207D01*
X104074Y239531D01*
X104235Y239693D01*
X104559Y239855D01*
X105045D01*
X105368Y239531D01*
X105530Y239045D01*
Y238398D01*
X105368Y237912D01*
X105045Y237589D01*
X102131Y240616D02*
X105530D01*
X102131Y242882D02*
X105530D01*
X103750Y240616D02*
Y242882D01*
X102131Y244792D02*
X102293Y244468D01*
X102617Y244144D01*
X102940Y243982D01*
X103426Y243821D01*
X104235D01*
X104721Y243982D01*
X105045Y244144D01*
X105368Y244468D01*
X105530Y244792D01*
Y245439D01*
X105368Y245763D01*
X105045Y246087D01*
X104721Y246249D01*
X104235Y246410D01*
X103426D01*
X102940Y246249D01*
X102617Y246087D01*
X102293Y245763D01*
X102131Y245439D01*
Y244792D01*
X102940Y249632D02*
X102617Y249470D01*
X102293Y249146D01*
X102131Y248822D01*
Y248175D01*
X102293Y247851D01*
X102617Y247527D01*
X102940Y247365D01*
X103426Y247204D01*
X104235D01*
X104721Y247365D01*
X105045Y247527D01*
X105368Y247851D01*
X105530Y248175D01*
Y248822D01*
X105368Y249146D01*
X105045Y249470D01*
X104721Y249632D01*
X102131Y250587D02*
X105530D01*
X102131Y252853D02*
X104397Y250587D01*
X103588Y251396D02*
X105530Y252853D01*
X106663Y253614D02*
Y256204D01*
X102617Y258907D02*
X102293Y258583D01*
X102131Y258097D01*
Y257450D01*
X102293Y256964D01*
X102617Y256641D01*
X102940D01*
X103264Y256803D01*
X103426Y256964D01*
X103588Y257288D01*
X103912Y258259D01*
X104074Y258583D01*
X104235Y258745D01*
X104559Y258907D01*
X105045D01*
X105368Y258583D01*
X105530Y258097D01*
Y257450D01*
X105368Y256964D01*
X105045Y256641D01*
X102779Y259668D02*
X102617Y259991D01*
X102131Y260477D01*
X105530D01*
X74415Y239470D02*
X77814D01*
X74415Y238336D02*
Y240603D01*
Y243112D02*
Y241007D01*
X77814D01*
Y243112D01*
X76033Y241007D02*
Y242302D01*
X74415Y243678D02*
X77814D01*
X74415D02*
X77814Y244973D01*
X74415Y246268D02*
X77814Y244973D01*
X74415Y246268D02*
X77814D01*
X76195Y247239D02*
Y248696D01*
X76033Y249182D01*
X75871Y249344D01*
X75548Y249506D01*
X75062D01*
X74738Y249344D01*
X74576Y249182D01*
X74415Y248696D01*
Y247239D01*
X77814D01*
X78947Y250266D02*
Y252856D01*
X74900Y255559D02*
X74576Y255236D01*
X74415Y254750D01*
Y254103D01*
X74576Y253617D01*
X74900Y253293D01*
X75224D01*
X75548Y253455D01*
X75709Y253617D01*
X75871Y253941D01*
X76195Y254912D01*
X76357Y255236D01*
X76519Y255398D01*
X76843Y255559D01*
X77328D01*
X77652Y255236D01*
X77814Y254750D01*
Y254103D01*
X77652Y253617D01*
X77328Y253293D01*
X74415Y257292D02*
X74576Y256806D01*
X75062Y256482D01*
X75871Y256320D01*
X76357D01*
X77166Y256482D01*
X77652Y256806D01*
X77814Y257292D01*
Y257615D01*
X77652Y258101D01*
X77166Y258425D01*
X76357Y258587D01*
X75871D01*
X75062Y258425D01*
X74576Y258101D01*
X74415Y257615D01*
Y257292D01*
X83352Y240493D02*
X86751D01*
X83352Y239360D02*
Y241626D01*
Y244135D02*
Y242031D01*
X86751D01*
Y244135D01*
X84970Y242031D02*
Y243326D01*
X83352Y244702D02*
X86751D01*
X83352D02*
X86751Y245997D01*
X83352Y247292D02*
X86751Y245997D01*
X83352Y247292D02*
X86751D01*
X85132Y248263D02*
Y249720D01*
X84970Y250205D01*
X84808Y250367D01*
X84485Y250529D01*
X83999D01*
X83675Y250367D01*
X83513Y250205D01*
X83352Y249720D01*
Y248263D01*
X86751D01*
X87884Y251290D02*
Y253880D01*
X83837Y256583D02*
X83513Y256259D01*
X83352Y255774D01*
Y255126D01*
X83513Y254641D01*
X83837Y254317D01*
X84161D01*
X84485Y254479D01*
X84646Y254641D01*
X84808Y254964D01*
X85132Y255936D01*
X85294Y256259D01*
X85456Y256421D01*
X85780Y256583D01*
X86265D01*
X86589Y256259D01*
X86751Y255774D01*
Y255126D01*
X86589Y254641D01*
X86265Y254317D01*
X83999Y257344D02*
X83837Y257668D01*
X83352Y258153D01*
X86751D01*
X111751Y238831D02*
X111427Y238507D01*
X111265Y238022D01*
Y237374D01*
X111427Y236889D01*
X111751Y236565D01*
X112074D01*
X112398Y236727D01*
X112560Y236889D01*
X112722Y237212D01*
X113046Y238184D01*
X113207Y238507D01*
X113369Y238669D01*
X113693Y238831D01*
X114179D01*
X114502Y238507D01*
X114664Y238022D01*
Y237374D01*
X114502Y236889D01*
X114179Y236565D01*
X111265Y239592D02*
X114664D01*
X111265Y241858D02*
X114664D01*
X112884Y239592D02*
Y241858D01*
X111265Y243768D02*
X111427Y243444D01*
X111751Y243121D01*
X112074Y242959D01*
X112560Y242797D01*
X113369D01*
X113855Y242959D01*
X114179Y243121D01*
X114502Y243444D01*
X114664Y243768D01*
Y244416D01*
X114502Y244739D01*
X114179Y245063D01*
X113855Y245225D01*
X113369Y245387D01*
X112560D01*
X112074Y245225D01*
X111751Y245063D01*
X111427Y244739D01*
X111265Y244416D01*
Y243768D01*
X112074Y248608D02*
X111751Y248446D01*
X111427Y248122D01*
X111265Y247799D01*
Y247151D01*
X111427Y246827D01*
X111751Y246504D01*
X112074Y246342D01*
X112560Y246180D01*
X113369D01*
X113855Y246342D01*
X114179Y246504D01*
X114502Y246827D01*
X114664Y247151D01*
Y247799D01*
X114502Y248122D01*
X114179Y248446D01*
X113855Y248608D01*
X111265Y249563D02*
X114664D01*
X111265Y251829D02*
X113531Y249563D01*
X112722Y250372D02*
X114664Y251829D01*
X115797Y252590D02*
Y255180D01*
X111751Y257883D02*
X111427Y257559D01*
X111265Y257074D01*
Y256426D01*
X111427Y255941D01*
X111751Y255617D01*
X112074D01*
X112398Y255779D01*
X112560Y255941D01*
X112722Y256264D01*
X113046Y257236D01*
X113207Y257559D01*
X113369Y257721D01*
X113693Y257883D01*
X114179D01*
X114502Y257559D01*
X114664Y257074D01*
Y256426D01*
X114502Y255941D01*
X114179Y255617D01*
X111265Y259615D02*
X111427Y259130D01*
X111912Y258806D01*
X112722Y258644D01*
X113207D01*
X114017Y258806D01*
X114502Y259130D01*
X114664Y259615D01*
Y259939D01*
X114502Y260424D01*
X114017Y260748D01*
X113207Y260910D01*
X112722D01*
X111912Y260748D01*
X111427Y260424D01*
X111265Y259939D01*
Y259615D01*
X120876Y254855D02*
X120552Y254531D01*
X120390Y254045D01*
Y253398D01*
X120552Y252912D01*
X120876Y252589D01*
X121200D01*
X121523Y252750D01*
X121685Y252912D01*
X121847Y253236D01*
X122171Y254207D01*
X122333Y254531D01*
X122494Y254693D01*
X122818Y254855D01*
X123304D01*
X123628Y254531D01*
X123789Y254045D01*
Y253398D01*
X123628Y252912D01*
X123304Y252589D01*
X120390Y255615D02*
X123789D01*
X120390D02*
Y256749D01*
X120552Y257234D01*
X120876Y257558D01*
X121200Y257720D01*
X121685Y257882D01*
X122494D01*
X122980Y257720D01*
X123304Y257558D01*
X123628Y257234D01*
X123789Y256749D01*
Y255615D01*
Y261232D02*
X120390Y259937D01*
X123789Y258643D01*
X122656Y259128D02*
Y260747D01*
X129144Y255248D02*
X128820Y254925D01*
X128658Y254439D01*
Y253792D01*
X128820Y253306D01*
X129144Y252982D01*
X129467D01*
X129791Y253144D01*
X129953Y253306D01*
X130115Y253630D01*
X130438Y254601D01*
X130600Y254925D01*
X130762Y255086D01*
X131086Y255248D01*
X131572D01*
X131895Y254925D01*
X132057Y254439D01*
Y253792D01*
X131895Y253306D01*
X131572Y252982D01*
X129467Y258437D02*
X129144Y258275D01*
X128820Y257952D01*
X128658Y257628D01*
Y256980D01*
X128820Y256657D01*
X129144Y256333D01*
X129467Y256171D01*
X129953Y256009D01*
X130762D01*
X131248Y256171D01*
X131572Y256333D01*
X131895Y256657D01*
X132057Y256980D01*
Y257628D01*
X131895Y257952D01*
X131572Y258275D01*
X131248Y258437D01*
X128658Y259392D02*
X132057D01*
Y261335D01*
X138894Y255738D02*
X142293D01*
X138894D02*
Y257195D01*
X139056Y257681D01*
X139218Y257842D01*
X139542Y258004D01*
X139865D01*
X140189Y257842D01*
X140351Y257681D01*
X140513Y257195D01*
Y255738D01*
Y256871D02*
X142293Y258004D01*
X138894Y258765D02*
X142293Y261031D01*
X138894D02*
X142293Y258765D01*
X55663Y278060D02*
X58253D01*
X58738Y277898D01*
X58900Y277737D01*
X59062Y277413D01*
Y277089D01*
X58900Y276765D01*
X58738Y276604D01*
X58253Y276442D01*
X57929D01*
X56148Y280877D02*
X55824Y280715D01*
X55663Y280229D01*
Y279906D01*
X55824Y279420D01*
X56310Y279096D01*
X57119Y278934D01*
X57929D01*
X58576Y279096D01*
X58900Y279420D01*
X59062Y279906D01*
Y280067D01*
X58900Y280553D01*
X58576Y280877D01*
X58091Y281039D01*
X57929D01*
X57443Y280877D01*
X57119Y280553D01*
X56958Y280067D01*
Y279906D01*
X57119Y279420D01*
X57443Y279096D01*
X57929Y278934D01*
X119285Y275088D02*
X121874D01*
X122360Y274926D01*
X122522Y274764D01*
X122684Y274441D01*
Y274117D01*
X122522Y273793D01*
X122360Y273631D01*
X121874Y273469D01*
X121551D01*
X121065Y275962D02*
Y277419D01*
X120903Y277905D01*
X120741Y278066D01*
X120418Y278228D01*
X119932D01*
X119608Y278066D01*
X119447Y277905D01*
X119285Y277419D01*
Y275962D01*
X122684D01*
X119285Y281255D02*
X122684Y279637D01*
X119285Y278989D02*
Y281255D01*
X128812Y274972D02*
X131402D01*
X131888Y274810D01*
X132050Y274648D01*
X132211Y274324D01*
Y274001D01*
X132050Y273677D01*
X131888Y273515D01*
X131402Y273353D01*
X131078D01*
X130593Y275846D02*
Y277303D01*
X130431Y277789D01*
X130269Y277950D01*
X129945Y278112D01*
X129460D01*
X129136Y277950D01*
X128974Y277789D01*
X128812Y277303D01*
Y275846D01*
X132211D01*
X129298Y280816D02*
X128974Y280654D01*
X128812Y280168D01*
Y279844D01*
X128974Y279359D01*
X129460Y279035D01*
X130269Y278873D01*
X131078D01*
X131726Y279035D01*
X132050Y279359D01*
X132211Y279844D01*
Y280006D01*
X132050Y280492D01*
X131726Y280816D01*
X131240Y280977D01*
X131078D01*
X130593Y280816D01*
X130269Y280492D01*
X130107Y280006D01*
Y279844D01*
X130269Y279359D01*
X130593Y279035D01*
X131078Y278873D01*
X46332Y204357D02*
X48922D01*
X49407Y204195D01*
X49569Y204034D01*
X49731Y203710D01*
Y203386D01*
X49569Y203062D01*
X49407Y202901D01*
X48922Y202739D01*
X48598D01*
X46332Y207174D02*
Y205555D01*
X47789Y205393D01*
X47627Y205555D01*
X47465Y206041D01*
Y206526D01*
X47627Y207012D01*
X47951Y207336D01*
X48436Y207498D01*
X48760D01*
X49246Y207336D01*
X49569Y207012D01*
X49731Y206526D01*
Y206041D01*
X49569Y205555D01*
X49407Y205393D01*
X49084Y205231D01*
X119558Y377684D02*
Y374285D01*
Y377684D02*
X121015D01*
X121501Y377522D01*
X121662Y377360D01*
X121824Y377036D01*
Y376713D01*
X121662Y376389D01*
X121501Y376227D01*
X121015Y376065D01*
X119558D01*
X120691D02*
X121824Y374285D01*
X124851Y377684D02*
X123233Y374285D01*
X122585Y377684D02*
X124851D01*
X56287Y390558D02*
Y387968D01*
X56125Y387482D01*
X55963Y387320D01*
X55639Y387159D01*
X55315D01*
X54992Y387320D01*
X54830Y387482D01*
X54668Y387968D01*
Y388292D01*
X57484Y390558D02*
X59265D01*
X58294Y389263D01*
X58779D01*
X59103Y389101D01*
X59265Y388939D01*
X59427Y388454D01*
Y388130D01*
X59265Y387644D01*
X58941Y387320D01*
X58455Y387159D01*
X57970D01*
X57484Y387320D01*
X57322Y387482D01*
X57161Y387806D01*
X129243Y377684D02*
Y374285D01*
Y377684D02*
X130376D01*
X130862Y377522D01*
X131186Y377198D01*
X131348Y376874D01*
X131509Y376389D01*
Y375580D01*
X131348Y375094D01*
X131186Y374770D01*
X130862Y374447D01*
X130376Y374285D01*
X129243D01*
X132594Y377684D02*
X134374D01*
X133403Y376389D01*
X133889D01*
X134213Y376227D01*
X134374Y376065D01*
X134536Y375580D01*
Y375256D01*
X134374Y374770D01*
X134051Y374447D01*
X133565Y374285D01*
X133080D01*
X132594Y374447D01*
X132432Y374608D01*
X132270Y374932D01*
X123249Y183235D02*
Y180807D01*
X123410Y180321D01*
X123734Y179998D01*
X124220Y179836D01*
X124544D01*
X125029Y179998D01*
X125353Y180321D01*
X125515Y180807D01*
Y183235D01*
X128396D02*
X126777D01*
X126616Y181778D01*
X126777Y181940D01*
X127263Y182102D01*
X127749D01*
X128234Y181940D01*
X128558Y181616D01*
X128720Y181131D01*
Y180807D01*
X128558Y180321D01*
X128234Y179998D01*
X127749Y179836D01*
X127263D01*
X126777Y179998D01*
X126616Y180159D01*
X126454Y180483D01*
X109939Y227369D02*
Y224941D01*
X110101Y224455D01*
X110425Y224131D01*
X110911Y223970D01*
X111234D01*
X111720Y224131D01*
X112044Y224455D01*
X112206Y224941D01*
Y227369D01*
X114763D02*
X113144Y225103D01*
X115572D01*
X114763Y227369D02*
Y223970D01*
X109075Y352093D02*
Y349665D01*
X109237Y349180D01*
X109561Y348856D01*
X110047Y348694D01*
X110370D01*
X110856Y348856D01*
X111180Y349180D01*
X111342Y349665D01*
Y352093D01*
X112604D02*
X114385D01*
X113414Y350798D01*
X113899D01*
X114223Y350637D01*
X114385Y350475D01*
X114547Y349989D01*
Y349665D01*
X114385Y349180D01*
X114061Y348856D01*
X113575Y348694D01*
X113090D01*
X112604Y348856D01*
X112442Y349018D01*
X112280Y349342D01*
X66844Y206871D02*
X69272D01*
X69757Y207033D01*
X70081Y207356D01*
X70243Y207842D01*
Y208166D01*
X70081Y208651D01*
X69757Y208975D01*
X69272Y209137D01*
X66844D01*
X67653Y210238D02*
X67491D01*
X67167Y210400D01*
X67005Y210561D01*
X66844Y210885D01*
Y211532D01*
X67005Y211856D01*
X67167Y212018D01*
X67491Y212180D01*
X67815D01*
X68139Y212018D01*
X68624Y211694D01*
X70243Y210076D01*
Y212342D01*
X77520Y417448D02*
Y415020D01*
X77682Y414534D01*
X78006Y414210D01*
X78492Y414048D01*
X78815D01*
X79301Y414210D01*
X79625Y414534D01*
X79786Y415020D01*
Y417448D01*
X80725Y416800D02*
X81049Y416962D01*
X81535Y417448D01*
Y414048D01*
X69335Y313117D02*
Y309718D01*
Y313117D02*
X70792D01*
X71278Y312955D01*
X71440Y312793D01*
X71602Y312470D01*
Y312146D01*
X71440Y311822D01*
X71278Y311660D01*
X70792Y311498D01*
X69335D01*
X70468D02*
X71602Y309718D01*
X72362Y312470D02*
X72686Y312631D01*
X73172Y313117D01*
Y309718D01*
X75179Y313117D02*
X76960D01*
X75988Y311822D01*
X76474D01*
X76798Y311660D01*
X76960Y311498D01*
X77121Y311013D01*
Y310689D01*
X76960Y310203D01*
X76636Y309880D01*
X76150Y309718D01*
X75665D01*
X75179Y309880D01*
X75017Y310041D01*
X74855Y310365D01*
X69335Y318629D02*
Y315230D01*
Y318629D02*
X70792D01*
X71278Y318467D01*
X71440Y318305D01*
X71602Y317981D01*
Y317657D01*
X71440Y317334D01*
X71278Y317172D01*
X70792Y317010D01*
X69335D01*
X70468D02*
X71602Y315230D01*
X72362Y317981D02*
X72686Y318143D01*
X73172Y318629D01*
Y315230D01*
X75017Y317819D02*
Y317981D01*
X75179Y318305D01*
X75341Y318467D01*
X75665Y318629D01*
X76312D01*
X76636Y318467D01*
X76798Y318305D01*
X76960Y317981D01*
Y317657D01*
X76798Y317334D01*
X76474Y316848D01*
X74855Y315230D01*
X77121D01*
X69335Y330046D02*
Y326647D01*
Y330046D02*
X70792D01*
X71278Y329884D01*
X71440Y329722D01*
X71602Y329399D01*
Y329075D01*
X71440Y328751D01*
X71278Y328589D01*
X70792Y328427D01*
X69335D01*
X70468D02*
X71602Y326647D01*
X72362Y329399D02*
X72686Y329560D01*
X73172Y330046D01*
Y326647D01*
X75826Y330046D02*
X75341Y329884D01*
X75017Y329399D01*
X74855Y328589D01*
Y328104D01*
X75017Y327294D01*
X75341Y326809D01*
X75826Y326647D01*
X76150D01*
X76636Y326809D01*
X76960Y327294D01*
X77121Y328104D01*
Y328589D01*
X76960Y329399D01*
X76636Y329884D01*
X76150Y330046D01*
X75826D01*
X71844Y335952D02*
Y332552D01*
Y335952D02*
X73301D01*
X73786Y335790D01*
X73948Y335628D01*
X74110Y335304D01*
Y334980D01*
X73948Y334657D01*
X73786Y334495D01*
X73301Y334333D01*
X71844D01*
X72977D02*
X74110Y332552D01*
X76975Y334819D02*
X76813Y334333D01*
X76490Y334009D01*
X76004Y333847D01*
X75842D01*
X75356Y334009D01*
X75033Y334333D01*
X74871Y334819D01*
Y334980D01*
X75033Y335466D01*
X75356Y335790D01*
X75842Y335952D01*
X76004D01*
X76490Y335790D01*
X76813Y335466D01*
X76975Y334819D01*
Y334009D01*
X76813Y333200D01*
X76490Y332714D01*
X76004Y332552D01*
X75680D01*
X75195Y332714D01*
X75033Y333038D01*
X72157Y341463D02*
Y338064D01*
Y341463D02*
X73613D01*
X74099Y341301D01*
X74261Y341140D01*
X74423Y340816D01*
Y340492D01*
X74261Y340168D01*
X74099Y340007D01*
X73613Y339845D01*
X72157D01*
X73290D02*
X74423Y338064D01*
X75993Y341463D02*
X75507Y341301D01*
X75345Y340978D01*
Y340654D01*
X75507Y340330D01*
X75831Y340168D01*
X76478Y340007D01*
X76964Y339845D01*
X77288Y339521D01*
X77450Y339197D01*
Y338712D01*
X77288Y338388D01*
X77126Y338226D01*
X76640Y338064D01*
X75993D01*
X75507Y338226D01*
X75345Y338388D01*
X75184Y338712D01*
Y339197D01*
X75345Y339521D01*
X75669Y339845D01*
X76155Y340007D01*
X76802Y340168D01*
X77126Y340330D01*
X77288Y340654D01*
Y340978D01*
X77126Y341301D01*
X76640Y341463D01*
X75993D01*
X71450Y324534D02*
Y321135D01*
Y324534D02*
X72907D01*
X73393Y324372D01*
X73554Y324211D01*
X73716Y323887D01*
Y323563D01*
X73554Y323239D01*
X73393Y323077D01*
X72907Y322916D01*
X71450D01*
X72583D02*
X73716Y321135D01*
X76420Y324049D02*
X76258Y324372D01*
X75772Y324534D01*
X75448D01*
X74963Y324372D01*
X74639Y323887D01*
X74477Y323077D01*
Y322268D01*
X74639Y321621D01*
X74963Y321297D01*
X75448Y321135D01*
X75610D01*
X76096Y321297D01*
X76420Y321621D01*
X76581Y322106D01*
Y322268D01*
X76420Y322754D01*
X76096Y323077D01*
X75610Y323239D01*
X75448D01*
X74963Y323077D01*
X74639Y322754D01*
X74477Y322268D01*
X72157Y347369D02*
Y343970D01*
Y347369D02*
X73613D01*
X74099Y347207D01*
X74261Y347045D01*
X74423Y346722D01*
Y346398D01*
X74261Y346074D01*
X74099Y345912D01*
X73613Y345750D01*
X72157D01*
X73290D02*
X74423Y343970D01*
X77126Y347369D02*
X75507D01*
X75345Y345912D01*
X75507Y346074D01*
X75993Y346236D01*
X76478D01*
X76964Y346074D01*
X77288Y345750D01*
X77450Y345265D01*
Y344941D01*
X77288Y344455D01*
X76964Y344131D01*
X76478Y343970D01*
X75993D01*
X75507Y344131D01*
X75345Y344293D01*
X75184Y344617D01*
X73891Y357902D02*
X77290D01*
X73891D02*
Y359359D01*
X74053Y359845D01*
X74215Y360007D01*
X74538Y360169D01*
X74862D01*
X75186Y360007D01*
X75348Y359845D01*
X75510Y359359D01*
Y357902D01*
Y359035D02*
X77290Y360169D01*
X73891Y362548D02*
X76157Y360929D01*
Y363357D01*
X73891Y362548D02*
X77290D01*
X91056Y355503D02*
X94455D01*
X91056D02*
Y356960D01*
X91218Y357446D01*
X91380Y357607D01*
X91704Y357769D01*
X92027D01*
X92351Y357607D01*
X92513Y357446D01*
X92675Y356960D01*
Y355503D01*
Y356636D02*
X94455Y357769D01*
X91056Y358854D02*
Y360634D01*
X92351Y359663D01*
Y360149D01*
X92513Y360472D01*
X92675Y360634D01*
X93161Y360796D01*
X93484D01*
X93970Y360634D01*
X94294Y360311D01*
X94455Y359825D01*
Y359339D01*
X94294Y358854D01*
X94132Y358692D01*
X93808Y358530D01*
X116645Y400519D02*
Y397119D01*
Y400519D02*
X118102D01*
X118587Y400357D01*
X118749Y400195D01*
X118911Y399871D01*
Y399547D01*
X118749Y399224D01*
X118587Y399062D01*
X118102Y398900D01*
X116645D01*
X117778D02*
X118911Y397119D01*
X119834Y399709D02*
Y399871D01*
X119995Y400195D01*
X120157Y400357D01*
X120481Y400519D01*
X121129D01*
X121452Y400357D01*
X121614Y400195D01*
X121776Y399871D01*
Y399547D01*
X121614Y399224D01*
X121290Y398738D01*
X119672Y397119D01*
X121938D01*
X105168Y389101D02*
Y385702D01*
Y389101D02*
X106625D01*
X107111Y388939D01*
X107273Y388777D01*
X107435Y388454D01*
Y388130D01*
X107273Y387806D01*
X107111Y387644D01*
X106625Y387483D01*
X105168D01*
X106301D02*
X107435Y385702D01*
X108195Y388454D02*
X108519Y388616D01*
X109005Y389101D01*
Y385702D01*
X68182Y63432D02*
X70772D01*
X71258Y63270D01*
X71420Y63108D01*
X71582Y62785D01*
Y62461D01*
X71420Y62137D01*
X71258Y61975D01*
X70772Y61813D01*
X70448D01*
X68830Y64306D02*
X68668Y64630D01*
X68182Y65116D01*
X71582D01*
X29403Y417349D02*
X31993D01*
X32478Y417188D01*
X32640Y417026D01*
X32802Y416702D01*
Y416378D01*
X32640Y416054D01*
X32478Y415893D01*
X31993Y415731D01*
X31669D01*
X30212Y418385D02*
X30050D01*
X29726Y418547D01*
X29565Y418709D01*
X29403Y419033D01*
Y419680D01*
X29565Y420004D01*
X29726Y420166D01*
X30050Y420328D01*
X30374D01*
X30698Y420166D01*
X31183Y419842D01*
X32802Y418223D01*
Y420490D01*
X128849Y405637D02*
Y402237D01*
Y405637D02*
X129983D01*
X130468Y405475D01*
X130792Y405151D01*
X130954Y404827D01*
X131116Y404342D01*
Y403532D01*
X130954Y403047D01*
X130792Y402723D01*
X130468Y402399D01*
X129983Y402237D01*
X128849D01*
X132038Y404827D02*
Y404989D01*
X132200Y405313D01*
X132362Y405475D01*
X132686Y405637D01*
X133333D01*
X133657Y405475D01*
X133819Y405313D01*
X133981Y404989D01*
Y404665D01*
X133819Y404342D01*
X133495Y403856D01*
X131877Y402237D01*
X134143D01*
X129184Y400125D02*
Y396726D01*
Y400125D02*
X130317D01*
X130803Y399963D01*
X131127Y399639D01*
X131289Y399316D01*
X131450Y398830D01*
Y398021D01*
X131289Y397535D01*
X131127Y397211D01*
X130803Y396887D01*
X130317Y396726D01*
X129184D01*
X132211Y399477D02*
X132535Y399639D01*
X133020Y400125D01*
Y396726D01*
X57771Y411749D02*
X57447Y411587D01*
X57124Y411264D01*
X56962Y410940D01*
Y410292D01*
X57124Y409969D01*
X57447Y409645D01*
X57771Y409483D01*
X58257Y409321D01*
X59066D01*
X59552Y409483D01*
X59875Y409645D01*
X60199Y409969D01*
X60361Y410292D01*
Y410940D01*
X60199Y411264D01*
X59875Y411587D01*
X59552Y411749D01*
X57609Y412704D02*
X57447Y413028D01*
X56962Y413514D01*
X60361D01*
X110133Y405903D02*
X109810Y405741D01*
X109486Y405417D01*
X109324Y405093D01*
Y404446D01*
X109486Y404122D01*
X109810Y403798D01*
X110133Y403637D01*
X110619Y403475D01*
X111428D01*
X111914Y403637D01*
X112238Y403798D01*
X112561Y404122D01*
X112723Y404446D01*
Y405093D01*
X112561Y405417D01*
X112238Y405741D01*
X111914Y405903D01*
X109324Y407181D02*
Y408962D01*
X110619Y407991D01*
Y408476D01*
X110781Y408800D01*
X110943Y408962D01*
X111428Y409124D01*
X111752D01*
X112238Y408962D01*
X112561Y408638D01*
X112723Y408153D01*
Y407667D01*
X112561Y407181D01*
X112399Y407020D01*
X112076Y406858D01*
X64070Y411808D02*
X63747Y411646D01*
X63423Y411322D01*
X63261Y410999D01*
Y410351D01*
X63423Y410028D01*
X63747Y409704D01*
X64070Y409542D01*
X64556Y409380D01*
X65365D01*
X65851Y409542D01*
X66175Y409704D01*
X66498Y410028D01*
X66660Y410351D01*
Y410999D01*
X66498Y411322D01*
X66175Y411646D01*
X65851Y411808D01*
X64070Y412925D02*
X63908D01*
X63585Y413087D01*
X63423Y413249D01*
X63261Y413573D01*
Y414220D01*
X63423Y414544D01*
X63585Y414706D01*
X63908Y414867D01*
X64232D01*
X64556Y414706D01*
X65042Y414382D01*
X66660Y412763D01*
Y415029D01*
X111686Y298911D02*
X115085D01*
X111686D02*
Y300368D01*
X111848Y300853D01*
X112010Y301015D01*
X112334Y301177D01*
X112657D01*
X112981Y301015D01*
X113143Y300853D01*
X113305Y300368D01*
Y298911D01*
Y300044D02*
X115085Y301177D01*
X112496Y302100D02*
X112334D01*
X112010Y302261D01*
X111848Y302423D01*
X111686Y302747D01*
Y303395D01*
X111848Y303718D01*
X112010Y303880D01*
X112334Y304042D01*
X112657D01*
X112981Y303880D01*
X113467Y303556D01*
X115085Y301938D01*
Y304204D01*
X112496Y305127D02*
X112334D01*
X112010Y305289D01*
X111848Y305450D01*
X111686Y305774D01*
Y306422D01*
X111848Y306745D01*
X112010Y306907D01*
X112334Y307069D01*
X112657D01*
X112981Y306907D01*
X113467Y306583D01*
X115085Y304965D01*
Y307231D01*
X99875Y274826D02*
X102465D01*
X102951Y274664D01*
X103113Y274502D01*
X103274Y274178D01*
Y273855D01*
X103113Y273531D01*
X102951Y273369D01*
X102465Y273207D01*
X102141D01*
X101656Y275700D02*
Y277157D01*
X101494Y277642D01*
X101332Y277804D01*
X101008Y277966D01*
X100523D01*
X100199Y277804D01*
X100037Y277642D01*
X99875Y277157D01*
Y275700D01*
X103274D01*
X100523Y278727D02*
X100361Y279051D01*
X99875Y279536D01*
X103274D01*
X100684Y281382D02*
X100523D01*
X100199Y281543D01*
X100037Y281705D01*
X99875Y282029D01*
Y282677D01*
X100037Y283000D01*
X100199Y283162D01*
X100523Y283324D01*
X100846D01*
X101170Y283162D01*
X101656Y282838D01*
X103274Y281220D01*
Y283486D01*
X122755Y233213D02*
X122593Y233537D01*
X122270Y233861D01*
X121946Y234022D01*
X121298D01*
X120975Y233861D01*
X120651Y233537D01*
X120489Y233213D01*
X120327Y232728D01*
Y231918D01*
X120489Y231433D01*
X120651Y231109D01*
X120975Y230785D01*
X121298Y230623D01*
X121946D01*
X122270Y230785D01*
X122593Y231109D01*
X122755Y231433D01*
X125653Y233537D02*
X125491Y233861D01*
X125005Y234022D01*
X124681D01*
X124196Y233861D01*
X123872Y233375D01*
X123710Y232566D01*
Y231756D01*
X123872Y231109D01*
X124196Y230785D01*
X124681Y230623D01*
X124843D01*
X125329Y230785D01*
X125653Y231109D01*
X125815Y231594D01*
Y231756D01*
X125653Y232242D01*
X125329Y232566D01*
X124843Y232728D01*
X124681D01*
X124196Y232566D01*
X123872Y232242D01*
X123710Y231756D01*
X149503Y182674D02*
X149180Y182512D01*
X148856Y182189D01*
X148694Y181865D01*
Y181218D01*
X148856Y180894D01*
X149180Y180570D01*
X149503Y180408D01*
X149989Y180246D01*
X150798D01*
X151284Y180408D01*
X151608Y180570D01*
X151932Y180894D01*
X152093Y181218D01*
Y181865D01*
X151932Y182189D01*
X151608Y182512D01*
X151284Y182674D01*
X148694Y185896D02*
X152093Y184277D01*
X148694Y183629D02*
Y185896D01*
X67338Y245310D02*
X67014Y245148D01*
X66691Y244824D01*
X66529Y244500D01*
Y243853D01*
X66691Y243529D01*
X67014Y243206D01*
X67338Y243044D01*
X67824Y242882D01*
X68633D01*
X69119Y243044D01*
X69442Y243206D01*
X69766Y243529D01*
X69928Y243853D01*
Y244500D01*
X69766Y244824D01*
X69442Y245148D01*
X69119Y245310D01*
X66529Y247884D02*
X68795Y246265D01*
Y248693D01*
X66529Y247884D02*
X69928D01*
X118007Y363777D02*
X117684Y363615D01*
X117360Y363291D01*
X117198Y362967D01*
Y362320D01*
X117360Y361996D01*
X117684Y361672D01*
X118007Y361510D01*
X118493Y361349D01*
X119302D01*
X119788Y361510D01*
X120112Y361672D01*
X120435Y361996D01*
X120597Y362320D01*
Y362967D01*
X120435Y363291D01*
X120112Y363615D01*
X119788Y363777D01*
X117198Y366674D02*
Y365055D01*
X118655Y364894D01*
X118493Y365055D01*
X118331Y365541D01*
Y366027D01*
X118493Y366512D01*
X118817Y366836D01*
X119302Y366998D01*
X119626D01*
X120112Y366836D01*
X120435Y366512D01*
X120597Y366027D01*
Y365541D01*
X120435Y365055D01*
X120273Y364894D01*
X119950Y364732D01*
X84521Y275366D02*
X87111D01*
X87596Y275204D01*
X87758Y275042D01*
X87920Y274718D01*
Y274394D01*
X87758Y274071D01*
X87596Y273909D01*
X87111Y273747D01*
X86787D01*
X86301Y276240D02*
Y277697D01*
X86140Y278182D01*
X85978Y278344D01*
X85654Y278506D01*
X85168D01*
X84845Y278344D01*
X84683Y278182D01*
X84521Y277697D01*
Y276240D01*
X87920D01*
X85654Y281371D02*
X86140Y281209D01*
X86463Y280886D01*
X86625Y280400D01*
Y280238D01*
X86463Y279752D01*
X86140Y279429D01*
X85654Y279267D01*
X85492D01*
X85006Y279429D01*
X84683Y279752D01*
X84521Y280238D01*
Y280400D01*
X84683Y280886D01*
X85006Y281209D01*
X85654Y281371D01*
X86463D01*
X87273Y281209D01*
X87758Y280886D01*
X87920Y280400D01*
Y280076D01*
X87758Y279591D01*
X87435Y279429D01*
X103930Y298773D02*
X107329D01*
X103930D02*
Y300230D01*
X104092Y300715D01*
X104254Y300877D01*
X104578Y301039D01*
X104902D01*
X105225Y300877D01*
X105387Y300715D01*
X105549Y300230D01*
Y298773D01*
Y299906D02*
X107329Y301039D01*
X104740Y301962D02*
X104578D01*
X104254Y302124D01*
X104092Y302286D01*
X103930Y302609D01*
Y303257D01*
X104092Y303581D01*
X104254Y303743D01*
X104578Y303904D01*
X104902D01*
X105225Y303743D01*
X105711Y303419D01*
X107329Y301800D01*
Y304066D01*
X104578Y304827D02*
X104416Y305151D01*
X103930Y305636D01*
X107329D01*
X96056Y298871D02*
X99455D01*
X96056D02*
Y300328D01*
X96218Y300814D01*
X96380Y300976D01*
X96704Y301138D01*
X97027D01*
X97351Y300976D01*
X97513Y300814D01*
X97675Y300328D01*
Y298871D01*
Y300005D02*
X99455Y301138D01*
X96866Y302060D02*
X96704D01*
X96380Y302222D01*
X96218Y302384D01*
X96056Y302708D01*
Y303355D01*
X96218Y303679D01*
X96380Y303841D01*
X96704Y304003D01*
X97027D01*
X97351Y303841D01*
X97837Y303517D01*
X99455Y301898D01*
Y304165D01*
X96056Y305897D02*
X96218Y305411D01*
X96704Y305087D01*
X97513Y304925D01*
X97999D01*
X98808Y305087D01*
X99294Y305411D01*
X99455Y305897D01*
Y306220D01*
X99294Y306706D01*
X98808Y307030D01*
X97999Y307192D01*
X97513D01*
X96704Y307030D01*
X96218Y306706D01*
X96056Y306220D01*
Y305897D01*
X88064Y298944D02*
X91463D01*
X88064D02*
Y300401D01*
X88226Y300886D01*
X88388Y301048D01*
X88712Y301210D01*
X89035D01*
X89359Y301048D01*
X89521Y300886D01*
X89683Y300401D01*
Y298944D01*
Y300077D02*
X91463Y301210D01*
X88712Y301971D02*
X88550Y302295D01*
X88064Y302780D01*
X91463D01*
X89197Y306568D02*
X89683Y306406D01*
X90007Y306082D01*
X90168Y305597D01*
Y305435D01*
X90007Y304949D01*
X89683Y304626D01*
X89197Y304464D01*
X89035D01*
X88550Y304626D01*
X88226Y304949D01*
X88064Y305435D01*
Y305597D01*
X88226Y306082D01*
X88550Y306406D01*
X89197Y306568D01*
X90007D01*
X90816Y306406D01*
X91302Y306082D01*
X91463Y305597D01*
Y305273D01*
X91302Y304787D01*
X90978Y304626D01*
X80190Y298863D02*
X83589D01*
X80190D02*
Y300320D01*
X80352Y300805D01*
X80514Y300967D01*
X80838Y301129D01*
X81161D01*
X81485Y300967D01*
X81647Y300805D01*
X81809Y300320D01*
Y298863D01*
Y299996D02*
X83589Y301129D01*
X80838Y301890D02*
X80676Y302214D01*
X80190Y302699D01*
X83589D01*
X80190Y305192D02*
X80352Y304706D01*
X80676Y304545D01*
X80999D01*
X81323Y304706D01*
X81485Y305030D01*
X81647Y305678D01*
X81809Y306163D01*
X82133Y306487D01*
X82456Y306649D01*
X82942D01*
X83266Y306487D01*
X83428Y306325D01*
X83589Y305839D01*
Y305192D01*
X83428Y304706D01*
X83266Y304545D01*
X82942Y304383D01*
X82456D01*
X82133Y304545D01*
X81809Y304868D01*
X81647Y305354D01*
X81485Y306001D01*
X81323Y306325D01*
X80999Y306487D01*
X80676D01*
X80352Y306325D01*
X80190Y305839D01*
Y305192D01*
X119718Y298784D02*
X123117D01*
X119718D02*
Y300241D01*
X119879Y300727D01*
X120041Y300888D01*
X120365Y301050D01*
X120689D01*
X121013Y300888D01*
X121175Y300727D01*
X121336Y300241D01*
Y298784D01*
Y299917D02*
X123117Y301050D01*
X120365Y301811D02*
X120203Y302135D01*
X119718Y302621D01*
X123117D01*
X119718Y306570D02*
X123117Y304952D01*
X119718Y304304D02*
Y306570D01*
X127513Y298865D02*
X130912D01*
X127513D02*
Y300322D01*
X127675Y300808D01*
X127837Y300969D01*
X128160Y301131D01*
X128484D01*
X128808Y300969D01*
X128970Y300808D01*
X129132Y300322D01*
Y298865D01*
Y299998D02*
X130912Y301131D01*
X128160Y301892D02*
X127999Y302216D01*
X127513Y302701D01*
X130912D01*
X127999Y306327D02*
X127675Y306166D01*
X127513Y305680D01*
Y305356D01*
X127675Y304871D01*
X128160Y304547D01*
X128970Y304385D01*
X129779D01*
X130427Y304547D01*
X130750Y304871D01*
X130912Y305356D01*
Y305518D01*
X130750Y306004D01*
X130427Y306327D01*
X129941Y306489D01*
X129779D01*
X129294Y306327D01*
X128970Y306004D01*
X128808Y305518D01*
Y305356D01*
X128970Y304871D01*
X129294Y304547D01*
X129779Y304385D01*
X135663Y298863D02*
X139062D01*
X135663D02*
Y300320D01*
X135824Y300805D01*
X135986Y300967D01*
X136310Y301129D01*
X136634D01*
X136958Y300967D01*
X137119Y300805D01*
X137281Y300320D01*
Y298863D01*
Y299996D02*
X139062Y301129D01*
X136310Y301890D02*
X136148Y302214D01*
X135663Y302699D01*
X139062D01*
X135663Y306325D02*
Y304706D01*
X137119Y304545D01*
X136958Y304706D01*
X136796Y305192D01*
Y305678D01*
X136958Y306163D01*
X137281Y306487D01*
X137767Y306649D01*
X138091D01*
X138576Y306487D01*
X138900Y306163D01*
X139062Y305678D01*
Y305192D01*
X138900Y304706D01*
X138738Y304545D01*
X138414Y304383D01*
X143104Y298900D02*
X146503D01*
X143104D02*
Y300357D01*
X143265Y300843D01*
X143427Y301004D01*
X143751Y301166D01*
X144075D01*
X144398Y301004D01*
X144560Y300843D01*
X144722Y300357D01*
Y298900D01*
Y300033D02*
X146503Y301166D01*
X143751Y301927D02*
X143589Y302251D01*
X143104Y302736D01*
X146503D01*
X143104Y306039D02*
X145370Y304420D01*
Y306848D01*
X143104Y306039D02*
X146503D01*
X129796Y350773D02*
X133196D01*
X129796D02*
Y352229D01*
X129958Y352715D01*
X130120Y352877D01*
X130444Y353039D01*
X130768D01*
X131091Y352877D01*
X131253Y352715D01*
X131415Y352229D01*
Y350773D01*
Y351905D02*
X133196Y353039D01*
X130444Y353799D02*
X130282Y354123D01*
X129796Y354609D01*
X133196D01*
X130444Y356292D02*
X130282Y356616D01*
X129796Y357102D01*
X133196D01*
X108222Y274885D02*
X110811D01*
X111297Y274723D01*
X111459Y274561D01*
X111621Y274237D01*
Y273914D01*
X111459Y273590D01*
X111297Y273428D01*
X110811Y273266D01*
X110488D01*
X110002Y275759D02*
Y277216D01*
X109840Y277701D01*
X109678Y277863D01*
X109355Y278025D01*
X108869D01*
X108545Y277863D01*
X108384Y277701D01*
X108222Y277216D01*
Y275759D01*
X111621D01*
X108869Y278786D02*
X108707Y279110D01*
X108222Y279595D01*
X111621D01*
X108869Y281279D02*
X108707Y281603D01*
X108222Y282088D01*
X111621D01*
X75072Y275285D02*
X77662D01*
X78148Y275123D01*
X78309Y274961D01*
X78471Y274637D01*
Y274314D01*
X78309Y273990D01*
X78148Y273828D01*
X77662Y273666D01*
X77338D01*
X76853Y276159D02*
Y277616D01*
X76691Y278101D01*
X76529Y278263D01*
X76205Y278425D01*
X75719D01*
X75396Y278263D01*
X75234Y278101D01*
X75072Y277616D01*
Y276159D01*
X78471D01*
X75072Y279995D02*
X75234Y279510D01*
X75558Y279348D01*
X75881D01*
X76205Y279510D01*
X76367Y279833D01*
X76529Y280481D01*
X76691Y280966D01*
X77014Y281290D01*
X77338Y281452D01*
X77824D01*
X78148Y281290D01*
X78309Y281128D01*
X78471Y280643D01*
Y279995D01*
X78309Y279510D01*
X78148Y279348D01*
X77824Y279186D01*
X77338D01*
X77014Y279348D01*
X76691Y279672D01*
X76529Y280157D01*
X76367Y280805D01*
X76205Y281128D01*
X75881Y281290D01*
X75558D01*
X75234Y281128D01*
X75072Y280643D01*
Y279995D01*
X137710Y274810D02*
X140300D01*
X140785Y274648D01*
X140947Y274486D01*
X141109Y274163D01*
Y273839D01*
X140947Y273515D01*
X140785Y273353D01*
X140300Y273191D01*
X139976D01*
X139490Y275684D02*
Y277141D01*
X139329Y277627D01*
X139167Y277789D01*
X138843Y277950D01*
X138357D01*
X138033Y277789D01*
X137872Y277627D01*
X137710Y277141D01*
Y275684D01*
X141109D01*
X137710Y280330D02*
X139976Y278711D01*
Y281139D01*
X137710Y280330D02*
X141109D01*
X146804Y275009D02*
X149394D01*
X149880Y274847D01*
X150042Y274685D01*
X150204Y274362D01*
Y274038D01*
X150042Y273714D01*
X149880Y273552D01*
X149394Y273391D01*
X149071D01*
X148585Y275883D02*
Y277340D01*
X148423Y277826D01*
X148261Y277988D01*
X147937Y278150D01*
X147452D01*
X147128Y277988D01*
X146966Y277826D01*
X146804Y277340D01*
Y275883D01*
X150204D01*
X146804Y279234D02*
Y281015D01*
X148099Y280043D01*
Y280529D01*
X148261Y280853D01*
X148423Y281015D01*
X148909Y281176D01*
X149232D01*
X149718Y281015D01*
X150042Y280691D01*
X150204Y280205D01*
Y279720D01*
X150042Y279234D01*
X149880Y279072D01*
X149556Y278910D01*
X62828Y108961D02*
X65418D01*
X65903Y108800D01*
X66065Y108638D01*
X66227Y108314D01*
Y107990D01*
X66065Y107667D01*
X65903Y107505D01*
X65418Y107343D01*
X65094D01*
X62828Y111454D02*
X65094Y109836D01*
Y112264D01*
X62828Y111454D02*
X66227D01*
D15*
X58864Y219461D02*
X58301Y218898D01*
X58020Y218055D01*
Y216930D01*
X58301Y216087D01*
X58864Y215524D01*
X59426D01*
X59988Y215806D01*
X60269Y216087D01*
X60551Y216649D01*
X61113Y218336D01*
X61394Y218898D01*
X61675Y219179D01*
X62238Y219461D01*
X63081D01*
X63643Y218898D01*
X63924Y218055D01*
Y216930D01*
X63643Y216087D01*
X63081Y215524D01*
X58020Y220782D02*
X63924D01*
X58020Y224718D02*
X63924D01*
X60832Y220782D02*
Y224718D01*
X58020Y228036D02*
X58301Y227473D01*
X58864Y226911D01*
X59426Y226630D01*
X60269Y226349D01*
X61675D01*
X62519Y226630D01*
X63081Y226911D01*
X63643Y227473D01*
X63924Y228036D01*
Y229160D01*
X63643Y229723D01*
X63081Y230285D01*
X62519Y230566D01*
X61675Y230847D01*
X60269D01*
X59426Y230566D01*
X58864Y230285D01*
X58301Y229723D01*
X58020Y229160D01*
Y228036D01*
X59426Y236442D02*
X58864Y236161D01*
X58301Y235599D01*
X58020Y235036D01*
Y233912D01*
X58301Y233350D01*
X58864Y232787D01*
X59426Y232506D01*
X60269Y232225D01*
X61675D01*
X62519Y232506D01*
X63081Y232787D01*
X63643Y233350D01*
X63924Y233912D01*
Y235036D01*
X63643Y235599D01*
X63081Y236161D01*
X62519Y236442D01*
X58020Y238101D02*
X63924D01*
X58020Y242037D02*
X61956Y238101D01*
X60551Y239507D02*
X63924Y242037D01*
X58020Y249966D02*
X63924D01*
X58020Y247998D02*
Y251934D01*
Y252637D02*
X63924D01*
X58020D02*
Y255167D01*
X58301Y256011D01*
X58583Y256292D01*
X59145Y256573D01*
X59707D01*
X60269Y256292D01*
X60551Y256011D01*
X60832Y255167D01*
Y252637D01*
Y254605D02*
X63924Y256573D01*
Y262393D02*
X58020Y260144D01*
X63924Y257894D01*
X61956Y258738D02*
Y261549D01*
X58020Y263771D02*
X63924Y266020D01*
X58020Y268269D02*
X63924Y266020D01*
X58020Y272683D02*
Y269028D01*
X63924D01*
Y272683D01*
X60832Y269028D02*
Y271277D01*
X58020Y273667D02*
X63924D01*
Y277041D01*
X72930Y46750D02*
X72368Y46468D01*
X71805Y45906D01*
X71524Y45344D01*
Y44219D01*
X71805Y43657D01*
X72368Y43095D01*
X72930Y42813D01*
X73773Y42532D01*
X75179D01*
X76023Y42813D01*
X76585Y43095D01*
X77147Y43657D01*
X77428Y44219D01*
Y45344D01*
X77147Y45906D01*
X76585Y46468D01*
X76023Y46750D01*
X75179D01*
Y45344D02*
Y46750D01*
X74617Y48099D02*
Y50630D01*
X74336Y51473D01*
X74054Y51754D01*
X73492Y52035D01*
X72649D01*
X72086Y51754D01*
X71805Y51473D01*
X71524Y50630D01*
Y48099D01*
X77428D01*
X72368Y57293D02*
X71805Y56731D01*
X71524Y55887D01*
Y54763D01*
X71805Y53919D01*
X72368Y53357D01*
X72930D01*
X73492Y53638D01*
X73773Y53919D01*
X74054Y54481D01*
X74617Y56168D01*
X74898Y56731D01*
X75179Y57012D01*
X75741Y57293D01*
X76585D01*
X77147Y56731D01*
X77428Y55887D01*
Y54763D01*
X77147Y53919D01*
X76585Y53357D01*
X71327Y81036D02*
X77232D01*
X71327Y82273D02*
X77232D01*
X71327D02*
X77232Y84522D01*
X71327Y86772D02*
X77232Y84522D01*
X71327Y86772D02*
X77232D01*
X71327Y88459D02*
X75545D01*
X76388Y88740D01*
X76950Y89302D01*
X77232Y90146D01*
Y90708D01*
X76950Y91551D01*
X76388Y92114D01*
X75545Y92395D01*
X71327D01*
X48414Y133477D02*
X54318D01*
X48414Y131509D02*
Y135445D01*
Y139803D02*
Y136148D01*
X54318D01*
Y139803D01*
X51225Y136148D02*
Y138397D01*
X48414Y140787D02*
X54318D01*
X48414D02*
X54318Y143036D01*
X48414Y145285D02*
X54318Y143036D01*
X48414Y145285D02*
X54318D01*
X51507Y146972D02*
Y149503D01*
X51225Y150346D01*
X50944Y150627D01*
X50382Y150908D01*
X49538D01*
X48976Y150627D01*
X48695Y150346D01*
X48414Y149503D01*
Y146972D01*
X54318D01*
X48414Y155885D02*
Y152230D01*
X54318D01*
Y155885D01*
X51225Y152230D02*
Y154479D01*
X48414Y156869D02*
X54318D01*
X48414D02*
Y159399D01*
X48695Y160243D01*
X48976Y160524D01*
X49538Y160805D01*
X50101D01*
X50663Y160524D01*
X50944Y160243D01*
X51225Y159399D01*
Y156869D01*
Y158837D02*
X54318Y160805D01*
Y166625D02*
X48414Y164376D01*
X54318Y162126D01*
X52350Y162970D02*
Y165781D01*
X48414Y169971D02*
X54318D01*
X48414Y168002D02*
Y171939D01*
Y172642D02*
X52631D01*
X53475Y172923D01*
X54037Y173485D01*
X54318Y174328D01*
Y174891D01*
X54037Y175734D01*
X53475Y176297D01*
X52631Y176578D01*
X48414D01*
Y178208D02*
X54318D01*
X48414D02*
Y180739D01*
X48695Y181582D01*
X48976Y181863D01*
X49538Y182145D01*
X50101D01*
X50663Y181863D01*
X50944Y181582D01*
X51225Y180739D01*
Y178208D01*
Y180176D02*
X54318Y182145D01*
X48414Y187121D02*
Y183466D01*
X54318D01*
Y187121D01*
X51225Y183466D02*
Y185715D01*
X58256Y302768D02*
X64161D01*
X58256D02*
Y305299D01*
X58538Y306142D01*
X58819Y306423D01*
X59381Y306705D01*
X59943D01*
X60506Y306423D01*
X60787Y306142D01*
X61068Y305299D01*
Y302768D01*
Y304737D02*
X64161Y306705D01*
Y312525D02*
X58256Y310275D01*
X64161Y308026D01*
X62193Y308870D02*
Y311681D01*
X59100Y317838D02*
X58538Y317276D01*
X58256Y316433D01*
Y315308D01*
X58538Y314464D01*
X59100Y313902D01*
X59662D01*
X60224Y314183D01*
X60506Y314464D01*
X60787Y315027D01*
X61349Y316714D01*
X61630Y317276D01*
X61911Y317557D01*
X62474Y317838D01*
X63317D01*
X63880Y317276D01*
X64161Y316433D01*
Y315308D01*
X63880Y314464D01*
X63317Y313902D01*
X61349Y319160D02*
Y321690D01*
X61068Y322534D01*
X60787Y322815D01*
X60224Y323096D01*
X59381D01*
X58819Y322815D01*
X58538Y322534D01*
X58256Y321690D01*
Y319160D01*
X64161D01*
X58256Y324417D02*
X64161D01*
X58256D02*
Y326948D01*
X58538Y327791D01*
X58819Y328072D01*
X59381Y328354D01*
X59943D01*
X60506Y328072D01*
X60787Y327791D01*
X61068Y326948D01*
Y324417D02*
Y326948D01*
X61349Y327791D01*
X61630Y328072D01*
X62193Y328354D01*
X63036D01*
X63598Y328072D01*
X63880Y327791D01*
X64161Y326948D01*
Y324417D01*
X58256Y333330D02*
Y329675D01*
X64161D01*
Y333330D01*
X61068Y329675D02*
Y331924D01*
X58256Y334314D02*
X64161D01*
X58256D02*
Y336844D01*
X58538Y337688D01*
X58819Y337969D01*
X59381Y338250D01*
X59943D01*
X60506Y337969D01*
X60787Y337688D01*
X61068Y336844D01*
Y334314D01*
Y336282D02*
X64161Y338250D01*
X58256Y339572D02*
X64161D01*
X58256D02*
Y342102D01*
X58538Y342946D01*
X58819Y343227D01*
X59381Y343508D01*
X59943D01*
X60506Y343227D01*
X60787Y342946D01*
X61068Y342102D01*
Y339572D01*
Y341540D02*
X64161Y343508D01*
X58256Y344829D02*
X61068Y347078D01*
X64161D01*
X58256Y349328D02*
X61068Y347078D01*
X61349Y354726D02*
Y357256D01*
X61068Y358100D01*
X60787Y358381D01*
X60224Y358662D01*
X59381D01*
X58819Y358381D01*
X58538Y358100D01*
X58256Y357256D01*
Y354726D01*
X64161D01*
X58256Y359983D02*
X64161D01*
X42058Y416154D02*
Y418685D01*
X41777Y419528D01*
X41495Y419809D01*
X40933Y420090D01*
X40090D01*
X39527Y419809D01*
X39246Y419528D01*
X38965Y418685D01*
Y416154D01*
X44869D01*
X38965Y421412D02*
X44869D01*
X38965D02*
Y423380D01*
X39246Y424224D01*
X39808Y424786D01*
X40371Y425067D01*
X41214Y425348D01*
X42620D01*
X43464Y425067D01*
X44026Y424786D01*
X44588Y424224D01*
X44869Y423380D01*
Y421412D01*
X38965Y426670D02*
X44869D01*
X38965D02*
Y429200D01*
X39246Y430043D01*
X39527Y430325D01*
X40090Y430606D01*
X40652D01*
X41214Y430325D01*
X41495Y430043D01*
X41777Y429200D01*
Y426670D02*
Y429200D01*
X42058Y430043D01*
X42339Y430325D01*
X42901Y430606D01*
X43745D01*
X44307Y430325D01*
X44588Y430043D01*
X44869Y429200D01*
Y426670D01*
D16*
X121880Y42126D02*
X127784D01*
X121880D02*
Y44094D01*
X122161Y44938D01*
X122723Y45500D01*
X123286Y45781D01*
X124129Y46062D01*
X125535D01*
X126378Y45781D01*
X126941Y45500D01*
X127503Y44938D01*
X127784Y44094D01*
Y42126D01*
Y51882D02*
X121880Y49633D01*
X127784Y47384D01*
X125816Y48227D02*
Y51039D01*
X121880Y54947D02*
X122161Y54384D01*
X122723Y53822D01*
X123286Y53541D01*
X124129Y53260D01*
X125535D01*
X126378Y53541D01*
X126941Y53822D01*
X127503Y54384D01*
X127784Y54947D01*
Y56071D01*
X127503Y56634D01*
X126941Y57196D01*
X126378Y57477D01*
X125535Y57758D01*
X124129D01*
X123286Y57477D01*
X122723Y57196D01*
X122161Y56634D01*
X121880Y56071D01*
Y54947D01*
X126660Y55790D02*
X128347Y57477D01*
X121880Y63775D02*
X127784D01*
X121880D02*
Y66305D01*
X122161Y67149D01*
X122442Y67430D01*
X123004Y67711D01*
X123567D01*
X124129Y67430D01*
X124410Y67149D01*
X124691Y66305D01*
Y63775D02*
Y66305D01*
X124973Y67149D01*
X125254Y67430D01*
X125816Y67711D01*
X126660D01*
X127222Y67430D01*
X127503Y67149D01*
X127784Y66305D01*
Y63775D01*
X123848Y70438D02*
X124129Y69876D01*
X124691Y69314D01*
X125535Y69033D01*
X126097D01*
X126941Y69314D01*
X127503Y69876D01*
X127784Y70438D01*
Y71282D01*
X127503Y71844D01*
X126941Y72406D01*
X126097Y72688D01*
X125535D01*
X124691Y72406D01*
X124129Y71844D01*
X123848Y71282D01*
Y70438D01*
Y77355D02*
X127784D01*
X124691D02*
X124129Y76792D01*
X123848Y76230D01*
Y75387D01*
X124129Y74824D01*
X124691Y74262D01*
X125535Y73981D01*
X126097D01*
X126941Y74262D01*
X127503Y74824D01*
X127784Y75387D01*
Y76230D01*
X127503Y76792D01*
X126941Y77355D01*
X123848Y78929D02*
X127784D01*
X125535D02*
X124691Y79210D01*
X124129Y79773D01*
X123848Y80335D01*
Y81178D01*
X121880Y85086D02*
X127784D01*
X124691D02*
X124129Y84524D01*
X123848Y83962D01*
Y83118D01*
X124129Y82556D01*
X124691Y81994D01*
X125535Y81713D01*
X126097D01*
X126941Y81994D01*
X127503Y82556D01*
X127784Y83118D01*
Y83962D01*
X127503Y84524D01*
X126941Y85086D01*
X121880Y91300D02*
X127784D01*
X121880D02*
Y93830D01*
X122161Y94674D01*
X122442Y94955D01*
X123004Y95236D01*
X123567D01*
X124129Y94955D01*
X124410Y94674D01*
X124691Y93830D01*
Y91300D01*
Y93268D02*
X127784Y95236D01*
X125535Y96557D02*
Y99931D01*
X124973D01*
X124410Y99650D01*
X124129Y99369D01*
X123848Y98807D01*
Y97963D01*
X124129Y97401D01*
X124691Y96839D01*
X125535Y96557D01*
X126097D01*
X126941Y96839D01*
X127503Y97401D01*
X127784Y97963D01*
Y98807D01*
X127503Y99369D01*
X126941Y99931D01*
X123848Y101197D02*
X127784Y102884D01*
X123848Y104570D02*
X127784Y102884D01*
X123004Y110165D02*
X122723Y110728D01*
X121880Y111571D01*
X127784D01*
M02*
