G04*
G04 #@! TF.GenerationSoftware,Altium Limited,Altium Designer,18.1.11 (251)*
G04*
G04 Layer_Color=8388736*
%FSLAX25Y25*%
%MOIN*%
G70*
G01*
G75*
%ADD20R,0.04540X0.03359*%
%ADD21R,0.03950X0.03950*%
%ADD22R,0.02965X0.03162*%
%ADD23R,0.08871X0.10642*%
%ADD24R,0.03950X0.03950*%
%ADD25R,0.03162X0.02965*%
%ADD26R,0.03359X0.04540*%
%ADD27C,0.07099*%
%ADD28C,0.18123*%
%ADD29C,0.05131*%
%ADD30C,0.16548*%
D20*
X82973Y81379D02*
D03*
X73721Y77776D02*
D03*
Y84981D02*
D03*
D21*
X76198Y38188D02*
D03*
Y44488D02*
D03*
D22*
X76197Y32382D02*
D03*
Y29036D02*
D03*
D23*
X8366Y37560D02*
D03*
Y50158D02*
D03*
D24*
X21260Y92322D02*
D03*
X14961D02*
D03*
D25*
X30580Y92322D02*
D03*
X27234D02*
D03*
D26*
X12066Y73996D02*
D03*
X15669Y64744D02*
D03*
X8464D02*
D03*
D27*
X72279Y5906D02*
D03*
X82279D02*
D03*
X30580Y83195D02*
D03*
X20580D02*
D03*
X10580D02*
D03*
X67422Y29134D02*
D03*
X87107D02*
D03*
Y58661D02*
D03*
X67422D02*
D03*
D28*
X118110Y49213D02*
D03*
X-19685D02*
D03*
D29*
X8366Y58661D02*
D03*
Y29134D02*
D03*
D30*
X48819Y74803D02*
D03*
Y11417D02*
D03*
M02*
