G04*
G04 #@! TF.GenerationSoftware,Altium Limited,Altium Designer,18.1.11 (251)*
G04*
G04 Layer_Color=32896*
%FSLAX25Y25*%
%MOIN*%
G70*
G01*
G75*
%ADD11C,0.00787*%
%ADD31C,0.01000*%
G36*
X63438Y88301D02*
X62852D01*
Y89627D01*
X61309D01*
Y88301D01*
X60735D01*
Y91413D01*
X61309D01*
Y90125D01*
X62852D01*
Y91413D01*
X63438D01*
Y88301D01*
D02*
G37*
G36*
X56668D02*
X56107D01*
Y90609D01*
X54462Y88301D01*
X53876D01*
Y91413D01*
X54437D01*
Y89143D01*
X56094Y91413D01*
X56668D01*
Y88301D01*
D02*
G37*
G36*
X71088Y88301D02*
X70553D01*
Y90456D01*
X69686Y88301D01*
X69189D01*
X68347Y90456D01*
Y88301D01*
X67812D01*
Y91413D01*
X68385D01*
X69431Y89054D01*
X70477Y91413D01*
X71088D01*
Y88301D01*
D02*
G37*
G36*
X47297Y88301D02*
X46774D01*
Y90456D01*
X45907Y88301D01*
X45423D01*
X44556Y90456D01*
Y88301D01*
X44033D01*
Y91413D01*
X44607D01*
X45640Y89054D01*
X46711Y91413D01*
X47297D01*
Y88301D01*
D02*
G37*
G36*
X79912Y90915D02*
X79006D01*
Y88301D01*
X78433D01*
Y90915D01*
X77527D01*
Y91413D01*
X79912D01*
Y90915D01*
D02*
G37*
G36*
X77209Y88301D02*
X75041D01*
Y88799D01*
X76648D01*
Y89615D01*
X75130D01*
Y90125D01*
X76622D01*
Y90915D01*
X75067D01*
Y91413D01*
X77209D01*
Y88301D01*
D02*
G37*
G36*
X74773D02*
X74187D01*
X73141Y90826D01*
X72657Y89640D01*
X73294D01*
X73485Y89143D01*
X72440D01*
X72096Y88301D01*
X71458D01*
X72822Y91413D01*
X73447D01*
X74773Y88301D01*
D02*
G37*
G36*
X66167Y88301D02*
X65593D01*
Y90903D01*
X64803D01*
X64688Y90890D01*
X64599Y90851D01*
X64535Y90813D01*
X64522Y90800D01*
X64459Y90724D01*
X64433Y90622D01*
X64420Y90545D01*
Y90533D01*
Y90520D01*
X64433Y90431D01*
X64446Y90354D01*
X64522Y90227D01*
X64561Y90176D01*
X64586Y90137D01*
X64612Y90125D01*
X64624Y90112D01*
X64701Y90061D01*
X64790Y90010D01*
X64994Y89946D01*
X65070Y89921D01*
X65147Y89908D01*
X65198Y89895D01*
X65211D01*
X65134Y89372D01*
X64905Y89424D01*
X64701Y89474D01*
X64522Y89538D01*
X64382Y89615D01*
X64280Y89666D01*
X64204Y89717D01*
X64152Y89755D01*
X64140Y89768D01*
X64025Y89882D01*
X63949Y90010D01*
X63885Y90137D01*
X63846Y90265D01*
X63821Y90367D01*
X63808Y90456D01*
Y90507D01*
Y90533D01*
X63821Y90686D01*
X63846Y90813D01*
X63885Y90928D01*
X63923Y91017D01*
X63974Y91094D01*
X64012Y91145D01*
X64038Y91170D01*
X64051Y91183D01*
X64152Y91259D01*
X64267Y91311D01*
X64382Y91361D01*
X64497Y91387D01*
X64599Y91400D01*
X64688Y91413D01*
X66167D01*
Y88301D01*
D02*
G37*
G36*
X60353D02*
X59767D01*
X58734Y90826D01*
X58236Y89640D01*
X58861D01*
X59065Y89143D01*
X58033D01*
X57663Y88301D01*
X57051D01*
X58402Y91413D01*
X59027D01*
X60353Y88301D01*
D02*
G37*
G36*
X53557Y90915D02*
X52652D01*
Y88301D01*
X52078D01*
Y90915D01*
X51186D01*
Y91413D01*
X53557D01*
Y90915D01*
D02*
G37*
G36*
X49668Y91425D02*
X49911Y91374D01*
X50115Y91311D01*
X50280Y91234D01*
X50408Y91158D01*
X50497Y91094D01*
X50561Y91043D01*
X50574Y91030D01*
X50701Y90864D01*
X50803Y90673D01*
X50867Y90482D01*
X50918Y90290D01*
X50943Y90112D01*
X50956Y89972D01*
X50969Y89921D01*
Y89882D01*
Y89857D01*
Y89844D01*
X50943Y89577D01*
X50893Y89334D01*
X50816Y89130D01*
X50740Y88964D01*
X50676Y88824D01*
X50612Y88735D01*
X50561Y88684D01*
X50548Y88658D01*
X50383Y88531D01*
X50204Y88429D01*
X50013Y88365D01*
X49821Y88314D01*
X49656Y88289D01*
X49528Y88276D01*
X49477Y88263D01*
X49401D01*
X49133Y88276D01*
X48891Y88327D01*
X48687Y88391D01*
X48534Y88467D01*
X48406Y88531D01*
X48317Y88595D01*
X48253Y88646D01*
X48241Y88658D01*
X48113Y88824D01*
X48011Y89016D01*
X47947Y89219D01*
X47896Y89411D01*
X47871Y89577D01*
X47845Y89717D01*
Y89768D01*
Y89806D01*
Y89832D01*
Y89844D01*
X47858Y90125D01*
X47909Y90367D01*
X47973Y90571D01*
X48037Y90737D01*
X48113Y90864D01*
X48177Y90953D01*
X48228Y91017D01*
X48241Y91030D01*
X48393Y91170D01*
X48585Y91272D01*
X48776Y91336D01*
X48967Y91387D01*
X49133Y91413D01*
X49273Y91438D01*
X49401D01*
X49668Y91425D01*
D02*
G37*
G36*
X80613Y86695D02*
X43357Y86695D01*
Y86963D01*
X80613Y86963D01*
Y86695D01*
D02*
G37*
G36*
X89716Y95327D02*
X90048Y95288D01*
X90341Y95250D01*
X90481Y95225D01*
X90596Y95199D01*
X90698Y95174D01*
X90787Y95148D01*
X90864Y95135D01*
X90915Y95123D01*
X90940Y95110D01*
X90953D01*
X91297Y94995D01*
X91629Y94855D01*
X91922Y94715D01*
X92190Y94574D01*
X92304Y94511D01*
X92406Y94447D01*
X92509Y94396D01*
X92585Y94345D01*
X92636Y94307D01*
X92687Y94281D01*
X92712Y94269D01*
X92725Y94256D01*
X93019Y94026D01*
X93299Y93784D01*
X93541Y93542D01*
X93745Y93312D01*
X93924Y93108D01*
X94000Y93032D01*
X94051Y92955D01*
X94102Y92892D01*
X94140Y92853D01*
X94153Y92828D01*
X94166Y92815D01*
X94370Y92496D01*
X94561Y92177D01*
X94701Y91872D01*
X94829Y91591D01*
X94880Y91464D01*
X94931Y91349D01*
X94956Y91247D01*
X94995Y91170D01*
X95020Y91094D01*
X95033Y91043D01*
X95046Y91017D01*
Y91005D01*
X95135Y90648D01*
X95211Y90290D01*
X95262Y89959D01*
X95288Y89653D01*
X95301Y89526D01*
Y89398D01*
X95314Y89296D01*
Y89207D01*
Y89130D01*
Y89079D01*
Y89041D01*
Y89028D01*
X95288Y88658D01*
X95237Y88314D01*
X95173Y87983D01*
X95097Y87690D01*
X95071Y87562D01*
X95033Y87447D01*
X95007Y87345D01*
X94969Y87269D01*
X94956Y87192D01*
X94931Y87141D01*
X94918Y87116D01*
Y87103D01*
X94778Y86759D01*
X94612Y86427D01*
X94446Y86121D01*
X94281Y85853D01*
X94204Y85739D01*
X94140Y85637D01*
X94077Y85548D01*
X94013Y85471D01*
X93975Y85407D01*
X93937Y85369D01*
X93924Y85343D01*
X93911Y85331D01*
X93694Y85522D01*
X93911Y85815D01*
X94115Y86108D01*
X94281Y86389D01*
X94408Y86644D01*
X94523Y86861D01*
X94561Y86963D01*
X94599Y87039D01*
X94625Y87103D01*
X94651Y87154D01*
X94663Y87179D01*
Y87192D01*
X94778Y87537D01*
X94854Y87868D01*
X94931Y88187D01*
X94969Y88467D01*
X94995Y88582D01*
X95007Y88697D01*
Y88799D01*
X95020Y88888D01*
X95033Y88952D01*
Y89003D01*
Y89028D01*
Y89041D01*
Y89398D01*
X95007Y89729D01*
X94969Y90048D01*
X94918Y90329D01*
X94893Y90456D01*
X94880Y90571D01*
X94854Y90673D01*
X94829Y90750D01*
X94816Y90826D01*
X94804Y90877D01*
X94791Y90903D01*
Y90915D01*
X94676Y91259D01*
X94536Y91578D01*
X94396Y91872D01*
X94255Y92127D01*
X94191Y92241D01*
X94128Y92343D01*
X94077Y92432D01*
X94026Y92509D01*
X93988Y92573D01*
X93962Y92611D01*
X93937Y92637D01*
Y92649D01*
X93707Y92943D01*
X93477Y93210D01*
X93248Y93453D01*
X93031Y93644D01*
X92840Y93809D01*
X92764Y93873D01*
X92700Y93924D01*
X92636Y93975D01*
X92598Y94001D01*
X92572Y94026D01*
X92559D01*
X92254Y94217D01*
X91960Y94383D01*
X91680Y94524D01*
X91412Y94638D01*
X91195Y94727D01*
X91093Y94766D01*
X91017Y94791D01*
X90953Y94817D01*
X90902Y94829D01*
X90877Y94842D01*
X90864D01*
X90519Y94932D01*
X90188Y94995D01*
X89869Y95034D01*
X89589Y95059D01*
X89461Y95072D01*
X89346Y95085D01*
X88990D01*
X88633Y95059D01*
X88288Y95021D01*
X87957Y94957D01*
X87676Y94880D01*
X87549Y94855D01*
X87434Y94817D01*
X87332Y94791D01*
X87256Y94753D01*
X87179Y94740D01*
X87128Y94715D01*
X87103Y94702D01*
X87090D01*
X87001Y94957D01*
X87357Y95085D01*
X87714Y95174D01*
X88046Y95250D01*
X88352Y95288D01*
X88480Y95314D01*
X88607Y95327D01*
X88709Y95340D01*
X88798D01*
X88875Y95352D01*
X89359D01*
X89716Y95327D01*
D02*
G37*
G36*
X68641Y83966D02*
X68373D01*
Y85063D01*
X68360D01*
X67990Y84222D01*
X67761D01*
X67404Y85063D01*
X67391D01*
Y83966D01*
X67123D01*
Y85726D01*
X67378D01*
X67875Y84579D01*
X68385Y85726D01*
X68641D01*
Y83966D01*
D02*
G37*
G36*
X75819Y84553D02*
X75806Y84464D01*
X75793Y84387D01*
X75780Y84336D01*
Y84311D01*
X75730Y84234D01*
X75678Y84183D01*
X75640Y84132D01*
X75627Y84119D01*
X75564Y84069D01*
X75500Y84017D01*
X75449Y84005D01*
X75436Y83992D01*
X75347Y83966D01*
X75270Y83954D01*
X75194D01*
X75092Y83966D01*
X75015Y83979D01*
X74964Y83992D01*
X74939D01*
X74862Y84030D01*
X74799Y84069D01*
X74761Y84107D01*
X74748Y84119D01*
X74684Y84183D01*
X74633Y84247D01*
X74620Y84298D01*
X74607Y84311D01*
X74582Y84400D01*
X74556Y84477D01*
Y84527D01*
Y84553D01*
Y85726D01*
X74824D01*
Y84591D01*
Y84527D01*
X74837Y84477D01*
X74850Y84451D01*
Y84438D01*
X74875Y84387D01*
X74901Y84349D01*
X74926Y84324D01*
X74939Y84311D01*
X75015Y84260D01*
X75041Y84234D01*
X75054D01*
X75092Y84222D01*
X75245D01*
X75296Y84234D01*
X75334D01*
X75411Y84285D01*
X75436Y84298D01*
X75449Y84311D01*
X75500Y84400D01*
X75525Y84425D01*
Y84438D01*
X75551Y84540D01*
Y84579D01*
Y84591D01*
Y85726D01*
X75819D01*
Y84553D01*
D02*
G37*
G36*
X66664Y84553D02*
X66651Y84464D01*
X66639Y84387D01*
X66626Y84336D01*
Y84311D01*
X66575Y84234D01*
X66524Y84183D01*
X66486Y84132D01*
X66473Y84119D01*
X66409Y84069D01*
X66346Y84017D01*
X66294Y84005D01*
X66282Y83992D01*
X66193Y83966D01*
X66116Y83954D01*
X66027D01*
X65938Y83966D01*
X65861Y83979D01*
X65810Y83992D01*
X65785D01*
X65708Y84030D01*
X65644Y84069D01*
X65606Y84107D01*
X65593Y84119D01*
X65530Y84183D01*
X65478Y84247D01*
X65466Y84298D01*
X65453Y84311D01*
X65428Y84400D01*
X65402Y84477D01*
Y84527D01*
Y84553D01*
Y85726D01*
X65670D01*
Y84591D01*
Y84527D01*
X65683Y84477D01*
X65695Y84451D01*
Y84438D01*
X65746Y84349D01*
X65759Y84324D01*
X65772Y84311D01*
X65848Y84260D01*
X65874Y84234D01*
X65886D01*
X65976Y84222D01*
X66091D01*
X66141Y84234D01*
X66180D01*
X66243Y84285D01*
X66269Y84298D01*
X66282Y84311D01*
X66320Y84362D01*
X66346Y84400D01*
X66371Y84425D01*
Y84438D01*
X66396Y84540D01*
Y84579D01*
Y84591D01*
Y85726D01*
X66664D01*
Y84553D01*
D02*
G37*
G36*
X50688Y85726D02*
X50740Y85713D01*
X50752D01*
X50816Y85701D01*
X50867Y85675D01*
X50893Y85662D01*
X50905Y85650D01*
X50994Y85586D01*
X51020Y85560D01*
X51033Y85548D01*
X51096Y85471D01*
X51109Y85445D01*
X51122Y85433D01*
X51135Y85369D01*
X51148Y85356D01*
Y85343D01*
X51160Y85280D01*
X51173Y85267D01*
Y85254D01*
X51186Y85203D01*
Y85165D01*
Y85114D01*
Y85101D01*
Y85025D01*
Y84948D01*
Y84885D01*
Y84872D01*
Y84859D01*
Y84744D01*
Y84668D01*
Y84604D01*
Y84591D01*
Y84527D01*
X51173Y84477D01*
Y84451D01*
Y84438D01*
Y84400D01*
Y84387D01*
Y84374D01*
X51160Y84349D01*
X51148Y84336D01*
X51135Y84311D01*
Y84298D01*
X51122Y84272D01*
Y84260D01*
X51058Y84183D01*
X51046Y84158D01*
X51033Y84145D01*
X50943Y84081D01*
X50918Y84056D01*
X50905Y84043D01*
X50803Y83992D01*
X50765Y83979D01*
X50752D01*
X50688Y83966D01*
X50612Y83954D01*
X50472D01*
X50408Y83966D01*
X50357Y83979D01*
X50344D01*
X50268Y84005D01*
X50217Y84043D01*
X50178Y84056D01*
X50166Y84069D01*
X50102Y84132D01*
X50051Y84183D01*
X50025Y84222D01*
X50013Y84234D01*
X49975Y84311D01*
X49949Y84387D01*
X49936Y84438D01*
Y84464D01*
X50217D01*
X50255Y84374D01*
X50306Y84324D01*
X50344Y84285D01*
X50357Y84272D01*
X50421Y84247D01*
X50485Y84234D01*
X50536Y84222D01*
X50650D01*
X50701Y84247D01*
X50714Y84260D01*
X50765Y84272D01*
X50778Y84285D01*
X50816Y84324D01*
X50829Y84336D01*
X50841D01*
X50867Y84387D01*
X50880Y84413D01*
X50893Y84464D01*
X50905Y84489D01*
X50918Y84527D01*
Y84579D01*
Y84617D01*
Y84629D01*
Y84706D01*
Y84782D01*
Y84834D01*
Y84859D01*
Y84935D01*
Y84999D01*
Y85050D01*
Y85063D01*
Y85127D01*
X50905Y85178D01*
Y85190D01*
Y85203D01*
X50893Y85254D01*
X50880Y85280D01*
X50854Y85331D01*
X50841Y85356D01*
X50791Y85382D01*
X50778Y85395D01*
X50740Y85433D01*
X50714Y85445D01*
X50676Y85458D01*
X50650D01*
X50586Y85471D01*
X50561Y85484D01*
X50548D01*
X50472Y85471D01*
X50446Y85458D01*
X50433D01*
X50370Y85433D01*
X50344Y85420D01*
Y85407D01*
X50280Y85343D01*
X50268Y85331D01*
Y85318D01*
X50230Y85254D01*
X50217Y85229D01*
Y85216D01*
X49936D01*
X49962Y85293D01*
X49987Y85356D01*
X50000Y85407D01*
X50013Y85420D01*
X50051Y85496D01*
X50089Y85548D01*
X50128Y85586D01*
X50140Y85598D01*
X50204Y85650D01*
X50268Y85675D01*
X50306Y85701D01*
X50331D01*
X50408Y85726D01*
X50472Y85739D01*
X50625D01*
X50688Y85726D01*
D02*
G37*
G36*
X45410D02*
X45448Y85713D01*
X45461D01*
X45525Y85701D01*
X45576Y85675D01*
X45614Y85662D01*
X45627Y85650D01*
X45678Y85624D01*
X45716Y85586D01*
X45742Y85560D01*
X45754Y85548D01*
X45805Y85471D01*
X45818Y85445D01*
X45831Y85433D01*
X45856Y85369D01*
X45869Y85356D01*
Y85343D01*
X45882Y85280D01*
Y85267D01*
Y85254D01*
X45895Y85203D01*
X45907Y85165D01*
X45920Y85114D01*
Y85101D01*
Y85025D01*
Y84948D01*
Y84885D01*
Y84872D01*
Y84859D01*
Y84744D01*
Y84668D01*
Y84604D01*
Y84591D01*
X45907Y84527D01*
X45895Y84477D01*
X45882Y84451D01*
Y84438D01*
Y84400D01*
Y84387D01*
Y84374D01*
X45869Y84349D01*
X45856Y84336D01*
Y84311D01*
Y84298D01*
X45843Y84272D01*
X45831Y84260D01*
X45780Y84183D01*
X45754Y84158D01*
Y84145D01*
X45665Y84081D01*
X45640Y84056D01*
X45627Y84043D01*
X45563Y84017D01*
X45512Y83992D01*
X45474Y83979D01*
X45461D01*
X45397Y83966D01*
X45333Y83954D01*
X45206D01*
X45129Y83966D01*
X45079Y83979D01*
X45066D01*
X44989Y84005D01*
X44925Y84043D01*
X44887Y84056D01*
X44875Y84069D01*
X44824Y84132D01*
X44785Y84183D01*
X44760Y84222D01*
X44747Y84234D01*
X44709Y84311D01*
X44671Y84387D01*
X44658Y84438D01*
X44645Y84464D01*
X44951D01*
X44989Y84374D01*
X45040Y84324D01*
X45079Y84285D01*
X45091Y84272D01*
X45155Y84247D01*
X45219Y84234D01*
X45257Y84222D01*
X45359D01*
X45423Y84247D01*
X45436Y84260D01*
X45448D01*
X45487Y84272D01*
X45499Y84285D01*
X45537Y84324D01*
X45550Y84336D01*
X45588Y84387D01*
X45601Y84413D01*
X45614Y84464D01*
Y84489D01*
X45627Y84527D01*
Y84579D01*
X45640Y84617D01*
Y84629D01*
Y84706D01*
Y84782D01*
Y84834D01*
Y84859D01*
Y84935D01*
Y84999D01*
Y85050D01*
Y85063D01*
X45627Y85127D01*
Y85178D01*
X45614Y85190D01*
Y85203D01*
X45601Y85254D01*
Y85280D01*
X45563Y85331D01*
X45550Y85356D01*
X45512Y85382D01*
X45499Y85395D01*
X45461Y85433D01*
X45448Y85445D01*
X45384Y85458D01*
X45359D01*
X45308Y85471D01*
X45283Y85484D01*
X45206Y85471D01*
X45180Y85458D01*
X45168D01*
X45091Y85433D01*
X45066Y85420D01*
X45053Y85407D01*
X45002Y85343D01*
X44989Y85331D01*
Y85318D01*
X44964Y85254D01*
X44951Y85229D01*
Y85216D01*
X44645D01*
X44671Y85293D01*
X44709Y85356D01*
X44721Y85407D01*
X44734Y85420D01*
X44772Y85496D01*
X44811Y85548D01*
X44849Y85586D01*
X44862Y85598D01*
X44925Y85650D01*
X44989Y85675D01*
X45040Y85701D01*
X45053D01*
X45129Y85726D01*
X45206Y85739D01*
X45346D01*
X45410Y85726D01*
D02*
G37*
G36*
X77247Y83966D02*
X76979D01*
Y84719D01*
X76240D01*
Y84961D01*
X76979D01*
Y85484D01*
X76112D01*
Y85726D01*
X77247D01*
Y83966D01*
D02*
G37*
G36*
X73371D02*
X73103D01*
Y84719D01*
X72364D01*
Y84961D01*
X73103D01*
Y85484D01*
X72249D01*
Y85726D01*
X73371D01*
Y83966D01*
D02*
G37*
G36*
X70285D02*
X70017D01*
Y84719D01*
X69661D01*
X69304Y83966D01*
X68972D01*
X69393Y84744D01*
X69278Y84795D01*
X69201Y84859D01*
X69151Y84910D01*
X69138Y84923D01*
X69087Y85025D01*
X69061Y85127D01*
X69049Y85216D01*
Y85229D01*
Y85242D01*
X69061Y85331D01*
X69074Y85395D01*
X69087Y85445D01*
X69099Y85458D01*
X69138Y85522D01*
X69176Y85573D01*
X69201Y85611D01*
X69214Y85624D01*
X69278Y85662D01*
X69342Y85688D01*
X69380Y85701D01*
X69393D01*
X69456Y85713D01*
X69520Y85726D01*
X70285D01*
Y83966D01*
D02*
G37*
G36*
X64930Y83966D02*
X63796D01*
Y84222D01*
X64675D01*
Y85726D01*
X64930D01*
Y83966D01*
D02*
G37*
G36*
X63617D02*
X63324D01*
X63196Y84349D01*
X62520D01*
X62393Y83966D01*
X62100D01*
X62750Y85726D01*
X62967D01*
X63617Y83966D01*
D02*
G37*
G36*
X59703D02*
X59409D01*
X59282Y84349D01*
X58606D01*
X58479Y83966D01*
X58185D01*
X58836Y85726D01*
X59052D01*
X59703Y83966D01*
D02*
G37*
G36*
X57880D02*
X56757D01*
Y84222D01*
X57612D01*
Y84732D01*
X56872D01*
Y84974D01*
X57612D01*
Y85484D01*
X56757D01*
Y85726D01*
X57880D01*
Y83966D01*
D02*
G37*
G36*
X55648D02*
X54526D01*
Y84222D01*
X55380D01*
Y84732D01*
X54641D01*
Y84974D01*
X55380D01*
Y85484D01*
X54526D01*
Y85726D01*
X55648D01*
Y83966D01*
D02*
G37*
G36*
X54144D02*
X53009D01*
Y84222D01*
X53876D01*
Y85726D01*
X54144D01*
Y83966D01*
D02*
G37*
G36*
X52639D02*
X51504D01*
Y84222D01*
X52372D01*
Y84732D01*
X51632D01*
Y84974D01*
X52372D01*
Y85484D01*
X51504D01*
Y85726D01*
X52639D01*
Y83966D01*
D02*
G37*
G36*
X49796Y85496D02*
X49312D01*
Y83966D01*
X49044D01*
Y85496D01*
X48559D01*
Y85726D01*
X49796D01*
Y85496D01*
D02*
G37*
G36*
X48253Y83966D02*
X47986D01*
Y84719D01*
X47654D01*
X47271Y83966D01*
X46966D01*
X47361Y84744D01*
X47259Y84795D01*
X47182Y84859D01*
X47131Y84910D01*
X47118Y84923D01*
X47067Y85025D01*
X47042Y85127D01*
X47029Y85216D01*
Y85229D01*
Y85242D01*
X47042Y85331D01*
X47055Y85395D01*
X47067Y85445D01*
X47080Y85458D01*
X47118Y85522D01*
X47157Y85573D01*
X47195Y85611D01*
X47208Y85624D01*
X47310Y85688D01*
X47348Y85701D01*
X47361D01*
X47425Y85713D01*
X47501Y85726D01*
X48253D01*
Y83966D01*
D02*
G37*
G36*
X46608D02*
X46341D01*
Y85726D01*
X46608D01*
Y83966D01*
D02*
G37*
G36*
X78458Y85726D02*
X78509Y85713D01*
X78535Y85701D01*
X78598Y85675D01*
X78649Y85650D01*
X78688Y85624D01*
X78700Y85611D01*
X78751Y85548D01*
X78790Y85496D01*
X78815Y85458D01*
X78828Y85445D01*
X78853Y85369D01*
X78866Y85305D01*
Y85254D01*
Y85229D01*
X78853Y85165D01*
X78841Y85101D01*
X78828Y85063D01*
Y85050D01*
X78802Y84999D01*
X78764Y84948D01*
X78751Y84923D01*
X78738Y84910D01*
X78688Y84859D01*
X78636Y84821D01*
X78598Y84795D01*
X78585Y84782D01*
X78522Y84757D01*
X78458Y84744D01*
X78407Y84732D01*
X78394D01*
X78343Y84719D01*
X78305D01*
X78280Y84706D01*
X78152D01*
X78075Y84680D01*
X78025Y84655D01*
X77999Y84629D01*
X77986Y84617D01*
X77948Y84566D01*
X77935Y84515D01*
X77922Y84477D01*
Y84464D01*
X77935Y84374D01*
X77961Y84324D01*
X77999Y84285D01*
X78012Y84272D01*
X78088Y84247D01*
X78165Y84234D01*
X78241Y84222D01*
X78267D01*
X78369Y84234D01*
X78458Y84247D01*
X78522Y84260D01*
X78547D01*
X78636Y84298D01*
X78700Y84349D01*
X78751Y84387D01*
X78764Y84400D01*
X78955Y84196D01*
X78841Y84107D01*
X78738Y84056D01*
X78662Y84017D01*
X78649Y84005D01*
X78636D01*
X78509Y83979D01*
X78394Y83966D01*
X78343Y83954D01*
X78165D01*
X78075Y83979D01*
X77999Y83992D01*
X77935Y84017D01*
X77884Y84043D01*
X77846Y84056D01*
X77833Y84081D01*
X77820D01*
X77770Y84132D01*
X77731Y84196D01*
X77680Y84324D01*
X77667Y84374D01*
X77655Y84425D01*
Y84451D01*
Y84464D01*
Y84527D01*
X77667Y84579D01*
X77680Y84617D01*
Y84629D01*
X77706Y84693D01*
X77731Y84744D01*
X77757Y84782D01*
X77770Y84795D01*
X77820Y84846D01*
X77859Y84885D01*
X77910Y84897D01*
X77922Y84910D01*
X77999Y84948D01*
X78063Y84961D01*
X78114Y84974D01*
X78254D01*
X78305Y84987D01*
X78318Y84999D01*
X78330D01*
X78382Y85012D01*
X78420D01*
X78445Y85025D01*
X78458D01*
X78509Y85063D01*
X78522Y85076D01*
X78560Y85140D01*
X78573Y85152D01*
X78585Y85203D01*
Y85229D01*
X78573Y85305D01*
X78560Y85318D01*
Y85331D01*
X78535Y85369D01*
X78522Y85395D01*
X78496Y85420D01*
X78433Y85445D01*
X78420Y85458D01*
X78407D01*
X78330Y85484D01*
X78292D01*
X78203Y85471D01*
X78139Y85458D01*
X78088Y85445D01*
X78063Y85433D01*
X77986Y85407D01*
X77910Y85369D01*
X77859Y85343D01*
X77846Y85331D01*
X77706Y85560D01*
X77795Y85624D01*
X77872Y85662D01*
X77935Y85675D01*
X77948Y85688D01*
X77961D01*
X78075Y85713D01*
X78177Y85739D01*
X78382D01*
X78458Y85726D01*
D02*
G37*
G36*
X71471D02*
X71522Y85713D01*
X71535D01*
X71599Y85701D01*
X71649Y85675D01*
X71675Y85662D01*
X71688Y85650D01*
X71739Y85624D01*
X71777Y85586D01*
X71803Y85560D01*
X71815Y85548D01*
X71866Y85471D01*
X71892Y85445D01*
Y85433D01*
X71917Y85369D01*
X71930Y85356D01*
Y85343D01*
X71943Y85280D01*
X71956Y85267D01*
Y85254D01*
Y85203D01*
Y85165D01*
X71968Y85114D01*
Y85101D01*
X71981Y85025D01*
Y84948D01*
Y84885D01*
Y84872D01*
Y84859D01*
Y84744D01*
X71968Y84668D01*
Y84604D01*
Y84591D01*
X71956Y84527D01*
Y84477D01*
Y84451D01*
Y84438D01*
X71943Y84400D01*
Y84387D01*
Y84374D01*
X71930Y84349D01*
Y84336D01*
X71917Y84311D01*
Y84298D01*
X71904Y84272D01*
X71892Y84260D01*
X71841Y84183D01*
X71828Y84158D01*
X71815Y84145D01*
X71726Y84081D01*
X71701Y84056D01*
X71688Y84043D01*
X71586Y83992D01*
X71548Y83979D01*
X71535D01*
X71471Y83966D01*
X71407Y83954D01*
X71267D01*
X71203Y83966D01*
X71165Y83979D01*
X71152D01*
X71088Y84005D01*
X71038Y84017D01*
X71012Y84043D01*
X70999D01*
X70948Y84081D01*
X70910Y84119D01*
X70885Y84132D01*
X70872Y84145D01*
X70808Y84222D01*
X70795Y84247D01*
Y84260D01*
X70770Y84311D01*
X70757Y84336D01*
X70732Y84413D01*
X70719Y84425D01*
Y84438D01*
Y84489D01*
Y84540D01*
Y84579D01*
Y84591D01*
X70706Y84680D01*
Y84770D01*
Y84834D01*
Y84846D01*
Y84859D01*
Y84961D01*
Y85037D01*
X70719Y85088D01*
Y85101D01*
Y85165D01*
Y85216D01*
Y85242D01*
Y85254D01*
X70744Y85318D01*
X70757Y85343D01*
X70783Y85407D01*
X70795Y85433D01*
X70846Y85509D01*
X70859Y85535D01*
X70872Y85548D01*
X70948Y85624D01*
X70986Y85637D01*
X70999Y85650D01*
X71050Y85688D01*
X71101Y85701D01*
X71140Y85713D01*
X71152D01*
X71216Y85726D01*
X71280Y85739D01*
X71420D01*
X71471Y85726D01*
D02*
G37*
G36*
X60723Y85726D02*
X60786Y85713D01*
X60799Y85701D01*
X60863Y85675D01*
X60927Y85650D01*
X60965Y85624D01*
X60978Y85611D01*
X61029Y85548D01*
X61067Y85496D01*
X61080Y85458D01*
X61093Y85445D01*
X61105Y85369D01*
X61118Y85305D01*
Y85254D01*
Y85229D01*
Y85165D01*
X61105Y85101D01*
X61093Y85063D01*
Y85050D01*
X61067Y84999D01*
X61041Y84948D01*
X61016Y84923D01*
X61003Y84910D01*
X60965Y84859D01*
X60914Y84821D01*
X60876Y84795D01*
X60863Y84782D01*
X60799Y84757D01*
X60723Y84744D01*
X60672Y84732D01*
X60659D01*
X60583Y84719D01*
X60557Y84706D01*
X60430D01*
X60353Y84680D01*
X60289Y84655D01*
X60264Y84629D01*
X60251Y84617D01*
X60225Y84566D01*
X60200Y84515D01*
Y84477D01*
Y84464D01*
X60213Y84374D01*
X60238Y84324D01*
X60277Y84285D01*
X60289Y84272D01*
X60366Y84247D01*
X60442Y84234D01*
X60519Y84222D01*
X60544D01*
X60646Y84234D01*
X60735Y84247D01*
X60799Y84260D01*
X60825D01*
X60901Y84298D01*
X60978Y84349D01*
X61029Y84387D01*
X61041Y84400D01*
X61220Y84196D01*
X61118Y84107D01*
X61016Y84056D01*
X60940Y84017D01*
X60927Y84005D01*
X60914D01*
X60786Y83979D01*
X60672Y83966D01*
X60621Y83954D01*
X60442D01*
X60340Y83979D01*
X60264Y83992D01*
X60200Y84017D01*
X60149Y84043D01*
X60111Y84056D01*
X60098Y84081D01*
X60085D01*
X60034Y84132D01*
X59996Y84196D01*
X59945Y84324D01*
Y84374D01*
X59932Y84425D01*
Y84451D01*
Y84464D01*
Y84527D01*
X59945Y84579D01*
X59958Y84617D01*
Y84629D01*
X59983Y84693D01*
X60009Y84744D01*
X60034Y84782D01*
X60047Y84795D01*
X60098Y84846D01*
X60136Y84885D01*
X60187Y84897D01*
X60200Y84910D01*
X60277Y84948D01*
X60340Y84961D01*
X60391Y84974D01*
X60532D01*
X60583Y84987D01*
X60595Y84999D01*
X60608D01*
X60659Y85012D01*
X60697D01*
X60723Y85025D01*
X60735D01*
X60786Y85063D01*
X60799Y85076D01*
X60825Y85140D01*
X60838Y85152D01*
X60850Y85203D01*
Y85229D01*
X60838Y85305D01*
Y85318D01*
Y85331D01*
X60812Y85369D01*
X60799Y85395D01*
X60774Y85420D01*
X60710Y85445D01*
X60697Y85458D01*
X60685D01*
X60595Y85484D01*
X60557D01*
X60480Y85471D01*
X60404Y85458D01*
X60353Y85445D01*
X60340Y85433D01*
X60264Y85407D01*
X60187Y85369D01*
X60136Y85343D01*
X60123Y85331D01*
X59983Y85560D01*
X60072Y85624D01*
X60149Y85662D01*
X60213Y85675D01*
X60225Y85688D01*
X60238D01*
X60340Y85713D01*
X60442Y85739D01*
X60646D01*
X60723Y85726D01*
D02*
G37*
G36*
X84820Y93095D02*
X84578Y92802D01*
X84361Y92509D01*
X84183Y92229D01*
X84043Y91974D01*
X83928Y91744D01*
X83877Y91655D01*
X83838Y91566D01*
X83813Y91502D01*
X83788Y91451D01*
X83775Y91425D01*
Y91413D01*
X83647Y91068D01*
X83558Y90724D01*
X83482Y90405D01*
X83430Y90125D01*
X83418Y89997D01*
X83392Y89882D01*
Y89780D01*
X83380Y89691D01*
X83367Y89615D01*
Y89564D01*
Y89538D01*
Y89526D01*
Y89169D01*
X83380Y88837D01*
X83418Y88506D01*
X83456Y88225D01*
X83482Y88098D01*
X83507Y87983D01*
X83533Y87881D01*
X83558Y87792D01*
X83571Y87715D01*
X83583Y87664D01*
X83596Y87638D01*
Y87626D01*
X83711Y87269D01*
X83838Y86950D01*
X83991Y86644D01*
X84132Y86376D01*
X84196Y86261D01*
X84259Y86159D01*
X84310Y86058D01*
X84361Y85981D01*
X84399Y85930D01*
X84438Y85879D01*
X84451Y85853D01*
X84463Y85841D01*
X84693Y85535D01*
X84935Y85267D01*
X85177Y85037D01*
X85394Y84834D01*
X85585Y84668D01*
X85675Y84604D01*
X85738Y84553D01*
X85802Y84502D01*
X85840Y84477D01*
X85866Y84464D01*
X85878Y84451D01*
X86185Y84260D01*
X86490Y84081D01*
X86784Y83941D01*
X87051Y83826D01*
X87281Y83737D01*
X87370Y83699D01*
X87459Y83673D01*
X87523Y83648D01*
X87574Y83635D01*
X87600Y83622D01*
X87612D01*
X87957Y83533D01*
X88301Y83482D01*
X88633Y83444D01*
X88913Y83418D01*
X89525D01*
X89895Y83456D01*
X90239Y83508D01*
X90570Y83584D01*
X90864Y83673D01*
X90991Y83711D01*
X91106Y83750D01*
X91208Y83775D01*
X91297Y83814D01*
X91374Y83839D01*
X91425Y83864D01*
X91450Y83877D01*
X91463D01*
X91565Y83609D01*
X91144Y83456D01*
X90953Y83393D01*
X90775Y83342D01*
X90622Y83303D01*
X90507Y83278D01*
X90430Y83253D01*
X90405D01*
X90175Y83214D01*
X89959Y83189D01*
X89767Y83163D01*
X89576Y83151D01*
X89423D01*
X89308Y83138D01*
X89206D01*
X88900Y83151D01*
X88760D01*
X88645Y83163D01*
X88543Y83176D01*
X88454D01*
X88403Y83189D01*
X88390D01*
X88084Y83240D01*
X87957Y83265D01*
X87829Y83291D01*
X87727Y83316D01*
X87638Y83342D01*
X87587Y83355D01*
X87574D01*
X87204Y83469D01*
X86860Y83609D01*
X86541Y83750D01*
X86261Y83890D01*
X86146Y83954D01*
X86032Y84017D01*
X85942Y84081D01*
X85866Y84132D01*
X85802Y84171D01*
X85751Y84196D01*
X85725Y84222D01*
X85713D01*
X85394Y84451D01*
X85114Y84706D01*
X84859Y84948D01*
X84642Y85178D01*
X84476Y85369D01*
X84399Y85458D01*
X84348Y85535D01*
X84298Y85598D01*
X84259Y85637D01*
X84246Y85662D01*
X84234Y85675D01*
X84017Y85994D01*
X83838Y86325D01*
X83685Y86631D01*
X83558Y86912D01*
X83507Y87039D01*
X83469Y87167D01*
X83430Y87269D01*
X83392Y87358D01*
X83367Y87422D01*
X83354Y87485D01*
X83341Y87511D01*
Y87524D01*
X83252Y87906D01*
X83175Y88276D01*
X83137Y88620D01*
X83112Y88926D01*
X83099Y89066D01*
Y89194D01*
Y89309D01*
Y89398D01*
Y89474D01*
Y89526D01*
Y89564D01*
Y89577D01*
X83137Y89959D01*
X83188Y90329D01*
X83265Y90660D01*
X83341Y90953D01*
X83380Y91094D01*
X83418Y91208D01*
X83456Y91311D01*
X83482Y91400D01*
X83507Y91476D01*
X83533Y91527D01*
X83545Y91553D01*
Y91566D01*
X83698Y91910D01*
X83877Y92241D01*
X84043Y92535D01*
X84221Y92790D01*
X84298Y92892D01*
X84374Y92993D01*
X84438Y93083D01*
X84489Y93147D01*
X84540Y93210D01*
X84578Y93248D01*
X84591Y93274D01*
X84604Y93287D01*
X84820Y93095D01*
D02*
G37*
G36*
X83966Y95697D02*
X84374Y95365D01*
X84744Y95059D01*
X84922Y94919D01*
X85088Y94791D01*
X85241Y94664D01*
X85369Y94549D01*
X85496Y94460D01*
X85598Y94371D01*
X85675Y94307D01*
X85738Y94256D01*
X85777Y94230D01*
X85789Y94217D01*
X86197Y93873D01*
X86605Y93542D01*
X86988Y93236D01*
X87154Y93083D01*
X87319Y92955D01*
X87472Y92828D01*
X87612Y92713D01*
X87727Y92611D01*
X87829Y92535D01*
X87906Y92458D01*
X87969Y92407D01*
X88008Y92382D01*
X88020Y92369D01*
X88441Y92024D01*
X88849Y91693D01*
X89232Y91387D01*
X89410Y91247D01*
X89563Y91119D01*
X89716Y90992D01*
X89856Y90877D01*
X89984Y90788D01*
X90086Y90698D01*
X90162Y90635D01*
X90226Y90584D01*
X90264Y90558D01*
X90277Y90545D01*
X90698Y90201D01*
X91106Y89870D01*
X91488Y89564D01*
X91667Y89411D01*
X91833Y89283D01*
X91986Y89156D01*
X92126Y89041D01*
X92254Y88939D01*
X92356Y88863D01*
X92432Y88786D01*
X92496Y88735D01*
X92534Y88709D01*
X92547Y88697D01*
X92317Y88620D01*
X92088Y88544D01*
X91884Y88467D01*
X91705Y88403D01*
X91540Y88353D01*
X91425Y88314D01*
X91348Y88289D01*
X91335Y88276D01*
X91323D01*
X91093Y88200D01*
X90877Y88136D01*
X90672Y88059D01*
X90481Y87995D01*
X90328Y87945D01*
X90201Y87906D01*
X90124Y87881D01*
X90112Y87868D01*
X90099D01*
X90239Y87690D01*
X90367Y87537D01*
X90417Y87473D01*
X90456Y87435D01*
X90481Y87409D01*
X90494Y87396D01*
X90647Y87243D01*
X90762Y87116D01*
X90813Y87052D01*
X90851Y87014D01*
X90877Y86988D01*
X90889Y86976D01*
X91080Y86772D01*
X91272Y86567D01*
X91450Y86389D01*
X91603Y86223D01*
X91731Y86083D01*
X91833Y85968D01*
X91896Y85905D01*
X91922Y85892D01*
Y85879D01*
X92113Y85675D01*
X92304Y85471D01*
X92483Y85280D01*
X92636Y85114D01*
X92764Y84974D01*
X92866Y84859D01*
X92929Y84795D01*
X92955Y84782D01*
Y84770D01*
X93146Y84566D01*
X93325Y84362D01*
X93503Y84183D01*
X93656Y84017D01*
X93783Y83877D01*
X93885Y83763D01*
X93949Y83699D01*
X93975Y83686D01*
Y83673D01*
X94166Y83469D01*
X94357Y83265D01*
X94536Y83074D01*
X94689Y82908D01*
X94816Y82768D01*
X94918Y82653D01*
X94982Y82590D01*
X95007Y82577D01*
Y82564D01*
X95059Y82526D01*
X95097Y82487D01*
X95148Y82462D01*
X95161Y82449D01*
X95211Y82398D01*
X95224Y82360D01*
X95211Y82322D01*
Y82309D01*
X95199Y82296D01*
X95186Y82284D01*
X95148Y82296D01*
X95109Y82309D01*
X95097Y82322D01*
X95033Y82373D01*
X94982Y82424D01*
X94956Y82449D01*
X94944Y82462D01*
X94523Y82768D01*
X94115Y83074D01*
X93733Y83355D01*
X93554Y83495D01*
X93388Y83609D01*
X93235Y83724D01*
X93108Y83826D01*
X92980Y83928D01*
X92878Y84005D01*
X92802Y84056D01*
X92738Y84107D01*
X92700Y84132D01*
X92687Y84145D01*
X92266Y84464D01*
X91858Y84770D01*
X91488Y85050D01*
X91310Y85178D01*
X91144Y85305D01*
X90991Y85420D01*
X90851Y85522D01*
X90736Y85611D01*
X90634Y85688D01*
X90558Y85751D01*
X90494Y85790D01*
X90456Y85815D01*
X90443Y85828D01*
X90022Y86147D01*
X89614Y86453D01*
X89232Y86746D01*
X89053Y86874D01*
X88900Y87001D01*
X88747Y87116D01*
X88607Y87218D01*
X88492Y87307D01*
X88390Y87384D01*
X88314Y87435D01*
X88250Y87485D01*
X88212Y87511D01*
X88199Y87524D01*
X87778Y87843D01*
X87370Y88148D01*
X86988Y88442D01*
X86809Y88569D01*
X86643Y88697D01*
X86490Y88811D01*
X86350Y88914D01*
X86223Y89003D01*
X86121Y89079D01*
X86044Y89130D01*
X85980Y89181D01*
X85942Y89207D01*
X85930Y89219D01*
X85866Y89271D01*
X85815Y89322D01*
X85777Y89347D01*
X85764Y89360D01*
X85700Y89411D01*
X85636Y89449D01*
X85585Y89487D01*
X85572Y89500D01*
X85853Y89577D01*
X86133Y89653D01*
X86388Y89717D01*
X86605Y89780D01*
X86796Y89819D01*
X86886Y89844D01*
X86949Y89857D01*
X87001Y89882D01*
X87039D01*
X87064Y89895D01*
X87077D01*
X87357Y89972D01*
X87625Y90048D01*
X87867Y90112D01*
X88097Y90176D01*
X88288Y90227D01*
X88377Y90252D01*
X88441Y90265D01*
X88492Y90278D01*
X88530Y90290D01*
X88556Y90303D01*
X88569D01*
X88327Y90571D01*
X88097Y90826D01*
X87880Y91068D01*
X87689Y91285D01*
X87523Y91464D01*
X87396Y91604D01*
X87357Y91655D01*
X87319Y91693D01*
X87306Y91706D01*
X87294Y91719D01*
X87051Y91986D01*
X86822Y92241D01*
X86605Y92484D01*
X86414Y92700D01*
X86248Y92879D01*
X86121Y93019D01*
X86083Y93070D01*
X86044Y93108D01*
X86032Y93121D01*
X86019Y93134D01*
X85789Y93401D01*
X85560Y93656D01*
X85343Y93899D01*
X85164Y94116D01*
X84999Y94294D01*
X84871Y94434D01*
X84833Y94485D01*
X84795Y94524D01*
X84782Y94536D01*
X84769Y94549D01*
X84527Y94817D01*
X84298Y95072D01*
X84093Y95314D01*
X83902Y95531D01*
X83736Y95709D01*
X83609Y95850D01*
X83571Y95900D01*
X83533Y95939D01*
X83520Y95951D01*
X83507Y95964D01*
X83520Y95977D01*
X83533Y95990D01*
X83545Y96028D01*
Y96041D01*
X83966Y95697D01*
D02*
G37*
%LPC*%
G36*
X49477Y90928D02*
X49401D01*
X49235Y90915D01*
X49095Y90890D01*
X48967Y90839D01*
X48878Y90800D01*
X48801Y90750D01*
X48738Y90698D01*
X48712Y90673D01*
X48700Y90660D01*
X48623Y90545D01*
X48559Y90418D01*
X48521Y90290D01*
X48483Y90163D01*
X48470Y90035D01*
X48457Y89946D01*
Y89882D01*
Y89857D01*
X48470Y89666D01*
X48496Y89500D01*
X48534Y89360D01*
X48572Y89245D01*
X48623Y89156D01*
X48661Y89092D01*
X48687Y89054D01*
X48700Y89041D01*
X48789Y88952D01*
X48904Y88875D01*
X49018Y88824D01*
X49133Y88799D01*
X49235Y88773D01*
X49324Y88761D01*
X49401D01*
X49567Y88773D01*
X49720Y88799D01*
X49847Y88850D01*
X49949Y88901D01*
X50025Y88952D01*
X50077Y89003D01*
X50115Y89028D01*
X50128Y89041D01*
X50204Y89156D01*
X50268Y89283D01*
X50306Y89424D01*
X50344Y89551D01*
X50357Y89679D01*
X50370Y89768D01*
Y89832D01*
Y89857D01*
X50357Y90048D01*
X50331Y90214D01*
X50293Y90342D01*
X50242Y90456D01*
X50204Y90545D01*
X50166Y90609D01*
X50140Y90648D01*
X50128Y90660D01*
X50025Y90750D01*
X49911Y90813D01*
X49796Y90864D01*
X49668Y90890D01*
X49567Y90915D01*
X49477Y90928D01*
D02*
G37*
G36*
X70017Y85496D02*
X69507D01*
X69495Y85484D01*
X69482D01*
X69444Y85471D01*
X69418Y85458D01*
X69393Y85445D01*
X69354Y85420D01*
X69342Y85382D01*
X69329Y85369D01*
Y85356D01*
X69304Y85280D01*
Y85254D01*
Y85242D01*
X69316Y85165D01*
X69329Y85140D01*
Y85127D01*
X69354Y85063D01*
X69367Y85050D01*
X69380Y85037D01*
X69406Y85012D01*
X69431Y84987D01*
X69456Y84974D01*
X69469D01*
X69559Y84961D01*
X70017D01*
Y85496D01*
D02*
G37*
G36*
X62852Y85369D02*
X62597Y84591D01*
X63120D01*
X62852Y85369D01*
D02*
G37*
G36*
X58951D02*
X58696Y84591D01*
X59206D01*
X58951Y85369D01*
D02*
G37*
G36*
X47986Y85496D02*
X47488D01*
X47475Y85484D01*
X47463D01*
X47386Y85458D01*
X47374Y85445D01*
X47361D01*
X47322Y85382D01*
X47310Y85369D01*
Y85356D01*
X47284Y85280D01*
Y85254D01*
Y85242D01*
Y85165D01*
X47297Y85140D01*
Y85127D01*
X47322Y85063D01*
X47335Y85050D01*
X47348Y85037D01*
X47412Y84987D01*
X47437Y84974D01*
X47450D01*
X47526Y84961D01*
X47986D01*
Y85496D01*
D02*
G37*
G36*
X71343Y85484D02*
X71280Y85471D01*
X71254Y85458D01*
X71191D01*
X71178Y85445D01*
X71127Y85407D01*
X71114Y85395D01*
X71088Y85369D01*
X71076Y85356D01*
X71050Y85305D01*
X71038Y85293D01*
Y85280D01*
X71012Y85229D01*
X70999Y85216D01*
Y85203D01*
Y85165D01*
Y85114D01*
Y85076D01*
Y85063D01*
X70986Y84999D01*
Y84923D01*
Y84885D01*
Y84859D01*
Y84770D01*
Y84693D01*
X70999Y84642D01*
Y84629D01*
Y84566D01*
Y84527D01*
Y84502D01*
Y84489D01*
X71025Y84438D01*
X71038Y84425D01*
Y84413D01*
X71063Y84362D01*
X71076Y84349D01*
Y84336D01*
X71101Y84298D01*
X71114Y84285D01*
X71152Y84272D01*
X71165Y84260D01*
X71178D01*
X71229Y84234D01*
X71241Y84222D01*
X71433D01*
X71484Y84247D01*
X71509Y84260D01*
X71560Y84272D01*
X71573Y84285D01*
X71599Y84324D01*
X71611Y84336D01*
X71649Y84387D01*
X71662Y84413D01*
X71675Y84464D01*
X71688Y84489D01*
Y84527D01*
Y84579D01*
X71701Y84617D01*
Y84629D01*
Y84706D01*
Y84782D01*
Y84834D01*
Y84859D01*
Y84935D01*
Y84999D01*
Y85050D01*
Y85063D01*
X71688Y85127D01*
Y85178D01*
Y85190D01*
Y85203D01*
X71675Y85254D01*
X71662Y85280D01*
X71624Y85331D01*
X71611Y85356D01*
X71586Y85382D01*
X71573Y85395D01*
X71535Y85433D01*
X71509Y85445D01*
X71458Y85458D01*
X71433D01*
X71369Y85471D01*
X71343Y85484D01*
D02*
G37*
%LPD*%
D11*
X80315Y82045D02*
Y78896D01*
X78741D01*
X78216Y79421D01*
Y79946D01*
X78741Y80471D01*
X80315D01*
X78741D01*
X78216Y80996D01*
Y81520D01*
X78741Y82045D01*
X80315D01*
X75592D02*
X76642D01*
X77166Y81520D01*
Y79421D01*
X76642Y78896D01*
X75592D01*
X75067Y79421D01*
Y81520D01*
X75592Y82045D01*
X74018D02*
X71919D01*
X72968D01*
Y78896D01*
X68770Y81520D02*
X69295Y82045D01*
X70344D01*
X70869Y81520D01*
Y80996D01*
X70344Y80471D01*
X69295D01*
X68770Y79946D01*
Y79421D01*
X69295Y78896D01*
X70344D01*
X70869Y79421D01*
X80315Y73228D02*
Y76377D01*
X78741D01*
X78216Y75852D01*
Y74803D01*
X78741Y74278D01*
X80315D01*
X79265D02*
X78216Y73228D01*
X75067Y76377D02*
X77166D01*
Y73228D01*
X75067D01*
X77166Y74803D02*
X76117D01*
X74018Y76377D02*
Y74278D01*
X72968Y73228D01*
X71919Y74278D01*
Y76377D01*
X67721Y75852D02*
X67196Y76377D01*
X66146D01*
X65622Y75852D01*
Y73753D01*
X66146Y73228D01*
X67196D01*
X67721Y73753D01*
Y75852D01*
X59520Y5434D02*
X60570D01*
X60045D01*
Y2810D01*
X60570Y2285D01*
X61095D01*
X61619Y2810D01*
X58471Y2285D02*
X57421D01*
X57946D01*
Y5434D01*
X58471Y4909D01*
X45030Y96820D02*
X46079D01*
X45554D01*
Y94196D01*
X46079Y93671D01*
X46604D01*
X47129Y94196D01*
X41881Y93671D02*
X43980D01*
X41881Y95770D01*
Y96295D01*
X42406Y96820D01*
X43455D01*
X43980Y96295D01*
X95240Y76910D02*
Y73761D01*
Y74811D01*
X93141Y76910D01*
X94715Y75336D01*
X93141Y73761D01*
X92092D02*
X91042D01*
X91567D01*
Y76910D01*
X92092Y76385D01*
D31*
X-885Y16142D02*
Y71260D01*
Y16142D02*
X98327D01*
Y71260D01*
X-885D02*
X98327D01*
M02*
