G04*
G04 #@! TF.GenerationSoftware,Altium Limited,Altium Designer,18.1.11 (251)*
G04*
G04 Layer_Color=65535*
%FSLAX25Y25*%
%MOIN*%
G70*
G01*
G75*
%ADD10C,0.00984*%
%ADD11C,0.00787*%
%ADD12C,0.00197*%
G36*
X21481Y18777D02*
X21539Y18773D01*
X21590Y18766D01*
X21630Y18758D01*
X21659Y18751D01*
X21677Y18747D01*
X21685Y18744D01*
X21739Y18729D01*
X21787Y18711D01*
X21834Y18689D01*
X21870Y18671D01*
X21899Y18653D01*
X21925Y18638D01*
X21939Y18627D01*
X21943Y18624D01*
X21976Y18587D01*
X22005Y18547D01*
X22027Y18507D01*
X22041Y18471D01*
X22052Y18434D01*
X22063Y18405D01*
X22067Y18387D01*
Y18383D01*
Y18380D01*
X22074Y18318D01*
Y18252D01*
X22071Y18191D01*
X22063Y18129D01*
X22052Y18074D01*
X22045Y18034D01*
X22041Y18016D01*
Y18005D01*
X22038Y17998D01*
Y17994D01*
X21623Y16345D01*
X21594Y16265D01*
X21557Y16192D01*
X21514Y16127D01*
X21466Y16072D01*
X21423Y16028D01*
X21386Y15996D01*
X21372Y15985D01*
X21364Y15977D01*
X21357Y15974D01*
X21353Y15970D01*
X21273Y15919D01*
X21193Y15883D01*
X21113Y15857D01*
X21044Y15839D01*
X20982Y15828D01*
X20957Y15824D01*
X20935D01*
X20917Y15821D01*
X20414D01*
X20891Y17725D01*
X20906Y17786D01*
X20909Y17837D01*
Y17881D01*
X20906Y17918D01*
X20898Y17943D01*
X20891Y17965D01*
X20888Y17976D01*
X20884Y17979D01*
X20862Y18009D01*
X20829Y18027D01*
X20797Y18041D01*
X20760Y18052D01*
X20727Y18059D01*
X20702Y18063D01*
X20676D01*
X20618Y18059D01*
X20567Y18048D01*
X20520Y18038D01*
X20483Y18023D01*
X20451Y18005D01*
X20429Y17994D01*
X20414Y17983D01*
X20411Y17979D01*
X20374Y17943D01*
X20345Y17903D01*
X20320Y17863D01*
X20301Y17819D01*
X20283Y17783D01*
X20272Y17754D01*
X20269Y17732D01*
X20265Y17728D01*
Y17725D01*
X19788Y15821D01*
X18714D01*
X19188Y17721D01*
X19202Y17783D01*
X19209Y17834D01*
Y17881D01*
X19206Y17918D01*
X19199Y17943D01*
X19191Y17965D01*
X19188Y17976D01*
X19184Y17979D01*
X19159Y18009D01*
X19129Y18027D01*
X19093Y18041D01*
X19057Y18052D01*
X19024Y18059D01*
X18998Y18063D01*
X18973D01*
X18918Y18059D01*
X18867Y18048D01*
X18824Y18038D01*
X18787Y18023D01*
X18758Y18005D01*
X18736Y17994D01*
X18722Y17983D01*
X18718Y17979D01*
X18682Y17943D01*
X18653Y17903D01*
X18627Y17863D01*
X18609Y17819D01*
X18594Y17783D01*
X18583Y17754D01*
X18580Y17732D01*
X18576Y17728D01*
Y17725D01*
X18096Y15821D01*
X17022D01*
X17743Y18704D01*
X18827D01*
X18744Y18354D01*
X18755D01*
X18820Y18431D01*
X18886Y18496D01*
X18955Y18551D01*
X19017Y18595D01*
X19071Y18631D01*
X19093Y18645D01*
X19111Y18656D01*
X19129Y18664D01*
X19140Y18671D01*
X19148Y18675D01*
X19151D01*
X19239Y18711D01*
X19330Y18736D01*
X19417Y18758D01*
X19501Y18769D01*
X19537Y18777D01*
X19570D01*
X19599Y18780D01*
X19624Y18784D01*
X19737D01*
X19795Y18780D01*
X19847Y18777D01*
X19890Y18769D01*
X19927Y18766D01*
X19952Y18758D01*
X19967Y18755D01*
X19974D01*
X20021Y18744D01*
X20061Y18733D01*
X20098Y18718D01*
X20130Y18704D01*
X20156Y18693D01*
X20174Y18682D01*
X20185Y18678D01*
X20189Y18675D01*
X20218Y18653D01*
X20243Y18627D01*
X20269Y18606D01*
X20287Y18584D01*
X20301Y18562D01*
X20312Y18547D01*
X20316Y18536D01*
X20320Y18533D01*
X20352Y18467D01*
X20367Y18434D01*
X20378Y18402D01*
X20385Y18376D01*
X20392Y18354D01*
X20396Y18340D01*
Y18336D01*
X20433Y18380D01*
X20469Y18420D01*
X20502Y18456D01*
X20534Y18489D01*
X20564Y18515D01*
X20585Y18533D01*
X20600Y18544D01*
X20604Y18547D01*
X20647Y18580D01*
X20691Y18606D01*
X20731Y18627D01*
X20767Y18649D01*
X20800Y18664D01*
X20826Y18675D01*
X20840Y18678D01*
X20847Y18682D01*
X20938Y18715D01*
X20978Y18729D01*
X21019Y18740D01*
X21048Y18747D01*
X21073Y18755D01*
X21091Y18758D01*
X21095D01*
X21186Y18773D01*
X21230Y18777D01*
X21270Y18780D01*
X21303Y18784D01*
X21419D01*
X21481Y18777D01*
D02*
G37*
G36*
X16490Y15817D02*
X15420D01*
X15504Y16163D01*
X15489D01*
X15424Y16090D01*
X15358Y16028D01*
X15293Y15974D01*
X15231Y15930D01*
X15176Y15897D01*
X15155Y15883D01*
X15136Y15872D01*
X15118Y15865D01*
X15107Y15857D01*
X15100Y15854D01*
X15096D01*
X15009Y15817D01*
X14922Y15792D01*
X14834Y15774D01*
X14754Y15763D01*
X14718Y15755D01*
X14685D01*
X14652Y15752D01*
X14630Y15748D01*
X14510D01*
X14448Y15752D01*
X14390Y15759D01*
X14343Y15766D01*
X14303Y15774D01*
X14274Y15777D01*
X14255Y15785D01*
X14248D01*
X14197Y15803D01*
X14150Y15821D01*
X14110Y15843D01*
X14073Y15865D01*
X14048Y15883D01*
X14026Y15897D01*
X14012Y15908D01*
X14008Y15912D01*
X13972Y15945D01*
X13939Y15981D01*
X13917Y16017D01*
X13899Y16054D01*
X13884Y16090D01*
X13877Y16116D01*
X13870Y16134D01*
Y16141D01*
X13862Y16203D01*
Y16265D01*
X13866Y16327D01*
X13873Y16389D01*
X13884Y16440D01*
X13891Y16483D01*
X13895Y16498D01*
Y16509D01*
X13899Y16516D01*
Y16520D01*
X14445Y18704D01*
X15518D01*
X15042Y16796D01*
X15031Y16735D01*
X15023Y16683D01*
Y16640D01*
X15031Y16603D01*
X15034Y16574D01*
X15042Y16556D01*
X15045Y16542D01*
X15049Y16538D01*
X15074Y16509D01*
X15104Y16487D01*
X15136Y16472D01*
X15173Y16462D01*
X15202Y16454D01*
X15227Y16451D01*
X15253D01*
X15311Y16454D01*
X15362Y16465D01*
X15406Y16480D01*
X15442Y16494D01*
X15471Y16509D01*
X15493Y16523D01*
X15508Y16534D01*
X15511Y16538D01*
X15548Y16574D01*
X15577Y16614D01*
X15602Y16658D01*
X15624Y16702D01*
X15639Y16738D01*
X15650Y16767D01*
X15653Y16789D01*
X15657Y16793D01*
Y16796D01*
X16137Y18704D01*
X17211D01*
X16490Y15817D01*
D02*
G37*
G36*
X13233D02*
X12159D01*
X12879Y18704D01*
X13957D01*
X13233Y15817D01*
D02*
G37*
G36*
X9724D02*
X8646D01*
X9604Y19625D01*
X10677D01*
X9724Y15817D01*
D02*
G37*
G36*
X8421D02*
X7179D01*
X7216Y16480D01*
X6291D01*
X6000Y15821D01*
X4762Y15817D01*
X6397Y18868D01*
X6433Y18929D01*
X6473Y18984D01*
X6513Y19039D01*
X6546Y19082D01*
X6579Y19119D01*
X6600Y19148D01*
X6615Y19162D01*
X6622Y19170D01*
X6673Y19221D01*
X6724Y19264D01*
X6772Y19304D01*
X6815Y19341D01*
X6855Y19366D01*
X6884Y19388D01*
X6903Y19403D01*
X6910Y19406D01*
X6972Y19443D01*
X7030Y19472D01*
X7088Y19501D01*
X7143Y19523D01*
X7187Y19541D01*
X7223Y19552D01*
X7234Y19556D01*
X7245Y19559D01*
X7248Y19563D01*
X7252D01*
X7321Y19581D01*
X7390Y19595D01*
X7456Y19606D01*
X7514Y19614D01*
X7565Y19621D01*
X7605D01*
X7620Y19625D01*
X8279D01*
X8421Y15817D01*
D02*
G37*
G36*
X12031Y18704D02*
X12483D01*
X12323Y18056D01*
X11871D01*
X11529Y16683D01*
X11522Y16644D01*
Y16607D01*
Y16578D01*
X11529Y16553D01*
X11536Y16534D01*
X11544Y16520D01*
X11547Y16512D01*
X11551Y16509D01*
X11576Y16491D01*
X11602Y16476D01*
X11635Y16469D01*
X11667Y16462D01*
X11697Y16458D01*
X11922D01*
X11762Y15817D01*
X11700Y15814D01*
X11642Y15810D01*
X11591Y15806D01*
X11544Y15803D01*
X11504D01*
X11471Y15799D01*
X11445D01*
X11391Y15795D01*
X11285D01*
X11242Y15792D01*
X11063D01*
X10983Y15795D01*
X10914Y15799D01*
X10852Y15806D01*
X10805Y15810D01*
X10768Y15817D01*
X10746Y15821D01*
X10739D01*
X10681Y15835D01*
X10630Y15850D01*
X10586Y15868D01*
X10550Y15883D01*
X10521Y15897D01*
X10503Y15908D01*
X10488Y15915D01*
X10484Y15919D01*
X10452Y15948D01*
X10426Y15981D01*
X10404Y16017D01*
X10390Y16050D01*
X10379Y16083D01*
X10372Y16108D01*
X10368Y16127D01*
Y16134D01*
X10364Y16192D01*
X10368Y16258D01*
X10375Y16319D01*
X10386Y16381D01*
X10393Y16436D01*
X10404Y16476D01*
X10408Y16494D01*
Y16505D01*
X10412Y16512D01*
Y16516D01*
X11187Y19585D01*
X12264D01*
X12031Y18704D01*
D02*
G37*
%LPC*%
G36*
X7347Y18795D02*
X6611Y17208D01*
X7256D01*
X7347Y18795D01*
D02*
G37*
%LPD*%
D10*
X74213Y88426D02*
G03*
X74213Y88426I-492J0D01*
G01*
X2658Y31851D02*
G03*
X2658Y31851I-492J0D01*
G01*
X5511Y64744D02*
G03*
X5511Y64744I-492J0D01*
G01*
D11*
X81103Y75473D02*
Y78524D01*
X77166Y75473D02*
X81103D01*
Y84233D02*
Y87284D01*
X77166D02*
X81103D01*
X493Y34410D02*
Y53308D01*
X16241Y34410D02*
Y53308D01*
X493Y34410D02*
X2756D01*
X493Y53308D02*
X2756D01*
X13977Y34410D02*
X16241D01*
X13977Y53308D02*
X16241D01*
X14921Y72125D02*
X17972D01*
Y68188D02*
Y72125D01*
X6161D02*
X9212D01*
X6161Y68188D02*
Y72125D01*
X29816Y77664D02*
X27716D01*
Y76090D01*
X28766Y76615D01*
X29291D01*
X29816Y76090D01*
Y75041D01*
X29291Y74516D01*
X28241D01*
X27716Y75041D01*
X30865Y77664D02*
Y75565D01*
X31914Y74516D01*
X32964Y75565D01*
Y77664D01*
X6692Y11022D02*
X5905D01*
X6299D01*
Y9054D01*
X5905Y8660D01*
X5512D01*
X5118Y9054D01*
X7873Y10235D02*
X8660D01*
X9054Y9841D01*
Y8660D01*
X7873D01*
X7480Y9054D01*
X7873Y9448D01*
X9054D01*
X9841Y10235D02*
Y8660D01*
Y9448D01*
X10235Y9841D01*
X10628Y10235D01*
X11022D01*
X12596Y8660D02*
X13383D01*
X13777Y9054D01*
Y9841D01*
X13383Y10235D01*
X12596D01*
X12202Y9841D01*
Y9054D01*
X12596Y8660D01*
X16138Y11022D02*
Y8660D01*
X14957D01*
X14564Y9054D01*
Y9841D01*
X14957Y10235D01*
X16138D01*
X19287Y11022D02*
Y8660D01*
Y9448D01*
X20861Y11022D01*
X19680Y9841D01*
X20861Y8660D01*
X21648Y10235D02*
Y8660D01*
Y9448D01*
X22042Y9841D01*
X22435Y10235D01*
X22829D01*
X24403D02*
X25190D01*
X25584Y9841D01*
Y8660D01*
X24403D01*
X24010Y9054D01*
X24403Y9448D01*
X25584D01*
X26371Y8660D02*
Y10235D01*
X27552D01*
X27945Y9841D01*
Y8660D01*
X29913D02*
X29126D01*
X28732Y9054D01*
Y9841D01*
X29126Y10235D01*
X29913D01*
X30307Y9841D01*
Y9448D01*
X28732D01*
X5118Y3937D02*
Y5511D01*
X5905Y6298D01*
X6692Y5511D01*
Y3937D01*
Y5118D01*
X5118D01*
X7480Y3937D02*
X8267D01*
X7873D01*
Y6298D01*
X7480D01*
X10628Y3937D02*
X9841D01*
X9447Y4331D01*
Y5118D01*
X9841Y5511D01*
X10628D01*
X11022Y5118D01*
Y4724D01*
X9447D01*
X11809Y5511D02*
X13383Y3937D01*
X12596Y4724D01*
X13383Y5511D01*
X11809Y3937D01*
X14170D02*
X14957D01*
X14564D01*
Y5511D01*
X14170D01*
X16138Y3937D02*
X17319D01*
X17713Y4331D01*
X17319Y4724D01*
X16532D01*
X16138Y5118D01*
X16532Y5511D01*
X17713D01*
X20861Y3937D02*
Y6298D01*
X22042D01*
X22435Y5905D01*
Y5118D01*
X22042Y4724D01*
X20861D01*
X21648D02*
X22435Y3937D01*
X23616Y5511D02*
X24403D01*
X24797Y5118D01*
Y3937D01*
X23616D01*
X23223Y4331D01*
X23616Y4724D01*
X24797D01*
X25584Y3937D02*
Y6298D01*
Y4724D02*
X26765Y5511D01*
X25584Y4724D02*
X26765Y3937D01*
X27945Y5511D02*
Y4331D01*
X28339Y3937D01*
X29520D01*
Y5511D01*
X30307Y3937D02*
X31488D01*
X31881Y4331D01*
X31488Y4724D01*
X30700D01*
X30307Y5118D01*
X30700Y5511D01*
X31881D01*
X32668Y6298D02*
Y3937D01*
Y5118D01*
X33062Y5511D01*
X33849D01*
X34242Y5118D01*
Y3937D01*
X92389Y3937D02*
Y4986D01*
Y4462D01*
X89240D01*
X89765Y3937D01*
X92389Y8660D02*
Y6561D01*
X90290Y8660D01*
X89765D01*
X89240Y8135D01*
Y7086D01*
X89765Y6561D01*
X92913Y9709D02*
Y11808D01*
X89240Y14432D02*
Y13383D01*
X89765Y12858D01*
X91864D01*
X92389Y13383D01*
Y14432D01*
X91864Y14957D01*
X89765D01*
X89240Y14432D01*
Y16007D02*
X91864D01*
X92389Y16531D01*
Y17581D01*
X91864Y18106D01*
X89240D01*
Y19155D02*
Y21254D01*
Y20205D01*
X92389D01*
X18429Y77033D02*
X17904Y77558D01*
X16854D01*
X16330Y77033D01*
Y76508D01*
X16854Y75984D01*
X17904D01*
X18429Y75459D01*
Y74934D01*
X17904Y74409D01*
X16854D01*
X16330Y74934D01*
X21577Y77558D02*
X19478D01*
Y74409D01*
X21577D01*
X19478Y75984D02*
X20528D01*
X22627Y77558D02*
X24726D01*
X23676D01*
Y74409D01*
X2494Y77821D02*
X1969Y78345D01*
X919D01*
X395Y77821D01*
Y75722D01*
X919Y75197D01*
X1969D01*
X2494Y75722D01*
Y76771D01*
X1444D01*
X3543Y75197D02*
Y78345D01*
X5642Y75197D01*
Y78345D01*
X6692D02*
Y75197D01*
X8266D01*
X8791Y75722D01*
Y77821D01*
X8266Y78345D01*
X6692D01*
X67192Y4331D02*
Y5380D01*
Y4856D01*
X64043D01*
X64568Y4331D01*
X67192Y9054D02*
Y6955D01*
X65093Y9054D01*
X64568D01*
X64043Y8529D01*
Y7479D01*
X64568Y6955D01*
X67716Y10103D02*
Y12202D01*
X64043Y13252D02*
Y14301D01*
Y13777D01*
X67192D01*
Y13252D01*
Y14301D01*
Y15876D02*
X64043D01*
X67192Y17975D01*
X64043D01*
X39089Y88514D02*
X38564Y89038D01*
X37514D01*
X36990Y88514D01*
Y87989D01*
X37514Y87464D01*
X38564D01*
X39089Y86939D01*
Y86414D01*
X38564Y85890D01*
X37514D01*
X36990Y86414D01*
X40138Y89038D02*
Y85890D01*
X41188Y86939D01*
X42237Y85890D01*
Y89038D01*
X43287Y85890D02*
X44337D01*
X43812D01*
Y89038D01*
X43287Y88514D01*
X82789Y28089D02*
X79641D01*
Y29663D01*
X80166Y30188D01*
X81215D01*
X81740Y29663D01*
Y28089D01*
Y29138D02*
X82789Y30188D01*
Y33337D02*
Y31238D01*
X80690Y33337D01*
X80166D01*
X79641Y32812D01*
Y31762D01*
X80166Y31238D01*
X34647Y90796D02*
Y93945D01*
X36222D01*
X36746Y93420D01*
Y92370D01*
X36222Y91846D01*
X34647D01*
X35697D02*
X36746Y90796D01*
X37796D02*
X38845D01*
X38321D01*
Y93945D01*
X37796Y93420D01*
X89131Y76615D02*
Y78714D01*
X88607Y79239D01*
X87557D01*
X87032Y78714D01*
Y76615D01*
X87557Y76091D01*
X88607D01*
X88082Y77140D02*
X89131Y76091D01*
X88607D02*
X89131Y76615D01*
X92280Y76091D02*
X90181D01*
X92280Y78190D01*
Y78714D01*
X91755Y79239D01*
X90706D01*
X90181Y78714D01*
X22881Y63556D02*
Y65655D01*
X22356Y66180D01*
X21307D01*
X20782Y65655D01*
Y63556D01*
X21307Y63031D01*
X22356D01*
X21831Y64081D02*
X22881Y63031D01*
X22356D02*
X22881Y63556D01*
X23931Y63031D02*
X24980D01*
X24455D01*
Y66180D01*
X23931Y65655D01*
X19873Y37347D02*
Y34198D01*
X21447D01*
X21972Y34723D01*
Y36822D01*
X21447Y37347D01*
X19873D01*
X23022Y36822D02*
X23546Y37347D01*
X24596D01*
X25121Y36822D01*
Y36298D01*
X24596Y35773D01*
X24071D01*
X24596D01*
X25121Y35248D01*
Y34723D01*
X24596Y34198D01*
X23546D01*
X23022Y34723D01*
X79561Y40656D02*
X82709D01*
Y42230D01*
X82185Y42755D01*
X80086D01*
X79561Y42230D01*
Y40656D01*
X82709Y45904D02*
Y43804D01*
X80610Y45904D01*
X80086D01*
X79561Y45379D01*
Y44329D01*
X80086Y43804D01*
X6724Y94173D02*
Y91024D01*
X8299D01*
X8823Y91549D01*
Y93648D01*
X8299Y94173D01*
X6724D01*
X9873Y91024D02*
X10922D01*
X10398D01*
Y94173D01*
X9873Y93648D01*
D12*
X74721Y46751D02*
X77674D01*
X12697Y90846D02*
Y93799D01*
M02*
