M48
;Layer_Color=9474304
;FILE_FORMAT=2:5
INCH,LZ
;TYPE=PLATED
T1F00S00C0.01772
T2F00S00C0.03346
T3F00S00C0.04173
T4F00S00C0.04370
T5F00S00C0.12205
T6F00S00C0.16535
%
T01
X004Y002
X003Y004
X006Y002
X008
X01
X012
X013Y004
X015
X011
X009
X01Y006
X012
X014
X015Y008
X013
X011
X012Y01
X014
X015Y012
X014Y014
X012
X01
X011Y016
X009
X007
X006Y014
Y01
X008
X01
X011Y012
X012Y018
X0113779Y0193701
Y0197244
X0099606Y0201969
X0096063Y0202362
X01Y018
X0144095Y0179528
X0148819Y0190157
X015Y016
X008Y006
X004
X002
X003Y008
X004Y01
X005Y012
Y016
Y02
X002Y014
X0022441Y0283858
X004Y03
Y034
X006
X0081417Y0353031
X0087323
X0102362Y035
X0114961Y0357087
X012Y034
X0096555Y0335728
X0096653Y0331496
X0097638Y0283858
X0105512
X0113386
X012126
X0129134
X0137008
X0144882
X014Y026
X012
X01
X0091063Y0262087
X0087086Y0261889
X0076378Y0261811
X007Y028
X008189Y0283858
X0089764
X0087795Y0234646
X0092106
X0083465
X0068386Y0231102
X0068504Y0238425
X006Y022
X0104724Y0224803
X0118268Y022626
X012Y022
X012874Y0231102
X015Y024
Y032
Y036
X0138976Y0381496
Y0387402
X0138583Y0392913
X013Y04
X015
X011
X0104724Y0409449
X01Y042
X012
X008
X0070768Y0414299
X0064961Y0406299
X0058661
X006Y042
X0064567Y0387402
X01Y038
X0116535Y0377165
X0112205Y0387402
X004Y038
X003Y04
X004Y042
T02
X0030709Y0114961
X0038583
Y0122835
Y0130709
Y0138583
Y0146457
Y0154331
Y0162205
Y0170079
Y0177953
Y0185827
Y0193701
Y0201575
X0030709Y0201575
Y0193701
Y0185827
Y0177953
Y0170079
Y0162205
Y0154331
Y0146457
Y0138583
Y0130709
Y0122835
T03
X0053189Y004311
X0065
Y005689
X0065Y0080512
Y0094291
X0053189
Y0080512
X0053189Y005689
T04
X0041653Y0221142
Y0231142
Y0241142
Y0251142
Y0261142
Y0271142
X0051653
Y0261142
Y0251142
Y0241142
Y0231142
Y0221142
X0050748Y0292559
Y0302559
Y0312559
Y0322559
Y0332559
Y0342559
Y0352559
Y0362559
Y0372559
Y0393819
Y0403819
T05
X0022047Y005
X0022047Y0087402
T06
X0017717Y0017717
X0147638
Y0431102
X0017717
M30
