G04*
G04 #@! TF.GenerationSoftware,Altium Limited,Altium Designer,20.2.6 (244)*
G04*
G04 Layer_Color=16711935*
%FSLAX25Y25*%
%MOIN*%
G70*
G04*
G04 #@! TF.SameCoordinates,3204DEBB-BB28-4794-952D-22BE62C7D567*
G04*
G04*
G04 #@! TF.FilePolarity,Negative*
G04*
G01*
G75*
%ADD39C,0.04528*%
%ADD40C,0.24410*%
%ADD41C,0.07284*%
%ADD42C,0.07382*%
%ADD43R,0.07382X0.07382*%
D39*
X18307Y178701D02*
D03*
Y168858D02*
D03*
Y163937D02*
D03*
Y159016D02*
D03*
Y173779D02*
D03*
X18228Y51850D02*
D03*
Y56772D02*
D03*
X42835Y18228D02*
D03*
X37913D02*
D03*
X262638D02*
D03*
X267559D02*
D03*
X272480D02*
D03*
X18228Y136496D02*
D03*
Y141417D02*
D03*
Y146339D02*
D03*
Y114055D02*
D03*
Y118976D02*
D03*
Y123898D02*
D03*
Y91614D02*
D03*
Y96535D02*
D03*
Y101457D02*
D03*
Y69173D02*
D03*
Y74094D02*
D03*
Y79016D02*
D03*
X65276Y18228D02*
D03*
X60354D02*
D03*
X55433D02*
D03*
X87717D02*
D03*
X82795D02*
D03*
X77874D02*
D03*
X110158D02*
D03*
X105236D02*
D03*
X100315D02*
D03*
X132598D02*
D03*
X127677D02*
D03*
X122756D02*
D03*
X155039D02*
D03*
X150118D02*
D03*
X145197D02*
D03*
X177480D02*
D03*
X172559D02*
D03*
X167638D02*
D03*
X199921Y18228D02*
D03*
X195000D02*
D03*
X190079D02*
D03*
X222362D02*
D03*
X217441D02*
D03*
X212520D02*
D03*
X294921Y18228D02*
D03*
X290000D02*
D03*
X285079D02*
D03*
X317362D02*
D03*
X312441D02*
D03*
X307520D02*
D03*
X339803D02*
D03*
X334882D02*
D03*
X329961D02*
D03*
X328228Y43661D02*
D03*
Y38740D02*
D03*
Y33819D02*
D03*
X328228Y66102D02*
D03*
Y61181D02*
D03*
Y56260D02*
D03*
Y88583D02*
D03*
Y83661D02*
D03*
Y78740D02*
D03*
Y110984D02*
D03*
Y106063D02*
D03*
Y101142D02*
D03*
Y133425D02*
D03*
Y128504D02*
D03*
Y123583D02*
D03*
Y155866D02*
D03*
Y150945D02*
D03*
Y146024D02*
D03*
X328228Y178307D02*
D03*
Y173386D02*
D03*
Y168465D02*
D03*
Y200748D02*
D03*
Y195827D02*
D03*
Y190905D02*
D03*
D40*
X242126Y206693D02*
D03*
Y13780D02*
D03*
X13780D02*
D03*
Y206693D02*
D03*
D41*
X143268Y187638D02*
D03*
Y177638D02*
D03*
X129213Y187638D02*
D03*
Y177638D02*
D03*
D42*
X142953Y201689D02*
D03*
X132953D02*
D03*
X122953D02*
D03*
X112953D02*
D03*
X102953D02*
D03*
X92953D02*
D03*
X82953D02*
D03*
X72953D02*
D03*
X222953D02*
D03*
X212953D02*
D03*
X202953D02*
D03*
X192953D02*
D03*
X182953D02*
D03*
X172953D02*
D03*
X162953D02*
D03*
X152953D02*
D03*
X62953D02*
D03*
X52953D02*
D03*
X42953D02*
D03*
X142953Y211689D02*
D03*
X132953D02*
D03*
X122953D02*
D03*
X112953D02*
D03*
X102953D02*
D03*
X92953D02*
D03*
X82953D02*
D03*
X72953D02*
D03*
X222953D02*
D03*
X212953D02*
D03*
X202953D02*
D03*
X192953D02*
D03*
X182953D02*
D03*
X172953D02*
D03*
X162953D02*
D03*
X152953D02*
D03*
X62953D02*
D03*
X52953D02*
D03*
X42953D02*
D03*
X32953D02*
D03*
D43*
Y201689D02*
D03*
M02*
