G04*
G04 #@! TF.GenerationSoftware,Altium Limited,Altium Designer,20.2.6 (244)*
G04*
G04 Layer_Color=65535*
%FSLAX25Y25*%
%MOIN*%
G70*
G04*
G04 #@! TF.SameCoordinates,16103AC2-7A70-4061-B61C-7C21802C26CC*
G04*
G04*
G04 #@! TF.FilePolarity,Positive*
G04*
G01*
G75*
%ADD10C,0.00984*%
%ADD11C,0.02362*%
%ADD12C,0.00787*%
%ADD13C,0.00197*%
%ADD14C,0.00620*%
G36*
X289182Y188688D02*
X289298Y188680D01*
X289401Y188666D01*
X289481Y188651D01*
X289539Y188637D01*
X289576Y188629D01*
X289590Y188622D01*
X289699Y188593D01*
X289794Y188557D01*
X289889Y188513D01*
X289962Y188476D01*
X290020Y188440D01*
X290071Y188411D01*
X290100Y188389D01*
X290108Y188382D01*
X290173Y188309D01*
X290232Y188228D01*
X290275Y188148D01*
X290304Y188075D01*
X290326Y188003D01*
X290348Y187944D01*
X290355Y187908D01*
Y187900D01*
Y187893D01*
X290370Y187769D01*
Y187638D01*
X290363Y187514D01*
X290348Y187390D01*
X290326Y187281D01*
X290312Y187201D01*
X290304Y187164D01*
Y187142D01*
X290297Y187128D01*
Y187120D01*
X289466Y183818D01*
X289408Y183658D01*
X289335Y183512D01*
X289247Y183381D01*
X289153Y183271D01*
X289065Y183184D01*
X288992Y183118D01*
X288963Y183096D01*
X288948Y183082D01*
X288934Y183074D01*
X288927Y183067D01*
X288766Y182965D01*
X288606Y182892D01*
X288445Y182841D01*
X288307Y182805D01*
X288183Y182783D01*
X288132Y182775D01*
X288088D01*
X288052Y182768D01*
X287046D01*
X288001Y186581D01*
X288030Y186705D01*
X288037Y186807D01*
Y186894D01*
X288030Y186967D01*
X288015Y187018D01*
X288001Y187062D01*
X287994Y187084D01*
X287986Y187091D01*
X287943Y187150D01*
X287877Y187186D01*
X287811Y187215D01*
X287738Y187237D01*
X287673Y187252D01*
X287622Y187259D01*
X287571D01*
X287454Y187252D01*
X287352Y187230D01*
X287257Y187208D01*
X287184Y187179D01*
X287119Y187142D01*
X287075Y187120D01*
X287046Y187099D01*
X287038Y187091D01*
X286966Y187018D01*
X286907Y186938D01*
X286856Y186858D01*
X286820Y186770D01*
X286783Y186698D01*
X286761Y186639D01*
X286754Y186595D01*
X286747Y186588D01*
Y186581D01*
X285792Y182768D01*
X283641Y182768D01*
X284589Y186574D01*
X284618Y186698D01*
X284633Y186800D01*
Y186894D01*
X284626Y186967D01*
X284611Y187018D01*
X284596Y187062D01*
X284589Y187084D01*
X284582Y187091D01*
X284531Y187150D01*
X284472Y187186D01*
X284400Y187215D01*
X284327Y187237D01*
X284261Y187252D01*
X284210Y187259D01*
X284159D01*
X284050Y187252D01*
X283948Y187230D01*
X283860Y187208D01*
X283787Y187179D01*
X283729Y187142D01*
X283685Y187120D01*
X283656Y187099D01*
X283649Y187091D01*
X283576Y187018D01*
X283518Y186938D01*
X283466Y186858D01*
X283430Y186770D01*
X283401Y186698D01*
X283379Y186639D01*
X283372Y186595D01*
X283364Y186588D01*
Y186581D01*
X282402Y182768D01*
X280252D01*
X281695Y188542D01*
X283867D01*
X283700Y187842D01*
X283722D01*
X283853Y187995D01*
X283984Y188126D01*
X284122Y188236D01*
X284246Y188323D01*
X284356Y188396D01*
X284400Y188425D01*
X284436Y188447D01*
X284472Y188462D01*
X284494Y188476D01*
X284509Y188484D01*
X284516D01*
X284691Y188557D01*
X284873Y188608D01*
X285048Y188651D01*
X285216Y188673D01*
X285289Y188688D01*
X285354D01*
X285413Y188695D01*
X285464Y188702D01*
X285690D01*
X285806Y188695D01*
X285909Y188688D01*
X285996Y188673D01*
X286069Y188666D01*
X286120Y188651D01*
X286149Y188644D01*
X286164D01*
X286259Y188622D01*
X286339Y188600D01*
X286412Y188571D01*
X286477Y188542D01*
X286528Y188520D01*
X286565Y188498D01*
X286586Y188491D01*
X286594Y188484D01*
X286652Y188440D01*
X286703Y188389D01*
X286754Y188345D01*
X286791Y188301D01*
X286820Y188258D01*
X286842Y188228D01*
X286849Y188207D01*
X286856Y188199D01*
X286922Y188068D01*
X286951Y188003D01*
X286973Y187937D01*
X286987Y187886D01*
X287002Y187842D01*
X287009Y187813D01*
Y187806D01*
X287082Y187893D01*
X287155Y187973D01*
X287221Y188046D01*
X287286Y188112D01*
X287345Y188163D01*
X287388Y188199D01*
X287418Y188221D01*
X287425Y188228D01*
X287512Y188294D01*
X287600Y188345D01*
X287680Y188389D01*
X287753Y188433D01*
X287819Y188462D01*
X287870Y188484D01*
X287899Y188491D01*
X287913Y188498D01*
X288096Y188564D01*
X288176Y188593D01*
X288256Y188615D01*
X288314Y188629D01*
X288365Y188644D01*
X288402Y188651D01*
X288409D01*
X288591Y188680D01*
X288679Y188688D01*
X288759Y188695D01*
X288825Y188702D01*
X289058D01*
X289182Y188688D01*
D02*
G37*
G36*
X279187Y182761D02*
X277044D01*
X277212Y183454D01*
X277183D01*
X277051Y183308D01*
X276920Y183184D01*
X276789Y183074D01*
X276665Y182987D01*
X276555Y182921D01*
X276512Y182892D01*
X276475Y182870D01*
X276439Y182856D01*
X276417Y182841D01*
X276402Y182834D01*
X276395D01*
X276220Y182761D01*
X276045Y182710D01*
X275870Y182674D01*
X275710Y182652D01*
X275637Y182637D01*
X275571D01*
X275506Y182630D01*
X275462Y182622D01*
X275221D01*
X275097Y182630D01*
X274981Y182644D01*
X274886Y182659D01*
X274806Y182674D01*
X274748Y182681D01*
X274711Y182695D01*
X274697D01*
X274594Y182732D01*
X274500Y182768D01*
X274419Y182812D01*
X274347Y182856D01*
X274296Y182892D01*
X274252Y182921D01*
X274223Y182943D01*
X274215Y182950D01*
X274143Y183016D01*
X274077Y183089D01*
X274033Y183162D01*
X273997Y183235D01*
X273968Y183308D01*
X273953Y183359D01*
X273938Y183395D01*
Y183410D01*
X273924Y183534D01*
Y183658D01*
X273931Y183782D01*
X273946Y183905D01*
X273968Y184008D01*
X273982Y184095D01*
X273989Y184124D01*
Y184146D01*
X273997Y184161D01*
Y184168D01*
X275090Y188542D01*
X277241D01*
X276286Y184722D01*
X276264Y184598D01*
X276249Y184496D01*
Y184408D01*
X276264Y184336D01*
X276271Y184277D01*
X276286Y184241D01*
X276293Y184212D01*
X276300Y184204D01*
X276351Y184146D01*
X276410Y184102D01*
X276475Y184073D01*
X276548Y184051D01*
X276606Y184037D01*
X276658Y184029D01*
X276709D01*
X276825Y184037D01*
X276927Y184059D01*
X277015Y184088D01*
X277088Y184117D01*
X277146Y184146D01*
X277190Y184175D01*
X277219Y184197D01*
X277226Y184204D01*
X277299Y184277D01*
X277357Y184358D01*
X277408Y184445D01*
X277452Y184532D01*
X277481Y184605D01*
X277503Y184664D01*
X277510Y184707D01*
X277518Y184715D01*
Y184722D01*
X278480Y188542D01*
X280631D01*
X279187Y182761D01*
D02*
G37*
G36*
X272663D02*
X270512D01*
X271955Y188542D01*
X274113D01*
X272663Y182761D01*
D02*
G37*
G36*
X265635D02*
X263477D01*
X265394Y190386D01*
X267545D01*
X265635Y182761D01*
D02*
G37*
G36*
X263025D02*
X260539D01*
X260612Y184088D01*
X258761D01*
X258177Y182768D01*
X255699Y182761D01*
X258972Y188870D01*
X259045Y188994D01*
X259125Y189103D01*
X259205Y189213D01*
X259271Y189300D01*
X259336Y189373D01*
X259380Y189431D01*
X259409Y189461D01*
X259424Y189475D01*
X259526Y189577D01*
X259628Y189665D01*
X259723Y189745D01*
X259810Y189818D01*
X259891Y189869D01*
X259949Y189912D01*
X259985Y189942D01*
X260000Y189949D01*
X260124Y190022D01*
X260241Y190080D01*
X260357Y190138D01*
X260467Y190182D01*
X260554Y190219D01*
X260627Y190241D01*
X260649Y190248D01*
X260671Y190255D01*
X260678Y190262D01*
X260685D01*
X260824Y190299D01*
X260962Y190328D01*
X261093Y190350D01*
X261210Y190364D01*
X261312Y190379D01*
X261392D01*
X261421Y190386D01*
X262741D01*
X263025Y182761D01*
D02*
G37*
G36*
X270257Y188542D02*
X271161D01*
X270840Y187244D01*
X269936D01*
X269251Y184496D01*
X269236Y184416D01*
Y184343D01*
Y184285D01*
X269251Y184233D01*
X269266Y184197D01*
X269280Y184168D01*
X269287Y184153D01*
X269295Y184146D01*
X269346Y184110D01*
X269397Y184080D01*
X269462Y184066D01*
X269528Y184051D01*
X269586Y184044D01*
X270038D01*
X269718Y182761D01*
X269594Y182754D01*
X269477Y182746D01*
X269375Y182739D01*
X269280Y182732D01*
X269200D01*
X269134Y182724D01*
X269083D01*
X268974Y182717D01*
X268762D01*
X268675Y182710D01*
X268318D01*
X268157Y182717D01*
X268019Y182724D01*
X267895Y182739D01*
X267800Y182746D01*
X267727Y182761D01*
X267684Y182768D01*
X267669D01*
X267552Y182797D01*
X267450Y182827D01*
X267363Y182863D01*
X267290Y182892D01*
X267232Y182921D01*
X267195Y182943D01*
X267166Y182958D01*
X267159Y182965D01*
X267093Y183023D01*
X267042Y183089D01*
X266998Y183162D01*
X266969Y183228D01*
X266947Y183293D01*
X266933Y183344D01*
X266925Y183381D01*
Y183395D01*
X266918Y183512D01*
X266925Y183643D01*
X266940Y183767D01*
X266962Y183891D01*
X266976Y184000D01*
X266998Y184080D01*
X267006Y184117D01*
Y184139D01*
X267013Y184153D01*
Y184161D01*
X268566Y190306D01*
X270724D01*
X270257Y188542D01*
D02*
G37*
G36*
X263076Y206155D02*
X263178Y206141D01*
X263310D01*
X263441Y206112D01*
X263601Y206097D01*
X263936Y206039D01*
X264316Y205951D01*
X264724Y205835D01*
X265132Y205689D01*
X265030Y205412D01*
X265015D01*
X264986Y205427D01*
X264928Y205456D01*
X264841Y205470D01*
X264753Y205514D01*
X264636Y205543D01*
X264505Y205587D01*
X264359Y205616D01*
X264039Y205703D01*
X263674Y205776D01*
X263280Y205820D01*
X262872Y205849D01*
X262478D01*
X262347Y205835D01*
X262201D01*
X261866Y205805D01*
X261516Y205762D01*
X261137Y205689D01*
X260743Y205587D01*
X260729D01*
X260700Y205572D01*
X260641Y205558D01*
X260568Y205528D01*
X260481Y205499D01*
X260379Y205456D01*
X260117Y205353D01*
X259825Y205222D01*
X259504Y205062D01*
X259169Y204872D01*
X258819Y204654D01*
X258804D01*
X258775Y204625D01*
X258732Y204595D01*
X258673Y204537D01*
X258498Y204406D01*
X258294Y204216D01*
X258046Y203998D01*
X257784Y203721D01*
X257521Y203429D01*
X257259Y203094D01*
Y203079D01*
X257230Y203050D01*
X257201Y203006D01*
X257157Y202933D01*
X257099Y202846D01*
X257040Y202758D01*
X256967Y202642D01*
X256894Y202510D01*
X256734Y202219D01*
X256574Y201884D01*
X256413Y201519D01*
X256282Y201125D01*
Y201111D01*
X256267Y201082D01*
X256253Y201023D01*
X256238Y200936D01*
X256209Y200848D01*
X256180Y200732D01*
X256165Y200601D01*
X256136Y200455D01*
X256078Y200134D01*
X256034Y199784D01*
X256005Y199390D01*
Y198997D01*
Y198982D01*
Y198953D01*
Y198895D01*
X256020Y198822D01*
X256034Y198720D01*
Y198603D01*
X256049Y198472D01*
X256078Y198341D01*
X256122Y198020D01*
X256209Y197655D01*
X256297Y197291D01*
X256428Y196897D01*
Y196883D01*
X256442Y196853D01*
X256472Y196795D01*
X256501Y196722D01*
X256544Y196635D01*
X256588Y196518D01*
X256719Y196270D01*
X256865Y195979D01*
X257055Y195658D01*
X257288Y195323D01*
X257536Y194987D01*
X257288Y194812D01*
Y194798D01*
X257274Y194812D01*
X257259Y194841D01*
X257215Y194885D01*
X257171Y194958D01*
X257099Y195045D01*
X257026Y195148D01*
X256953Y195264D01*
X256865Y195395D01*
X256676Y195687D01*
X256486Y196022D01*
X256297Y196401D01*
X256136Y196795D01*
Y196810D01*
X256122Y196839D01*
X256107Y196897D01*
X256078Y196985D01*
X256049Y197072D01*
X256005Y197189D01*
X255976Y197320D01*
X255932Y197466D01*
X255859Y197801D01*
X255786Y198166D01*
X255728Y198559D01*
X255699Y198982D01*
Y198997D01*
Y199026D01*
Y199099D01*
Y199172D01*
Y199274D01*
X255713Y199390D01*
Y199536D01*
X255728Y199682D01*
X255757Y200017D01*
X255816Y200396D01*
X255888Y200805D01*
X255990Y201213D01*
Y201227D01*
X256005Y201257D01*
X256020Y201315D01*
X256049Y201402D01*
X256093Y201490D01*
X256122Y201606D01*
X256180Y201738D01*
X256238Y201884D01*
X256384Y202204D01*
X256544Y202554D01*
X256763Y202919D01*
X256996Y203283D01*
X257011Y203298D01*
X257026Y203327D01*
X257069Y203371D01*
X257128Y203444D01*
X257186Y203531D01*
X257274Y203619D01*
X257463Y203852D01*
X257711Y204100D01*
X257988Y204362D01*
X258309Y204639D01*
X258644Y204887D01*
X258659Y204902D01*
X258688Y204916D01*
X258746Y204945D01*
X258804Y205004D01*
X258892Y205047D01*
X258994Y205120D01*
X259125Y205193D01*
X259256Y205266D01*
X259548Y205427D01*
X259898Y205587D01*
X260262Y205747D01*
X260656Y205878D01*
X260671D01*
X260700Y205893D01*
X260758Y205908D01*
X260846Y205922D01*
X260948Y205951D01*
X261064Y205980D01*
X261195Y206010D01*
X261341Y206039D01*
X261677Y206097D01*
X262056Y206141D01*
X262464Y206170D01*
X263003D01*
X263076Y206155D01*
D02*
G37*
G36*
X295429Y196737D02*
X294759D01*
Y198311D01*
X292922D01*
Y196737D01*
X292236D01*
Y200455D01*
X292922D01*
Y198909D01*
X294759D01*
Y200455D01*
X295429D01*
Y196737D01*
D02*
G37*
G36*
X290837Y200440D02*
X290968Y200426D01*
X291099Y200396D01*
X291245Y200338D01*
X291376Y200280D01*
X291493Y200192D01*
X291507Y200178D01*
X291536Y200149D01*
X291580Y200076D01*
X291638Y200003D01*
X291697Y199886D01*
X291741Y199755D01*
X291770Y199594D01*
X291784Y199405D01*
Y199376D01*
Y199317D01*
X291770Y199201D01*
X291741Y199084D01*
X291682Y198938D01*
X291624Y198778D01*
X291522Y198632D01*
X291391Y198486D01*
X291376Y198472D01*
X291318Y198428D01*
X291230Y198370D01*
X291099Y198297D01*
X290939Y198224D01*
X290735Y198151D01*
X290501Y198078D01*
X290224Y198034D01*
X290122Y198632D01*
X290137D01*
X290195Y198647D01*
X290283Y198676D01*
X290385Y198705D01*
X290618Y198793D01*
X290720Y198851D01*
X290822Y198909D01*
X290837Y198924D01*
X290866Y198938D01*
X290895Y198982D01*
X290953Y199040D01*
X291026Y199186D01*
X291055Y199274D01*
X291070Y199376D01*
Y199390D01*
Y199419D01*
X291055Y199507D01*
X291026Y199609D01*
X290953Y199711D01*
X290939Y199726D01*
X290866Y199769D01*
X290764Y199813D01*
X290603Y199828D01*
X289670D01*
Y196737D01*
X288985D01*
Y200455D01*
X290735D01*
X290837Y200440D01*
D02*
G37*
G36*
X303565Y196737D02*
X302894D01*
X300926Y199492D01*
Y196737D01*
X300255D01*
Y200455D01*
X300955D01*
X302909Y197743D01*
Y200455D01*
X303565D01*
Y196737D01*
D02*
G37*
G36*
X315273D02*
X314631D01*
Y199332D01*
X313625Y196737D01*
X313042D01*
X312021Y199332D01*
Y196737D01*
X311380D01*
Y200455D01*
X312094D01*
X313348Y197641D01*
X314587Y200455D01*
X315273D01*
Y196737D01*
D02*
G37*
G36*
X287031D02*
X286404D01*
Y199332D01*
X285384Y196737D01*
X284801D01*
X283780Y199332D01*
Y196737D01*
X283138D01*
Y200455D01*
X283867D01*
X285107Y197641D01*
X286346Y200455D01*
X287031D01*
Y196737D01*
D02*
G37*
G36*
X306773Y199857D02*
X305723D01*
Y196737D01*
X305023D01*
Y199857D01*
X303959D01*
Y200455D01*
X306773D01*
Y199857D01*
D02*
G37*
G36*
X299818Y196737D02*
X299074D01*
X298652Y197743D01*
X297412D01*
X297660Y198341D01*
X298404D01*
X297820Y199740D01*
X296596Y196737D01*
X295896D01*
X297456Y200455D01*
X298200D01*
X299818Y196737D01*
D02*
G37*
G36*
X282701Y196737D02*
X281957D01*
X281535Y197743D01*
X280295D01*
X280529Y198341D01*
X281287D01*
X280703Y199740D01*
X279464Y196737D01*
X278779D01*
X280339Y200455D01*
X281083D01*
X282701Y196737D01*
D02*
G37*
G36*
X278429Y199857D02*
X276563D01*
Y198924D01*
X278327D01*
Y198311D01*
X276563D01*
Y197335D01*
X278458D01*
Y196737D01*
X275892D01*
Y200455D01*
X278429D01*
Y199857D01*
D02*
G37*
G36*
X275499D02*
X274419D01*
Y196737D01*
X273749D01*
Y199857D01*
X272685D01*
Y200455D01*
X275499D01*
Y199857D01*
D02*
G37*
G36*
X309207Y200440D02*
X309412Y200411D01*
X309630Y200353D01*
X309863Y200265D01*
X310082Y200149D01*
X310272Y199988D01*
X310286Y199973D01*
X310345Y199901D01*
X310418Y199799D01*
X310505Y199638D01*
X310593Y199449D01*
X310665Y199201D01*
X310724Y198924D01*
X310738Y198588D01*
Y198574D01*
Y198545D01*
Y198501D01*
Y198443D01*
X310709Y198268D01*
X310680Y198064D01*
X310622Y197830D01*
X310549Y197597D01*
X310432Y197378D01*
X310272Y197174D01*
X310257Y197160D01*
X310184Y197101D01*
X310082Y197028D01*
X309922Y196941D01*
X309732Y196853D01*
X309499Y196781D01*
X309222Y196722D01*
X308901Y196708D01*
X308814D01*
X308755Y196722D01*
X308595Y196737D01*
X308391Y196766D01*
X308172Y196824D01*
X307954Y196912D01*
X307735Y197014D01*
X307531Y197174D01*
X307516Y197203D01*
X307458Y197262D01*
X307385Y197378D01*
X307297Y197539D01*
X307210Y197728D01*
X307122Y197976D01*
X307064Y198253D01*
X307035Y198588D01*
Y198603D01*
Y198632D01*
Y198676D01*
X307050Y198749D01*
X307064Y198909D01*
X307093Y199113D01*
X307152Y199347D01*
X307239Y199580D01*
X307341Y199799D01*
X307502Y199988D01*
X307531Y200003D01*
X307589Y200061D01*
X307706Y200134D01*
X307852Y200236D01*
X308056Y200324D01*
X308289Y200396D01*
X308580Y200455D01*
X308901Y200469D01*
X309047D01*
X309207Y200440D01*
D02*
G37*
G36*
X267859Y203794D02*
X267873Y203764D01*
X267917Y203721D01*
X267975Y203662D01*
X268034Y203575D01*
X268106Y203473D01*
X268194Y203371D01*
X268281Y203239D01*
X268485Y202948D01*
X268675Y202627D01*
X268879Y202248D01*
X269054Y201854D01*
Y201840D01*
X269069Y201811D01*
X269098Y201752D01*
X269127Y201665D01*
X269156Y201563D01*
X269200Y201446D01*
X269244Y201315D01*
X269287Y201169D01*
X269375Y200834D01*
X269448Y200455D01*
X269521Y200046D01*
X269564Y199609D01*
Y199594D01*
Y199551D01*
Y199492D01*
Y199405D01*
Y199303D01*
Y199172D01*
Y199026D01*
X269550Y198865D01*
X269521Y198515D01*
X269477Y198122D01*
X269389Y197699D01*
X269287Y197276D01*
Y197262D01*
X269273Y197232D01*
X269258Y197160D01*
X269229Y197087D01*
X269185Y196985D01*
X269142Y196868D01*
X269098Y196737D01*
X269040Y196591D01*
X268894Y196270D01*
X268704Y195906D01*
X268500Y195541D01*
X268252Y195177D01*
X268238Y195162D01*
X268223Y195133D01*
X268179Y195089D01*
X268136Y195016D01*
X268063Y194943D01*
X267990Y194841D01*
X267786Y194623D01*
X267552Y194360D01*
X267261Y194083D01*
X266940Y193806D01*
X266590Y193544D01*
X266576Y193529D01*
X266546Y193515D01*
X266488Y193485D01*
X266415Y193427D01*
X266328Y193369D01*
X266226Y193310D01*
X266094Y193238D01*
X265963Y193165D01*
X265642Y193004D01*
X265293Y192844D01*
X264899Y192683D01*
X264476Y192552D01*
X264461D01*
X264403Y192538D01*
X264316Y192509D01*
X264199Y192479D01*
X264053Y192450D01*
X263893Y192421D01*
X263557Y192363D01*
X263543D01*
X263485Y192348D01*
X263383D01*
X263266Y192334D01*
X263135Y192319D01*
X262974D01*
X262624Y192304D01*
X262508D01*
X262376Y192319D01*
X262201D01*
X261997Y192334D01*
X261764Y192363D01*
X261531Y192392D01*
X261268Y192436D01*
X261239D01*
X261152Y192465D01*
X261020Y192494D01*
X260846Y192538D01*
X260641Y192596D01*
X260423Y192669D01*
X259956Y192844D01*
X260073Y193121D01*
X260087D01*
X260117Y193106D01*
X260175Y193077D01*
X260262Y193048D01*
X260364Y193019D01*
X260467Y192975D01*
X260598Y192931D01*
X260758Y192888D01*
X261079Y192800D01*
X261458Y192713D01*
X261852Y192654D01*
X262260Y192611D01*
X262799D01*
X262960Y192625D01*
X263280Y192640D01*
X263645Y192683D01*
X264039Y192756D01*
X264432Y192844D01*
X264447D01*
X264476Y192859D01*
X264534Y192873D01*
X264607Y192902D01*
X264709Y192931D01*
X264811Y192975D01*
X265074Y193077D01*
X265380Y193208D01*
X265715Y193369D01*
X266065Y193558D01*
X266415Y193777D01*
X266430Y193792D01*
X266459Y193806D01*
X266503Y193835D01*
X266576Y193894D01*
X266648Y193952D01*
X266736Y194025D01*
X266955Y194214D01*
X267217Y194448D01*
X267479Y194710D01*
X267757Y195016D01*
X268019Y195366D01*
X268034Y195381D01*
X268048Y195410D01*
X268077Y195454D01*
X268136Y195527D01*
X268179Y195614D01*
X268252Y195716D01*
X268325Y195833D01*
X268398Y195964D01*
X268558Y196270D01*
X268719Y196620D01*
X268879Y196999D01*
X269010Y197393D01*
Y197407D01*
X269025Y197437D01*
X269040Y197495D01*
X269054Y197582D01*
X269083Y197670D01*
X269098Y197786D01*
X269127Y197918D01*
X269156Y198064D01*
X269200Y198399D01*
X269244Y198763D01*
X269258Y199143D01*
Y199551D01*
Y199565D01*
Y199594D01*
Y199653D01*
X269244Y199740D01*
X269229Y199828D01*
Y199944D01*
X269200Y200076D01*
X269185Y200221D01*
X269127Y200542D01*
X269040Y200907D01*
X268937Y201286D01*
X268792Y201679D01*
Y201694D01*
X268777Y201723D01*
X268748Y201781D01*
X268719Y201854D01*
X268675Y201956D01*
X268617Y202059D01*
X268485Y202321D01*
X268325Y202612D01*
X268121Y202933D01*
X267888Y203269D01*
X267611Y203604D01*
X267844Y203808D01*
X267859Y203794D01*
D02*
G37*
G36*
X269069Y206914D02*
Y206885D01*
X269083Y206870D01*
Y206841D01*
X269069Y206826D01*
X269054Y206811D01*
X269010Y206768D01*
X268967Y206710D01*
X268821Y206549D01*
X268646Y206345D01*
X268427Y206112D01*
X268194Y205835D01*
X267931Y205558D01*
X267669Y205252D01*
X267654Y205237D01*
X267640Y205222D01*
X267596Y205179D01*
X267552Y205120D01*
X267407Y204960D01*
X267217Y204756D01*
X267013Y204508D01*
X266765Y204231D01*
X266503Y203954D01*
X266240Y203648D01*
X266226Y203633D01*
X266211Y203619D01*
X266167Y203575D01*
X266124Y203517D01*
X265978Y203356D01*
X265788Y203152D01*
X265569Y202904D01*
X265336Y202627D01*
X265074Y202336D01*
X264797Y202029D01*
X264782Y202015D01*
X264768Y202000D01*
X264724Y201956D01*
X264680Y201898D01*
X264534Y201738D01*
X264345Y201534D01*
X264126Y201286D01*
X263893Y201009D01*
X263630Y200732D01*
X263353Y200426D01*
X263368D01*
X263397Y200411D01*
X263441Y200396D01*
X263499Y200382D01*
X263572Y200367D01*
X263660Y200338D01*
X263878Y200280D01*
X264141Y200207D01*
X264418Y200134D01*
X264724Y200046D01*
X265045Y199959D01*
X265059D01*
X265088Y199944D01*
X265132D01*
X265190Y199915D01*
X265263Y199901D01*
X265351Y199872D01*
X265569Y199828D01*
X265832Y199755D01*
X266124Y199682D01*
X266430Y199594D01*
X266751Y199507D01*
X266736Y199492D01*
X266692Y199463D01*
X266619Y199405D01*
X266517Y199332D01*
X266386Y199244D01*
X266240Y199128D01*
X266080Y199011D01*
X265890Y198865D01*
X265686Y198720D01*
X265467Y198559D01*
X265001Y198209D01*
X264505Y197830D01*
X263995Y197437D01*
X263980Y197422D01*
X263936Y197393D01*
X263864Y197335D01*
X263762Y197262D01*
X263630Y197160D01*
X263485Y197057D01*
X263324Y196926D01*
X263135Y196795D01*
X262945Y196635D01*
X262726Y196474D01*
X262260Y196124D01*
X261764Y195760D01*
X261254Y195366D01*
X261239Y195352D01*
X261195Y195323D01*
X261123Y195264D01*
X261020Y195191D01*
X260904Y195104D01*
X260758Y194987D01*
X260583Y194870D01*
X260408Y194725D01*
X260204Y194579D01*
X260000Y194419D01*
X259533Y194069D01*
X259038Y193704D01*
X258527Y193325D01*
X258513Y193310D01*
X258469Y193281D01*
X258396Y193223D01*
X258294Y193150D01*
X258163Y193063D01*
X258017Y192946D01*
X257857Y192829D01*
X257667Y192683D01*
X257478Y192538D01*
X257259Y192377D01*
X256792Y192027D01*
X256311Y191663D01*
X255801Y191284D01*
X255786Y191298D01*
X255772Y191328D01*
Y191342D01*
Y191357D01*
X255786Y191371D01*
X255801Y191386D01*
X255845Y191430D01*
X255903Y191488D01*
X256034Y191648D01*
X256224Y191852D01*
X256442Y192086D01*
X256690Y192348D01*
X256953Y192625D01*
X257230Y192917D01*
X257244Y192931D01*
X257259Y192946D01*
X257303Y192990D01*
X257361Y193048D01*
X257492Y193208D01*
X257682Y193412D01*
X257900Y193646D01*
X258148Y193908D01*
X258411Y194185D01*
X258688Y194477D01*
X258702Y194492D01*
X258717Y194506D01*
X258761Y194550D01*
X258819Y194608D01*
X258965Y194769D01*
X259154Y194973D01*
X259373Y195206D01*
X259635Y195483D01*
X259898Y195774D01*
X260175Y196066D01*
X260190Y196081D01*
X260204Y196095D01*
X260248Y196139D01*
X260306Y196197D01*
X260452Y196358D01*
X260627Y196562D01*
X260860Y196795D01*
X261108Y197072D01*
X261370Y197364D01*
X261648Y197655D01*
X261633D01*
X261618Y197670D01*
X261531Y197699D01*
X261385Y197743D01*
X261210Y197801D01*
X260991Y197874D01*
X260758Y197961D01*
X260510Y198034D01*
X260248Y198122D01*
X260233D01*
X260219Y198136D01*
X260131Y198166D01*
X260000Y198209D01*
X259810Y198268D01*
X259606Y198341D01*
X259373Y198428D01*
X259110Y198515D01*
X258848Y198603D01*
X258863Y198618D01*
X258906Y198647D01*
X258979Y198705D01*
X259067Y198778D01*
X259183Y198880D01*
X259329Y198997D01*
X259490Y199113D01*
X259650Y199259D01*
X259840Y199419D01*
X260044Y199580D01*
X260481Y199930D01*
X260933Y200309D01*
X261414Y200703D01*
X261429Y200717D01*
X261473Y200746D01*
X261545Y200805D01*
X261633Y200877D01*
X261750Y200979D01*
X261881Y201082D01*
X262041Y201213D01*
X262216Y201344D01*
X262406Y201504D01*
X262595Y201665D01*
X263033Y202015D01*
X263499Y202394D01*
X263966Y202773D01*
X263980Y202787D01*
X264024Y202817D01*
X264097Y202875D01*
X264184Y202948D01*
X264301Y203050D01*
X264432Y203167D01*
X264593Y203283D01*
X264768Y203429D01*
X264957Y203575D01*
X265147Y203750D01*
X265584Y204100D01*
X266051Y204479D01*
X266517Y204858D01*
X266532Y204872D01*
X266576Y204902D01*
X266648Y204960D01*
X266736Y205033D01*
X266852Y205135D01*
X266984Y205237D01*
X267144Y205368D01*
X267304Y205499D01*
X267494Y205660D01*
X267698Y205820D01*
X268121Y206170D01*
X268587Y206549D01*
X269054Y206928D01*
X269069Y206914D01*
D02*
G37*
%LPC*%
G36*
X260875Y188724D02*
X259402Y185546D01*
X260693D01*
X260875Y188724D01*
D02*
G37*
G36*
X308901Y199886D02*
X308799D01*
X308697Y199872D01*
X308580Y199842D01*
X308435Y199799D01*
X308289Y199740D01*
X308143Y199667D01*
X308026Y199551D01*
X308012Y199536D01*
X307983Y199492D01*
X307939Y199419D01*
X307895Y199317D01*
X307837Y199172D01*
X307793Y199011D01*
X307764Y198822D01*
X307749Y198603D01*
Y198574D01*
Y198501D01*
X307764Y198384D01*
X307779Y198239D01*
X307822Y198093D01*
X307866Y197932D01*
X307939Y197772D01*
X308026Y197641D01*
X308041Y197626D01*
X308085Y197597D01*
X308143Y197539D01*
X308245Y197480D01*
X308362Y197422D01*
X308522Y197364D01*
X308697Y197335D01*
X308901Y197320D01*
X308989D01*
X309091Y197335D01*
X309207Y197364D01*
X309353Y197393D01*
X309484Y197451D01*
X309616Y197539D01*
X309732Y197641D01*
X309747Y197655D01*
X309776Y197699D01*
X309820Y197772D01*
X309878Y197889D01*
X309936Y198020D01*
X309980Y198180D01*
X310009Y198384D01*
X310024Y198603D01*
Y198618D01*
Y198632D01*
Y198705D01*
X310009Y198822D01*
X309995Y198953D01*
X309951Y199113D01*
X309907Y199274D01*
X309834Y199419D01*
X309732Y199551D01*
X309718Y199565D01*
X309674Y199609D01*
X309616Y199653D01*
X309528Y199726D01*
X309412Y199784D01*
X309266Y199828D01*
X309091Y199872D01*
X308901Y199886D01*
D02*
G37*
%LPD*%
D10*
X48345Y96535D02*
G03*
X48345Y96535I-492J0D01*
G01*
X181909Y45807D02*
G03*
X181909Y45807I-492J0D01*
G01*
X227028Y131004D02*
G03*
X227028Y131004I-492J0D01*
G01*
X191555Y74803D02*
G03*
X191555Y74803I-492J0D01*
G01*
X206122D02*
G03*
X206122Y74803I-492J0D01*
G01*
X227028Y87500D02*
G03*
X227028Y87500I-492J0D01*
G01*
D11*
X173346Y49921D02*
G03*
X173346Y49921I-1181J0D01*
G01*
X236968Y126890D02*
G03*
X236968Y126890I-1181J0D01*
G01*
Y83386D02*
G03*
X236968Y83386I-1181J0D01*
G01*
D12*
X145827Y151427D02*
G03*
X145827Y150148I0J-640D01*
G01*
X147996Y159689D02*
G03*
X147996Y159689I-315J0D01*
G01*
X5244Y152677D02*
X22874D01*
X5441Y185000D02*
X22874D01*
Y152677D02*
Y185000D01*
X22835Y46295D02*
Y63067D01*
X1185D02*
X22835D01*
X31618Y22835D02*
X48390D01*
X31618Y1185D02*
Y22835D01*
X52676Y70157D02*
X67243D01*
X52676Y96535D02*
X67243D01*
Y70157D02*
Y96535D01*
X52676Y70157D02*
Y96535D01*
X149331Y87323D02*
X176102D01*
X149331Y45984D02*
X176102D01*
X149331D02*
Y87323D01*
X176102Y45984D02*
Y87323D01*
X256299Y22835D02*
X277835D01*
X256299Y3366D02*
Y22835D01*
X231850Y89488D02*
Y130827D01*
X258622Y89488D02*
Y130827D01*
X231850D02*
X258622D01*
X231850Y89488D02*
X258622D01*
X191063Y76575D02*
Y88976D01*
X203268Y76772D02*
Y88976D01*
X205630Y76575D02*
Y88976D01*
X217835Y76772D02*
Y88976D01*
X231850Y45984D02*
Y87323D01*
X258622Y45984D02*
Y87323D01*
X231850D02*
X258622D01*
X231850Y45984D02*
X258622D01*
X115118Y156358D02*
X145827D01*
X115118Y145217D02*
Y156358D01*
Y145217D02*
X145827D01*
Y150148D01*
Y151427D02*
Y156358D01*
X3366Y152677D02*
X22835D01*
Y131142D02*
Y152677D01*
X3366Y130236D02*
X22835D01*
Y108701D02*
Y130236D01*
X3366Y107795D02*
X22835D01*
Y86260D02*
Y107795D01*
X3366Y85354D02*
X22835D01*
Y63819D02*
Y85354D01*
X49095Y3366D02*
Y22835D01*
X70630D01*
X71535Y3366D02*
Y22835D01*
X93071D01*
X93976Y3366D02*
Y22835D01*
X115512D01*
X116417Y3366D02*
Y22835D01*
X137953D01*
X138858Y3366D02*
Y22835D01*
X160394D01*
X161299Y3366D02*
Y22835D01*
X182835D01*
X183740Y3366D02*
Y22835D01*
X205276D01*
X206181Y3366D02*
Y22835D01*
X227716D01*
X278740Y3366D02*
Y22835D01*
X300276D01*
X301181Y3366D02*
Y22835D01*
X322716D01*
X323622Y3366D02*
Y22835D01*
X345158D01*
X323622Y27480D02*
X343091D01*
X323622D02*
Y49016D01*
X323622Y49921D02*
X343091D01*
X323622D02*
Y71457D01*
Y72402D02*
X343091D01*
X323622D02*
Y93937D01*
Y94803D02*
X343091D01*
X323622D02*
Y116339D01*
Y117244D02*
X343091D01*
X323622D02*
Y138780D01*
Y139685D02*
X343091D01*
X323622D02*
Y161221D01*
X323622Y162126D02*
X343091D01*
X323622D02*
Y183661D01*
Y184567D02*
X343091D01*
X323622D02*
Y206102D01*
X27559Y196295D02*
Y217083D01*
X228346Y217083D01*
Y196295D02*
Y217083D01*
X27559Y196295D02*
X228346D01*
D13*
X65965Y98996D02*
Y101949D01*
X65945Y104705D02*
Y107658D01*
D14*
X43677Y55678D02*
X43524Y55985D01*
X43218Y56291D01*
X42911Y56445D01*
X42298D01*
X41991Y56291D01*
X41685Y55985D01*
X41531Y55678D01*
X41378Y55218D01*
Y54452D01*
X41531Y53992D01*
X41685Y53685D01*
X41991Y53378D01*
X42298Y53225D01*
X42911D01*
X43218Y53378D01*
X43524Y53685D01*
X43677Y53992D01*
X45348Y55371D02*
X45042Y55218D01*
X44735Y54912D01*
X44582Y54452D01*
Y54145D01*
X44735Y53685D01*
X45042Y53378D01*
X45348Y53225D01*
X45808D01*
X46115Y53378D01*
X46422Y53685D01*
X46575Y54145D01*
Y54452D01*
X46422Y54912D01*
X46115Y55218D01*
X45808Y55371D01*
X45348D01*
X48046D02*
X47740Y55218D01*
X47433Y54912D01*
X47280Y54452D01*
Y54145D01*
X47433Y53685D01*
X47740Y53378D01*
X48046Y53225D01*
X48506D01*
X48813Y53378D01*
X49120Y53685D01*
X49273Y54145D01*
Y54452D01*
X49120Y54912D01*
X48813Y55218D01*
X48506Y55371D01*
X48046D01*
X49978Y56445D02*
Y53225D01*
X52492Y55371D02*
Y53225D01*
Y54912D02*
X52186Y55218D01*
X51879Y55371D01*
X51419D01*
X51113Y55218D01*
X50806Y54912D01*
X50653Y54452D01*
Y54145D01*
X50806Y53685D01*
X51113Y53378D01*
X51419Y53225D01*
X51879D01*
X52186Y53378D01*
X52492Y53685D01*
X53351Y55371D02*
Y53225D01*
Y54758D02*
X53811Y55218D01*
X54117Y55371D01*
X54577D01*
X54884Y55218D01*
X55037Y54758D01*
Y53225D01*
X56340Y56445D02*
Y53838D01*
X56493Y53378D01*
X56800Y53225D01*
X57107D01*
X55880Y55371D02*
X56953D01*
X61169Y56445D02*
Y53225D01*
X60096Y56445D02*
X62242D01*
X62625Y54452D02*
X64465D01*
Y54758D01*
X64312Y55065D01*
X64158Y55218D01*
X63852Y55371D01*
X63392D01*
X63085Y55218D01*
X62779Y54912D01*
X62625Y54452D01*
Y54145D01*
X62779Y53685D01*
X63085Y53378D01*
X63392Y53225D01*
X63852D01*
X64158Y53378D01*
X64465Y53685D01*
X65155Y55371D02*
Y53225D01*
Y54758D02*
X65615Y55218D01*
X65921Y55371D01*
X66381D01*
X66688Y55218D01*
X66841Y54758D01*
Y53225D01*
Y54758D02*
X67301Y55218D01*
X67608Y55371D01*
X68068D01*
X68374Y55218D01*
X68528Y54758D01*
Y53225D01*
X69539Y55371D02*
Y52152D01*
Y54912D02*
X69846Y55218D01*
X70152Y55371D01*
X70612D01*
X70919Y55218D01*
X71226Y54912D01*
X71379Y54452D01*
Y54145D01*
X71226Y53685D01*
X70919Y53378D01*
X70612Y53225D01*
X70152D01*
X69846Y53378D01*
X69539Y53685D01*
X42911Y50020D02*
Y47567D01*
X42758Y47107D01*
X42604Y46954D01*
X42298Y46801D01*
X41991D01*
X41685Y46954D01*
X41531Y47107D01*
X41378Y47567D01*
Y47874D01*
X43892Y49254D02*
Y49407D01*
X44045Y49714D01*
X44199Y49867D01*
X44505Y50020D01*
X45118D01*
X45425Y49867D01*
X45578Y49714D01*
X45732Y49407D01*
Y49100D01*
X45578Y48794D01*
X45272Y48334D01*
X43739Y46801D01*
X45885D01*
X46912Y50020D02*
X48598D01*
X47679Y48794D01*
X48138D01*
X48445Y48640D01*
X48598Y48487D01*
X48752Y48027D01*
Y47721D01*
X48598Y47261D01*
X48292Y46954D01*
X47832Y46801D01*
X47372D01*
X46912Y46954D01*
X46759Y47107D01*
X46606Y47414D01*
X49472Y48181D02*
X52232D01*
X54715Y50020D02*
Y47567D01*
X54562Y47107D01*
X54409Y46954D01*
X54102Y46801D01*
X53795D01*
X53489Y46954D01*
X53335Y47107D01*
X53182Y47567D01*
Y47874D01*
X55696Y49254D02*
Y49407D01*
X55849Y49714D01*
X56003Y49867D01*
X56309Y50020D01*
X56923D01*
X57229Y49867D01*
X57383Y49714D01*
X57536Y49407D01*
Y49100D01*
X57383Y48794D01*
X57076Y48334D01*
X55543Y46801D01*
X57689D01*
X59943Y50020D02*
X58410Y47874D01*
X60709D01*
X59943Y50020D02*
Y46801D01*
X70976Y111251D02*
X72662D01*
X71742Y110024D01*
X72202D01*
X72509Y109871D01*
X72662Y109718D01*
X72816Y109258D01*
Y108951D01*
X72662Y108491D01*
X72356Y108185D01*
X71896Y108031D01*
X71436D01*
X70976Y108185D01*
X70823Y108338D01*
X70669Y108645D01*
X73536Y111251D02*
X74762Y108031D01*
X75989Y111251D02*
X74762Y108031D01*
X76709Y111251D02*
X78396D01*
X77476Y110024D01*
X77936D01*
X78242Y109871D01*
X78396Y109718D01*
X78549Y109258D01*
Y108951D01*
X78396Y108491D01*
X78089Y108185D01*
X77629Y108031D01*
X77169D01*
X76709Y108185D01*
X76556Y108338D01*
X76403Y108645D01*
X6818Y190637D02*
Y188047D01*
X6656Y187561D01*
X6494Y187399D01*
X6171Y187237D01*
X5847D01*
X5523Y187399D01*
X5361Y187561D01*
X5199Y188047D01*
Y188371D01*
X7692Y189989D02*
X8016Y190151D01*
X8501Y190637D01*
Y187237D01*
X34166Y45123D02*
X37566D01*
X34166D02*
Y46580D01*
X34328Y47065D01*
X34490Y47227D01*
X34814Y47389D01*
X35138D01*
X35462Y47227D01*
X35623Y47065D01*
X35785Y46580D01*
Y45123D01*
Y46256D02*
X37566Y47389D01*
X34814Y48150D02*
X34652Y48474D01*
X34166Y48959D01*
X37566D01*
X34166Y52909D02*
X37566Y51290D01*
X34166Y50643D02*
Y52909D01*
X36267Y35558D02*
Y32159D01*
Y35558D02*
X37723D01*
X38209Y35396D01*
X38371Y35234D01*
X38533Y34910D01*
Y34587D01*
X38371Y34263D01*
X38209Y34101D01*
X37723Y33939D01*
X36267D01*
X37400D02*
X38533Y32159D01*
X39294Y34910D02*
X39617Y35072D01*
X40103Y35558D01*
Y32159D01*
X43729Y35072D02*
X43567Y35396D01*
X43081Y35558D01*
X42758D01*
X42272Y35396D01*
X41948Y34910D01*
X41787Y34101D01*
Y33292D01*
X41948Y32644D01*
X42272Y32320D01*
X42758Y32159D01*
X42920D01*
X43405Y32320D01*
X43729Y32644D01*
X43891Y33130D01*
Y33292D01*
X43729Y33777D01*
X43405Y34101D01*
X42920Y34263D01*
X42758D01*
X42272Y34101D01*
X41948Y33777D01*
X41787Y33292D01*
X72509Y115925D02*
X70976D01*
X70823Y114545D01*
X70976Y114698D01*
X71436Y114852D01*
X71896D01*
X72356Y114698D01*
X72662Y114392D01*
X72816Y113932D01*
Y113625D01*
X72662Y113165D01*
X72356Y112859D01*
X71896Y112705D01*
X71436D01*
X70976Y112859D01*
X70823Y113012D01*
X70669Y113319D01*
X73536Y115925D02*
X74762Y112705D01*
X75989Y115925D02*
X74762Y112705D01*
X7035Y43342D02*
Y40889D01*
X6882Y40429D01*
X6728Y40276D01*
X6422Y40123D01*
X6115D01*
X5808Y40276D01*
X5655Y40429D01*
X5502Y40889D01*
Y41196D01*
X8016Y42575D02*
Y42729D01*
X8169Y43035D01*
X8323Y43189D01*
X8629Y43342D01*
X9242D01*
X9549Y43189D01*
X9702Y43035D01*
X9856Y42729D01*
Y42422D01*
X9702Y42116D01*
X9396Y41656D01*
X7863Y40123D01*
X10009D01*
X12262Y43342D02*
X10729Y41196D01*
X13029D01*
X12262Y43342D02*
Y40123D01*
X96264Y119030D02*
X99484D01*
X96264D02*
Y120409D01*
X96418Y120869D01*
X96571Y121023D01*
X96877Y121176D01*
X97184D01*
X97491Y121023D01*
X97644Y120869D01*
X97797Y120409D01*
Y119030D01*
Y120103D02*
X99484Y121176D01*
X96877Y121896D02*
X96724Y122203D01*
X96264Y122663D01*
X99484D01*
X96264Y124564D02*
Y126250D01*
X97491Y125330D01*
Y125790D01*
X97644Y126097D01*
X97797Y126250D01*
X98257Y126403D01*
X98564D01*
X99024Y126250D01*
X99330Y125944D01*
X99484Y125484D01*
Y125024D01*
X99330Y124564D01*
X99177Y124410D01*
X98870Y124257D01*
X93705Y105463D02*
X96925D01*
X93705D02*
Y106842D01*
X93859Y107302D01*
X94012Y107456D01*
X94318Y107609D01*
X94625D01*
X94932Y107456D01*
X95085Y107302D01*
X95238Y106842D01*
Y105463D01*
Y106536D02*
X96925Y107609D01*
X94318Y108329D02*
X94165Y108636D01*
X93705Y109096D01*
X96925D01*
X94472Y110844D02*
X94318D01*
X94012Y110997D01*
X93859Y111150D01*
X93705Y111457D01*
Y112070D01*
X93859Y112376D01*
X94012Y112530D01*
X94318Y112683D01*
X94625D01*
X94932Y112530D01*
X95392Y112223D01*
X96925Y110690D01*
Y112836D01*
X86989Y149767D02*
X86682Y150074D01*
X86222Y150227D01*
X85609D01*
X85149Y150074D01*
X84842Y149767D01*
Y149461D01*
X84996Y149154D01*
X85149Y149001D01*
X85456Y148847D01*
X86375Y148541D01*
X86682Y148388D01*
X86835Y148234D01*
X86989Y147928D01*
Y147468D01*
X86682Y147161D01*
X86222Y147008D01*
X85609D01*
X85149Y147161D01*
X84842Y147468D01*
X90009Y149461D02*
X89855Y149767D01*
X89549Y150074D01*
X89242Y150227D01*
X88629D01*
X88322Y150074D01*
X88016Y149767D01*
X87862Y149461D01*
X87709Y149001D01*
Y148234D01*
X87862Y147774D01*
X88016Y147468D01*
X88322Y147161D01*
X88629Y147008D01*
X89242D01*
X89549Y147161D01*
X89855Y147468D01*
X90009Y147774D01*
X90913Y150227D02*
Y147008D01*
X92753D01*
X28710Y63504D02*
X31929D01*
X28710D02*
Y64577D01*
X28863Y65037D01*
X29170Y65344D01*
X29476Y65497D01*
X29936Y65650D01*
X30703D01*
X31163Y65497D01*
X31469Y65344D01*
X31776Y65037D01*
X31929Y64577D01*
Y63504D01*
X28710Y67291D02*
X28863Y66984D01*
X29170Y66677D01*
X29476Y66524D01*
X29936Y66371D01*
X30703D01*
X31163Y66524D01*
X31469Y66677D01*
X31776Y66984D01*
X31929Y67291D01*
Y67904D01*
X31776Y68210D01*
X31469Y68517D01*
X31163Y68670D01*
X30703Y68823D01*
X29936D01*
X29476Y68670D01*
X29170Y68517D01*
X28863Y68210D01*
X28710Y67904D01*
Y67291D01*
Y69575D02*
X31009D01*
X31469Y69728D01*
X31776Y70034D01*
X31929Y70494D01*
Y70801D01*
X31776Y71261D01*
X31469Y71568D01*
X31009Y71721D01*
X28710D01*
Y73683D02*
X31929D01*
X28710Y72610D02*
Y74756D01*
X29323Y75139D02*
X29170Y75446D01*
X28710Y75906D01*
X31929D01*
X28710Y85764D02*
X31929D01*
X28710D02*
Y86837D01*
X28863Y87297D01*
X29170Y87604D01*
X29476Y87757D01*
X29936Y87910D01*
X30703D01*
X31163Y87757D01*
X31469Y87604D01*
X31776Y87297D01*
X31929Y86837D01*
Y85764D01*
X28710Y89551D02*
X28863Y89244D01*
X29170Y88937D01*
X29476Y88784D01*
X29936Y88631D01*
X30703D01*
X31163Y88784D01*
X31469Y88937D01*
X31776Y89244D01*
X31929Y89551D01*
Y90164D01*
X31776Y90470D01*
X31469Y90777D01*
X31163Y90930D01*
X30703Y91084D01*
X29936D01*
X29476Y90930D01*
X29170Y90777D01*
X28863Y90470D01*
X28710Y90164D01*
Y89551D01*
Y91835D02*
X31009D01*
X31469Y91988D01*
X31776Y92295D01*
X31929Y92755D01*
Y93061D01*
X31776Y93521D01*
X31469Y93828D01*
X31009Y93981D01*
X28710D01*
Y95943D02*
X31929D01*
X28710Y94870D02*
Y97016D01*
X29476Y97553D02*
X29323D01*
X29016Y97706D01*
X28863Y97859D01*
X28710Y98166D01*
Y98779D01*
X28863Y99086D01*
X29016Y99239D01*
X29323Y99392D01*
X29630D01*
X29936Y99239D01*
X30396Y98932D01*
X31929Y97399D01*
Y99546D01*
X265817Y153889D02*
Y150670D01*
Y153889D02*
X267043Y150670D01*
X268270Y153889D02*
X267043Y150670D01*
X268270Y153889D02*
Y150670D01*
X269190Y153889D02*
Y151589D01*
X269343Y151129D01*
X269649Y150823D01*
X270109Y150670D01*
X270416D01*
X270876Y150823D01*
X271182Y151129D01*
X271336Y151589D01*
Y153889D01*
X272225D02*
X274371Y150670D01*
Y153889D02*
X272225Y150670D01*
X275092Y153276D02*
X275398Y153429D01*
X275858Y153889D01*
Y150670D01*
X277452Y149596D02*
X279905D01*
X282465Y153429D02*
X282159Y153735D01*
X281699Y153889D01*
X281086D01*
X280626Y153735D01*
X280319Y153429D01*
Y153122D01*
X280472Y152816D01*
X280626Y152662D01*
X280932Y152509D01*
X281852Y152202D01*
X282159Y152049D01*
X282312Y151896D01*
X282465Y151589D01*
Y151129D01*
X282159Y150823D01*
X281699Y150670D01*
X281086D01*
X280626Y150823D01*
X280319Y151129D01*
X284106Y153889D02*
X283646Y153735D01*
X283339Y153276D01*
X283186Y152509D01*
Y152049D01*
X283339Y151283D01*
X283646Y150823D01*
X284106Y150670D01*
X284412D01*
X284872Y150823D01*
X285179Y151283D01*
X285332Y152049D01*
Y152509D01*
X285179Y153276D01*
X284872Y153735D01*
X284412Y153889D01*
X284106D01*
X213691D02*
Y150670D01*
Y153889D02*
X214917Y150670D01*
X216144Y153889D02*
X214917Y150670D01*
X216144Y153889D02*
Y150670D01*
X217063Y153889D02*
Y151589D01*
X217217Y151129D01*
X217523Y150823D01*
X217983Y150670D01*
X218290D01*
X218750Y150823D01*
X219056Y151129D01*
X219210Y151589D01*
Y153889D01*
X220099D02*
X222245Y150670D01*
Y153889D02*
X220099Y150670D01*
X222966Y153276D02*
X223272Y153429D01*
X223732Y153889D01*
Y150670D01*
X225326Y149596D02*
X227779D01*
X230339Y153429D02*
X230033Y153735D01*
X229573Y153889D01*
X228960D01*
X228500Y153735D01*
X228193Y153429D01*
Y153122D01*
X228346Y152816D01*
X228500Y152662D01*
X228806Y152509D01*
X229726Y152202D01*
X230033Y152049D01*
X230186Y151896D01*
X230339Y151589D01*
Y151129D01*
X230033Y150823D01*
X229573Y150670D01*
X228960D01*
X228500Y150823D01*
X228193Y151129D01*
X231213Y153122D02*
Y153276D01*
X231366Y153582D01*
X231520Y153735D01*
X231826Y153889D01*
X232439D01*
X232746Y153735D01*
X232899Y153582D01*
X233053Y153276D01*
Y152969D01*
X232899Y152662D01*
X232593Y152202D01*
X231060Y150670D01*
X233206D01*
X90472Y94755D02*
Y91535D01*
Y94755D02*
X91699Y91535D01*
X92925Y94755D02*
X91699Y91535D01*
X92925Y94755D02*
Y91535D01*
X93845Y94755D02*
Y92455D01*
X93998Y91995D01*
X94305Y91689D01*
X94765Y91535D01*
X95072D01*
X95531Y91689D01*
X95838Y91995D01*
X95991Y92455D01*
Y94755D01*
X96880D02*
X99027Y91535D01*
Y94755D02*
X96880Y91535D01*
X99900Y93988D02*
Y94142D01*
X100054Y94448D01*
X100207Y94601D01*
X100514Y94755D01*
X101127D01*
X101433Y94601D01*
X101587Y94448D01*
X101740Y94142D01*
Y93835D01*
X101587Y93528D01*
X101280Y93068D01*
X99747Y91535D01*
X101893D01*
X102614Y90462D02*
X105067D01*
X107627Y94295D02*
X107320Y94601D01*
X106860Y94755D01*
X106247D01*
X105787Y94601D01*
X105481Y94295D01*
Y93988D01*
X105634Y93682D01*
X105787Y93528D01*
X106094Y93375D01*
X107014Y93068D01*
X107320Y92915D01*
X107474Y92762D01*
X107627Y92455D01*
Y91995D01*
X107320Y91689D01*
X106860Y91535D01*
X106247D01*
X105787Y91689D01*
X105481Y91995D01*
X109267Y94755D02*
X108807Y94601D01*
X108501Y94142D01*
X108347Y93375D01*
Y92915D01*
X108501Y92149D01*
X108807Y91689D01*
X109267Y91535D01*
X109574D01*
X110034Y91689D01*
X110340Y92149D01*
X110494Y92915D01*
Y93375D01*
X110340Y94142D01*
X110034Y94601D01*
X109574Y94755D01*
X109267D01*
X116732Y83141D02*
Y79921D01*
Y83141D02*
X117959Y79921D01*
X119185Y83141D02*
X117959Y79921D01*
X119185Y83141D02*
Y79921D01*
X120105Y83141D02*
Y80841D01*
X120258Y80381D01*
X120565Y80075D01*
X121025Y79921D01*
X121331D01*
X121791Y80075D01*
X122098Y80381D01*
X122251Y80841D01*
Y83141D01*
X123140D02*
X125286Y79921D01*
Y83141D02*
X123140Y79921D01*
X126160Y82374D02*
Y82527D01*
X126314Y82834D01*
X126467Y82987D01*
X126774Y83141D01*
X127387D01*
X127693Y82987D01*
X127847Y82834D01*
X128000Y82527D01*
Y82221D01*
X127847Y81914D01*
X127540Y81454D01*
X126007Y79921D01*
X128153D01*
X128874Y78848D02*
X131326D01*
X133887Y82681D02*
X133580Y82987D01*
X133120Y83141D01*
X132507D01*
X132047Y82987D01*
X131740Y82681D01*
Y82374D01*
X131894Y82068D01*
X132047Y81914D01*
X132354Y81761D01*
X133273Y81454D01*
X133580Y81301D01*
X133733Y81148D01*
X133887Y80841D01*
Y80381D01*
X133580Y80075D01*
X133120Y79921D01*
X132507D01*
X132047Y80075D01*
X131740Y80381D01*
X134607Y82527D02*
X134914Y82681D01*
X135374Y83141D01*
Y79921D01*
X140423Y94122D02*
Y90903D01*
Y94122D02*
X141649Y90903D01*
X142876Y94122D02*
X141649Y90903D01*
X142876Y94122D02*
Y90903D01*
X143796Y94122D02*
Y91823D01*
X143949Y91363D01*
X144256Y91056D01*
X144716Y90903D01*
X145022D01*
X145482Y91056D01*
X145789Y91363D01*
X145942Y91823D01*
Y94122D01*
X146831D02*
X148977Y90903D01*
Y94122D02*
X146831Y90903D01*
X149851Y93356D02*
Y93509D01*
X150004Y93816D01*
X150158Y93969D01*
X150464Y94122D01*
X151077D01*
X151384Y93969D01*
X151537Y93816D01*
X151691Y93509D01*
Y93203D01*
X151537Y92896D01*
X151231Y92436D01*
X149698Y90903D01*
X151844D01*
X152565Y89830D02*
X155017D01*
X157578Y93663D02*
X157271Y93969D01*
X156811Y94122D01*
X156198D01*
X155738Y93969D01*
X155431Y93663D01*
Y93356D01*
X155585Y93049D01*
X155738Y92896D01*
X156044Y92743D01*
X156964Y92436D01*
X157271Y92283D01*
X157424Y92129D01*
X157578Y91823D01*
Y91363D01*
X157271Y91056D01*
X156811Y90903D01*
X156198D01*
X155738Y91056D01*
X155431Y91363D01*
X158451Y93356D02*
Y93509D01*
X158605Y93816D01*
X158758Y93969D01*
X159064Y94122D01*
X159678D01*
X159984Y93969D01*
X160138Y93816D01*
X160291Y93509D01*
Y93203D01*
X160138Y92896D01*
X159831Y92436D01*
X158298Y90903D01*
X160444D01*
X110444Y77728D02*
X110291Y78035D01*
X109984Y78342D01*
X109678Y78495D01*
X109064D01*
X108758Y78342D01*
X108451Y78035D01*
X108298Y77728D01*
X108145Y77268D01*
Y76502D01*
X108298Y76042D01*
X108451Y75735D01*
X108758Y75429D01*
X109064Y75276D01*
X109678D01*
X109984Y75429D01*
X110291Y75735D01*
X110444Y76042D01*
Y76502D01*
X109678D02*
X110444D01*
X111180Y78495D02*
Y75276D01*
Y78495D02*
X113326Y75276D01*
Y78495D02*
Y75276D01*
X114215Y78495D02*
Y75276D01*
Y78495D02*
X115288D01*
X115748Y78342D01*
X116055Y78035D01*
X116208Y77728D01*
X116362Y77268D01*
Y76502D01*
X116208Y76042D01*
X116055Y75735D01*
X115748Y75429D01*
X115288Y75276D01*
X114215D01*
X94320Y70109D02*
X92787D01*
X92634Y68729D01*
X92787Y68883D01*
X93247Y69036D01*
X93707D01*
X94167Y68883D01*
X94473Y68576D01*
X94626Y68116D01*
Y67810D01*
X94473Y67350D01*
X94167Y67043D01*
X93707Y66890D01*
X93247D01*
X92787Y67043D01*
X92634Y67196D01*
X92480Y67503D01*
X95347Y70109D02*
X96573Y66890D01*
X97800Y70109D02*
X96573Y66890D01*
X91606Y85385D02*
X93292D01*
X92372Y84158D01*
X92832D01*
X93139Y84005D01*
X93292Y83852D01*
X93445Y83392D01*
Y83085D01*
X93292Y82625D01*
X92985Y82319D01*
X92526Y82165D01*
X92066D01*
X91606Y82319D01*
X91452Y82472D01*
X91299Y82779D01*
X94166Y85385D02*
X95392Y82165D01*
X96619Y85385D02*
X95392Y82165D01*
X97339Y85385D02*
X99026D01*
X98106Y84158D01*
X98566D01*
X98872Y84005D01*
X99026Y83852D01*
X99179Y83392D01*
Y83085D01*
X99026Y82625D01*
X98719Y82319D01*
X98259Y82165D01*
X97799D01*
X97339Y82319D01*
X97186Y82472D01*
X97033Y82779D01*
X24586Y165581D02*
X27805D01*
X24586Y166255D02*
X27805D01*
X24586D02*
X27805Y167482D01*
X24586Y168708D02*
X27805Y167482D01*
X24586Y168708D02*
X27805D01*
X24586Y169628D02*
X26885D01*
X27345Y169781D01*
X27652Y170088D01*
X27805Y170548D01*
Y170854D01*
X27652Y171314D01*
X27345Y171621D01*
X26885Y171774D01*
X24586D01*
X28710Y130619D02*
X31929D01*
X28710D02*
Y131692D01*
X28863Y132152D01*
X29170Y132459D01*
X29476Y132612D01*
X29936Y132765D01*
X30703D01*
X31163Y132612D01*
X31469Y132459D01*
X31776Y132152D01*
X31929Y131692D01*
Y130619D01*
X28710Y134406D02*
X28863Y134099D01*
X29170Y133792D01*
X29476Y133639D01*
X29936Y133486D01*
X30703D01*
X31163Y133639D01*
X31469Y133792D01*
X31776Y134099D01*
X31929Y134406D01*
Y135019D01*
X31776Y135325D01*
X31469Y135632D01*
X31163Y135785D01*
X30703Y135939D01*
X29936D01*
X29476Y135785D01*
X29170Y135632D01*
X28863Y135325D01*
X28710Y135019D01*
Y134406D01*
Y136690D02*
X31009D01*
X31469Y136843D01*
X31776Y137150D01*
X31929Y137610D01*
Y137916D01*
X31776Y138376D01*
X31469Y138683D01*
X31009Y138836D01*
X28710D01*
Y140798D02*
X31929D01*
X28710Y139725D02*
Y141871D01*
Y143788D02*
X30856Y142254D01*
Y144554D01*
X28710Y143788D02*
X31929D01*
X28710Y108149D02*
X31929D01*
X28710D02*
Y109222D01*
X28863Y109682D01*
X29170Y109989D01*
X29476Y110142D01*
X29936Y110295D01*
X30703D01*
X31163Y110142D01*
X31469Y109989D01*
X31776Y109682D01*
X31929Y109222D01*
Y108149D01*
X28710Y111936D02*
X28863Y111629D01*
X29170Y111322D01*
X29476Y111169D01*
X29936Y111016D01*
X30703D01*
X31163Y111169D01*
X31469Y111322D01*
X31776Y111629D01*
X31929Y111936D01*
Y112549D01*
X31776Y112856D01*
X31469Y113162D01*
X31163Y113315D01*
X30703Y113469D01*
X29936D01*
X29476Y113315D01*
X29170Y113162D01*
X28863Y112856D01*
X28710Y112549D01*
Y111936D01*
Y114220D02*
X31009D01*
X31469Y114373D01*
X31776Y114680D01*
X31929Y115140D01*
Y115446D01*
X31776Y115906D01*
X31469Y116213D01*
X31009Y116366D01*
X28710D01*
Y118328D02*
X31929D01*
X28710Y117255D02*
Y119401D01*
Y120091D02*
Y121778D01*
X29936Y120858D01*
Y121318D01*
X30090Y121624D01*
X30243Y121778D01*
X30703Y121931D01*
X31009D01*
X31469Y121778D01*
X31776Y121471D01*
X31929Y121011D01*
Y120551D01*
X31776Y120091D01*
X31622Y119938D01*
X31316Y119785D01*
X7955Y34006D02*
X6728Y37225D01*
X5502Y34006D01*
X5962Y35079D02*
X7495D01*
X9626Y37225D02*
X9319Y37072D01*
X9013Y36765D01*
X8859Y36459D01*
X8706Y35999D01*
Y35232D01*
X8859Y34772D01*
X9013Y34466D01*
X9319Y34159D01*
X9626Y34006D01*
X10239D01*
X10546Y34159D01*
X10852Y34466D01*
X11005Y34772D01*
X11159Y35232D01*
Y35999D01*
X11005Y36459D01*
X10852Y36765D01*
X10546Y37072D01*
X10239Y37225D01*
X9626D01*
X11910D02*
Y34926D01*
X12063Y34466D01*
X12370Y34159D01*
X12830Y34006D01*
X13136D01*
X13596Y34159D01*
X13903Y34466D01*
X14056Y34926D01*
Y37225D01*
X16018D02*
Y34006D01*
X14945Y37225D02*
X17091D01*
X17628Y36459D02*
Y36612D01*
X17781Y36919D01*
X17935Y37072D01*
X18241Y37225D01*
X18854D01*
X19161Y37072D01*
X19314Y36919D01*
X19468Y36612D01*
Y36305D01*
X19314Y35999D01*
X19008Y35539D01*
X17475Y34006D01*
X19621D01*
X20495Y36459D02*
Y36612D01*
X20648Y36919D01*
X20801Y37072D01*
X21108Y37225D01*
X21721D01*
X22028Y37072D01*
X22181Y36919D01*
X22334Y36612D01*
Y36305D01*
X22181Y35999D01*
X21874Y35539D01*
X20341Y34006D01*
X22488D01*
X69045Y193353D02*
Y190133D01*
Y193353D02*
X70425D01*
X70885Y193199D01*
X71038Y193046D01*
X71191Y192739D01*
Y192433D01*
X71038Y192126D01*
X70885Y191973D01*
X70425Y191820D01*
X69045D01*
X70118D02*
X71191Y190133D01*
X73751Y192280D02*
Y190133D01*
Y191820D02*
X73445Y192126D01*
X73138Y192280D01*
X72678D01*
X72372Y192126D01*
X72065Y191820D01*
X71912Y191360D01*
Y191053D01*
X72065Y190593D01*
X72372Y190287D01*
X72678Y190133D01*
X73138D01*
X73445Y190287D01*
X73751Y190593D01*
X76296Y191820D02*
X76143Y192126D01*
X75683Y192280D01*
X75223D01*
X74763Y192126D01*
X74610Y191820D01*
X74763Y191513D01*
X75070Y191360D01*
X75836Y191207D01*
X76143Y191053D01*
X76296Y190747D01*
Y190593D01*
X76143Y190287D01*
X75683Y190133D01*
X75223D01*
X74763Y190287D01*
X74610Y190593D01*
X76971Y192280D02*
Y189060D01*
Y191820D02*
X77277Y192126D01*
X77584Y192280D01*
X78044D01*
X78351Y192126D01*
X78657Y191820D01*
X78811Y191360D01*
Y191053D01*
X78657Y190593D01*
X78351Y190287D01*
X78044Y190133D01*
X77584D01*
X77277Y190287D01*
X76971Y190593D01*
X79500Y193353D02*
Y190133D01*
Y191820D02*
X79807Y192126D01*
X80114Y192280D01*
X80573D01*
X80880Y192126D01*
X81187Y191820D01*
X81340Y191360D01*
Y191053D01*
X81187Y190593D01*
X80880Y190287D01*
X80573Y190133D01*
X80114D01*
X79807Y190287D01*
X79500Y190593D01*
X82030Y191360D02*
X83869D01*
Y191666D01*
X83716Y191973D01*
X83563Y192126D01*
X83256Y192280D01*
X82796D01*
X82490Y192126D01*
X82183Y191820D01*
X82030Y191360D01*
Y191053D01*
X82183Y190593D01*
X82490Y190287D01*
X82796Y190133D01*
X83256D01*
X83563Y190287D01*
X83869Y190593D01*
X84559Y192280D02*
Y190133D01*
Y191360D02*
X84712Y191820D01*
X85019Y192126D01*
X85326Y192280D01*
X85786D01*
X86077D02*
Y190133D01*
Y191360D02*
X86230Y191820D01*
X86537Y192126D01*
X86843Y192280D01*
X87303D01*
X87748D02*
X88668Y190133D01*
X89587Y192280D02*
X88668Y190133D01*
X88361Y189520D01*
X88055Y189214D01*
X87748Y189060D01*
X87595D01*
X92654Y191666D02*
X94033D01*
X94493Y191820D01*
X94646Y191973D01*
X94800Y192280D01*
Y192739D01*
X94646Y193046D01*
X94493Y193199D01*
X94033Y193353D01*
X92654D01*
Y190133D01*
X95827Y193353D02*
X95980Y193199D01*
X96133Y193353D01*
X95980Y193506D01*
X95827Y193353D01*
X95980Y192280D02*
Y190133D01*
X152995Y170081D02*
X149775Y168854D01*
X152995Y167628D01*
X151921Y168088D02*
Y169621D01*
X149775Y170832D02*
X152995D01*
X149775D02*
Y171905D01*
X149928Y172365D01*
X150235Y172671D01*
X150542Y172825D01*
X151002Y172978D01*
X151768D01*
X152228Y172825D01*
X152535Y172671D01*
X152841Y172365D01*
X152995Y171905D01*
Y170832D01*
X150542Y175998D02*
X150235Y175845D01*
X149928Y175538D01*
X149775Y175232D01*
Y174618D01*
X149928Y174312D01*
X150235Y174005D01*
X150542Y173852D01*
X151002Y173699D01*
X151768D01*
X152228Y173852D01*
X152535Y174005D01*
X152841Y174312D01*
X152995Y174618D01*
Y175232D01*
X152841Y175538D01*
X152535Y175845D01*
X152228Y175998D01*
X150388Y176902D02*
X150235Y177209D01*
X149775Y177669D01*
X152995D01*
X154068Y179263D02*
Y181716D01*
X149775Y183050D02*
X149928Y182743D01*
X150235Y182437D01*
X150542Y182283D01*
X151002Y182130D01*
X151768D01*
X152228Y182283D01*
X152535Y182437D01*
X152841Y182743D01*
X152995Y183050D01*
Y183663D01*
X152841Y183970D01*
X152535Y184276D01*
X152228Y184430D01*
X151768Y184583D01*
X151002D01*
X150542Y184430D01*
X150235Y184276D01*
X149928Y183970D01*
X149775Y183663D01*
Y183050D01*
Y185334D02*
X152075D01*
X152535Y185487D01*
X152841Y185794D01*
X152995Y186254D01*
Y186560D01*
X152841Y187020D01*
X152535Y187327D01*
X152075Y187480D01*
X149775D01*
Y189443D02*
X152995D01*
X149775Y188369D02*
Y190516D01*
X121617Y170081D02*
X118397Y168854D01*
X121617Y167628D01*
X120544Y168088D02*
Y169621D01*
X118397Y170832D02*
X121617D01*
X118397D02*
Y171905D01*
X118551Y172365D01*
X118857Y172671D01*
X119164Y172825D01*
X119624Y172978D01*
X120390D01*
X120850Y172825D01*
X121157Y172671D01*
X121463Y172365D01*
X121617Y171905D01*
Y170832D01*
X119164Y175998D02*
X118857Y175845D01*
X118551Y175538D01*
X118397Y175232D01*
Y174618D01*
X118551Y174312D01*
X118857Y174005D01*
X119164Y173852D01*
X119624Y173699D01*
X120390D01*
X120850Y173852D01*
X121157Y174005D01*
X121463Y174312D01*
X121617Y174618D01*
Y175232D01*
X121463Y175538D01*
X121157Y175845D01*
X120850Y175998D01*
X119164Y177056D02*
X119010D01*
X118704Y177209D01*
X118551Y177363D01*
X118397Y177669D01*
Y178282D01*
X118551Y178589D01*
X118704Y178742D01*
X119010Y178895D01*
X119317D01*
X119624Y178742D01*
X120084Y178436D01*
X121617Y176903D01*
Y179049D01*
X122690Y179769D02*
Y182222D01*
X118397Y183556D02*
X118551Y183249D01*
X118857Y182943D01*
X119164Y182789D01*
X119624Y182636D01*
X120390D01*
X120850Y182789D01*
X121157Y182943D01*
X121463Y183249D01*
X121617Y183556D01*
Y184169D01*
X121463Y184476D01*
X121157Y184782D01*
X120850Y184935D01*
X120390Y185089D01*
X119624D01*
X119164Y184935D01*
X118857Y184782D01*
X118551Y184476D01*
X118397Y184169D01*
Y183556D01*
Y185840D02*
X120697D01*
X121157Y185993D01*
X121463Y186300D01*
X121617Y186760D01*
Y187066D01*
X121463Y187526D01*
X121157Y187833D01*
X120697Y187986D01*
X118397D01*
Y189948D02*
X121617D01*
X118397Y188875D02*
Y191022D01*
X256713Y215009D02*
Y209011D01*
Y215009D02*
X258712D01*
X259569Y214724D01*
X260140Y214152D01*
X260426Y213581D01*
X260712Y212724D01*
Y211296D01*
X260426Y210439D01*
X260140Y209868D01*
X259569Y209296D01*
X258712Y209011D01*
X256713D01*
X266625D02*
X264339Y215009D01*
X262054Y209011D01*
X262911Y211010D02*
X265768D01*
X269738Y215009D02*
X269167Y214724D01*
X268596Y214152D01*
X268310Y213581D01*
X268024Y212724D01*
Y211296D01*
X268310Y210439D01*
X268596Y209868D01*
X269167Y209296D01*
X269738Y209011D01*
X270881D01*
X271452Y209296D01*
X272024Y209868D01*
X272309Y210439D01*
X272595Y211296D01*
Y212724D01*
X272309Y213581D01*
X272024Y214152D01*
X271452Y214724D01*
X270881Y215009D01*
X269738D01*
X270595Y210153D02*
X272309Y208439D01*
X273994Y211581D02*
X279136D01*
X281193Y213581D02*
Y213867D01*
X281479Y214438D01*
X281764Y214724D01*
X282336Y215009D01*
X283478D01*
X284050Y214724D01*
X284335Y214438D01*
X284621Y213867D01*
Y213295D01*
X284335Y212724D01*
X283764Y211867D01*
X280907Y209011D01*
X284907D01*
X286249Y211581D02*
X291391D01*
X293162Y215009D02*
Y209011D01*
Y215009D02*
X295733D01*
X296590Y214724D01*
X296875Y214438D01*
X297161Y213867D01*
Y213295D01*
X296875Y212724D01*
X296590Y212438D01*
X295733Y212153D01*
X293162D02*
X295733D01*
X296590Y211867D01*
X296875Y211581D01*
X297161Y211010D01*
Y210153D01*
X296875Y209582D01*
X296590Y209296D01*
X295733Y209011D01*
X293162D01*
X133967Y38328D02*
Y35108D01*
Y38328D02*
X135193Y35108D01*
X136419Y38328D02*
X135193Y35108D01*
X136419Y38328D02*
Y35108D01*
X137339Y38328D02*
Y36028D01*
X137492Y35568D01*
X137799Y35261D01*
X138259Y35108D01*
X138566D01*
X139025Y35261D01*
X139332Y35568D01*
X139485Y36028D01*
Y38328D01*
X140374D02*
X142521Y35108D01*
Y38328D02*
X140374Y35108D01*
X145924Y37561D02*
Y37714D01*
X146077Y38021D01*
X146230Y38174D01*
X146537Y38328D01*
X147150D01*
X147457Y38174D01*
X147610Y38021D01*
X147764Y37714D01*
Y37408D01*
X147610Y37101D01*
X147304Y36641D01*
X145771Y35108D01*
X147917D01*
X148791Y37254D02*
X148637Y37101D01*
X148791Y36948D01*
X148944Y37101D01*
X148791Y37254D01*
Y35415D02*
X148637Y35261D01*
X148791Y35108D01*
X148944Y35261D01*
X148791Y35415D01*
X153712Y38328D02*
Y35875D01*
X153558Y35415D01*
X153405Y35261D01*
X153098Y35108D01*
X152792D01*
X152485Y35261D01*
X152332Y35415D01*
X152179Y35875D01*
Y36181D01*
X154539Y37714D02*
X154846Y37868D01*
X155306Y38328D01*
Y35108D01*
X159046Y38328D02*
X157513Y35108D01*
X156900Y38328D02*
X159046D01*
X159767Y36488D02*
X162526D01*
X165010Y38328D02*
Y35875D01*
X164857Y35415D01*
X164703Y35261D01*
X164397Y35108D01*
X164090D01*
X163783Y35261D01*
X163630Y35415D01*
X163477Y35875D01*
Y36181D01*
X165991Y37561D02*
Y37714D01*
X166144Y38021D01*
X166297Y38174D01*
X166604Y38328D01*
X167217D01*
X167524Y38174D01*
X167677Y38021D01*
X167831Y37714D01*
Y37408D01*
X167677Y37101D01*
X167371Y36641D01*
X165838Y35108D01*
X167984D01*
X170237Y38328D02*
X168704Y36181D01*
X171004D01*
X170237Y38328D02*
Y35108D01*
X231329Y44076D02*
Y40856D01*
Y44076D02*
X232555Y40856D01*
X233782Y44076D02*
X232555Y40856D01*
X233782Y44076D02*
Y40856D01*
X234701Y44076D02*
Y41776D01*
X234855Y41316D01*
X235161Y41010D01*
X235621Y40856D01*
X235928D01*
X236388Y41010D01*
X236694Y41316D01*
X236847Y41776D01*
Y44076D01*
X237737D02*
X239883Y40856D01*
Y44076D02*
X237737Y40856D01*
X243133Y43462D02*
X243439Y43616D01*
X243899Y44076D01*
Y40856D01*
X245647Y43002D02*
X245494Y42849D01*
X245647Y42696D01*
X245800Y42849D01*
X245647Y43002D01*
Y41163D02*
X245494Y41010D01*
X245647Y40856D01*
X245800Y41010D01*
X245647Y41163D01*
X250568Y44076D02*
Y41623D01*
X250415Y41163D01*
X250261Y41010D01*
X249955Y40856D01*
X249648D01*
X249342Y41010D01*
X249188Y41163D01*
X249035Y41623D01*
Y41929D01*
X251396Y43462D02*
X251702Y43616D01*
X252162Y44076D01*
Y40856D01*
X253756Y43462D02*
X254063Y43616D01*
X254523Y44076D01*
Y40856D01*
X256117Y42236D02*
X258877D01*
X261360Y44076D02*
Y41623D01*
X261207Y41163D01*
X261054Y41010D01*
X260747Y40856D01*
X260440D01*
X260134Y41010D01*
X259981Y41163D01*
X259827Y41623D01*
Y41929D01*
X262188Y43462D02*
X262495Y43616D01*
X262955Y44076D01*
Y40856D01*
X266389Y43616D02*
X266235Y43922D01*
X265775Y44076D01*
X265469D01*
X265009Y43922D01*
X264702Y43462D01*
X264549Y42696D01*
Y41929D01*
X264702Y41316D01*
X265009Y41010D01*
X265469Y40856D01*
X265622D01*
X266082Y41010D01*
X266389Y41316D01*
X266542Y41776D01*
Y41929D01*
X266389Y42389D01*
X266082Y42696D01*
X265622Y42849D01*
X265469D01*
X265009Y42696D01*
X264702Y42389D01*
X264549Y41929D01*
X232037Y136516D02*
Y133297D01*
Y136516D02*
X233264Y133297D01*
X234490Y136516D02*
X233264Y133297D01*
X234490Y136516D02*
Y133297D01*
X235410Y136516D02*
Y134217D01*
X235563Y133757D01*
X235870Y133450D01*
X236330Y133297D01*
X236636D01*
X237096Y133450D01*
X237403Y133757D01*
X237556Y134217D01*
Y136516D01*
X238445D02*
X240592Y133297D01*
Y136516D02*
X238445Y133297D01*
X244148Y136516D02*
X245834D01*
X244915Y135290D01*
X245374D01*
X245681Y135137D01*
X245834Y134984D01*
X245988Y134524D01*
Y134217D01*
X245834Y133757D01*
X245528Y133450D01*
X245068Y133297D01*
X244608D01*
X244148Y133450D01*
X243995Y133604D01*
X243842Y133910D01*
X246862Y135443D02*
X246708Y135290D01*
X246862Y135137D01*
X247015Y135290D01*
X246862Y135443D01*
Y133604D02*
X246708Y133450D01*
X246862Y133297D01*
X247015Y133450D01*
X246862Y133604D01*
X251782Y136516D02*
Y134064D01*
X251629Y133604D01*
X251476Y133450D01*
X251169Y133297D01*
X250863D01*
X250556Y133450D01*
X250403Y133604D01*
X250249Y134064D01*
Y134370D01*
X252917Y136516D02*
X254603D01*
X253683Y135290D01*
X254143D01*
X254450Y135137D01*
X254603Y134984D01*
X254756Y134524D01*
Y134217D01*
X254603Y133757D01*
X254297Y133450D01*
X253837Y133297D01*
X253377D01*
X252917Y133450D01*
X252764Y133604D01*
X252610Y133910D01*
X255477Y134677D02*
X258236D01*
X259187Y135903D02*
X259493Y136057D01*
X259953Y136516D01*
Y133297D01*
X262468Y136516D02*
X262008Y136363D01*
X261701Y135903D01*
X261548Y135137D01*
Y134677D01*
X261701Y133910D01*
X262008Y133450D01*
X262468Y133297D01*
X262774D01*
X263234Y133450D01*
X263541Y133910D01*
X263694Y134677D01*
Y135137D01*
X263541Y135903D01*
X263234Y136363D01*
X262774Y136516D01*
X262468D01*
X241132Y162117D02*
Y158898D01*
Y162117D02*
X242358Y158898D01*
X243585Y162117D02*
X242358Y158898D01*
X243585Y162117D02*
Y158898D01*
X244504Y162117D02*
Y159818D01*
X244658Y159358D01*
X244964Y159051D01*
X245424Y158898D01*
X245731D01*
X246191Y159051D01*
X246497Y159358D01*
X246651Y159818D01*
Y162117D01*
X247540D02*
X249686Y158898D01*
Y162117D02*
X247540Y158898D01*
X250407Y161504D02*
X250713Y161657D01*
X251173Y162117D01*
Y158898D01*
X252767Y157825D02*
X255220D01*
X257780Y161657D02*
X257474Y161964D01*
X257014Y162117D01*
X256400D01*
X255941Y161964D01*
X255634Y161657D01*
Y161351D01*
X255787Y161044D01*
X255941Y160891D01*
X256247Y160737D01*
X257167Y160431D01*
X257474Y160277D01*
X257627Y160124D01*
X257780Y159818D01*
Y159358D01*
X257474Y159051D01*
X257014Y158898D01*
X256400D01*
X255941Y159051D01*
X255634Y159358D01*
X258501Y161504D02*
X258807Y161657D01*
X259267Y162117D01*
Y158898D01*
X79115Y141027D02*
X78808Y141334D01*
X78348Y141487D01*
X77735D01*
X77275Y141334D01*
X76968Y141027D01*
Y140720D01*
X77122Y140414D01*
X77275Y140261D01*
X77582Y140107D01*
X78501Y139801D01*
X78808Y139647D01*
X78961Y139494D01*
X79115Y139188D01*
Y138728D01*
X78808Y138421D01*
X78348Y138268D01*
X77735D01*
X77275Y138421D01*
X76968Y138728D01*
X79835Y141487D02*
Y138268D01*
Y141487D02*
X80908D01*
X81368Y141334D01*
X81675Y141027D01*
X81828Y140720D01*
X81981Y140261D01*
Y139494D01*
X81828Y139034D01*
X81675Y138728D01*
X81368Y138421D01*
X80908Y138268D01*
X79835D01*
X85155D02*
X83928Y141487D01*
X82702Y138268D01*
X83162Y139341D02*
X84695D01*
X58430Y184780D02*
X61649D01*
X58430D02*
Y186160D01*
X58583Y186619D01*
X58736Y186773D01*
X59043Y186926D01*
X59350D01*
X59656Y186773D01*
X59809Y186619D01*
X59963Y186160D01*
Y184780D01*
Y185853D02*
X61649Y186926D01*
X59043Y187646D02*
X58890Y187953D01*
X58430Y188413D01*
X61649D01*
X58430Y191540D02*
X60576Y190007D01*
Y192307D01*
X58430Y191540D02*
X61649D01*
X72233Y68303D02*
Y66003D01*
X72386Y65543D01*
X72693Y65237D01*
X73153Y65083D01*
X73459D01*
X73919Y65237D01*
X74226Y65543D01*
X74379Y66003D01*
Y68303D01*
X75268Y67689D02*
X75575Y67843D01*
X76035Y68303D01*
Y65083D01*
X37454Y102043D02*
Y98823D01*
Y102043D02*
X38834D01*
X39294Y101889D01*
X39447Y101736D01*
X39600Y101429D01*
Y101123D01*
X39447Y100816D01*
X39294Y100663D01*
X38834Y100510D01*
X37454D01*
X38527D02*
X39600Y98823D01*
X40628Y102043D02*
X42314D01*
X41394Y100816D01*
X41854D01*
X42160Y100663D01*
X42314Y100510D01*
X42467Y100050D01*
Y99743D01*
X42314Y99283D01*
X42007Y98977D01*
X41547Y98823D01*
X41087D01*
X40628Y98977D01*
X40474Y99130D01*
X40321Y99437D01*
X46037Y112870D02*
Y109650D01*
Y112870D02*
X47417D01*
X47877Y112716D01*
X48030Y112563D01*
X48183Y112256D01*
Y111950D01*
X48030Y111643D01*
X47877Y111490D01*
X47417Y111337D01*
X46037D01*
X47110D02*
X48183Y109650D01*
X49057Y112103D02*
Y112256D01*
X49210Y112563D01*
X49363Y112716D01*
X49670Y112870D01*
X50283D01*
X50590Y112716D01*
X50743Y112563D01*
X50897Y112256D01*
Y111950D01*
X50743Y111643D01*
X50437Y111183D01*
X48904Y109650D01*
X51050D01*
X70249Y101806D02*
Y98587D01*
Y101806D02*
X71323D01*
X71782Y101653D01*
X72089Y101347D01*
X72242Y101040D01*
X72396Y100580D01*
Y99814D01*
X72242Y99354D01*
X72089Y99047D01*
X71782Y98741D01*
X71323Y98587D01*
X70249D01*
X73269Y101040D02*
Y101193D01*
X73423Y101500D01*
X73576Y101653D01*
X73883Y101806D01*
X74496D01*
X74803Y101653D01*
X74956Y101500D01*
X75109Y101193D01*
Y100887D01*
X74956Y100580D01*
X74649Y100120D01*
X73116Y98587D01*
X75262D01*
X58577Y112712D02*
Y109493D01*
Y112712D02*
X59650D01*
X60110Y112559D01*
X60417Y112252D01*
X60570Y111945D01*
X60723Y111486D01*
Y110719D01*
X60570Y110259D01*
X60417Y109953D01*
X60110Y109646D01*
X59650Y109493D01*
X58577D01*
X61444Y112099D02*
X61750Y112252D01*
X62210Y112712D01*
Y109493D01*
X34117Y91357D02*
X33811Y91203D01*
X33504Y90897D01*
X33351Y90590D01*
Y89977D01*
X33504Y89670D01*
X33811Y89364D01*
X34117Y89210D01*
X34577Y89057D01*
X35344D01*
X35804Y89210D01*
X36110Y89364D01*
X36417Y89670D01*
X36570Y89977D01*
Y90590D01*
X36417Y90897D01*
X36110Y91203D01*
X35804Y91357D01*
X33351Y92568D02*
Y94254D01*
X34577Y93334D01*
Y93794D01*
X34731Y94101D01*
X34884Y94254D01*
X35344Y94407D01*
X35651D01*
X36110Y94254D01*
X36417Y93947D01*
X36570Y93488D01*
Y93028D01*
X36417Y92568D01*
X36264Y92414D01*
X35957Y92261D01*
X41081Y66552D02*
X40928Y66858D01*
X40621Y67165D01*
X40315Y67318D01*
X39701D01*
X39395Y67165D01*
X39088Y66858D01*
X38935Y66552D01*
X38782Y66092D01*
Y65325D01*
X38935Y64865D01*
X39088Y64559D01*
X39395Y64252D01*
X39701Y64099D01*
X40315D01*
X40621Y64252D01*
X40928Y64559D01*
X41081Y64865D01*
X42139Y66552D02*
Y66705D01*
X42292Y67012D01*
X42445Y67165D01*
X42752Y67318D01*
X43365D01*
X43672Y67165D01*
X43825Y67012D01*
X43979Y66705D01*
Y66399D01*
X43825Y66092D01*
X43519Y65632D01*
X41986Y64099D01*
X44132D01*
X186607Y27141D02*
Y24688D01*
X186453Y24228D01*
X186300Y24075D01*
X185993Y23922D01*
X185687D01*
X185380Y24075D01*
X185227Y24228D01*
X185073Y24688D01*
Y24995D01*
X187434Y26528D02*
X187741Y26681D01*
X188201Y27141D01*
Y23922D01*
X191635Y26681D02*
X191481Y26987D01*
X191022Y27141D01*
X190715D01*
X190255Y26987D01*
X189948Y26528D01*
X189795Y25761D01*
Y24995D01*
X189948Y24381D01*
X190255Y24075D01*
X190715Y23922D01*
X190868D01*
X191328Y24075D01*
X191635Y24381D01*
X191788Y24841D01*
Y24995D01*
X191635Y25455D01*
X191328Y25761D01*
X190868Y25914D01*
X190715D01*
X190255Y25761D01*
X189948Y25455D01*
X189795Y24995D01*
X79222Y63342D02*
Y60889D01*
X79069Y60429D01*
X78915Y60276D01*
X78609Y60123D01*
X78302D01*
X77996Y60276D01*
X77842Y60429D01*
X77689Y60889D01*
Y61196D01*
X80050Y61656D02*
X81429D01*
X81889Y61809D01*
X82043Y61962D01*
X82196Y62269D01*
Y62729D01*
X82043Y63035D01*
X81889Y63189D01*
X81429Y63342D01*
X80050D01*
Y60123D01*
X84909Y62269D02*
X84756Y61809D01*
X84449Y61502D01*
X83990Y61349D01*
X83836D01*
X83376Y61502D01*
X83070Y61809D01*
X82916Y62269D01*
Y62422D01*
X83070Y62882D01*
X83376Y63189D01*
X83836Y63342D01*
X83990D01*
X84449Y63189D01*
X84756Y62882D01*
X84909Y62269D01*
Y61502D01*
X84756Y60736D01*
X84449Y60276D01*
X83990Y60123D01*
X83683D01*
X83223Y60276D01*
X83070Y60583D01*
X79657Y95074D02*
Y92621D01*
X79504Y92162D01*
X79351Y92008D01*
X79044Y91855D01*
X78737D01*
X78431Y92008D01*
X78277Y92162D01*
X78124Y92621D01*
Y92928D01*
X80485Y93388D02*
X81865D01*
X82325Y93541D01*
X82478Y93695D01*
X82631Y94001D01*
Y94461D01*
X82478Y94768D01*
X82325Y94921D01*
X81865Y95074D01*
X80485D01*
Y91855D01*
X84118Y95074D02*
X83658Y94921D01*
X83505Y94614D01*
Y94308D01*
X83658Y94001D01*
X83965Y93848D01*
X84578Y93695D01*
X85038Y93541D01*
X85345Y93235D01*
X85498Y92928D01*
Y92468D01*
X85345Y92162D01*
X85191Y92008D01*
X84731Y91855D01*
X84118D01*
X83658Y92008D01*
X83505Y92162D01*
X83352Y92468D01*
Y92928D01*
X83505Y93235D01*
X83812Y93541D01*
X84272Y93695D01*
X84885Y93848D01*
X85191Y94001D01*
X85345Y94308D01*
Y94614D01*
X85191Y94921D01*
X84731Y95074D01*
X84118D01*
X215674Y64065D02*
X217973D01*
X218433Y64218D01*
X218740Y64525D01*
X218893Y64985D01*
Y65291D01*
X218740Y65751D01*
X218433Y66058D01*
X217973Y66211D01*
X215674D01*
Y68633D02*
X217820Y67100D01*
Y69400D01*
X215674Y68633D02*
X218893D01*
X248056Y142986D02*
Y140534D01*
X247902Y140074D01*
X247749Y139920D01*
X247442Y139767D01*
X247136D01*
X246829Y139920D01*
X246676Y140074D01*
X246522Y140534D01*
Y140840D01*
X248883Y141300D02*
X250263D01*
X250723Y141453D01*
X250876Y141607D01*
X251029Y141913D01*
Y142373D01*
X250876Y142680D01*
X250723Y142833D01*
X250263Y142986D01*
X248883D01*
Y139767D01*
X252057Y142986D02*
X253743D01*
X252823Y141760D01*
X253283D01*
X253590Y141607D01*
X253743Y141453D01*
X253896Y140993D01*
Y140687D01*
X253743Y140227D01*
X253436Y139920D01*
X252976Y139767D01*
X252517D01*
X252057Y139920D01*
X251903Y140074D01*
X251750Y140380D01*
X239069Y143026D02*
Y140574D01*
X238915Y140114D01*
X238762Y139960D01*
X238456Y139807D01*
X238149D01*
X237842Y139960D01*
X237689Y140114D01*
X237536Y140574D01*
Y140880D01*
X239897Y141340D02*
X241276D01*
X241736Y141493D01*
X241890Y141647D01*
X242043Y141953D01*
Y142413D01*
X241890Y142720D01*
X241736Y142873D01*
X241276Y143026D01*
X239897D01*
Y139807D01*
X244296Y143026D02*
X242763Y140880D01*
X245063D01*
X244296Y143026D02*
Y139807D01*
X257171Y143184D02*
Y140731D01*
X257018Y140271D01*
X256865Y140118D01*
X256558Y139964D01*
X256251D01*
X255945Y140118D01*
X255791Y140271D01*
X255638Y140731D01*
Y141038D01*
X257999Y141498D02*
X259379D01*
X259839Y141651D01*
X259992Y141804D01*
X260145Y142111D01*
Y142571D01*
X259992Y142877D01*
X259839Y143031D01*
X259379Y143184D01*
X257999D01*
Y139964D01*
X261019Y142417D02*
Y142571D01*
X261172Y142877D01*
X261326Y143031D01*
X261632Y143184D01*
X262245D01*
X262552Y143031D01*
X262705Y142877D01*
X262859Y142571D01*
Y142264D01*
X262705Y141957D01*
X262399Y141498D01*
X260866Y139964D01*
X263012D01*
X139619Y171334D02*
Y168881D01*
X139465Y168421D01*
X139312Y168268D01*
X139005Y168115D01*
X138699D01*
X138392Y168268D01*
X138239Y168421D01*
X138085Y168881D01*
Y169188D01*
X140446Y169648D02*
X141826D01*
X142286Y169801D01*
X142439Y169954D01*
X142593Y170261D01*
Y170721D01*
X142439Y171028D01*
X142286Y171181D01*
X141826Y171334D01*
X140446D01*
Y168115D01*
X143313Y170721D02*
X143620Y170874D01*
X144079Y171334D01*
Y168115D01*
X145980Y171334D02*
X147667D01*
X146747Y170108D01*
X147207D01*
X147513Y169954D01*
X147667Y169801D01*
X147820Y169341D01*
Y169035D01*
X147667Y168575D01*
X147360Y168268D01*
X146900Y168115D01*
X146440D01*
X145980Y168268D01*
X145827Y168421D01*
X145674Y168728D01*
X125721Y171334D02*
Y168881D01*
X125567Y168421D01*
X125414Y168268D01*
X125108Y168115D01*
X124801D01*
X124494Y168268D01*
X124341Y168421D01*
X124188Y168881D01*
Y169188D01*
X126549Y169648D02*
X127928D01*
X128388Y169801D01*
X128542Y169954D01*
X128695Y170261D01*
Y170721D01*
X128542Y171028D01*
X128388Y171181D01*
X127928Y171334D01*
X126549D01*
Y168115D01*
X129415Y170721D02*
X129722Y170874D01*
X130182Y171334D01*
Y168115D01*
X132696Y171334D02*
X132236Y171181D01*
X131930Y170721D01*
X131776Y169954D01*
Y169494D01*
X131930Y168728D01*
X132236Y168268D01*
X132696Y168115D01*
X133003D01*
X133463Y168268D01*
X133769Y168728D01*
X133922Y169494D01*
Y169954D01*
X133769Y170721D01*
X133463Y171181D01*
X133003Y171334D01*
X132696D01*
X163784Y107889D02*
X167003D01*
X163784D02*
Y109269D01*
X163937Y109729D01*
X164091Y109882D01*
X164397Y110036D01*
X164704D01*
X165010Y109882D01*
X165164Y109729D01*
X165317Y109269D01*
Y107889D01*
Y108963D02*
X167003Y110036D01*
X163784Y112596D02*
Y111063D01*
X165164Y110909D01*
X165010Y111063D01*
X164857Y111523D01*
Y111983D01*
X165010Y112443D01*
X165317Y112749D01*
X165777Y112902D01*
X166084D01*
X166543Y112749D01*
X166850Y112443D01*
X167003Y111983D01*
Y111523D01*
X166850Y111063D01*
X166697Y110909D01*
X166390Y110756D01*
X178705Y120252D02*
X181925D01*
X178705D02*
Y121631D01*
X178859Y122091D01*
X179012Y122245D01*
X179318Y122398D01*
X179625D01*
X179932Y122245D01*
X180085Y122091D01*
X180238Y121631D01*
Y120252D01*
Y121325D02*
X181925Y122398D01*
X178705Y124651D02*
X180851Y123118D01*
Y125418D01*
X178705Y124651D02*
X181925D01*
X110595Y107480D02*
X113814D01*
X110595D02*
Y108860D01*
X110748Y109319D01*
X110902Y109473D01*
X111208Y109626D01*
X111515D01*
X111821Y109473D01*
X111975Y109319D01*
X112128Y108860D01*
Y107480D01*
Y108553D02*
X113814Y109626D01*
X111208Y110346D02*
X111055Y110653D01*
X110595Y111113D01*
X113814D01*
X111208Y112707D02*
X111055Y113014D01*
X110595Y113474D01*
X113814D01*
X119611Y106709D02*
X122830D01*
X119611D02*
Y108089D01*
X119764Y108549D01*
X119917Y108702D01*
X120224Y108855D01*
X120531D01*
X120837Y108702D01*
X120991Y108549D01*
X121144Y108089D01*
Y106709D01*
Y107782D02*
X122830Y108855D01*
X120224Y109576D02*
X120071Y109882D01*
X119611Y110342D01*
X122830D01*
X119611Y112856D02*
X119764Y112397D01*
X120224Y112090D01*
X120991Y111937D01*
X121450D01*
X122217Y112090D01*
X122677Y112397D01*
X122830Y112856D01*
Y113163D01*
X122677Y113623D01*
X122217Y113929D01*
X121450Y114083D01*
X120991D01*
X120224Y113929D01*
X119764Y113623D01*
X119611Y113163D01*
Y112856D01*
X128823Y107966D02*
X132043D01*
X128823D02*
Y109346D01*
X128977Y109806D01*
X129130Y109959D01*
X129437Y110112D01*
X129743D01*
X130050Y109959D01*
X130203Y109806D01*
X130356Y109346D01*
Y107966D01*
Y109039D02*
X132043Y110112D01*
X129896Y112826D02*
X130356Y112672D01*
X130663Y112366D01*
X130816Y111906D01*
Y111753D01*
X130663Y111293D01*
X130356Y110986D01*
X129896Y110833D01*
X129743D01*
X129283Y110986D01*
X128977Y111293D01*
X128823Y111753D01*
Y111906D01*
X128977Y112366D01*
X129283Y112672D01*
X129896Y112826D01*
X130663D01*
X131430Y112672D01*
X131889Y112366D01*
X132043Y111906D01*
Y111599D01*
X131889Y111139D01*
X131583Y110986D01*
X137760Y107970D02*
X140980D01*
X137760D02*
Y109350D01*
X137914Y109810D01*
X138067Y109963D01*
X138374Y110117D01*
X138680D01*
X138987Y109963D01*
X139140Y109810D01*
X139293Y109350D01*
Y107970D01*
Y109044D02*
X140980Y110117D01*
X137760Y111604D02*
X137914Y111144D01*
X138220Y110990D01*
X138527D01*
X138833Y111144D01*
X138987Y111450D01*
X139140Y112064D01*
X139293Y112523D01*
X139600Y112830D01*
X139907Y112983D01*
X140366D01*
X140673Y112830D01*
X140826Y112677D01*
X140980Y112217D01*
Y111604D01*
X140826Y111144D01*
X140673Y110990D01*
X140366Y110837D01*
X139907D01*
X139600Y110990D01*
X139293Y111297D01*
X139140Y111757D01*
X138987Y112370D01*
X138833Y112677D01*
X138527Y112830D01*
X138220D01*
X137914Y112677D01*
X137760Y112217D01*
Y111604D01*
X146028Y107889D02*
X149248D01*
X146028D02*
Y109269D01*
X146181Y109729D01*
X146335Y109882D01*
X146641Y110036D01*
X146948D01*
X147255Y109882D01*
X147408Y109729D01*
X147561Y109269D01*
Y107889D01*
Y108963D02*
X149248Y110036D01*
X146028Y112902D02*
X149248Y111369D01*
X146028Y110756D02*
Y112902D01*
X154926Y107885D02*
X158145D01*
X154926D02*
Y109265D01*
X155079Y109725D01*
X155232Y109878D01*
X155539Y110031D01*
X155846D01*
X156152Y109878D01*
X156306Y109725D01*
X156459Y109265D01*
Y107885D01*
Y108958D02*
X158145Y110031D01*
X155386Y112592D02*
X155079Y112438D01*
X154926Y111978D01*
Y111672D01*
X155079Y111212D01*
X155539Y110905D01*
X156306Y110752D01*
X157072D01*
X157685Y110905D01*
X157992Y111212D01*
X158145Y111672D01*
Y111825D01*
X157992Y112285D01*
X157685Y112592D01*
X157225Y112745D01*
X157072D01*
X156612Y112592D01*
X156306Y112285D01*
X156152Y111825D01*
Y111672D01*
X156306Y111212D01*
X156612Y110905D01*
X157072Y110752D01*
X221701Y135822D02*
Y133523D01*
X221854Y133063D01*
X222161Y132756D01*
X222620Y132603D01*
X222927D01*
X223387Y132756D01*
X223693Y133063D01*
X223847Y133523D01*
Y135822D01*
X226882D02*
X225349Y132603D01*
X224736Y135822D02*
X226882D01*
X287302Y128599D02*
X287148Y128906D01*
X286842Y129212D01*
X286535Y129366D01*
X285922D01*
X285615Y129212D01*
X285309Y128906D01*
X285155Y128599D01*
X285002Y128139D01*
Y127373D01*
X285155Y126913D01*
X285309Y126606D01*
X285615Y126300D01*
X285922Y126146D01*
X286535D01*
X286842Y126300D01*
X287148Y126606D01*
X287302Y126913D01*
X288973Y129366D02*
X288513Y129212D01*
X288359Y128906D01*
Y128599D01*
X288513Y128293D01*
X288819Y128139D01*
X289433Y127986D01*
X289892Y127833D01*
X290199Y127526D01*
X290352Y127219D01*
Y126760D01*
X290199Y126453D01*
X290046Y126300D01*
X289586Y126146D01*
X288973D01*
X288513Y126300D01*
X288359Y126453D01*
X288206Y126760D01*
Y127219D01*
X288359Y127526D01*
X288666Y127833D01*
X289126Y127986D01*
X289739Y128139D01*
X290046Y128293D01*
X290199Y128599D01*
Y128906D01*
X290046Y129212D01*
X289586Y129366D01*
X288973D01*
X174336Y43775D02*
Y41475D01*
X174490Y41016D01*
X174796Y40709D01*
X175256Y40556D01*
X175563D01*
X176023Y40709D01*
X176329Y41016D01*
X176482Y41475D01*
Y43775D01*
X179211Y43315D02*
X179058Y43622D01*
X178598Y43775D01*
X178291D01*
X177831Y43622D01*
X177525Y43162D01*
X177372Y42395D01*
Y41629D01*
X177525Y41016D01*
X177831Y40709D01*
X178291Y40556D01*
X178445D01*
X178905Y40709D01*
X179211Y41016D01*
X179365Y41475D01*
Y41629D01*
X179211Y42089D01*
X178905Y42395D01*
X178445Y42549D01*
X178291D01*
X177831Y42395D01*
X177525Y42089D01*
X177372Y41629D01*
X319299Y180305D02*
X321752D01*
X322212Y180152D01*
X322365Y179999D01*
X322518Y179692D01*
Y179385D01*
X322365Y179079D01*
X322212Y178926D01*
X321752Y178772D01*
X321445D01*
X319299Y182666D02*
X321445Y181133D01*
Y183432D01*
X319299Y182666D02*
X322518D01*
X25326Y27673D02*
Y25220D01*
X25173Y24760D01*
X25020Y24607D01*
X24713Y24453D01*
X24407D01*
X24100Y24607D01*
X23947Y24760D01*
X23793Y25220D01*
Y25526D01*
X26308Y26906D02*
Y27059D01*
X26461Y27366D01*
X26614Y27519D01*
X26921Y27673D01*
X27534D01*
X27841Y27519D01*
X27994Y27366D01*
X28147Y27059D01*
Y26753D01*
X27994Y26446D01*
X27687Y25986D01*
X26154Y24453D01*
X28300D01*
X29328Y27673D02*
X31014D01*
X30094Y26446D01*
X30554D01*
X30861Y26293D01*
X31014Y26140D01*
X31167Y25680D01*
Y25373D01*
X31014Y24913D01*
X30707Y24607D01*
X30247Y24453D01*
X29787D01*
X29328Y24607D01*
X29174Y24760D01*
X29021Y25067D01*
X36225Y184856D02*
X39444D01*
X36225D02*
Y186236D01*
X36378Y186696D01*
X36532Y186849D01*
X36838Y187003D01*
X37145D01*
X37451Y186849D01*
X37605Y186696D01*
X37758Y186236D01*
Y184856D01*
Y185930D02*
X39444Y187003D01*
X36838Y187723D02*
X36685Y188030D01*
X36225Y188490D01*
X39444D01*
X36225Y191924D02*
Y190391D01*
X37605Y190237D01*
X37451Y190391D01*
X37298Y190850D01*
Y191310D01*
X37451Y191770D01*
X37758Y192077D01*
X38218Y192230D01*
X38524D01*
X38984Y192077D01*
X39291Y191770D01*
X39444Y191310D01*
Y190850D01*
X39291Y190391D01*
X39138Y190237D01*
X38831Y190084D01*
X80839Y133696D02*
Y131244D01*
X80686Y130784D01*
X80532Y130630D01*
X80226Y130477D01*
X79919D01*
X79612Y130630D01*
X79459Y130784D01*
X79306Y131244D01*
Y131550D01*
X81667Y132010D02*
X83047D01*
X83506Y132163D01*
X83660Y132317D01*
X83813Y132623D01*
Y133083D01*
X83660Y133390D01*
X83506Y133543D01*
X83047Y133696D01*
X81667D01*
Y130477D01*
X84534Y133083D02*
X84840Y133236D01*
X85300Y133696D01*
Y130477D01*
X87048Y132930D02*
Y133083D01*
X87201Y133390D01*
X87354Y133543D01*
X87661Y133696D01*
X88274D01*
X88581Y133543D01*
X88734Y133390D01*
X88887Y133083D01*
Y132776D01*
X88734Y132470D01*
X88427Y132010D01*
X86894Y130477D01*
X89040D01*
X92828Y156373D02*
Y153921D01*
X92675Y153461D01*
X92521Y153307D01*
X92215Y153154D01*
X91908D01*
X91602Y153307D01*
X91448Y153461D01*
X91295Y153921D01*
Y154227D01*
X93656Y154687D02*
X95035D01*
X95495Y154840D01*
X95649Y154994D01*
X95802Y155300D01*
Y155760D01*
X95649Y156067D01*
X95495Y156220D01*
X95035Y156373D01*
X93656D01*
Y153154D01*
X96523Y155760D02*
X96829Y155913D01*
X97289Y156373D01*
Y153154D01*
X98883Y155760D02*
X99190Y155913D01*
X99650Y156373D01*
Y153154D01*
X141767Y27141D02*
Y24688D01*
X141613Y24228D01*
X141460Y24075D01*
X141154Y23922D01*
X140847D01*
X140540Y24075D01*
X140387Y24228D01*
X140234Y24688D01*
Y24995D01*
X142595Y26528D02*
X142901Y26681D01*
X143361Y27141D01*
Y23922D01*
X145722Y27141D02*
X145262Y26987D01*
X145109Y26681D01*
Y26374D01*
X145262Y26068D01*
X145569Y25914D01*
X146182Y25761D01*
X146642Y25608D01*
X146948Y25301D01*
X147102Y24995D01*
Y24535D01*
X146948Y24228D01*
X146795Y24075D01*
X146335Y23922D01*
X145722D01*
X145262Y24075D01*
X145109Y24228D01*
X144955Y24535D01*
Y24995D01*
X145109Y25301D01*
X145415Y25608D01*
X145875Y25761D01*
X146488Y25914D01*
X146795Y26068D01*
X146948Y26374D01*
Y26681D01*
X146795Y26987D01*
X146335Y27141D01*
X145722D01*
X259192D02*
Y24688D01*
X259039Y24228D01*
X258886Y24075D01*
X258579Y23922D01*
X258272D01*
X257966Y24075D01*
X257812Y24228D01*
X257659Y24688D01*
Y24995D01*
X260020Y26528D02*
X260327Y26681D01*
X260787Y27141D01*
Y23922D01*
X263914Y27141D02*
X262381Y24995D01*
X264680D01*
X263914Y27141D02*
Y23922D01*
X319299Y42587D02*
X321752D01*
X322212Y42434D01*
X322365Y42281D01*
X322518Y41974D01*
Y41668D01*
X322365Y41361D01*
X322212Y41208D01*
X321752Y41054D01*
X321445D01*
X319912Y43415D02*
X319759Y43722D01*
X319299Y44182D01*
X322518D01*
X319299Y46696D02*
X319452Y46236D01*
X319912Y45929D01*
X320679Y45776D01*
X321139D01*
X321905Y45929D01*
X322365Y46236D01*
X322518Y46696D01*
Y47002D01*
X322365Y47462D01*
X321905Y47769D01*
X321139Y47922D01*
X320679D01*
X319912Y47769D01*
X319452Y47462D01*
X319299Y47002D01*
Y46696D01*
Y136453D02*
X321752D01*
X322212Y136299D01*
X322365Y136146D01*
X322518Y135839D01*
Y135533D01*
X322365Y135226D01*
X322212Y135073D01*
X321752Y134920D01*
X321445D01*
X319759Y139120D02*
X319452Y138967D01*
X319299Y138507D01*
Y138200D01*
X319452Y137740D01*
X319912Y137434D01*
X320679Y137280D01*
X321445D01*
X322058Y137434D01*
X322365Y137740D01*
X322518Y138200D01*
Y138354D01*
X322365Y138813D01*
X322058Y139120D01*
X321599Y139273D01*
X321445D01*
X320985Y139120D01*
X320679Y138813D01*
X320525Y138354D01*
Y138200D01*
X320679Y137740D01*
X320985Y137434D01*
X321445Y137280D01*
X24179Y132358D02*
X26631D01*
X27091Y132205D01*
X27245Y132051D01*
X27398Y131745D01*
Y131438D01*
X27245Y131132D01*
X27091Y130978D01*
X26631Y130825D01*
X26325D01*
X24945Y133339D02*
X24792D01*
X24485Y133493D01*
X24332Y133646D01*
X24179Y133952D01*
Y134566D01*
X24332Y134872D01*
X24485Y135026D01*
X24792Y135179D01*
X25098D01*
X25405Y135026D01*
X25865Y134719D01*
X27398Y133186D01*
Y135332D01*
X24179Y136819D02*
X24332Y136359D01*
X24638Y136206D01*
X24945D01*
X25252Y136359D01*
X25405Y136666D01*
X25558Y137279D01*
X25712Y137739D01*
X26018Y138046D01*
X26325Y138199D01*
X26785D01*
X27091Y138046D01*
X27245Y137892D01*
X27398Y137432D01*
Y136819D01*
X27245Y136359D01*
X27091Y136206D01*
X26785Y136053D01*
X26325D01*
X26018Y136206D01*
X25712Y136512D01*
X25558Y136972D01*
X25405Y137586D01*
X25252Y137892D01*
X24945Y138046D01*
X24638D01*
X24332Y137892D01*
X24179Y137432D01*
Y136819D01*
X24117Y87499D02*
X26570D01*
X27030Y87345D01*
X27183Y87192D01*
X27337Y86886D01*
Y86579D01*
X27183Y86272D01*
X27030Y86119D01*
X26570Y85966D01*
X26263D01*
X24884Y88480D02*
X24731D01*
X24424Y88633D01*
X24271Y88787D01*
X24117Y89093D01*
Y89706D01*
X24271Y90013D01*
X24424Y90166D01*
X24731Y90320D01*
X25037D01*
X25344Y90166D01*
X25804Y89860D01*
X27337Y88327D01*
Y90473D01*
X24577Y93033D02*
X24271Y92880D01*
X24117Y92420D01*
Y92113D01*
X24271Y91653D01*
X24731Y91347D01*
X25497Y91193D01*
X26263D01*
X26877Y91347D01*
X27183Y91653D01*
X27337Y92113D01*
Y92266D01*
X27183Y92726D01*
X26877Y93033D01*
X26417Y93186D01*
X26263D01*
X25804Y93033D01*
X25497Y92726D01*
X25344Y92266D01*
Y92113D01*
X25497Y91653D01*
X25804Y91347D01*
X26263Y91193D01*
X164167Y27141D02*
Y24688D01*
X164013Y24228D01*
X163860Y24075D01*
X163554Y23922D01*
X163247D01*
X162940Y24075D01*
X162787Y24228D01*
X162634Y24688D01*
Y24995D01*
X164995Y26528D02*
X165301Y26681D01*
X165761Y27141D01*
Y23922D01*
X169502Y27141D02*
X167969Y23922D01*
X167355Y27141D02*
X169502D01*
X281588D02*
Y24688D01*
X281435Y24228D01*
X281281Y24075D01*
X280975Y23922D01*
X280668D01*
X280362Y24075D01*
X280208Y24228D01*
X280055Y24688D01*
Y24995D01*
X282416Y26528D02*
X282722Y26681D01*
X283182Y27141D01*
Y23922D01*
X285083Y27141D02*
X286770D01*
X285850Y25914D01*
X286310D01*
X286616Y25761D01*
X286770Y25608D01*
X286923Y25148D01*
Y24841D01*
X286770Y24381D01*
X286463Y24075D01*
X286003Y23922D01*
X285543D01*
X285083Y24075D01*
X284930Y24228D01*
X284777Y24535D01*
X319299Y69072D02*
X321752D01*
X322212Y68918D01*
X322365Y68765D01*
X322518Y68458D01*
Y68152D01*
X322365Y67845D01*
X322212Y67692D01*
X321752Y67538D01*
X321445D01*
X320372Y71892D02*
X320832Y71739D01*
X321139Y71432D01*
X321292Y70973D01*
Y70819D01*
X321139Y70359D01*
X320832Y70053D01*
X320372Y69899D01*
X320219D01*
X319759Y70053D01*
X319452Y70359D01*
X319299Y70819D01*
Y70973D01*
X319452Y71432D01*
X319759Y71739D01*
X320372Y71892D01*
X321139D01*
X321905Y71739D01*
X322365Y71432D01*
X322518Y70973D01*
Y70666D01*
X322365Y70206D01*
X322058Y70053D01*
X319299Y157823D02*
X321752D01*
X322212Y157669D01*
X322365Y157516D01*
X322518Y157210D01*
Y156903D01*
X322365Y156596D01*
X322212Y156443D01*
X321752Y156290D01*
X321445D01*
X319299Y160490D02*
Y158957D01*
X320679Y158804D01*
X320525Y158957D01*
X320372Y159417D01*
Y159877D01*
X320525Y160337D01*
X320832Y160643D01*
X321292Y160797D01*
X321599D01*
X322058Y160643D01*
X322365Y160337D01*
X322518Y159877D01*
Y159417D01*
X322365Y158957D01*
X322212Y158804D01*
X321905Y158651D01*
X24171Y109888D02*
X26624D01*
X27084Y109735D01*
X27237Y109582D01*
X27391Y109275D01*
Y108968D01*
X27237Y108662D01*
X27084Y108509D01*
X26624Y108355D01*
X26318D01*
X24938Y110869D02*
X24785D01*
X24478Y111023D01*
X24325Y111176D01*
X24171Y111483D01*
Y112096D01*
X24325Y112402D01*
X24478Y112556D01*
X24785Y112709D01*
X25091D01*
X25398Y112556D01*
X25858Y112249D01*
X27391Y110716D01*
Y112862D01*
X24171Y115729D02*
X27391Y114196D01*
X24171Y113583D02*
Y115729D01*
X24168Y65002D02*
X26621D01*
X27081Y64849D01*
X27234Y64696D01*
X27388Y64389D01*
Y64083D01*
X27234Y63776D01*
X27081Y63623D01*
X26621Y63469D01*
X26315D01*
X24935Y65984D02*
X24782D01*
X24475Y66137D01*
X24322Y66290D01*
X24168Y66597D01*
Y67210D01*
X24322Y67517D01*
X24475Y67670D01*
X24782Y67823D01*
X25088D01*
X25395Y67670D01*
X25855Y67363D01*
X27388Y65830D01*
Y67976D01*
X24168Y70537D02*
Y69004D01*
X25548Y68850D01*
X25395Y69004D01*
X25242Y69463D01*
Y69923D01*
X25395Y70383D01*
X25701Y70690D01*
X26161Y70843D01*
X26468D01*
X26928Y70690D01*
X27234Y70383D01*
X27388Y69923D01*
Y69463D01*
X27234Y69004D01*
X27081Y68850D01*
X26774Y68697D01*
X74426Y27141D02*
Y24688D01*
X74272Y24228D01*
X74119Y24075D01*
X73813Y23922D01*
X73506D01*
X73199Y24075D01*
X73046Y24228D01*
X72893Y24688D01*
Y24995D01*
X75407Y26374D02*
Y26528D01*
X75560Y26834D01*
X75713Y26987D01*
X76020Y27141D01*
X76633D01*
X76940Y26987D01*
X77093Y26834D01*
X77246Y26528D01*
Y26221D01*
X77093Y25914D01*
X76787Y25455D01*
X75254Y23922D01*
X77400D01*
X78120Y26528D02*
X78427Y26681D01*
X78887Y27141D01*
Y23922D01*
X304076Y27163D02*
Y24710D01*
X303923Y24250D01*
X303769Y24097D01*
X303463Y23944D01*
X303156D01*
X302850Y24097D01*
X302696Y24250D01*
X302543Y24710D01*
Y25017D01*
X304904Y26550D02*
X305211Y26703D01*
X305670Y27163D01*
Y23944D01*
X307418Y26396D02*
Y26550D01*
X307571Y26856D01*
X307725Y27009D01*
X308031Y27163D01*
X308645D01*
X308951Y27009D01*
X309104Y26856D01*
X309258Y26550D01*
Y26243D01*
X309104Y25936D01*
X308798Y25477D01*
X307265Y23944D01*
X309411D01*
X319299Y91466D02*
X321752D01*
X322212Y91312D01*
X322365Y91159D01*
X322518Y90852D01*
Y90546D01*
X322365Y90239D01*
X322212Y90086D01*
X321752Y89933D01*
X321445D01*
X319299Y93060D02*
X319452Y92600D01*
X319759Y92447D01*
X320065D01*
X320372Y92600D01*
X320525Y92907D01*
X320679Y93520D01*
X320832Y93980D01*
X321139Y94287D01*
X321445Y94440D01*
X321905D01*
X322212Y94287D01*
X322365Y94133D01*
X322518Y93673D01*
Y93060D01*
X322365Y92600D01*
X322212Y92447D01*
X321905Y92294D01*
X321445D01*
X321139Y92447D01*
X320832Y92753D01*
X320679Y93213D01*
X320525Y93827D01*
X320372Y94133D01*
X320065Y94287D01*
X319759D01*
X319452Y94133D01*
X319299Y93673D01*
Y93060D01*
X51993Y27201D02*
Y24748D01*
X51840Y24288D01*
X51687Y24135D01*
X51380Y23981D01*
X51074D01*
X50767Y24135D01*
X50614Y24288D01*
X50460Y24748D01*
Y25054D01*
X52975Y26434D02*
Y26587D01*
X53128Y26894D01*
X53281Y27047D01*
X53588Y27201D01*
X54201D01*
X54508Y27047D01*
X54661Y26894D01*
X54814Y26587D01*
Y26281D01*
X54661Y25974D01*
X54354Y25514D01*
X52821Y23981D01*
X54967D01*
X55841Y26434D02*
Y26587D01*
X55995Y26894D01*
X56148Y27047D01*
X56454Y27201D01*
X57068D01*
X57374Y27047D01*
X57528Y26894D01*
X57681Y26587D01*
Y26281D01*
X57528Y25974D01*
X57221Y25514D01*
X55688Y23981D01*
X57834D01*
X96898Y27186D02*
Y24733D01*
X96745Y24273D01*
X96592Y24120D01*
X96285Y23966D01*
X95978D01*
X95672Y24120D01*
X95518Y24273D01*
X95365Y24733D01*
Y25039D01*
X97879Y26419D02*
Y26572D01*
X98033Y26879D01*
X98186Y27032D01*
X98492Y27186D01*
X99106D01*
X99412Y27032D01*
X99566Y26879D01*
X99719Y26572D01*
Y26266D01*
X99566Y25959D01*
X99259Y25499D01*
X97726Y23966D01*
X99872D01*
X101513Y27186D02*
X101053Y27032D01*
X100746Y26572D01*
X100593Y25806D01*
Y25346D01*
X100746Y24580D01*
X101053Y24120D01*
X101513Y23966D01*
X101819D01*
X102279Y24120D01*
X102586Y24580D01*
X102739Y25346D01*
Y25806D01*
X102586Y26572D01*
X102279Y27032D01*
X101819Y27186D01*
X101513D01*
X119347Y27189D02*
Y24736D01*
X119193Y24276D01*
X119040Y24123D01*
X118734Y23969D01*
X118427D01*
X118120Y24123D01*
X117967Y24276D01*
X117814Y24736D01*
Y25043D01*
X120175Y26576D02*
X120481Y26729D01*
X120941Y27189D01*
Y23969D01*
X124528Y26116D02*
X124375Y25656D01*
X124068Y25349D01*
X123608Y25196D01*
X123455D01*
X122995Y25349D01*
X122689Y25656D01*
X122535Y26116D01*
Y26269D01*
X122689Y26729D01*
X122995Y27035D01*
X123455Y27189D01*
X123608D01*
X124068Y27035D01*
X124375Y26729D01*
X124528Y26116D01*
Y25349D01*
X124375Y24583D01*
X124068Y24123D01*
X123608Y23969D01*
X123302D01*
X122842Y24123D01*
X122689Y24429D01*
X209111Y27141D02*
Y24688D01*
X208958Y24228D01*
X208804Y24075D01*
X208498Y23922D01*
X208191D01*
X207884Y24075D01*
X207731Y24228D01*
X207578Y24688D01*
Y24995D01*
X209939Y26528D02*
X210245Y26681D01*
X210705Y27141D01*
Y23922D01*
X214139Y27141D02*
X212606D01*
X212453Y25761D01*
X212606Y25914D01*
X213066Y26068D01*
X213526D01*
X213986Y25914D01*
X214292Y25608D01*
X214446Y25148D01*
Y24841D01*
X214292Y24381D01*
X213986Y24075D01*
X213526Y23922D01*
X213066D01*
X212606Y24075D01*
X212453Y24228D01*
X212299Y24535D01*
X318631Y27121D02*
Y24669D01*
X318478Y24209D01*
X318325Y24056D01*
X318018Y23902D01*
X317712D01*
X317405Y24056D01*
X317252Y24209D01*
X317098Y24669D01*
Y24975D01*
X319459Y26508D02*
X319766Y26662D01*
X320226Y27121D01*
Y23902D01*
X321820Y26508D02*
X322127Y26662D01*
X322587Y27121D01*
Y23902D01*
X319299Y113938D02*
X321752D01*
X322212Y113785D01*
X322365Y113631D01*
X322518Y113325D01*
Y113018D01*
X322365Y112711D01*
X322212Y112558D01*
X321752Y112405D01*
X321445D01*
X319299Y116912D02*
X322518Y115379D01*
X319299Y114766D02*
Y116912D01*
X319299Y203138D02*
X321752D01*
X322212Y202984D01*
X322365Y202831D01*
X322518Y202525D01*
Y202218D01*
X322365Y201911D01*
X322212Y201758D01*
X321752Y201605D01*
X321445D01*
X319299Y204272D02*
Y205959D01*
X320525Y205039D01*
Y205499D01*
X320679Y205805D01*
X320832Y205959D01*
X321292Y206112D01*
X321599D01*
X322058Y205959D01*
X322365Y205652D01*
X322518Y205192D01*
Y204732D01*
X322365Y204272D01*
X322212Y204119D01*
X321905Y203966D01*
X28689Y195074D02*
Y192621D01*
X28536Y192162D01*
X28382Y192008D01*
X28076Y191855D01*
X27769D01*
X27463Y192008D01*
X27309Y192162D01*
X27156Y192621D01*
Y192928D01*
X29670Y194308D02*
Y194461D01*
X29823Y194768D01*
X29977Y194921D01*
X30283Y195074D01*
X30896D01*
X31203Y194921D01*
X31356Y194768D01*
X31510Y194461D01*
Y194154D01*
X31356Y193848D01*
X31050Y193388D01*
X29517Y191855D01*
X31663D01*
X190359Y64417D02*
X192658D01*
X193118Y64570D01*
X193425Y64877D01*
X193578Y65337D01*
Y65644D01*
X193425Y66103D01*
X193118Y66410D01*
X192658Y66563D01*
X190359D01*
Y69292D02*
Y67759D01*
X191738Y67606D01*
X191585Y67759D01*
X191432Y68219D01*
Y68679D01*
X191585Y69139D01*
X191892Y69445D01*
X192352Y69599D01*
X192658D01*
X193118Y69445D01*
X193425Y69139D01*
X193578Y68679D01*
Y68219D01*
X193425Y67759D01*
X193272Y67606D01*
X192965Y67452D01*
X118080Y102318D02*
Y99866D01*
X117927Y99406D01*
X117774Y99252D01*
X117467Y99099D01*
X117160D01*
X116854Y99252D01*
X116700Y99406D01*
X116547Y99866D01*
Y100172D01*
X118908Y100632D02*
X120288D01*
X120748Y100785D01*
X120901Y100939D01*
X121054Y101245D01*
Y101705D01*
X120901Y102012D01*
X120748Y102165D01*
X120288Y102318D01*
X118908D01*
Y99099D01*
X123614Y101858D02*
X123461Y102165D01*
X123001Y102318D01*
X122695D01*
X122235Y102165D01*
X121928Y101705D01*
X121775Y100939D01*
Y100172D01*
X121928Y99559D01*
X122235Y99252D01*
X122695Y99099D01*
X122848D01*
X123308Y99252D01*
X123614Y99559D01*
X123768Y100019D01*
Y100172D01*
X123614Y100632D01*
X123308Y100939D01*
X122848Y101092D01*
X122695D01*
X122235Y100939D01*
X121928Y100632D01*
X121775Y100172D01*
X107138Y102318D02*
Y99866D01*
X106984Y99406D01*
X106831Y99252D01*
X106524Y99099D01*
X106218D01*
X105911Y99252D01*
X105758Y99406D01*
X105605Y99866D01*
Y100172D01*
X107965Y100632D02*
X109345D01*
X109805Y100785D01*
X109958Y100939D01*
X110111Y101245D01*
Y101705D01*
X109958Y102012D01*
X109805Y102165D01*
X109345Y102318D01*
X107965D01*
Y99099D01*
X112672Y102318D02*
X111139D01*
X110985Y100939D01*
X111139Y101092D01*
X111599Y101245D01*
X112058D01*
X112518Y101092D01*
X112825Y100785D01*
X112978Y100325D01*
Y100019D01*
X112825Y99559D01*
X112518Y99252D01*
X112058Y99099D01*
X111599D01*
X111139Y99252D01*
X110985Y99406D01*
X110832Y99712D01*
X193054Y108916D02*
X192748Y108762D01*
X192441Y108456D01*
X192288Y108149D01*
Y107536D01*
X192441Y107229D01*
X192748Y106923D01*
X193054Y106770D01*
X193514Y106616D01*
X194281D01*
X194741Y106770D01*
X195047Y106923D01*
X195354Y107229D01*
X195507Y107536D01*
Y108149D01*
X195354Y108456D01*
X195047Y108762D01*
X194741Y108916D01*
X192288Y111966D02*
X195507Y110433D01*
X192288Y109820D02*
Y111966D01*
X130254Y44623D02*
X130101Y44929D01*
X129794Y45236D01*
X129488Y45389D01*
X128875D01*
X128568Y45236D01*
X128261Y44929D01*
X128108Y44623D01*
X127955Y44163D01*
Y43396D01*
X128108Y42936D01*
X128261Y42630D01*
X128568Y42323D01*
X128875Y42170D01*
X129488D01*
X129794Y42323D01*
X130101Y42630D01*
X130254Y42936D01*
X132998Y45389D02*
X131465D01*
X131312Y44010D01*
X131465Y44163D01*
X131925Y44316D01*
X132385D01*
X132845Y44163D01*
X133152Y43856D01*
X133305Y43396D01*
Y43090D01*
X133152Y42630D01*
X132845Y42323D01*
X132385Y42170D01*
X131925D01*
X131465Y42323D01*
X131312Y42476D01*
X131159Y42783D01*
X222252Y44011D02*
Y41712D01*
X222405Y41252D01*
X222712Y40945D01*
X223171Y40792D01*
X223478D01*
X223938Y40945D01*
X224245Y41252D01*
X224398Y41712D01*
Y44011D01*
X225594D02*
X227280D01*
X226360Y42785D01*
X226820D01*
X227127Y42632D01*
X227280Y42478D01*
X227433Y42018D01*
Y41712D01*
X227280Y41252D01*
X226973Y40945D01*
X226514Y40792D01*
X226054D01*
X225594Y40945D01*
X225440Y41098D01*
X225287Y41405D01*
X109690Y159889D02*
X111989D01*
X112449Y160043D01*
X112756Y160349D01*
X112909Y160809D01*
Y161116D01*
X112756Y161576D01*
X112449Y161882D01*
X111989Y162036D01*
X109690D01*
X110456Y163078D02*
X110303D01*
X109996Y163232D01*
X109843Y163385D01*
X109690Y163691D01*
Y164305D01*
X109843Y164611D01*
X109996Y164764D01*
X110303Y164918D01*
X110609D01*
X110916Y164764D01*
X111376Y164458D01*
X112909Y162925D01*
Y165071D01*
X161018Y140625D02*
Y137406D01*
Y140625D02*
X162398D01*
X162858Y140472D01*
X163011Y140319D01*
X163164Y140012D01*
Y139706D01*
X163011Y139399D01*
X162858Y139246D01*
X162398Y139092D01*
X161018D01*
X162091D02*
X163164Y137406D01*
X163885Y140012D02*
X164191Y140165D01*
X164651Y140625D01*
Y137406D01*
X138712Y99759D02*
Y97307D01*
X138559Y96847D01*
X138406Y96693D01*
X138099Y96540D01*
X137793D01*
X137486Y96693D01*
X137333Y96847D01*
X137179Y97307D01*
Y97613D01*
X139540Y98073D02*
X140920D01*
X141380Y98226D01*
X141533Y98380D01*
X141686Y98686D01*
Y99146D01*
X141533Y99453D01*
X141380Y99606D01*
X140920Y99759D01*
X139540D01*
Y96540D01*
X144553Y99759D02*
X143020Y96540D01*
X142407Y99759D02*
X144553D01*
X109678Y73499D02*
Y71047D01*
X109524Y70587D01*
X109371Y70433D01*
X109064Y70280D01*
X108758D01*
X108451Y70433D01*
X108298Y70587D01*
X108145Y71047D01*
Y71353D01*
X110505Y71813D02*
X111885D01*
X112345Y71966D01*
X112498Y72120D01*
X112652Y72426D01*
Y72886D01*
X112498Y73193D01*
X112345Y73346D01*
X111885Y73499D01*
X110505D01*
Y70280D01*
X113372Y72886D02*
X113679Y73040D01*
X114139Y73499D01*
Y70280D01*
X277146Y90410D02*
X276993Y90717D01*
X276686Y91023D01*
X276380Y91177D01*
X275766D01*
X275460Y91023D01*
X275153Y90717D01*
X275000Y90410D01*
X274847Y89950D01*
Y89184D01*
X275000Y88724D01*
X275153Y88417D01*
X275460Y88111D01*
X275766Y87957D01*
X276380D01*
X276686Y88111D01*
X276993Y88417D01*
X277146Y88724D01*
X279584Y91177D02*
X278051Y89030D01*
X280350D01*
X279584Y91177D02*
Y87957D01*
X216991Y106945D02*
X216685Y106792D01*
X216378Y106485D01*
X216225Y106179D01*
Y105566D01*
X216378Y105259D01*
X216685Y104952D01*
X216991Y104799D01*
X217451Y104646D01*
X218218D01*
X218678Y104799D01*
X218984Y104952D01*
X219291Y105259D01*
X219444Y105566D01*
Y106179D01*
X219291Y106485D01*
X218984Y106792D01*
X218678Y106945D01*
X216685Y109689D02*
X216378Y109536D01*
X216225Y109076D01*
Y108769D01*
X216378Y108309D01*
X216838Y108003D01*
X217605Y107850D01*
X218371D01*
X218984Y108003D01*
X219291Y108309D01*
X219444Y108769D01*
Y108923D01*
X219291Y109383D01*
X218984Y109689D01*
X218525Y109843D01*
X218371D01*
X217911Y109689D01*
X217605Y109383D01*
X217451Y108923D01*
Y108769D01*
X217605Y108309D01*
X217911Y108003D01*
X218371Y107850D01*
X163110Y145568D02*
X162956Y145874D01*
X162650Y146181D01*
X162343Y146334D01*
X161730D01*
X161423Y146181D01*
X161117Y145874D01*
X160963Y145568D01*
X160810Y145108D01*
Y144341D01*
X160963Y143881D01*
X161117Y143575D01*
X161423Y143268D01*
X161730Y143115D01*
X162343D01*
X162650Y143268D01*
X162956Y143575D01*
X163110Y143881D01*
X164014Y145721D02*
X164321Y145874D01*
X164780Y146334D01*
Y143115D01*
M02*
