G04*
G04 #@! TF.GenerationSoftware,Altium Limited,Altium Designer,22.2.1 (43)*
G04*
G04 Layer_Physical_Order=1*
G04 Layer_Color=255*
%FSLAX25Y25*%
%MOIN*%
G70*
G04*
G04 #@! TF.SameCoordinates,97A6E9F3-C8AE-4924-B40C-96554566FD82*
G04*
G04*
G04 #@! TF.FilePolarity,Positive*
G04*
G01*
G75*
%ADD15R,0.03543X0.03347*%
%ADD16R,0.03347X0.03543*%
%ADD17R,0.03150X0.03150*%
%ADD18R,0.04134X0.03937*%
%ADD19R,0.07284X0.12598*%
%ADD20R,0.07284X0.03937*%
%ADD21R,0.03937X0.04134*%
%ADD22C,0.07874*%
%ADD23O,0.07480X0.02362*%
%ADD24O,0.01181X0.05709*%
%ADD25R,0.02362X0.05315*%
%ADD26R,0.01575X0.05315*%
%ADD44C,0.00600*%
%ADD45C,0.01600*%
%ADD46C,0.01000*%
%ADD47C,0.00800*%
%ADD48C,0.03937*%
%ADD49C,0.23819*%
%ADD50C,0.06693*%
%ADD51C,0.06791*%
%ADD52R,0.06791X0.06791*%
%ADD53C,0.02953*%
G36*
X335219Y219455D02*
X336864Y219018D01*
X338438Y218369D01*
X339913Y217519D01*
X341264Y216484D01*
X342468Y215280D01*
X343503Y213929D01*
X344353Y212454D01*
X345002Y210880D01*
X345439Y209235D01*
X345657Y207547D01*
X345654Y206696D01*
X345654Y206694D01*
X345654Y206693D01*
Y200410D01*
X345192Y200219D01*
X340146Y205265D01*
X339764Y205423D01*
X339764Y205423D01*
X325276D01*
X325276Y205423D01*
X324893Y205265D01*
X323633Y204005D01*
X323633Y204005D01*
X323633Y204005D01*
X323565Y203840D01*
X323475Y203622D01*
X323475Y203622D01*
X323475Y203622D01*
X323475Y202427D01*
X323121Y202074D01*
X292087D01*
X291579Y201973D01*
X291149Y201685D01*
X270711Y181247D01*
X197323D01*
X196816Y181146D01*
X196386Y180859D01*
X190874Y175347D01*
X190586Y174917D01*
X190486Y174409D01*
Y155153D01*
X190386Y155086D01*
X190320Y154987D01*
X182441D01*
X181934Y154886D01*
X181504Y154599D01*
X167482Y140577D01*
X158571D01*
Y141524D01*
X154224D01*
Y136980D01*
X158571D01*
Y137926D01*
X168032D01*
X168539Y138027D01*
X168969Y138315D01*
X182990Y152336D01*
X190320D01*
X190386Y152236D01*
X191040Y151800D01*
X191811Y151646D01*
X192582Y151800D01*
X193236Y152236D01*
X193673Y152890D01*
X193826Y153661D01*
X193673Y154433D01*
X193236Y155086D01*
X193137Y155153D01*
Y173860D01*
X197872Y178596D01*
X271260D01*
X271767Y178697D01*
X272197Y178984D01*
X292636Y199423D01*
X326145D01*
X326449Y198968D01*
X326605Y198864D01*
X326563Y198291D01*
X326111Y197944D01*
X325635Y197324D01*
X325336Y196602D01*
X325287Y196227D01*
X328228D01*
X331170D01*
X331120Y196602D01*
X330821Y197324D01*
X330346Y197944D01*
X329894Y198291D01*
X329852Y198864D01*
X330008Y198968D01*
X330554Y199785D01*
X330558Y199807D01*
X331444D01*
X331509Y199775D01*
X331527Y199781D01*
X331545Y199774D01*
X337374D01*
X338869Y198279D01*
X338868Y184634D01*
X337217Y182982D01*
X325038D01*
X325038Y182982D01*
X324655Y182824D01*
X324655Y182824D01*
X323632Y181800D01*
X323632Y181800D01*
X323632Y181800D01*
X323555Y181614D01*
X323473Y181418D01*
X323473Y181418D01*
X323473Y181417D01*
X323475Y177874D01*
X323553Y177684D01*
X323633Y177491D01*
X323633Y177491D01*
X323633Y177491D01*
X323827Y177411D01*
X324016Y177333D01*
X324912D01*
X324929Y177340D01*
X324947Y177334D01*
X325012Y177366D01*
X325899D01*
X325903Y177344D01*
X326449Y176527D01*
X326605Y176423D01*
X326563Y175850D01*
X326111Y175503D01*
X325635Y174883D01*
X325336Y174161D01*
X325287Y173786D01*
X328228D01*
X331170D01*
X331120Y174161D01*
X330821Y174883D01*
X330346Y175503D01*
X329894Y175850D01*
X329852Y176423D01*
X330008Y176527D01*
X330554Y177344D01*
X330558Y177366D01*
X331444D01*
X331509Y177334D01*
X331527Y177340D01*
X331545Y177333D01*
X336941D01*
X338869Y175405D01*
X338868Y161957D01*
X337453Y160541D01*
X325037D01*
X325037Y160541D01*
X325037Y160541D01*
X324845Y160462D01*
X324655Y160383D01*
X324654Y160382D01*
X324654Y160382D01*
X323633Y159359D01*
X323633Y159359D01*
X323633Y159359D01*
X323633Y159359D01*
X323553Y159165D01*
X323475Y158976D01*
Y158976D01*
X323475Y158976D01*
X323475Y158976D01*
X323475Y155787D01*
X323475Y155787D01*
X323633Y155404D01*
X323987Y155050D01*
X324369Y154892D01*
X324369Y154892D01*
X324912D01*
X324929Y154899D01*
X324947Y154893D01*
X325012Y154925D01*
X325899D01*
X325903Y154903D01*
X326449Y154086D01*
X326605Y153982D01*
X326563Y153409D01*
X326111Y153062D01*
X325635Y152442D01*
X325336Y151720D01*
X325287Y151345D01*
X328228D01*
X331170D01*
X331120Y151720D01*
X330821Y152442D01*
X330346Y153062D01*
X329894Y153409D01*
X329852Y153982D01*
X330008Y154086D01*
X330554Y154903D01*
X330558Y154925D01*
X331445D01*
X331509Y154893D01*
X331527Y154899D01*
X331545Y154892D01*
X336938Y154892D01*
X338868Y153284D01*
X338868Y140106D01*
X336862Y138100D01*
X325354Y138100D01*
X324972Y137942D01*
X324972Y137942D01*
X323646Y136616D01*
X323567Y136425D01*
X323488Y136236D01*
X323476Y133349D01*
X323476Y133348D01*
X323476Y133347D01*
X323554Y133158D01*
X323633Y132965D01*
X323633Y132965D01*
X323633Y132965D01*
X323986Y132610D01*
X323987Y132610D01*
X323987Y132609D01*
X324177Y132531D01*
X324369Y132451D01*
X324369Y132451D01*
X324370Y132451D01*
X324912D01*
X324929Y132458D01*
X324948Y132452D01*
X325012Y132484D01*
X325899D01*
X325903Y132462D01*
X326449Y131646D01*
X326605Y131541D01*
X326563Y130968D01*
X326111Y130621D01*
X325635Y130001D01*
X325336Y129279D01*
X325287Y128904D01*
X328228D01*
X331170D01*
X331120Y129279D01*
X330821Y130001D01*
X330346Y130621D01*
X329894Y130968D01*
X329852Y131541D01*
X330008Y131646D01*
X330554Y132462D01*
X330558Y132484D01*
X331444D01*
X331509Y132452D01*
X331527Y132458D01*
X331545Y132451D01*
X336902D01*
X338868Y130485D01*
X338847Y116985D01*
X337521Y115659D01*
X325158D01*
X325157Y115659D01*
X324775Y115501D01*
X324775Y115501D01*
X323633Y114359D01*
X323633Y114359D01*
X323633Y114359D01*
X323558Y114178D01*
X323474Y113976D01*
X323474Y113976D01*
X323474Y113976D01*
X323474Y110905D01*
X323474Y110905D01*
X323633Y110522D01*
X323986Y110169D01*
X324369Y110010D01*
X324369Y110010D01*
X324912D01*
X324929Y110017D01*
X324948Y110011D01*
X325012Y110043D01*
X325899D01*
X325903Y110021D01*
X326449Y109205D01*
X326605Y109100D01*
X326563Y108527D01*
X326111Y108180D01*
X325635Y107560D01*
X325336Y106838D01*
X325287Y106463D01*
X328228D01*
X331170D01*
X331120Y106838D01*
X330821Y107560D01*
X330346Y108180D01*
X329894Y108527D01*
X329852Y109100D01*
X330008Y109205D01*
X330554Y110021D01*
X330558Y110043D01*
X331445D01*
X331509Y110011D01*
X331527Y110017D01*
X331545Y110010D01*
X337560D01*
X338868Y108702D01*
X338862Y94560D01*
X337521Y93218D01*
X325079D01*
X324696Y93060D01*
X324696Y93060D01*
X323633Y91997D01*
X323633Y91997D01*
X323474Y91614D01*
X323474Y91614D01*
Y88110D01*
X323633Y87727D01*
X324016Y87569D01*
X324917D01*
X324935Y87576D01*
X324953Y87570D01*
X325097Y87642D01*
X325899D01*
X325903Y87620D01*
X326449Y86803D01*
X326605Y86699D01*
X326563Y86125D01*
X326111Y85779D01*
X325635Y85158D01*
X325336Y84436D01*
X325287Y84061D01*
X328228D01*
X331170D01*
X331120Y84436D01*
X330821Y85158D01*
X330346Y85779D01*
X329894Y86125D01*
X329852Y86699D01*
X330008Y86803D01*
X330554Y87620D01*
X330558Y87642D01*
X331360D01*
X331504Y87570D01*
X331522Y87576D01*
X331539Y87569D01*
X337560D01*
X338868Y86261D01*
X338869Y71879D01*
X337768Y70777D01*
X325197D01*
X325197Y70777D01*
X324814Y70619D01*
X323634Y69438D01*
X323634Y69438D01*
X323634Y69438D01*
X323634Y69438D01*
X323603Y69365D01*
X323475Y69056D01*
X323475Y69055D01*
X323474Y66023D01*
X323474Y66023D01*
X323474Y66023D01*
X323542Y65859D01*
X323633Y65640D01*
X323633Y65640D01*
X323633Y65640D01*
X323986Y65287D01*
X323987Y65287D01*
X323987Y65287D01*
X324167Y65212D01*
X324369Y65128D01*
X324369Y65128D01*
X324369Y65128D01*
X324912D01*
X324929Y65135D01*
X324948Y65129D01*
X325012Y65161D01*
X325899D01*
X325903Y65139D01*
X326449Y64323D01*
X326605Y64218D01*
X326563Y63645D01*
X326111Y63298D01*
X325635Y62678D01*
X325336Y61956D01*
X325287Y61581D01*
X328228D01*
X331170D01*
X331120Y61956D01*
X330821Y62678D01*
X330346Y63298D01*
X329894Y63645D01*
X329852Y64218D01*
X330008Y64323D01*
X330554Y65139D01*
X330558Y65161D01*
X331445D01*
X331509Y65129D01*
X331527Y65135D01*
X331545Y65128D01*
X337807D01*
X338868Y64067D01*
X338869Y49685D01*
X337521Y48336D01*
X325197Y48336D01*
X324814Y48178D01*
X324814Y48178D01*
X323633Y46997D01*
X323474Y46614D01*
X323474Y46614D01*
X323475Y43228D01*
X323633Y42846D01*
X324016Y42687D01*
X324912D01*
X324930Y42694D01*
X324948Y42688D01*
X325012Y42720D01*
X325899D01*
X325903Y42698D01*
X326449Y41882D01*
X326605Y41778D01*
X326563Y41204D01*
X326111Y40857D01*
X325635Y40237D01*
X325336Y39515D01*
X325287Y39140D01*
X328228D01*
X331170D01*
X331120Y39515D01*
X330821Y40237D01*
X330346Y40857D01*
X329894Y41204D01*
X329852Y41778D01*
X330008Y41882D01*
X330554Y42698D01*
X330558Y42720D01*
X331445D01*
X331509Y42688D01*
X331527Y42694D01*
X331545Y42687D01*
X337560D01*
X338846Y41401D01*
X338846Y21672D01*
X338922Y21490D01*
X338990Y21305D01*
X339155Y21126D01*
X338978Y20581D01*
X338840Y20554D01*
X338023Y20008D01*
X337919Y19852D01*
X337346Y19894D01*
X336999Y20346D01*
X336379Y20821D01*
X335657Y21120D01*
X335282Y21170D01*
Y18228D01*
Y15287D01*
X335657Y15336D01*
X336379Y15635D01*
X336999Y16111D01*
X337346Y16563D01*
X337919Y16605D01*
X338023Y16449D01*
X338840Y15903D01*
X338862Y15899D01*
Y14974D01*
X338848Y14945D01*
X338854Y14927D01*
X338846Y14910D01*
Y12250D01*
X337521Y10924D01*
X323385D01*
X322037Y12271D01*
Y21339D01*
X321879Y21721D01*
X321879Y21721D01*
X320776Y22824D01*
X320394Y22982D01*
X320394Y22982D01*
X316929D01*
X316546Y22824D01*
X316388Y22441D01*
Y21545D01*
X316395Y21527D01*
X316389Y21509D01*
X316421Y21444D01*
Y20558D01*
X316399Y20554D01*
X315582Y20008D01*
X315478Y19852D01*
X314905Y19894D01*
X314558Y20346D01*
X313938Y20821D01*
X313216Y21120D01*
X312841Y21170D01*
Y18228D01*
Y15287D01*
X313216Y15336D01*
X313938Y15635D01*
X314558Y16111D01*
X314905Y16563D01*
X315478Y16605D01*
X315582Y16449D01*
X316399Y15903D01*
X316421Y15899D01*
Y15012D01*
X316389Y14947D01*
X316395Y14930D01*
X316388Y14912D01*
Y12232D01*
X315080Y10924D01*
X300589D01*
X299596Y11917D01*
X299596Y20669D01*
X299596Y20669D01*
X299438Y21052D01*
X299438Y21052D01*
X297679Y22810D01*
Y22810D01*
X297679Y22810D01*
X297678Y22812D01*
X297487Y22891D01*
X297298Y22970D01*
X297295Y22970D01*
X297295Y22970D01*
X297295Y22970D01*
X294845Y22981D01*
X294844Y22981D01*
X294844Y22981D01*
X294655Y22903D01*
X294461Y22824D01*
X294461Y22823D01*
X294461Y22823D01*
X294106Y22470D01*
X294106Y22470D01*
X294106Y22469D01*
X294026Y22277D01*
X293947Y22088D01*
X293947Y22087D01*
X293947Y22087D01*
Y21545D01*
X293954Y21527D01*
X293948Y21509D01*
X293980Y21444D01*
Y20558D01*
X293958Y20554D01*
X293142Y20008D01*
X293037Y19852D01*
X292464Y19894D01*
X292117Y20346D01*
X291497Y20821D01*
X290775Y21120D01*
X290400Y21170D01*
Y18228D01*
Y15287D01*
X290775Y15336D01*
X291497Y15635D01*
X292117Y16111D01*
X292464Y16563D01*
X293037Y16605D01*
X293142Y16449D01*
X293958Y15903D01*
X293980Y15899D01*
Y15012D01*
X293948Y14947D01*
X293954Y14930D01*
X293947Y14912D01*
Y11878D01*
X292993Y10924D01*
X279408D01*
X278455Y11878D01*
Y21063D01*
X278376Y21252D01*
X278298Y21443D01*
X276937Y22821D01*
X276935Y22822D01*
X276935Y22824D01*
X276745Y22902D01*
X276555Y22982D01*
X276554Y22982D01*
X276552Y22982D01*
X272441Y22982D01*
X272441Y22982D01*
X272236Y22897D01*
X272058Y22824D01*
X272058Y22824D01*
X271665Y22430D01*
X271506Y22047D01*
X271506Y22047D01*
Y21545D01*
X271513Y21527D01*
X271507Y21509D01*
X271539Y21445D01*
Y20558D01*
X271517Y20554D01*
X270701Y20008D01*
X270596Y19852D01*
X270023Y19894D01*
X269676Y20346D01*
X269056Y20821D01*
X268334Y21120D01*
X267959Y21170D01*
Y18228D01*
Y15287D01*
X268334Y15336D01*
X269056Y15635D01*
X269676Y16111D01*
X270023Y16563D01*
X270596Y16605D01*
X270701Y16449D01*
X271517Y15903D01*
X271539Y15899D01*
Y15012D01*
X271507Y14947D01*
X271513Y14930D01*
X271506Y14912D01*
Y12744D01*
X269638Y10876D01*
X261228D01*
X259360Y12744D01*
Y27598D01*
X259202Y27981D01*
X259202Y27981D01*
X251367Y35816D01*
X250984Y35974D01*
X250984Y35974D01*
X234488D01*
X234105Y35816D01*
X234105Y35816D01*
X221546Y23257D01*
X221388Y22874D01*
X221388Y22874D01*
Y21545D01*
X221395Y21527D01*
X221389Y21509D01*
X221421Y21445D01*
Y20558D01*
X221399Y20554D01*
X220583Y20008D01*
X220478Y19852D01*
X219905Y19894D01*
X219558Y20346D01*
X218938Y20821D01*
X218216Y21121D01*
X217841Y21170D01*
Y18228D01*
Y15287D01*
X218216Y15336D01*
X218938Y15635D01*
X219558Y16111D01*
X219905Y16563D01*
X220478Y16605D01*
X220583Y16449D01*
X221399Y15903D01*
X221421Y15899D01*
Y15012D01*
X221389Y14947D01*
X221395Y14930D01*
X221388Y14912D01*
Y12232D01*
X220051Y10896D01*
X205972Y10896D01*
X204596Y12271D01*
Y21181D01*
X204596Y21181D01*
X204438Y21564D01*
X204438Y21564D01*
X203191Y22810D01*
Y22811D01*
X203191Y22811D01*
X203190Y22812D01*
X202999Y22891D01*
X202809Y22970D01*
X202807Y22970D01*
X202807Y22970D01*
X202807Y22970D01*
X199844Y22981D01*
X199844Y22981D01*
X199843Y22981D01*
X199655Y22903D01*
X199461Y22824D01*
X199461Y22823D01*
X199460Y22823D01*
X199106Y22470D01*
X199106Y22470D01*
X199106Y22470D01*
X199026Y22277D01*
X198947Y22088D01*
X198947Y22087D01*
X198947Y22087D01*
Y21545D01*
X198954Y21527D01*
X198948Y21509D01*
X198980Y21445D01*
Y20558D01*
X198958Y20554D01*
X198142Y20008D01*
X198037Y19852D01*
X197464Y19894D01*
X197117Y20346D01*
X196497Y20821D01*
X195775Y21121D01*
X195400Y21170D01*
Y18228D01*
Y15287D01*
X195775Y15336D01*
X196497Y15635D01*
X197117Y16111D01*
X197464Y16563D01*
X198037Y16605D01*
X198142Y16449D01*
X198958Y15903D01*
X198980Y15899D01*
Y15012D01*
X198948Y14947D01*
X198954Y14930D01*
X198947Y14912D01*
Y12232D01*
X197610Y10896D01*
X183531Y10896D01*
X182155Y12271D01*
Y21063D01*
X181997Y21446D01*
X181997Y21446D01*
X180620Y22822D01*
Y22822D01*
X180620Y22822D01*
X180620Y22822D01*
X180420Y22905D01*
X180238Y22981D01*
X180238D01*
X180238Y22981D01*
X180237Y22981D01*
X177401Y22982D01*
X177401Y22982D01*
X177401Y22982D01*
X177204Y22900D01*
X177018Y22824D01*
X177018Y22824D01*
X177018Y22824D01*
X176665Y22470D01*
X176665Y22470D01*
X176665Y22470D01*
X176592Y22295D01*
X176506Y22087D01*
X176506Y22087D01*
X176506Y22087D01*
Y21545D01*
X176513Y21527D01*
X176507Y21509D01*
X176539Y21444D01*
Y20558D01*
X176517Y20554D01*
X175701Y20008D01*
X175596Y19852D01*
X175023Y19894D01*
X174676Y20346D01*
X174056Y20821D01*
X173334Y21120D01*
X172959Y21170D01*
Y18228D01*
Y15287D01*
X173334Y15336D01*
X174056Y15635D01*
X174676Y16111D01*
X175023Y16563D01*
X175596Y16605D01*
X175701Y16449D01*
X176517Y15903D01*
X176539Y15899D01*
Y15012D01*
X176507Y14947D01*
X176513Y14930D01*
X176506Y14912D01*
Y12232D01*
X175170Y10895D01*
X161090Y10896D01*
X159714Y12271D01*
Y21112D01*
X159556Y21495D01*
X159556Y21495D01*
X158228Y22823D01*
Y22823D01*
X157845Y22982D01*
X157845Y22982D01*
X154960Y22982D01*
X154960Y22982D01*
X154577Y22823D01*
X154577Y22823D01*
X154224Y22470D01*
X154224Y22470D01*
X154065Y22087D01*
X154065Y22087D01*
Y21545D01*
X154072Y21527D01*
X154066Y21509D01*
X154098Y21444D01*
Y20558D01*
X154076Y20554D01*
X153260Y20008D01*
X153155Y19852D01*
X152582Y19894D01*
X152235Y20346D01*
X151615Y20821D01*
X150893Y21120D01*
X150518Y21170D01*
Y18228D01*
Y15287D01*
X150893Y15336D01*
X151615Y15635D01*
X152235Y16111D01*
X152582Y16563D01*
X153155Y16605D01*
X153260Y16449D01*
X154076Y15903D01*
X154098Y15899D01*
Y15012D01*
X154066Y14947D01*
X154072Y14930D01*
X154065Y14912D01*
X154065Y12232D01*
X152757Y10923D01*
X138649Y10896D01*
X137274Y12271D01*
X137274Y21142D01*
X137274Y21142D01*
X137115Y21524D01*
X137115Y21524D01*
X135816Y22824D01*
X135816Y22824D01*
X135433Y22982D01*
X135433Y22982D01*
X132165D01*
X131783Y22824D01*
X131624Y22441D01*
Y21545D01*
X131631Y21527D01*
X131625Y21509D01*
X131657Y21444D01*
Y20558D01*
X131635Y20554D01*
X130819Y20008D01*
X130714Y19852D01*
X130141Y19894D01*
X129794Y20346D01*
X129174Y20821D01*
X128452Y21120D01*
X128077Y21170D01*
Y18228D01*
Y15287D01*
X128452Y15336D01*
X129174Y15635D01*
X129794Y16111D01*
X130141Y16563D01*
X130714Y16605D01*
X130819Y16449D01*
X131635Y15903D01*
X131657Y15899D01*
Y15012D01*
X131625Y14947D01*
X131631Y14930D01*
X131624Y14912D01*
Y12232D01*
X130299Y10907D01*
X115866Y10896D01*
X115854D01*
X114832Y11917D01*
X114832Y21142D01*
X114832Y21142D01*
X114674Y21524D01*
X113375Y22824D01*
X112992Y22982D01*
X112992Y22982D01*
X109724Y22982D01*
X109342Y22824D01*
X109183Y22441D01*
Y21545D01*
X109190Y21527D01*
X109184Y21509D01*
X109216Y21444D01*
Y20558D01*
X109194Y20554D01*
X108378Y20008D01*
X108273Y19852D01*
X107700Y19894D01*
X107353Y20346D01*
X106733Y20821D01*
X106011Y21120D01*
X105636Y21170D01*
Y18228D01*
Y15287D01*
X106011Y15336D01*
X106733Y15635D01*
X107353Y16111D01*
X107700Y16563D01*
X108273Y16605D01*
X108378Y16449D01*
X109194Y15903D01*
X109216Y15899D01*
Y15012D01*
X109184Y14947D01*
X109190Y14930D01*
X109183Y14912D01*
Y11878D01*
X108201Y10896D01*
X93430Y10878D01*
X92392Y11917D01*
X92392Y21299D01*
X92233Y21682D01*
X92233Y21682D01*
X91091Y22824D01*
X91091Y22824D01*
X90709Y22982D01*
X90709Y22982D01*
X87637Y22982D01*
X87637Y22982D01*
X87254Y22824D01*
X86901Y22470D01*
X86742Y22087D01*
X86742Y22087D01*
Y21545D01*
X86750Y21527D01*
X86743Y21509D01*
X86775Y21444D01*
Y20558D01*
X86753Y20554D01*
X85937Y20008D01*
X85833Y19852D01*
X85259Y19894D01*
X84913Y20346D01*
X84292Y20821D01*
X83570Y21120D01*
X83195Y21170D01*
Y18228D01*
Y15287D01*
X83570Y15336D01*
X84292Y15635D01*
X84913Y16111D01*
X85259Y16563D01*
X85833Y16605D01*
X85937Y16449D01*
X86753Y15903D01*
X86775Y15899D01*
Y15012D01*
X86743Y14947D01*
X86750Y14930D01*
X86742Y14912D01*
Y11878D01*
X85760Y10896D01*
X70972Y10896D01*
X69951Y11917D01*
Y21299D01*
X69951Y21299D01*
X69792Y21682D01*
X69792Y21682D01*
X68650Y22824D01*
X68268Y22982D01*
X68268Y22982D01*
X64842Y22982D01*
X64460Y22824D01*
X64301Y22441D01*
Y21545D01*
X64309Y21527D01*
X64302Y21509D01*
X64334Y21444D01*
Y20558D01*
X64312Y20554D01*
X63496Y20008D01*
X63392Y19852D01*
X62818Y19894D01*
X62471Y20346D01*
X61851Y20821D01*
X61129Y21120D01*
X60754Y21170D01*
Y18228D01*
Y15287D01*
X61129Y15336D01*
X61851Y15635D01*
X62471Y16111D01*
X62818Y16563D01*
X63392Y16605D01*
X63496Y16449D01*
X64312Y15903D01*
X64334Y15899D01*
Y15012D01*
X64302Y14948D01*
X64309Y14930D01*
X64301Y14912D01*
X64301Y11878D01*
X63319Y10896D01*
X49281Y10907D01*
X49278Y10906D01*
X49276Y10907D01*
X47753Y10896D01*
X42323D01*
X41102Y10896D01*
X32548D01*
X29675Y13769D01*
Y29342D01*
X34480D01*
Y27886D01*
X38827D01*
Y32429D01*
X34480D01*
Y30973D01*
X29675D01*
Y42543D01*
X30009Y43043D01*
X30303D01*
Y47390D01*
X25760D01*
X25462Y47548D01*
X25080Y47706D01*
X25080Y47706D01*
X9437Y47706D01*
X7707Y49437D01*
Y58949D01*
X8807Y60049D01*
X48480D01*
X48863Y60208D01*
X48863Y60208D01*
X50867Y62212D01*
X50908Y62311D01*
X50984Y62387D01*
Y62495D01*
X51025Y62594D01*
X51135Y62853D01*
X51363Y63095D01*
X53359D01*
Y66063D01*
Y69032D01*
X52886D01*
X52636Y69532D01*
X52758Y69695D01*
X62138Y69695D01*
X70483Y61350D01*
X70866Y61191D01*
X70866Y61191D01*
X91732D01*
X91732Y61191D01*
X92115Y61350D01*
X94202Y63436D01*
X94360Y63819D01*
X94360Y63819D01*
X94360Y72795D01*
X94360Y72795D01*
X94202Y73178D01*
X94201Y73178D01*
X92706Y74674D01*
X92706Y74674D01*
X92323Y74833D01*
X92323Y74832D01*
X87121D01*
X87064Y74914D01*
X87190Y75594D01*
X87409Y75740D01*
X87846Y76394D01*
X87999Y77165D01*
X87846Y77937D01*
X87409Y78590D01*
X87349Y78631D01*
X87367Y79116D01*
X88222Y79470D01*
X89149Y80182D01*
X89860Y81109D01*
X90307Y82188D01*
X90460Y83346D01*
X90307Y84504D01*
X89860Y85584D01*
X89149Y86511D01*
X88222Y87222D01*
X87366Y87576D01*
X87348Y88062D01*
X87409Y88103D01*
X87846Y88756D01*
X87999Y89528D01*
X87846Y90299D01*
X87409Y90952D01*
X86755Y91389D01*
X85984Y91543D01*
X85213Y91389D01*
X84559Y90952D01*
X84123Y90299D01*
X83969Y89528D01*
X84123Y88756D01*
X84559Y88103D01*
X84621Y88062D01*
X84602Y87576D01*
X83747Y87222D01*
X82820Y86511D01*
X82108Y85584D01*
X81661Y84504D01*
X81509Y83346D01*
X81661Y82188D01*
X82108Y81109D01*
X82820Y80182D01*
X83747Y79470D01*
X84602Y79116D01*
X84620Y78631D01*
X84559Y78590D01*
X84123Y77937D01*
X83969Y77165D01*
X84123Y76394D01*
X84559Y75740D01*
X84779Y75594D01*
X84905Y74914D01*
X84847Y74832D01*
X68019Y74832D01*
X63965Y78887D01*
X63583Y79045D01*
X63583Y79045D01*
X43031D01*
X42649Y78887D01*
X42649Y78887D01*
X36815Y73053D01*
X31571Y78296D01*
Y96900D01*
X39832Y105161D01*
X43693D01*
Y103909D01*
X48039D01*
Y108453D01*
X43693D01*
Y107201D01*
X39409D01*
X39019Y107123D01*
X38688Y106902D01*
X29830Y98044D01*
X29609Y97713D01*
X29532Y97323D01*
Y77874D01*
X29609Y77484D01*
X29830Y77153D01*
X35373Y71610D01*
X35247Y71485D01*
X35089Y71102D01*
X35089Y71102D01*
Y67468D01*
X33831Y66211D01*
X18550D01*
X18500Y66711D01*
X19192Y66848D01*
X20008Y67393D01*
X20554Y68210D01*
X20745Y69173D01*
X20554Y70136D01*
X20008Y70953D01*
X19852Y71057D01*
X19894Y71631D01*
X20346Y71977D01*
X20821Y72597D01*
X21120Y73320D01*
X21170Y73694D01*
X18228D01*
X15287D01*
X15336Y73320D01*
X15635Y72597D01*
X16111Y71977D01*
X16563Y71631D01*
X16605Y71057D01*
X16449Y70953D01*
X15903Y70136D01*
X15711Y69173D01*
X15903Y68210D01*
X16449Y67393D01*
X17265Y66848D01*
X17956Y66711D01*
X17907Y66211D01*
X8807D01*
X7707Y67311D01*
Y180601D01*
X15132D01*
X15510Y180235D01*
X15550Y180144D01*
X15550Y180142D01*
X15475Y179764D01*
X15667Y178801D01*
X16212Y177984D01*
X16368Y177880D01*
X16327Y177306D01*
X15875Y176960D01*
X15399Y176340D01*
X15100Y175618D01*
X15051Y175242D01*
X17992D01*
X20934D01*
X20884Y175618D01*
X20585Y176340D01*
X20109Y176960D01*
X19658Y177306D01*
X19616Y177880D01*
X19772Y177984D01*
X20317Y178801D01*
X20509Y179764D01*
X20434Y180142D01*
X20434Y180144D01*
X20474Y180235D01*
X20852Y180601D01*
X24724D01*
X25107Y180759D01*
X25107Y180759D01*
X38690Y194342D01*
X38848Y194724D01*
X38848Y194724D01*
Y200112D01*
X39348Y200211D01*
X39550Y199724D01*
X40174Y198910D01*
X40988Y198286D01*
X41936Y197894D01*
X42137Y197867D01*
Y193807D01*
X40681D01*
Y189461D01*
X45224D01*
Y190818D01*
X46965D01*
X47177Y190607D01*
Y178386D01*
X47176Y178386D01*
X47238Y178074D01*
X47415Y177809D01*
X49738Y175486D01*
X49738Y175486D01*
X50003Y175309D01*
X50315Y175247D01*
X50315Y175247D01*
X105961D01*
X115188Y166020D01*
Y165461D01*
X114323D01*
Y159146D01*
X140240D01*
X140494Y158646D01*
X140386Y158500D01*
X105344D01*
X102217Y161627D01*
X101886Y161847D01*
X101496Y161925D01*
X57233D01*
X35385Y183774D01*
X35480Y184252D01*
X35326Y185023D01*
X34890Y185677D01*
X34236Y186114D01*
X33465Y186267D01*
X32693Y186114D01*
X32040Y185677D01*
X31603Y185023D01*
X31449Y184252D01*
X31603Y183481D01*
X32040Y182827D01*
X32693Y182390D01*
X33465Y182237D01*
X33943Y182332D01*
X56090Y160185D01*
X56421Y159964D01*
X56811Y159886D01*
X101074D01*
X104200Y156759D01*
X104531Y156538D01*
X104921Y156461D01*
X141142D01*
X141532Y156538D01*
X141863Y156759D01*
X142729Y157625D01*
X142950Y157956D01*
X143027Y158346D01*
Y158646D01*
X144541D01*
Y162303D01*
X144941D01*
Y162703D01*
X147122D01*
Y165838D01*
X166850D01*
X166850Y165838D01*
X167163Y165900D01*
X167427Y166077D01*
X198535Y197184D01*
X198535Y197184D01*
X198712Y197449D01*
X198774Y197761D01*
Y200292D01*
X199274Y200392D01*
X199550Y199724D01*
X200174Y198910D01*
X200988Y198286D01*
X201936Y197894D01*
X202953Y197760D01*
X203970Y197894D01*
X204917Y198286D01*
X205731Y198910D01*
X206356Y199724D01*
X206748Y200672D01*
X206882Y201689D01*
X206748Y202706D01*
X206356Y203654D01*
X205731Y204467D01*
X204917Y205092D01*
X203970Y205484D01*
X202953Y205618D01*
X201936Y205484D01*
X201269Y205208D01*
X200985Y205632D01*
X202345Y206991D01*
X202522Y207256D01*
X202584Y207568D01*
X203007Y207767D01*
X203970Y207894D01*
X204917Y208286D01*
X205731Y208911D01*
X206356Y209724D01*
X206748Y210672D01*
X206882Y211689D01*
X206748Y212706D01*
X206356Y213654D01*
X205731Y214467D01*
X204917Y215092D01*
X203970Y215484D01*
X202953Y215618D01*
X201936Y215484D01*
X200988Y215092D01*
X200174Y214467D01*
X199550Y213654D01*
X199157Y212706D01*
X199023Y211689D01*
X199157Y210672D01*
X199550Y209724D01*
X200174Y208911D01*
X200874Y208374D01*
X200897Y207850D01*
X197381Y204335D01*
X197204Y204070D01*
X197142Y203758D01*
X197142Y203758D01*
Y203061D01*
X196642Y202962D01*
X196356Y203654D01*
X195731Y204467D01*
X194917Y205092D01*
X193970Y205484D01*
X192953Y205618D01*
X191936Y205484D01*
X190988Y205092D01*
X190174Y204467D01*
X189550Y203654D01*
X189157Y202706D01*
X189023Y201689D01*
X189157Y200672D01*
X189550Y199724D01*
X190174Y198910D01*
X190988Y198286D01*
X191936Y197894D01*
X192953Y197760D01*
X193970Y197894D01*
X194917Y198286D01*
X195731Y198910D01*
X196356Y199724D01*
X196642Y200416D01*
X197142Y200317D01*
Y198099D01*
X166513Y167469D01*
X159748D01*
X159597Y167969D01*
X159711Y168045D01*
X183529Y191864D01*
X183529Y191864D01*
X183706Y192129D01*
X183768Y192441D01*
Y197867D01*
X183970Y197894D01*
X184917Y198286D01*
X185731Y198910D01*
X186356Y199724D01*
X186748Y200672D01*
X186882Y201689D01*
X186748Y202706D01*
X186356Y203654D01*
X185731Y204467D01*
X184917Y205092D01*
X183970Y205484D01*
X182953Y205618D01*
X181936Y205484D01*
X180988Y205092D01*
X180174Y204467D01*
X179550Y203654D01*
X179263Y202962D01*
X178763Y203061D01*
Y206980D01*
X180468Y208685D01*
X180988Y208286D01*
X181936Y207894D01*
X182953Y207760D01*
X183970Y207894D01*
X184917Y208286D01*
X185731Y208911D01*
X186356Y209724D01*
X186748Y210672D01*
X186882Y211689D01*
X186748Y212706D01*
X186356Y213654D01*
X185731Y214467D01*
X184917Y215092D01*
X183970Y215484D01*
X182953Y215618D01*
X181936Y215484D01*
X180988Y215092D01*
X180174Y214467D01*
X179550Y213654D01*
X179157Y212706D01*
X179024Y211689D01*
X179157Y210672D01*
X179448Y209971D01*
X177371Y207894D01*
X177194Y207630D01*
X177132Y207318D01*
X177132Y207318D01*
Y203086D01*
X176632Y202987D01*
X176356Y203654D01*
X175731Y204467D01*
X174917Y205092D01*
X173970Y205484D01*
X172953Y205618D01*
X171936Y205484D01*
X170988Y205092D01*
X170174Y204467D01*
X169550Y203654D01*
X169157Y202706D01*
X169024Y201689D01*
X169157Y200672D01*
X169550Y199724D01*
X169674Y199563D01*
X158564Y188453D01*
X147040D01*
X147015Y188642D01*
X146628Y189578D01*
X146011Y190381D01*
X145208Y190998D01*
X144272Y191385D01*
X143268Y191517D01*
X142264Y191385D01*
X141328Y190998D01*
X140524Y190381D01*
X139908Y189578D01*
X139520Y188642D01*
X139388Y187638D01*
X139520Y186634D01*
X139908Y185698D01*
X140524Y184895D01*
X141328Y184278D01*
X142264Y183890D01*
X143268Y183758D01*
X144272Y183890D01*
X145208Y184278D01*
X146011Y184895D01*
X146628Y185698D01*
X147015Y186634D01*
X147040Y186822D01*
X158902D01*
X158902Y186822D01*
X159214Y186884D01*
X159478Y187061D01*
X170827Y198410D01*
X170988Y198286D01*
X171936Y197894D01*
X172953Y197760D01*
X173970Y197894D01*
X174917Y198286D01*
X175731Y198910D01*
X176356Y199724D01*
X176632Y200392D01*
X177132Y200292D01*
Y193915D01*
X155253Y172036D01*
X137599D01*
X137598Y172036D01*
X137286Y171974D01*
X137022Y171797D01*
X137022Y171797D01*
X133734Y168510D01*
X133557Y168245D01*
X133495Y167933D01*
X133495Y167933D01*
Y165461D01*
X132568D01*
Y170312D01*
X139001Y176745D01*
X139515Y176671D01*
X139520Y176634D01*
X139908Y175698D01*
X140524Y174894D01*
X141328Y174278D01*
X142264Y173890D01*
X143268Y173758D01*
X144272Y173890D01*
X145208Y174278D01*
X146011Y174894D01*
X146628Y175698D01*
X147015Y176634D01*
X147147Y177638D01*
X147015Y178642D01*
X146628Y179578D01*
X146011Y180381D01*
X145208Y180998D01*
X144272Y181385D01*
X143268Y181517D01*
X142264Y181385D01*
X141328Y180998D01*
X140524Y180381D01*
X139908Y179578D01*
X139520Y178642D01*
X139496Y178454D01*
X138740D01*
X138740Y178454D01*
X138428Y178391D01*
X138163Y178215D01*
X138163Y178215D01*
X131175Y171226D01*
X130998Y170962D01*
X130936Y170650D01*
X130936Y170650D01*
Y165461D01*
X130018D01*
Y173864D01*
X130217Y173890D01*
X131152Y174278D01*
X131956Y174894D01*
X132572Y175698D01*
X132960Y176634D01*
X133092Y177638D01*
X132960Y178642D01*
X132572Y179578D01*
X131956Y180381D01*
X131152Y180998D01*
X130217Y181385D01*
X129213Y181517D01*
X128208Y181385D01*
X127273Y180998D01*
X126469Y180381D01*
X125853Y179578D01*
X125465Y178642D01*
X125333Y177638D01*
X125465Y176634D01*
X125853Y175698D01*
X126469Y174894D01*
X127273Y174278D01*
X128208Y173890D01*
X128387Y173867D01*
Y165461D01*
X127450D01*
Y168051D01*
X127450Y168051D01*
X127387Y168363D01*
X127211Y168628D01*
X118774Y177065D01*
Y200292D01*
X119274Y200392D01*
X119550Y199724D01*
X120174Y198910D01*
X120988Y198286D01*
X121936Y197894D01*
X122953Y197760D01*
X123970Y197894D01*
X124917Y198286D01*
X125731Y198910D01*
X126356Y199724D01*
X126748Y200672D01*
X126882Y201689D01*
X126748Y202706D01*
X126356Y203654D01*
X125731Y204467D01*
X124917Y205092D01*
X123970Y205484D01*
X122953Y205618D01*
X121936Y205484D01*
X120988Y205092D01*
X120174Y204467D01*
X119550Y203654D01*
X119274Y202987D01*
X118774Y203086D01*
Y205625D01*
X118774Y205625D01*
X118711Y205937D01*
X118535Y206202D01*
X118535Y206202D01*
X115772Y208964D01*
X116356Y209724D01*
X116748Y210672D01*
X116882Y211689D01*
X116748Y212706D01*
X116356Y213654D01*
X115731Y214467D01*
X114917Y215092D01*
X113970Y215484D01*
X112953Y215618D01*
X111936Y215484D01*
X110988Y215092D01*
X110174Y214467D01*
X109550Y213654D01*
X109157Y212706D01*
X109023Y211689D01*
X109157Y210672D01*
X109550Y209724D01*
X110174Y208911D01*
X110988Y208286D01*
X111936Y207894D01*
X112953Y207760D01*
X113970Y207894D01*
X114370Y208059D01*
X117142Y205287D01*
Y203061D01*
X116642Y202962D01*
X116356Y203654D01*
X115731Y204467D01*
X114917Y205092D01*
X113970Y205484D01*
X112953Y205618D01*
X111936Y205484D01*
X110988Y205092D01*
X110174Y204467D01*
X109550Y203654D01*
X109274Y202987D01*
X108774Y203086D01*
Y206684D01*
X108774Y206684D01*
X108712Y206996D01*
X108535Y207261D01*
X108535Y207261D01*
X106232Y209563D01*
X106356Y209724D01*
X106748Y210672D01*
X106882Y211689D01*
X106748Y212706D01*
X106356Y213654D01*
X105731Y214467D01*
X104917Y215092D01*
X103970Y215484D01*
X102953Y215618D01*
X101936Y215484D01*
X100988Y215092D01*
X100174Y214467D01*
X99550Y213654D01*
X99157Y212706D01*
X99023Y211689D01*
X99157Y210672D01*
X99550Y209724D01*
X100174Y208911D01*
X100988Y208286D01*
X101936Y207894D01*
X102953Y207760D01*
X103970Y207894D01*
X104917Y208286D01*
X105078Y208410D01*
X107142Y206346D01*
Y203061D01*
X106642Y202962D01*
X106356Y203654D01*
X105731Y204467D01*
X104917Y205092D01*
X103970Y205484D01*
X102953Y205618D01*
X101936Y205484D01*
X100988Y205092D01*
X100174Y204467D01*
X99550Y203654D01*
X99157Y202706D01*
X99023Y201689D01*
X99157Y200672D01*
X99550Y199724D01*
X100174Y198910D01*
X100988Y198286D01*
X101936Y197894D01*
X102137Y197867D01*
Y185315D01*
X102137Y185315D01*
X102199Y185003D01*
X102376Y184738D01*
X107147Y179967D01*
X106901Y179507D01*
X106850Y179516D01*
X106850Y179516D01*
X60299D01*
X57981Y181834D01*
Y190787D01*
X57981Y190787D01*
X57919Y191100D01*
X57742Y191364D01*
X57742Y191364D01*
X56896Y192211D01*
X56631Y192387D01*
X56319Y192449D01*
X56319Y192449D01*
X55224D01*
Y193807D01*
X53768D01*
Y197867D01*
X53970Y197894D01*
X54917Y198286D01*
X55731Y198910D01*
X56356Y199724D01*
X56748Y200672D01*
X56882Y201689D01*
X56748Y202706D01*
X56356Y203654D01*
X55731Y204467D01*
X54917Y205092D01*
X53970Y205484D01*
X52953Y205618D01*
X51936Y205484D01*
X50988Y205092D01*
X50174Y204467D01*
X49550Y203654D01*
X49157Y202706D01*
X49024Y201689D01*
X49157Y200672D01*
X49550Y199724D01*
X50174Y198910D01*
X50988Y198286D01*
X51936Y197894D01*
X52137Y197867D01*
Y193807D01*
X50681D01*
Y189461D01*
X55224D01*
Y190818D01*
X55981D01*
X56350Y190450D01*
Y181496D01*
X56350Y181496D01*
X56412Y181184D01*
X56589Y180919D01*
X59269Y178239D01*
X59384Y178124D01*
X59649Y177706D01*
X59649Y177399D01*
X59669Y177379D01*
X59461Y176879D01*
X50653D01*
X48808Y178724D01*
Y190945D01*
X48746Y191257D01*
X48569Y191522D01*
X48569Y191522D01*
X47880Y192211D01*
X47615Y192387D01*
X47303Y192449D01*
X47303Y192449D01*
X45224D01*
Y193807D01*
X43768D01*
Y197867D01*
X43970Y197894D01*
X44917Y198286D01*
X45731Y198910D01*
X46356Y199724D01*
X46748Y200672D01*
X46882Y201689D01*
X46748Y202706D01*
X46356Y203654D01*
X45731Y204467D01*
X44917Y205092D01*
X43970Y205484D01*
X44079Y205955D01*
X46614D01*
X46780Y206024D01*
X46952Y206073D01*
X48330Y207176D01*
X48346Y207204D01*
X48375Y207216D01*
X48443Y207381D01*
X48530Y207539D01*
X48521Y207569D01*
X48533Y207598D01*
Y209565D01*
X49033Y209665D01*
X49113Y209472D01*
X49818Y208554D01*
X50736Y207849D01*
X51805Y207406D01*
X52553Y207308D01*
Y211689D01*
Y216070D01*
X51805Y215971D01*
X50736Y215529D01*
X49818Y214824D01*
X49113Y213906D01*
X49033Y213713D01*
X48533Y213812D01*
Y219670D01*
X238737Y219670D01*
X238796Y219170D01*
X238124Y219008D01*
X236247Y218231D01*
X234514Y217169D01*
X232969Y215849D01*
X231650Y214304D01*
X230588Y212572D01*
X229810Y210695D01*
X229336Y208719D01*
X229208Y207093D01*
X255044D01*
X254916Y208719D01*
X254442Y210695D01*
X253664Y212572D01*
X252602Y214304D01*
X251283Y215849D01*
X249737Y217169D01*
X248005Y218231D01*
X246128Y219008D01*
X245456Y219170D01*
X245515Y219670D01*
X332677D01*
X332678Y219670D01*
X332680Y219670D01*
X333531Y219672D01*
X335219Y219455D01*
D02*
G37*
G36*
X13777Y219670D02*
X13778Y219670D01*
X13780Y219670D01*
X47992D01*
Y207598D01*
X46614Y206496D01*
X38307Y206496D01*
Y194724D01*
X24724Y181142D01*
X20635D01*
X20585Y181261D01*
X20109Y181881D01*
X19489Y182357D01*
X18767Y182656D01*
X18392Y182705D01*
Y179764D01*
X17592D01*
Y182705D01*
X17217Y182656D01*
X16495Y182357D01*
X15875Y181881D01*
X15399Y181261D01*
X15350Y181142D01*
X7165D01*
Y67087D01*
X8583Y65669D01*
X34055D01*
X35630Y67244D01*
Y71102D01*
X43031Y78504D01*
X63583D01*
X67795Y74291D01*
X92323Y74291D01*
X93819Y72795D01*
X93819Y63819D01*
X91732Y61732D01*
X70866D01*
X62362Y70236D01*
X52283Y70236D01*
X51320Y69273D01*
X50920Y69032D01*
X50523Y69032D01*
X48253D01*
Y66063D01*
Y63095D01*
X50277D01*
X50484Y62594D01*
X48480Y60590D01*
X8583D01*
X7165Y59173D01*
Y49213D01*
X9213Y47165D01*
X25080Y47165D01*
X25260Y46985D01*
Y45616D01*
X28032D01*
Y45217D01*
X28431D01*
Y42543D01*
X29134D01*
Y13545D01*
X32324Y10354D01*
X41102D01*
X42323Y10354D01*
X47756D01*
X49280Y10366D01*
X63543Y10354D01*
X64842Y11654D01*
X64842Y14912D01*
X64876Y14941D01*
Y18228D01*
Y21516D01*
X64842Y21545D01*
Y22441D01*
X68268Y22441D01*
X69409Y21299D01*
Y11693D01*
X70748Y10354D01*
X85984Y10354D01*
X87283Y11654D01*
Y14912D01*
X87317Y14941D01*
Y18228D01*
Y21516D01*
X87283Y21545D01*
Y22087D01*
X87637Y22441D01*
X90709Y22441D01*
X91850Y21299D01*
X91850Y11693D01*
X93206Y10337D01*
X108426Y10355D01*
X109724Y11654D01*
Y14912D01*
X109757Y14941D01*
Y18228D01*
Y21516D01*
X109724Y21545D01*
Y22441D01*
X112992Y22441D01*
X114291Y21142D01*
X114291Y11693D01*
X115630Y10354D01*
X115866Y10354D01*
X130523Y10366D01*
X132165Y12008D01*
Y14912D01*
X132198Y14941D01*
Y18228D01*
Y21516D01*
X132165Y21545D01*
Y22441D01*
X135433D01*
X136732Y21142D01*
X136732Y12047D01*
X138425Y10354D01*
X152981Y10383D01*
X154606Y12008D01*
X154606Y14912D01*
X154639Y14941D01*
Y18228D01*
Y21516D01*
X154606Y21545D01*
Y22087D01*
X154960Y22441D01*
X157845Y22441D01*
X159173Y21112D01*
Y12047D01*
X160866Y10354D01*
X175394Y10354D01*
X177047Y12008D01*
Y14912D01*
X177080Y14941D01*
Y18228D01*
Y21516D01*
X177047Y21545D01*
Y22087D01*
X177401Y22441D01*
X180238Y22440D01*
X181614Y21063D01*
Y12047D01*
X183307Y10354D01*
X197835Y10354D01*
X199488Y12008D01*
Y14912D01*
X199521Y14941D01*
Y18228D01*
Y21516D01*
X199488Y21545D01*
Y22087D01*
X199842Y22440D01*
X202807Y22429D01*
X204055Y21181D01*
Y12047D01*
X205748Y10354D01*
X220276Y10354D01*
X221929Y12008D01*
Y14912D01*
X221962Y14941D01*
Y18228D01*
Y21516D01*
X221929Y21545D01*
Y22874D01*
X234488Y35433D01*
X250984D01*
X258819Y27598D01*
Y12520D01*
X261004Y10335D01*
X269862D01*
X272047Y12520D01*
Y14912D01*
X272080Y14941D01*
Y18228D01*
Y21516D01*
X272047Y21545D01*
Y22047D01*
X272441Y22441D01*
X276552Y22441D01*
X277913Y21063D01*
Y11654D01*
X279184Y10383D01*
X293217D01*
X294488Y11654D01*
Y14912D01*
X294521Y14941D01*
Y18228D01*
Y21516D01*
X294488Y21545D01*
Y22087D01*
X294843Y22440D01*
X297295Y22429D01*
X299055Y20669D01*
X299055Y11693D01*
X300365Y10383D01*
X315304D01*
X316929Y12008D01*
Y14912D01*
X316962Y14941D01*
Y18228D01*
Y21516D01*
X316929Y21545D01*
Y22441D01*
X320394D01*
X321496Y21339D01*
Y12047D01*
X323161Y10383D01*
X337745D01*
X339388Y12025D01*
Y14910D01*
X339403Y14923D01*
Y18228D01*
X339803D01*
Y18628D01*
X342745D01*
X342695Y19003D01*
X342396Y19725D01*
X341920Y20346D01*
X341300Y20821D01*
X340578Y21120D01*
X339803Y21223D01*
X339388Y21672D01*
X339388Y41625D01*
X337784Y43228D01*
X331545D01*
X331516Y43261D01*
X328228D01*
X324941D01*
X324912Y43228D01*
X324016D01*
X324016Y46614D01*
X325197Y47795D01*
X337745Y47795D01*
X339410Y49461D01*
X339410Y64291D01*
X338032Y65669D01*
X331545D01*
X331516Y65702D01*
X328228D01*
X324941D01*
X324912Y65669D01*
X324369D01*
X324016Y66023D01*
X324016Y69056D01*
X325197Y70236D01*
X337992D01*
X339410Y71654D01*
X339410Y86485D01*
X337784Y88110D01*
X331539D01*
X331476Y88183D01*
X328228D01*
X324981D01*
X324917Y88110D01*
X324016D01*
Y91614D01*
X325079Y92677D01*
X337745D01*
X339404Y94336D01*
X339409Y108926D01*
X337784Y110551D01*
X331545D01*
X331516Y110584D01*
X328228D01*
X324941D01*
X324912Y110551D01*
X324369D01*
X324016Y110905D01*
X324016Y113976D01*
X325157Y115118D01*
X337745D01*
X339388Y116761D01*
X339409Y130709D01*
X339331Y130787D01*
X337126Y132992D01*
X331545D01*
X331516Y133025D01*
X328228D01*
X324941D01*
X324912Y132992D01*
X324370D01*
X324017Y133346D01*
X324029Y136233D01*
X325354Y137559D01*
X337087Y137559D01*
X339409Y139882D01*
X339410Y153538D01*
X337134Y155433D01*
X331545Y155433D01*
X331516Y155466D01*
X328228D01*
X324941D01*
X324912Y155433D01*
X324369D01*
X324016Y155787D01*
X324016Y158976D01*
X325037Y160000D01*
X337677D01*
X339409Y161732D01*
X339410Y175630D01*
X337165Y177874D01*
X331545D01*
X331516Y177907D01*
X328228D01*
X324941D01*
X324912Y177874D01*
X324016D01*
X324015Y181418D01*
X325038Y182441D01*
X337441D01*
X339409Y184409D01*
X339410Y198503D01*
X337598Y200315D01*
X331545D01*
X331516Y200348D01*
X328228D01*
X324941D01*
X324912Y200315D01*
X324016D01*
X324016Y203622D01*
X325276Y204882D01*
X339764D01*
X345654Y198992D01*
X345654Y13780D01*
X345654Y13778D01*
X345654Y13777D01*
X345657Y12926D01*
X345439Y11238D01*
X345002Y9592D01*
X344353Y8019D01*
X343503Y6543D01*
X342468Y5192D01*
X341264Y3989D01*
X339913Y2953D01*
X338438Y2104D01*
X336864Y1455D01*
X335219Y1018D01*
X333531Y800D01*
X332680Y803D01*
X332678Y802D01*
X332677Y803D01*
X13780D01*
X13778Y802D01*
X13777Y803D01*
X12926Y800D01*
X11238Y1018D01*
X9592Y1455D01*
X8019Y2104D01*
X6543Y2953D01*
X5192Y3989D01*
X3989Y5192D01*
X2953Y6543D01*
X2104Y8019D01*
X1455Y9592D01*
X1018Y11238D01*
X800Y12926D01*
X803Y13777D01*
X802Y13778D01*
X803Y13780D01*
Y206693D01*
X802Y206694D01*
X803Y206696D01*
X800Y207547D01*
X1018Y209235D01*
X1455Y210880D01*
X2104Y212454D01*
X2953Y213929D01*
X3989Y215280D01*
X5192Y216484D01*
X6543Y217519D01*
X8019Y218369D01*
X9592Y219018D01*
X11238Y219455D01*
X12926Y219672D01*
X13777Y219670D01*
D02*
G37*
%LPC*%
G36*
X193353Y216070D02*
Y212089D01*
X197334D01*
X197235Y212837D01*
X196792Y213906D01*
X196088Y214824D01*
X195170Y215529D01*
X194100Y215971D01*
X193353Y216070D01*
D02*
G37*
G36*
X173353D02*
Y212089D01*
X177334D01*
X177235Y212837D01*
X176792Y213906D01*
X176088Y214824D01*
X175170Y215529D01*
X174100Y215971D01*
X173353Y216070D01*
D02*
G37*
G36*
X123353D02*
Y212089D01*
X127334D01*
X127235Y212837D01*
X126792Y213906D01*
X126088Y214824D01*
X125170Y215529D01*
X124100Y215971D01*
X123353Y216070D01*
D02*
G37*
G36*
X93353D02*
Y212089D01*
X97334D01*
X97235Y212837D01*
X96792Y213906D01*
X96088Y214824D01*
X95170Y215529D01*
X94100Y215971D01*
X93353Y216070D01*
D02*
G37*
G36*
X53353D02*
Y212089D01*
X57334D01*
X57235Y212837D01*
X56792Y213906D01*
X56088Y214824D01*
X55170Y215529D01*
X54100Y215971D01*
X53353Y216070D01*
D02*
G37*
G36*
X192553D02*
X191805Y215971D01*
X190736Y215529D01*
X189818Y214824D01*
X189113Y213906D01*
X188670Y212837D01*
X188572Y212089D01*
X192553D01*
Y216070D01*
D02*
G37*
G36*
X172553D02*
X171805Y215971D01*
X170736Y215529D01*
X169818Y214824D01*
X169113Y213906D01*
X168670Y212837D01*
X168572Y212089D01*
X172553D01*
Y216070D01*
D02*
G37*
G36*
X122553D02*
X121805Y215971D01*
X120736Y215529D01*
X119818Y214824D01*
X119113Y213906D01*
X118670Y212837D01*
X118572Y212089D01*
X122553D01*
Y216070D01*
D02*
G37*
G36*
X92553D02*
X91805Y215971D01*
X90736Y215529D01*
X89818Y214824D01*
X89113Y213906D01*
X88670Y212837D01*
X88572Y212089D01*
X92553D01*
Y216070D01*
D02*
G37*
G36*
X222953Y215618D02*
X221936Y215484D01*
X220988Y215092D01*
X220174Y214467D01*
X219550Y213654D01*
X219157Y212706D01*
X219023Y211689D01*
X219157Y210672D01*
X219550Y209724D01*
X220174Y208911D01*
X220988Y208286D01*
X221936Y207894D01*
X222953Y207760D01*
X223970Y207894D01*
X224917Y208286D01*
X225731Y208911D01*
X226356Y209724D01*
X226748Y210672D01*
X226882Y211689D01*
X226748Y212706D01*
X226356Y213654D01*
X225731Y214467D01*
X224917Y215092D01*
X223970Y215484D01*
X222953Y215618D01*
D02*
G37*
G36*
X212953D02*
X211936Y215484D01*
X210988Y215092D01*
X210174Y214467D01*
X209550Y213654D01*
X209157Y212706D01*
X209023Y211689D01*
X209157Y210672D01*
X209550Y209724D01*
X210174Y208911D01*
X210988Y208286D01*
X211936Y207894D01*
X212953Y207760D01*
X213970Y207894D01*
X214917Y208286D01*
X215731Y208911D01*
X216356Y209724D01*
X216748Y210672D01*
X216882Y211689D01*
X216748Y212706D01*
X216356Y213654D01*
X215731Y214467D01*
X214917Y215092D01*
X213970Y215484D01*
X212953Y215618D01*
D02*
G37*
G36*
X162953D02*
X161936Y215484D01*
X160988Y215092D01*
X160174Y214467D01*
X159550Y213654D01*
X159157Y212706D01*
X159023Y211689D01*
X159157Y210672D01*
X159550Y209724D01*
X160174Y208911D01*
X160988Y208286D01*
X161936Y207894D01*
X162953Y207760D01*
X163970Y207894D01*
X164917Y208286D01*
X165731Y208911D01*
X166356Y209724D01*
X166748Y210672D01*
X166882Y211689D01*
X166748Y212706D01*
X166356Y213654D01*
X165731Y214467D01*
X164917Y215092D01*
X163970Y215484D01*
X162953Y215618D01*
D02*
G37*
G36*
X152953D02*
X151936Y215484D01*
X150988Y215092D01*
X150174Y214467D01*
X149550Y213654D01*
X149157Y212706D01*
X149023Y211689D01*
X149157Y210672D01*
X149550Y209724D01*
X149826Y209365D01*
X147371Y206910D01*
X147194Y206646D01*
X147132Y206333D01*
X147132Y206333D01*
Y203086D01*
X146632Y202987D01*
X146356Y203654D01*
X145731Y204467D01*
X144917Y205092D01*
X143970Y205484D01*
X142953Y205618D01*
X141936Y205484D01*
X140988Y205092D01*
X140174Y204467D01*
X139550Y203654D01*
X139157Y202706D01*
X139023Y201689D01*
X139157Y200672D01*
X139550Y199724D01*
X140174Y198910D01*
X140988Y198286D01*
X141936Y197894D01*
X142953Y197760D01*
X143970Y197894D01*
X144917Y198286D01*
X145731Y198910D01*
X146356Y199724D01*
X146632Y200392D01*
X147132Y200292D01*
Y197695D01*
X145410Y195973D01*
X136732D01*
X136420Y195911D01*
X136155Y195734D01*
X136155Y195734D01*
X131303Y190882D01*
X131152Y190998D01*
X130217Y191385D01*
X129213Y191517D01*
X128208Y191385D01*
X127273Y190998D01*
X126469Y190381D01*
X125853Y189578D01*
X125465Y188642D01*
X125333Y187638D01*
X125465Y186634D01*
X125853Y185698D01*
X126469Y184895D01*
X127273Y184278D01*
X128208Y183890D01*
X129213Y183758D01*
X130217Y183890D01*
X131152Y184278D01*
X131956Y184895D01*
X132572Y185698D01*
X132960Y186634D01*
X133092Y187638D01*
X132960Y188642D01*
X132572Y189578D01*
X132457Y189728D01*
X137070Y194342D01*
X145748D01*
X145748Y194342D01*
X146060Y194404D01*
X146325Y194581D01*
X148524Y196780D01*
X148524Y196780D01*
X148701Y197045D01*
X148763Y197357D01*
X148763Y197357D01*
Y199107D01*
X149263Y199276D01*
X149818Y198554D01*
X150736Y197849D01*
X151805Y197406D01*
X152553Y197308D01*
Y201689D01*
Y206070D01*
X151805Y205972D01*
X150736Y205529D01*
X149818Y204824D01*
X149263Y204101D01*
X148763Y204271D01*
Y205996D01*
X151035Y208267D01*
X151936Y207894D01*
X152953Y207760D01*
X153970Y207894D01*
X154917Y208286D01*
X155731Y208911D01*
X156356Y209724D01*
X156748Y210672D01*
X156882Y211689D01*
X156748Y212706D01*
X156356Y213654D01*
X155731Y214467D01*
X154917Y215092D01*
X153970Y215484D01*
X152953Y215618D01*
D02*
G37*
G36*
X142953D02*
X141936Y215484D01*
X140988Y215092D01*
X140174Y214467D01*
X139550Y213654D01*
X139157Y212706D01*
X139023Y211689D01*
X139157Y210672D01*
X139550Y209724D01*
X140174Y208911D01*
X140988Y208286D01*
X141936Y207894D01*
X142953Y207760D01*
X143970Y207894D01*
X144917Y208286D01*
X145731Y208911D01*
X146356Y209724D01*
X146748Y210672D01*
X146882Y211689D01*
X146748Y212706D01*
X146356Y213654D01*
X145731Y214467D01*
X144917Y215092D01*
X143970Y215484D01*
X142953Y215618D01*
D02*
G37*
G36*
X132953D02*
X131936Y215484D01*
X130988Y215092D01*
X130174Y214467D01*
X129550Y213654D01*
X129157Y212706D01*
X129024Y211689D01*
X129157Y210672D01*
X129550Y209724D01*
X130174Y208911D01*
X130988Y208286D01*
X131936Y207894D01*
X132953Y207760D01*
X133970Y207894D01*
X134917Y208286D01*
X135731Y208911D01*
X136356Y209724D01*
X136748Y210672D01*
X136882Y211689D01*
X136748Y212706D01*
X136356Y213654D01*
X135731Y214467D01*
X134917Y215092D01*
X133970Y215484D01*
X132953Y215618D01*
D02*
G37*
G36*
X82953D02*
X81936Y215484D01*
X80988Y215092D01*
X80174Y214467D01*
X79550Y213654D01*
X79157Y212706D01*
X79023Y211689D01*
X79157Y210672D01*
X79550Y209724D01*
X80174Y208911D01*
X80988Y208286D01*
X81936Y207894D01*
X82953Y207760D01*
X83970Y207894D01*
X84917Y208286D01*
X85731Y208911D01*
X86356Y209724D01*
X86748Y210672D01*
X86882Y211689D01*
X86748Y212706D01*
X86356Y213654D01*
X85731Y214467D01*
X84917Y215092D01*
X83970Y215484D01*
X82953Y215618D01*
D02*
G37*
G36*
X72953D02*
X71936Y215484D01*
X70988Y215092D01*
X70174Y214467D01*
X69550Y213654D01*
X69157Y212706D01*
X69024Y211689D01*
X69157Y210672D01*
X69550Y209724D01*
X70174Y208911D01*
X70988Y208286D01*
X71936Y207894D01*
X72953Y207760D01*
X73970Y207894D01*
X74917Y208286D01*
X75731Y208911D01*
X76356Y209724D01*
X76748Y210672D01*
X76882Y211689D01*
X76748Y212706D01*
X76356Y213654D01*
X75731Y214467D01*
X74917Y215092D01*
X73970Y215484D01*
X72953Y215618D01*
D02*
G37*
G36*
X62953D02*
X61936Y215484D01*
X60988Y215092D01*
X60174Y214467D01*
X59550Y213654D01*
X59157Y212706D01*
X59023Y211689D01*
X59157Y210672D01*
X59550Y209724D01*
X60174Y208911D01*
X60988Y208286D01*
X61936Y207894D01*
X62953Y207760D01*
X63970Y207894D01*
X64917Y208286D01*
X65731Y208911D01*
X66356Y209724D01*
X66748Y210672D01*
X66882Y211689D01*
X66748Y212706D01*
X66356Y213654D01*
X65731Y214467D01*
X64917Y215092D01*
X63970Y215484D01*
X62953Y215618D01*
D02*
G37*
G36*
X197334Y211289D02*
X193353D01*
Y207308D01*
X194100Y207406D01*
X195170Y207849D01*
X196088Y208554D01*
X196792Y209472D01*
X197235Y210542D01*
X197334Y211289D01*
D02*
G37*
G36*
X177334D02*
X173353D01*
Y207308D01*
X174100Y207406D01*
X175170Y207849D01*
X176088Y208554D01*
X176792Y209472D01*
X177235Y210542D01*
X177334Y211289D01*
D02*
G37*
G36*
X127334D02*
X123353D01*
Y207308D01*
X124100Y207406D01*
X125170Y207849D01*
X126088Y208554D01*
X126792Y209472D01*
X127235Y210542D01*
X127334Y211289D01*
D02*
G37*
G36*
X97334D02*
X93353D01*
Y207308D01*
X94100Y207406D01*
X95170Y207849D01*
X96088Y208554D01*
X96792Y209472D01*
X97235Y210542D01*
X97334Y211289D01*
D02*
G37*
G36*
X57334D02*
X53353D01*
Y207308D01*
X54100Y207406D01*
X55170Y207849D01*
X56088Y208554D01*
X56792Y209472D01*
X57235Y210542D01*
X57334Y211289D01*
D02*
G37*
G36*
X192553D02*
X188572D01*
X188670Y210542D01*
X189113Y209472D01*
X189818Y208554D01*
X190736Y207849D01*
X191805Y207406D01*
X192553Y207308D01*
Y211289D01*
D02*
G37*
G36*
X172553D02*
X168572D01*
X168670Y210542D01*
X169113Y209472D01*
X169818Y208554D01*
X170736Y207849D01*
X171805Y207406D01*
X172553Y207308D01*
Y211289D01*
D02*
G37*
G36*
X122553D02*
X118572D01*
X118670Y210542D01*
X119113Y209472D01*
X119818Y208554D01*
X120736Y207849D01*
X121805Y207406D01*
X122553Y207308D01*
Y211289D01*
D02*
G37*
G36*
X92553D02*
X88572D01*
X88670Y210542D01*
X89113Y209472D01*
X89818Y208554D01*
X90736Y207849D01*
X91805Y207406D01*
X92553Y207308D01*
Y211289D01*
D02*
G37*
G36*
X223353Y206070D02*
Y202089D01*
X227334D01*
X227235Y202836D01*
X226792Y203906D01*
X226088Y204824D01*
X225170Y205529D01*
X224100Y205972D01*
X223353Y206070D01*
D02*
G37*
G36*
X153353D02*
Y202089D01*
X157334D01*
X157235Y202836D01*
X156792Y203906D01*
X156088Y204824D01*
X155170Y205529D01*
X154100Y205972D01*
X153353Y206070D01*
D02*
G37*
G36*
X73353D02*
Y202089D01*
X77334D01*
X77235Y202836D01*
X76792Y203906D01*
X76088Y204824D01*
X75170Y205529D01*
X74100Y205972D01*
X73353Y206070D01*
D02*
G37*
G36*
X222553D02*
X221805Y205972D01*
X220736Y205529D01*
X219818Y204824D01*
X219113Y203906D01*
X218670Y202836D01*
X218572Y202089D01*
X222553D01*
Y206070D01*
D02*
G37*
G36*
X72553D02*
X71805Y205972D01*
X70736Y205529D01*
X69818Y204824D01*
X69113Y203906D01*
X68670Y202836D01*
X68572Y202089D01*
X72553D01*
Y206070D01*
D02*
G37*
G36*
X212953Y205618D02*
X211936Y205484D01*
X210988Y205092D01*
X210174Y204467D01*
X209550Y203654D01*
X209157Y202706D01*
X209023Y201689D01*
X209157Y200672D01*
X209550Y199724D01*
X210174Y198910D01*
X210988Y198286D01*
X211936Y197894D01*
X212953Y197760D01*
X213970Y197894D01*
X214917Y198286D01*
X215731Y198910D01*
X216356Y199724D01*
X216748Y200672D01*
X216882Y201689D01*
X216748Y202706D01*
X216356Y203654D01*
X215731Y204467D01*
X214917Y205092D01*
X213970Y205484D01*
X212953Y205618D01*
D02*
G37*
G36*
X162953D02*
X161936Y205484D01*
X160988Y205092D01*
X160174Y204467D01*
X159550Y203654D01*
X159157Y202706D01*
X159023Y201689D01*
X159157Y200672D01*
X159550Y199724D01*
X160174Y198910D01*
X160988Y198286D01*
X161936Y197894D01*
X162953Y197760D01*
X163970Y197894D01*
X164917Y198286D01*
X165731Y198910D01*
X166356Y199724D01*
X166748Y200672D01*
X166882Y201689D01*
X166748Y202706D01*
X166356Y203654D01*
X165731Y204467D01*
X164917Y205092D01*
X163970Y205484D01*
X162953Y205618D01*
D02*
G37*
G36*
X132953D02*
X131936Y205484D01*
X130988Y205092D01*
X130174Y204467D01*
X129550Y203654D01*
X129157Y202706D01*
X129024Y201689D01*
X129157Y200672D01*
X129550Y199724D01*
X130174Y198910D01*
X130988Y198286D01*
X131936Y197894D01*
X132953Y197760D01*
X133970Y197894D01*
X134917Y198286D01*
X135731Y198910D01*
X136356Y199724D01*
X136748Y200672D01*
X136882Y201689D01*
X136748Y202706D01*
X136356Y203654D01*
X135731Y204467D01*
X134917Y205092D01*
X133970Y205484D01*
X132953Y205618D01*
D02*
G37*
G36*
X92953D02*
X91936Y205484D01*
X90988Y205092D01*
X90174Y204467D01*
X89550Y203654D01*
X89157Y202706D01*
X89024Y201689D01*
X89157Y200672D01*
X89550Y199724D01*
X90174Y198910D01*
X90988Y198286D01*
X91936Y197894D01*
X92953Y197760D01*
X93970Y197894D01*
X94917Y198286D01*
X95731Y198910D01*
X96356Y199724D01*
X96748Y200672D01*
X96882Y201689D01*
X96748Y202706D01*
X96356Y203654D01*
X95731Y204467D01*
X94917Y205092D01*
X93970Y205484D01*
X92953Y205618D01*
D02*
G37*
G36*
X82953D02*
X81936Y205484D01*
X80988Y205092D01*
X80174Y204467D01*
X79550Y203654D01*
X79157Y202706D01*
X79023Y201689D01*
X79157Y200672D01*
X79550Y199724D01*
X80174Y198910D01*
X80988Y198286D01*
X81936Y197894D01*
X82953Y197760D01*
X83970Y197894D01*
X84917Y198286D01*
X85731Y198910D01*
X86356Y199724D01*
X86748Y200672D01*
X86882Y201689D01*
X86748Y202706D01*
X86356Y203654D01*
X85731Y204467D01*
X84917Y205092D01*
X83970Y205484D01*
X82953Y205618D01*
D02*
G37*
G36*
X62953D02*
X61936Y205484D01*
X60988Y205092D01*
X60174Y204467D01*
X59550Y203654D01*
X59157Y202706D01*
X59023Y201689D01*
X59157Y200672D01*
X59550Y199724D01*
X60174Y198910D01*
X60988Y198286D01*
X61936Y197894D01*
X62953Y197760D01*
X63970Y197894D01*
X64917Y198286D01*
X65731Y198910D01*
X66356Y199724D01*
X66748Y200672D01*
X66882Y201689D01*
X66748Y202706D01*
X66356Y203654D01*
X65731Y204467D01*
X64917Y205092D01*
X63970Y205484D01*
X62953Y205618D01*
D02*
G37*
G36*
X227334Y201289D02*
X223353D01*
Y197308D01*
X224100Y197406D01*
X225170Y197849D01*
X226088Y198554D01*
X226792Y199472D01*
X227235Y200541D01*
X227334Y201289D01*
D02*
G37*
G36*
X157334D02*
X153353D01*
Y197308D01*
X154100Y197406D01*
X155170Y197849D01*
X156088Y198554D01*
X156792Y199472D01*
X157235Y200541D01*
X157334Y201289D01*
D02*
G37*
G36*
X77334D02*
X73353D01*
Y197308D01*
X74100Y197406D01*
X75170Y197849D01*
X76088Y198554D01*
X76792Y199472D01*
X77235Y200541D01*
X77334Y201289D01*
D02*
G37*
G36*
X222553D02*
X218572D01*
X218670Y200541D01*
X219113Y199472D01*
X219818Y198554D01*
X220736Y197849D01*
X221805Y197406D01*
X222553Y197308D01*
Y201289D01*
D02*
G37*
G36*
X72553D02*
X68572D01*
X68670Y200541D01*
X69113Y199472D01*
X69818Y198554D01*
X70736Y197849D01*
X71805Y197406D01*
X72553Y197308D01*
Y201289D01*
D02*
G37*
G36*
X255044Y206293D02*
X242526D01*
Y193775D01*
X244152Y193903D01*
X246128Y194377D01*
X248005Y195155D01*
X249737Y196217D01*
X251283Y197536D01*
X252602Y199082D01*
X253664Y200814D01*
X254442Y202691D01*
X254916Y204667D01*
X255044Y206293D01*
D02*
G37*
G36*
X241726D02*
X229208D01*
X229336Y204667D01*
X229810Y202691D01*
X230588Y200814D01*
X231650Y199082D01*
X232969Y197536D01*
X234514Y196217D01*
X236247Y195155D01*
X238124Y194377D01*
X240100Y193903D01*
X241726Y193775D01*
Y206293D01*
D02*
G37*
G36*
X331170Y195427D02*
X328228D01*
X325287D01*
X325336Y195052D01*
X325635Y194330D01*
X326111Y193710D01*
X326563Y193363D01*
X326605Y192789D01*
X326449Y192685D01*
X325903Y191869D01*
X325711Y190905D01*
X325903Y189942D01*
X325987Y189817D01*
X279111Y142942D01*
X236732D01*
X236420Y142880D01*
X236156Y142703D01*
X236156Y142703D01*
X225959Y132506D01*
X225782Y132241D01*
X225720Y131929D01*
X225720Y131929D01*
Y129372D01*
X223976D01*
X223320Y129241D01*
X222764Y128869D01*
X222393Y128313D01*
X222262Y127657D01*
X222393Y127002D01*
X222764Y126445D01*
X223320Y126074D01*
X223976Y125943D01*
X229095D01*
X229750Y126074D01*
X230307Y126445D01*
X230678Y127002D01*
X230808Y127657D01*
X230678Y128313D01*
X230307Y128869D01*
X229750Y129241D01*
X229095Y129372D01*
X227351D01*
Y131591D01*
X237070Y141310D01*
X238716D01*
X238868Y140810D01*
X238754Y140734D01*
X232809Y134789D01*
X232632Y134525D01*
X232570Y134213D01*
X232570Y134213D01*
Y124354D01*
X231690Y123473D01*
X230571D01*
X230307Y123870D01*
X229750Y124241D01*
X229095Y124372D01*
X223976D01*
X223320Y124241D01*
X222764Y123870D01*
X222393Y123313D01*
X222262Y122658D01*
X222393Y122002D01*
X222764Y121446D01*
X223320Y121074D01*
X223976Y120943D01*
X229095D01*
X229750Y121074D01*
X230307Y121446D01*
X230571Y121842D01*
X232028D01*
X232028Y121842D01*
X232340Y121904D01*
X232604Y122081D01*
X233963Y123439D01*
X233963Y123439D01*
X234139Y123704D01*
X234202Y124016D01*
X234202Y124016D01*
Y133875D01*
X239669Y139342D01*
X240961D01*
X241019Y139340D01*
X241457Y139201D01*
X241654Y139004D01*
X241536Y138416D01*
X241471Y138372D01*
X241470Y138372D01*
X235762Y132663D01*
X235585Y132399D01*
X235523Y132087D01*
X235523Y132087D01*
Y116361D01*
X232635Y113473D01*
X230571D01*
X230307Y113870D01*
X229750Y114241D01*
X229095Y114372D01*
X223976D01*
X223320Y114241D01*
X222764Y113870D01*
X222393Y113313D01*
X222262Y112657D01*
X222393Y112002D01*
X222764Y111445D01*
X223320Y111074D01*
X223976Y110943D01*
X229095D01*
X229750Y111074D01*
X230307Y111445D01*
X230571Y111842D01*
X232972D01*
X232972Y111842D01*
X233285Y111904D01*
X233549Y112081D01*
X236915Y115447D01*
X236915Y115447D01*
X237092Y115711D01*
X237154Y116024D01*
Y131749D01*
X242385Y136980D01*
X243204D01*
X243356Y136480D01*
X243242Y136404D01*
X243242Y136404D01*
X238478Y131640D01*
X238301Y131375D01*
X238239Y131063D01*
X238239Y131063D01*
Y110023D01*
X236690Y108473D01*
X230571D01*
X230307Y108870D01*
X229750Y109241D01*
X229095Y109371D01*
X223976D01*
X223320Y109241D01*
X222764Y108870D01*
X222393Y108313D01*
X222262Y107658D01*
X222393Y107001D01*
X222764Y106446D01*
X223320Y106074D01*
X223976Y105943D01*
X229095D01*
X229750Y106074D01*
X230307Y106446D01*
X230571Y106842D01*
X237028D01*
X237028Y106842D01*
X237340Y106904D01*
X237604Y107081D01*
X239632Y109108D01*
X239632Y109108D01*
X239809Y109373D01*
X239871Y109685D01*
X239871Y109685D01*
Y130725D01*
X244157Y135011D01*
X292694D01*
X304699Y123006D01*
X304699Y123006D01*
X304963Y122829D01*
X305276Y122767D01*
X325874D01*
X325903Y122620D01*
X326449Y121803D01*
X327265Y121257D01*
X328228Y121066D01*
X329191Y121257D01*
X330008Y121803D01*
X330554Y122620D01*
X330745Y123583D01*
X330554Y124546D01*
X330008Y125362D01*
X329852Y125467D01*
X329894Y126040D01*
X330346Y126387D01*
X330821Y127007D01*
X331120Y127729D01*
X331170Y128104D01*
X328228D01*
X325287D01*
X325336Y127729D01*
X325635Y127007D01*
X326111Y126387D01*
X326563Y126040D01*
X326605Y125467D01*
X326449Y125362D01*
X325903Y124546D01*
X325874Y124398D01*
X305613D01*
X293608Y136404D01*
X293494Y136480D01*
X293646Y136980D01*
X297913D01*
X297913Y136980D01*
X298225Y137042D01*
X298490Y137218D01*
X306480Y145208D01*
X325874D01*
X325903Y145061D01*
X326449Y144244D01*
X327265Y143698D01*
X328228Y143507D01*
X329191Y143698D01*
X330008Y144244D01*
X330554Y145061D01*
X330745Y146024D01*
X330554Y146987D01*
X330008Y147803D01*
X329852Y147908D01*
X329894Y148481D01*
X330346Y148828D01*
X330821Y149448D01*
X331120Y150170D01*
X331170Y150545D01*
X328228D01*
X325287D01*
X325336Y150170D01*
X325635Y149448D01*
X326111Y148828D01*
X326563Y148481D01*
X326605Y147908D01*
X326449Y147803D01*
X325903Y146987D01*
X325874Y146839D01*
X306142D01*
X306142Y146839D01*
X305830Y146777D01*
X305565Y146600D01*
X305565Y146600D01*
X297575Y138611D01*
X294503D01*
X294007Y138622D01*
X293532Y139098D01*
X293490Y139581D01*
X293623Y139714D01*
X310968Y157058D01*
X317638D01*
X317638Y157058D01*
X317950Y157120D01*
X318215Y157297D01*
X327140Y166223D01*
X327265Y166139D01*
X328228Y165948D01*
X329191Y166139D01*
X330008Y166685D01*
X330554Y167501D01*
X330745Y168465D01*
X330554Y169428D01*
X330008Y170244D01*
X329852Y170349D01*
X329894Y170922D01*
X330346Y171269D01*
X330821Y171889D01*
X331120Y172611D01*
X331170Y172986D01*
X328228D01*
X325287D01*
X325336Y172611D01*
X325635Y171889D01*
X326111Y171269D01*
X326563Y170922D01*
X326605Y170349D01*
X326449Y170244D01*
X325903Y169428D01*
X325711Y168465D01*
X325903Y167501D01*
X325987Y167376D01*
X317300Y158690D01*
X310630D01*
X310630Y158690D01*
X310318Y158628D01*
X310053Y158451D01*
X310053Y158451D01*
X292576Y140973D01*
X280063D01*
X279912Y141473D01*
X280026Y141549D01*
X327140Y188664D01*
X327265Y188580D01*
X328228Y188389D01*
X329191Y188580D01*
X330008Y189126D01*
X330554Y189942D01*
X330745Y190905D01*
X330554Y191869D01*
X330008Y192685D01*
X329852Y192789D01*
X329894Y193363D01*
X330346Y193710D01*
X330821Y194330D01*
X331120Y195052D01*
X331170Y195427D01*
D02*
G37*
G36*
X55224Y187705D02*
X50681D01*
Y183358D01*
X51933D01*
Y182837D01*
X51528Y182567D01*
X51091Y181913D01*
X50938Y181142D01*
X51091Y180371D01*
X51528Y179717D01*
X52182Y179280D01*
X52953Y179127D01*
X53724Y179280D01*
X54378Y179717D01*
X54814Y180371D01*
X54968Y181142D01*
X54814Y181913D01*
X54378Y182567D01*
X53972Y182837D01*
Y183358D01*
X55224D01*
Y187705D01*
D02*
G37*
G36*
X45224D02*
X40681D01*
Y183358D01*
X41933D01*
Y182837D01*
X41528Y182567D01*
X41091Y181913D01*
X40938Y181142D01*
X41091Y180371D01*
X41528Y179717D01*
X42182Y179280D01*
X42953Y179127D01*
X43724Y179280D01*
X44378Y179717D01*
X44815Y180371D01*
X44968Y181142D01*
X44815Y181913D01*
X44378Y182567D01*
X43972Y182837D01*
Y183358D01*
X45224D01*
Y187705D01*
D02*
G37*
G36*
X147122Y161903D02*
X145341D01*
Y158646D01*
X147122D01*
Y161903D01*
D02*
G37*
G36*
X20934Y174443D02*
X17992D01*
X15051D01*
X15100Y174068D01*
X15399Y173345D01*
X15875Y172725D01*
X16327Y172379D01*
X16368Y171805D01*
X16212Y171701D01*
X15667Y170884D01*
X15475Y169921D01*
X15667Y168958D01*
X16212Y168142D01*
X16798Y167750D01*
Y167171D01*
X16212Y166780D01*
X15667Y165963D01*
X15475Y165000D01*
X15667Y164037D01*
X16212Y163220D01*
X16798Y162829D01*
Y162250D01*
X16212Y161858D01*
X15667Y161042D01*
X15475Y160079D01*
X15667Y159116D01*
X16212Y158299D01*
X17029Y157754D01*
X17992Y157562D01*
X18955Y157754D01*
X19772Y158299D01*
X20317Y159116D01*
X20509Y160079D01*
X20317Y161042D01*
X19772Y161858D01*
X19186Y162250D01*
Y162829D01*
X19772Y163220D01*
X20317Y164037D01*
X20347Y164184D01*
X41591D01*
X66825Y138951D01*
X67089Y138774D01*
X67402Y138712D01*
X67402Y138712D01*
X90081D01*
X90126Y138369D01*
X90573Y137290D01*
X91284Y136363D01*
X92211Y135652D01*
X93291Y135205D01*
X93633Y135160D01*
Y128374D01*
X92177D01*
Y124028D01*
X96720D01*
Y125385D01*
X97280D01*
X97806Y124859D01*
Y108071D01*
X97806Y108071D01*
X97869Y107759D01*
X98045Y107494D01*
X105132Y100408D01*
X105132Y100408D01*
X105396Y100231D01*
X105709Y100169D01*
X190804D01*
X192413Y98560D01*
Y94541D01*
X192201Y94225D01*
X192116Y93799D01*
Y89272D01*
X192201Y88846D01*
X192413Y88529D01*
Y86024D01*
X192413Y86024D01*
X192475Y85711D01*
X192652Y85447D01*
X195014Y83085D01*
X195014Y83085D01*
X195278Y82908D01*
X195591Y82846D01*
X195591Y82846D01*
X205039D01*
X205039Y82846D01*
X205351Y82908D01*
X205616Y83085D01*
X208372Y85841D01*
X208549Y86105D01*
X208611Y86417D01*
X208611Y86417D01*
Y88175D01*
X208671Y88226D01*
X209106Y88394D01*
X209120Y88391D01*
X209338Y88244D01*
X209764Y88160D01*
X210189Y88244D01*
X210408Y88391D01*
X210748Y88450D01*
X211088Y88391D01*
X211307Y88244D01*
X211732Y88160D01*
X212158Y88244D01*
X212377Y88391D01*
X212554Y88125D01*
X212885Y87904D01*
Y87205D01*
X212885Y87205D01*
X212947Y86893D01*
X213124Y86628D01*
X214108Y85644D01*
X214373Y85467D01*
X214685Y85405D01*
X214685Y85405D01*
X218425D01*
X218425Y85405D01*
X218737Y85467D01*
X219002Y85644D01*
X220813Y87455D01*
X220813Y87455D01*
X220990Y87719D01*
X221052Y88032D01*
Y91263D01*
X222285D01*
X222404Y91085D01*
X223125Y90603D01*
X223976Y90434D01*
X226135D01*
Y92658D01*
Y94881D01*
X223976D01*
X223125Y94712D01*
X222404Y94230D01*
X222193Y93914D01*
X220305D01*
X219798Y93813D01*
X219368Y93526D01*
X219080Y93096D01*
X218980Y92589D01*
X219080Y92081D01*
X219368Y91651D01*
X219421Y91616D01*
Y88369D01*
X218087Y87036D01*
X215023D01*
X214608Y87451D01*
X214645Y87989D01*
X214847Y88125D01*
X215025Y88391D01*
X215244Y88244D01*
X215669Y88160D01*
X216095Y88244D01*
X216456Y88485D01*
X216697Y88846D01*
X216781Y89272D01*
Y93758D01*
X217585Y94561D01*
X217585Y94561D01*
X217761Y94826D01*
X217824Y95138D01*
Y112615D01*
X222032Y116823D01*
X222531Y116795D01*
X222764Y116446D01*
X223320Y116074D01*
X223976Y115943D01*
X229095D01*
X229750Y116074D01*
X230307Y116446D01*
X230678Y117001D01*
X230808Y117657D01*
X230678Y118313D01*
X230307Y118869D01*
X229750Y119241D01*
X229095Y119371D01*
X223976D01*
X223320Y119241D01*
X222764Y118869D01*
X222500Y118473D01*
X221713D01*
X221713Y118473D01*
X221400Y118411D01*
X221136Y118234D01*
X221136Y118234D01*
X216431Y113530D01*
X216254Y113265D01*
X216192Y112953D01*
X216192Y112953D01*
Y107887D01*
X215882Y107516D01*
X215692Y107516D01*
X214239D01*
Y109213D01*
X214138Y109720D01*
X213851Y110150D01*
X213421Y110437D01*
X212913Y110538D01*
X212406Y110437D01*
X211976Y110150D01*
X211689Y109720D01*
X211588Y109213D01*
Y107516D01*
X209945D01*
Y104849D01*
X212913D01*
Y104049D01*
X209945D01*
Y101382D01*
X210057D01*
X210445Y101110D01*
X210445Y100882D01*
Y100011D01*
X209945Y99804D01*
X208048Y101701D01*
X208078Y101850D01*
X207925Y102622D01*
X207488Y103275D01*
X206834Y103712D01*
X206063Y103866D01*
X205292Y103712D01*
X204638Y103275D01*
X204367Y102870D01*
X201956D01*
X201602Y103224D01*
X201602Y104417D01*
X201990Y104689D01*
X202102D01*
Y107356D01*
X196165D01*
Y104689D01*
X196278D01*
X196665Y104417D01*
X196665Y104189D01*
Y99283D01*
X197751D01*
X197958Y98783D01*
X196517Y97342D01*
X196512Y97336D01*
X196012Y97487D01*
Y100394D01*
X196012Y100394D01*
X195950Y100706D01*
X195774Y100970D01*
X195774Y100970D01*
X193411Y103333D01*
X193147Y103509D01*
X192835Y103572D01*
X192835Y103572D01*
X110889D01*
X108532Y105928D01*
Y125079D01*
X108470Y125391D01*
X108293Y125655D01*
X108293Y125655D01*
X107171Y126778D01*
X106907Y126954D01*
X106595Y127016D01*
X106594Y127016D01*
X105579D01*
Y128374D01*
X104123D01*
Y135213D01*
X107365Y138456D01*
X114323D01*
Y136114D01*
X118141D01*
Y135397D01*
X117024Y134280D01*
X111753D01*
X111346Y134889D01*
X110692Y135326D01*
X109921Y135480D01*
X109150Y135326D01*
X108496Y134889D01*
X108060Y134236D01*
X107906Y133465D01*
X108060Y132693D01*
X108496Y132040D01*
X109150Y131603D01*
X109921Y131449D01*
X110692Y131603D01*
X111346Y132040D01*
X111753Y132649D01*
X116873D01*
X117157Y132149D01*
X117136Y132115D01*
X114843D01*
X114842Y132115D01*
X114530Y132053D01*
X114266Y131876D01*
X111589Y129199D01*
X111412Y128934D01*
X111350Y128622D01*
X110960Y128374D01*
X109894D01*
Y124028D01*
X114437D01*
Y125385D01*
X115233D01*
X115759Y124859D01*
Y109037D01*
X115150Y108630D01*
X114713Y107976D01*
X114560Y107205D01*
X114713Y106434D01*
X115150Y105780D01*
X115804Y105343D01*
X116575Y105190D01*
X117346Y105343D01*
X118000Y105780D01*
X118437Y106434D01*
X118590Y107205D01*
X118437Y107976D01*
X118000Y108630D01*
X117391Y109037D01*
Y125197D01*
X117328Y125509D01*
X117152Y125774D01*
X117151Y125774D01*
X116148Y126778D01*
X115883Y126954D01*
X115571Y127016D01*
X115571Y127016D01*
X114437D01*
Y128374D01*
X113724D01*
X113533Y128836D01*
X115180Y130483D01*
X117913D01*
X117913Y130483D01*
X118226Y130546D01*
X118490Y130722D01*
X122092Y134325D01*
X122092Y134325D01*
X122269Y134589D01*
X122331Y134901D01*
Y136114D01*
X123259D01*
Y134351D01*
X120447Y131539D01*
X120270Y131274D01*
X120208Y130962D01*
X120208Y130962D01*
Y128374D01*
X118752D01*
Y124028D01*
X123295D01*
Y125385D01*
X124389D01*
X124598Y125177D01*
Y108978D01*
X123988Y108571D01*
X123552Y107917D01*
X123398Y107146D01*
X123552Y106375D01*
X123988Y105721D01*
X124642Y105284D01*
X125413Y105131D01*
X126184Y105284D01*
X126838Y105721D01*
X127275Y106375D01*
X127428Y107146D01*
X127275Y107917D01*
X126838Y108571D01*
X126229Y108978D01*
Y125515D01*
X126229Y125515D01*
X126167Y125827D01*
X125990Y126091D01*
X125304Y126778D01*
X125039Y126954D01*
X124727Y127016D01*
X124727Y127016D01*
X123295D01*
Y128374D01*
X121839D01*
Y130624D01*
X124652Y133437D01*
X124652Y133437D01*
X124828Y133701D01*
X124890Y134013D01*
Y136114D01*
X125818D01*
Y132421D01*
X125818Y132421D01*
X125880Y132109D01*
X126057Y131844D01*
X129028Y128874D01*
X128973Y128374D01*
X127610D01*
Y124028D01*
X132153D01*
Y125385D01*
X133028D01*
X133515Y124898D01*
Y109391D01*
X132906Y108984D01*
X132469Y108330D01*
X132316Y107559D01*
X132469Y106788D01*
X132906Y106134D01*
X133560Y105697D01*
X134331Y105544D01*
X135102Y105697D01*
X135756Y106134D01*
X136192Y106788D01*
X136346Y107559D01*
X136192Y108330D01*
X135756Y108984D01*
X135146Y109391D01*
Y125236D01*
X135146Y125236D01*
X135136Y125287D01*
X135596Y125537D01*
X135731Y125447D01*
X136043Y125385D01*
X136469D01*
Y124028D01*
X141012D01*
Y124883D01*
X141512Y125091D01*
X142255Y124347D01*
Y111063D01*
X142255Y111063D01*
X142317Y110751D01*
X142494Y110486D01*
X144388Y108593D01*
X144245Y107874D01*
X144398Y107103D01*
X144835Y106449D01*
X145489Y106012D01*
X146260Y105859D01*
X147031Y106012D01*
X147685Y106449D01*
X148122Y107103D01*
X148275Y107874D01*
X148122Y108645D01*
X147685Y109299D01*
X147031Y109736D01*
X146260Y109889D01*
X145541Y109746D01*
X143886Y111401D01*
Y124685D01*
X143887Y124685D01*
X143825Y124997D01*
X143648Y125262D01*
X143648Y125262D01*
X142132Y126778D01*
X141867Y126954D01*
X141555Y127016D01*
X141555Y127016D01*
X141012D01*
Y128374D01*
X136469D01*
Y127740D01*
X136007Y127549D01*
X134674Y128881D01*
X134881Y129381D01*
X145450D01*
X145995Y128836D01*
X145803Y128374D01*
X145327D01*
Y124028D01*
X149870D01*
Y125385D01*
X151099D01*
X151389Y125095D01*
Y114488D01*
X151389Y114488D01*
X151451Y114176D01*
X151628Y113911D01*
X156192Y109347D01*
X156170Y109315D01*
X156016Y108543D01*
X156170Y107772D01*
X156607Y107118D01*
X157260Y106682D01*
X158031Y106528D01*
X158803Y106682D01*
X159456Y107118D01*
X159893Y107772D01*
X160047Y108543D01*
X159893Y109315D01*
X159456Y109968D01*
X158803Y110405D01*
X158031Y110558D01*
X157411Y110435D01*
X153020Y114826D01*
Y125433D01*
X153020Y125433D01*
X152958Y125745D01*
X152781Y126010D01*
X152014Y126778D01*
X151749Y126954D01*
X151437Y127016D01*
X151437Y127016D01*
X149870D01*
Y128374D01*
X148378D01*
Y128422D01*
X148315Y128735D01*
X148139Y128999D01*
X148138Y128999D01*
X146642Y130495D01*
X146850Y130995D01*
X154623D01*
X155641Y129977D01*
Y128374D01*
X154185D01*
Y124028D01*
X158728D01*
Y125385D01*
X159721D01*
X160405Y124701D01*
Y113504D01*
X160405Y113504D01*
X160467Y113192D01*
X160644Y112927D01*
X163911Y109660D01*
X163911Y109659D01*
X164176Y109483D01*
X164488Y109421D01*
X191732D01*
X191732Y109421D01*
X192044Y109483D01*
X192309Y109659D01*
X201403Y118754D01*
X201580Y119019D01*
X201642Y119331D01*
X201642Y119331D01*
Y124662D01*
X203881Y126901D01*
X210354D01*
X210354Y126901D01*
X210666Y126963D01*
X210931Y127140D01*
X235141Y151350D01*
X236774D01*
X236819Y151008D01*
X237266Y149928D01*
X237977Y149001D01*
X238904Y148290D01*
X239983Y147843D01*
X240326Y147798D01*
Y147304D01*
X239717Y146897D01*
X239280Y146244D01*
X239127Y145472D01*
X239280Y144701D01*
X239717Y144048D01*
X240371Y143611D01*
X241142Y143457D01*
X241913Y143611D01*
X242567Y144048D01*
X243003Y144701D01*
X243157Y145472D01*
X243003Y146244D01*
X242567Y146897D01*
X241957Y147304D01*
Y147798D01*
X242300Y147843D01*
X243379Y148290D01*
X244306Y149001D01*
X245017Y149928D01*
X245359Y150754D01*
X245901D01*
X246242Y149928D01*
X246954Y149001D01*
X247881Y148290D01*
X248960Y147843D01*
X249302Y147798D01*
Y147304D01*
X248693Y146897D01*
X248256Y146244D01*
X248103Y145472D01*
X248256Y144701D01*
X248693Y144048D01*
X249347Y143611D01*
X250118Y143457D01*
X250889Y143611D01*
X251543Y144048D01*
X251980Y144701D01*
X252133Y145472D01*
X251980Y146244D01*
X251543Y146897D01*
X250934Y147304D01*
Y147798D01*
X251276Y147843D01*
X252356Y148290D01*
X253283Y149001D01*
X253994Y149928D01*
X254336Y150753D01*
X254877D01*
X255219Y149928D01*
X255930Y149001D01*
X256857Y148290D01*
X257936Y147843D01*
X258279Y147798D01*
Y147304D01*
X257670Y146897D01*
X257233Y146244D01*
X257079Y145472D01*
X257233Y144701D01*
X257670Y144048D01*
X258323Y143611D01*
X259095Y143457D01*
X259866Y143611D01*
X260519Y144048D01*
X260956Y144701D01*
X261110Y145472D01*
X260956Y146244D01*
X260519Y146897D01*
X259910Y147304D01*
Y147798D01*
X260253Y147843D01*
X261332Y148290D01*
X262259Y149001D01*
X262970Y149928D01*
X263417Y151008D01*
X263570Y152166D01*
X263417Y153324D01*
X262970Y154403D01*
X262259Y155330D01*
X261332Y156042D01*
X260253Y156489D01*
X259871Y156539D01*
Y157441D01*
X259871Y157441D01*
X259809Y157753D01*
X259632Y158018D01*
X259632Y158018D01*
X253372Y164278D01*
X253107Y164454D01*
X252795Y164516D01*
X252795Y164516D01*
X238622D01*
X238310Y164454D01*
X238045Y164278D01*
X238045Y164278D01*
X211670Y137902D01*
X200905D01*
X200593Y137840D01*
X200329Y137663D01*
X200329Y137663D01*
X189682Y127016D01*
X176445D01*
Y128374D01*
X174989D01*
Y129291D01*
X174927Y129604D01*
X174750Y129868D01*
X174750Y129868D01*
X169199Y135419D01*
X168934Y135596D01*
X168622Y135658D01*
X168622Y135658D01*
X146728D01*
X146622Y136114D01*
X146622D01*
Y138436D01*
X148122D01*
Y136980D01*
X152469D01*
Y141524D01*
X151111D01*
Y142689D01*
X153157Y142689D01*
X153429Y142301D01*
Y142189D01*
X156096D01*
Y145158D01*
Y148126D01*
X153429D01*
Y148013D01*
X153157Y147626D01*
X152929Y147626D01*
X148024D01*
Y142689D01*
X149480D01*
Y141524D01*
X148122D01*
Y140068D01*
X146622D01*
Y142429D01*
X116820D01*
Y146594D01*
X116820Y146595D01*
X116758Y146907D01*
X116581Y147171D01*
X116581Y147171D01*
X113766Y149986D01*
X113501Y150163D01*
X113189Y150225D01*
X113189Y150225D01*
X107675D01*
X107630Y150568D01*
X107183Y151647D01*
X106472Y152574D01*
X105545Y153285D01*
X104465Y153732D01*
X103307Y153885D01*
X102149Y153732D01*
X101069Y153285D01*
X100143Y152574D01*
X99431Y151647D01*
X98984Y150568D01*
X98939Y150225D01*
X62661D01*
X42388Y170498D01*
X42123Y170675D01*
X41811Y170737D01*
X41811Y170737D01*
X20347D01*
X20317Y170884D01*
X19772Y171701D01*
X19616Y171805D01*
X19658Y172379D01*
X20109Y172725D01*
X20585Y173345D01*
X20884Y174068D01*
X20934Y174443D01*
D02*
G37*
G36*
X159563Y148126D02*
X156896D01*
Y145158D01*
Y142189D01*
X159563D01*
Y144138D01*
X161142D01*
X161532Y144216D01*
X161863Y144437D01*
X162084Y144767D01*
X162161Y145158D01*
X162084Y145548D01*
X161863Y145878D01*
X161532Y146099D01*
X161142Y146177D01*
X159563D01*
Y148126D01*
D02*
G37*
G36*
X18228Y148855D02*
X17265Y148664D01*
X16449Y148118D01*
X15903Y147302D01*
X15711Y146339D01*
X15903Y145375D01*
X16449Y144559D01*
X16605Y144455D01*
X16563Y143881D01*
X16111Y143535D01*
X15635Y142914D01*
X15336Y142192D01*
X15287Y141817D01*
X18228D01*
X21170D01*
X21120Y142192D01*
X20821Y142914D01*
X20346Y143535D01*
X19894Y143881D01*
X19852Y144455D01*
X20008Y144559D01*
X20554Y145375D01*
X20745Y146339D01*
X20554Y147302D01*
X20008Y148118D01*
X19192Y148664D01*
X18228Y148855D01*
D02*
G37*
G36*
X21170Y141017D02*
X18228D01*
X15287D01*
X15336Y140642D01*
X15635Y139920D01*
X16111Y139300D01*
X16563Y138953D01*
X16605Y138380D01*
X16449Y138276D01*
X15903Y137459D01*
X15711Y136496D01*
X15903Y135533D01*
X16449Y134716D01*
X17265Y134171D01*
X18228Y133979D01*
X19192Y134171D01*
X20008Y134716D01*
X20554Y135533D01*
X20745Y136496D01*
X20554Y137459D01*
X20008Y138276D01*
X19852Y138380D01*
X19894Y138953D01*
X20346Y139300D01*
X20821Y139920D01*
X21120Y140642D01*
X21170Y141017D01*
D02*
G37*
G36*
X271732Y134299D02*
X270961Y134145D01*
X270307Y133708D01*
X269871Y133055D01*
X269717Y132283D01*
X269871Y131512D01*
X270307Y130859D01*
X270407Y130792D01*
Y130126D01*
X269165D01*
Y128983D01*
X267538D01*
X267152Y129241D01*
X266496Y129372D01*
X261378D01*
X260722Y129241D01*
X260166Y128869D01*
X259794Y128313D01*
X259664Y127657D01*
X259794Y127002D01*
X260166Y126445D01*
X260722Y126074D01*
X261378Y125943D01*
X266496D01*
X267152Y126074D01*
X267538Y126332D01*
X269165D01*
Y125189D01*
X274071D01*
X274299Y125189D01*
X274571Y124802D01*
Y124689D01*
X277238D01*
Y127657D01*
Y130626D01*
X274571D01*
Y130513D01*
X274299Y130126D01*
X274071Y130126D01*
X273058D01*
Y130792D01*
X273157Y130859D01*
X273594Y131512D01*
X273747Y132283D01*
X273594Y133055D01*
X273157Y133708D01*
X272503Y134145D01*
X271732Y134299D01*
D02*
G37*
G36*
X280705Y130626D02*
X278038D01*
Y127657D01*
Y124689D01*
X280705D01*
Y126332D01*
X282677D01*
X283184Y126433D01*
X283614Y126720D01*
X283902Y127150D01*
X284003Y127657D01*
X283902Y128165D01*
X283614Y128595D01*
X283184Y128882D01*
X282677Y128983D01*
X280705D01*
Y130626D01*
D02*
G37*
G36*
X18228Y126415D02*
X17265Y126223D01*
X16449Y125677D01*
X15903Y124861D01*
X15711Y123898D01*
X15903Y122934D01*
X16449Y122118D01*
X16605Y122014D01*
X16563Y121440D01*
X16111Y121093D01*
X15635Y120473D01*
X15336Y119751D01*
X15287Y119376D01*
X18228D01*
X21170D01*
X21120Y119751D01*
X20821Y120473D01*
X20346Y121093D01*
X19894Y121440D01*
X19852Y122014D01*
X20008Y122118D01*
X20554Y122934D01*
X20745Y123898D01*
X20554Y124861D01*
X20008Y125677D01*
X19192Y126223D01*
X18228Y126415D01*
D02*
G37*
G36*
X158728Y122272D02*
X154185D01*
Y117925D01*
X155258D01*
X155409Y117425D01*
X155032Y117173D01*
X154595Y116519D01*
X154442Y115748D01*
X154595Y114977D01*
X155032Y114323D01*
X155685Y113886D01*
X156457Y113733D01*
X157228Y113886D01*
X157882Y114323D01*
X158318Y114977D01*
X158472Y115748D01*
X158318Y116519D01*
X157882Y117173D01*
X157504Y117425D01*
X157656Y117925D01*
X158728D01*
Y122272D01*
D02*
G37*
G36*
X149870D02*
X145327D01*
Y117925D01*
X146273D01*
Y117239D01*
X146174Y117173D01*
X145737Y116519D01*
X145583Y115748D01*
X145737Y114977D01*
X146174Y114323D01*
X146827Y113886D01*
X147598Y113733D01*
X148370Y113886D01*
X149023Y114323D01*
X149460Y114977D01*
X149613Y115748D01*
X149460Y116519D01*
X149023Y117173D01*
X148924Y117239D01*
Y117925D01*
X149870D01*
Y122272D01*
D02*
G37*
G36*
X141012D02*
X136469D01*
Y117925D01*
X137415D01*
Y117239D01*
X137315Y117173D01*
X136878Y116519D01*
X136725Y115748D01*
X136878Y114977D01*
X137315Y114323D01*
X137969Y113886D01*
X138740Y113733D01*
X139511Y113886D01*
X140165Y114323D01*
X140602Y114977D01*
X140755Y115748D01*
X140602Y116519D01*
X140165Y117173D01*
X140066Y117239D01*
Y117925D01*
X141012D01*
Y122272D01*
D02*
G37*
G36*
X132153D02*
X127610D01*
Y117925D01*
X128556D01*
Y117239D01*
X128457Y117173D01*
X128020Y116519D01*
X127867Y115748D01*
X128020Y114977D01*
X128457Y114323D01*
X129111Y113886D01*
X129882Y113733D01*
X130653Y113886D01*
X131307Y114323D01*
X131744Y114977D01*
X131897Y115748D01*
X131744Y116519D01*
X131307Y117173D01*
X131207Y117239D01*
Y117925D01*
X132153D01*
Y122272D01*
D02*
G37*
G36*
X123295D02*
X118752D01*
Y117925D01*
X119698D01*
Y117239D01*
X119599Y117173D01*
X119162Y116519D01*
X119009Y115748D01*
X119162Y114977D01*
X119599Y114323D01*
X120253Y113886D01*
X121024Y113733D01*
X121795Y113886D01*
X122449Y114323D01*
X122885Y114977D01*
X123039Y115748D01*
X122885Y116519D01*
X122449Y117173D01*
X122349Y117239D01*
Y117925D01*
X123295D01*
Y122272D01*
D02*
G37*
G36*
X114437D02*
X109894D01*
Y117925D01*
X110840D01*
Y117239D01*
X110740Y117173D01*
X110304Y116519D01*
X110150Y115748D01*
X110304Y114977D01*
X110740Y114323D01*
X111394Y113886D01*
X112165Y113733D01*
X112936Y113886D01*
X113590Y114323D01*
X114027Y114977D01*
X114180Y115748D01*
X114027Y116519D01*
X113590Y117173D01*
X113491Y117239D01*
Y117925D01*
X114437D01*
Y122272D01*
D02*
G37*
G36*
X96720D02*
X92177D01*
Y117925D01*
X93123D01*
Y117239D01*
X93024Y117173D01*
X92587Y116519D01*
X92434Y115748D01*
X92587Y114977D01*
X93024Y114323D01*
X93678Y113886D01*
X94449Y113733D01*
X95220Y113886D01*
X95874Y114323D01*
X96311Y114977D01*
X96464Y115748D01*
X96311Y116519D01*
X95874Y117173D01*
X95774Y117239D01*
Y117925D01*
X96720D01*
Y122272D01*
D02*
G37*
G36*
X21170Y118576D02*
X18228D01*
X15287D01*
X15336Y118201D01*
X15635Y117479D01*
X16111Y116859D01*
X16563Y116513D01*
X16605Y115939D01*
X16449Y115835D01*
X15903Y115018D01*
X15711Y114055D01*
X15903Y113092D01*
X16449Y112275D01*
X17265Y111730D01*
X18228Y111538D01*
X19192Y111730D01*
X20008Y112275D01*
X20554Y113092D01*
X20745Y114055D01*
X20554Y115018D01*
X20008Y115835D01*
X19852Y115939D01*
X19894Y116513D01*
X20346Y116859D01*
X20821Y117479D01*
X21120Y118201D01*
X21170Y118576D01*
D02*
G37*
G36*
X199213Y113845D02*
X198705Y113744D01*
X198275Y113457D01*
X197988Y113027D01*
X197887Y112520D01*
Y110823D01*
X196165D01*
Y108156D01*
X202102D01*
Y110823D01*
X200538D01*
Y112520D01*
X200437Y113027D01*
X200150Y113457D01*
X199720Y113744D01*
X199213Y113845D01*
D02*
G37*
G36*
X63281Y108756D02*
X61106D01*
Y106581D01*
X63281D01*
Y108756D01*
D02*
G37*
G36*
X54142Y108453D02*
X49795D01*
Y103909D01*
X54142D01*
Y105161D01*
X55307D01*
Y104106D01*
X59457D01*
Y108256D01*
X55307D01*
Y107201D01*
X54142D01*
Y108453D01*
D02*
G37*
G36*
X66256Y108756D02*
X64081D01*
Y106181D01*
Y103606D01*
X66256D01*
Y105161D01*
X68012D01*
X68402Y105239D01*
X68733Y105460D01*
X68954Y105791D01*
X69031Y106181D01*
X68954Y106571D01*
X68733Y106902D01*
X68402Y107123D01*
X68012Y107201D01*
X66256D01*
Y108756D01*
D02*
G37*
G36*
X63281Y105781D02*
X61106D01*
Y103606D01*
X63281D01*
Y105781D01*
D02*
G37*
G36*
X229095Y104881D02*
X226935D01*
Y103058D01*
X231239D01*
X231149Y103508D01*
X230667Y104230D01*
X229945Y104712D01*
X229095Y104881D01*
D02*
G37*
G36*
X257638Y104672D02*
X256867Y104518D01*
X256213Y104082D01*
X255776Y103428D01*
X255623Y102657D01*
X255776Y101885D01*
X255907Y101690D01*
X255671Y101249D01*
X254488D01*
X254488Y101249D01*
X254176Y101187D01*
X253911Y101010D01*
X253911Y101010D01*
X250722Y97821D01*
X250546Y97556D01*
X250483Y97244D01*
X250483Y97244D01*
Y43307D01*
X250483Y43307D01*
X250546Y42995D01*
X250722Y42730D01*
X254187Y39266D01*
X254187Y39266D01*
X254452Y39089D01*
X254764Y39027D01*
X254764Y39027D01*
X270118D01*
X270118Y39027D01*
X270430Y39089D01*
X270695Y39266D01*
X274592Y43163D01*
X274592Y43163D01*
X274769Y43428D01*
X274831Y43740D01*
X274831Y43740D01*
Y55984D01*
X274831Y55984D01*
X274769Y56296D01*
X274592Y56561D01*
X274592Y56561D01*
X271423Y59730D01*
X271159Y59907D01*
X270847Y59969D01*
X270847Y59969D01*
X267973D01*
X267708Y60365D01*
X267152Y60737D01*
X266496Y60868D01*
X261378D01*
X260722Y60737D01*
X260166Y60365D01*
X259794Y59809D01*
X259664Y59153D01*
X259794Y58498D01*
X260166Y57942D01*
X260722Y57570D01*
X261378Y57440D01*
X266496D01*
X267152Y57570D01*
X267708Y57942D01*
X267973Y58338D01*
X270509D01*
X273200Y55647D01*
Y44078D01*
X269780Y40658D01*
X255102D01*
X252115Y43645D01*
Y96906D01*
X254826Y99617D01*
X256115D01*
X256266Y99117D01*
X256213Y99082D01*
X255776Y98428D01*
X255623Y97657D01*
X255766Y96939D01*
X253636Y94809D01*
X253459Y94544D01*
X253397Y94232D01*
X253397Y94232D01*
Y45472D01*
X253397Y45472D01*
X253459Y45160D01*
X253636Y44896D01*
X256667Y41864D01*
X256667Y41864D01*
X256932Y41687D01*
X257244Y41625D01*
X257244Y41625D01*
X268307D01*
X268307Y41625D01*
X268619Y41687D01*
X268884Y41864D01*
X271640Y44620D01*
X271640Y44620D01*
X271817Y44885D01*
X271879Y45197D01*
X271879Y45197D01*
Y53268D01*
X271879Y53268D01*
X271817Y53580D01*
X271640Y53844D01*
X271640Y53844D01*
X270754Y54730D01*
X270489Y54907D01*
X270177Y54969D01*
X270177Y54969D01*
X267973D01*
X267708Y55366D01*
X267152Y55737D01*
X266496Y55868D01*
X261378D01*
X260722Y55737D01*
X260166Y55366D01*
X259794Y54809D01*
X259664Y54154D01*
X259794Y53498D01*
X260166Y52942D01*
X260722Y52570D01*
X261378Y52439D01*
X266496D01*
X267152Y52570D01*
X267708Y52942D01*
X267973Y53338D01*
X269839D01*
X270247Y52930D01*
Y45535D01*
X267969Y43257D01*
X257582D01*
X255028Y45810D01*
Y93894D01*
X256919Y95785D01*
X257638Y95642D01*
X258409Y95795D01*
X259063Y96232D01*
X259439Y96795D01*
X259932Y96795D01*
X260166Y96446D01*
X260722Y96074D01*
X261378Y95943D01*
X266496D01*
X267152Y96074D01*
X267708Y96446D01*
X268080Y97001D01*
X268210Y97658D01*
X268080Y98313D01*
X267708Y98870D01*
X267152Y99241D01*
X266496Y99371D01*
X264337D01*
X264180Y99806D01*
X264177Y99871D01*
X264514Y100208D01*
X264514Y100208D01*
X264691Y100472D01*
X264753Y100785D01*
X265202Y100943D01*
X266496D01*
X267152Y101074D01*
X267708Y101445D01*
X268080Y102002D01*
X268210Y102657D01*
X268080Y103313D01*
X267708Y103869D01*
X267152Y104241D01*
X266496Y104372D01*
X261378D01*
X260722Y104241D01*
X260166Y103869D01*
X259931Y103518D01*
X259439D01*
X259063Y104082D01*
X258409Y104518D01*
X257638Y104672D01*
D02*
G37*
G36*
X63301Y103047D02*
X61126D01*
Y100872D01*
X63301D01*
Y103047D01*
D02*
G37*
G36*
X231239Y102258D02*
X226935D01*
Y100434D01*
X229095D01*
X229945Y100603D01*
X230667Y101085D01*
X231149Y101806D01*
X231239Y102258D01*
D02*
G37*
G36*
X226135Y104881D02*
X223976D01*
X223125Y104712D01*
X222404Y104230D01*
X222239Y103983D01*
X220236D01*
X219729Y103882D01*
X219299Y103595D01*
X219012Y103165D01*
X218911Y102657D01*
X219012Y102150D01*
X219299Y101720D01*
X219729Y101433D01*
X220236Y101332D01*
X222239D01*
X222404Y101085D01*
X223125Y100603D01*
X223976Y100434D01*
X226135D01*
Y102657D01*
Y104881D01*
D02*
G37*
G36*
X266496Y124372D02*
X261378D01*
X260722Y124241D01*
X260166Y123870D01*
X259794Y123313D01*
X259664Y122658D01*
X259794Y122002D01*
X260166Y121446D01*
X260722Y121074D01*
X261378Y120943D01*
X266496D01*
X267152Y121074D01*
X267708Y121446D01*
X267973Y121842D01*
X282697D01*
X303974Y100565D01*
X303974Y100565D01*
X304239Y100388D01*
X304551Y100326D01*
X325874D01*
X325903Y100179D01*
X326449Y99362D01*
X327265Y98817D01*
X328228Y98625D01*
X329191Y98817D01*
X330008Y99362D01*
X330554Y100179D01*
X330745Y101142D01*
X330554Y102105D01*
X330008Y102921D01*
X329852Y103026D01*
X329894Y103599D01*
X330346Y103946D01*
X330821Y104566D01*
X331120Y105288D01*
X331170Y105663D01*
X328228D01*
X325287D01*
X325336Y105288D01*
X325635Y104566D01*
X326111Y103946D01*
X326563Y103599D01*
X326605Y103026D01*
X326449Y102921D01*
X325903Y102105D01*
X325874Y101957D01*
X304889D01*
X283612Y123234D01*
X283347Y123411D01*
X283035Y123473D01*
X283035Y123473D01*
X267973D01*
X267708Y123870D01*
X267152Y124241D01*
X266496Y124372D01*
D02*
G37*
G36*
X54161Y102744D02*
X49815D01*
Y98201D01*
X54161D01*
Y99453D01*
X55327D01*
Y98398D01*
X59476D01*
Y102547D01*
X55327D01*
Y101492D01*
X54161D01*
Y102744D01*
D02*
G37*
G36*
X48059D02*
X43713D01*
Y101492D01*
X38898D01*
X38508Y101414D01*
X38177Y101193D01*
X34673Y97689D01*
X34452Y97359D01*
X34374Y96969D01*
Y88191D01*
X33969Y87921D01*
X33532Y87267D01*
X33379Y86496D01*
X33532Y85725D01*
X33969Y85071D01*
X34623Y84634D01*
X35394Y84481D01*
X36165Y84634D01*
X36819Y85071D01*
X36885Y85170D01*
X37610D01*
Y83929D01*
X40129D01*
X40281Y83429D01*
X39874Y83157D01*
X39437Y82503D01*
X39284Y81732D01*
X39437Y80961D01*
X39874Y80307D01*
X40528Y79871D01*
X41299Y79717D01*
X42070Y79871D01*
X42724Y80307D01*
X43161Y80961D01*
X43211Y81215D01*
X43712Y81166D01*
Y80878D01*
X51995D01*
Y81569D01*
X52495Y81801D01*
X52969Y81485D01*
X53740Y81331D01*
X54511Y81485D01*
X55165Y81921D01*
X55602Y82575D01*
X55755Y83346D01*
X55602Y84117D01*
X55165Y84771D01*
X54511Y85208D01*
X53740Y85361D01*
X52969Y85208D01*
X52495Y84891D01*
X51995Y85123D01*
Y85815D01*
X43712D01*
Y84672D01*
X43046D01*
X42934Y84649D01*
X42547Y84967D01*
Y88834D01*
X42547Y89063D01*
X42935Y89334D01*
X43047D01*
X43507Y89433D01*
X47453D01*
Y92401D01*
Y95370D01*
X43507D01*
X43047Y95468D01*
X42752Y95468D01*
X41098D01*
Y96968D01*
X41021Y97358D01*
X40800Y97689D01*
X40469Y97910D01*
X40079Y97988D01*
X39689Y97910D01*
X39358Y97689D01*
X39137Y97358D01*
X39059Y96968D01*
Y95468D01*
X37110D01*
Y92801D01*
X40079D01*
Y92001D01*
X37110D01*
Y89334D01*
X37223D01*
X37610Y89063D01*
X37610Y88834D01*
Y87821D01*
X36885D01*
X36819Y87921D01*
X36413Y88191D01*
Y96546D01*
X39320Y99453D01*
X43713D01*
Y98201D01*
X48059D01*
Y102744D01*
D02*
G37*
G36*
X229095Y99881D02*
X226935D01*
Y98058D01*
X231239D01*
X231149Y98509D01*
X230667Y99230D01*
X229945Y99712D01*
X229095Y99881D01*
D02*
G37*
G36*
X66276Y103047D02*
X64101D01*
Y100472D01*
Y97898D01*
X66276D01*
Y99335D01*
X68012D01*
X68402Y99412D01*
X68733Y99633D01*
X68954Y99964D01*
X69031Y100354D01*
X68954Y100744D01*
X68733Y101075D01*
X68402Y101296D01*
X68012Y101374D01*
X66276D01*
Y103047D01*
D02*
G37*
G36*
X63301Y100072D02*
X61126D01*
Y97898D01*
X63301D01*
Y100072D01*
D02*
G37*
G36*
X18228Y103974D02*
X17265Y103782D01*
X16449Y103236D01*
X15903Y102420D01*
X15711Y101457D01*
X15903Y100494D01*
X16449Y99677D01*
X16605Y99573D01*
X16563Y98999D01*
X16111Y98653D01*
X15635Y98032D01*
X15336Y97310D01*
X15287Y96935D01*
X18228D01*
X21170D01*
X21120Y97310D01*
X20821Y98032D01*
X20346Y98653D01*
X19894Y98999D01*
X19852Y99573D01*
X20008Y99677D01*
X20554Y100494D01*
X20745Y101457D01*
X20554Y102420D01*
X20008Y103236D01*
X19192Y103782D01*
X18228Y103974D01*
D02*
G37*
G36*
X231239Y97258D02*
X226935D01*
Y95434D01*
X229095D01*
X229945Y95603D01*
X230667Y96085D01*
X231149Y96806D01*
X231239Y97258D01*
D02*
G37*
G36*
X226135Y99881D02*
X223976D01*
X223125Y99712D01*
X222404Y99230D01*
X222219Y98953D01*
X220266D01*
X219759Y98852D01*
X219328Y98565D01*
X219041Y98135D01*
X218940Y97628D01*
X219041Y97121D01*
X219328Y96691D01*
X219759Y96403D01*
X220266Y96302D01*
X222259D01*
X222404Y96085D01*
X223125Y95603D01*
X223976Y95434D01*
X226135D01*
Y97658D01*
Y99881D01*
D02*
G37*
G36*
X229095Y94881D02*
X226935D01*
Y93058D01*
X231239D01*
X231149Y93508D01*
X230667Y94230D01*
X229945Y94712D01*
X229095Y94881D01*
D02*
G37*
G36*
X48253Y95370D02*
Y92801D01*
X52495D01*
Y95370D01*
X48253D01*
D02*
G37*
G36*
X134252Y98905D02*
X133481Y98751D01*
X132827Y98315D01*
X132390Y97661D01*
X132237Y96890D01*
X132390Y96119D01*
X132827Y95465D01*
X133375Y95099D01*
X133384Y94597D01*
X133094Y94559D01*
X132014Y94112D01*
X131087Y93401D01*
X130376Y92474D01*
X129929Y91395D01*
X129898Y91157D01*
X129393D01*
X129362Y91395D01*
X128915Y92474D01*
X128204Y93401D01*
X127277Y94112D01*
X126198Y94559D01*
X125908Y94597D01*
X125917Y95099D01*
X126464Y95465D01*
X126901Y96119D01*
X127055Y96890D01*
X126901Y97661D01*
X126464Y98315D01*
X125811Y98751D01*
X125039Y98905D01*
X124268Y98751D01*
X123615Y98315D01*
X123178Y97661D01*
X123024Y96890D01*
X123178Y96119D01*
X123615Y95465D01*
X124162Y95099D01*
X124171Y94597D01*
X123881Y94559D01*
X122802Y94112D01*
X121875Y93401D01*
X121164Y92474D01*
X120717Y91395D01*
X120685Y91157D01*
X120181D01*
X120150Y91395D01*
X119702Y92474D01*
X118991Y93401D01*
X118064Y94112D01*
X116985Y94559D01*
X116695Y94597D01*
X116704Y95099D01*
X117252Y95465D01*
X117689Y96119D01*
X117842Y96890D01*
X117689Y97661D01*
X117252Y98315D01*
X116598Y98751D01*
X115827Y98905D01*
X115056Y98751D01*
X114402Y98315D01*
X113965Y97661D01*
X113812Y96890D01*
X113965Y96119D01*
X114402Y95465D01*
X114950Y95099D01*
X114959Y94597D01*
X114669Y94559D01*
X113589Y94112D01*
X112662Y93401D01*
X111951Y92474D01*
X111504Y91395D01*
X111352Y90236D01*
X111504Y89078D01*
X111951Y87999D01*
X112662Y87072D01*
X113589Y86361D01*
X114669Y85913D01*
X115827Y85761D01*
X116985Y85913D01*
X117795Y86249D01*
X130466Y73577D01*
X130466Y73577D01*
X130731Y73400D01*
X131043Y73338D01*
X139980D01*
X140245Y72941D01*
X140801Y72570D01*
X141457Y72439D01*
X146575D01*
X147231Y72570D01*
X147787Y72941D01*
X148158Y73498D01*
X148289Y74154D01*
X148158Y74809D01*
X147787Y75366D01*
X147231Y75737D01*
X146575Y75868D01*
X141457D01*
X140801Y75737D01*
X140245Y75366D01*
X139980Y74969D01*
X131381D01*
X119116Y87234D01*
X119702Y87999D01*
X120150Y89078D01*
X120181Y89316D01*
X120685D01*
X120717Y89078D01*
X121164Y87999D01*
X121875Y87072D01*
X122802Y86361D01*
X123881Y85913D01*
X125039Y85761D01*
X126198Y85913D01*
X127007Y86249D01*
X134679Y78577D01*
X134679Y78577D01*
X134944Y78400D01*
X135256Y78338D01*
X135256Y78338D01*
X139980D01*
X140245Y77942D01*
X140801Y77570D01*
X141457Y77439D01*
X146575D01*
X147231Y77570D01*
X147787Y77942D01*
X148158Y78498D01*
X148289Y79154D01*
X148158Y79809D01*
X147787Y80366D01*
X147231Y80737D01*
X146575Y80868D01*
X141457D01*
X140801Y80737D01*
X140245Y80366D01*
X139980Y79969D01*
X135594D01*
X128329Y87234D01*
X128915Y87999D01*
X129362Y89078D01*
X129393Y89316D01*
X129898D01*
X129929Y89078D01*
X130376Y87999D01*
X131087Y87072D01*
X132014Y86361D01*
X133094Y85913D01*
X134252Y85761D01*
X135410Y85913D01*
X136220Y86249D01*
X138892Y83577D01*
X138892Y83577D01*
X139156Y83400D01*
X139469Y83338D01*
X139469Y83338D01*
X139980D01*
X140245Y82942D01*
X140801Y82570D01*
X141457Y82440D01*
X146575D01*
X147231Y82570D01*
X147787Y82942D01*
X148158Y83498D01*
X148289Y84153D01*
X148158Y84809D01*
X147787Y85365D01*
X147231Y85737D01*
X146575Y85868D01*
X141457D01*
X140801Y85737D01*
X140245Y85365D01*
X140181Y85271D01*
X139558Y85217D01*
X137541Y87234D01*
X138128Y87999D01*
X138575Y89078D01*
X138727Y90236D01*
X138575Y91395D01*
X138128Y92474D01*
X137417Y93401D01*
X136490Y94112D01*
X135410Y94559D01*
X135120Y94597D01*
X135129Y95099D01*
X135677Y95465D01*
X136114Y96119D01*
X136267Y96890D01*
X136114Y97661D01*
X135677Y98315D01*
X135023Y98751D01*
X134252Y98905D01*
D02*
G37*
G36*
X257642Y94668D02*
X256871Y94515D01*
X256217Y94078D01*
X255781Y93424D01*
X255627Y92653D01*
X255781Y91882D01*
X256217Y91228D01*
X256827Y90821D01*
Y50665D01*
X256827Y50665D01*
X256889Y50353D01*
X257066Y50088D01*
X258577Y48577D01*
X258577Y48577D01*
X258841Y48400D01*
X259154Y48338D01*
X259901D01*
X260166Y47941D01*
X260722Y47570D01*
X261378Y47440D01*
X266496D01*
X267152Y47570D01*
X267708Y47941D01*
X268080Y48498D01*
X268210Y49154D01*
X268080Y49810D01*
X267708Y50366D01*
X267152Y50737D01*
X266496Y50868D01*
X261378D01*
X260722Y50737D01*
X260166Y50366D01*
X259957Y50053D01*
X259440Y50020D01*
X258458Y51003D01*
Y90821D01*
X259067Y91228D01*
X259442Y91789D01*
X259937D01*
X260166Y91445D01*
X260722Y91074D01*
X261378Y90943D01*
X266496D01*
X267152Y91074D01*
X267708Y91445D01*
X268080Y92001D01*
X268210Y92658D01*
X268080Y93313D01*
X267708Y93870D01*
X267152Y94241D01*
X266496Y94371D01*
X261378D01*
X260722Y94241D01*
X260166Y93870D01*
X259934Y93522D01*
X259439D01*
X259067Y94078D01*
X258414Y94515D01*
X257642Y94668D01*
D02*
G37*
G36*
X231239Y92257D02*
X226935D01*
Y90434D01*
X229095D01*
X229945Y90603D01*
X230667Y91085D01*
X231149Y91806D01*
X231239Y92257D01*
D02*
G37*
G36*
X52495Y92001D02*
X48253D01*
Y89433D01*
X52495D01*
Y92001D01*
D02*
G37*
G36*
X21170Y96135D02*
X18228D01*
X15287D01*
X15336Y95761D01*
X15635Y95038D01*
X16111Y94418D01*
X16563Y94072D01*
X16605Y93498D01*
X16449Y93394D01*
X15903Y92577D01*
X15711Y91614D01*
X15903Y90651D01*
X16449Y89834D01*
X17265Y89289D01*
X18228Y89097D01*
X19192Y89289D01*
X20008Y89834D01*
X20554Y90651D01*
X20745Y91614D01*
X20554Y92577D01*
X20008Y93394D01*
X19852Y93498D01*
X19894Y94072D01*
X20346Y94418D01*
X20821Y95038D01*
X21120Y95761D01*
X21170Y96135D01*
D02*
G37*
G36*
X186221Y96897D02*
X185449Y96744D01*
X184796Y96307D01*
X184359Y95653D01*
X184205Y94882D01*
X184359Y94111D01*
X184796Y93457D01*
X185449Y93020D01*
X186221Y92867D01*
X186939Y93010D01*
X189342Y90607D01*
Y85827D01*
X189342Y85827D01*
X189357Y85751D01*
X188896Y85505D01*
X188217Y86184D01*
Y88543D01*
X188217Y88543D01*
X188155Y88855D01*
X187978Y89120D01*
X187978Y89120D01*
X182975Y94124D01*
X183117Y94842D01*
X182964Y95614D01*
X182527Y96267D01*
X181874Y96704D01*
X181102Y96858D01*
X180331Y96704D01*
X179677Y96267D01*
X179241Y95614D01*
X179087Y94842D01*
X179241Y94071D01*
X179677Y93418D01*
X180331Y92981D01*
X181102Y92827D01*
X181821Y92970D01*
X186586Y88205D01*
Y85846D01*
X186586Y85846D01*
X186648Y85534D01*
X186825Y85269D01*
X194115Y77979D01*
X194082Y77819D01*
X193654Y77504D01*
X193228Y77588D01*
X192803Y77504D01*
X192442Y77263D01*
X192201Y76902D01*
X192116Y76476D01*
Y75871D01*
X191655Y75680D01*
X189986Y77348D01*
X189722Y77525D01*
X189409Y77587D01*
X189409Y77587D01*
X186249D01*
X185983Y78046D01*
X186153Y78375D01*
X186277Y78400D01*
X186541Y78577D01*
X188372Y80408D01*
X188549Y80672D01*
X188611Y80984D01*
X188549Y81296D01*
X188372Y81561D01*
X188107Y81738D01*
X187795Y81800D01*
X187483Y81738D01*
X187218Y81561D01*
X186162Y80504D01*
X185664Y80553D01*
X185549Y80726D01*
X184827Y81208D01*
X183976Y81377D01*
X181817D01*
Y79154D01*
X181417D01*
Y78754D01*
X176714D01*
X176804Y78303D01*
X176987Y78028D01*
X176751Y77587D01*
X168740D01*
X168740Y77587D01*
X168428Y77525D01*
X168163Y77348D01*
X168163Y77348D01*
X157022Y66207D01*
X156845Y65942D01*
X156783Y65630D01*
X156783Y65630D01*
Y57543D01*
X149209Y49969D01*
X148052D01*
X147787Y50366D01*
X147231Y50737D01*
X146575Y50868D01*
X141457D01*
X140801Y50737D01*
X140415Y50479D01*
X138787D01*
Y51602D01*
X133882D01*
X133654Y51602D01*
X133382Y51990D01*
Y52102D01*
X130715D01*
Y49134D01*
Y46165D01*
X133382D01*
Y46278D01*
X133654Y46665D01*
X133882Y46665D01*
X134895D01*
Y45979D01*
X134796Y45913D01*
X134359Y45259D01*
X134205Y44488D01*
X134359Y43717D01*
X134796Y43063D01*
X135449Y42627D01*
X136221Y42473D01*
X136992Y42627D01*
X137645Y43063D01*
X138082Y43717D01*
X138236Y44488D01*
X138082Y45259D01*
X137645Y45913D01*
X137546Y45979D01*
Y46665D01*
X138787D01*
Y47828D01*
X140415D01*
X140801Y47570D01*
X141457Y47440D01*
X146575D01*
X147231Y47570D01*
X147787Y47942D01*
X148052Y48338D01*
X149547D01*
X149547Y48338D01*
X149859Y48400D01*
X150124Y48577D01*
X158175Y56628D01*
X158175Y56628D01*
X158352Y56893D01*
X158414Y57205D01*
X158414Y57205D01*
Y65292D01*
X169078Y75956D01*
X176838D01*
X177105Y75456D01*
X176804Y75005D01*
X176714Y74554D01*
X181417D01*
Y74154D01*
X181817D01*
Y71930D01*
X183976D01*
X184827Y72099D01*
X185549Y72581D01*
X185879Y72614D01*
X187612Y70880D01*
X187877Y70703D01*
X188189Y70641D01*
X188501Y70703D01*
X188766Y70880D01*
X188943Y71144D01*
X189005Y71457D01*
X188943Y71769D01*
X188766Y72034D01*
X186148Y74651D01*
X186094Y74687D01*
X186031Y75005D01*
X185729Y75456D01*
X185997Y75956D01*
X189072D01*
X191392Y73636D01*
X191656Y73459D01*
X191969Y73397D01*
X192116Y72940D01*
Y71949D01*
X192201Y71523D01*
X192442Y71163D01*
X192803Y70922D01*
X193228Y70837D01*
X193654Y70922D01*
X193873Y71068D01*
X194213Y71128D01*
X194553Y71068D01*
X194771Y70922D01*
X195197Y70837D01*
X195562Y70910D01*
X195824Y70747D01*
X195915Y70669D01*
X195926Y70125D01*
X195053Y69252D01*
X194876Y68988D01*
X194814Y68676D01*
X194814Y68676D01*
Y68386D01*
X194876Y68074D01*
X195053Y67809D01*
X195318Y67632D01*
X195630Y67570D01*
X195942Y67632D01*
X196207Y67809D01*
X196384Y68074D01*
X196434Y68326D01*
X197742Y69634D01*
X197742Y69634D01*
X198240Y69502D01*
X198318Y69446D01*
Y61716D01*
X196572Y59969D01*
X185453D01*
X185188Y60365D01*
X184632Y60737D01*
X183976Y60868D01*
X178858D01*
X178202Y60737D01*
X177646Y60365D01*
X177275Y59809D01*
X177144Y59153D01*
X177275Y58498D01*
X177646Y57942D01*
X178202Y57570D01*
X178858Y57440D01*
X183976D01*
X184632Y57570D01*
X185188Y57942D01*
X185453Y58338D01*
X196909D01*
X196909Y58338D01*
X197222Y58400D01*
X197486Y58577D01*
X199711Y60801D01*
X199711Y60801D01*
X199887Y61066D01*
X199950Y61378D01*
X199950Y61378D01*
Y69353D01*
X200449Y69504D01*
X200526Y69391D01*
X201232Y68685D01*
Y68386D01*
X201294Y68074D01*
X201470Y67809D01*
X201735Y67632D01*
X202047Y67570D01*
X202359Y67632D01*
X202624Y67809D01*
X202801Y68074D01*
X202863Y68386D01*
Y69022D01*
X202863Y69023D01*
X202801Y69335D01*
X202624Y69599D01*
X202624Y69599D01*
X202081Y70142D01*
X202125Y70719D01*
X202249Y70802D01*
X202601Y71328D01*
X202724Y71949D01*
Y73813D01*
X201102D01*
Y74213D01*
X200702D01*
Y78018D01*
X200482Y77975D01*
X199956Y77623D01*
X199778Y77358D01*
X199559Y77504D01*
X199134Y77588D01*
X198708Y77504D01*
X198489Y77358D01*
X198312Y77623D01*
X197786Y77975D01*
X197565Y78018D01*
Y74213D01*
X196765D01*
Y78018D01*
X196545Y77975D01*
X196512Y77953D01*
X196338Y77987D01*
X195983Y78201D01*
X195950Y78363D01*
X195774Y78628D01*
X195774Y78628D01*
X194954Y79447D01*
X195200Y79908D01*
X195276Y79893D01*
X208048D01*
X208948Y78993D01*
Y78220D01*
X208448Y77953D01*
X208416Y77975D01*
X208195Y78018D01*
Y74213D01*
X207795D01*
Y73813D01*
X206174D01*
Y71949D01*
X206297Y71328D01*
X206649Y70802D01*
X206918Y70622D01*
X206948Y70116D01*
X206431Y69599D01*
X206254Y69335D01*
X206192Y69023D01*
X206192Y69022D01*
Y68386D01*
X206254Y68074D01*
X206431Y67809D01*
X206696Y67632D01*
X207008Y67570D01*
X207320Y67632D01*
X207585Y67809D01*
X207762Y68074D01*
X207823Y68386D01*
Y68685D01*
X208372Y69233D01*
X208372Y69233D01*
X208549Y69498D01*
X208611Y69810D01*
X208611Y69810D01*
Y70581D01*
X208942Y70802D01*
X209120Y71068D01*
X209338Y70922D01*
X209764Y70837D01*
X210189Y70922D01*
X210408Y71068D01*
X210586Y70802D01*
X210917Y70581D01*
Y70069D01*
X210447Y69599D01*
X210270Y69335D01*
X210208Y69023D01*
X210208Y69022D01*
Y68386D01*
X210270Y68074D01*
X210447Y67809D01*
X210712Y67632D01*
X211024Y67570D01*
X211336Y67632D01*
X211600Y67809D01*
X211777Y68074D01*
X211839Y68386D01*
Y68685D01*
X212309Y69154D01*
X212486Y69419D01*
X212493Y69457D01*
X212604Y69494D01*
X213014Y69510D01*
X213124Y69345D01*
X214266Y68203D01*
X214530Y68026D01*
X214843Y67964D01*
X214843Y67964D01*
X218779D01*
X218779Y67964D01*
X219092Y68026D01*
X219356Y68203D01*
X220931Y69778D01*
X220931Y69778D01*
X221108Y70042D01*
X221170Y70354D01*
Y72772D01*
X221736Y73338D01*
X222500D01*
X222764Y72941D01*
X223320Y72570D01*
X223976Y72439D01*
X229095D01*
X229750Y72570D01*
X230307Y72941D01*
X230678Y73498D01*
X230808Y74154D01*
X230678Y74809D01*
X230307Y75366D01*
X229750Y75737D01*
X229095Y75868D01*
X223976D01*
X223320Y75737D01*
X222764Y75366D01*
X222500Y74969D01*
X221398D01*
X221398Y74969D01*
X221086Y74907D01*
X220821Y74730D01*
X219778Y73687D01*
X219601Y73422D01*
X219539Y73110D01*
X219539Y73110D01*
Y70692D01*
X218442Y69595D01*
X215180D01*
X214680Y70096D01*
X214974Y70454D01*
X215017Y70472D01*
X215049Y70451D01*
X215269Y70407D01*
Y74213D01*
Y78018D01*
X215049Y77975D01*
X214523Y77623D01*
X214345Y77358D01*
X214126Y77504D01*
X213701Y77588D01*
X213275Y77504D01*
X213056Y77358D01*
X212879Y77623D01*
X212353Y77975D01*
X212132Y78018D01*
Y74213D01*
X211332D01*
Y78018D01*
X211112Y77975D01*
X211079Y77953D01*
X210579Y78220D01*
Y79331D01*
X210579Y79331D01*
X210517Y79643D01*
X210340Y79908D01*
X210340Y79908D01*
X208963Y81285D01*
X208698Y81462D01*
X208386Y81524D01*
X208386Y81524D01*
X195614D01*
X190973Y86165D01*
Y90945D01*
X190911Y91257D01*
X190734Y91522D01*
X190734Y91522D01*
X188093Y94163D01*
X188236Y94882D01*
X188082Y95653D01*
X187645Y96307D01*
X186992Y96744D01*
X186221Y96897D01*
D02*
G37*
G36*
X271732Y90598D02*
X270961Y90444D01*
X270307Y90008D01*
X269871Y89354D01*
X269717Y88583D01*
X269871Y87811D01*
X270307Y87158D01*
X270105Y86702D01*
X270031Y86622D01*
X269165D01*
Y85479D01*
X267538D01*
X267152Y85737D01*
X266496Y85868D01*
X261378D01*
X260722Y85737D01*
X260166Y85365D01*
X259794Y84809D01*
X259664Y84153D01*
X259794Y83498D01*
X260166Y82942D01*
X260722Y82570D01*
X261378Y82440D01*
X266496D01*
X267152Y82570D01*
X267538Y82828D01*
X269165D01*
Y81685D01*
X274071D01*
X274299Y81685D01*
X274571Y81298D01*
Y81185D01*
X277238D01*
Y84153D01*
Y87122D01*
X274571D01*
Y87010D01*
X274299Y86622D01*
X274071Y86622D01*
X273434D01*
X273360Y86702D01*
X273157Y87158D01*
X273594Y87811D01*
X273747Y88583D01*
X273594Y89354D01*
X273157Y90008D01*
X272503Y90444D01*
X271732Y90598D01*
D02*
G37*
G36*
X76208Y90145D02*
X67924D01*
Y85127D01*
X67424Y84893D01*
X66952Y85208D01*
X66181Y85361D01*
X65410Y85208D01*
X64756Y84771D01*
X64319Y84117D01*
X64166Y83346D01*
X64319Y82575D01*
X64756Y81921D01*
X65410Y81485D01*
X66181Y81331D01*
X66952Y81485D01*
X67424Y81800D01*
X67924Y81566D01*
Y76547D01*
X76208D01*
Y81569D01*
X76708Y81801D01*
X77182Y81485D01*
X77953Y81331D01*
X78724Y81485D01*
X79378Y81921D01*
X79814Y82575D01*
X79968Y83346D01*
X79814Y84117D01*
X79378Y84771D01*
X78724Y85208D01*
X77953Y85361D01*
X77182Y85208D01*
X76708Y84891D01*
X76208Y85123D01*
Y90145D01*
D02*
G37*
G36*
X181417Y90973D02*
X181105Y90911D01*
X180841Y90734D01*
X180664Y90470D01*
X180602Y90158D01*
Y86377D01*
X178858D01*
X178007Y86208D01*
X177286Y85726D01*
X176804Y85005D01*
X176714Y84554D01*
X181417D01*
X186121D01*
X186031Y85005D01*
X185549Y85726D01*
X184827Y86208D01*
X183976Y86377D01*
X182233D01*
Y90158D01*
X182171Y90470D01*
X181994Y90734D01*
X181729Y90911D01*
X181417Y90973D01*
D02*
G37*
G36*
X229095Y85868D02*
X223976D01*
X223320Y85737D01*
X222764Y85365D01*
X222393Y84809D01*
X222262Y84153D01*
X222393Y83498D01*
X222764Y82942D01*
X223320Y82570D01*
X223976Y82440D01*
X229095D01*
X229750Y82570D01*
X230307Y82942D01*
X230678Y83498D01*
X230808Y84153D01*
X230678Y84809D01*
X230307Y85365D01*
X229750Y85737D01*
X229095Y85868D01*
D02*
G37*
G36*
X186121Y83754D02*
X181817D01*
Y81930D01*
X183976D01*
X184827Y82099D01*
X185549Y82581D01*
X186031Y83302D01*
X186121Y83754D01*
D02*
G37*
G36*
X181017D02*
X176714D01*
X176804Y83302D01*
X177286Y82581D01*
X178007Y82099D01*
X178858Y81930D01*
X181017D01*
Y83754D01*
D02*
G37*
G36*
X280705Y87122D02*
X278038D01*
Y84153D01*
Y81185D01*
X280705D01*
Y82828D01*
X282677D01*
X283184Y82929D01*
X283614Y83216D01*
X283902Y83646D01*
X284003Y84153D01*
X283902Y84661D01*
X283614Y85091D01*
X283184Y85378D01*
X282677Y85479D01*
X280705D01*
Y87122D01*
D02*
G37*
G36*
X181017Y81377D02*
X178858D01*
X178007Y81208D01*
X177286Y80726D01*
X176804Y80005D01*
X176714Y79554D01*
X181017D01*
Y81377D01*
D02*
G37*
G36*
X229095Y80868D02*
X223976D01*
X223320Y80737D01*
X222764Y80366D01*
X222393Y79809D01*
X222262Y79154D01*
X222393Y78498D01*
X222764Y77942D01*
X223320Y77570D01*
X223976Y77439D01*
X229095D01*
X229750Y77570D01*
X230307Y77942D01*
X230678Y78498D01*
X230808Y79154D01*
X230678Y79809D01*
X230307Y80366D01*
X229750Y80737D01*
X229095Y80868D01*
D02*
G37*
G36*
X100669Y84278D02*
X100162Y84177D01*
X99732Y83890D01*
X99445Y83460D01*
X99344Y82953D01*
Y81251D01*
X98180Y80769D01*
X97148Y79978D01*
X96357Y78947D01*
X95859Y77745D01*
X95742Y76857D01*
X105596D01*
X105479Y77745D01*
X104982Y78947D01*
X104190Y79978D01*
X103159Y80769D01*
X101995Y81251D01*
Y82953D01*
X101894Y83460D01*
X101607Y83890D01*
X101177Y84177D01*
X100669Y84278D01*
D02*
G37*
G36*
X266496Y119371D02*
X261378D01*
X260722Y119241D01*
X260166Y118869D01*
X259794Y118313D01*
X259664Y117657D01*
X259794Y117001D01*
X260166Y116446D01*
X260722Y116074D01*
X261378Y115943D01*
X266496D01*
X267152Y116074D01*
X267708Y116446D01*
X267973Y116842D01*
X278461D01*
X316679Y78625D01*
X316679Y78624D01*
X316943Y78448D01*
X317255Y78386D01*
X325782D01*
X325903Y77777D01*
X326449Y76960D01*
X327265Y76415D01*
X328228Y76223D01*
X329191Y76415D01*
X330008Y76960D01*
X330554Y77777D01*
X330745Y78740D01*
X330554Y79703D01*
X330008Y80520D01*
X329852Y80624D01*
X329894Y81198D01*
X330346Y81544D01*
X330821Y82164D01*
X331120Y82886D01*
X331170Y83261D01*
X328228D01*
X325287D01*
X325336Y82886D01*
X325635Y82164D01*
X326111Y81544D01*
X326563Y81198D01*
X326605Y80624D01*
X326449Y80520D01*
X326113Y80017D01*
X317593D01*
X279376Y118234D01*
X279111Y118411D01*
X278799Y118473D01*
X278799Y118473D01*
X267973D01*
X267708Y118869D01*
X267152Y119241D01*
X266496Y119371D01*
D02*
G37*
G36*
X220433Y78335D02*
X220121Y78273D01*
X219856Y78096D01*
X217753Y75993D01*
X217291Y76184D01*
Y76476D01*
X217168Y77097D01*
X216816Y77623D01*
X216290Y77975D01*
X216069Y78018D01*
Y74213D01*
Y70407D01*
X216290Y70451D01*
X216816Y70802D01*
X217168Y71328D01*
X217291Y71949D01*
Y73430D01*
X217438Y73459D01*
X217703Y73636D01*
X221010Y76943D01*
X221187Y77208D01*
X221249Y77520D01*
X221187Y77832D01*
X221010Y78096D01*
X220745Y78273D01*
X220433Y78335D01*
D02*
G37*
G36*
X201502Y78018D02*
Y74613D01*
X202724D01*
Y76476D01*
X202601Y77097D01*
X202249Y77623D01*
X201723Y77975D01*
X201502Y78018D01*
D02*
G37*
G36*
X207395D02*
X207175Y77975D01*
X206649Y77623D01*
X206297Y77097D01*
X206174Y76476D01*
Y74613D01*
X207395D01*
Y78018D01*
D02*
G37*
G36*
X18228Y81533D02*
X17265Y81341D01*
X16449Y80795D01*
X15903Y79979D01*
X15711Y79016D01*
X15903Y78053D01*
X16449Y77236D01*
X16605Y77132D01*
X16563Y76558D01*
X16111Y76212D01*
X15635Y75591D01*
X15336Y74869D01*
X15287Y74494D01*
X18228D01*
X21170D01*
X21120Y74869D01*
X20821Y75591D01*
X20346Y76212D01*
X19894Y76558D01*
X19852Y77132D01*
X20008Y77236D01*
X20554Y78053D01*
X20745Y79016D01*
X20554Y79979D01*
X20008Y80795D01*
X19192Y81341D01*
X18228Y81533D01*
D02*
G37*
G36*
X181017Y73754D02*
X176714D01*
X176804Y73303D01*
X177286Y72581D01*
X178007Y72099D01*
X178858Y71930D01*
X181017D01*
Y73754D01*
D02*
G37*
G36*
X183976Y70868D02*
X178858D01*
X178202Y70737D01*
X177646Y70366D01*
X177381Y69969D01*
X170295D01*
X170295Y69969D01*
X169983Y69907D01*
X169719Y69730D01*
X164817Y64829D01*
X164640Y64564D01*
X164578Y64252D01*
X164578Y64252D01*
Y53881D01*
X144505Y33808D01*
X114954D01*
X114642Y33746D01*
X114378Y33569D01*
X114378Y33569D01*
X101329Y20520D01*
X101278Y20554D01*
X100315Y20745D01*
X99352Y20554D01*
X98535Y20008D01*
X97990Y19192D01*
X97798Y18228D01*
X97990Y17265D01*
X98535Y16449D01*
X99352Y15903D01*
X100315Y15711D01*
X101278Y15903D01*
X102095Y16449D01*
X102199Y16605D01*
X102772Y16563D01*
X103119Y16111D01*
X103739Y15635D01*
X104461Y15336D01*
X104836Y15287D01*
Y18228D01*
Y21559D01*
X104783Y21667D01*
X115292Y32177D01*
X144843D01*
X144843Y32176D01*
X145155Y32239D01*
X145419Y32415D01*
X165970Y52966D01*
X165971Y52966D01*
X166147Y53231D01*
X166209Y53543D01*
Y63914D01*
X170633Y68338D01*
X177381D01*
X177646Y67941D01*
X178202Y67570D01*
X178858Y67440D01*
X183976D01*
X184632Y67570D01*
X185188Y67941D01*
X185560Y68498D01*
X185690Y69153D01*
X185560Y69810D01*
X185188Y70366D01*
X184632Y70737D01*
X183976Y70868D01*
D02*
G37*
G36*
X105596Y76057D02*
X95742D01*
X95859Y75168D01*
X96357Y73967D01*
X97148Y72936D01*
X98180Y72144D01*
X99344Y71662D01*
Y69961D01*
X99445Y69453D01*
X99732Y69023D01*
X100162Y68736D01*
X100669Y68635D01*
X101177Y68736D01*
X101607Y69023D01*
X101894Y69453D01*
X101995Y69961D01*
Y71662D01*
X103159Y72144D01*
X104190Y72936D01*
X104982Y73967D01*
X105479Y75168D01*
X105596Y76057D01*
D02*
G37*
G36*
X146575Y70868D02*
X141457D01*
X140801Y70737D01*
X140245Y70366D01*
X139980Y69969D01*
X120728D01*
X120416Y69907D01*
X120152Y69730D01*
X120152Y69730D01*
X108914Y58493D01*
X60748D01*
X60436Y58431D01*
X60171Y58254D01*
X60171Y58254D01*
X54052Y52135D01*
X30303D01*
Y53492D01*
X25760D01*
Y52115D01*
X20583D01*
X20554Y52262D01*
X20008Y53079D01*
X19852Y53183D01*
X19894Y53757D01*
X20346Y54103D01*
X20821Y54723D01*
X21120Y55445D01*
X21170Y55821D01*
X18228D01*
X15287D01*
X15336Y55445D01*
X15635Y54723D01*
X16111Y54103D01*
X16563Y53757D01*
X16605Y53183D01*
X16449Y53079D01*
X15903Y52262D01*
X15711Y51299D01*
X15903Y50336D01*
X16449Y49520D01*
X17265Y48974D01*
X18228Y48782D01*
X19192Y48974D01*
X20008Y49520D01*
X20554Y50336D01*
X20583Y50484D01*
X25760D01*
Y49146D01*
X30303D01*
Y50503D01*
X54390D01*
X54390Y50503D01*
X54702Y50565D01*
X54966Y50742D01*
X61086Y56862D01*
X109252D01*
X109252Y56862D01*
X109564Y56924D01*
X109829Y57100D01*
X121066Y68338D01*
X139980D01*
X140245Y67941D01*
X140801Y67570D01*
X141457Y67440D01*
X146575D01*
X147231Y67570D01*
X147787Y67941D01*
X148158Y68498D01*
X148289Y69153D01*
X148158Y69810D01*
X147787Y70366D01*
X147231Y70737D01*
X146575Y70868D01*
D02*
G37*
G36*
X229095Y65868D02*
X223976D01*
X223320Y65737D01*
X222764Y65365D01*
X222500Y64969D01*
X213169D01*
X213169Y64969D01*
X212857Y64907D01*
X212593Y64730D01*
X189502Y41640D01*
X189325Y41375D01*
X189263Y41063D01*
X189263Y41063D01*
Y20583D01*
X189116Y20554D01*
X188299Y20008D01*
X187753Y19192D01*
X187562Y18228D01*
X187753Y17265D01*
X188299Y16449D01*
X189116Y15903D01*
X190079Y15711D01*
X191042Y15903D01*
X191858Y16449D01*
X191963Y16605D01*
X192536Y16563D01*
X192883Y16111D01*
X193503Y15635D01*
X194225Y15336D01*
X194600Y15287D01*
Y18228D01*
Y21170D01*
X194225Y21121D01*
X193503Y20821D01*
X192883Y20346D01*
X192536Y19894D01*
X191963Y19852D01*
X191858Y20008D01*
X191042Y20554D01*
X190894Y20583D01*
Y40725D01*
X213507Y63338D01*
X222500D01*
X222764Y62941D01*
X223320Y62570D01*
X223976Y62440D01*
X229095D01*
X229750Y62570D01*
X230307Y62941D01*
X230678Y63498D01*
X230808Y64153D01*
X230678Y64810D01*
X230307Y65365D01*
X229750Y65737D01*
X229095Y65868D01*
D02*
G37*
G36*
X56826Y69032D02*
X54159D01*
Y66063D01*
Y63095D01*
X56826D01*
Y65043D01*
X58365D01*
X58755Y65121D01*
X59086Y65342D01*
X59307Y65673D01*
X59385Y66063D01*
X59307Y66453D01*
X59086Y66784D01*
X58755Y67005D01*
X58365Y67083D01*
X56826D01*
Y69032D01*
D02*
G37*
G36*
X183976Y65868D02*
X178858D01*
X178202Y65737D01*
X177646Y65365D01*
X177381Y64969D01*
X172894D01*
X172582Y64907D01*
X172317Y64730D01*
X172317Y64730D01*
X168163Y60577D01*
X167987Y60312D01*
X167924Y60000D01*
X167924Y60000D01*
Y48212D01*
X149623Y29910D01*
X133498D01*
X133498Y29910D01*
X133186Y29848D01*
X132921Y29671D01*
X132921Y29671D01*
X123770Y20520D01*
X123719Y20554D01*
X122756Y20745D01*
X121793Y20554D01*
X120976Y20008D01*
X120431Y19192D01*
X120239Y18228D01*
X120431Y17265D01*
X120976Y16449D01*
X121793Y15903D01*
X122756Y15711D01*
X123719Y15903D01*
X124536Y16449D01*
X124640Y16605D01*
X125213Y16563D01*
X125560Y16111D01*
X126180Y15635D01*
X126902Y15336D01*
X127277Y15287D01*
Y18228D01*
Y21559D01*
X127224Y21667D01*
X133836Y28279D01*
X149961D01*
X149961Y28279D01*
X150273Y28341D01*
X150537Y28518D01*
X169317Y47297D01*
X169317Y47297D01*
X169494Y47562D01*
X169556Y47874D01*
X169556Y47874D01*
Y59662D01*
X173232Y63338D01*
X177381D01*
X177646Y62941D01*
X178202Y62570D01*
X178858Y62440D01*
X183976D01*
X184632Y62570D01*
X185188Y62941D01*
X185560Y63498D01*
X185690Y64153D01*
X185560Y64810D01*
X185188Y65365D01*
X184632Y65737D01*
X183976Y65868D01*
D02*
G37*
G36*
X146575D02*
X141457D01*
X140801Y65737D01*
X140245Y65365D01*
X139980Y64969D01*
X123642D01*
X123330Y64907D01*
X123065Y64730D01*
X123065Y64730D01*
X109347Y51012D01*
X62835D01*
X62835Y51012D01*
X62523Y50950D01*
X62258Y50774D01*
X58678Y47194D01*
X49803D01*
X49803Y47194D01*
X49491Y47131D01*
X49226Y46955D01*
X49226Y46955D01*
X42179Y39908D01*
X42002Y39643D01*
X41940Y39331D01*
X41940Y39331D01*
Y32429D01*
X40583D01*
Y27886D01*
X42019D01*
Y20583D01*
X41872Y20554D01*
X41055Y20008D01*
X40951Y19852D01*
X40377Y19894D01*
X40031Y20346D01*
X39410Y20821D01*
X38688Y21120D01*
X38313Y21170D01*
Y18228D01*
Y15287D01*
X38688Y15336D01*
X39410Y15635D01*
X40031Y16111D01*
X40377Y16563D01*
X40951Y16605D01*
X41055Y16449D01*
X41872Y15903D01*
X42835Y15711D01*
X43798Y15903D01*
X44614Y16449D01*
X45160Y17265D01*
X45351Y18228D01*
X45160Y19192D01*
X44614Y20008D01*
X43798Y20554D01*
X43650Y20583D01*
Y27886D01*
X44929D01*
Y32429D01*
X43572D01*
Y38993D01*
X50141Y45562D01*
X59016D01*
X59016Y45562D01*
X59328Y45624D01*
X59592Y45801D01*
X63173Y49381D01*
X109685D01*
X109685Y49381D01*
X109997Y49443D01*
X110262Y49620D01*
X123980Y63338D01*
X139980D01*
X140245Y62941D01*
X140801Y62570D01*
X141457Y62440D01*
X146575D01*
X147231Y62570D01*
X147787Y62941D01*
X148158Y63498D01*
X148289Y64153D01*
X148158Y64810D01*
X147787Y65365D01*
X147231Y65737D01*
X146575Y65868D01*
D02*
G37*
G36*
Y60868D02*
X141457D01*
X140801Y60737D01*
X140245Y60365D01*
X139980Y59969D01*
X124390D01*
X124390Y59969D01*
X124078Y59907D01*
X123813Y59730D01*
X123813Y59730D01*
X109465Y45383D01*
X72913D01*
X72601Y45320D01*
X72337Y45144D01*
X72337Y45144D01*
X54856Y27663D01*
X54680Y27399D01*
X54617Y27087D01*
X54617Y27087D01*
Y20583D01*
X54470Y20554D01*
X53653Y20008D01*
X53108Y19192D01*
X52916Y18228D01*
X53108Y17265D01*
X53653Y16449D01*
X54470Y15903D01*
X55433Y15711D01*
X56396Y15903D01*
X57213Y16449D01*
X57317Y16605D01*
X57890Y16563D01*
X58237Y16111D01*
X58857Y15635D01*
X59579Y15336D01*
X59954Y15287D01*
Y18228D01*
Y21170D01*
X59579Y21120D01*
X58857Y20821D01*
X58237Y20346D01*
X57890Y19894D01*
X57317Y19852D01*
X57213Y20008D01*
X56396Y20554D01*
X56249Y20583D01*
Y26749D01*
X73251Y43751D01*
X109803D01*
X109803Y43751D01*
X110115Y43813D01*
X110380Y43990D01*
X124728Y58338D01*
X139980D01*
X140245Y57942D01*
X140801Y57570D01*
X141457Y57440D01*
X146575D01*
X147231Y57570D01*
X147787Y57942D01*
X148158Y58498D01*
X148289Y59153D01*
X148158Y59809D01*
X147787Y60365D01*
X147231Y60737D01*
X146575Y60868D01*
D02*
G37*
G36*
X229095Y61377D02*
X226935D01*
Y59553D01*
X231239D01*
X231149Y60005D01*
X230667Y60726D01*
X229945Y61208D01*
X229095Y61377D01*
D02*
G37*
G36*
X231239Y58754D02*
X226935D01*
Y56930D01*
X229095D01*
X229945Y57099D01*
X230667Y57581D01*
X231149Y58302D01*
X231239Y58754D01*
D02*
G37*
G36*
X226135Y61377D02*
X223976D01*
X223125Y61208D01*
X222404Y60726D01*
X222239Y60479D01*
X220079D01*
X219571Y60378D01*
X219142Y60091D01*
X218854Y59661D01*
X218753Y59153D01*
X218854Y58646D01*
X219142Y58216D01*
X219571Y57929D01*
X220079Y57828D01*
X222239D01*
X222404Y57581D01*
X223125Y57099D01*
X223976Y56930D01*
X226135D01*
Y59153D01*
Y61377D01*
D02*
G37*
G36*
X18628Y59162D02*
Y56621D01*
X21170D01*
X21120Y56995D01*
X20821Y57718D01*
X20346Y58338D01*
X19725Y58814D01*
X19003Y59113D01*
X18628Y59162D01*
D02*
G37*
G36*
X17828D02*
X17453Y59113D01*
X16731Y58814D01*
X16111Y58338D01*
X15635Y57718D01*
X15336Y56995D01*
X15287Y56621D01*
X17828D01*
Y59162D01*
D02*
G37*
G36*
X229095Y56377D02*
X226935D01*
Y54554D01*
X231239D01*
X231149Y55005D01*
X230667Y55726D01*
X229945Y56208D01*
X229095Y56377D01*
D02*
G37*
G36*
X266496Y114372D02*
X261378D01*
X260722Y114241D01*
X260166Y113870D01*
X259794Y113313D01*
X259664Y112657D01*
X259794Y112002D01*
X260166Y111445D01*
X260722Y111074D01*
X261378Y110943D01*
X266496D01*
X267152Y111074D01*
X267708Y111445D01*
X267973Y111842D01*
X276768D01*
X321232Y67379D01*
Y57520D01*
X321232Y57520D01*
X321294Y57208D01*
X321470Y56943D01*
X322730Y55683D01*
X322995Y55506D01*
X323307Y55444D01*
X323307Y55444D01*
X325874D01*
X325903Y55297D01*
X326449Y54480D01*
X327265Y53935D01*
X328228Y53743D01*
X329191Y53935D01*
X330008Y54480D01*
X330554Y55297D01*
X330745Y56260D01*
X330554Y57223D01*
X330008Y58040D01*
X329852Y58144D01*
X329894Y58717D01*
X330346Y59064D01*
X330821Y59684D01*
X331120Y60406D01*
X331170Y60781D01*
X328228D01*
X325287D01*
X325336Y60406D01*
X325635Y59684D01*
X326111Y59064D01*
X326563Y58717D01*
X326605Y58144D01*
X326449Y58040D01*
X325903Y57223D01*
X325874Y57076D01*
X323645D01*
X322863Y57858D01*
Y67716D01*
X322801Y68029D01*
X322624Y68293D01*
X322624Y68293D01*
X277683Y113234D01*
X277418Y113411D01*
X277106Y113473D01*
X277106Y113473D01*
X267973D01*
X267708Y113870D01*
X267152Y114241D01*
X266496Y114372D01*
D02*
G37*
G36*
X183976Y55868D02*
X178858D01*
X178202Y55737D01*
X177646Y55366D01*
X177381Y54969D01*
X174311D01*
X173999Y54907D01*
X173734Y54730D01*
X173734Y54730D01*
X170841Y51837D01*
X170664Y51572D01*
X170602Y51260D01*
X170602Y51260D01*
Y44911D01*
X158315Y32624D01*
X158315Y32624D01*
X158315Y32624D01*
X146211Y20520D01*
X146160Y20554D01*
X145197Y20745D01*
X144234Y20554D01*
X143417Y20008D01*
X142872Y19192D01*
X142680Y18228D01*
X142872Y17265D01*
X143417Y16449D01*
X144234Y15903D01*
X145197Y15711D01*
X146160Y15903D01*
X146976Y16449D01*
X147081Y16605D01*
X147654Y16563D01*
X148001Y16111D01*
X148621Y15635D01*
X149343Y15336D01*
X149718Y15287D01*
Y18228D01*
Y21559D01*
X149665Y21667D01*
X159468Y31470D01*
X159468Y31471D01*
X171994Y43996D01*
X172171Y44261D01*
X172233Y44573D01*
X172233Y44573D01*
Y50922D01*
X174649Y53338D01*
X177381D01*
X177646Y52942D01*
X178202Y52570D01*
X178858Y52439D01*
X183976D01*
X184632Y52570D01*
X185188Y52942D01*
X185560Y53498D01*
X185690Y54154D01*
X185560Y54809D01*
X185188Y55366D01*
X184632Y55737D01*
X183976Y55868D01*
D02*
G37*
G36*
X146575D02*
X141457D01*
X140801Y55737D01*
X140245Y55366D01*
X139980Y54969D01*
X126594D01*
X126282Y54907D01*
X126018Y54730D01*
X126018Y54730D01*
X108442Y37154D01*
X86181D01*
X86181Y37154D01*
X85869Y37092D01*
X85604Y36915D01*
X77297Y28608D01*
X77121Y28344D01*
X77058Y28032D01*
X77058Y28032D01*
Y20583D01*
X76911Y20554D01*
X76094Y20008D01*
X75549Y19192D01*
X75357Y18228D01*
X75549Y17265D01*
X76094Y16449D01*
X76911Y15903D01*
X77874Y15711D01*
X78837Y15903D01*
X79654Y16449D01*
X79758Y16605D01*
X80331Y16563D01*
X80678Y16111D01*
X81298Y15635D01*
X82020Y15336D01*
X82395Y15287D01*
Y18228D01*
Y21170D01*
X82020Y21120D01*
X81298Y20821D01*
X80678Y20346D01*
X80331Y19894D01*
X79758Y19852D01*
X79654Y20008D01*
X78837Y20554D01*
X78690Y20583D01*
Y27694D01*
X86519Y35523D01*
X108780D01*
X108780Y35523D01*
X109092Y35585D01*
X109356Y35762D01*
X126932Y53338D01*
X139980D01*
X140245Y52942D01*
X140801Y52570D01*
X141457Y52439D01*
X146575D01*
X147231Y52570D01*
X147787Y52942D01*
X148158Y53498D01*
X148289Y54154D01*
X148158Y54809D01*
X147787Y55366D01*
X147231Y55737D01*
X146575Y55868D01*
D02*
G37*
G36*
X231239Y53754D02*
X226935D01*
Y51930D01*
X229095D01*
X229945Y52099D01*
X230667Y52581D01*
X231149Y53303D01*
X231239Y53754D01*
D02*
G37*
G36*
X226135Y56377D02*
X223976D01*
X223125Y56208D01*
X222404Y55726D01*
X222239Y55479D01*
X220079D01*
X219571Y55378D01*
X219142Y55091D01*
X218854Y54661D01*
X218753Y54154D01*
X218854Y53646D01*
X219142Y53216D01*
X219571Y52929D01*
X220079Y52828D01*
X222239D01*
X222404Y52581D01*
X223125Y52099D01*
X223976Y51930D01*
X226135D01*
Y54154D01*
Y56377D01*
D02*
G37*
G36*
X229095Y51377D02*
X226935D01*
Y49553D01*
X231239D01*
X231149Y50005D01*
X230667Y50726D01*
X229945Y51208D01*
X229095Y51377D01*
D02*
G37*
G36*
X129915Y52102D02*
X127248D01*
Y49534D01*
X129915D01*
Y52102D01*
D02*
G37*
G36*
X231239Y48753D02*
X226935D01*
Y46930D01*
X229095D01*
X229945Y47099D01*
X230667Y47581D01*
X231149Y48303D01*
X231239Y48753D01*
D02*
G37*
G36*
X226135Y51377D02*
X223976D01*
X223125Y51208D01*
X222404Y50726D01*
X222239Y50479D01*
X220079D01*
X219571Y50378D01*
X219142Y50091D01*
X218854Y49661D01*
X218753Y49154D01*
X218854Y48646D01*
X219142Y48216D01*
X219571Y47929D01*
X220079Y47828D01*
X222239D01*
X222404Y47581D01*
X223125Y47099D01*
X223976Y46930D01*
X226135D01*
Y49154D01*
Y51377D01*
D02*
G37*
G36*
X129915Y48734D02*
X127248D01*
Y46165D01*
X129915D01*
Y48734D01*
D02*
G37*
G36*
X229095Y70868D02*
X223976D01*
X223320Y70737D01*
X222764Y70366D01*
X222393Y69810D01*
X222262Y69153D01*
X222393Y68498D01*
X222764Y67941D01*
X223320Y67570D01*
X223976Y67440D01*
X229095D01*
X229750Y67570D01*
X230307Y67941D01*
X230571Y68338D01*
X231138D01*
X234066Y65410D01*
Y43684D01*
X225449Y35068D01*
X218504D01*
X218192Y35006D01*
X217927Y34829D01*
X217927Y34829D01*
X211943Y28844D01*
X211766Y28580D01*
X211704Y28268D01*
X211704Y28268D01*
Y20583D01*
X211557Y20554D01*
X210740Y20008D01*
X210194Y19192D01*
X210003Y18228D01*
X210194Y17265D01*
X210740Y16449D01*
X211557Y15903D01*
X212520Y15711D01*
X213483Y15903D01*
X214299Y16449D01*
X214404Y16605D01*
X214977Y16563D01*
X215324Y16111D01*
X215944Y15635D01*
X216666Y15336D01*
X217041Y15287D01*
Y18228D01*
Y21170D01*
X216666Y21121D01*
X215944Y20821D01*
X215324Y20346D01*
X214977Y19894D01*
X214404Y19852D01*
X214299Y20008D01*
X213483Y20554D01*
X213335Y20583D01*
Y27930D01*
X218842Y33436D01*
X225787D01*
X225787Y33436D01*
X226099Y33498D01*
X226364Y33675D01*
X235459Y42770D01*
X235635Y43034D01*
X235698Y43347D01*
X235698Y43347D01*
Y65748D01*
X235698Y65748D01*
X235635Y66060D01*
X235459Y66325D01*
X235459Y66325D01*
X232053Y69730D01*
X231788Y69907D01*
X231476Y69969D01*
X231476Y69969D01*
X230571D01*
X230307Y70366D01*
X229750Y70737D01*
X229095Y70868D01*
D02*
G37*
G36*
X266496Y109371D02*
X261378D01*
X260722Y109241D01*
X260166Y108870D01*
X259794Y108313D01*
X259664Y107658D01*
X259794Y107001D01*
X260166Y106446D01*
X260722Y106074D01*
X261378Y105943D01*
X266496D01*
X267152Y106074D01*
X267708Y106446D01*
X267973Y106842D01*
X276257D01*
X318476Y64623D01*
Y38976D01*
X318476Y38976D01*
X318538Y38664D01*
X318715Y38400D01*
X323872Y33242D01*
X323872Y33242D01*
X324137Y33065D01*
X324449Y33003D01*
X325874D01*
X325903Y32856D01*
X326449Y32039D01*
X327265Y31494D01*
X328228Y31302D01*
X329191Y31494D01*
X330008Y32039D01*
X330554Y32856D01*
X330745Y33819D01*
X330554Y34782D01*
X330008Y35599D01*
X329852Y35703D01*
X329894Y36276D01*
X330346Y36623D01*
X330821Y37243D01*
X331120Y37965D01*
X331170Y38340D01*
X328228D01*
X325287D01*
X325336Y37965D01*
X325635Y37243D01*
X326111Y36623D01*
X326563Y36276D01*
X326605Y35703D01*
X326449Y35599D01*
X325903Y34782D01*
X325874Y34635D01*
X324787D01*
X320107Y39314D01*
Y64961D01*
X320045Y65273D01*
X319868Y65537D01*
X319868Y65537D01*
X277171Y108234D01*
X276907Y108411D01*
X276594Y108473D01*
X276594Y108473D01*
X267973D01*
X267708Y108870D01*
X267152Y109241D01*
X266496Y109371D01*
D02*
G37*
G36*
X37513Y21170D02*
X37139Y21120D01*
X36416Y20821D01*
X35796Y20346D01*
X35320Y19725D01*
X35021Y19003D01*
X34972Y18628D01*
X37513D01*
Y21170D01*
D02*
G37*
G36*
X266496Y65868D02*
X261378D01*
X260722Y65737D01*
X260166Y65365D01*
X259794Y64810D01*
X259664Y64153D01*
X259794Y63498D01*
X260166Y62941D01*
X260722Y62570D01*
X261378Y62440D01*
X266496D01*
X267152Y62570D01*
X267708Y62941D01*
X267973Y63338D01*
X273146D01*
X277531Y58953D01*
Y41558D01*
X262061Y26089D01*
X261884Y25824D01*
X261822Y25512D01*
X261822Y25512D01*
Y20583D01*
X261675Y20554D01*
X260858Y20008D01*
X260313Y19192D01*
X260121Y18228D01*
X260313Y17265D01*
X260858Y16449D01*
X261675Y15903D01*
X262638Y15711D01*
X263601Y15903D01*
X264418Y16449D01*
X264522Y16605D01*
X265095Y16563D01*
X265442Y16111D01*
X266062Y15635D01*
X266784Y15336D01*
X267159Y15287D01*
Y18228D01*
Y21170D01*
X266784Y21120D01*
X266062Y20821D01*
X265442Y20346D01*
X265095Y19894D01*
X264522Y19852D01*
X264418Y20008D01*
X263601Y20554D01*
X263454Y20583D01*
Y25174D01*
X278923Y40644D01*
X279100Y40908D01*
X279162Y41221D01*
X279162Y41221D01*
Y59291D01*
X279162Y59291D01*
X279100Y59604D01*
X278923Y59868D01*
X274061Y64730D01*
X273796Y64907D01*
X273484Y64969D01*
X273484Y64969D01*
X267973D01*
X267708Y65365D01*
X267152Y65737D01*
X266496Y65868D01*
D02*
G37*
G36*
Y70868D02*
X261378D01*
X260722Y70737D01*
X260166Y70366D01*
X259794Y69810D01*
X259664Y69153D01*
X259794Y68498D01*
X260166Y67941D01*
X260722Y67570D01*
X261378Y67440D01*
X266496D01*
X267152Y67570D01*
X267708Y67941D01*
X267973Y68338D01*
X277713D01*
X284263Y61788D01*
Y20583D01*
X284116Y20554D01*
X283299Y20008D01*
X282753Y19192D01*
X282562Y18228D01*
X282753Y17265D01*
X283299Y16449D01*
X284116Y15903D01*
X285079Y15711D01*
X286042Y15903D01*
X286858Y16449D01*
X286963Y16605D01*
X287536Y16563D01*
X287883Y16111D01*
X288503Y15635D01*
X289225Y15336D01*
X289600Y15287D01*
Y18228D01*
Y21170D01*
X289225Y21120D01*
X288503Y20821D01*
X287883Y20346D01*
X287536Y19894D01*
X286963Y19852D01*
X286858Y20008D01*
X286042Y20554D01*
X285894Y20583D01*
Y62126D01*
X285894Y62126D01*
X285832Y62438D01*
X285655Y62703D01*
X278628Y69730D01*
X278363Y69907D01*
X278051Y69969D01*
X278051Y69969D01*
X267973D01*
X267708Y70366D01*
X267152Y70737D01*
X266496Y70868D01*
D02*
G37*
G36*
X37513Y17828D02*
X34972D01*
X35021Y17453D01*
X35320Y16731D01*
X35796Y16111D01*
X36416Y15635D01*
X37139Y15336D01*
X37513Y15287D01*
Y17828D01*
D02*
G37*
G36*
X266496Y75868D02*
X261378D01*
X260722Y75737D01*
X260166Y75366D01*
X259794Y74809D01*
X259664Y74154D01*
X259794Y73498D01*
X260166Y72941D01*
X260722Y72570D01*
X261378Y72439D01*
X266496D01*
X267152Y72570D01*
X267708Y72941D01*
X267973Y73338D01*
X286965D01*
X306704Y53599D01*
Y20583D01*
X306557Y20554D01*
X305740Y20008D01*
X305194Y19192D01*
X305003Y18228D01*
X305194Y17265D01*
X305740Y16449D01*
X306557Y15903D01*
X307520Y15711D01*
X308483Y15903D01*
X309299Y16449D01*
X309404Y16605D01*
X309977Y16563D01*
X310324Y16111D01*
X310944Y15635D01*
X311666Y15336D01*
X312041Y15287D01*
Y18228D01*
Y21170D01*
X311666Y21120D01*
X310944Y20821D01*
X310324Y20346D01*
X309977Y19894D01*
X309404Y19852D01*
X309299Y20008D01*
X308483Y20554D01*
X308335Y20583D01*
Y53937D01*
X308335Y53937D01*
X308273Y54249D01*
X308097Y54514D01*
X308096Y54514D01*
X287880Y74730D01*
X287615Y74907D01*
X287303Y74969D01*
X287303Y74969D01*
X267973D01*
X267708Y75366D01*
X267152Y75737D01*
X266496Y75868D01*
D02*
G37*
G36*
X183976Y50868D02*
X178858D01*
X178202Y50737D01*
X177646Y50366D01*
X177275Y49810D01*
X177144Y49154D01*
X177275Y48498D01*
X177646Y47942D01*
X178202Y47570D01*
X178858Y47440D01*
X180602D01*
Y37385D01*
X167061Y23844D01*
X166884Y23580D01*
X166822Y23268D01*
X166822Y23268D01*
Y20583D01*
X166675Y20554D01*
X165858Y20008D01*
X165313Y19192D01*
X165121Y18228D01*
X165313Y17265D01*
X165858Y16449D01*
X166675Y15903D01*
X167638Y15711D01*
X168601Y15903D01*
X169418Y16449D01*
X169522Y16605D01*
X170095Y16563D01*
X170442Y16111D01*
X171062Y15635D01*
X171784Y15336D01*
X172159Y15287D01*
Y18228D01*
Y21170D01*
X171784Y21120D01*
X171062Y20821D01*
X170442Y20346D01*
X170095Y19894D01*
X169522Y19852D01*
X169418Y20008D01*
X168601Y20554D01*
X168454Y20583D01*
Y22930D01*
X181994Y36470D01*
X182171Y36735D01*
X182233Y37047D01*
X182233Y37047D01*
Y47440D01*
X183976D01*
X184632Y47570D01*
X185188Y47942D01*
X185560Y48498D01*
X185690Y49154D01*
X185560Y49810D01*
X185188Y50366D01*
X184632Y50737D01*
X183976Y50868D01*
D02*
G37*
G36*
X266496Y80868D02*
X261378D01*
X260722Y80737D01*
X260166Y80366D01*
X259794Y79809D01*
X259664Y79154D01*
X259794Y78498D01*
X260166Y77942D01*
X260722Y77570D01*
X261378Y77439D01*
X266496D01*
X267152Y77570D01*
X267708Y77942D01*
X267973Y78338D01*
X290666D01*
X312570Y56434D01*
Y35039D01*
X312570Y35039D01*
X312632Y34727D01*
X312809Y34463D01*
X322258Y25014D01*
X322258Y25014D01*
X322258Y25014D01*
X327814Y19458D01*
X327635Y19192D01*
X327444Y18228D01*
X327635Y17265D01*
X328181Y16449D01*
X328997Y15903D01*
X329961Y15711D01*
X330924Y15903D01*
X331740Y16449D01*
X331845Y16605D01*
X332418Y16563D01*
X332765Y16111D01*
X333385Y15635D01*
X334107Y15336D01*
X334482Y15287D01*
Y18228D01*
Y21170D01*
X334107Y21120D01*
X333385Y20821D01*
X332765Y20346D01*
X332418Y19894D01*
X331845Y19852D01*
X331740Y20008D01*
X330924Y20554D01*
X329961Y20745D01*
X329021Y20558D01*
X323411Y26167D01*
X323411Y26167D01*
X314201Y35377D01*
Y56772D01*
X314139Y57084D01*
X313963Y57348D01*
X313963Y57348D01*
X291581Y79730D01*
X291316Y79907D01*
X291004Y79969D01*
X291004Y79969D01*
X267973D01*
X267708Y80366D01*
X267152Y80737D01*
X266496Y80868D01*
D02*
G37*
%LPD*%
G36*
X204638Y100426D02*
X205292Y99989D01*
X206063Y99835D01*
X206834Y99989D01*
X206859Y100006D01*
X209003Y97862D01*
X209334Y97641D01*
X209724Y97563D01*
X210445D01*
Y96140D01*
X209976Y95902D01*
X209238Y96640D01*
X208974Y96817D01*
X208661Y96879D01*
X208661Y96879D01*
X205945D01*
X205945Y96879D01*
X205633Y96817D01*
X205368Y96640D01*
X205368Y96640D01*
X204069Y95341D01*
X203892Y95076D01*
X203830Y94764D01*
X203830Y94764D01*
Y87858D01*
X202418Y86446D01*
X197543D01*
X196229Y87759D01*
X196228Y87762D01*
X196271Y87957D01*
X196740Y88244D01*
X197165Y88160D01*
X197591Y88244D01*
X197810Y88391D01*
X197987Y88125D01*
X198513Y87773D01*
X198734Y87730D01*
Y91535D01*
X199534D01*
Y87730D01*
X199754Y87773D01*
X200281Y88125D01*
X200458Y88391D01*
X200677Y88244D01*
X201102Y88160D01*
X201528Y88244D01*
X201889Y88485D01*
X202130Y88846D01*
X202214Y89272D01*
Y93799D01*
X202130Y94225D01*
X201889Y94586D01*
X201528Y94827D01*
X201102Y94911D01*
X200677Y94827D01*
X200458Y94680D01*
X200281Y94946D01*
X199950Y95167D01*
Y96040D01*
X200259Y96350D01*
X202353D01*
X202665Y96412D01*
X202929Y96589D01*
X203106Y96853D01*
X203168Y97165D01*
X203106Y97478D01*
X202929Y97742D01*
X202665Y97919D01*
X202353Y97981D01*
X200363D01*
X200268Y98063D01*
X200016Y98481D01*
X200051Y98661D01*
Y99283D01*
X201602D01*
Y100831D01*
X204367D01*
X204638Y100426D01*
D02*
G37*
%LPC*%
G36*
X43353Y216070D02*
Y212089D01*
X47334D01*
X47235Y212837D01*
X46792Y213906D01*
X46088Y214824D01*
X45170Y215529D01*
X44100Y215971D01*
X43353Y216070D01*
D02*
G37*
G36*
X33353D02*
Y212089D01*
X37334D01*
X37235Y212837D01*
X36792Y213906D01*
X36088Y214824D01*
X35170Y215529D01*
X34100Y215971D01*
X33353Y216070D01*
D02*
G37*
G36*
X42553D02*
X41805Y215971D01*
X40736Y215529D01*
X39818Y214824D01*
X39113Y213906D01*
X38670Y212837D01*
X38572Y212089D01*
X42553D01*
Y216070D01*
D02*
G37*
G36*
X32553D02*
X31805Y215971D01*
X30736Y215529D01*
X29818Y214824D01*
X29113Y213906D01*
X28670Y212837D01*
X28572Y212089D01*
X32553D01*
Y216070D01*
D02*
G37*
G36*
X47334Y211289D02*
X43353D01*
Y207308D01*
X44100Y207406D01*
X45170Y207849D01*
X46088Y208554D01*
X46792Y209472D01*
X47235Y210542D01*
X47334Y211289D01*
D02*
G37*
G36*
X37334D02*
X33353D01*
Y207308D01*
X34100Y207406D01*
X35170Y207849D01*
X36088Y208554D01*
X36792Y209472D01*
X37235Y210542D01*
X37334Y211289D01*
D02*
G37*
G36*
X42553D02*
X38572D01*
X38670Y210542D01*
X39113Y209472D01*
X39818Y208554D01*
X40736Y207849D01*
X41805Y207406D01*
X42553Y207308D01*
Y211289D01*
D02*
G37*
G36*
X32553D02*
X28572D01*
X28670Y210542D01*
X29113Y209472D01*
X29818Y208554D01*
X30736Y207849D01*
X31805Y207406D01*
X32553Y207308D01*
Y211289D01*
D02*
G37*
G36*
X328628Y203690D02*
Y201148D01*
X331170D01*
X331120Y201523D01*
X330821Y202245D01*
X330346Y202865D01*
X329725Y203341D01*
X329003Y203640D01*
X328628Y203690D01*
D02*
G37*
G36*
X327828D02*
X327453Y203640D01*
X326731Y203341D01*
X326111Y202865D01*
X325635Y202245D01*
X325336Y201523D01*
X325287Y201148D01*
X327828D01*
Y203690D01*
D02*
G37*
G36*
X36848Y205585D02*
X29057D01*
Y197793D01*
X36848D01*
Y205585D01*
D02*
G37*
G36*
X13780Y219141D02*
X11832Y218987D01*
X9933Y218531D01*
X8128Y217784D01*
X6463Y216763D01*
X4978Y215495D01*
X3709Y214010D01*
X2688Y212344D01*
X1941Y210540D01*
X1485Y208640D01*
X1332Y206693D01*
X1485Y204746D01*
X1941Y202846D01*
X2688Y201042D01*
X3709Y199376D01*
X4978Y197891D01*
X6463Y196622D01*
X8128Y195602D01*
X9933Y194854D01*
X11832Y194398D01*
X13780Y194245D01*
X15727Y194398D01*
X17626Y194854D01*
X19431Y195602D01*
X21096Y196622D01*
X22581Y197891D01*
X23850Y199376D01*
X24871Y201042D01*
X25618Y202846D01*
X26074Y204746D01*
X26227Y206693D01*
X26074Y208640D01*
X25618Y210540D01*
X24871Y212344D01*
X23850Y214010D01*
X22581Y215495D01*
X21096Y216763D01*
X19431Y217784D01*
X17626Y218531D01*
X15727Y218987D01*
X13780Y219141D01*
D02*
G37*
G36*
X328628Y181249D02*
Y178707D01*
X331170D01*
X331120Y179082D01*
X330821Y179804D01*
X330346Y180424D01*
X329725Y180900D01*
X329003Y181199D01*
X328628Y181249D01*
D02*
G37*
G36*
X327828D02*
X327453Y181199D01*
X326731Y180900D01*
X326111Y180424D01*
X325635Y179804D01*
X325336Y179082D01*
X325287Y178707D01*
X327828D01*
Y181249D01*
D02*
G37*
G36*
X328628Y158808D02*
Y156266D01*
X331170D01*
X331120Y156641D01*
X330821Y157363D01*
X330346Y157983D01*
X329725Y158459D01*
X329003Y158758D01*
X328628Y158808D01*
D02*
G37*
G36*
X327828D02*
X327453Y158758D01*
X326731Y158459D01*
X326111Y157983D01*
X325635Y157363D01*
X325336Y156641D01*
X325287Y156266D01*
X327828D01*
Y158808D01*
D02*
G37*
G36*
X328628Y136367D02*
Y133825D01*
X331170D01*
X331120Y134200D01*
X330821Y134922D01*
X330346Y135542D01*
X329725Y136018D01*
X329003Y136317D01*
X328628Y136367D01*
D02*
G37*
G36*
X327828D02*
X327453Y136317D01*
X326731Y136018D01*
X326111Y135542D01*
X325635Y134922D01*
X325336Y134200D01*
X325287Y133825D01*
X327828D01*
Y136367D01*
D02*
G37*
G36*
X328628Y113926D02*
Y111384D01*
X331170D01*
X331120Y111759D01*
X330821Y112481D01*
X330346Y113101D01*
X329725Y113577D01*
X329003Y113876D01*
X328628Y113926D01*
D02*
G37*
G36*
X327828D02*
X327453Y113876D01*
X326731Y113577D01*
X326111Y113101D01*
X325635Y112481D01*
X325336Y111759D01*
X325287Y111384D01*
X327828D01*
Y113926D01*
D02*
G37*
G36*
X328628Y91524D02*
Y88983D01*
X331170D01*
X331120Y89358D01*
X330821Y90080D01*
X330346Y90700D01*
X329725Y91176D01*
X329003Y91475D01*
X328628Y91524D01*
D02*
G37*
G36*
X327828D02*
X327453Y91475D01*
X326731Y91176D01*
X326111Y90700D01*
X325635Y90080D01*
X325336Y89358D01*
X325287Y88983D01*
X327828D01*
Y91524D01*
D02*
G37*
G36*
X52495Y77260D02*
X48253D01*
Y74691D01*
X52495D01*
Y77260D01*
D02*
G37*
G36*
X47453D02*
X43211D01*
Y74691D01*
X47453D01*
Y77260D01*
D02*
G37*
G36*
X52495Y73891D02*
X48253D01*
Y71323D01*
X52495D01*
Y73891D01*
D02*
G37*
G36*
X47453D02*
X43211D01*
Y71323D01*
X47453D01*
Y73891D01*
D02*
G37*
G36*
X86384Y73588D02*
Y69061D01*
X90911D01*
X90794Y69950D01*
X90297Y71151D01*
X89505Y72183D01*
X88474Y72974D01*
X87273Y73471D01*
X86384Y73588D01*
D02*
G37*
G36*
X85584D02*
X84695Y73471D01*
X83494Y72974D01*
X82463Y72183D01*
X81672Y71151D01*
X81174Y69950D01*
X81057Y69061D01*
X85584D01*
Y73588D01*
D02*
G37*
G36*
X328628Y69044D02*
Y66502D01*
X331170D01*
X331120Y66877D01*
X330821Y67599D01*
X330346Y68220D01*
X329725Y68695D01*
X329003Y68994D01*
X328628Y69044D01*
D02*
G37*
G36*
X327828D02*
X327453Y68994D01*
X326731Y68695D01*
X326111Y68220D01*
X325635Y67599D01*
X325336Y66877D01*
X325287Y66502D01*
X327828D01*
Y69044D01*
D02*
G37*
G36*
X47453Y69032D02*
X44786D01*
Y66463D01*
X47453D01*
Y69032D01*
D02*
G37*
G36*
X90911Y68261D02*
X86384D01*
Y63735D01*
X87273Y63851D01*
X88474Y64349D01*
X89505Y65140D01*
X90297Y66172D01*
X90794Y67373D01*
X90911Y68261D01*
D02*
G37*
G36*
X85584D02*
X81057D01*
X81174Y67373D01*
X81672Y66172D01*
X82463Y65140D01*
X83494Y64349D01*
X84695Y63851D01*
X85584Y63735D01*
Y68261D01*
D02*
G37*
G36*
X47453Y65663D02*
X44786D01*
Y63095D01*
X47453D01*
Y65663D01*
D02*
G37*
G36*
X328628Y46603D02*
Y44061D01*
X331170D01*
X331120Y44436D01*
X330821Y45158D01*
X330346Y45779D01*
X329725Y46254D01*
X329003Y46554D01*
X328628Y46603D01*
D02*
G37*
G36*
X327828D02*
X327453Y46554D01*
X326731Y46254D01*
X326111Y45779D01*
X325635Y45158D01*
X325336Y44436D01*
X325287Y44061D01*
X327828D01*
Y46603D01*
D02*
G37*
G36*
X27632Y44816D02*
X25260D01*
Y42543D01*
X27632D01*
Y44816D01*
D02*
G37*
G36*
X222762Y21170D02*
Y18628D01*
X225304D01*
X225254Y19003D01*
X224955Y19725D01*
X224479Y20346D01*
X223859Y20821D01*
X223137Y21121D01*
X222762Y21170D01*
D02*
G37*
G36*
X200321D02*
Y18628D01*
X202863D01*
X202813Y19003D01*
X202514Y19725D01*
X202038Y20346D01*
X201418Y20821D01*
X200696Y21121D01*
X200321Y21170D01*
D02*
G37*
G36*
X295321Y21170D02*
Y18628D01*
X297863D01*
X297813Y19003D01*
X297514Y19725D01*
X297038Y20346D01*
X296418Y20821D01*
X295696Y21120D01*
X295321Y21170D01*
D02*
G37*
G36*
X88117D02*
Y18628D01*
X90658D01*
X90609Y19003D01*
X90310Y19725D01*
X89834Y20346D01*
X89214Y20821D01*
X88491Y21120D01*
X88117Y21170D01*
D02*
G37*
G36*
X155439D02*
Y18628D01*
X157981D01*
X157931Y19003D01*
X157632Y19725D01*
X157157Y20346D01*
X156536Y20821D01*
X155814Y21120D01*
X155439Y21170D01*
D02*
G37*
G36*
X65676D02*
Y18628D01*
X68217D01*
X68168Y19003D01*
X67869Y19725D01*
X67393Y20346D01*
X66773Y20821D01*
X66050Y21120D01*
X65676Y21170D01*
D02*
G37*
G36*
X272880D02*
Y18628D01*
X275422D01*
X275372Y19003D01*
X275073Y19725D01*
X274598Y20346D01*
X273977Y20821D01*
X273255Y21120D01*
X272880Y21170D01*
D02*
G37*
G36*
X132998D02*
Y18628D01*
X135540D01*
X135491Y19003D01*
X135191Y19725D01*
X134716Y20346D01*
X134096Y20821D01*
X133373Y21120D01*
X132998Y21170D01*
D02*
G37*
G36*
X317762D02*
Y18628D01*
X320304D01*
X320254Y19003D01*
X319955Y19725D01*
X319479Y20346D01*
X318859Y20821D01*
X318137Y21120D01*
X317762Y21170D01*
D02*
G37*
G36*
X177880D02*
Y18628D01*
X180422D01*
X180372Y19003D01*
X180073Y19725D01*
X179597Y20346D01*
X178977Y20821D01*
X178255Y21120D01*
X177880Y21170D01*
D02*
G37*
G36*
X110557D02*
Y18628D01*
X113099D01*
X113050Y19003D01*
X112750Y19725D01*
X112275Y20346D01*
X111654Y20821D01*
X110932Y21120D01*
X110557Y21170D01*
D02*
G37*
G36*
X225304Y17828D02*
X222762D01*
Y15287D01*
X223137Y15336D01*
X223859Y15635D01*
X224479Y16111D01*
X224955Y16731D01*
X225254Y17453D01*
X225304Y17828D01*
D02*
G37*
G36*
X202863D02*
X200321D01*
Y15287D01*
X200696Y15336D01*
X201418Y15635D01*
X202038Y16111D01*
X202514Y16731D01*
X202813Y17453D01*
X202863Y17828D01*
D02*
G37*
G36*
X297863Y17828D02*
X295321D01*
Y15287D01*
X295696Y15336D01*
X296418Y15635D01*
X297038Y16111D01*
X297514Y16731D01*
X297813Y17453D01*
X297863Y17828D01*
D02*
G37*
G36*
X90658D02*
X88117D01*
Y15287D01*
X88491Y15336D01*
X89214Y15635D01*
X89834Y16111D01*
X90310Y16731D01*
X90609Y17453D01*
X90658Y17828D01*
D02*
G37*
G36*
X68217D02*
X65676D01*
Y15287D01*
X66050Y15336D01*
X66773Y15635D01*
X67393Y16111D01*
X67869Y16731D01*
X68168Y17453D01*
X68217Y17828D01*
D02*
G37*
G36*
X342745D02*
X340203D01*
Y15287D01*
X340578Y15336D01*
X341300Y15635D01*
X341920Y16111D01*
X342396Y16731D01*
X342695Y17453D01*
X342745Y17828D01*
D02*
G37*
G36*
X275422D02*
X272880D01*
Y15287D01*
X273255Y15336D01*
X273977Y15635D01*
X274598Y16111D01*
X275073Y16731D01*
X275372Y17453D01*
X275422Y17828D01*
D02*
G37*
G36*
X157981D02*
X155439D01*
Y15287D01*
X155814Y15336D01*
X156536Y15635D01*
X157157Y16111D01*
X157632Y16731D01*
X157931Y17453D01*
X157981Y17828D01*
D02*
G37*
G36*
X135540D02*
X132998D01*
Y15287D01*
X133373Y15336D01*
X134096Y15635D01*
X134716Y16111D01*
X135191Y16731D01*
X135491Y17453D01*
X135540Y17828D01*
D02*
G37*
G36*
X320304D02*
X317762D01*
Y15287D01*
X318137Y15336D01*
X318859Y15635D01*
X319479Y16111D01*
X319955Y16731D01*
X320254Y17453D01*
X320304Y17828D01*
D02*
G37*
G36*
X180422D02*
X177880D01*
Y15287D01*
X178255Y15336D01*
X178977Y15635D01*
X179597Y16111D01*
X180073Y16731D01*
X180372Y17453D01*
X180422Y17828D01*
D02*
G37*
G36*
X113099D02*
X110557D01*
Y15287D01*
X110932Y15336D01*
X111654Y15635D01*
X112275Y16111D01*
X112750Y16731D01*
X113050Y17453D01*
X113099Y17828D01*
D02*
G37*
G36*
X242126Y26227D02*
X240179Y26074D01*
X238279Y25618D01*
X236475Y24871D01*
X234809Y23850D01*
X233324Y22581D01*
X232055Y21096D01*
X231035Y19431D01*
X230287Y17626D01*
X229831Y15727D01*
X229678Y13780D01*
X229831Y11832D01*
X230287Y9933D01*
X231035Y8128D01*
X232055Y6463D01*
X233324Y4978D01*
X234809Y3709D01*
X236475Y2688D01*
X238279Y1941D01*
X240179Y1485D01*
X242126Y1332D01*
X244073Y1485D01*
X245973Y1941D01*
X247777Y2688D01*
X249443Y3709D01*
X250928Y4978D01*
X252197Y6463D01*
X253217Y8128D01*
X253965Y9933D01*
X254421Y11832D01*
X254574Y13780D01*
X254421Y15727D01*
X253965Y17626D01*
X253217Y19431D01*
X252197Y21096D01*
X250928Y22581D01*
X249443Y23850D01*
X247777Y24871D01*
X245973Y25618D01*
X244073Y26074D01*
X242126Y26227D01*
D02*
G37*
G36*
X13780D02*
X11832Y26074D01*
X9933Y25618D01*
X8128Y24871D01*
X6463Y23850D01*
X4978Y22581D01*
X3709Y21096D01*
X2688Y19431D01*
X1941Y17626D01*
X1485Y15727D01*
X1332Y13780D01*
X1485Y11832D01*
X1941Y9933D01*
X2688Y8128D01*
X3709Y6463D01*
X4978Y4978D01*
X6463Y3709D01*
X8128Y2688D01*
X9933Y1941D01*
X11832Y1485D01*
X13780Y1332D01*
X15727Y1485D01*
X17626Y1941D01*
X19431Y2688D01*
X21096Y3709D01*
X22581Y4978D01*
X23850Y6463D01*
X24871Y8128D01*
X25618Y9933D01*
X26074Y11832D01*
X26227Y13780D01*
X26074Y15727D01*
X25618Y17626D01*
X24871Y19431D01*
X23850Y21096D01*
X22581Y22581D01*
X21096Y23850D01*
X19431Y24871D01*
X17626Y25618D01*
X15727Y26074D01*
X13780Y26227D01*
D02*
G37*
%LPD*%
D15*
X28032Y45217D02*
D03*
Y51319D02*
D03*
X103307Y120098D02*
D03*
Y126201D02*
D03*
X94449D02*
D03*
Y120098D02*
D03*
X52953Y185531D02*
D03*
Y191634D02*
D03*
X42953Y185531D02*
D03*
Y191634D02*
D03*
X112165Y126201D02*
D03*
Y120098D02*
D03*
X121024Y126201D02*
D03*
Y120098D02*
D03*
X129882Y126201D02*
D03*
Y120098D02*
D03*
X138740Y126201D02*
D03*
Y120098D02*
D03*
X147598Y126201D02*
D03*
Y120098D02*
D03*
X156457Y126201D02*
D03*
Y120098D02*
D03*
X165315Y126201D02*
D03*
Y120098D02*
D03*
X174173Y126201D02*
D03*
Y120098D02*
D03*
D16*
X36654Y30158D02*
D03*
X42756D02*
D03*
X51988Y100472D02*
D03*
X45886D02*
D03*
X51968Y106181D02*
D03*
X45866D02*
D03*
X156398Y139252D02*
D03*
X150295D02*
D03*
D17*
X63701Y100472D02*
D03*
X57402D02*
D03*
X63681Y106181D02*
D03*
X57382D02*
D03*
D18*
X53759Y66063D02*
D03*
X47853D02*
D03*
X277638Y127657D02*
D03*
X271732D02*
D03*
X277638Y84153D02*
D03*
X271732D02*
D03*
X130315Y49134D02*
D03*
X136221D02*
D03*
X156496Y145158D02*
D03*
X150591D02*
D03*
D19*
X72066Y83346D02*
D03*
D20*
X47853Y74291D02*
D03*
Y83346D02*
D03*
Y92401D02*
D03*
D21*
X40079D02*
D03*
Y86496D02*
D03*
X199134Y101850D02*
D03*
Y107756D02*
D03*
X212913Y104449D02*
D03*
Y98543D02*
D03*
D22*
X85984Y68661D02*
D03*
X259095Y152166D02*
D03*
X94449Y139528D02*
D03*
X103307Y149409D02*
D03*
X85984Y83346D02*
D03*
X241142Y152166D02*
D03*
X250118D02*
D03*
X134252Y90236D02*
D03*
X125039D02*
D03*
X115827D02*
D03*
X100669Y76457D02*
D03*
D23*
X144016Y84153D02*
D03*
Y79154D02*
D03*
Y74154D02*
D03*
Y69153D02*
D03*
Y64153D02*
D03*
Y59153D02*
D03*
Y54154D02*
D03*
Y49154D02*
D03*
X181417Y84153D02*
D03*
Y79154D02*
D03*
Y74154D02*
D03*
Y69153D02*
D03*
Y64153D02*
D03*
Y59153D02*
D03*
Y54154D02*
D03*
Y49154D02*
D03*
X226535Y127657D02*
D03*
Y122658D02*
D03*
Y117657D02*
D03*
Y112657D02*
D03*
Y107658D02*
D03*
Y102657D02*
D03*
Y97658D02*
D03*
Y92658D02*
D03*
X263937Y127657D02*
D03*
Y122658D02*
D03*
Y117657D02*
D03*
Y112657D02*
D03*
Y107658D02*
D03*
Y102657D02*
D03*
Y97658D02*
D03*
Y92658D02*
D03*
X226535Y84153D02*
D03*
Y79154D02*
D03*
Y74154D02*
D03*
Y69153D02*
D03*
Y64153D02*
D03*
Y59153D02*
D03*
Y54154D02*
D03*
Y49154D02*
D03*
X263937Y84153D02*
D03*
Y79154D02*
D03*
Y74154D02*
D03*
Y69153D02*
D03*
Y64153D02*
D03*
Y59153D02*
D03*
Y54154D02*
D03*
Y49154D02*
D03*
D24*
X201102Y91536D02*
D03*
X199134D02*
D03*
X197165D02*
D03*
X195197D02*
D03*
X193228D02*
D03*
X201102Y74213D02*
D03*
X199134D02*
D03*
X197165D02*
D03*
X195197D02*
D03*
X193228D02*
D03*
X215669Y91536D02*
D03*
X213701D02*
D03*
X211732D02*
D03*
X209764D02*
D03*
X207795D02*
D03*
X215669Y74213D02*
D03*
X213701D02*
D03*
X211732D02*
D03*
X209764D02*
D03*
X207795D02*
D03*
D25*
X116004Y139272D02*
D03*
X144941D02*
D03*
X116004Y162303D02*
D03*
X144941D02*
D03*
D26*
X118957Y139272D02*
D03*
X121516D02*
D03*
X124075D02*
D03*
X126634D02*
D03*
X129193D02*
D03*
X131752D02*
D03*
X134311D02*
D03*
X136870D02*
D03*
X139429D02*
D03*
X141988D02*
D03*
X118957Y162303D02*
D03*
X124075D02*
D03*
X126634D02*
D03*
X129193D02*
D03*
X131752D02*
D03*
X121516D02*
D03*
X134311D02*
D03*
X136870D02*
D03*
X141988D02*
D03*
X139429D02*
D03*
D44*
X27953Y30079D02*
X28032Y30158D01*
X36654D01*
X67402Y139528D02*
X94449D01*
X17992Y165000D02*
X41929D01*
X67402Y139528D01*
X41811Y169921D02*
X62323Y149409D01*
X17992Y169921D02*
X41811D01*
X62323Y149409D02*
X103307D01*
X210118Y131063D02*
X239409Y160354D01*
X248425D02*
X250118Y158661D01*
X239409Y160354D02*
X248425D01*
X197362Y126102D02*
X202323Y131063D01*
X210118D01*
X190020Y126201D02*
X200905Y137087D01*
X212008D02*
X238622Y163701D01*
X200905Y137087D02*
X212008D01*
X238622Y163701D02*
X252795D01*
X259055Y157441D01*
X174173Y126201D02*
X190020D01*
X197362Y121614D02*
Y126102D01*
X200827Y119331D02*
Y125000D01*
X203543Y127717D02*
X210354D01*
X200827Y125000D02*
X203543Y127717D01*
X42756Y30158D02*
X42835Y30079D01*
Y18228D02*
Y30079D01*
X42756Y30158D02*
Y39331D01*
X49803Y46378D02*
X59016D01*
X42756Y39331D02*
X49803Y46378D01*
X59016D02*
X62835Y50197D01*
X109685D01*
X123642Y64153D01*
X144016D01*
X120728Y69153D02*
X144016D01*
X109252Y57677D02*
X120728Y69153D01*
X60748Y57677D02*
X109252D01*
X54390Y51319D02*
X60748Y57677D01*
X28032Y51319D02*
X54390D01*
X28012Y51299D02*
X28032Y51319D01*
X18228Y51299D02*
X28012D01*
X94449Y139528D02*
X100906D01*
X109921Y133465D02*
X117362D01*
X118957Y135059D02*
Y139272D01*
X117362Y133465D02*
X118957Y135059D01*
X107027Y139272D02*
X116004D01*
X103307Y135551D02*
X107027Y139272D01*
X116004D02*
Y146595D01*
X113189Y149409D02*
X116004Y146595D01*
X94449Y126201D02*
Y139528D01*
X103307Y126201D02*
Y135551D01*
Y149409D02*
X113189D01*
X103307Y126201D02*
X106595D01*
X97618D02*
X98622Y125197D01*
X94449Y126201D02*
X97618D01*
X98622Y108071D02*
Y125197D01*
Y108071D02*
X105709Y100984D01*
X52953Y191634D02*
Y201689D01*
X42953Y191634D02*
Y201689D01*
X56319Y191634D02*
X57165Y190787D01*
Y181496D02*
Y190787D01*
X52953Y191634D02*
X56319D01*
X47303D02*
X47992Y190945D01*
X42953Y191634D02*
X47303D01*
X41299Y81732D02*
X41432D01*
X234803Y152165D02*
X241141D01*
X210354Y127717D02*
X234803Y152165D01*
X191732Y110236D02*
X200827Y119331D01*
X187953Y112205D02*
X197362Y121614D01*
X170788Y112205D02*
X187953D01*
X241141Y152165D02*
X241142Y152166D01*
X63701Y100472D02*
X63819Y100354D01*
X108780Y36339D02*
X126594Y54154D01*
X144016D01*
X86181Y36339D02*
X108780D01*
X77874Y28032D02*
X86181Y36339D01*
X77874Y18228D02*
Y28032D01*
X55433Y27087D02*
X72913Y44567D01*
X109803D01*
X124390Y59153D02*
X144016D01*
X109803Y44567D02*
X124390Y59153D01*
X262638Y25512D02*
X278346Y41221D01*
X262638Y18228D02*
Y25512D01*
X278346Y41221D02*
Y59291D01*
X273484Y64153D02*
X278346Y59291D01*
X263937Y64153D02*
X273484D01*
X199134Y96378D02*
X199921Y97165D01*
X202353D01*
X199134Y91536D02*
Y96378D01*
X259055Y152205D02*
Y157441D01*
X250118Y152166D02*
Y158661D01*
X259055Y152205D02*
X259095Y152166D01*
Y145472D02*
Y152166D01*
X250118Y145472D02*
Y152166D01*
X241142Y145472D02*
Y152166D01*
X212874Y98583D02*
X212913Y98543D01*
X206063Y101850D02*
X206457D01*
X195197Y91536D02*
Y100394D01*
Y87638D02*
Y91536D01*
X204646Y87520D02*
Y94764D01*
X197205Y85630D02*
X202756D01*
X204646Y87520D01*
X195197Y87638D02*
X197205Y85630D01*
X205039Y83661D02*
X207795Y86417D01*
X193228Y86024D02*
X195591Y83661D01*
X205039D01*
X205945Y96063D02*
X208661D01*
X204646Y94764D02*
X205945Y96063D01*
X208661D02*
X209764Y94961D01*
X156457Y115748D02*
Y120098D01*
X220236Y88032D02*
Y92520D01*
X218425Y86221D02*
X220236Y88032D01*
X214685Y86221D02*
X218425D01*
X213701Y87205D02*
X214685Y86221D01*
X213701Y87205D02*
Y91536D01*
X197165Y70211D02*
Y74213D01*
X195630Y68676D02*
X197165Y70211D01*
X195630Y68386D02*
Y68676D01*
X201102Y69967D02*
Y74213D01*
Y69967D02*
X202047Y69023D01*
Y68386D02*
Y69023D01*
X207795Y69810D02*
Y74213D01*
X207008Y69023D02*
X207795Y69810D01*
X207008Y68386D02*
Y69023D01*
X211732Y69731D02*
Y74213D01*
X211024Y69023D02*
X211732Y69731D01*
X211024Y68386D02*
Y69023D01*
X215669Y74213D02*
X217126D01*
X220433Y77520D01*
X213701Y69921D02*
X214843Y68779D01*
X218779D02*
X220354Y70354D01*
X214843Y68779D02*
X218779D01*
X213701Y69921D02*
Y74213D01*
X220354Y70354D02*
Y73110D01*
X152205Y114488D02*
Y125433D01*
X158031Y108543D02*
Y108661D01*
X152205Y114488D02*
X158031Y108661D01*
X169173Y113819D02*
Y125849D01*
Y113819D02*
X170788Y112205D01*
X164488Y110236D02*
X191732D01*
X161221Y113504D02*
Y125039D01*
Y113504D02*
X164488Y110236D01*
X226466Y92589D02*
X226535Y92658D01*
X220236Y92520D02*
X220305Y92589D01*
X226506Y97628D02*
X226535Y97658D01*
X220236Y97598D02*
X220266Y97628D01*
X215669Y91536D02*
Y93799D01*
X217008Y95138D01*
Y112953D02*
X221713Y117657D01*
X217008Y95138D02*
Y112953D01*
X149547Y49154D02*
X157598Y57205D01*
Y65630D01*
X144016Y49154D02*
X149547D01*
X185571Y74074D02*
X188189Y71457D01*
X181497Y74074D02*
X185571D01*
X168740Y76772D02*
X189409D01*
X157598Y65630D02*
X168740Y76772D01*
X181417Y74154D02*
X181497Y74074D01*
X191969Y74213D02*
X193228D01*
X189409Y76772D02*
X191969Y74213D01*
X181417Y79154D02*
X185965D01*
X187795Y80984D01*
X187402Y85846D02*
X195197Y78051D01*
X187402Y85846D02*
Y88543D01*
X195197Y74213D02*
Y78051D01*
X190157Y85827D02*
X195276Y80709D01*
X190157Y85827D02*
Y90945D01*
X195276Y80709D02*
X208386D01*
X181102Y94842D02*
X187402Y88543D01*
X208386Y80709D02*
X209764Y79331D01*
X186221Y94882D02*
X190157Y90945D01*
X181417Y84153D02*
Y90158D01*
X50315Y176063D02*
X106299D01*
X47992Y178386D02*
Y190945D01*
Y178386D02*
X50315Y176063D01*
X165315Y120098D02*
X165354Y120059D01*
X209764Y91536D02*
Y94961D01*
X293032Y135827D02*
X305276Y123583D01*
X239055Y131063D02*
X243819Y135827D01*
X293032D01*
X236339Y132087D02*
X242047Y137795D01*
X297913D02*
X306142Y146024D01*
X242047Y137795D02*
X297913D01*
X233386Y134213D02*
X239331Y140157D01*
X292913D02*
X310630Y157874D01*
X239331Y140157D02*
X292913D01*
X226535Y131929D02*
X236732Y142126D01*
X279449D02*
X328228Y190905D01*
X236732Y142126D02*
X279449D01*
X263935Y92655D02*
X263937Y92658D01*
X257645Y92655D02*
X263935D01*
X257642Y92653D02*
X257645Y92655D01*
X263937Y107658D02*
X276594D01*
X319291Y38976D02*
Y64961D01*
X276594Y107658D02*
X319291Y64961D01*
X263937Y112657D02*
X277106D01*
X322047Y57520D02*
Y67716D01*
X277106Y112657D02*
X322047Y67716D01*
X263937Y117657D02*
X278799D01*
X317255Y79201D02*
X327728D01*
X278799Y117657D02*
X317255Y79201D01*
X136221Y49134D02*
X136240Y49154D01*
X136221Y49134D02*
X136221Y49134D01*
X305276Y123583D02*
X328228D01*
X114842Y131299D02*
X117913D01*
X112165Y128622D02*
X114842Y131299D01*
X117913D02*
X121516Y134901D01*
Y139272D01*
X121024Y126201D02*
Y130962D01*
X124075Y134013D01*
Y139272D01*
X126634Y132421D02*
Y139272D01*
Y132421D02*
X129882Y129173D01*
Y126201D02*
Y129173D01*
X129193Y133209D02*
Y139272D01*
Y133209D02*
X136043Y126358D01*
Y126201D02*
Y126358D01*
X139016Y133346D02*
X164331D01*
X165315Y132362D01*
X136870Y135492D02*
X139016Y133346D01*
X135630Y131811D02*
X154961D01*
X134311Y133130D02*
X135630Y131811D01*
X131752Y132854D02*
X134409Y130197D01*
X145788D02*
X147562Y128422D01*
X134409Y130197D02*
X145788D01*
X131752Y132854D02*
Y139272D01*
X134311Y133130D02*
Y139272D01*
X156457Y126201D02*
Y130315D01*
X154961Y131811D02*
X156457Y130315D01*
X165315Y126201D02*
Y132362D01*
X136870Y135492D02*
Y139272D01*
X168622Y134843D02*
X174173Y129291D01*
X139429Y136043D02*
X140630Y134843D01*
X168622D01*
X139429Y136043D02*
Y139272D01*
X174173Y126201D02*
Y129291D01*
X112165Y126201D02*
Y128622D01*
Y126201D02*
X115571D01*
X124727D02*
X125413Y125515D01*
X136043Y126201D02*
X138740D01*
X133366D02*
X134331Y125236D01*
X147562Y126237D02*
Y128422D01*
Y126237D02*
X147598Y126201D01*
X141555D02*
X143071Y124685D01*
X151437Y126201D02*
X152205Y125433D01*
X156457Y126201D02*
X160059D01*
X161221Y125039D01*
X168822Y126201D02*
X169173Y125849D01*
X165315Y126201D02*
X168822D01*
X116575Y107205D02*
Y125197D01*
X125413Y107146D02*
Y125515D01*
X134331Y107559D02*
Y125236D01*
X143071Y111063D02*
Y124685D01*
X106595Y126201D02*
X107717Y125079D01*
X121024Y126201D02*
X124727D01*
X115571D02*
X116575Y125197D01*
X129882Y126201D02*
X133366D01*
X138740D02*
X141555D01*
X147598D02*
X151437D01*
X107717Y105591D02*
Y125079D01*
X140315Y166654D02*
X166850D01*
X197958Y197761D01*
X143071Y111063D02*
X146260Y107874D01*
X110551Y102756D02*
X192835D01*
X195197Y100394D01*
X107717Y105591D02*
X110551Y102756D01*
X137598Y171221D02*
X155590D01*
X177948Y193578D02*
Y207318D01*
X155590Y171221D02*
X177948Y193578D01*
X139016Y168622D02*
X159134D01*
X182953Y192441D01*
Y201689D01*
X105709Y100984D02*
X191142D01*
X193228Y98898D01*
X115827Y89370D02*
Y90236D01*
Y89370D02*
X131043Y74154D01*
X125039Y89370D02*
Y90236D01*
Y89370D02*
X135256Y79154D01*
X134252Y89370D02*
Y90236D01*
Y89370D02*
X139469Y84153D01*
X150295Y139252D02*
Y144862D01*
X150591Y145158D01*
X141988Y139272D02*
X144941D01*
X144961Y139252D02*
X150295D01*
X144941Y139272D02*
X144961Y139252D01*
X274016Y43740D02*
Y55984D01*
X254764Y39843D02*
X270118D01*
X274016Y43740D01*
X263937Y59153D02*
X270847D01*
X274016Y55984D01*
X251299Y43307D02*
Y97244D01*
Y43307D02*
X254764Y39843D01*
X199134Y61378D02*
Y74213D01*
X196909Y59153D02*
X199134Y61378D01*
X181417Y59153D02*
X196909D01*
X115827Y90236D02*
Y96890D01*
X134252Y90236D02*
Y96890D01*
X125039Y90236D02*
Y96890D01*
X59961Y178701D02*
X106850D01*
X57165Y181496D02*
X59961Y178701D01*
X201768Y210504D02*
X202953Y211689D01*
X201768Y207568D02*
Y210504D01*
X197958Y203758D02*
X201768Y207568D01*
X197958Y197761D02*
Y203758D01*
X139429Y165768D02*
X140315Y166654D01*
X139429Y162303D02*
Y165768D01*
X136870Y166476D02*
X139016Y168622D01*
X136870Y162303D02*
Y166476D01*
X134311Y162303D02*
Y167933D01*
X137598Y171221D01*
X138740Y177638D02*
X143268D01*
X131752Y170650D02*
X138740Y177638D01*
X131752Y162303D02*
Y170650D01*
X182319Y211689D02*
X182953D01*
X177948Y207318D02*
X182319Y211689D01*
X143268Y187638D02*
X158902D01*
X172953Y201689D01*
X136732Y195158D02*
X145748D01*
X147948Y197357D02*
Y206333D01*
X145748Y195158D02*
X147948Y197357D01*
X152953Y211339D02*
Y211689D01*
X147948Y206333D02*
X152953Y211339D01*
X129213Y187638D02*
X136732Y195158D01*
X129193Y162303D02*
X129203Y162313D01*
Y177628D01*
X129213Y177638D01*
X112953Y210630D02*
Y211689D01*
X117958Y176727D02*
X126634Y168051D01*
X117958Y176727D02*
Y205625D01*
X112953Y210630D02*
X117958Y205625D01*
X126634Y162303D02*
Y168051D01*
X107958Y183617D02*
Y206684D01*
X102953Y211689D02*
X107958Y206684D01*
Y183617D02*
X124075Y167500D01*
Y162303D02*
Y167500D01*
X102953Y185315D02*
X121516Y166752D01*
X102953Y185315D02*
Y201689D01*
X121516Y162303D02*
Y166752D01*
X106850Y178701D02*
X118957Y166595D01*
Y162303D02*
Y166595D01*
X106299Y176063D02*
X116004Y166358D01*
Y162303D02*
Y166358D01*
X158891Y32047D02*
X158891D01*
X171417Y44573D02*
Y51260D01*
X158891Y32047D02*
X171417Y44573D01*
X145197Y18353D02*
X158891Y32047D01*
X181417Y37047D02*
Y49154D01*
X167638Y23268D02*
X181417Y37047D01*
X167638Y18228D02*
Y23268D01*
X174311Y54154D02*
X181417D01*
X171417Y51260D02*
X174311Y54154D01*
X145197Y18228D02*
Y18353D01*
X122756Y18228D02*
Y18353D01*
X133498Y29094D01*
X149961D02*
X168740Y47874D01*
X133498Y29094D02*
X149961D01*
X168740Y47874D02*
Y60000D01*
X172894Y64153D02*
X181417D01*
X168740Y60000D02*
X172894Y64153D01*
X170295Y69153D02*
X181417D01*
X165394Y64252D02*
X170295Y69153D01*
X144843Y32992D02*
X165394Y53543D01*
Y64252D01*
X114954Y32992D02*
X144843D01*
X100315Y18228D02*
Y18353D01*
X114954Y32992D01*
X131043Y74154D02*
X144016D01*
X135256Y79154D02*
X144016D01*
X139469Y84153D02*
X144016D01*
X143973Y84197D02*
X144016Y84153D01*
X209764Y74213D02*
Y79331D01*
X193228Y91536D02*
Y98898D01*
X213169Y64153D02*
X226535D01*
X190079Y18228D02*
Y41063D01*
X213169Y64153D01*
X193228Y86024D02*
Y91536D01*
X221713Y117657D02*
X226535D01*
X221398Y74154D02*
X226535D01*
X220354Y73110D02*
X221398Y74154D01*
X226535Y69153D02*
X231476D01*
X234882Y65748D01*
Y43347D02*
Y65748D01*
X218504Y34252D02*
X225787D01*
X234882Y43347D01*
X239055Y109685D02*
Y131063D01*
X237028Y107658D02*
X239055Y109685D01*
X236339Y116024D02*
Y132087D01*
X233386Y124016D02*
Y134213D01*
X226535Y127657D02*
Y131929D01*
X328228Y190905D02*
X328228D01*
X310630Y157874D02*
X317638D01*
X306142Y146024D02*
X328228D01*
X232028Y122658D02*
X233386Y124016D01*
X317638Y157874D02*
X328228Y168465D01*
X226535Y122658D02*
X232028D01*
X226535Y112657D02*
X232972D01*
X236339Y116024D01*
X263937Y102657D02*
X263937Y102657D01*
X257638Y102657D02*
X263937D01*
X257638Y102657D02*
X257638Y102657D01*
X226535Y107658D02*
X237028D01*
X263937Y100785D02*
Y102657D01*
X257637Y97657D02*
X257638D01*
X254213Y94232D02*
X257637Y97657D01*
X263585Y100433D02*
X263937Y100785D01*
X254488Y100433D02*
X263585D01*
X251299Y97244D02*
X254488Y100433D01*
X257642Y50665D02*
Y92653D01*
Y50665D02*
X259154Y49154D01*
X257638Y97658D02*
X263937D01*
X254213Y45472D02*
Y94232D01*
X271063Y45197D02*
Y53268D01*
X257244Y42441D02*
X268307D01*
X271063Y45197D01*
X263937Y122658D02*
X283035D01*
X304551Y101142D01*
X323307Y56260D02*
X328228D01*
X327728Y79201D02*
X328228Y78701D01*
X322047Y57520D02*
X323307Y56260D01*
X313386Y35039D02*
Y56772D01*
X263937Y79154D02*
X291004D01*
X313386Y56772D01*
X263937Y74154D02*
X287303D01*
X307520Y18228D02*
Y53937D01*
X287303Y74154D02*
X307520Y53937D01*
X285079Y18228D02*
Y62126D01*
X278051Y69153D02*
X285079Y62126D01*
X263937Y69153D02*
X278051D01*
X254213Y45472D02*
X257244Y42441D01*
X270177Y54154D02*
X271063Y53268D01*
X263937Y54154D02*
X270177D01*
X259154Y49154D02*
X263937D01*
X304551Y101142D02*
X328228D01*
X211732Y97362D02*
X212913Y98543D01*
X211732Y91536D02*
Y97362D01*
X207795Y86417D02*
Y91536D01*
X313386Y35039D02*
X322835Y25591D01*
X322835D01*
X319291Y38976D02*
X324449Y33819D01*
X328228D01*
X329961Y18228D02*
Y18465D01*
X322835Y25591D02*
X329961Y18465D01*
X212520Y18228D02*
Y28268D01*
X218504Y34252D01*
X55433Y18228D02*
Y27087D01*
D45*
X103307Y115748D02*
Y120098D01*
X94449Y115748D02*
Y120098D01*
X66181Y83346D02*
X72066D01*
X77953D01*
X47853D02*
X53740D01*
X43046D02*
X47853D01*
X41432Y81732D02*
X43046Y83346D01*
X100669Y69961D02*
Y76457D01*
Y82953D01*
X35394Y86496D02*
X40079D01*
X191811Y153661D02*
Y174409D01*
X156398Y139252D02*
X168032D01*
X182441Y153661D01*
X191811D01*
Y174409D02*
X197323Y179921D01*
X271260D01*
X85984Y77165D02*
Y83346D01*
Y89528D01*
X212913Y104449D02*
Y109213D01*
X199213Y107756D02*
Y112520D01*
X220305Y92589D02*
X226466D01*
X220266Y97628D02*
X226506D01*
X220236Y102657D02*
X226535D01*
X277638Y84153D02*
X282677D01*
X277638Y127657D02*
X282677D01*
X220079Y49154D02*
X226535D01*
X220079Y54154D02*
X226535D01*
X220079Y59153D02*
X226535D01*
X174173Y115748D02*
Y120098D01*
X165354Y115748D02*
Y120059D01*
X147598Y115748D02*
Y120098D01*
X138740Y115748D02*
Y120098D01*
X129882Y115748D02*
Y120098D01*
X121024Y115748D02*
Y120098D01*
X112165Y115748D02*
Y120098D01*
X292087Y200748D02*
X328228D01*
X271260Y179921D02*
X292087Y200748D01*
X271732Y127657D02*
Y132283D01*
X263937Y127657D02*
X271732D01*
Y84153D02*
Y88583D01*
X263937Y84153D02*
X271732D01*
X136240Y49154D02*
X144016D01*
X136221Y44488D02*
Y49134D01*
D46*
X52953Y181142D02*
Y185531D01*
X42953Y181142D02*
Y185531D01*
X40079Y92401D02*
Y96968D01*
X53759Y66063D02*
X58365D01*
X156496Y145158D02*
X161142D01*
X63819Y100354D02*
X68012D01*
X63681Y106181D02*
X68012D01*
X35394Y86496D02*
Y96969D01*
X38898Y100472D02*
X45886D01*
X35394Y96969D02*
X38898Y100472D01*
X30551Y77874D02*
X37018Y71408D01*
X30551Y77874D02*
Y97323D01*
X39409Y106181D02*
X45866D01*
X30551Y97323D02*
X39409Y106181D01*
X33465Y184252D02*
X56811Y160906D01*
X101496D02*
X104921Y157480D01*
X56811Y160906D02*
X101496D01*
X141988Y162303D02*
X142008Y162284D01*
Y158346D02*
Y162284D01*
X141142Y157480D02*
X142008Y158346D01*
X51968Y106181D02*
X57382D01*
X51988Y100472D02*
X57402D01*
X209724Y98583D02*
X212874D01*
X206457Y101850D02*
X209724Y98583D01*
X199134Y101850D02*
X206063D01*
X104921Y157480D02*
X141142D01*
D47*
X199134Y98661D02*
Y101850D01*
X197165Y96693D02*
X199134Y98661D01*
X197165Y91536D02*
Y96693D01*
D48*
X17992Y179764D02*
D03*
Y169921D02*
D03*
Y165000D02*
D03*
Y160079D02*
D03*
Y174843D02*
D03*
X18228Y56221D02*
D03*
Y51299D02*
D03*
X37913Y18228D02*
D03*
X42835D02*
D03*
X262638D02*
D03*
X267559D02*
D03*
X272480D02*
D03*
X18228Y136496D02*
D03*
Y141417D02*
D03*
Y146339D02*
D03*
Y114055D02*
D03*
Y118976D02*
D03*
Y123898D02*
D03*
Y91614D02*
D03*
Y96535D02*
D03*
Y101457D02*
D03*
Y69173D02*
D03*
Y74094D02*
D03*
Y79016D02*
D03*
X65276Y18228D02*
D03*
X60354D02*
D03*
X55433D02*
D03*
X87717D02*
D03*
X82795D02*
D03*
X77874D02*
D03*
X110158D02*
D03*
X105236D02*
D03*
X100315D02*
D03*
X132598D02*
D03*
X127677D02*
D03*
X122756D02*
D03*
X155039D02*
D03*
X150118D02*
D03*
X145197D02*
D03*
X177480D02*
D03*
X172559D02*
D03*
X167638D02*
D03*
X199921Y18228D02*
D03*
X195000D02*
D03*
X190079D02*
D03*
X222362D02*
D03*
X217441D02*
D03*
X212520D02*
D03*
X294921Y18228D02*
D03*
X290000D02*
D03*
X285079D02*
D03*
X317362D02*
D03*
X312441D02*
D03*
X307520D02*
D03*
X339803D02*
D03*
X334882D02*
D03*
X329961D02*
D03*
X328228Y43661D02*
D03*
Y38740D02*
D03*
Y33819D02*
D03*
X328228Y66102D02*
D03*
Y61181D02*
D03*
Y56260D02*
D03*
Y88583D02*
D03*
Y83661D02*
D03*
Y78740D02*
D03*
Y110984D02*
D03*
Y106063D02*
D03*
Y101142D02*
D03*
Y133425D02*
D03*
Y128504D02*
D03*
Y123583D02*
D03*
Y155866D02*
D03*
Y150945D02*
D03*
Y146024D02*
D03*
X328228Y178307D02*
D03*
Y173386D02*
D03*
Y168465D02*
D03*
Y200748D02*
D03*
Y195827D02*
D03*
Y190905D02*
D03*
D49*
X242126Y206693D02*
D03*
Y13780D02*
D03*
X13780D02*
D03*
Y206693D02*
D03*
D50*
X143268Y187638D02*
D03*
Y177638D02*
D03*
X129213Y187638D02*
D03*
Y177638D02*
D03*
D51*
X142953Y201689D02*
D03*
X132953D02*
D03*
X122953D02*
D03*
X112953D02*
D03*
X102953D02*
D03*
X92953D02*
D03*
X82953D02*
D03*
X72953D02*
D03*
X222953D02*
D03*
X212953D02*
D03*
X202953D02*
D03*
X192953D02*
D03*
X182953D02*
D03*
X172953D02*
D03*
X162953D02*
D03*
X152953D02*
D03*
X62953D02*
D03*
X52953D02*
D03*
X42953D02*
D03*
X142953Y211689D02*
D03*
X132953D02*
D03*
X122953D02*
D03*
X112953D02*
D03*
X102953D02*
D03*
X92953D02*
D03*
X82953D02*
D03*
X72953D02*
D03*
X222953D02*
D03*
X212953D02*
D03*
X202953D02*
D03*
X192953D02*
D03*
X182953D02*
D03*
X172953D02*
D03*
X162953D02*
D03*
X152953D02*
D03*
X62953D02*
D03*
X52953D02*
D03*
X42953D02*
D03*
X32953D02*
D03*
D52*
Y201689D02*
D03*
D53*
X100906Y139528D02*
D03*
X109921Y133465D02*
D03*
X103307Y115748D02*
D03*
X42953Y181142D02*
D03*
X53740Y83346D02*
D03*
X41299Y81732D02*
D03*
X77953Y83346D02*
D03*
X66181D02*
D03*
X161142Y145158D02*
D03*
X100669Y69961D02*
D03*
Y82953D02*
D03*
X68012Y100354D02*
D03*
Y106181D02*
D03*
X40079Y96968D02*
D03*
X53759Y92401D02*
D03*
X58365Y66063D02*
D03*
X35394Y86496D02*
D03*
X85984Y89528D02*
D03*
Y77165D02*
D03*
X259095Y145472D02*
D03*
X202353Y97165D02*
D03*
X191811Y153661D02*
D03*
X199213Y112520D02*
D03*
X212913Y109213D02*
D03*
X211024Y68386D02*
D03*
X207008D02*
D03*
X202047D02*
D03*
X195630D02*
D03*
X220433Y77520D02*
D03*
X220236Y92520D02*
D03*
Y97598D02*
D03*
Y102657D02*
D03*
X188189Y71457D02*
D03*
X187795Y80984D02*
D03*
X181417Y90158D02*
D03*
X186221Y94882D02*
D03*
X181102Y94842D02*
D03*
X282677Y84153D02*
D03*
Y127657D02*
D03*
X220079Y49154D02*
D03*
Y54154D02*
D03*
Y59153D02*
D03*
X33465Y184252D02*
D03*
X94449Y115748D02*
D03*
X112165D02*
D03*
X121024D02*
D03*
X129882D02*
D03*
X138740D02*
D03*
X147598D02*
D03*
X156457D02*
D03*
X165354D02*
D03*
X174173D02*
D03*
X206063Y101850D02*
D03*
X271732Y132283D02*
D03*
Y88583D02*
D03*
X136221Y44488D02*
D03*
X52953Y181142D02*
D03*
X146260Y107874D02*
D03*
X158031Y108543D02*
D03*
X134331Y107559D02*
D03*
X125413Y107146D02*
D03*
X116575Y107205D02*
D03*
X115827Y96890D02*
D03*
X125039D02*
D03*
X134252D02*
D03*
X250118Y145472D02*
D03*
X241142D02*
D03*
X257638Y102657D02*
D03*
Y97657D02*
D03*
X257642Y92653D02*
D03*
M02*
