G04*
G04 #@! TF.GenerationSoftware,Altium Limited,Altium Designer,22.2.1 (43)*
G04*
G04 Layer_Color=8421504*
%FSLAX25Y25*%
%MOIN*%
G70*
G04*
G04 #@! TF.SameCoordinates,97A6E9F3-C8AE-4924-B40C-96554566FD82*
G04*
G04*
G04 #@! TF.FilePolarity,Positive*
G04*
G01*
G75*
%ADD15R,0.03543X0.03347*%
%ADD16R,0.03347X0.03543*%
%ADD17R,0.03150X0.03150*%
%ADD18R,0.04134X0.03937*%
%ADD19R,0.07284X0.12598*%
%ADD20R,0.07284X0.03937*%
%ADD21R,0.03937X0.04134*%
%ADD22C,0.07874*%
%ADD23O,0.07480X0.02362*%
%ADD24O,0.01181X0.05709*%
%ADD25R,0.02362X0.05315*%
%ADD26R,0.01575X0.05315*%
D15*
X28032Y45217D02*
D03*
Y51319D02*
D03*
X103307Y120098D02*
D03*
Y126201D02*
D03*
X94449D02*
D03*
Y120098D02*
D03*
X52953Y185531D02*
D03*
Y191634D02*
D03*
X42953Y185531D02*
D03*
Y191634D02*
D03*
X112165Y126201D02*
D03*
Y120098D02*
D03*
X121024Y126201D02*
D03*
Y120098D02*
D03*
X129882Y126201D02*
D03*
Y120098D02*
D03*
X138740Y126201D02*
D03*
Y120098D02*
D03*
X147598Y126201D02*
D03*
Y120098D02*
D03*
X156457Y126201D02*
D03*
Y120098D02*
D03*
X165315Y126201D02*
D03*
Y120098D02*
D03*
X174173Y126201D02*
D03*
Y120098D02*
D03*
D16*
X36654Y30158D02*
D03*
X42756D02*
D03*
X51988Y100472D02*
D03*
X45886D02*
D03*
X51968Y106181D02*
D03*
X45866D02*
D03*
X156398Y139252D02*
D03*
X150295D02*
D03*
D17*
X63701Y100472D02*
D03*
X57402D02*
D03*
X63681Y106181D02*
D03*
X57382D02*
D03*
D18*
X53759Y66063D02*
D03*
X47853D02*
D03*
X277638Y127657D02*
D03*
X271732D02*
D03*
X277638Y84153D02*
D03*
X271732D02*
D03*
X130315Y49134D02*
D03*
X136221D02*
D03*
X156496Y145158D02*
D03*
X150591D02*
D03*
D19*
X72066Y83346D02*
D03*
D20*
X47853Y74291D02*
D03*
Y83346D02*
D03*
Y92401D02*
D03*
D21*
X40079D02*
D03*
Y86496D02*
D03*
X199134Y101850D02*
D03*
Y107756D02*
D03*
X212913Y104449D02*
D03*
Y98543D02*
D03*
D22*
X85984Y68661D02*
D03*
X259095Y152166D02*
D03*
X94449Y139528D02*
D03*
X103307Y149409D02*
D03*
X85984Y83346D02*
D03*
X241142Y152166D02*
D03*
X250118D02*
D03*
X134252Y90236D02*
D03*
X125039D02*
D03*
X115827D02*
D03*
X100669Y76457D02*
D03*
D23*
X144016Y84153D02*
D03*
Y79154D02*
D03*
Y74154D02*
D03*
Y69153D02*
D03*
Y64153D02*
D03*
Y59153D02*
D03*
Y54154D02*
D03*
Y49154D02*
D03*
X181417Y84153D02*
D03*
Y79154D02*
D03*
Y74154D02*
D03*
Y69153D02*
D03*
Y64153D02*
D03*
Y59153D02*
D03*
Y54154D02*
D03*
Y49154D02*
D03*
X226535Y127657D02*
D03*
Y122658D02*
D03*
Y117657D02*
D03*
Y112657D02*
D03*
Y107658D02*
D03*
Y102657D02*
D03*
Y97658D02*
D03*
Y92658D02*
D03*
X263937Y127657D02*
D03*
Y122658D02*
D03*
Y117657D02*
D03*
Y112657D02*
D03*
Y107658D02*
D03*
Y102657D02*
D03*
Y97658D02*
D03*
Y92658D02*
D03*
X226535Y84153D02*
D03*
Y79154D02*
D03*
Y74154D02*
D03*
Y69153D02*
D03*
Y64153D02*
D03*
Y59153D02*
D03*
Y54154D02*
D03*
Y49154D02*
D03*
X263937Y84153D02*
D03*
Y79154D02*
D03*
Y74154D02*
D03*
Y69153D02*
D03*
Y64153D02*
D03*
Y59153D02*
D03*
Y54154D02*
D03*
Y49154D02*
D03*
D24*
X201102Y91536D02*
D03*
X199134D02*
D03*
X197165D02*
D03*
X195197D02*
D03*
X193228D02*
D03*
X201102Y74213D02*
D03*
X199134D02*
D03*
X197165D02*
D03*
X195197D02*
D03*
X193228D02*
D03*
X215669Y91536D02*
D03*
X213701D02*
D03*
X211732D02*
D03*
X209764D02*
D03*
X207795D02*
D03*
X215669Y74213D02*
D03*
X213701D02*
D03*
X211732D02*
D03*
X209764D02*
D03*
X207795D02*
D03*
D25*
X116004Y139272D02*
D03*
X144941D02*
D03*
X116004Y162303D02*
D03*
X144941D02*
D03*
D26*
X118957Y139272D02*
D03*
X121516D02*
D03*
X124075D02*
D03*
X126634D02*
D03*
X129193D02*
D03*
X131752D02*
D03*
X134311D02*
D03*
X136870D02*
D03*
X139429D02*
D03*
X141988D02*
D03*
X118957Y162303D02*
D03*
X124075D02*
D03*
X126634D02*
D03*
X129193D02*
D03*
X131752D02*
D03*
X121516D02*
D03*
X134311D02*
D03*
X136870D02*
D03*
X141988D02*
D03*
X139429D02*
D03*
M02*
