G04*
G04 #@! TF.GenerationSoftware,Altium Limited,Altium Designer,20.2.6 (244)*
G04*
G04 Layer_Color=32896*
%FSLAX25Y25*%
%MOIN*%
G70*
G04*
G04 #@! TF.SameCoordinates,16103AC2-7A70-4061-B61C-7C21802C26CC*
G04*
G04*
G04 #@! TF.FilePolarity,Positive*
G04*
G01*
G75*
%ADD14C,0.00620*%
G36*
X289695Y188695D02*
X289754Y188688D01*
X289819D01*
X289892Y188673D01*
X290060Y188651D01*
X290235Y188608D01*
X290417Y188557D01*
X290592Y188484D01*
X290599D01*
X290614Y188476D01*
X290636Y188462D01*
X290672Y188447D01*
X290709Y188425D01*
X290753Y188396D01*
X290862Y188323D01*
X290986Y188236D01*
X291124Y188126D01*
X291255Y187995D01*
X291387Y187842D01*
X291409D01*
X291241Y188542D01*
X293413D01*
X294857Y182768D01*
X292706D01*
X291744Y186581D01*
Y186588D01*
X291737Y186595D01*
X291729Y186639D01*
X291707Y186697D01*
X291678Y186770D01*
X291642Y186858D01*
X291591Y186938D01*
X291532Y187018D01*
X291460Y187091D01*
X291452Y187099D01*
X291423Y187120D01*
X291379Y187142D01*
X291321Y187179D01*
X291248Y187208D01*
X291161Y187230D01*
X291059Y187252D01*
X290949Y187259D01*
X290898D01*
X290847Y187252D01*
X290782Y187237D01*
X290709Y187215D01*
X290636Y187186D01*
X290578Y187150D01*
X290527Y187091D01*
X290519Y187084D01*
X290512Y187062D01*
X290497Y187018D01*
X290483Y186967D01*
X290475Y186894D01*
Y186800D01*
X290490Y186697D01*
X290519Y186574D01*
X291467Y182768D01*
X289316Y182768D01*
X288361Y186581D01*
Y186588D01*
X288354Y186595D01*
X288347Y186639D01*
X288325Y186697D01*
X288288Y186770D01*
X288252Y186858D01*
X288201Y186938D01*
X288143Y187018D01*
X288070Y187091D01*
X288062Y187099D01*
X288033Y187120D01*
X287990Y187142D01*
X287924Y187179D01*
X287851Y187208D01*
X287756Y187230D01*
X287654Y187252D01*
X287538Y187259D01*
X287487D01*
X287436Y187252D01*
X287370Y187237D01*
X287297Y187215D01*
X287231Y187186D01*
X287166Y187150D01*
X287122Y187091D01*
X287115Y187084D01*
X287107Y187062D01*
X287093Y187018D01*
X287078Y186967D01*
X287071Y186894D01*
Y186807D01*
X287078Y186705D01*
X287107Y186581D01*
X288062Y182768D01*
X287056D01*
X287020Y182775D01*
X286976D01*
X286925Y182783D01*
X286801Y182805D01*
X286663Y182841D01*
X286502Y182892D01*
X286342Y182965D01*
X286182Y183067D01*
X286174Y183074D01*
X286160Y183082D01*
X286145Y183096D01*
X286116Y183118D01*
X286043Y183184D01*
X285956Y183271D01*
X285861Y183381D01*
X285773Y183512D01*
X285700Y183658D01*
X285642Y183818D01*
X284811Y187120D01*
Y187128D01*
X284804Y187142D01*
Y187164D01*
X284797Y187200D01*
X284782Y187281D01*
X284760Y187390D01*
X284746Y187514D01*
X284738Y187638D01*
Y187769D01*
X284753Y187893D01*
Y187900D01*
Y187908D01*
X284760Y187944D01*
X284782Y188002D01*
X284804Y188075D01*
X284833Y188148D01*
X284877Y188228D01*
X284935Y188309D01*
X285001Y188382D01*
X285008Y188389D01*
X285037Y188411D01*
X285088Y188440D01*
X285146Y188476D01*
X285219Y188513D01*
X285314Y188557D01*
X285409Y188593D01*
X285518Y188622D01*
X285533Y188629D01*
X285569Y188637D01*
X285628Y188651D01*
X285708Y188666D01*
X285810Y188680D01*
X285927Y188688D01*
X286050Y188702D01*
X286284D01*
X286349Y188695D01*
X286430Y188688D01*
X286517Y188680D01*
X286699Y188651D01*
X286706D01*
X286743Y188644D01*
X286794Y188629D01*
X286852Y188615D01*
X286932Y188593D01*
X287013Y188564D01*
X287195Y188498D01*
X287210Y188491D01*
X287239Y188484D01*
X287290Y188462D01*
X287355Y188433D01*
X287428Y188389D01*
X287508Y188345D01*
X287596Y188294D01*
X287683Y188228D01*
X287691Y188221D01*
X287720Y188199D01*
X287764Y188163D01*
X287822Y188112D01*
X287888Y188046D01*
X287953Y187973D01*
X288026Y187893D01*
X288099Y187806D01*
Y187813D01*
X288106Y187842D01*
X288121Y187886D01*
X288135Y187937D01*
X288157Y188002D01*
X288186Y188068D01*
X288252Y188199D01*
X288259Y188207D01*
X288267Y188228D01*
X288288Y188258D01*
X288318Y188301D01*
X288354Y188345D01*
X288405Y188389D01*
X288456Y188440D01*
X288514Y188484D01*
X288522Y188491D01*
X288544Y188498D01*
X288580Y188520D01*
X288631Y188542D01*
X288697Y188571D01*
X288770Y188600D01*
X288850Y188622D01*
X288945Y188644D01*
X288959D01*
X288988Y188651D01*
X289039Y188666D01*
X289112Y188673D01*
X289200Y188688D01*
X289302Y188695D01*
X289418Y188702D01*
X289644D01*
X289695Y188695D01*
D02*
G37*
G36*
X301112Y184168D02*
Y184161D01*
X301119Y184146D01*
Y184124D01*
X301126Y184095D01*
X301141Y184008D01*
X301163Y183905D01*
X301177Y183782D01*
X301185Y183658D01*
Y183534D01*
X301170Y183410D01*
Y183395D01*
X301155Y183359D01*
X301141Y183308D01*
X301112Y183235D01*
X301075Y183162D01*
X301031Y183089D01*
X300966Y183016D01*
X300893Y182950D01*
X300886Y182943D01*
X300856Y182921D01*
X300813Y182892D01*
X300762Y182856D01*
X300689Y182812D01*
X300608Y182768D01*
X300514Y182732D01*
X300412Y182695D01*
X300397D01*
X300361Y182681D01*
X300302Y182674D01*
X300222Y182659D01*
X300127Y182644D01*
X300011Y182630D01*
X299887Y182622D01*
X299646D01*
X299603Y182630D01*
X299537Y182637D01*
X299471D01*
X299398Y182652D01*
X299238Y182674D01*
X299063Y182710D01*
X298888Y182761D01*
X298713Y182834D01*
X298706D01*
X298691Y182841D01*
X298669Y182856D01*
X298633Y182870D01*
X298597Y182892D01*
X298553Y182921D01*
X298443Y182987D01*
X298320Y183074D01*
X298188Y183184D01*
X298057Y183308D01*
X297926Y183454D01*
X297897D01*
X298064Y182761D01*
X295921D01*
X294478Y188542D01*
X296628D01*
X297590Y184722D01*
Y184715D01*
X297598Y184707D01*
X297605Y184664D01*
X297627Y184605D01*
X297656Y184532D01*
X297700Y184445D01*
X297751Y184357D01*
X297809Y184277D01*
X297882Y184204D01*
X297889Y184197D01*
X297919Y184175D01*
X297962Y184146D01*
X298021Y184117D01*
X298094Y184088D01*
X298181Y184059D01*
X298283Y184037D01*
X298400Y184029D01*
X298451D01*
X298502Y184037D01*
X298560Y184051D01*
X298633Y184073D01*
X298699Y184102D01*
X298757Y184146D01*
X298808Y184204D01*
X298815Y184212D01*
X298822Y184241D01*
X298837Y184277D01*
X298844Y184336D01*
X298859Y184408D01*
Y184496D01*
X298844Y184598D01*
X298822Y184722D01*
X297867Y188542D01*
X300018D01*
X301112Y184168D01*
D02*
G37*
G36*
X313716Y190379D02*
X313796D01*
X313898Y190364D01*
X314015Y190350D01*
X314146Y190328D01*
X314285Y190299D01*
X314423Y190262D01*
X314430D01*
X314438Y190255D01*
X314459Y190248D01*
X314481Y190241D01*
X314554Y190219D01*
X314642Y190182D01*
X314751Y190138D01*
X314868Y190080D01*
X314984Y190022D01*
X315108Y189949D01*
X315123Y189942D01*
X315159Y189912D01*
X315218Y189869D01*
X315298Y189818D01*
X315385Y189745D01*
X315480Y189665D01*
X315582Y189577D01*
X315684Y189475D01*
X315699Y189460D01*
X315728Y189431D01*
X315772Y189373D01*
X315837Y189300D01*
X315903Y189213D01*
X315983Y189103D01*
X316063Y188994D01*
X316136Y188870D01*
X319409Y182761D01*
X316931Y182768D01*
X316348Y184088D01*
X314496D01*
X314569Y182761D01*
X312083D01*
X312367Y190386D01*
X313687D01*
X313716Y190379D01*
D02*
G37*
G36*
X311631Y182761D02*
X309473D01*
X307563Y190386D01*
X309714D01*
X311631Y182761D01*
D02*
G37*
G36*
X304596D02*
X302446D01*
X300995Y188542D01*
X303153D01*
X304596Y182761D01*
D02*
G37*
G36*
X308095Y184161D02*
Y184153D01*
X308103Y184139D01*
Y184117D01*
X308110Y184080D01*
X308132Y184000D01*
X308146Y183891D01*
X308168Y183767D01*
X308183Y183643D01*
X308190Y183512D01*
X308183Y183395D01*
Y183381D01*
X308176Y183344D01*
X308161Y183293D01*
X308139Y183228D01*
X308110Y183162D01*
X308066Y183089D01*
X308015Y183023D01*
X307950Y182965D01*
X307942Y182958D01*
X307913Y182943D01*
X307877Y182921D01*
X307818Y182892D01*
X307745Y182863D01*
X307658Y182826D01*
X307556Y182797D01*
X307439Y182768D01*
X307425D01*
X307381Y182761D01*
X307308Y182746D01*
X307213Y182739D01*
X307089Y182724D01*
X306951Y182717D01*
X306790Y182710D01*
X306433D01*
X306346Y182717D01*
X306134D01*
X306025Y182724D01*
X305974D01*
X305908Y182732D01*
X305828D01*
X305733Y182739D01*
X305631Y182746D01*
X305515Y182754D01*
X305391Y182761D01*
X305070Y184044D01*
X305522D01*
X305580Y184051D01*
X305646Y184066D01*
X305712Y184080D01*
X305763Y184110D01*
X305814Y184146D01*
X305821Y184153D01*
X305828Y184168D01*
X305843Y184197D01*
X305857Y184233D01*
X305872Y184284D01*
Y184343D01*
Y184416D01*
X305857Y184496D01*
X305172Y187244D01*
X304268D01*
X303947Y188542D01*
X304851D01*
X304385Y190306D01*
X306543D01*
X308095Y184161D01*
D02*
G37*
G36*
X282872Y196713D02*
X282187D01*
Y198287D01*
X280350D01*
Y196713D01*
X279679D01*
Y200431D01*
X280350D01*
Y198885D01*
X282187D01*
Y200431D01*
X282872D01*
Y196713D01*
D02*
G37*
G36*
X274853D02*
X274182D01*
Y199468D01*
X272214Y196713D01*
X271543D01*
Y200431D01*
X272199D01*
Y197719D01*
X274153Y200431D01*
X274853D01*
Y196713D01*
D02*
G37*
G36*
X291970Y196713D02*
X291328D01*
Y199308D01*
X290308Y196713D01*
X289725D01*
X288704Y199308D01*
Y196713D01*
X288077D01*
Y200431D01*
X288762D01*
X290002Y197617D01*
X291241Y200431D01*
X291970D01*
Y196713D01*
D02*
G37*
G36*
X263728Y196713D02*
X263087D01*
Y199308D01*
X262066Y196713D01*
X261483D01*
X260477Y199308D01*
Y196713D01*
X259836D01*
Y200431D01*
X260521D01*
X261760Y197617D01*
X263014Y200431D01*
X263728D01*
Y196713D01*
D02*
G37*
G36*
X302424Y199833D02*
X301359D01*
Y196713D01*
X300689D01*
Y199833D01*
X299610D01*
Y200431D01*
X302424D01*
Y199833D01*
D02*
G37*
G36*
X299216Y196713D02*
X296650D01*
Y197310D01*
X298546D01*
Y198287D01*
X296781D01*
Y198900D01*
X298546D01*
Y199833D01*
X296679D01*
Y200431D01*
X299216D01*
Y196713D01*
D02*
G37*
G36*
X296329D02*
X295644D01*
X294405Y199716D01*
X293822Y198317D01*
X294580D01*
X294813Y197719D01*
X293574D01*
X293151Y196713D01*
X292407D01*
X294026Y200431D01*
X294769D01*
X296329Y196713D01*
D02*
G37*
G36*
X286123Y196713D02*
X285438D01*
Y199804D01*
X284505D01*
X284345Y199789D01*
X284243Y199745D01*
X284170Y199702D01*
X284155Y199687D01*
X284082Y199585D01*
X284053Y199483D01*
X284038Y199396D01*
Y199366D01*
Y199352D01*
X284053Y199250D01*
X284082Y199162D01*
X284155Y199016D01*
X284213Y198958D01*
X284243Y198914D01*
X284272Y198900D01*
X284286Y198885D01*
X284388Y198827D01*
X284490Y198768D01*
X284724Y198681D01*
X284826Y198652D01*
X284913Y198623D01*
X284971Y198608D01*
X284986D01*
X284884Y198010D01*
X284607Y198054D01*
X284374Y198127D01*
X284170Y198200D01*
X284009Y198273D01*
X283878Y198346D01*
X283790Y198404D01*
X283732Y198448D01*
X283718Y198462D01*
X283586Y198608D01*
X283484Y198754D01*
X283426Y198914D01*
X283368Y199060D01*
X283338Y199177D01*
X283324Y199293D01*
Y199352D01*
Y199381D01*
X283338Y199570D01*
X283368Y199731D01*
X283411Y199862D01*
X283470Y199979D01*
X283528Y200052D01*
X283572Y200125D01*
X283601Y200154D01*
X283615Y200168D01*
X283732Y200256D01*
X283863Y200314D01*
X284009Y200372D01*
X284140Y200401D01*
X284272Y200416D01*
X284374Y200431D01*
X286123D01*
Y196713D01*
D02*
G37*
G36*
X279212D02*
X278513D01*
X277288Y199716D01*
X276705Y198317D01*
X277448D01*
X277696Y197719D01*
X276457D01*
X276034Y196713D01*
X275290D01*
X276909Y200431D01*
X277652D01*
X279212Y196713D01*
D02*
G37*
G36*
X271150Y199833D02*
X270085D01*
Y196713D01*
X269386D01*
Y199833D01*
X268336D01*
Y200431D01*
X271150D01*
Y199833D01*
D02*
G37*
G36*
X266528Y200431D02*
X266819Y200372D01*
X267053Y200299D01*
X267257Y200212D01*
X267403Y200110D01*
X267519Y200037D01*
X267578Y199979D01*
X267607Y199964D01*
X267767Y199775D01*
X267869Y199556D01*
X267957Y199323D01*
X268015Y199089D01*
X268044Y198885D01*
X268059Y198725D01*
X268073Y198652D01*
Y198608D01*
Y198579D01*
Y198564D01*
X268044Y198229D01*
X267986Y197952D01*
X267898Y197704D01*
X267811Y197515D01*
X267723Y197354D01*
X267651Y197238D01*
X267592Y197179D01*
X267578Y197150D01*
X267373Y196990D01*
X267155Y196888D01*
X266936Y196800D01*
X266717Y196742D01*
X266513Y196713D01*
X266353Y196698D01*
X266295Y196684D01*
X266207D01*
X265886Y196698D01*
X265609Y196756D01*
X265376Y196829D01*
X265186Y196917D01*
X265026Y197004D01*
X264924Y197077D01*
X264851Y197136D01*
X264837Y197150D01*
X264676Y197354D01*
X264560Y197573D01*
X264487Y197806D01*
X264428Y198039D01*
X264399Y198244D01*
X264370Y198419D01*
Y198477D01*
Y198521D01*
Y198550D01*
Y198564D01*
X264385Y198900D01*
X264443Y199177D01*
X264516Y199425D01*
X264603Y199614D01*
X264691Y199775D01*
X264764Y199877D01*
X264822Y199950D01*
X264837Y199964D01*
X265026Y200125D01*
X265245Y200241D01*
X265478Y200329D01*
X265697Y200387D01*
X265901Y200416D01*
X266061Y200445D01*
X266207D01*
X266528Y200431D01*
D02*
G37*
G36*
X313053Y206117D02*
X313432Y206073D01*
X313767Y206015D01*
X313913Y205986D01*
X314044Y205957D01*
X314161Y205927D01*
X314263Y205898D01*
X314350Y205884D01*
X314408Y205869D01*
X314438Y205854D01*
X314452D01*
X314846Y205723D01*
X315210Y205563D01*
X315560Y205402D01*
X315852Y205242D01*
X315983Y205169D01*
X316114Y205096D01*
X316216Y205023D01*
X316304Y204980D01*
X316362Y204921D01*
X316421Y204892D01*
X316450Y204878D01*
X316464Y204863D01*
X316800Y204615D01*
X317120Y204338D01*
X317397Y204076D01*
X317645Y203828D01*
X317835Y203594D01*
X317922Y203507D01*
X317981Y203420D01*
X318039Y203347D01*
X318083Y203303D01*
X318097Y203274D01*
X318112Y203259D01*
X318345Y202895D01*
X318564Y202530D01*
X318724Y202180D01*
X318870Y201859D01*
X318928Y201714D01*
X318987Y201583D01*
X319016Y201466D01*
X319059Y201378D01*
X319089Y201291D01*
X319103Y201233D01*
X319118Y201203D01*
Y201189D01*
X319220Y200781D01*
X319293Y200372D01*
X319351Y199993D01*
X319380Y199658D01*
X319395Y199512D01*
Y199366D01*
X319409Y199250D01*
Y199148D01*
Y199075D01*
Y199002D01*
Y198973D01*
Y198958D01*
X319380Y198535D01*
X319322Y198142D01*
X319249Y197777D01*
X319176Y197442D01*
X319132Y197296D01*
X319103Y197165D01*
X319059Y197048D01*
X319030Y196961D01*
X319001Y196873D01*
X318987Y196815D01*
X318972Y196786D01*
Y196771D01*
X318812Y196377D01*
X318622Y195998D01*
X318433Y195663D01*
X318243Y195371D01*
X318156Y195240D01*
X318083Y195124D01*
X318010Y195021D01*
X317937Y194934D01*
X317893Y194861D01*
X317849Y194817D01*
X317835Y194788D01*
X317820Y194774D01*
Y194788D01*
X317572Y194963D01*
X317820Y195299D01*
X318054Y195634D01*
X318243Y195955D01*
X318389Y196246D01*
X318520Y196494D01*
X318564Y196611D01*
X318607Y196698D01*
X318637Y196771D01*
X318666Y196829D01*
X318681Y196859D01*
Y196873D01*
X318812Y197267D01*
X318899Y197631D01*
X318987Y197996D01*
X319030Y198317D01*
X319059Y198448D01*
X319074Y198579D01*
Y198696D01*
X319089Y198798D01*
X319103Y198871D01*
Y198929D01*
Y198958D01*
Y198973D01*
Y199366D01*
X319074Y199760D01*
X319030Y200110D01*
X318972Y200431D01*
X318943Y200576D01*
X318928Y200708D01*
X318899Y200824D01*
X318870Y200912D01*
X318855Y200999D01*
X318841Y201058D01*
X318826Y201087D01*
Y201101D01*
X318695Y201495D01*
X318535Y201859D01*
X318374Y202195D01*
X318214Y202486D01*
X318141Y202618D01*
X318068Y202734D01*
X318010Y202822D01*
X317951Y202909D01*
X317908Y202982D01*
X317879Y203026D01*
X317849Y203055D01*
Y203070D01*
X317587Y203405D01*
X317324Y203697D01*
X317062Y203974D01*
X316814Y204192D01*
X316610Y204382D01*
X316435Y204513D01*
X316377Y204571D01*
X316333Y204601D01*
X316304Y204630D01*
X316289D01*
X315939Y204848D01*
X315604Y205038D01*
X315283Y205198D01*
X314992Y205329D01*
X314729Y205432D01*
X314627Y205475D01*
X314540Y205504D01*
X314467Y205534D01*
X314408Y205548D01*
X314379Y205563D01*
X314365D01*
X313971Y205665D01*
X313592Y205738D01*
X313242Y205782D01*
X312907Y205811D01*
X312761D01*
X312630Y205825D01*
X312236D01*
X311828Y205796D01*
X311434Y205752D01*
X311070Y205679D01*
X310749Y205592D01*
X310603Y205563D01*
X310472Y205519D01*
X310355Y205490D01*
X310268Y205446D01*
X310180Y205432D01*
X310122Y205402D01*
X310093Y205388D01*
X310078D01*
X309976Y205665D01*
X310384Y205811D01*
X310793Y205927D01*
X311172Y206015D01*
X311507Y206073D01*
X311667Y206088D01*
X311799Y206117D01*
X311930D01*
X312032Y206131D01*
X312105Y206146D01*
X312644D01*
X313053Y206117D01*
D02*
G37*
G36*
X307498Y203580D02*
X307221Y203245D01*
X306987Y202909D01*
X306783Y202589D01*
X306623Y202297D01*
X306492Y202034D01*
X306433Y201932D01*
X306389Y201830D01*
X306360Y201757D01*
X306331Y201699D01*
X306317Y201670D01*
Y201655D01*
X306171Y201262D01*
X306069Y200883D01*
X305981Y200518D01*
X305923Y200197D01*
X305908Y200052D01*
X305879Y199920D01*
Y199804D01*
X305865Y199716D01*
X305850Y199629D01*
Y199570D01*
Y199541D01*
Y199527D01*
Y199118D01*
X305865Y198739D01*
X305908Y198375D01*
X305952Y198039D01*
X305981Y197894D01*
X306010Y197763D01*
X306025Y197646D01*
X306054Y197558D01*
X306069Y197471D01*
X306083Y197413D01*
X306098Y197383D01*
Y197369D01*
X306229Y196975D01*
X306389Y196596D01*
X306550Y196246D01*
X306710Y195940D01*
X306783Y195809D01*
X306856Y195692D01*
X306929Y195590D01*
X306973Y195503D01*
X307031Y195430D01*
X307060Y195386D01*
X307075Y195357D01*
X307089Y195342D01*
X307352Y194992D01*
X307629Y194686D01*
X307891Y194424D01*
X308154Y194190D01*
X308372Y194001D01*
X308460Y193928D01*
X308533Y193870D01*
X308606Y193811D01*
X308649Y193782D01*
X308679Y193768D01*
X308693Y193753D01*
X309043Y193534D01*
X309393Y193345D01*
X309728Y193184D01*
X310034Y193053D01*
X310297Y192951D01*
X310399Y192907D01*
X310501Y192878D01*
X310574Y192849D01*
X310632Y192834D01*
X310662Y192820D01*
X310676D01*
X311070Y192732D01*
X311463Y192659D01*
X311828Y192616D01*
X312149Y192601D01*
X312309Y192587D01*
X312848D01*
X313257Y192630D01*
X313650Y192689D01*
X314029Y192776D01*
X314350Y192864D01*
X314511Y192907D01*
X314642Y192951D01*
X314744Y192995D01*
X314846Y193024D01*
X314933Y193053D01*
X314992Y193082D01*
X315021Y193097D01*
X315035D01*
X315152Y192820D01*
X314686Y192645D01*
X314467Y192572D01*
X314263Y192514D01*
X314088Y192470D01*
X313956Y192441D01*
X313869Y192412D01*
X313840D01*
X313577Y192368D01*
X313344Y192339D01*
X313111Y192310D01*
X312907Y192295D01*
X312732D01*
X312601Y192280D01*
X312484D01*
X312134Y192295D01*
X311974D01*
X311842Y192310D01*
X311726Y192324D01*
X311624D01*
X311565Y192339D01*
X311551D01*
X311215Y192397D01*
X311055Y192426D01*
X310909Y192455D01*
X310793Y192485D01*
X310705Y192514D01*
X310647Y192528D01*
X310632D01*
X310209Y192659D01*
X309816Y192820D01*
X309466Y192980D01*
X309145Y193141D01*
X309014Y193214D01*
X308883Y193287D01*
X308781Y193345D01*
X308693Y193403D01*
X308620Y193461D01*
X308562Y193491D01*
X308533Y193505D01*
X308518Y193520D01*
X308168Y193782D01*
X307847Y194059D01*
X307556Y194336D01*
X307323Y194599D01*
X307119Y194817D01*
X307046Y194919D01*
X306973Y194992D01*
X306929Y195065D01*
X306885Y195109D01*
X306871Y195138D01*
X306856Y195153D01*
X306608Y195517D01*
X306404Y195882D01*
X306215Y196246D01*
X306069Y196567D01*
X306010Y196713D01*
X305967Y196844D01*
X305923Y196961D01*
X305879Y197063D01*
X305850Y197136D01*
X305836Y197208D01*
X305821Y197238D01*
Y197252D01*
X305719Y197675D01*
X305631Y198098D01*
X305588Y198492D01*
X305558Y198841D01*
X305544Y199002D01*
Y199148D01*
Y199279D01*
Y199381D01*
Y199468D01*
Y199527D01*
Y199570D01*
Y199585D01*
X305588Y200022D01*
X305661Y200431D01*
X305733Y200810D01*
X305821Y201145D01*
X305865Y201291D01*
X305908Y201422D01*
X305952Y201539D01*
X305981Y201641D01*
X306010Y201728D01*
X306040Y201787D01*
X306054Y201816D01*
Y201830D01*
X306229Y202224D01*
X306433Y202603D01*
X306623Y202924D01*
X306827Y203215D01*
X306914Y203347D01*
X307002Y203449D01*
X307075Y203551D01*
X307133Y203638D01*
X307191Y203697D01*
X307235Y203740D01*
X307250Y203769D01*
X307264Y203784D01*
X307498Y203580D01*
D02*
G37*
G36*
X306521Y206525D02*
X306987Y206146D01*
X307410Y205796D01*
X307614Y205636D01*
X307804Y205475D01*
X307964Y205344D01*
X308124Y205213D01*
X308256Y205111D01*
X308372Y205009D01*
X308460Y204936D01*
X308533Y204878D01*
X308576Y204848D01*
X308591Y204834D01*
X309058Y204455D01*
X309524Y204076D01*
X309962Y203726D01*
X310151Y203551D01*
X310341Y203405D01*
X310516Y203259D01*
X310676Y203142D01*
X310807Y203026D01*
X310924Y202924D01*
X311011Y202851D01*
X311084Y202793D01*
X311128Y202764D01*
X311143Y202749D01*
X311609Y202370D01*
X312076Y201991D01*
X312513Y201641D01*
X312703Y201480D01*
X312892Y201320D01*
X313067Y201189D01*
X313228Y201058D01*
X313359Y200956D01*
X313475Y200853D01*
X313563Y200781D01*
X313636Y200722D01*
X313680Y200693D01*
X313694Y200678D01*
X314175Y200285D01*
X314627Y199906D01*
X315065Y199556D01*
X315269Y199396D01*
X315458Y199235D01*
X315619Y199089D01*
X315779Y198973D01*
X315925Y198856D01*
X316041Y198754D01*
X316129Y198681D01*
X316202Y198623D01*
X316246Y198594D01*
X316260Y198579D01*
X315998Y198492D01*
X315735Y198404D01*
X315502Y198317D01*
X315298Y198244D01*
X315108Y198185D01*
X314977Y198142D01*
X314890Y198112D01*
X314875Y198098D01*
X314861D01*
X314598Y198010D01*
X314350Y197938D01*
X314117Y197850D01*
X313898Y197777D01*
X313723Y197719D01*
X313577Y197675D01*
X313490Y197646D01*
X313475Y197631D01*
X313461D01*
X313738Y197340D01*
X314000Y197048D01*
X314248Y196771D01*
X314481Y196538D01*
X314656Y196334D01*
X314802Y196173D01*
X314861Y196115D01*
X314904Y196071D01*
X314919Y196057D01*
X314933Y196042D01*
X315210Y195750D01*
X315473Y195459D01*
X315735Y195182D01*
X315954Y194949D01*
X316143Y194745D01*
X316289Y194584D01*
X316348Y194526D01*
X316391Y194482D01*
X316406Y194467D01*
X316421Y194453D01*
X316698Y194161D01*
X316960Y193884D01*
X317208Y193622D01*
X317427Y193388D01*
X317616Y193184D01*
X317747Y193024D01*
X317806Y192966D01*
X317849Y192922D01*
X317864Y192907D01*
X317879Y192893D01*
X318156Y192601D01*
X318418Y192324D01*
X318666Y192062D01*
X318885Y191829D01*
X319074Y191624D01*
X319205Y191464D01*
X319264Y191406D01*
X319307Y191362D01*
X319322Y191347D01*
X319337Y191333D01*
Y191318D01*
Y191304D01*
X319322Y191274D01*
X319307Y191260D01*
X318797Y191639D01*
X318316Y192003D01*
X317849Y192353D01*
X317631Y192514D01*
X317441Y192659D01*
X317252Y192805D01*
X317091Y192922D01*
X316945Y193039D01*
X316814Y193126D01*
X316712Y193199D01*
X316639Y193257D01*
X316596Y193287D01*
X316581Y193301D01*
X316071Y193680D01*
X315575Y194045D01*
X315108Y194395D01*
X314904Y194555D01*
X314700Y194701D01*
X314525Y194846D01*
X314350Y194963D01*
X314204Y195080D01*
X314088Y195167D01*
X313986Y195240D01*
X313913Y195299D01*
X313869Y195328D01*
X313855Y195342D01*
X313344Y195736D01*
X312848Y196100D01*
X312382Y196450D01*
X312163Y196611D01*
X311974Y196771D01*
X311784Y196902D01*
X311624Y197034D01*
X311478Y197136D01*
X311347Y197238D01*
X311245Y197310D01*
X311172Y197369D01*
X311128Y197398D01*
X311113Y197413D01*
X310603Y197806D01*
X310107Y198185D01*
X309641Y198535D01*
X309422Y198696D01*
X309218Y198841D01*
X309029Y198987D01*
X308868Y199104D01*
X308722Y199221D01*
X308591Y199308D01*
X308489Y199381D01*
X308416Y199439D01*
X308372Y199468D01*
X308358Y199483D01*
X308679Y199570D01*
X308985Y199658D01*
X309276Y199731D01*
X309539Y199804D01*
X309757Y199847D01*
X309845Y199877D01*
X309918Y199891D01*
X309976Y199920D01*
X310020D01*
X310049Y199935D01*
X310064D01*
X310384Y200022D01*
X310691Y200110D01*
X310968Y200183D01*
X311230Y200256D01*
X311449Y200314D01*
X311536Y200343D01*
X311609Y200358D01*
X311667Y200372D01*
X311711Y200387D01*
X311740Y200401D01*
X311755D01*
X311478Y200708D01*
X311215Y200985D01*
X310982Y201262D01*
X310764Y201510D01*
X310574Y201714D01*
X310428Y201874D01*
X310384Y201932D01*
X310341Y201976D01*
X310326Y201991D01*
X310312Y202005D01*
X310034Y202311D01*
X309772Y202603D01*
X309539Y202880D01*
X309320Y203128D01*
X309131Y203332D01*
X308985Y203492D01*
X308941Y203551D01*
X308897Y203594D01*
X308883Y203609D01*
X308868Y203624D01*
X308606Y203930D01*
X308343Y204207D01*
X308095Y204484D01*
X307891Y204732D01*
X307702Y204936D01*
X307556Y205096D01*
X307512Y205155D01*
X307468Y205198D01*
X307454Y205213D01*
X307439Y205227D01*
X307177Y205534D01*
X306914Y205811D01*
X306681Y206088D01*
X306462Y206321D01*
X306287Y206525D01*
X306142Y206685D01*
X306098Y206744D01*
X306054Y206787D01*
X306040Y206802D01*
X306025Y206817D01*
Y206846D01*
X306040Y206860D01*
Y206890D01*
X306054Y206904D01*
X306521Y206525D01*
D02*
G37*
%LPC*%
G36*
X314234Y188724D02*
X314416Y185546D01*
X315706D01*
X314234Y188724D01*
D02*
G37*
G36*
X266309Y199862D02*
X266207D01*
X266018Y199847D01*
X265843Y199804D01*
X265697Y199760D01*
X265580Y199702D01*
X265493Y199629D01*
X265434Y199585D01*
X265390Y199541D01*
X265376Y199527D01*
X265274Y199396D01*
X265201Y199250D01*
X265157Y199089D01*
X265113Y198929D01*
X265099Y198798D01*
X265084Y198681D01*
Y198608D01*
Y198594D01*
Y198579D01*
X265099Y198360D01*
X265128Y198156D01*
X265172Y197996D01*
X265230Y197865D01*
X265288Y197748D01*
X265332Y197675D01*
X265361Y197631D01*
X265376Y197617D01*
X265493Y197515D01*
X265624Y197427D01*
X265755Y197369D01*
X265901Y197340D01*
X266018Y197310D01*
X266120Y197296D01*
X266207D01*
X266411Y197310D01*
X266586Y197340D01*
X266746Y197398D01*
X266863Y197456D01*
X266965Y197515D01*
X267023Y197573D01*
X267067Y197602D01*
X267082Y197617D01*
X267169Y197748D01*
X267242Y197908D01*
X267286Y198069D01*
X267330Y198214D01*
X267344Y198360D01*
X267359Y198477D01*
Y198550D01*
Y198579D01*
X267344Y198798D01*
X267315Y198987D01*
X267271Y199148D01*
X267213Y199293D01*
X267169Y199396D01*
X267126Y199468D01*
X267096Y199512D01*
X267082Y199527D01*
X266965Y199643D01*
X266819Y199716D01*
X266674Y199775D01*
X266528Y199818D01*
X266411Y199847D01*
X266309Y199862D01*
D02*
G37*
%LPD*%
D14*
X45010Y11888D02*
X41791Y13114D01*
X45010Y14341D01*
X43937Y13881D02*
Y12348D01*
X41791Y10217D02*
X41944Y10523D01*
X42250Y10830D01*
X42557Y10983D01*
X43017Y11137D01*
X43784D01*
X44243Y10983D01*
X44550Y10830D01*
X44857Y10523D01*
X45010Y10217D01*
Y9604D01*
X44857Y9297D01*
X44550Y8990D01*
X44243Y8837D01*
X43784Y8684D01*
X43017D01*
X42557Y8837D01*
X42250Y8990D01*
X41944Y9297D01*
X41791Y9604D01*
Y10217D01*
Y7933D02*
X44090D01*
X44550Y7779D01*
X44857Y7473D01*
X45010Y7013D01*
Y6706D01*
X44857Y6246D01*
X44550Y5940D01*
X44090Y5786D01*
X41791D01*
Y3824D02*
X45010D01*
X41791Y4897D02*
Y2751D01*
X30741Y170564D02*
X31047Y170871D01*
X31507Y171024D01*
X32120D01*
X32580Y170871D01*
X32887Y170564D01*
Y170258D01*
X32734Y169951D01*
X32580Y169798D01*
X32274Y169645D01*
X31354Y169338D01*
X31047Y169185D01*
X30894Y169031D01*
X30741Y168725D01*
Y168265D01*
X31047Y167958D01*
X31507Y167805D01*
X32120D01*
X32580Y167958D01*
X32887Y168265D01*
X27721Y170258D02*
X27874Y170564D01*
X28181Y170871D01*
X28487Y171024D01*
X29100D01*
X29407Y170871D01*
X29714Y170564D01*
X29867Y170258D01*
X30020Y169798D01*
Y169031D01*
X29867Y168571D01*
X29714Y168265D01*
X29407Y167958D01*
X29100Y167805D01*
X28487D01*
X28181Y167958D01*
X27874Y168265D01*
X27721Y168571D01*
X26816Y171024D02*
Y167805D01*
X24977D01*
X28312Y181792D02*
X29845D01*
X29998Y180412D01*
X29845Y180566D01*
X29385Y180719D01*
X28925D01*
X28465Y180566D01*
X28158Y180259D01*
X28005Y179799D01*
Y179492D01*
X28158Y179033D01*
X28465Y178726D01*
X28925Y178573D01*
X29385D01*
X29845Y178726D01*
X29998Y178879D01*
X30151Y179186D01*
X27285Y181792D02*
X26058Y178573D01*
X24832Y181792D02*
X26058Y178573D01*
X341894Y31683D02*
X343121Y34902D01*
X344347Y31683D01*
X343887Y32756D02*
X342354D01*
X340223Y34902D02*
X340530Y34749D01*
X340836Y34442D01*
X340990Y34136D01*
X341143Y33676D01*
Y32909D01*
X340990Y32449D01*
X340836Y32143D01*
X340530Y31836D01*
X340223Y31683D01*
X339610D01*
X339303Y31836D01*
X338997Y32143D01*
X338843Y32449D01*
X338690Y32909D01*
Y33676D01*
X338843Y34136D01*
X338997Y34442D01*
X339303Y34749D01*
X339610Y34902D01*
X340223D01*
X337939D02*
Y32603D01*
X337786Y32143D01*
X337479Y31836D01*
X337019Y31683D01*
X336713D01*
X336253Y31836D01*
X335946Y32143D01*
X335793Y32603D01*
Y34902D01*
X333830D02*
Y31683D01*
X334904Y34902D02*
X332757D01*
X11415Y50659D02*
X12642Y53879D01*
X13868Y50659D01*
X13408Y51732D02*
X11875D01*
X9744Y53879D02*
X10051Y53725D01*
X10358Y53419D01*
X10511Y53112D01*
X10664Y52652D01*
Y51886D01*
X10511Y51426D01*
X10358Y51119D01*
X10051Y50813D01*
X9744Y50659D01*
X9131D01*
X8825Y50813D01*
X8518Y51119D01*
X8365Y51426D01*
X8211Y51886D01*
Y52652D01*
X8365Y53112D01*
X8518Y53419D01*
X8825Y53725D01*
X9131Y53879D01*
X9744D01*
X7460D02*
Y51579D01*
X7307Y51119D01*
X7000Y50813D01*
X6540Y50659D01*
X6234D01*
X5774Y50813D01*
X5467Y51119D01*
X5314Y51579D01*
Y53879D01*
X3352D02*
Y50659D01*
X4425Y53879D02*
X2279D01*
X14498Y148603D02*
Y145384D01*
Y148603D02*
X13425D01*
X12965Y148450D01*
X12659Y148143D01*
X12505Y147837D01*
X12352Y147377D01*
Y146610D01*
X12505Y146150D01*
X12659Y145844D01*
X12965Y145537D01*
X13425Y145384D01*
X14498D01*
X10712Y148603D02*
X11018Y148450D01*
X11325Y148143D01*
X11478Y147837D01*
X11631Y147377D01*
Y146610D01*
X11478Y146150D01*
X11325Y145844D01*
X11018Y145537D01*
X10712Y145384D01*
X10098D01*
X9792Y145537D01*
X9485Y145844D01*
X9332Y146150D01*
X9179Y146610D01*
Y147377D01*
X9332Y147837D01*
X9485Y148143D01*
X9792Y148450D01*
X10098Y148603D01*
X10712D01*
X8427D02*
Y146304D01*
X8274Y145844D01*
X7967Y145537D01*
X7508Y145384D01*
X7201D01*
X6741Y145537D01*
X6435Y145844D01*
X6281Y146304D01*
Y148603D01*
X4319D02*
Y145384D01*
X5392Y148603D02*
X3246D01*
X210029Y5586D02*
X213249Y4360D01*
X210029Y3133D01*
X211103Y3593D02*
Y5126D01*
X213249Y7257D02*
X213095Y6950D01*
X212789Y6644D01*
X212482Y6491D01*
X212022Y6337D01*
X211256D01*
X210796Y6491D01*
X210489Y6644D01*
X210183Y6950D01*
X210029Y7257D01*
Y7870D01*
X210183Y8177D01*
X210489Y8484D01*
X210796Y8637D01*
X211256Y8790D01*
X212022D01*
X212482Y8637D01*
X212789Y8484D01*
X213095Y8177D01*
X213249Y7870D01*
Y7257D01*
Y9541D02*
X210949D01*
X210489Y9695D01*
X210183Y10001D01*
X210029Y10461D01*
Y10768D01*
X210183Y11228D01*
X210489Y11534D01*
X210949Y11688D01*
X213249D01*
Y13650D02*
X210029D01*
X213249Y12577D02*
Y14723D01*
X327825Y5665D02*
X331044Y4439D01*
X327825Y3212D01*
X328898Y3672D02*
Y5205D01*
X331044Y7336D02*
X330891Y7029D01*
X330584Y6723D01*
X330277Y6569D01*
X329818Y6416D01*
X329051D01*
X328591Y6569D01*
X328285Y6723D01*
X327978Y7029D01*
X327825Y7336D01*
Y7949D01*
X327978Y8256D01*
X328285Y8562D01*
X328591Y8716D01*
X329051Y8869D01*
X329818D01*
X330277Y8716D01*
X330584Y8562D01*
X330891Y8256D01*
X331044Y7949D01*
Y7336D01*
Y9620D02*
X328745D01*
X328285Y9773D01*
X327978Y10080D01*
X327825Y10540D01*
Y10847D01*
X327978Y11306D01*
X328285Y11613D01*
X328745Y11766D01*
X331044D01*
Y13728D02*
X327825D01*
X331044Y12655D02*
Y14802D01*
X37242Y12041D02*
X36936Y12194D01*
X36629Y12501D01*
X36476Y12808D01*
Y13421D01*
X36629Y13727D01*
X36936Y14034D01*
X37242Y14187D01*
X37702Y14341D01*
X38469D01*
X38928Y14187D01*
X39235Y14034D01*
X39542Y13727D01*
X39695Y13421D01*
Y12808D01*
X39542Y12501D01*
X39235Y12194D01*
X38928Y12041D01*
X38469D01*
Y12808D02*
Y12041D01*
X36476Y11305D02*
X39695D01*
X36476D02*
X39695Y9159D01*
X36476D02*
X39695D01*
X36476Y8270D02*
X39695D01*
X36476D02*
Y7197D01*
X36629Y6737D01*
X36936Y6430D01*
X37242Y6277D01*
X37702Y6124D01*
X38469D01*
X38928Y6277D01*
X39235Y6430D01*
X39542Y6737D01*
X39695Y7197D01*
Y8270D01*
X37884Y194562D02*
X36427D01*
X35941Y194723D01*
X35780Y194885D01*
X35618Y195209D01*
Y195695D01*
X35780Y196018D01*
X35941Y196180D01*
X36427Y196342D01*
X37884D01*
Y192943D01*
X34533Y196342D02*
X34371Y196180D01*
X34209Y196342D01*
X34371Y196504D01*
X34533Y196342D01*
X34371Y195209D02*
Y192943D01*
X33611Y195209D02*
Y192943D01*
Y194562D02*
X33125Y195047D01*
X32801Y195209D01*
X32316D01*
X31992Y195047D01*
X31830Y194562D01*
Y192943D01*
X28269Y195695D02*
X27945Y195856D01*
X27459Y196342D01*
Y192943D01*
X174516Y179252D02*
X175742Y182471D01*
X176969Y179252D01*
X176509Y180325D02*
X174976D01*
X173765Y182471D02*
Y179252D01*
Y182471D02*
X172691D01*
X172231Y182318D01*
X171925Y182011D01*
X171772Y181705D01*
X171618Y181245D01*
Y180478D01*
X171772Y180018D01*
X171925Y179712D01*
X172231Y179405D01*
X172691Y179252D01*
X173765D01*
X168598Y181705D02*
X168752Y182011D01*
X169058Y182318D01*
X169365Y182471D01*
X169978D01*
X170285Y182318D01*
X170591Y182011D01*
X170745Y181705D01*
X170898Y181245D01*
Y180478D01*
X170745Y180018D01*
X170591Y179712D01*
X170285Y179405D01*
X169978Y179252D01*
X169365D01*
X169058Y179405D01*
X168752Y179712D01*
X168598Y180018D01*
X167694Y181858D02*
X167387Y182011D01*
X166927Y182471D01*
Y179252D01*
X165333Y178179D02*
X162880D01*
X161547Y182471D02*
X161853Y182318D01*
X162160Y182011D01*
X162313Y181705D01*
X162466Y181245D01*
Y180478D01*
X162313Y180018D01*
X162160Y179712D01*
X161853Y179405D01*
X161547Y179252D01*
X160933D01*
X160627Y179405D01*
X160320Y179712D01*
X160167Y180018D01*
X160013Y180478D01*
Y181245D01*
X160167Y181705D01*
X160320Y182011D01*
X160627Y182318D01*
X160933Y182471D01*
X161547D01*
X159262D02*
Y180172D01*
X159109Y179712D01*
X158802Y179405D01*
X158343Y179252D01*
X158036D01*
X157576Y179405D01*
X157269Y179712D01*
X157116Y180172D01*
Y182471D01*
X155154D02*
Y179252D01*
X156227Y182471D02*
X154081D01*
X119122Y179252D02*
X120348Y182471D01*
X121575Y179252D01*
X121115Y180325D02*
X119582D01*
X118371Y182471D02*
Y179252D01*
Y182471D02*
X117298D01*
X116838Y182318D01*
X116531Y182011D01*
X116378Y181705D01*
X116225Y181245D01*
Y180478D01*
X116378Y180018D01*
X116531Y179712D01*
X116838Y179405D01*
X117298Y179252D01*
X118371D01*
X113205Y181705D02*
X113358Y182011D01*
X113664Y182318D01*
X113971Y182471D01*
X114584D01*
X114891Y182318D01*
X115198Y182011D01*
X115351Y181705D01*
X115504Y181245D01*
Y180478D01*
X115351Y180018D01*
X115198Y179712D01*
X114891Y179405D01*
X114584Y179252D01*
X113971D01*
X113664Y179405D01*
X113358Y179712D01*
X113205Y180018D01*
X112147Y181705D02*
Y181858D01*
X111994Y182165D01*
X111840Y182318D01*
X111534Y182471D01*
X110920D01*
X110614Y182318D01*
X110460Y182165D01*
X110307Y181858D01*
Y181552D01*
X110460Y181245D01*
X110767Y180785D01*
X112300Y179252D01*
X110154D01*
X109433Y178179D02*
X106981D01*
X105647Y182471D02*
X105954Y182318D01*
X106260Y182011D01*
X106413Y181705D01*
X106567Y181245D01*
Y180478D01*
X106413Y180018D01*
X106260Y179712D01*
X105954Y179405D01*
X105647Y179252D01*
X105034D01*
X104727Y179405D01*
X104420Y179712D01*
X104267Y180018D01*
X104114Y180478D01*
Y181245D01*
X104267Y181705D01*
X104420Y182011D01*
X104727Y182318D01*
X105034Y182471D01*
X105647D01*
X103363D02*
Y180172D01*
X103209Y179712D01*
X102903Y179405D01*
X102443Y179252D01*
X102136D01*
X101676Y179405D01*
X101370Y179712D01*
X101216Y180172D01*
Y182471D01*
X99254D02*
Y179252D01*
X100327Y182471D02*
X98181D01*
X11569Y58427D02*
X11722Y58734D01*
X12029Y59040D01*
X12335Y59194D01*
X12948D01*
X13255Y59040D01*
X13562Y58734D01*
X13715Y58427D01*
X13868Y57967D01*
Y57201D01*
X13715Y56741D01*
X13562Y56434D01*
X13255Y56128D01*
X12948Y55974D01*
X12335D01*
X12029Y56128D01*
X11722Y56434D01*
X11569Y56741D01*
Y57201D01*
X12335D02*
X11569D01*
X10833Y59194D02*
Y55974D01*
Y59194D02*
X8687Y55974D01*
Y59194D02*
Y55974D01*
X7797Y59194D02*
Y55974D01*
Y59194D02*
X6724D01*
X6265Y59040D01*
X5958Y58734D01*
X5805Y58427D01*
X5651Y57967D01*
Y57201D01*
X5805Y56741D01*
X5958Y56434D01*
X6265Y56128D01*
X6724Y55974D01*
X7797D01*
X224194Y11593D02*
Y10060D01*
X222814Y9907D01*
X222967Y10060D01*
X223120Y10520D01*
Y10980D01*
X222967Y11440D01*
X222661Y11747D01*
X222201Y11900D01*
X221894D01*
X221434Y11747D01*
X221128Y11440D01*
X220974Y10980D01*
Y10520D01*
X221128Y10060D01*
X221281Y9907D01*
X221587Y9754D01*
X224194Y12621D02*
X220974Y13847D01*
X224194Y15073D02*
X220974Y13847D01*
X217955Y8994D02*
X218261Y8841D01*
X218568Y8534D01*
X218721Y8228D01*
Y7614D01*
X218568Y7308D01*
X218261Y7001D01*
X217955Y6848D01*
X217495Y6695D01*
X216728D01*
X216268Y6848D01*
X215962Y7001D01*
X215655Y7308D01*
X215502Y7614D01*
Y8228D01*
X215655Y8534D01*
X215962Y8841D01*
X216268Y8994D01*
X216728D01*
Y8228D02*
Y8994D01*
X218721Y9730D02*
X215502D01*
X218721D02*
X215502Y11876D01*
X218721D02*
X215502D01*
X218721Y12765D02*
X215502D01*
X218721D02*
Y13838D01*
X218568Y14298D01*
X218261Y14605D01*
X217955Y14758D01*
X217495Y14911D01*
X216728D01*
X216268Y14758D01*
X215962Y14605D01*
X215655Y14298D01*
X215502Y13838D01*
Y12765D01*
X341989Y11672D02*
Y10139D01*
X340609Y9986D01*
X340762Y10139D01*
X340916Y10599D01*
Y11059D01*
X340762Y11519D01*
X340456Y11825D01*
X339996Y11979D01*
X339689D01*
X339229Y11825D01*
X338923Y11519D01*
X338770Y11059D01*
Y10599D01*
X338923Y10139D01*
X339076Y9986D01*
X339383Y9833D01*
X341989Y12699D02*
X338770Y13926D01*
X341989Y15152D02*
X338770Y13926D01*
X335750Y9073D02*
X336057Y8919D01*
X336363Y8613D01*
X336516Y8306D01*
Y7693D01*
X336363Y7386D01*
X336057Y7080D01*
X335750Y6927D01*
X335290Y6773D01*
X334524D01*
X334064Y6927D01*
X333757Y7080D01*
X333451Y7386D01*
X333297Y7693D01*
Y8306D01*
X333451Y8613D01*
X333757Y8919D01*
X334064Y9073D01*
X334524D01*
Y8306D02*
Y9073D01*
X336516Y9809D02*
X333297D01*
X336516D02*
X333297Y11955D01*
X336516D02*
X333297D01*
X336516Y12844D02*
X333297D01*
X336516D02*
Y13917D01*
X336363Y14377D01*
X336057Y14683D01*
X335750Y14837D01*
X335290Y14990D01*
X334524D01*
X334064Y14837D01*
X333757Y14683D01*
X333451Y14377D01*
X333297Y13917D01*
Y12844D01*
X338486Y39608D02*
X338640Y39915D01*
X338946Y40221D01*
X339253Y40375D01*
X339866D01*
X340173Y40221D01*
X340479Y39915D01*
X340633Y39608D01*
X340786Y39148D01*
Y38382D01*
X340633Y37922D01*
X340479Y37615D01*
X340173Y37309D01*
X339866Y37155D01*
X339253D01*
X338946Y37309D01*
X338640Y37615D01*
X338486Y37922D01*
Y38382D01*
X339253D02*
X338486D01*
X337751Y40375D02*
Y37155D01*
Y40375D02*
X335604Y37155D01*
Y40375D02*
Y37155D01*
X334715Y40375D02*
Y37155D01*
Y40375D02*
X333642D01*
X333182Y40221D01*
X332875Y39915D01*
X332722Y39608D01*
X332569Y39148D01*
Y38382D01*
X332722Y37922D01*
X332875Y37615D01*
X333182Y37309D01*
X333642Y37155D01*
X334715D01*
X335887Y45847D02*
X337420D01*
X337573Y44467D01*
X337420Y44621D01*
X336960Y44774D01*
X336500D01*
X336040Y44621D01*
X335734Y44314D01*
X335580Y43854D01*
Y43548D01*
X335734Y43088D01*
X336040Y42781D01*
X336500Y42628D01*
X336960D01*
X337420Y42781D01*
X337573Y42935D01*
X337726Y43241D01*
X334860Y45847D02*
X333633Y42628D01*
X332407Y45847D02*
X333633Y42628D01*
X42316Y75781D02*
Y72561D01*
Y75781D02*
X41243D01*
X40783Y75627D01*
X40477Y75321D01*
X40323Y75014D01*
X40170Y74554D01*
Y73788D01*
X40323Y73328D01*
X40477Y73021D01*
X40783Y72715D01*
X41243Y72561D01*
X42316D01*
X38530Y75781D02*
X38836Y75627D01*
X39143Y75321D01*
X39296Y75014D01*
X39449Y74554D01*
Y73788D01*
X39296Y73328D01*
X39143Y73021D01*
X38836Y72715D01*
X38530Y72561D01*
X37916D01*
X37610Y72715D01*
X37303Y73021D01*
X37150Y73328D01*
X36997Y73788D01*
Y74554D01*
X37150Y75014D01*
X37303Y75321D01*
X37610Y75627D01*
X37916Y75781D01*
X38530D01*
X36245D02*
Y73481D01*
X36092Y73021D01*
X35785Y72715D01*
X35326Y72561D01*
X35019D01*
X34559Y72715D01*
X34253Y73021D01*
X34099Y73481D01*
Y75781D01*
X32137D02*
Y72561D01*
X33210Y75781D02*
X31064D01*
X30681Y75167D02*
X30374Y75321D01*
X29914Y75781D01*
Y72561D01*
X42333Y98497D02*
Y95278D01*
Y98497D02*
X41260D01*
X40800Y98344D01*
X40493Y98037D01*
X40340Y97731D01*
X40187Y97271D01*
Y96504D01*
X40340Y96044D01*
X40493Y95738D01*
X40800Y95431D01*
X41260Y95278D01*
X42333D01*
X38546Y98497D02*
X38853Y98344D01*
X39159Y98037D01*
X39313Y97731D01*
X39466Y97271D01*
Y96504D01*
X39313Y96044D01*
X39159Y95738D01*
X38853Y95431D01*
X38546Y95278D01*
X37933D01*
X37626Y95431D01*
X37320Y95738D01*
X37167Y96044D01*
X37013Y96504D01*
Y97271D01*
X37167Y97731D01*
X37320Y98037D01*
X37626Y98344D01*
X37933Y98497D01*
X38546D01*
X36262D02*
Y96198D01*
X36109Y95738D01*
X35802Y95431D01*
X35342Y95278D01*
X35036D01*
X34576Y95431D01*
X34269Y95738D01*
X34116Y96198D01*
Y98497D01*
X32154D02*
Y95278D01*
X33227Y98497D02*
X31080D01*
X30544Y97731D02*
Y97884D01*
X30391Y98190D01*
X30237Y98344D01*
X29931Y98497D01*
X29318D01*
X29011Y98344D01*
X28858Y98190D01*
X28704Y97884D01*
Y97577D01*
X28858Y97271D01*
X29164Y96811D01*
X30697Y95278D01*
X28551D01*
X42294Y120938D02*
Y117719D01*
Y120938D02*
X41221D01*
X40761Y120785D01*
X40454Y120478D01*
X40301Y120172D01*
X40148Y119712D01*
Y118945D01*
X40301Y118485D01*
X40454Y118179D01*
X40761Y117872D01*
X41221Y117719D01*
X42294D01*
X38507Y120938D02*
X38814Y120785D01*
X39121Y120478D01*
X39274Y120172D01*
X39427Y119712D01*
Y118945D01*
X39274Y118485D01*
X39121Y118179D01*
X38814Y117872D01*
X38507Y117719D01*
X37894D01*
X37588Y117872D01*
X37281Y118179D01*
X37128Y118485D01*
X36974Y118945D01*
Y119712D01*
X37128Y120172D01*
X37281Y120478D01*
X37588Y120785D01*
X37894Y120938D01*
X38507D01*
X36223D02*
Y118639D01*
X36070Y118179D01*
X35763Y117872D01*
X35303Y117719D01*
X34997D01*
X34537Y117872D01*
X34230Y118179D01*
X34077Y118639D01*
Y120938D01*
X32115D02*
Y117719D01*
X33188Y120938D02*
X31042D01*
X30352D02*
X28666D01*
X29585Y119712D01*
X29125D01*
X28819Y119558D01*
X28666Y119405D01*
X28512Y118945D01*
Y118639D01*
X28666Y118179D01*
X28972Y117872D01*
X29432Y117719D01*
X29892D01*
X30352Y117872D01*
X30505Y118025D01*
X30658Y118332D01*
X41589Y142828D02*
Y139609D01*
Y142828D02*
X40516D01*
X40056Y142675D01*
X39750Y142368D01*
X39596Y142061D01*
X39443Y141601D01*
Y140835D01*
X39596Y140375D01*
X39750Y140068D01*
X40056Y139762D01*
X40516Y139609D01*
X41589D01*
X37802Y142828D02*
X38109Y142675D01*
X38416Y142368D01*
X38569Y142061D01*
X38722Y141601D01*
Y140835D01*
X38569Y140375D01*
X38416Y140068D01*
X38109Y139762D01*
X37802Y139609D01*
X37189D01*
X36883Y139762D01*
X36576Y140068D01*
X36423Y140375D01*
X36270Y140835D01*
Y141601D01*
X36423Y142061D01*
X36576Y142368D01*
X36883Y142675D01*
X37189Y142828D01*
X37802D01*
X35518D02*
Y140528D01*
X35365Y140068D01*
X35059Y139762D01*
X34599Y139609D01*
X34292D01*
X33832Y139762D01*
X33525Y140068D01*
X33372Y140528D01*
Y142828D01*
X31410D02*
Y139609D01*
X32483Y142828D02*
X30337D01*
X28420D02*
X29954Y140682D01*
X27654D01*
X28420Y142828D02*
Y139609D01*
X318789Y215009D02*
Y209011D01*
Y215009D02*
X316790D01*
X315933Y214724D01*
X315362Y214152D01*
X315076Y213581D01*
X314790Y212724D01*
Y211296D01*
X315076Y210439D01*
X315362Y209868D01*
X315933Y209296D01*
X316790Y209011D01*
X318789D01*
X308877D02*
X311162Y215009D01*
X313448Y209011D01*
X312591Y211010D02*
X309734D01*
X305764Y215009D02*
X306335Y214724D01*
X306906Y214152D01*
X307192Y213581D01*
X307478Y212724D01*
Y211296D01*
X307192Y210439D01*
X306906Y209868D01*
X306335Y209296D01*
X305764Y209011D01*
X304621D01*
X304050Y209296D01*
X303479Y209868D01*
X303193Y210439D01*
X302907Y211296D01*
Y212724D01*
X303193Y213581D01*
X303479Y214152D01*
X304050Y214724D01*
X304621Y215009D01*
X305764D01*
X304907Y210153D02*
X303193Y208439D01*
X301507Y211581D02*
X296366D01*
X294309Y213581D02*
Y213867D01*
X294023Y214438D01*
X293738Y214724D01*
X293166Y215009D01*
X292024D01*
X291453Y214724D01*
X291167Y214438D01*
X290881Y213867D01*
Y213295D01*
X291167Y212724D01*
X291738Y211867D01*
X294595Y209011D01*
X290596D01*
X289253Y211581D02*
X284111D01*
X282340Y215009D02*
Y209011D01*
Y215009D02*
X279769D01*
X278912Y214724D01*
X278627Y214438D01*
X278341Y213867D01*
Y213295D01*
X278627Y212724D01*
X278912Y212438D01*
X279769Y212153D01*
X282340D02*
X279769D01*
X278912Y211867D01*
X278627Y211581D01*
X278341Y211010D01*
Y210153D01*
X278627Y209582D01*
X278912Y209296D01*
X279769Y209011D01*
X282340D01*
X12199Y142285D02*
X12352Y142592D01*
X12659Y142899D01*
X12965Y143052D01*
X13578D01*
X13885Y142899D01*
X14191Y142592D01*
X14345Y142285D01*
X14498Y141825D01*
Y141059D01*
X14345Y140599D01*
X14191Y140293D01*
X13885Y139986D01*
X13578Y139833D01*
X12965D01*
X12659Y139986D01*
X12352Y140293D01*
X12199Y140599D01*
Y141059D01*
X12965D02*
X12199D01*
X11463Y143052D02*
Y139833D01*
Y143052D02*
X9317Y139833D01*
Y143052D02*
Y139833D01*
X8427Y143052D02*
Y139833D01*
Y143052D02*
X7354D01*
X6894Y142899D01*
X6588Y142592D01*
X6435Y142285D01*
X6281Y141825D01*
Y141059D01*
X6435Y140599D01*
X6588Y140293D01*
X6894Y139986D01*
X7354Y139833D01*
X8427D01*
X14191Y137855D02*
X12505D01*
X13425Y136629D01*
X12965D01*
X12659Y136475D01*
X12505Y136322D01*
X12352Y135862D01*
Y135556D01*
X12505Y135096D01*
X12812Y134789D01*
X13272Y134636D01*
X13732D01*
X14191Y134789D01*
X14345Y134942D01*
X14498Y135249D01*
X11631Y137855D02*
X10405Y134636D01*
X9179Y137855D02*
X10405Y134636D01*
X8458Y137855D02*
X6772D01*
X7692Y136629D01*
X7232D01*
X6925Y136475D01*
X6772Y136322D01*
X6618Y135862D01*
Y135556D01*
X6772Y135096D01*
X7078Y134789D01*
X7538Y134636D01*
X7998D01*
X8458Y134789D01*
X8611Y134942D01*
X8765Y135249D01*
X38653Y160257D02*
Y157037D01*
X37979Y160257D02*
Y157037D01*
Y160257D02*
X35833Y157037D01*
Y160257D02*
Y157037D01*
X33870Y160257D02*
Y157037D01*
X34944Y160257D02*
X32797D01*
X32414D02*
Y157037D01*
Y160257D02*
X31034D01*
X30575Y160103D01*
X30421Y159950D01*
X30268Y159643D01*
Y159337D01*
X30421Y159030D01*
X30575Y158877D01*
X31034Y158724D01*
X32414D01*
X31341D02*
X30268Y157037D01*
X29547Y158570D02*
X28168D01*
X27708Y158724D01*
X27555Y158877D01*
X27401Y159184D01*
Y159643D01*
X27555Y159950D01*
X27708Y160103D01*
X28168Y160257D01*
X29547D01*
Y157037D01*
X25607Y160257D02*
Y157037D01*
X26681Y160257D02*
X24534D01*
X30575Y165181D02*
X30881Y165487D01*
X31341Y165640D01*
X31954D01*
X32414Y165487D01*
X32721Y165181D01*
Y164874D01*
X32567Y164567D01*
X32414Y164414D01*
X32107Y164261D01*
X31188Y163954D01*
X30881Y163801D01*
X30728Y163648D01*
X30575Y163341D01*
Y162881D01*
X30881Y162575D01*
X31341Y162421D01*
X31954D01*
X32414Y162575D01*
X32721Y162881D01*
X29854Y165640D02*
Y162421D01*
Y165640D02*
X28781D01*
X28321Y165487D01*
X28014Y165181D01*
X27861Y164874D01*
X27708Y164414D01*
Y163648D01*
X27861Y163188D01*
X28014Y162881D01*
X28321Y162575D01*
X28781Y162421D01*
X29854D01*
X24534D02*
X25761Y165640D01*
X26987Y162421D01*
X26527Y163494D02*
X24994D01*
X30452Y175642D02*
X30605Y175948D01*
X30912Y176255D01*
X31218Y176408D01*
X31831D01*
X32138Y176255D01*
X32445Y175948D01*
X32598Y175642D01*
X32751Y175182D01*
Y174415D01*
X32598Y173955D01*
X32445Y173649D01*
X32138Y173342D01*
X31831Y173189D01*
X31218D01*
X30912Y173342D01*
X30605Y173649D01*
X30452Y173955D01*
Y174415D01*
X31218D02*
X30452D01*
X29716Y176408D02*
Y173189D01*
Y176408D02*
X27570Y173189D01*
Y176408D02*
Y173189D01*
X26681Y176408D02*
Y173189D01*
Y176408D02*
X25607D01*
X25148Y176255D01*
X24841Y175948D01*
X24688Y175642D01*
X24534Y175182D01*
Y174415D01*
X24688Y173955D01*
X24841Y173649D01*
X25148Y173342D01*
X25607Y173189D01*
X26681D01*
M02*
