G04*
G04 #@! TF.GenerationSoftware,Altium Limited,Altium Designer,20.2.6 (244)*
G04*
G04 Layer_Color=8388736*
%FSLAX25Y25*%
%MOIN*%
G70*
G04*
G04 #@! TF.SameCoordinates,3204DEBB-BB28-4794-952D-22BE62C7D567*
G04*
G04*
G04 #@! TF.FilePolarity,Negative*
G04*
G01*
G75*
%ADD27R,0.04528X0.04724*%
%ADD28R,0.04134X0.03937*%
%ADD29R,0.03937X0.04134*%
%ADD30C,0.08465*%
%ADD31R,0.03740X0.03740*%
%ADD32R,0.04724X0.04528*%
%ADD33R,0.07874X0.13189*%
%ADD34R,0.07874X0.04528*%
%ADD35O,0.08071X0.02953*%
%ADD36O,0.01772X0.06299*%
%ADD37R,0.02953X0.05906*%
%ADD38R,0.02165X0.05906*%
%ADD39C,0.04528*%
%ADD40C,0.24410*%
%ADD41C,0.07284*%
%ADD42C,0.07382*%
%ADD43R,0.07382X0.07382*%
D27*
X212598Y101850D02*
D03*
Y107756D02*
D03*
X40079Y92401D02*
D03*
Y86496D02*
D03*
X199134Y101850D02*
D03*
Y107756D02*
D03*
D28*
X29528Y45748D02*
D03*
Y51850D02*
D03*
X103307Y120098D02*
D03*
Y126201D02*
D03*
X94449D02*
D03*
Y120098D02*
D03*
X52953Y185531D02*
D03*
Y191634D02*
D03*
X42953Y185531D02*
D03*
Y191634D02*
D03*
X112165Y126201D02*
D03*
Y120098D02*
D03*
X121024Y126201D02*
D03*
Y120098D02*
D03*
X129882Y126201D02*
D03*
Y120098D02*
D03*
X138740Y126201D02*
D03*
Y120098D02*
D03*
X147598Y126201D02*
D03*
Y120098D02*
D03*
X156457Y126201D02*
D03*
Y120098D02*
D03*
X165315Y126201D02*
D03*
Y120098D02*
D03*
X174173Y126201D02*
D03*
Y120098D02*
D03*
D29*
X36732Y28661D02*
D03*
X42835D02*
D03*
X51988Y100472D02*
D03*
X45886D02*
D03*
X51968Y106181D02*
D03*
X45866D02*
D03*
X156398Y139252D02*
D03*
X150295D02*
D03*
D30*
X92884Y139276D02*
D03*
X102598Y148307D02*
D03*
X85984Y68661D02*
D03*
X259095Y152166D02*
D03*
X85984Y83346D02*
D03*
X241142Y152166D02*
D03*
X250118D02*
D03*
X134252Y90236D02*
D03*
X125039D02*
D03*
X115827D02*
D03*
X100669Y76457D02*
D03*
D31*
X63701Y100472D02*
D03*
X57402D02*
D03*
X63681Y106181D02*
D03*
X57382D02*
D03*
D32*
X53759Y66063D02*
D03*
X47853D02*
D03*
X277638Y127657D02*
D03*
X271732D02*
D03*
X277638Y84153D02*
D03*
X271732D02*
D03*
X130315Y49134D02*
D03*
X136221D02*
D03*
X156496Y145158D02*
D03*
X150591D02*
D03*
D33*
X72066Y83346D02*
D03*
D34*
X47853Y74291D02*
D03*
Y83346D02*
D03*
Y92401D02*
D03*
D35*
X144016Y84153D02*
D03*
Y79154D02*
D03*
Y74154D02*
D03*
Y69153D02*
D03*
Y64153D02*
D03*
Y59153D02*
D03*
Y54154D02*
D03*
Y49154D02*
D03*
X181417Y84153D02*
D03*
Y79154D02*
D03*
Y74154D02*
D03*
Y69153D02*
D03*
Y64153D02*
D03*
Y59153D02*
D03*
Y54154D02*
D03*
Y49154D02*
D03*
X226535Y127657D02*
D03*
Y122658D02*
D03*
Y117657D02*
D03*
Y112657D02*
D03*
Y107658D02*
D03*
Y102657D02*
D03*
Y97658D02*
D03*
Y92658D02*
D03*
X263937Y127657D02*
D03*
Y122658D02*
D03*
Y117657D02*
D03*
Y112657D02*
D03*
Y107658D02*
D03*
Y102657D02*
D03*
Y97658D02*
D03*
Y92658D02*
D03*
X226535Y84153D02*
D03*
Y79154D02*
D03*
Y74154D02*
D03*
Y69153D02*
D03*
Y64153D02*
D03*
Y59153D02*
D03*
Y54154D02*
D03*
Y49154D02*
D03*
X263937Y84153D02*
D03*
Y79154D02*
D03*
Y74154D02*
D03*
Y69153D02*
D03*
Y64153D02*
D03*
Y59153D02*
D03*
Y54154D02*
D03*
Y49154D02*
D03*
D36*
X201102Y91536D02*
D03*
X199134D02*
D03*
X197165D02*
D03*
X195197D02*
D03*
X193228D02*
D03*
X201102Y74213D02*
D03*
X199134D02*
D03*
X197165D02*
D03*
X195197D02*
D03*
X193228D02*
D03*
X215669Y91536D02*
D03*
X213701D02*
D03*
X211732D02*
D03*
X209764D02*
D03*
X207795D02*
D03*
X215669Y74213D02*
D03*
X213701D02*
D03*
X211732D02*
D03*
X209764D02*
D03*
X207795D02*
D03*
D37*
X116004Y139272D02*
D03*
X144941D02*
D03*
X116004Y162303D02*
D03*
X144941D02*
D03*
D38*
X118957Y139272D02*
D03*
X121516D02*
D03*
X124075D02*
D03*
X126634D02*
D03*
X129193D02*
D03*
X131752D02*
D03*
X134311D02*
D03*
X136870D02*
D03*
X139429D02*
D03*
X141988D02*
D03*
X118957Y162303D02*
D03*
X124075D02*
D03*
X126634D02*
D03*
X129193D02*
D03*
X131752D02*
D03*
X121516D02*
D03*
X134311D02*
D03*
X136870D02*
D03*
X141988D02*
D03*
X139429D02*
D03*
D39*
X18307Y178701D02*
D03*
Y168858D02*
D03*
Y163937D02*
D03*
Y159016D02*
D03*
Y173779D02*
D03*
X18228Y51850D02*
D03*
Y56772D02*
D03*
X42835Y18228D02*
D03*
X37913D02*
D03*
X262638D02*
D03*
X267559D02*
D03*
X272480D02*
D03*
X18228Y136496D02*
D03*
Y141417D02*
D03*
Y146339D02*
D03*
Y114055D02*
D03*
Y118976D02*
D03*
Y123898D02*
D03*
Y91614D02*
D03*
Y96535D02*
D03*
Y101457D02*
D03*
Y69173D02*
D03*
Y74094D02*
D03*
Y79016D02*
D03*
X65276Y18228D02*
D03*
X60354D02*
D03*
X55433D02*
D03*
X87717D02*
D03*
X82795D02*
D03*
X77874D02*
D03*
X110158D02*
D03*
X105236D02*
D03*
X100315D02*
D03*
X132598D02*
D03*
X127677D02*
D03*
X122756D02*
D03*
X155039D02*
D03*
X150118D02*
D03*
X145197D02*
D03*
X177480D02*
D03*
X172559D02*
D03*
X167638D02*
D03*
X199921Y18228D02*
D03*
X195000D02*
D03*
X190079D02*
D03*
X222362D02*
D03*
X217441D02*
D03*
X212520D02*
D03*
X294921Y18228D02*
D03*
X290000D02*
D03*
X285079D02*
D03*
X317362D02*
D03*
X312441D02*
D03*
X307520D02*
D03*
X339803D02*
D03*
X334882D02*
D03*
X329961D02*
D03*
X328228Y43661D02*
D03*
Y38740D02*
D03*
Y33819D02*
D03*
X328228Y66102D02*
D03*
Y61181D02*
D03*
Y56260D02*
D03*
Y88583D02*
D03*
Y83661D02*
D03*
Y78740D02*
D03*
Y110984D02*
D03*
Y106063D02*
D03*
Y101142D02*
D03*
Y133425D02*
D03*
Y128504D02*
D03*
Y123583D02*
D03*
Y155866D02*
D03*
Y150945D02*
D03*
Y146024D02*
D03*
X328228Y178307D02*
D03*
Y173386D02*
D03*
Y168465D02*
D03*
Y200748D02*
D03*
Y195827D02*
D03*
Y190905D02*
D03*
D40*
X242126Y206693D02*
D03*
Y13780D02*
D03*
X13780D02*
D03*
Y206693D02*
D03*
D41*
X143268Y187638D02*
D03*
Y177638D02*
D03*
X129213Y187638D02*
D03*
Y177638D02*
D03*
D42*
X142953Y201689D02*
D03*
X132953D02*
D03*
X122953D02*
D03*
X112953D02*
D03*
X102953D02*
D03*
X92953D02*
D03*
X82953D02*
D03*
X72953D02*
D03*
X222953D02*
D03*
X212953D02*
D03*
X202953D02*
D03*
X192953D02*
D03*
X182953D02*
D03*
X172953D02*
D03*
X162953D02*
D03*
X152953D02*
D03*
X62953D02*
D03*
X52953D02*
D03*
X42953D02*
D03*
X142953Y211689D02*
D03*
X132953D02*
D03*
X122953D02*
D03*
X112953D02*
D03*
X102953D02*
D03*
X92953D02*
D03*
X82953D02*
D03*
X72953D02*
D03*
X222953D02*
D03*
X212953D02*
D03*
X202953D02*
D03*
X192953D02*
D03*
X182953D02*
D03*
X172953D02*
D03*
X162953D02*
D03*
X152953D02*
D03*
X62953D02*
D03*
X52953D02*
D03*
X42953D02*
D03*
X32953D02*
D03*
D43*
Y201689D02*
D03*
M02*
