M48
;Layer_Color=9474304
;FILE_FORMAT=2:5
INCH,LZ
;TYPE=PLATED
T1F00S00C0.01772
T2F00S00C0.03346
T3F00S00C0.04173
T4F00S00C0.04370
T5F00S00C0.12205
T6F00S00C0.16535
%
T01
X0037795Y001811
X0047638Y0037795
X0027953
X006495Y00499
X0087008Y0037795
X0106693
X0126378
X0146063
X0116535Y001811
X009685
X0077165
X005748
X006505Y00876
X0087008Y0116535
X0077165Y0136221
X0087008Y0155905
X0097647Y01463
X010385Y01461
X0116535Y0136221
X0136221
X0146063Y0155905
X0142563Y0179366
X0136221Y0175591
X0114733Y0175658
X0097213Y0175619
X009898Y0191905
X0106693Y0195276
X0146063
Y0116535
X0136221Y009685
X0116535
X0126378Y0077165
X0146063
X0136221Y005748
X0116535
X009685
X0106693Y0077165
X0077165Y0175591
X001811Y0136221
Y009685
X0037795
X0027953Y0077165
X0037795Y005748
Y0293701
X0022441Y0283858
X0037795Y0333071
X004535Y034735
X0067323Y0352756
X00769Y03502
Y0339963
X0107618Y0342539
X0102362Y035
X0114961Y0357087
X0130091Y0357283
X0146063Y0352756
Y0313386
X0144882Y0283858
X0137008
X0129134
X012126
X0113386
X0105512
X0097638
X0089764
X008189
X0067323Y0274016
X008257Y02591
X009031
X009805
Y02396
X009031
X008257
X00692Y02417
X0064376Y0231147
X0104974Y0231063
X01049Y0237
X0112563Y0217268
X0116535Y0214961
X0136221
X009685
X0116535Y0333071
Y0372441
X009685
X0090745Y0388418
X0106693Y0392126
X0128463Y039061
X0146063Y0392126
X0156759Y0396445
X0157153Y0402433
X013485Y0406894
X0136221Y0411811
X013377Y0422637
X0126378Y0431496
X0119447Y0430348
X010866Y0416637
X009685Y0411811
X0087008Y0431496
X0067323
X005748Y0411811
Y0372441
X0037795
X0027953Y0392126
X0037795Y0411811
X001811
X0047638Y0431496
T02
X0030709Y0114961
X0038583
Y0122835
Y0130709
Y0138583
Y0146457
Y0154331
Y0162205
Y0170079
Y0177953
Y0185827
Y0193701
Y0201575
X0030709Y0201575
Y0193701
Y0185827
Y0177953
Y0170079
Y0162205
Y0154331
Y0146457
Y0138583
Y0130709
Y0122835
T03
X0053189Y004311
X0065
Y005689
X0065Y0080512
Y0094291
X0053189
Y0080512
X0053189Y005689
T04
X0041653Y0221142
Y0231142
Y0241142
Y0251142
Y0261142
Y0271142
X0051653
Y0261142
Y0251142
Y0241142
Y0231142
Y0221142
X0050748Y0292559
Y0302559
Y0312559
Y0322559
Y0332559
Y0342559
Y0352559
Y0362559
X0077677Y0396535
X0087677
X0050748Y0372559
T05
X0022047Y005
X0022047Y0087402
T06
X0017717Y0017717
X0147638
Y0431102
X0017717
M30
