G04*
G04 #@! TF.GenerationSoftware,Altium Limited,Altium Designer,18.1.11 (251)*
G04*
G04 Layer_Color=32896*
%FSLAX25Y25*%
%MOIN*%
G70*
G01*
G75*
%ADD13C,0.01000*%
%ADD15C,0.00620*%
%ADD17C,0.01181*%
G36*
X126918Y75550D02*
X126923D01*
X126931Y75546D01*
X126948D01*
X126970Y75537D01*
X126996Y75533D01*
X127026Y75524D01*
X127099Y75498D01*
X127177Y75468D01*
X127259Y75425D01*
X127336Y75369D01*
X127410Y75300D01*
Y75296D01*
X127418Y75291D01*
X127427Y75278D01*
X127435Y75261D01*
X127465Y75218D01*
X127500Y75153D01*
X127539Y75080D01*
X127578Y74994D01*
X127616Y74895D01*
X127647Y74787D01*
Y74783D01*
X127651Y74774D01*
X127655Y74757D01*
X127659Y74735D01*
X127664Y74709D01*
X127672Y74675D01*
X127677Y74636D01*
X127685Y74593D01*
X127694Y74546D01*
X127698Y74494D01*
X127711Y74382D01*
X127720Y74257D01*
X127724Y74119D01*
Y74050D01*
X127720Y74024D01*
Y73955D01*
X127711Y73878D01*
X127703Y73791D01*
X127690Y73701D01*
X127672Y73606D01*
Y73593D01*
X127668Y73580D01*
X127664Y73563D01*
X127659Y73541D01*
X127651Y73516D01*
X127638Y73451D01*
X127616Y73373D01*
X127591Y73291D01*
X127560Y73201D01*
X127526Y73110D01*
Y73106D01*
X127522Y73097D01*
X127517Y73085D01*
X127509Y73067D01*
X127496Y73041D01*
X127483Y73016D01*
X127453Y72951D01*
X127414Y72878D01*
X127366Y72796D01*
X127310Y72710D01*
X127250Y72623D01*
Y72619D01*
X127241Y72615D01*
X127233Y72602D01*
X127220Y72585D01*
X127181Y72541D01*
X127134Y72486D01*
X127073Y72421D01*
X127000Y72352D01*
X126923Y72279D01*
X126832Y72205D01*
X126836D01*
X126841D01*
X126854Y72201D01*
X126871Y72197D01*
X126914Y72188D01*
X126966Y72171D01*
X127026Y72149D01*
X127091Y72123D01*
X127160Y72093D01*
X127224Y72059D01*
X127233Y72054D01*
X127254Y72041D01*
X127285Y72020D01*
X127323Y71990D01*
X127366Y71951D01*
X127414Y71904D01*
X127461Y71852D01*
X127509Y71792D01*
X127513Y71783D01*
X127526Y71761D01*
X127547Y71727D01*
X127569Y71675D01*
X127595Y71615D01*
X127621Y71542D01*
X127647Y71460D01*
X127668Y71369D01*
Y71365D01*
X127672Y71356D01*
Y71343D01*
X127677Y71326D01*
X127681Y71300D01*
X127685Y71270D01*
X127690Y71236D01*
X127698Y71201D01*
X127707Y71111D01*
X127716Y71012D01*
X127720Y70895D01*
X127724Y70770D01*
Y70714D01*
X127720Y70671D01*
Y70619D01*
X127711Y70559D01*
X127707Y70490D01*
X127698Y70417D01*
X127685Y70339D01*
X127672Y70253D01*
X127634Y70076D01*
X127608Y69986D01*
X127582Y69895D01*
X127547Y69805D01*
X127509Y69718D01*
X127504Y69714D01*
X127500Y69697D01*
X127487Y69675D01*
X127470Y69641D01*
X127444Y69602D01*
X127418Y69555D01*
X127384Y69503D01*
X127349Y69447D01*
X127306Y69387D01*
X127254Y69322D01*
X127203Y69257D01*
X127147Y69193D01*
X127082Y69124D01*
X127013Y69059D01*
X126940Y68994D01*
X126862Y68930D01*
Y68904D01*
X127565Y69072D01*
Y66900D01*
X121802Y65460D01*
Y67607D01*
X125604Y68568D01*
X125608D01*
X125621Y68572D01*
X125638Y68576D01*
X125660Y68585D01*
X125690Y68594D01*
X125720Y68607D01*
X125798Y68637D01*
X125879Y68675D01*
X125966Y68727D01*
X126048Y68787D01*
X126117Y68856D01*
Y68861D01*
X126125Y68865D01*
X126134Y68878D01*
X126142Y68891D01*
X126172Y68938D01*
X126203Y68994D01*
X126233Y69068D01*
X126263Y69158D01*
X126280Y69257D01*
X126289Y69365D01*
Y69395D01*
X126285Y69417D01*
X126280Y69468D01*
X126267Y69533D01*
X126246Y69602D01*
X126216Y69671D01*
X126172Y69731D01*
X126147Y69762D01*
X126117Y69783D01*
X126108Y69787D01*
X126086Y69800D01*
X126043Y69813D01*
X125987Y69826D01*
X125918Y69835D01*
X125828D01*
X125720Y69826D01*
X125664Y69813D01*
X125599Y69796D01*
X121802Y68844D01*
Y70994D01*
X125604Y71947D01*
X125608D01*
X125621Y71951D01*
X125638Y71955D01*
X125660Y71964D01*
X125690Y71973D01*
X125720Y71986D01*
X125798Y72016D01*
X125879Y72059D01*
X125966Y72110D01*
X126048Y72171D01*
X126117Y72240D01*
Y72244D01*
X126125Y72248D01*
X126134Y72261D01*
X126142Y72279D01*
X126172Y72322D01*
X126203Y72382D01*
X126233Y72455D01*
X126263Y72546D01*
X126280Y72649D01*
X126289Y72766D01*
Y72796D01*
X126285Y72817D01*
Y72843D01*
X126280Y72869D01*
X126267Y72938D01*
X126246Y73007D01*
X126216Y73076D01*
X126172Y73141D01*
X126147Y73166D01*
X126117Y73188D01*
X126108Y73192D01*
X126086Y73205D01*
X126043Y73218D01*
X125991Y73231D01*
X125918Y73240D01*
X125828Y73235D01*
X125724Y73227D01*
X125668Y73214D01*
X125604Y73197D01*
X121802Y72244D01*
Y73248D01*
X121807Y73283D01*
X121811Y73326D01*
X121819Y73382D01*
X121828Y73438D01*
X121841Y73503D01*
X121854Y73572D01*
X121876Y73649D01*
X121897Y73727D01*
X121927Y73804D01*
X121962Y73886D01*
X122000Y73968D01*
X122048Y74046D01*
X122100Y74128D01*
X122104Y74132D01*
X122113Y74145D01*
X122130Y74166D01*
X122151Y74196D01*
X122181Y74231D01*
X122216Y74265D01*
X122259Y74309D01*
X122306Y74352D01*
X122358Y74399D01*
X122414Y74442D01*
X122475Y74490D01*
X122544Y74533D01*
X122613Y74572D01*
X122686Y74606D01*
X122768Y74636D01*
X122850Y74662D01*
X126151Y75494D01*
X126155D01*
X126172Y75498D01*
X126194Y75503D01*
X126228Y75511D01*
X126267Y75515D01*
X126310Y75524D01*
X126362Y75533D01*
X126418Y75541D01*
X126539Y75554D01*
X126664Y75563D01*
X126793D01*
X126918Y75550D01*
D02*
G37*
G36*
X127565Y63693D02*
X123755Y62732D01*
X123750D01*
X123742Y62728D01*
X123720Y62723D01*
X123699Y62715D01*
X123668Y62706D01*
X123638Y62693D01*
X123561Y62667D01*
X123479Y62624D01*
X123393Y62577D01*
X123311Y62516D01*
X123237Y62443D01*
Y62439D01*
X123229Y62435D01*
X123220Y62422D01*
X123212Y62409D01*
X123181Y62361D01*
X123151Y62301D01*
X123121Y62228D01*
X123091Y62142D01*
X123074Y62038D01*
X123065Y61926D01*
Y61896D01*
X123069Y61879D01*
X123074Y61827D01*
X123087Y61762D01*
X123108Y61698D01*
X123138Y61629D01*
X123181Y61568D01*
X123207Y61542D01*
X123237Y61521D01*
X123246Y61516D01*
X123272Y61504D01*
X123311Y61491D01*
X123367Y61478D01*
X123440Y61469D01*
X123530D01*
X123634Y61478D01*
X123694Y61491D01*
X123755Y61504D01*
X127565Y62456D01*
Y60305D01*
X123203Y59215D01*
X123199D01*
X123181Y59211D01*
X123160Y59206D01*
X123130Y59198D01*
X123087Y59193D01*
X123044Y59185D01*
X122992Y59176D01*
X122940Y59168D01*
X122819Y59155D01*
X122690Y59146D01*
X122561D01*
X122440Y59159D01*
X122436D01*
X122427Y59163D01*
X122410Y59168D01*
X122388Y59172D01*
X122362Y59180D01*
X122337Y59189D01*
X122268Y59215D01*
X122194Y59250D01*
X122117Y59297D01*
X122044Y59357D01*
X121979Y59430D01*
Y59435D01*
X121970Y59439D01*
X121962Y59452D01*
X121953Y59465D01*
X121923Y59508D01*
X121884Y59568D01*
X121845Y59637D01*
X121802Y59719D01*
X121763Y59814D01*
X121729Y59913D01*
Y59917D01*
X121725Y59926D01*
X121720Y59943D01*
X121716Y59965D01*
X121712Y59991D01*
X121703Y60025D01*
X121694Y60060D01*
X121690Y60103D01*
X121681Y60150D01*
X121677Y60202D01*
X121664Y60314D01*
X121656Y60439D01*
Y60633D01*
X121660Y60676D01*
Y60728D01*
X121669Y60784D01*
X121673Y60853D01*
X121681Y60926D01*
X121694Y61004D01*
X121707Y61085D01*
X121742Y61262D01*
X121794Y61439D01*
X121828Y61529D01*
X121862Y61616D01*
X121867Y61620D01*
X121871Y61637D01*
X121884Y61659D01*
X121901Y61693D01*
X121923Y61732D01*
X121949Y61779D01*
X121983Y61827D01*
X122018Y61883D01*
X122061Y61943D01*
X122108Y62008D01*
X122156Y62072D01*
X122212Y62137D01*
X122276Y62202D01*
X122341Y62271D01*
X122410Y62335D01*
X122487Y62396D01*
Y62426D01*
X121794Y62258D01*
Y64400D01*
X127565Y65844D01*
Y63693D01*
D02*
G37*
G36*
Y57176D02*
X121794Y55737D01*
Y57879D01*
X127565Y59331D01*
Y57176D01*
D02*
G37*
G36*
Y55487D02*
X129327Y55948D01*
Y53797D01*
X123194Y52246D01*
X123190D01*
X123173Y52241D01*
X123151Y52233D01*
X123117Y52228D01*
X123078Y52220D01*
X123030Y52207D01*
X122979Y52198D01*
X122923Y52190D01*
X122798Y52168D01*
X122673Y52155D01*
X122544Y52151D01*
X122423Y52155D01*
X122418D01*
X122410Y52160D01*
X122393D01*
X122375Y52164D01*
X122324Y52177D01*
X122259Y52198D01*
X122186Y52228D01*
X122117Y52272D01*
X122048Y52323D01*
X121992Y52392D01*
X121987Y52401D01*
X121970Y52427D01*
X121949Y52465D01*
X121919Y52522D01*
X121888Y52595D01*
X121854Y52681D01*
X121824Y52780D01*
X121798Y52896D01*
Y52901D01*
X121794Y52914D01*
Y52931D01*
X121789Y52957D01*
X121785Y52987D01*
X121776Y53030D01*
X121772Y53073D01*
X121768Y53125D01*
X121759Y53181D01*
X121755Y53246D01*
X121750Y53315D01*
X121746Y53388D01*
X121742Y53465D01*
Y53905D01*
X121746Y53991D01*
Y54090D01*
X121750Y54198D01*
X121755Y54310D01*
Y54362D01*
X121759Y54392D01*
Y54461D01*
X121763Y54504D01*
X121768Y54599D01*
X121776Y54707D01*
X121785Y54819D01*
X121794Y54940D01*
X123074Y55263D01*
Y54858D01*
X123078Y54810D01*
X123082Y54754D01*
X123095Y54694D01*
X123112Y54629D01*
X123143Y54573D01*
X123177Y54526D01*
X123181Y54521D01*
X123199Y54509D01*
X123224Y54496D01*
X123263Y54478D01*
X123315Y54465D01*
X123375Y54461D01*
X123444D01*
X123526Y54478D01*
X126272Y55164D01*
Y56060D01*
X127565Y56383D01*
Y55487D01*
D02*
G37*
G36*
X129405Y50625D02*
X121794Y48716D01*
Y50862D01*
X129405Y52776D01*
Y50625D01*
D02*
G37*
G36*
Y47979D02*
Y46656D01*
X129401Y46626D01*
X129396Y46591D01*
Y46548D01*
X129388Y46501D01*
X129384Y46449D01*
X129366Y46328D01*
X129349Y46199D01*
X129319Y46065D01*
X129284Y45927D01*
Y45923D01*
X129280Y45910D01*
X129271Y45893D01*
X129263Y45867D01*
X129250Y45832D01*
X129237Y45794D01*
X129220Y45750D01*
X129202Y45703D01*
X129155Y45600D01*
X129103Y45483D01*
X129039Y45363D01*
X128970Y45242D01*
Y45238D01*
X128961Y45229D01*
X128948Y45212D01*
X128935Y45190D01*
X128918Y45160D01*
X128892Y45130D01*
X128840Y45052D01*
X128771Y44962D01*
X128690Y44867D01*
X128599Y44768D01*
X128500Y44669D01*
X128496Y44664D01*
X128487Y44656D01*
X128474Y44643D01*
X128453Y44626D01*
X128427Y44604D01*
X128396Y44574D01*
X128362Y44548D01*
X128323Y44514D01*
X128233Y44445D01*
X128129Y44367D01*
X128017Y44289D01*
X127892Y44216D01*
X121794Y40945D01*
X121802Y43419D01*
X123117Y44001D01*
Y45850D01*
X121794Y45781D01*
Y48263D01*
X129405Y47979D01*
D02*
G37*
G36*
X139482Y99824D02*
X136668Y98573D01*
X139482Y97330D01*
Y96605D01*
X135779D01*
Y97252D01*
X138360D01*
X135779Y98271D01*
Y98849D01*
X138360Y99867D01*
X135779D01*
Y100497D01*
X139482D01*
Y99824D01*
D02*
G37*
G36*
X137790Y95958D02*
X137945Y95949D01*
X138101Y95923D01*
X138230Y95898D01*
X138360Y95863D01*
X138481Y95820D01*
X138584Y95777D01*
X138671Y95733D01*
X138757Y95690D01*
X138826Y95647D01*
X138886Y95613D01*
X138938Y95569D01*
X138972Y95544D01*
X138998Y95518D01*
X139016Y95509D01*
X139024Y95500D01*
X139111Y95414D01*
X139180Y95311D01*
X139249Y95207D01*
X139301Y95095D01*
X139387Y94871D01*
X139438Y94646D01*
X139456Y94542D01*
X139473Y94448D01*
X139482Y94361D01*
X139490Y94284D01*
X139499Y94223D01*
Y94137D01*
X139490Y93964D01*
X139482Y93809D01*
X139456Y93662D01*
X139421Y93524D01*
X139387Y93395D01*
X139352Y93283D01*
X139309Y93170D01*
X139266Y93084D01*
X139214Y92998D01*
X139171Y92929D01*
X139137Y92868D01*
X139102Y92817D01*
X139067Y92782D01*
X139042Y92756D01*
X139033Y92739D01*
X139024Y92730D01*
X138929Y92653D01*
X138834Y92584D01*
X138722Y92514D01*
X138610Y92463D01*
X138377Y92385D01*
X138144Y92333D01*
X138040Y92307D01*
X137937Y92299D01*
X137851Y92290D01*
X137773Y92282D01*
X137704Y92273D01*
X137661D01*
X137626D01*
X137618D01*
X137445Y92282D01*
X137290Y92307D01*
X137143Y92333D01*
X137005Y92368D01*
X136875Y92402D01*
X136763Y92445D01*
X136660Y92489D01*
X136565Y92540D01*
X136478Y92584D01*
X136409Y92627D01*
X136349Y92661D01*
X136297Y92704D01*
X136263Y92730D01*
X136237Y92756D01*
X136220Y92765D01*
X136211Y92773D01*
X136133Y92868D01*
X136056Y92963D01*
X135995Y93075D01*
X135943Y93188D01*
X135857Y93412D01*
X135805Y93628D01*
X135788Y93731D01*
X135771Y93826D01*
X135762Y93913D01*
X135754Y93990D01*
X135745Y94051D01*
Y94137D01*
X135754Y94301D01*
X135762Y94456D01*
X135788Y94603D01*
X135814Y94732D01*
X135857Y94853D01*
X135892Y94965D01*
X135935Y95069D01*
X135978Y95155D01*
X136021Y95242D01*
X136064Y95311D01*
X136107Y95371D01*
X136142Y95414D01*
X136168Y95449D01*
X136194Y95483D01*
X136202Y95492D01*
X136211Y95500D01*
X136306Y95587D01*
X136409Y95656D01*
X136513Y95716D01*
X136634Y95768D01*
X136867Y95854D01*
X137091Y95906D01*
X137195Y95932D01*
X137298Y95941D01*
X137385Y95949D01*
X137462Y95958D01*
X137531Y95967D01*
X137575D01*
X137609D01*
X137618D01*
X137790Y95958D01*
D02*
G37*
G36*
X139482Y89201D02*
X138878D01*
Y90262D01*
X135779D01*
Y90952D01*
X138878D01*
Y92014D01*
X139482D01*
Y89201D01*
D02*
G37*
G36*
Y88139D02*
X136772D01*
X139482Y86189D01*
Y85490D01*
X135779D01*
Y86154D01*
X138524D01*
X135779Y88122D01*
Y88795D01*
X139482D01*
Y88139D01*
D02*
G37*
G36*
Y83436D02*
Y82694D01*
X135779Y81132D01*
Y81839D01*
X138774Y83047D01*
X137376Y83634D01*
Y82892D01*
X136772Y82650D01*
Y83876D01*
X135779Y84307D01*
Y85049D01*
X139482Y83436D01*
D02*
G37*
G36*
Y79992D02*
X137945D01*
Y78163D01*
X139482D01*
Y77472D01*
X135779D01*
Y78163D01*
X137341D01*
Y79992D01*
X135779D01*
Y80665D01*
X139482D01*
Y79992D01*
D02*
G37*
G36*
X138619Y77015D02*
X138774Y76981D01*
X138912Y76937D01*
X139024Y76886D01*
X139102Y76825D01*
X139162Y76782D01*
X139206Y76748D01*
X139214Y76739D01*
X139301Y76618D01*
X139369Y76489D01*
X139413Y76342D01*
X139447Y76204D01*
X139464Y76083D01*
X139482Y75979D01*
Y74227D01*
X135779D01*
Y74901D01*
X138869D01*
Y75841D01*
X138860Y75928D01*
X138852Y75997D01*
X138834Y76057D01*
X138809Y76100D01*
X138783Y76135D01*
X138765Y76169D01*
X138757Y76178D01*
X138748Y76187D01*
X138705Y76221D01*
X138645Y76256D01*
X138532Y76281D01*
X138481Y76290D01*
X138437Y76299D01*
X138412D01*
X138403D01*
X138308Y76290D01*
X138213Y76264D01*
X138135Y76221D01*
X138066Y76178D01*
X138015Y76135D01*
X137971Y76092D01*
X137945Y76066D01*
X137937Y76057D01*
X137876Y75962D01*
X137816Y75850D01*
X137773Y75738D01*
X137738Y75626D01*
X137704Y75522D01*
X137687Y75444D01*
X137678Y75410D01*
Y75384D01*
X137669Y75375D01*
Y75367D01*
X137065Y75453D01*
X137091Y75600D01*
X137117Y75729D01*
X137152Y75850D01*
X137186Y75971D01*
X137221Y76074D01*
X137264Y76169D01*
X137298Y76256D01*
X137333Y76333D01*
X137376Y76402D01*
X137410Y76463D01*
X137436Y76515D01*
X137471Y76558D01*
X137488Y76583D01*
X137505Y76609D01*
X137523Y76627D01*
X137592Y76696D01*
X137661Y76756D01*
X137808Y76860D01*
X137963Y76929D01*
X138110Y76972D01*
X138239Y77006D01*
X138299Y77015D01*
X138342D01*
X138386Y77024D01*
X138412D01*
X138429D01*
X138437D01*
X138619Y77015D01*
D02*
G37*
G36*
X139482Y71578D02*
X136668Y70353D01*
X139482Y69110D01*
Y68385D01*
X135779D01*
Y69015D01*
X138360D01*
X135779Y70042D01*
Y70629D01*
X138360Y71647D01*
X135779D01*
Y72277D01*
X139482D01*
Y71578D01*
D02*
G37*
G36*
Y66322D02*
Y65589D01*
X135779Y64018D01*
Y64709D01*
X138774Y65943D01*
X137376Y66521D01*
Y65770D01*
X136772Y65537D01*
Y66771D01*
X135779Y67203D01*
Y67936D01*
X139482Y66322D01*
D02*
G37*
G36*
X136358Y61809D02*
X137341D01*
Y63569D01*
X137963D01*
Y61809D01*
X138878D01*
Y63664D01*
X139482D01*
Y61127D01*
X135779D01*
Y63699D01*
X136358D01*
Y61809D01*
D02*
G37*
G36*
X139482Y57934D02*
X138878D01*
Y58996D01*
X135779D01*
Y59669D01*
X138878D01*
Y60747D01*
X139482D01*
Y57934D01*
D02*
G37*
G36*
X138524Y54810D02*
X138584D01*
X138619D01*
X138636D01*
X139067Y54767D01*
X139482Y54698D01*
X139672Y54655D01*
X139861Y54611D01*
X140034Y54568D01*
X140198Y54525D01*
X140345Y54482D01*
X140474Y54439D01*
X140595Y54396D01*
X140690Y54361D01*
X140776Y54335D01*
X140828Y54309D01*
X140871Y54301D01*
X140880Y54292D01*
X141277Y54120D01*
X141467Y54025D01*
X141648Y53921D01*
X141812Y53826D01*
X141976Y53723D01*
X142122Y53628D01*
X142261Y53533D01*
X142390Y53438D01*
X142502Y53360D01*
X142597Y53282D01*
X142675Y53222D01*
X142744Y53170D01*
X142787Y53127D01*
X142822Y53101D01*
X142830Y53093D01*
X142632Y52860D01*
X142295Y53127D01*
X142131Y53257D01*
X141967Y53369D01*
X141803Y53472D01*
X141639Y53567D01*
X141484Y53662D01*
X141346Y53740D01*
X141208Y53809D01*
X141087Y53869D01*
X140975Y53921D01*
X140888Y53964D01*
X140811Y53999D01*
X140750Y54025D01*
X140716Y54033D01*
X140707Y54042D01*
X140319Y54180D01*
X139930Y54292D01*
X139749Y54335D01*
X139577Y54370D01*
X139404Y54404D01*
X139249Y54430D01*
X139102Y54456D01*
X138972Y54474D01*
X138860Y54482D01*
X138765Y54491D01*
X138679Y54499D01*
X138627Y54508D01*
X138584D01*
X138575D01*
X138377Y54517D01*
X138170D01*
X137782Y54491D01*
X137600Y54474D01*
X137419Y54456D01*
X137247Y54430D01*
X137091Y54404D01*
X136944Y54378D01*
X136815Y54353D01*
X136703Y54327D01*
X136608Y54309D01*
X136522Y54284D01*
X136470Y54275D01*
X136427Y54258D01*
X136418D01*
X136021Y54120D01*
X135641Y53964D01*
X135469Y53887D01*
X135296Y53800D01*
X135141Y53714D01*
X134994Y53636D01*
X134865Y53559D01*
X134744Y53490D01*
X134640Y53421D01*
X134554Y53369D01*
X134485Y53326D01*
X134433Y53282D01*
X134399Y53265D01*
X134390Y53257D01*
X134053Y52998D01*
X133889Y52860D01*
X133743Y52722D01*
X133605Y52592D01*
X133475Y52454D01*
X133354Y52325D01*
X133242Y52204D01*
X133147Y52092D01*
X133061Y51988D01*
X132983Y51893D01*
X132923Y51815D01*
X132871Y51746D01*
X132837Y51703D01*
X132819Y51669D01*
X132811Y51660D01*
X132586Y51306D01*
X132396Y50961D01*
X132241Y50633D01*
X132172Y50469D01*
X132112Y50322D01*
X132051Y50193D01*
X132008Y50064D01*
X131965Y49960D01*
X131939Y49865D01*
X131913Y49787D01*
X131896Y49727D01*
X131879Y49692D01*
Y49684D01*
X131784Y49287D01*
X131715Y48899D01*
X131689Y48717D01*
X131672Y48536D01*
X131654Y48363D01*
X131646Y48199D01*
X131637Y48053D01*
Y47923D01*
X131628Y47802D01*
Y47699D01*
X131637Y47621D01*
Y47509D01*
X131654Y47302D01*
X131680Y47095D01*
X131749Y46707D01*
X131784Y46517D01*
X131827Y46335D01*
X131870Y46163D01*
X131922Y46007D01*
X131965Y45861D01*
X132000Y45723D01*
X132043Y45610D01*
X132077Y45515D01*
X132103Y45429D01*
X132129Y45377D01*
X132138Y45334D01*
X132146Y45326D01*
X131870Y45205D01*
X131775Y45447D01*
X131689Y45680D01*
X131620Y45895D01*
X131568Y46094D01*
X131542Y46189D01*
X131516Y46266D01*
X131499Y46335D01*
X131490Y46404D01*
X131482Y46448D01*
X131473Y46482D01*
X131464Y46508D01*
Y46517D01*
X131421Y46775D01*
X131387Y47017D01*
X131369Y47250D01*
X131352Y47457D01*
X131344Y47544D01*
Y47630D01*
X131335Y47699D01*
Y48053D01*
X131344Y48225D01*
X131352Y48381D01*
X131369Y48527D01*
X131378Y48640D01*
X131387Y48735D01*
Y48769D01*
X131395Y48795D01*
Y48812D01*
X131421Y48985D01*
X131447Y49149D01*
X131482Y49304D01*
X131508Y49442D01*
X131533Y49563D01*
X131559Y49649D01*
X131568Y49684D01*
Y49710D01*
X131577Y49718D01*
Y49727D01*
X131637Y49934D01*
X131706Y50141D01*
X131861Y50529D01*
X131948Y50719D01*
X132025Y50892D01*
X132112Y51056D01*
X132189Y51203D01*
X132267Y51341D01*
X132336Y51462D01*
X132405Y51574D01*
X132457Y51660D01*
X132509Y51738D01*
X132543Y51789D01*
X132560Y51824D01*
X132569Y51833D01*
X132837Y52187D01*
X132975Y52350D01*
X133113Y52506D01*
X133259Y52661D01*
X133389Y52799D01*
X133527Y52920D01*
X133648Y53041D01*
X133769Y53144D01*
X133872Y53239D01*
X133967Y53317D01*
X134053Y53386D01*
X134114Y53438D01*
X134166Y53472D01*
X134200Y53498D01*
X134209Y53507D01*
X134580Y53749D01*
X134942Y53956D01*
X135296Y54137D01*
X135469Y54215D01*
X135624Y54284D01*
X135771Y54335D01*
X135900Y54387D01*
X136021Y54439D01*
X136125Y54474D01*
X136202Y54499D01*
X136263Y54517D01*
X136306Y54534D01*
X136314D01*
X136530Y54594D01*
X136737Y54646D01*
X137160Y54715D01*
X137359Y54750D01*
X137549Y54767D01*
X137730Y54784D01*
X137902Y54801D01*
X138058Y54810D01*
X138204D01*
X138325D01*
X138437Y54819D01*
X138524Y54810D01*
D02*
G37*
G36*
X145911Y54327D02*
X145946Y54309D01*
X145954Y54301D01*
X145566Y53826D01*
X145195Y53369D01*
X145013Y53144D01*
X144850Y52937D01*
X144686Y52739D01*
X144539Y52558D01*
X144392Y52385D01*
X144271Y52230D01*
X144159Y52092D01*
X144073Y51979D01*
X143995Y51885D01*
X143935Y51824D01*
X143900Y51781D01*
X143892Y51764D01*
X143503Y51289D01*
X143123Y50832D01*
X142951Y50607D01*
X142778Y50400D01*
X142614Y50202D01*
X142459Y50012D01*
X142321Y49848D01*
X142192Y49692D01*
X142088Y49554D01*
X141993Y49433D01*
X141915Y49347D01*
X141855Y49278D01*
X141820Y49235D01*
X141812Y49218D01*
X141423Y48743D01*
X141052Y48277D01*
X140871Y48061D01*
X140699Y47846D01*
X140534Y47647D01*
X140379Y47466D01*
X140241Y47293D01*
X140112Y47138D01*
X139999Y47000D01*
X139904Y46879D01*
X139827Y46793D01*
X139775Y46724D01*
X139732Y46681D01*
X139723Y46663D01*
X139335Y46189D01*
X138955Y45723D01*
X138774Y45507D01*
X138601Y45291D01*
X138437Y45093D01*
X138291Y44903D01*
X138144Y44730D01*
X138023Y44575D01*
X137911Y44437D01*
X137816Y44325D01*
X137738Y44230D01*
X137678Y44161D01*
X137644Y44118D01*
X137635Y44100D01*
X137549Y44368D01*
X137462Y44618D01*
X137376Y44851D01*
X137307Y45067D01*
X137272Y45162D01*
X137247Y45239D01*
X137221Y45317D01*
X137203Y45377D01*
X137186Y45429D01*
X137169Y45464D01*
X137160Y45490D01*
Y45498D01*
X137074Y45757D01*
X136988Y46007D01*
X136910Y46240D01*
X136832Y46456D01*
X136806Y46551D01*
X136772Y46637D01*
X136746Y46715D01*
X136729Y46775D01*
X136711Y46827D01*
X136694Y46862D01*
X136686Y46888D01*
Y46896D01*
X136383Y46620D01*
X136099Y46353D01*
X135831Y46102D01*
X135710Y45990D01*
X135590Y45878D01*
X135486Y45783D01*
X135391Y45688D01*
X135305Y45610D01*
X135236Y45550D01*
X135175Y45490D01*
X135132Y45455D01*
X135106Y45429D01*
X135098Y45421D01*
X134804Y45144D01*
X134519Y44877D01*
X134252Y44627D01*
X134123Y44506D01*
X134010Y44402D01*
X133907Y44299D01*
X133812Y44212D01*
X133726Y44135D01*
X133656Y44066D01*
X133596Y44014D01*
X133553Y43971D01*
X133527Y43945D01*
X133518Y43936D01*
X133225Y43660D01*
X132940Y43401D01*
X132673Y43159D01*
X132552Y43039D01*
X132440Y42935D01*
X132336Y42840D01*
X132241Y42754D01*
X132155Y42676D01*
X132086Y42607D01*
X132025Y42555D01*
X131982Y42521D01*
X131956Y42495D01*
X131948Y42486D01*
X131654Y42210D01*
X131378Y41943D01*
X131111Y41692D01*
X130990Y41580D01*
X130878Y41477D01*
X130774Y41373D01*
X130679Y41287D01*
X130593Y41209D01*
X130524Y41149D01*
X130463Y41088D01*
X130420Y41054D01*
X130394Y41028D01*
X130386Y41019D01*
X130368Y41028D01*
X130360D01*
X130351D01*
X130317Y41045D01*
X130308Y41054D01*
X130688Y41563D01*
X131059Y42046D01*
X131240Y42288D01*
X131413Y42512D01*
X131568Y42719D01*
X131723Y42918D01*
X131861Y43108D01*
X131982Y43272D01*
X132094Y43418D01*
X132189Y43539D01*
X132258Y43634D01*
X132319Y43712D01*
X132353Y43755D01*
X132362Y43772D01*
X132742Y44281D01*
X133113Y44782D01*
X133285Y45015D01*
X133458Y45239D01*
X133613Y45455D01*
X133769Y45654D01*
X133907Y45835D01*
X134028Y46007D01*
X134140Y46154D01*
X134235Y46275D01*
X134304Y46370D01*
X134364Y46448D01*
X134399Y46491D01*
X134407Y46508D01*
X134787Y47017D01*
X135167Y47518D01*
X135339Y47751D01*
X135512Y47975D01*
X135676Y48191D01*
X135823Y48389D01*
X135961Y48570D01*
X136090Y48743D01*
X136202Y48890D01*
X136289Y49011D01*
X136366Y49106D01*
X136427Y49183D01*
X136461Y49226D01*
X136470Y49244D01*
X136858Y49753D01*
X137238Y50253D01*
X137410Y50486D01*
X137583Y50719D01*
X137747Y50935D01*
X137894Y51134D01*
X138032Y51323D01*
X138161Y51487D01*
X138274Y51634D01*
X138368Y51764D01*
X138437Y51859D01*
X138498Y51936D01*
X138532Y51979D01*
X138541Y51997D01*
X138627Y51677D01*
X138714Y51367D01*
X138791Y51073D01*
X138826Y50944D01*
X138860Y50823D01*
X138886Y50702D01*
X138912Y50599D01*
X138938Y50512D01*
X138964Y50435D01*
X138972Y50374D01*
X138990Y50322D01*
X138998Y50296D01*
Y50288D01*
X139085Y49969D01*
X139162Y49667D01*
X139240Y49382D01*
X139275Y49252D01*
X139309Y49123D01*
X139335Y49011D01*
X139361Y48907D01*
X139387Y48821D01*
X139413Y48743D01*
X139421Y48683D01*
X139438Y48631D01*
X139447Y48605D01*
Y48596D01*
X139749Y48864D01*
X140043Y49132D01*
X140319Y49373D01*
X140448Y49485D01*
X140560Y49597D01*
X140673Y49692D01*
X140768Y49779D01*
X140854Y49856D01*
X140923Y49925D01*
X140983Y49977D01*
X141026Y50012D01*
X141052Y50038D01*
X141061Y50046D01*
X141363Y50314D01*
X141656Y50573D01*
X141933Y50814D01*
X142062Y50927D01*
X142174Y51039D01*
X142286Y51134D01*
X142381Y51220D01*
X142468Y51289D01*
X142537Y51358D01*
X142597Y51410D01*
X142640Y51444D01*
X142666Y51470D01*
X142675Y51479D01*
X142977Y51746D01*
X143262Y52005D01*
X143538Y52247D01*
X143659Y52359D01*
X143779Y52471D01*
X143883Y52566D01*
X143986Y52653D01*
X144073Y52730D01*
X144142Y52799D01*
X144202Y52851D01*
X144245Y52886D01*
X144271Y52911D01*
X144280Y52920D01*
X144573Y53188D01*
X144867Y53438D01*
X145134Y53680D01*
X145255Y53792D01*
X145376Y53895D01*
X145488Y53990D01*
X145583Y54076D01*
X145669Y54154D01*
X145738Y54215D01*
X145799Y54266D01*
X145842Y54301D01*
X145868Y54327D01*
X145877Y54335D01*
X145902D01*
X145911Y54327D01*
D02*
G37*
G36*
X144798Y50176D02*
X144867Y49969D01*
X144979Y49563D01*
X145022Y49373D01*
X145065Y49192D01*
X145100Y49011D01*
X145126Y48847D01*
X145143Y48691D01*
X145160Y48562D01*
X145177Y48441D01*
X145186Y48338D01*
X145195Y48251D01*
X145203Y48191D01*
Y48139D01*
X145195Y47708D01*
X145169Y47302D01*
X145143Y47112D01*
X145117Y46922D01*
X145091Y46750D01*
X145065Y46586D01*
X145031Y46439D01*
X145005Y46310D01*
X144979Y46189D01*
X144953Y46094D01*
X144936Y46007D01*
X144919Y45956D01*
X144901Y45913D01*
Y45904D01*
X144772Y45507D01*
X144616Y45136D01*
X144530Y44963D01*
X144453Y44799D01*
X144375Y44644D01*
X144297Y44497D01*
X144220Y44368D01*
X144150Y44247D01*
X144090Y44143D01*
X144030Y44057D01*
X143986Y43988D01*
X143952Y43936D01*
X143935Y43902D01*
X143926Y43893D01*
X143667Y43548D01*
X143400Y43237D01*
X143262Y43091D01*
X143132Y42961D01*
X143003Y42832D01*
X142873Y42719D01*
X142761Y42616D01*
X142649Y42521D01*
X142554Y42443D01*
X142476Y42374D01*
X142407Y42322D01*
X142356Y42288D01*
X142321Y42262D01*
X142312Y42253D01*
X141941Y42012D01*
X141579Y41805D01*
X141234Y41632D01*
X141070Y41554D01*
X140914Y41485D01*
X140776Y41425D01*
X140647Y41373D01*
X140534Y41330D01*
X140431Y41295D01*
X140353Y41269D01*
X140302Y41252D01*
X140258Y41235D01*
X140250D01*
X139836Y41131D01*
X139438Y41054D01*
X139240Y41028D01*
X139059Y41002D01*
X138886Y40985D01*
X138722Y40976D01*
X138575Y40968D01*
X138437Y40959D01*
X138317Y40950D01*
X138213D01*
X138135D01*
X138075D01*
X138040D01*
X138023D01*
X137609Y40985D01*
X137203Y41036D01*
X137013Y41071D01*
X136832Y41106D01*
X136660Y41149D01*
X136504Y41183D01*
X136358Y41226D01*
X136220Y41261D01*
X136107Y41295D01*
X136012Y41330D01*
X135926Y41356D01*
X135874Y41373D01*
X135831Y41390D01*
X135823D01*
X135426Y41554D01*
X135055Y41736D01*
X134882Y41831D01*
X134718Y41934D01*
X134563Y42029D01*
X134416Y42115D01*
X134286Y42202D01*
X134166Y42288D01*
X134071Y42357D01*
X133984Y42426D01*
X133915Y42478D01*
X133864Y42512D01*
X133829Y42538D01*
X133820Y42547D01*
X133838D01*
X134028Y42788D01*
X134355Y42529D01*
X134692Y42314D01*
X135011Y42124D01*
X135158Y42038D01*
X135305Y41969D01*
X135434Y41899D01*
X135555Y41839D01*
X135659Y41796D01*
X135754Y41753D01*
X135823Y41727D01*
X135883Y41701D01*
X135917Y41692D01*
X135926Y41684D01*
X136314Y41554D01*
X136694Y41451D01*
X136875Y41408D01*
X137048Y41373D01*
X137212Y41347D01*
X137367Y41321D01*
X137505Y41304D01*
X137635Y41287D01*
X137747Y41278D01*
X137842Y41269D01*
X137920Y41261D01*
X137980Y41252D01*
X138015D01*
X138023D01*
X138420D01*
X138809Y41278D01*
X138990Y41304D01*
X139171Y41321D01*
X139335Y41347D01*
X139490Y41382D01*
X139637Y41408D01*
X139767Y41434D01*
X139879Y41459D01*
X139974Y41477D01*
X140051Y41503D01*
X140112Y41511D01*
X140146Y41528D01*
X140155D01*
X140543Y41666D01*
X140914Y41822D01*
X141078Y41899D01*
X141242Y41986D01*
X141398Y42064D01*
X141536Y42141D01*
X141665Y42219D01*
X141777Y42288D01*
X141881Y42348D01*
X141967Y42409D01*
X142036Y42452D01*
X142079Y42486D01*
X142114Y42504D01*
X142122Y42512D01*
X142450Y42771D01*
X142606Y42901D01*
X142752Y43039D01*
X142891Y43168D01*
X143020Y43298D01*
X143141Y43418D01*
X143244Y43539D01*
X143339Y43651D01*
X143426Y43746D01*
X143503Y43841D01*
X143564Y43919D01*
X143615Y43979D01*
X143650Y44023D01*
X143667Y44057D01*
X143676Y44066D01*
X143900Y44411D01*
X144090Y44747D01*
X144245Y45075D01*
X144315Y45231D01*
X144375Y45369D01*
X144435Y45507D01*
X144478Y45628D01*
X144522Y45731D01*
X144547Y45826D01*
X144573Y45895D01*
X144591Y45956D01*
X144608Y45990D01*
Y45999D01*
X144711Y46387D01*
X144781Y46767D01*
X144806Y46948D01*
X144832Y47129D01*
X144850Y47293D01*
X144858Y47449D01*
X144867Y47595D01*
X144875Y47725D01*
Y48122D01*
X144867Y48329D01*
X144850Y48527D01*
X144798Y48924D01*
X144763Y49106D01*
X144729Y49287D01*
X144686Y49451D01*
X144651Y49615D01*
X144608Y49753D01*
X144573Y49882D01*
X144539Y50003D01*
X144504Y50098D01*
X144478Y50176D01*
X144461Y50227D01*
X144453Y50271D01*
X144444Y50279D01*
X144720Y50383D01*
X144798Y50176D01*
D02*
G37*
%LPC*%
G36*
X127746Y46113D02*
X124578Y45936D01*
Y44647D01*
X127746Y46113D01*
D02*
G37*
G36*
X137738Y95259D02*
X137695D01*
X137661D01*
X137644D01*
X137635D01*
X137410Y95250D01*
X137212Y95216D01*
X137048Y95173D01*
X136910Y95121D01*
X136806Y95060D01*
X136729Y95017D01*
X136686Y94983D01*
X136668Y94974D01*
X136565Y94853D01*
X136487Y94724D01*
X136427Y94586D01*
X136392Y94448D01*
X136366Y94327D01*
X136358Y94232D01*
X136349Y94189D01*
Y94137D01*
X136366Y93930D01*
X136401Y93757D01*
X136452Y93602D01*
X136513Y93481D01*
X136565Y93386D01*
X136617Y93317D01*
X136651Y93283D01*
X136668Y93265D01*
X136798Y93170D01*
X136953Y93101D01*
X137117Y93050D01*
X137272Y93015D01*
X137410Y92998D01*
X137479Y92989D01*
X137531D01*
X137575Y92980D01*
X137609D01*
X137626D01*
X137635D01*
X137859Y92989D01*
X138049Y93024D01*
X138213Y93067D01*
X138342Y93127D01*
X138446Y93179D01*
X138524Y93222D01*
X138567Y93257D01*
X138584Y93265D01*
X138696Y93386D01*
X138774Y93524D01*
X138834Y93662D01*
X138869Y93809D01*
X138895Y93938D01*
X138903Y94042D01*
X138912Y94085D01*
Y94137D01*
X138895Y94335D01*
X138860Y94499D01*
X138809Y94646D01*
X138748Y94767D01*
X138688Y94853D01*
X138636Y94922D01*
X138601Y94957D01*
X138584Y94974D01*
X138455Y95069D01*
X138299Y95138D01*
X138144Y95190D01*
X137989Y95224D01*
X137851Y95242D01*
X137790Y95250D01*
X137738Y95259D01*
D02*
G37*
%LPD*%
D13*
X44488Y142520D02*
X64173D01*
X44488Y173622D02*
X64173D01*
X57874Y235827D02*
X77559D01*
X57874Y255906D02*
X77559D01*
D15*
X66243Y246123D02*
X66405Y246447D01*
X66729Y246771D01*
X67053Y246933D01*
X67700D01*
X68024Y246771D01*
X68348Y246447D01*
X68510Y246123D01*
X68671Y245638D01*
Y244828D01*
X68510Y244343D01*
X68348Y244019D01*
X68024Y243695D01*
X67700Y243533D01*
X67053D01*
X66729Y243695D01*
X66405Y244019D01*
X66243Y244343D01*
Y244828D01*
X67053D02*
X66243D01*
X65466Y246933D02*
Y243533D01*
Y246933D02*
X63200Y243533D01*
Y246933D02*
Y243533D01*
X62261Y246933D02*
Y243533D01*
Y246933D02*
X61128D01*
X60643Y246771D01*
X60319Y246447D01*
X60157Y246123D01*
X59995Y245638D01*
Y244828D01*
X60157Y244343D01*
X60319Y244019D01*
X60643Y243695D01*
X61128Y243533D01*
X62261D01*
X80876Y44570D02*
X78610D01*
X79743D01*
Y41171D01*
X77477Y44570D02*
X75211Y41171D01*
Y44570D02*
X77477Y41171D01*
X80876Y54557D02*
Y57956D01*
X79177D01*
X78610Y57389D01*
Y56257D01*
X79177Y55690D01*
X80876D01*
X79743D02*
X78610Y54557D01*
X77477Y57956D02*
X75211Y54557D01*
Y57956D02*
X77477Y54557D01*
X81764Y95402D02*
X82331Y95969D01*
X83464D01*
X84030Y95402D01*
Y94836D01*
X83464Y94269D01*
X82331D01*
X81764Y93703D01*
Y93137D01*
X82331Y92570D01*
X83464D01*
X84030Y93137D01*
X80631Y95969D02*
Y92570D01*
X78932D01*
X78365Y93137D01*
Y95402D01*
X78932Y95969D01*
X80631D01*
X77232Y92570D02*
Y94836D01*
X76099Y95969D01*
X74966Y94836D01*
Y92570D01*
Y94269D01*
X77232D01*
X80914Y82102D02*
X81481Y82669D01*
X82613D01*
X83180Y82102D01*
Y81536D01*
X82613Y80969D01*
X81481D01*
X80914Y80403D01*
Y79836D01*
X81481Y79270D01*
X82613D01*
X83180Y79836D01*
X77515Y82102D02*
X78082Y82669D01*
X79215D01*
X79781Y82102D01*
Y79836D01*
X79215Y79270D01*
X78082D01*
X77515Y79836D01*
X76382Y82669D02*
Y79270D01*
X74116D01*
X59271Y127641D02*
Y124242D01*
X60404Y127641D02*
X58137D01*
X55628D02*
X57733D01*
Y124242D01*
X55628D01*
X57733Y126023D02*
X56438D01*
X55062Y127641D02*
Y124242D01*
Y127641D02*
X53767Y124242D01*
X52472Y127641D02*
X53767Y124242D01*
X52472Y127641D02*
Y124242D01*
X51501Y125861D02*
X50044D01*
X49558Y126023D01*
X49396Y126184D01*
X49235Y126508D01*
Y126994D01*
X49396Y127318D01*
X49558Y127479D01*
X50044Y127641D01*
X51501D01*
Y124242D01*
X74279Y267707D02*
X74603Y268031D01*
X75089Y268193D01*
X75736D01*
X76222Y268031D01*
X76545Y267707D01*
Y267383D01*
X76384Y267059D01*
X76222Y266898D01*
X75898Y266736D01*
X74927Y266412D01*
X74603Y266250D01*
X74441Y266088D01*
X74279Y265764D01*
Y265279D01*
X74603Y264955D01*
X75089Y264793D01*
X75736D01*
X76222Y264955D01*
X76545Y265279D01*
X73518Y268193D02*
Y264793D01*
X71252Y268193D02*
Y264793D01*
X73518Y266574D02*
X71252D01*
X69342Y268193D02*
X69666Y268031D01*
X69990Y267707D01*
X70152Y267383D01*
X70313Y266898D01*
Y266088D01*
X70152Y265603D01*
X69990Y265279D01*
X69666Y264955D01*
X69342Y264793D01*
X68695D01*
X68371Y264955D01*
X68047Y265279D01*
X67885Y265603D01*
X67723Y266088D01*
Y266898D01*
X67885Y267383D01*
X68047Y267707D01*
X68371Y268031D01*
X68695Y268193D01*
X69342D01*
X64502Y267383D02*
X64664Y267707D01*
X64988Y268031D01*
X65312Y268193D01*
X65959D01*
X66283Y268031D01*
X66606Y267707D01*
X66768Y267383D01*
X66930Y266898D01*
Y266088D01*
X66768Y265603D01*
X66606Y265279D01*
X66283Y264955D01*
X65959Y264793D01*
X65312D01*
X64988Y264955D01*
X64664Y265279D01*
X64502Y265603D01*
X63547Y268193D02*
Y264793D01*
X61281Y268193D02*
X63547Y265926D01*
X62738Y266736D02*
X61281Y264793D01*
X42389Y293691D02*
X42713Y294015D01*
X43199Y294177D01*
X43846D01*
X44332Y294015D01*
X44656Y293691D01*
Y293367D01*
X44494Y293044D01*
X44332Y292882D01*
X44008Y292720D01*
X43037Y292396D01*
X42713Y292234D01*
X42551Y292072D01*
X42389Y291749D01*
Y291263D01*
X42713Y290939D01*
X43199Y290777D01*
X43846D01*
X44332Y290939D01*
X44656Y291263D01*
X41629Y294177D02*
Y290777D01*
X39362Y294177D02*
Y290777D01*
X41629Y292558D02*
X39362D01*
X37452Y294177D02*
X37776Y294015D01*
X38100Y293691D01*
X38262Y293367D01*
X38424Y292882D01*
Y292072D01*
X38262Y291587D01*
X38100Y291263D01*
X37776Y290939D01*
X37452Y290777D01*
X36805D01*
X36481Y290939D01*
X36157Y291263D01*
X35996Y291587D01*
X35834Y292072D01*
Y292882D01*
X35996Y293367D01*
X36157Y293691D01*
X36481Y294015D01*
X36805Y294177D01*
X37452D01*
X32612Y293367D02*
X32774Y293691D01*
X33098Y294015D01*
X33422Y294177D01*
X34069D01*
X34393Y294015D01*
X34717Y293691D01*
X34879Y293367D01*
X35041Y292882D01*
Y292072D01*
X34879Y291587D01*
X34717Y291263D01*
X34393Y290939D01*
X34069Y290777D01*
X33422D01*
X33098Y290939D01*
X32774Y291263D01*
X32612Y291587D01*
X31657Y294177D02*
Y290777D01*
X29391Y294177D02*
X31657Y291911D01*
X30848Y292720D02*
X29391Y290777D01*
X23693Y293691D02*
X24017Y294015D01*
X24503Y294177D01*
X25150D01*
X25636Y294015D01*
X25960Y293691D01*
Y293367D01*
X25798Y293044D01*
X25636Y292882D01*
X25312Y292720D01*
X24341Y292396D01*
X24017Y292234D01*
X23855Y292072D01*
X23693Y291749D01*
Y291263D01*
X24017Y290939D01*
X24503Y290777D01*
X25150D01*
X25636Y290939D01*
X25960Y291263D01*
X22933Y293529D02*
X22609Y293691D01*
X22123Y294177D01*
Y290777D01*
X42389Y303534D02*
X42713Y303857D01*
X43199Y304019D01*
X43846D01*
X44332Y303857D01*
X44656Y303534D01*
Y303210D01*
X44494Y302886D01*
X44332Y302724D01*
X44008Y302562D01*
X43037Y302239D01*
X42713Y302077D01*
X42551Y301915D01*
X42389Y301591D01*
Y301106D01*
X42713Y300782D01*
X43199Y300620D01*
X43846D01*
X44332Y300782D01*
X44656Y301106D01*
X41629Y304019D02*
Y300620D01*
X39362Y304019D02*
Y300620D01*
X41629Y302401D02*
X39362D01*
X37452Y304019D02*
X37776Y303857D01*
X38100Y303534D01*
X38262Y303210D01*
X38424Y302724D01*
Y301915D01*
X38262Y301429D01*
X38100Y301106D01*
X37776Y300782D01*
X37452Y300620D01*
X36805D01*
X36481Y300782D01*
X36157Y301106D01*
X35996Y301429D01*
X35834Y301915D01*
Y302724D01*
X35996Y303210D01*
X36157Y303534D01*
X36481Y303857D01*
X36805Y304019D01*
X37452D01*
X32612Y303210D02*
X32774Y303534D01*
X33098Y303857D01*
X33422Y304019D01*
X34069D01*
X34393Y303857D01*
X34717Y303534D01*
X34879Y303210D01*
X35041Y302724D01*
Y301915D01*
X34879Y301429D01*
X34717Y301106D01*
X34393Y300782D01*
X34069Y300620D01*
X33422D01*
X33098Y300782D01*
X32774Y301106D01*
X32612Y301429D01*
X31657Y304019D02*
Y300620D01*
X29391Y304019D02*
X31657Y301753D01*
X30848Y302562D02*
X29391Y300620D01*
X23693Y303534D02*
X24017Y303857D01*
X24503Y304019D01*
X25150D01*
X25636Y303857D01*
X25960Y303534D01*
Y303210D01*
X25798Y302886D01*
X25636Y302724D01*
X25312Y302562D01*
X24341Y302239D01*
X24017Y302077D01*
X23855Y301915D01*
X23693Y301591D01*
Y301106D01*
X24017Y300782D01*
X24503Y300620D01*
X25150D01*
X25636Y300782D01*
X25960Y301106D01*
X21961Y304019D02*
X22447Y303857D01*
X22771Y303372D01*
X22933Y302562D01*
Y302077D01*
X22771Y301268D01*
X22447Y300782D01*
X21961Y300620D01*
X21638D01*
X21152Y300782D01*
X20828Y301268D01*
X20666Y302077D01*
Y302562D01*
X20828Y303372D01*
X21152Y303857D01*
X21638Y304019D01*
X21961D01*
X43523Y313862D02*
Y310462D01*
X44656Y313862D02*
X42389D01*
X39880D02*
X41985D01*
Y310462D01*
X39880D01*
X41985Y312243D02*
X40690D01*
X39314Y313862D02*
Y310462D01*
Y313862D02*
X38019Y310462D01*
X36724Y313862D02*
X38019Y310462D01*
X36724Y313862D02*
Y310462D01*
X35753Y312081D02*
X34296D01*
X33810Y312243D01*
X33648Y312405D01*
X33487Y312729D01*
Y313214D01*
X33648Y313538D01*
X33810Y313700D01*
X34296Y313862D01*
X35753D01*
Y310462D01*
X27789Y313376D02*
X28113Y313700D01*
X28598Y313862D01*
X29245D01*
X29731Y313700D01*
X30055Y313376D01*
Y313052D01*
X29893Y312729D01*
X29731Y312567D01*
X29407Y312405D01*
X28436Y312081D01*
X28113Y311919D01*
X27951Y311757D01*
X27789Y311434D01*
Y310948D01*
X28113Y310624D01*
X28598Y310462D01*
X29245D01*
X29731Y310624D01*
X30055Y310948D01*
X26866Y313052D02*
Y313214D01*
X26704Y313538D01*
X26542Y313700D01*
X26219Y313862D01*
X25571D01*
X25247Y313700D01*
X25085Y313538D01*
X24924Y313214D01*
Y312891D01*
X25085Y312567D01*
X25409Y312081D01*
X27028Y310462D01*
X24762D01*
X43523Y324098D02*
Y320699D01*
X44656Y324098D02*
X42389D01*
X39880D02*
X41985D01*
Y320699D01*
X39880D01*
X41985Y322479D02*
X40690D01*
X39314Y324098D02*
Y320699D01*
Y324098D02*
X38019Y320699D01*
X36724Y324098D02*
X38019Y320699D01*
X36724Y324098D02*
Y320699D01*
X35753Y322317D02*
X34296D01*
X33810Y322479D01*
X33648Y322641D01*
X33487Y322965D01*
Y323450D01*
X33648Y323774D01*
X33810Y323936D01*
X34296Y324098D01*
X35753D01*
Y320699D01*
X27789Y323612D02*
X28113Y323936D01*
X28598Y324098D01*
X29245D01*
X29731Y323936D01*
X30055Y323612D01*
Y323289D01*
X29893Y322965D01*
X29731Y322803D01*
X29407Y322641D01*
X28436Y322317D01*
X28113Y322156D01*
X27951Y321994D01*
X27789Y321670D01*
Y321184D01*
X28113Y320861D01*
X28598Y320699D01*
X29245D01*
X29731Y320861D01*
X30055Y321184D01*
X27028Y323450D02*
X26704Y323612D01*
X26219Y324098D01*
Y320699D01*
X43523Y333547D02*
Y330148D01*
X44656Y333547D02*
X42389D01*
X39880D02*
X41985D01*
Y330148D01*
X39880D01*
X41985Y331928D02*
X40690D01*
X39314Y333547D02*
Y330148D01*
Y333547D02*
X38019Y330148D01*
X36724Y333547D02*
X38019Y330148D01*
X36724Y333547D02*
Y330148D01*
X35753Y331766D02*
X34296D01*
X33810Y331928D01*
X33648Y332090D01*
X33487Y332414D01*
Y332899D01*
X33648Y333223D01*
X33810Y333385D01*
X34296Y333547D01*
X35753D01*
Y330148D01*
X27789Y333061D02*
X28113Y333385D01*
X28598Y333547D01*
X29245D01*
X29731Y333385D01*
X30055Y333061D01*
Y332737D01*
X29893Y332414D01*
X29731Y332252D01*
X29407Y332090D01*
X28436Y331766D01*
X28113Y331604D01*
X27951Y331442D01*
X27789Y331119D01*
Y330633D01*
X28113Y330309D01*
X28598Y330148D01*
X29245D01*
X29731Y330309D01*
X30055Y330633D01*
X26057Y333547D02*
X26542Y333385D01*
X26866Y332899D01*
X27028Y332090D01*
Y331604D01*
X26866Y330795D01*
X26542Y330309D01*
X26057Y330148D01*
X25733D01*
X25247Y330309D01*
X24924Y330795D01*
X24762Y331604D01*
Y332090D01*
X24924Y332899D01*
X25247Y333385D01*
X25733Y333547D01*
X26057D01*
X41864Y353734D02*
X42188Y354057D01*
X42673Y354219D01*
X43321D01*
X43806Y354057D01*
X44130Y353734D01*
Y353410D01*
X43968Y353086D01*
X43806Y352924D01*
X43483Y352762D01*
X42511Y352439D01*
X42188Y352277D01*
X42026Y352115D01*
X41864Y351791D01*
Y351306D01*
X42188Y350982D01*
X42673Y350820D01*
X43321D01*
X43806Y350982D01*
X44130Y351306D01*
X38675Y353410D02*
X38837Y353734D01*
X39161Y354057D01*
X39484Y354219D01*
X40132D01*
X40455Y354057D01*
X40779Y353734D01*
X40941Y353410D01*
X41103Y352924D01*
Y352115D01*
X40941Y351629D01*
X40779Y351306D01*
X40455Y350982D01*
X40132Y350820D01*
X39484D01*
X39161Y350982D01*
X38837Y351306D01*
X38675Y351629D01*
X37720Y354219D02*
Y350820D01*
X35778D01*
X42364Y344084D02*
X42688Y344407D01*
X43173Y344569D01*
X43821D01*
X44306Y344407D01*
X44630Y344084D01*
Y343760D01*
X44468Y343436D01*
X44306Y343274D01*
X43982Y343112D01*
X43011Y342789D01*
X42688Y342627D01*
X42526Y342465D01*
X42364Y342141D01*
Y341656D01*
X42688Y341332D01*
X43173Y341170D01*
X43821D01*
X44306Y341332D01*
X44630Y341656D01*
X41603Y344569D02*
Y341170D01*
Y344569D02*
X40470D01*
X39984Y344407D01*
X39661Y344084D01*
X39499Y343760D01*
X39337Y343274D01*
Y342465D01*
X39499Y341979D01*
X39661Y341656D01*
X39984Y341332D01*
X40470Y341170D01*
X41603D01*
X35986D02*
X37281Y344569D01*
X38576Y341170D01*
X38090Y342303D02*
X36472D01*
X43475Y364255D02*
Y360856D01*
Y364255D02*
X42018D01*
X41532Y364094D01*
X41370Y363932D01*
X41208Y363608D01*
Y363284D01*
X41370Y362961D01*
X41532Y362799D01*
X42018Y362637D01*
X43475D01*
X42341D02*
X41208Y360856D01*
X40448Y364255D02*
X38181Y360856D01*
Y364255D02*
X40448Y360856D01*
X43129Y373704D02*
Y370305D01*
X44262Y373704D02*
X41996D01*
X41591D02*
X39325Y370305D01*
Y373704D02*
X41591Y370305D01*
X89452Y405460D02*
X89614Y405784D01*
X89938Y406107D01*
X90261Y406269D01*
X90909D01*
X91233Y406107D01*
X91556Y405784D01*
X91718Y405460D01*
X91880Y404974D01*
Y404165D01*
X91718Y403679D01*
X91556Y403356D01*
X91233Y403032D01*
X90909Y402870D01*
X90261D01*
X89938Y403032D01*
X89614Y403356D01*
X89452Y403679D01*
Y404165D01*
X90261D02*
X89452D01*
X88675Y406269D02*
Y402870D01*
Y406269D02*
X86409Y402870D01*
Y406269D02*
Y402870D01*
X85470Y406269D02*
Y402870D01*
Y406269D02*
X84337D01*
X83851Y406107D01*
X83527Y405784D01*
X83366Y405460D01*
X83204Y404974D01*
Y404165D01*
X83366Y403679D01*
X83527Y403356D01*
X83851Y403032D01*
X84337Y402870D01*
X85470D01*
X54432Y158328D02*
X54594Y158652D01*
X54918Y158976D01*
X55242Y159137D01*
X55889D01*
X56213Y158976D01*
X56537Y158652D01*
X56698Y158328D01*
X56860Y157842D01*
Y157033D01*
X56698Y156547D01*
X56537Y156224D01*
X56213Y155900D01*
X55889Y155738D01*
X55242D01*
X54918Y155900D01*
X54594Y156224D01*
X54432Y156547D01*
Y157033D01*
X55242D02*
X54432D01*
X53655Y159137D02*
Y155738D01*
Y159137D02*
X51389Y155738D01*
Y159137D02*
Y155738D01*
X50450Y159137D02*
Y155738D01*
Y159137D02*
X49317D01*
X48831Y158976D01*
X48508Y158652D01*
X48346Y158328D01*
X48184Y157842D01*
Y157033D01*
X48346Y156547D01*
X48508Y156224D01*
X48831Y155900D01*
X49317Y155738D01*
X50450D01*
X44358Y95578D02*
X44925Y96145D01*
X46058D01*
X46624Y95578D01*
Y93313D01*
X46058Y92746D01*
X44925D01*
X44358Y93313D01*
Y94445D01*
X45491D01*
X43225Y92746D02*
Y96145D01*
X40959Y92746D01*
Y96145D01*
X39826D02*
Y92746D01*
X38127D01*
X37560Y93313D01*
Y95578D01*
X38127Y96145D01*
X39826D01*
X43964Y57783D02*
X44531Y58350D01*
X45664D01*
X46230Y57783D01*
Y55517D01*
X45664Y54951D01*
X44531D01*
X43964Y55517D01*
Y56650D01*
X45097D01*
X42832Y54951D02*
Y58350D01*
X40566Y54951D01*
Y58350D01*
X39433D02*
Y54951D01*
X37733D01*
X37167Y55517D01*
Y57783D01*
X37733Y58350D01*
X39433D01*
X43571Y45357D02*
X45837D01*
Y43658D01*
X44704Y44225D01*
X44137D01*
X43571Y43658D01*
Y42525D01*
X44137Y41959D01*
X45270D01*
X45837Y42525D01*
X42438Y45357D02*
Y43092D01*
X41305Y41959D01*
X40172Y43092D01*
Y45357D01*
X44358Y81578D02*
X46624D01*
Y79878D01*
X45491Y80445D01*
X44925D01*
X44358Y79878D01*
Y78746D01*
X44925Y78179D01*
X46058D01*
X46624Y78746D01*
X43225Y81578D02*
Y79312D01*
X42092Y78179D01*
X40959Y79312D01*
Y81578D01*
X50981Y190633D02*
X52600D01*
X52761Y189177D01*
X52600Y189339D01*
X52114Y189500D01*
X51628D01*
X51143Y189339D01*
X50819Y189015D01*
X50657Y188529D01*
Y188205D01*
X50819Y187720D01*
X51143Y187396D01*
X51628Y187234D01*
X52114D01*
X52600Y187396D01*
X52761Y187558D01*
X52923Y187882D01*
X49896Y190633D02*
X48601Y187234D01*
X47306Y190633D02*
X48601Y187234D01*
X77702Y406205D02*
X79321D01*
X79483Y404748D01*
X79321Y404910D01*
X78835Y405071D01*
X78350D01*
X77864Y404910D01*
X77540Y404586D01*
X77379Y404100D01*
Y403776D01*
X77540Y403291D01*
X77864Y402967D01*
X78350Y402805D01*
X78835D01*
X79321Y402967D01*
X79483Y403129D01*
X79645Y403453D01*
X76618Y406205D02*
X75323Y402805D01*
X74028Y406205D02*
X75323Y402805D01*
X63579Y227641D02*
X65198D01*
X65360Y226185D01*
X65198Y226346D01*
X64712Y226508D01*
X64227D01*
X63741Y226346D01*
X63417Y226023D01*
X63256Y225537D01*
Y225213D01*
X63417Y224728D01*
X63741Y224404D01*
X64227Y224242D01*
X64712D01*
X65198Y224404D01*
X65360Y224566D01*
X65522Y224889D01*
X62495Y227641D02*
X61200Y224242D01*
X59905Y227641D02*
X61200Y224242D01*
D17*
X154498Y42520D02*
X148594D01*
X154498D02*
Y44488D01*
X154217Y45331D01*
X153655Y45893D01*
X153092Y46175D01*
X152249Y46456D01*
X150843D01*
X150000Y46175D01*
X149437Y45893D01*
X148875Y45331D01*
X148594Y44488D01*
Y42520D01*
Y52276D02*
X154498Y50027D01*
X148594Y47777D01*
X150562Y48621D02*
Y51432D01*
X154498Y55340D02*
X154217Y54778D01*
X153655Y54216D01*
X153092Y53935D01*
X152249Y53653D01*
X150843D01*
X150000Y53935D01*
X149437Y54216D01*
X148875Y54778D01*
X148594Y55340D01*
Y56465D01*
X148875Y57027D01*
X149437Y57590D01*
X150000Y57871D01*
X150843Y58152D01*
X152249D01*
X153092Y57871D01*
X153655Y57590D01*
X154217Y57027D01*
X154498Y56465D01*
Y55340D01*
X149718Y56184D02*
X148031Y57871D01*
X154498Y64169D02*
X148594D01*
X154498D02*
Y66699D01*
X154217Y67542D01*
X153936Y67824D01*
X153373Y68105D01*
X152811D01*
X152249Y67824D01*
X151968Y67542D01*
X151687Y66699D01*
Y64169D02*
Y66699D01*
X151405Y67542D01*
X151124Y67824D01*
X150562Y68105D01*
X149718D01*
X149156Y67824D01*
X148875Y67542D01*
X148594Y66699D01*
Y64169D01*
X152530Y70832D02*
X152249Y70270D01*
X151687Y69707D01*
X150843Y69426D01*
X150281D01*
X149437Y69707D01*
X148875Y70270D01*
X148594Y70832D01*
Y71675D01*
X148875Y72238D01*
X149437Y72800D01*
X150281Y73081D01*
X150843D01*
X151687Y72800D01*
X152249Y72238D01*
X152530Y71675D01*
Y70832D01*
Y77748D02*
X148594D01*
X151687D02*
X152249Y77186D01*
X152530Y76624D01*
Y75780D01*
X152249Y75218D01*
X151687Y74656D01*
X150843Y74375D01*
X150281D01*
X149437Y74656D01*
X148875Y75218D01*
X148594Y75780D01*
Y76624D01*
X148875Y77186D01*
X149437Y77748D01*
X152530Y79323D02*
X148594D01*
X150843D02*
X151687Y79604D01*
X152249Y80166D01*
X152530Y80729D01*
Y81572D01*
X154498Y85480D02*
X148594D01*
X151687D02*
X152249Y84918D01*
X152530Y84355D01*
Y83512D01*
X152249Y82950D01*
X151687Y82387D01*
X150843Y82106D01*
X150281D01*
X149437Y82387D01*
X148875Y82950D01*
X148594Y83512D01*
Y84355D01*
X148875Y84918D01*
X149437Y85480D01*
X154498Y91694D02*
X148594D01*
X154498D02*
Y94224D01*
X154217Y95068D01*
X153936Y95349D01*
X153373Y95630D01*
X152811D01*
X152249Y95349D01*
X151968Y95068D01*
X151687Y94224D01*
Y91694D01*
Y93662D02*
X148594Y95630D01*
X150843Y96951D02*
Y100325D01*
X151405D01*
X151968Y100044D01*
X152249Y99763D01*
X152530Y99200D01*
Y98357D01*
X152249Y97795D01*
X151687Y97232D01*
X150843Y96951D01*
X150281D01*
X149437Y97232D01*
X148875Y97795D01*
X148594Y98357D01*
Y99200D01*
X148875Y99763D01*
X149437Y100325D01*
X152530Y101590D02*
X148594Y103277D01*
X152530Y104964D02*
X148594Y103277D01*
X153373Y110559D02*
X153655Y111121D01*
X154498Y111965D01*
X148594D01*
M02*
