G04*
G04 #@! TF.GenerationSoftware,Altium Limited,Altium Designer,20.2.6 (244)*
G04*
G04 Layer_Color=24703*
%FSLAX25Y25*%
%MOIN*%
G70*
G04*
G04 #@! TF.SameCoordinates,6014BA27-FBD2-41FC-A7C1-7B1D111333E3*
G04*
G04*
G04 #@! TF.FilePolarity,Positive*
G04*
G01*
G75*
%ADD14C,0.00620*%
D14*
X256001Y214011D02*
Y210792D01*
Y214011D02*
X257227Y210792D01*
X258453Y214011D02*
X257227Y210792D01*
X258453Y214011D02*
Y210792D01*
X259373Y214011D02*
Y210792D01*
X261519Y214011D02*
Y210792D01*
X259373Y212478D02*
X261519D01*
X263942Y214011D02*
X262409Y211865D01*
X264708D01*
X263942Y214011D02*
Y210792D01*
X237849Y33263D02*
Y30044D01*
Y33263D02*
X239075Y30044D01*
X240302Y33263D02*
X239075Y30044D01*
X240302Y33263D02*
Y30044D01*
X241221Y33263D02*
Y30044D01*
X243368Y33263D02*
Y30044D01*
X241221Y31730D02*
X243368D01*
X244564Y33263D02*
X246250D01*
X245330Y32037D01*
X245790D01*
X246096Y31883D01*
X246250Y31730D01*
X246403Y31270D01*
Y30964D01*
X246250Y30504D01*
X245943Y30197D01*
X245483Y30044D01*
X245023D01*
X244564Y30197D01*
X244410Y30351D01*
X244257Y30657D01*
X4051Y193184D02*
Y189965D01*
Y193184D02*
X5277Y189965D01*
X6503Y193184D02*
X5277Y189965D01*
X6503Y193184D02*
Y189965D01*
X7423Y193184D02*
Y189965D01*
X9569Y193184D02*
Y189965D01*
X7423Y191651D02*
X9569D01*
X10458Y192571D02*
X10765Y192725D01*
X11225Y193184D01*
Y189965D01*
X2200Y31819D02*
Y28600D01*
Y31819D02*
X3426Y28600D01*
X4653Y31819D02*
X3426Y28600D01*
X4653Y31819D02*
Y28600D01*
X5573Y31819D02*
Y28600D01*
X7719Y31819D02*
Y28600D01*
X5573Y30286D02*
X7719D01*
X8761Y31053D02*
Y31206D01*
X8915Y31513D01*
X9068Y31666D01*
X9375Y31819D01*
X9988D01*
X10294Y31666D01*
X10448Y31513D01*
X10601Y31206D01*
Y30900D01*
X10448Y30593D01*
X10141Y30133D01*
X8608Y28600D01*
X10754D01*
M02*
