G04*
G04 #@! TF.GenerationSoftware,Altium Limited,Altium Designer,20.2.6 (244)*
G04*
G04 Layer_Physical_Order=2*
G04 Layer_Color=16711680*
%FSLAX25Y25*%
%MOIN*%
G70*
G04*
G04 #@! TF.SameCoordinates,6014BA27-FBD2-41FC-A7C1-7B1D111333E3*
G04*
G04*
G04 #@! TF.FilePolarity,Positive*
G04*
G01*
G75*
%ADD44C,0.01000*%
%ADD45C,0.00600*%
%ADD46C,0.01600*%
%ADD48C,0.03937*%
%ADD49C,0.23819*%
%ADD50C,0.06693*%
%ADD51C,0.06791*%
%ADD52R,0.06791X0.06791*%
%ADD53C,0.02953*%
G36*
X335219Y219455D02*
X336864Y219018D01*
X338438Y218369D01*
X339913Y217519D01*
X341264Y216484D01*
X342468Y215280D01*
X343503Y213929D01*
X344353Y212454D01*
X345002Y210880D01*
X345439Y209235D01*
X345657Y207547D01*
X345654Y206696D01*
X345654Y206694D01*
X345654Y206693D01*
X345654Y13780D01*
X345654Y13778D01*
X345654Y13777D01*
X345657Y12926D01*
X345439Y11238D01*
X345002Y9592D01*
X344353Y8019D01*
X343503Y6543D01*
X342468Y5192D01*
X341264Y3989D01*
X339913Y2953D01*
X338438Y2104D01*
X336864Y1455D01*
X335219Y1018D01*
X333531Y800D01*
X332680Y803D01*
X332678Y802D01*
X332677Y803D01*
X245515D01*
X245456Y1303D01*
X246128Y1464D01*
X248005Y2242D01*
X249737Y3303D01*
X251283Y4623D01*
X252602Y6168D01*
X253664Y7901D01*
X254442Y9778D01*
X254916Y11754D01*
X255044Y13379D01*
X229208D01*
X229336Y11754D01*
X229810Y9778D01*
X230588Y7901D01*
X231650Y6168D01*
X232969Y4623D01*
X234514Y3303D01*
X236247Y2242D01*
X238124Y1464D01*
X238796Y1303D01*
X238737Y803D01*
X17169D01*
X17110Y1303D01*
X17781Y1464D01*
X19658Y2242D01*
X21391Y3303D01*
X22936Y4623D01*
X24256Y6168D01*
X25317Y7901D01*
X26095Y9778D01*
X26570Y11754D01*
X26697Y13379D01*
X13780D01*
Y13780D01*
X13379D01*
Y26697D01*
X11754Y26570D01*
X9778Y26095D01*
X7901Y25317D01*
X6168Y24256D01*
X4623Y22936D01*
X3303Y21391D01*
X2242Y19658D01*
X1464Y17781D01*
X1303Y17110D01*
X803Y17169D01*
Y203304D01*
X1303Y203363D01*
X1464Y202691D01*
X2242Y200814D01*
X3303Y199082D01*
X4623Y197536D01*
X6168Y196217D01*
X7901Y195155D01*
X9778Y194377D01*
X11754Y193903D01*
X13379Y193775D01*
Y206693D01*
X13780D01*
Y207093D01*
X26697D01*
X26570Y208719D01*
X26095Y210695D01*
X25317Y212572D01*
X24256Y214304D01*
X22936Y215849D01*
X21391Y217169D01*
X19658Y218231D01*
X17781Y219008D01*
X17110Y219170D01*
X17169Y219670D01*
X238737Y219670D01*
X238796Y219170D01*
X238124Y219008D01*
X236247Y218231D01*
X234514Y217169D01*
X232969Y215849D01*
X231650Y214304D01*
X230588Y212572D01*
X229810Y210695D01*
X229336Y208719D01*
X229208Y207093D01*
X255044D01*
X254916Y208719D01*
X254442Y210695D01*
X253664Y212572D01*
X252602Y214304D01*
X251283Y215849D01*
X249737Y217169D01*
X248005Y218231D01*
X246128Y219008D01*
X245456Y219170D01*
X245515Y219670D01*
X332677D01*
X332678Y219670D01*
X332680Y219670D01*
X333531Y219672D01*
X335219Y219455D01*
D02*
G37*
%LPC*%
G36*
X193353Y216070D02*
Y212089D01*
X197334D01*
X197235Y212837D01*
X196792Y213906D01*
X196088Y214824D01*
X195170Y215529D01*
X194100Y215971D01*
X193353Y216070D01*
D02*
G37*
G36*
X173353D02*
Y212089D01*
X177334D01*
X177235Y212837D01*
X176792Y213906D01*
X176088Y214824D01*
X175170Y215529D01*
X174100Y215971D01*
X173353Y216070D01*
D02*
G37*
G36*
X123353D02*
Y212089D01*
X127334D01*
X127235Y212837D01*
X126792Y213906D01*
X126088Y214824D01*
X125170Y215529D01*
X124100Y215971D01*
X123353Y216070D01*
D02*
G37*
G36*
X93353D02*
Y212089D01*
X97334D01*
X97235Y212837D01*
X96792Y213906D01*
X96088Y214824D01*
X95170Y215529D01*
X94100Y215971D01*
X93353Y216070D01*
D02*
G37*
G36*
X53353D02*
Y212089D01*
X57334D01*
X57235Y212837D01*
X56792Y213906D01*
X56088Y214824D01*
X55170Y215529D01*
X54100Y215971D01*
X53353Y216070D01*
D02*
G37*
G36*
X52553D02*
X51805Y215971D01*
X50736Y215529D01*
X49818Y214824D01*
X49113Y213906D01*
X48670Y212837D01*
X48572Y212089D01*
X52553D01*
Y216070D01*
D02*
G37*
G36*
X192553D02*
X191805Y215971D01*
X190736Y215529D01*
X189818Y214824D01*
X189113Y213906D01*
X188670Y212837D01*
X188572Y212089D01*
X192553D01*
Y216070D01*
D02*
G37*
G36*
X172553D02*
X171805Y215971D01*
X170736Y215529D01*
X169818Y214824D01*
X169113Y213906D01*
X168670Y212837D01*
X168572Y212089D01*
X172553D01*
Y216070D01*
D02*
G37*
G36*
X122553D02*
X121805Y215971D01*
X120736Y215529D01*
X119818Y214824D01*
X119113Y213906D01*
X118670Y212837D01*
X118572Y212089D01*
X122553D01*
Y216070D01*
D02*
G37*
G36*
X92553D02*
X91805Y215971D01*
X90736Y215529D01*
X89818Y214824D01*
X89113Y213906D01*
X88670Y212837D01*
X88572Y212089D01*
X92553D01*
Y216070D01*
D02*
G37*
G36*
X222953Y215618D02*
X221936Y215484D01*
X220988Y215092D01*
X220174Y214467D01*
X219550Y213654D01*
X219157Y212706D01*
X219023Y211689D01*
X219157Y210672D01*
X219550Y209724D01*
X220174Y208911D01*
X220988Y208286D01*
X221936Y207894D01*
X222953Y207760D01*
X223970Y207894D01*
X224917Y208286D01*
X225731Y208911D01*
X226356Y209724D01*
X226748Y210672D01*
X226882Y211689D01*
X226748Y212706D01*
X226356Y213654D01*
X225731Y214467D01*
X224917Y215092D01*
X223970Y215484D01*
X222953Y215618D01*
D02*
G37*
G36*
X212953D02*
X211936Y215484D01*
X210988Y215092D01*
X210174Y214467D01*
X209550Y213654D01*
X209157Y212706D01*
X209023Y211689D01*
X209157Y210672D01*
X209550Y209724D01*
X210174Y208911D01*
X210988Y208286D01*
X211936Y207894D01*
X212953Y207760D01*
X213970Y207894D01*
X214917Y208286D01*
X215731Y208911D01*
X216356Y209724D01*
X216748Y210672D01*
X216882Y211689D01*
X216748Y212706D01*
X216356Y213654D01*
X215731Y214467D01*
X214917Y215092D01*
X213970Y215484D01*
X212953Y215618D01*
D02*
G37*
G36*
X202953D02*
X201936Y215484D01*
X200988Y215092D01*
X200174Y214467D01*
X199550Y213654D01*
X199157Y212706D01*
X199023Y211689D01*
X199157Y210672D01*
X199550Y209724D01*
X200174Y208911D01*
X200988Y208286D01*
X201936Y207894D01*
X202953Y207760D01*
X203970Y207894D01*
X204917Y208286D01*
X205731Y208911D01*
X206356Y209724D01*
X206748Y210672D01*
X206882Y211689D01*
X206748Y212706D01*
X206356Y213654D01*
X205731Y214467D01*
X204917Y215092D01*
X203970Y215484D01*
X202953Y215618D01*
D02*
G37*
G36*
X182953D02*
X181936Y215484D01*
X180988Y215092D01*
X180174Y214467D01*
X179550Y213654D01*
X179157Y212706D01*
X179024Y211689D01*
X179157Y210672D01*
X179550Y209724D01*
X180174Y208911D01*
X180988Y208286D01*
X181936Y207894D01*
X182953Y207760D01*
X183970Y207894D01*
X184917Y208286D01*
X185731Y208911D01*
X186356Y209724D01*
X186748Y210672D01*
X186882Y211689D01*
X186748Y212706D01*
X186356Y213654D01*
X185731Y214467D01*
X184917Y215092D01*
X183970Y215484D01*
X182953Y215618D01*
D02*
G37*
G36*
X162953D02*
X161936Y215484D01*
X160988Y215092D01*
X160174Y214467D01*
X159550Y213654D01*
X159157Y212706D01*
X159023Y211689D01*
X159157Y210672D01*
X159550Y209724D01*
X160174Y208911D01*
X160988Y208286D01*
X161936Y207894D01*
X162953Y207760D01*
X163970Y207894D01*
X164917Y208286D01*
X165731Y208911D01*
X166356Y209724D01*
X166748Y210672D01*
X166882Y211689D01*
X166748Y212706D01*
X166356Y213654D01*
X165731Y214467D01*
X164917Y215092D01*
X163970Y215484D01*
X162953Y215618D01*
D02*
G37*
G36*
X152953D02*
X151936Y215484D01*
X150988Y215092D01*
X150174Y214467D01*
X149550Y213654D01*
X149157Y212706D01*
X149023Y211689D01*
X149157Y210672D01*
X149550Y209724D01*
X150174Y208911D01*
X150988Y208286D01*
X151936Y207894D01*
X152953Y207760D01*
X153970Y207894D01*
X154917Y208286D01*
X155731Y208911D01*
X156356Y209724D01*
X156748Y210672D01*
X156882Y211689D01*
X156748Y212706D01*
X156356Y213654D01*
X155731Y214467D01*
X154917Y215092D01*
X153970Y215484D01*
X152953Y215618D01*
D02*
G37*
G36*
X142953D02*
X141936Y215484D01*
X140988Y215092D01*
X140174Y214467D01*
X139550Y213654D01*
X139157Y212706D01*
X139023Y211689D01*
X139157Y210672D01*
X139550Y209724D01*
X140174Y208911D01*
X140988Y208286D01*
X141936Y207894D01*
X142953Y207760D01*
X143970Y207894D01*
X144917Y208286D01*
X145731Y208911D01*
X146356Y209724D01*
X146748Y210672D01*
X146882Y211689D01*
X146748Y212706D01*
X146356Y213654D01*
X145731Y214467D01*
X144917Y215092D01*
X143970Y215484D01*
X142953Y215618D01*
D02*
G37*
G36*
X132953D02*
X131936Y215484D01*
X130988Y215092D01*
X130174Y214467D01*
X129550Y213654D01*
X129157Y212706D01*
X129024Y211689D01*
X129157Y210672D01*
X129550Y209724D01*
X130174Y208911D01*
X130988Y208286D01*
X131936Y207894D01*
X132953Y207760D01*
X133970Y207894D01*
X134917Y208286D01*
X135731Y208911D01*
X136356Y209724D01*
X136748Y210672D01*
X136882Y211689D01*
X136748Y212706D01*
X136356Y213654D01*
X135731Y214467D01*
X134917Y215092D01*
X133970Y215484D01*
X132953Y215618D01*
D02*
G37*
G36*
X112953D02*
X111936Y215484D01*
X110988Y215092D01*
X110174Y214467D01*
X109550Y213654D01*
X109157Y212706D01*
X109023Y211689D01*
X109157Y210672D01*
X109550Y209724D01*
X110174Y208911D01*
X110988Y208286D01*
X111936Y207894D01*
X112953Y207760D01*
X113970Y207894D01*
X114917Y208286D01*
X115731Y208911D01*
X116356Y209724D01*
X116748Y210672D01*
X116882Y211689D01*
X116748Y212706D01*
X116356Y213654D01*
X115731Y214467D01*
X114917Y215092D01*
X113970Y215484D01*
X112953Y215618D01*
D02*
G37*
G36*
X102953D02*
X101936Y215484D01*
X100988Y215092D01*
X100174Y214467D01*
X99550Y213654D01*
X99157Y212706D01*
X99023Y211689D01*
X99157Y210672D01*
X99550Y209724D01*
X100174Y208911D01*
X100988Y208286D01*
X101936Y207894D01*
X102953Y207760D01*
X103970Y207894D01*
X104917Y208286D01*
X105731Y208911D01*
X106356Y209724D01*
X106748Y210672D01*
X106882Y211689D01*
X106748Y212706D01*
X106356Y213654D01*
X105731Y214467D01*
X104917Y215092D01*
X103970Y215484D01*
X102953Y215618D01*
D02*
G37*
G36*
X82953D02*
X81936Y215484D01*
X80988Y215092D01*
X80174Y214467D01*
X79550Y213654D01*
X79157Y212706D01*
X79023Y211689D01*
X79157Y210672D01*
X79550Y209724D01*
X79673Y209563D01*
X77381Y207271D01*
X77204Y207006D01*
X77142Y206694D01*
X77142Y206694D01*
Y204271D01*
X76642Y204101D01*
X76088Y204824D01*
X75170Y205529D01*
X74100Y205972D01*
X73353Y206070D01*
Y201689D01*
Y197308D01*
X74100Y197406D01*
X75170Y197849D01*
X76088Y198554D01*
X76642Y199276D01*
X77142Y199107D01*
Y136918D01*
X64938Y124713D01*
X20583D01*
X20554Y124861D01*
X20008Y125677D01*
X19192Y126223D01*
X18228Y126415D01*
X17265Y126223D01*
X16449Y125677D01*
X15903Y124861D01*
X15711Y123898D01*
X15903Y122934D01*
X16449Y122118D01*
X16605Y122014D01*
X16563Y121440D01*
X16111Y121093D01*
X15635Y120473D01*
X15336Y119751D01*
X15287Y119376D01*
X18228D01*
X21170D01*
X21120Y119751D01*
X20821Y120473D01*
X20346Y121093D01*
X19894Y121440D01*
X19852Y122014D01*
X20008Y122118D01*
X20554Y122934D01*
X20583Y123082D01*
X65276D01*
X65276Y123082D01*
X65588Y123144D01*
X65852Y123321D01*
X78535Y136003D01*
X78535Y136003D01*
X78711Y136268D01*
X78774Y136580D01*
X78774Y136580D01*
Y200292D01*
X79274Y200392D01*
X79550Y199724D01*
X80174Y198910D01*
X80988Y198286D01*
X81936Y197894D01*
X82137Y197867D01*
Y129983D01*
X70764Y118611D01*
X40157D01*
X40157Y118611D01*
X39845Y118549D01*
X39581Y118372D01*
X39581Y118372D01*
X23481Y102272D01*
X20583D01*
X20554Y102420D01*
X20008Y103236D01*
X19192Y103782D01*
X18228Y103974D01*
X17265Y103782D01*
X16449Y103236D01*
X15903Y102420D01*
X15711Y101457D01*
X15903Y100494D01*
X16449Y99677D01*
X16605Y99573D01*
X16563Y98999D01*
X16111Y98653D01*
X15635Y98032D01*
X15336Y97310D01*
X15287Y96935D01*
X18228D01*
X21170D01*
X21120Y97310D01*
X20821Y98032D01*
X20346Y98653D01*
X19894Y98999D01*
X19852Y99573D01*
X20008Y99677D01*
X20554Y100494D01*
X20583Y100641D01*
X23819D01*
X23819Y100641D01*
X24131Y100703D01*
X24396Y100880D01*
X40495Y116980D01*
X71102D01*
X71102Y116980D01*
X71415Y117042D01*
X71679Y117218D01*
X83530Y129069D01*
X83530Y129069D01*
X83706Y129333D01*
X83768Y129646D01*
X83768Y129646D01*
Y197867D01*
X83970Y197894D01*
X84917Y198286D01*
X85731Y198910D01*
X86356Y199724D01*
X86748Y200672D01*
X86882Y201689D01*
X86748Y202706D01*
X86356Y203654D01*
X85731Y204467D01*
X84917Y205092D01*
X83970Y205484D01*
X82953Y205618D01*
X81936Y205484D01*
X80988Y205092D01*
X80174Y204467D01*
X79550Y203654D01*
X79274Y202987D01*
X78774Y203086D01*
Y206356D01*
X80827Y208410D01*
X80988Y208286D01*
X81936Y207894D01*
X82953Y207760D01*
X83970Y207894D01*
X84917Y208286D01*
X85731Y208911D01*
X86356Y209724D01*
X86748Y210672D01*
X86882Y211689D01*
X86748Y212706D01*
X86356Y213654D01*
X85731Y214467D01*
X84917Y215092D01*
X83970Y215484D01*
X82953Y215618D01*
D02*
G37*
G36*
X72953D02*
X71936Y215484D01*
X70988Y215092D01*
X70174Y214467D01*
X69550Y213654D01*
X69157Y212706D01*
X69024Y211689D01*
X69157Y210672D01*
X69550Y209724D01*
X69674Y209563D01*
X67381Y207271D01*
X67204Y207006D01*
X67142Y206694D01*
X67142Y206694D01*
Y203061D01*
X66642Y202962D01*
X66356Y203654D01*
X65731Y204467D01*
X64917Y205092D01*
X63970Y205484D01*
X62953Y205618D01*
X61936Y205484D01*
X60988Y205092D01*
X60174Y204467D01*
X59550Y203654D01*
X59274Y202987D01*
X58774Y203086D01*
Y206356D01*
X60827Y208410D01*
X60988Y208286D01*
X61936Y207894D01*
X62953Y207760D01*
X63970Y207894D01*
X64917Y208286D01*
X65731Y208911D01*
X66356Y209724D01*
X66748Y210672D01*
X66882Y211689D01*
X66748Y212706D01*
X66356Y213654D01*
X65731Y214467D01*
X64917Y215092D01*
X63970Y215484D01*
X62953Y215618D01*
X61936Y215484D01*
X60988Y215092D01*
X60174Y214467D01*
X59550Y213654D01*
X59157Y212706D01*
X59023Y211689D01*
X59157Y210672D01*
X59550Y209724D01*
X59674Y209563D01*
X57381Y207271D01*
X57204Y207006D01*
X57142Y206694D01*
X57142Y206694D01*
Y203061D01*
X56642Y202962D01*
X56356Y203654D01*
X55731Y204467D01*
X54917Y205092D01*
X53970Y205484D01*
X52953Y205618D01*
X51936Y205484D01*
X50988Y205092D01*
X50174Y204467D01*
X49550Y203654D01*
X49157Y202706D01*
X49024Y201689D01*
X49157Y200672D01*
X49550Y199724D01*
X50174Y198910D01*
X50988Y198286D01*
X51936Y197894D01*
X52953Y197760D01*
X53970Y197894D01*
X54917Y198286D01*
X55731Y198910D01*
X56356Y199724D01*
X56642Y200416D01*
X57142Y200317D01*
Y193302D01*
X57142Y193302D01*
X57204Y192990D01*
X57381Y192725D01*
X60169Y189938D01*
Y172779D01*
X58127Y170737D01*
X40315D01*
X40315Y170737D01*
X40003Y170675D01*
X39738Y170498D01*
X39738Y170498D01*
X33993Y164753D01*
X20662D01*
X20632Y164900D01*
X20087Y165717D01*
X19501Y166108D01*
Y166687D01*
X20087Y167079D01*
X20632Y167895D01*
X20824Y168858D01*
X20632Y169821D01*
X20087Y170638D01*
X19501Y171029D01*
Y171609D01*
X20087Y172000D01*
X20632Y172816D01*
X20824Y173779D01*
X20632Y174743D01*
X20087Y175559D01*
X19931Y175663D01*
X19973Y176237D01*
X20424Y176584D01*
X20900Y177204D01*
X21199Y177926D01*
X21249Y178301D01*
X18307D01*
X15366D01*
X15415Y177926D01*
X15714Y177204D01*
X16190Y176584D01*
X16642Y176237D01*
X16683Y175663D01*
X16527Y175559D01*
X15982Y174743D01*
X15790Y173779D01*
X15982Y172816D01*
X16527Y172000D01*
X17113Y171609D01*
Y171029D01*
X16527Y170638D01*
X15982Y169821D01*
X15790Y168858D01*
X15982Y167895D01*
X16527Y167079D01*
X17113Y166687D01*
Y166108D01*
X16527Y165717D01*
X15982Y164900D01*
X15790Y163937D01*
X15982Y162974D01*
X16527Y162157D01*
X17113Y161766D01*
Y161187D01*
X16527Y160795D01*
X15982Y159979D01*
X15790Y159016D01*
X15982Y158053D01*
X16527Y157236D01*
X17344Y156691D01*
X18307Y156499D01*
X19270Y156691D01*
X20087Y157236D01*
X20632Y158053D01*
X20693Y158358D01*
X37835D01*
X37835Y158358D01*
X38147Y158420D01*
X38411Y158597D01*
X44826Y165011D01*
X61260D01*
X61260Y165011D01*
X61572Y165073D01*
X61837Y165250D01*
X63529Y166943D01*
X63706Y167208D01*
X63768Y167520D01*
X63768Y167520D01*
Y197867D01*
X63970Y197894D01*
X64917Y198286D01*
X65731Y198910D01*
X66356Y199724D01*
X66642Y200416D01*
X67142Y200317D01*
Y164831D01*
X49465Y147154D01*
X20583D01*
X20554Y147302D01*
X20008Y148118D01*
X19192Y148664D01*
X18228Y148855D01*
X17265Y148664D01*
X16449Y148118D01*
X15903Y147302D01*
X15711Y146339D01*
X15903Y145375D01*
X16449Y144559D01*
X16605Y144455D01*
X16563Y143881D01*
X16111Y143535D01*
X15635Y142914D01*
X15336Y142192D01*
X15287Y141817D01*
X18228D01*
X21170D01*
X21120Y142192D01*
X20821Y142914D01*
X20346Y143535D01*
X19894Y143881D01*
X19852Y144455D01*
X20008Y144559D01*
X20554Y145375D01*
X20583Y145523D01*
X49803D01*
X49803Y145523D01*
X50115Y145585D01*
X50380Y145762D01*
X68535Y163917D01*
X68712Y164181D01*
X68774Y164493D01*
X68774Y164493D01*
Y199093D01*
X69274Y199263D01*
X69818Y198554D01*
X70736Y197849D01*
X71805Y197406D01*
X72553Y197308D01*
Y201689D01*
Y206070D01*
X71805Y205972D01*
X70736Y205529D01*
X69818Y204824D01*
X69274Y204115D01*
X68774Y204285D01*
Y206356D01*
X70827Y208410D01*
X70988Y208286D01*
X71936Y207894D01*
X72953Y207760D01*
X73970Y207894D01*
X74917Y208286D01*
X75731Y208911D01*
X76356Y209724D01*
X76748Y210672D01*
X76882Y211689D01*
X76748Y212706D01*
X76356Y213654D01*
X75731Y214467D01*
X74917Y215092D01*
X73970Y215484D01*
X72953Y215618D01*
D02*
G37*
G36*
X42953D02*
X41936Y215484D01*
X40988Y215092D01*
X40174Y214467D01*
X39550Y213654D01*
X39157Y212706D01*
X39024Y211689D01*
X39157Y210672D01*
X39550Y209724D01*
X40174Y208911D01*
X40988Y208286D01*
X41936Y207894D01*
X42953Y207760D01*
X43970Y207894D01*
X44917Y208286D01*
X45731Y208911D01*
X46356Y209724D01*
X46748Y210672D01*
X46882Y211689D01*
X46748Y212706D01*
X46356Y213654D01*
X45731Y214467D01*
X44917Y215092D01*
X43970Y215484D01*
X42953Y215618D01*
D02*
G37*
G36*
X32953D02*
X31936Y215484D01*
X30988Y215092D01*
X30174Y214467D01*
X29550Y213654D01*
X29157Y212706D01*
X29024Y211689D01*
X29157Y210672D01*
X29550Y209724D01*
X30174Y208911D01*
X30988Y208286D01*
X31936Y207894D01*
X32953Y207760D01*
X33970Y207894D01*
X34917Y208286D01*
X35731Y208911D01*
X36356Y209724D01*
X36748Y210672D01*
X36882Y211689D01*
X36748Y212706D01*
X36356Y213654D01*
X35731Y214467D01*
X34917Y215092D01*
X33970Y215484D01*
X32953Y215618D01*
D02*
G37*
G36*
X197334Y211289D02*
X193353D01*
Y207308D01*
X194100Y207406D01*
X195170Y207849D01*
X196088Y208554D01*
X196792Y209472D01*
X197235Y210542D01*
X197334Y211289D01*
D02*
G37*
G36*
X177334D02*
X173353D01*
Y207308D01*
X174100Y207406D01*
X175170Y207849D01*
X176088Y208554D01*
X176792Y209472D01*
X177235Y210542D01*
X177334Y211289D01*
D02*
G37*
G36*
X127334D02*
X123353D01*
Y207308D01*
X124100Y207406D01*
X125170Y207849D01*
X126088Y208554D01*
X126792Y209472D01*
X127235Y210542D01*
X127334Y211289D01*
D02*
G37*
G36*
X97334D02*
X93353D01*
Y207308D01*
X94100Y207406D01*
X95170Y207849D01*
X96088Y208554D01*
X96792Y209472D01*
X97235Y210542D01*
X97334Y211289D01*
D02*
G37*
G36*
X57334D02*
X53353D01*
Y207308D01*
X54100Y207406D01*
X55170Y207849D01*
X56088Y208554D01*
X56792Y209472D01*
X57235Y210542D01*
X57334Y211289D01*
D02*
G37*
G36*
X192553D02*
X188572D01*
X188670Y210542D01*
X189113Y209472D01*
X189818Y208554D01*
X190736Y207849D01*
X191805Y207406D01*
X192553Y207308D01*
Y211289D01*
D02*
G37*
G36*
X172553D02*
X168572D01*
X168670Y210542D01*
X169113Y209472D01*
X169818Y208554D01*
X170736Y207849D01*
X171805Y207406D01*
X172553Y207308D01*
Y211289D01*
D02*
G37*
G36*
X122553D02*
X118572D01*
X118670Y210542D01*
X119113Y209472D01*
X119818Y208554D01*
X120736Y207849D01*
X121805Y207406D01*
X122553Y207308D01*
Y211289D01*
D02*
G37*
G36*
X92553D02*
X88572D01*
X88670Y210542D01*
X89113Y209472D01*
X89818Y208554D01*
X90736Y207849D01*
X91805Y207406D01*
X92553Y207308D01*
Y211289D01*
D02*
G37*
G36*
X52553D02*
X48572D01*
X48670Y210542D01*
X49113Y209472D01*
X49818Y208554D01*
X50736Y207849D01*
X51805Y207406D01*
X52553Y207308D01*
Y211289D01*
D02*
G37*
G36*
X223353Y206070D02*
Y202089D01*
X227334D01*
X227235Y202836D01*
X226792Y203906D01*
X226088Y204824D01*
X225170Y205529D01*
X224100Y205972D01*
X223353Y206070D01*
D02*
G37*
G36*
X153353D02*
Y202089D01*
X157334D01*
X157235Y202836D01*
X156792Y203906D01*
X156088Y204824D01*
X155170Y205529D01*
X154100Y205972D01*
X153353Y206070D01*
D02*
G37*
G36*
X222553D02*
X221805Y205972D01*
X220736Y205529D01*
X219818Y204824D01*
X219113Y203906D01*
X218670Y202836D01*
X218572Y202089D01*
X222553D01*
Y206070D01*
D02*
G37*
G36*
X152553D02*
X151805Y205972D01*
X150736Y205529D01*
X149818Y204824D01*
X149113Y203906D01*
X148670Y202836D01*
X148572Y202089D01*
X152553D01*
Y206070D01*
D02*
G37*
G36*
X36848Y205585D02*
X29057D01*
Y197793D01*
X36848D01*
Y205585D01*
D02*
G37*
G36*
X212953Y205618D02*
X211936Y205484D01*
X210988Y205092D01*
X210174Y204467D01*
X209550Y203654D01*
X209157Y202706D01*
X209023Y201689D01*
X209157Y200672D01*
X209550Y199724D01*
X210174Y198910D01*
X210988Y198286D01*
X211936Y197894D01*
X212953Y197760D01*
X213970Y197894D01*
X214917Y198286D01*
X215731Y198910D01*
X216356Y199724D01*
X216748Y200672D01*
X216882Y201689D01*
X216748Y202706D01*
X216356Y203654D01*
X215731Y204467D01*
X214917Y205092D01*
X213970Y205484D01*
X212953Y205618D01*
D02*
G37*
G36*
X202953D02*
X201936Y205484D01*
X200988Y205092D01*
X200174Y204467D01*
X199550Y203654D01*
X199157Y202706D01*
X199023Y201689D01*
X199157Y200672D01*
X199550Y199724D01*
X200174Y198910D01*
X200988Y198286D01*
X201936Y197894D01*
X202953Y197760D01*
X203970Y197894D01*
X204917Y198286D01*
X205731Y198910D01*
X206356Y199724D01*
X206748Y200672D01*
X206882Y201689D01*
X206748Y202706D01*
X206356Y203654D01*
X205731Y204467D01*
X204917Y205092D01*
X203970Y205484D01*
X202953Y205618D01*
D02*
G37*
G36*
X192953D02*
X191936Y205484D01*
X190988Y205092D01*
X190174Y204467D01*
X189550Y203654D01*
X189157Y202706D01*
X189023Y201689D01*
X189157Y200672D01*
X189550Y199724D01*
X190174Y198910D01*
X190988Y198286D01*
X191936Y197894D01*
X192953Y197760D01*
X193970Y197894D01*
X194917Y198286D01*
X195731Y198910D01*
X196356Y199724D01*
X196748Y200672D01*
X196882Y201689D01*
X196748Y202706D01*
X196356Y203654D01*
X195731Y204467D01*
X194917Y205092D01*
X193970Y205484D01*
X192953Y205618D01*
D02*
G37*
G36*
X182953D02*
X181936Y205484D01*
X180988Y205092D01*
X180174Y204467D01*
X179550Y203654D01*
X179157Y202706D01*
X179024Y201689D01*
X179157Y200672D01*
X179550Y199724D01*
X180174Y198910D01*
X180988Y198286D01*
X181936Y197894D01*
X182953Y197760D01*
X183970Y197894D01*
X184917Y198286D01*
X185731Y198910D01*
X186356Y199724D01*
X186748Y200672D01*
X186882Y201689D01*
X186748Y202706D01*
X186356Y203654D01*
X185731Y204467D01*
X184917Y205092D01*
X183970Y205484D01*
X182953Y205618D01*
D02*
G37*
G36*
X172953D02*
X171936Y205484D01*
X170988Y205092D01*
X170174Y204467D01*
X169550Y203654D01*
X169157Y202706D01*
X169024Y201689D01*
X169157Y200672D01*
X169550Y199724D01*
X170174Y198910D01*
X170988Y198286D01*
X171936Y197894D01*
X172953Y197760D01*
X173970Y197894D01*
X174917Y198286D01*
X175731Y198910D01*
X176356Y199724D01*
X176748Y200672D01*
X176882Y201689D01*
X176748Y202706D01*
X176356Y203654D01*
X175731Y204467D01*
X174917Y205092D01*
X173970Y205484D01*
X172953Y205618D01*
D02*
G37*
G36*
X162953D02*
X161936Y205484D01*
X160988Y205092D01*
X160174Y204467D01*
X159550Y203654D01*
X159157Y202706D01*
X159023Y201689D01*
X159157Y200672D01*
X159550Y199724D01*
X160174Y198910D01*
X160988Y198286D01*
X161936Y197894D01*
X162953Y197760D01*
X163970Y197894D01*
X164917Y198286D01*
X165731Y198910D01*
X166356Y199724D01*
X166748Y200672D01*
X166882Y201689D01*
X166748Y202706D01*
X166356Y203654D01*
X165731Y204467D01*
X164917Y205092D01*
X163970Y205484D01*
X162953Y205618D01*
D02*
G37*
G36*
X142953D02*
X141936Y205484D01*
X140988Y205092D01*
X140174Y204467D01*
X139550Y203654D01*
X139157Y202706D01*
X139023Y201689D01*
X139157Y200672D01*
X139550Y199724D01*
X140174Y198910D01*
X140988Y198286D01*
X141936Y197894D01*
X142953Y197760D01*
X143970Y197894D01*
X144917Y198286D01*
X145731Y198910D01*
X146356Y199724D01*
X146748Y200672D01*
X146882Y201689D01*
X146748Y202706D01*
X146356Y203654D01*
X145731Y204467D01*
X144917Y205092D01*
X143970Y205484D01*
X142953Y205618D01*
D02*
G37*
G36*
X132953D02*
X131936Y205484D01*
X130988Y205092D01*
X130174Y204467D01*
X129550Y203654D01*
X129157Y202706D01*
X129024Y201689D01*
X129157Y200672D01*
X129550Y199724D01*
X130174Y198910D01*
X130988Y198286D01*
X131936Y197894D01*
X132953Y197760D01*
X133970Y197894D01*
X134917Y198286D01*
X135731Y198910D01*
X136356Y199724D01*
X136748Y200672D01*
X136882Y201689D01*
X136748Y202706D01*
X136356Y203654D01*
X135731Y204467D01*
X134917Y205092D01*
X133970Y205484D01*
X132953Y205618D01*
D02*
G37*
G36*
X122953D02*
X121936Y205484D01*
X120988Y205092D01*
X120174Y204467D01*
X119550Y203654D01*
X119157Y202706D01*
X119024Y201689D01*
X119157Y200672D01*
X119550Y199724D01*
X120174Y198910D01*
X120988Y198286D01*
X121936Y197894D01*
X122953Y197760D01*
X123970Y197894D01*
X124917Y198286D01*
X125731Y198910D01*
X126356Y199724D01*
X126748Y200672D01*
X126882Y201689D01*
X126748Y202706D01*
X126356Y203654D01*
X125731Y204467D01*
X124917Y205092D01*
X123970Y205484D01*
X122953Y205618D01*
D02*
G37*
G36*
X112953D02*
X111936Y205484D01*
X110988Y205092D01*
X110174Y204467D01*
X109550Y203654D01*
X109157Y202706D01*
X109023Y201689D01*
X109157Y200672D01*
X109550Y199724D01*
X110174Y198910D01*
X110988Y198286D01*
X111936Y197894D01*
X112953Y197760D01*
X113970Y197894D01*
X114917Y198286D01*
X115731Y198910D01*
X116356Y199724D01*
X116748Y200672D01*
X116882Y201689D01*
X116748Y202706D01*
X116356Y203654D01*
X115731Y204467D01*
X114917Y205092D01*
X113970Y205484D01*
X112953Y205618D01*
D02*
G37*
G36*
X102953D02*
X101936Y205484D01*
X100988Y205092D01*
X100174Y204467D01*
X99550Y203654D01*
X99157Y202706D01*
X99023Y201689D01*
X99157Y200672D01*
X99550Y199724D01*
X100174Y198910D01*
X100988Y198286D01*
X101936Y197894D01*
X102953Y197760D01*
X103970Y197894D01*
X104917Y198286D01*
X105731Y198910D01*
X106356Y199724D01*
X106748Y200672D01*
X106882Y201689D01*
X106748Y202706D01*
X106356Y203654D01*
X105731Y204467D01*
X104917Y205092D01*
X103970Y205484D01*
X102953Y205618D01*
D02*
G37*
G36*
X92953D02*
X91936Y205484D01*
X90988Y205092D01*
X90174Y204467D01*
X89550Y203654D01*
X89157Y202706D01*
X89024Y201689D01*
X89157Y200672D01*
X89550Y199724D01*
X89674Y199563D01*
X85565Y195455D01*
X85388Y195190D01*
X85326Y194878D01*
X85326Y194878D01*
Y123000D01*
X75504Y113178D01*
X40157D01*
X39845Y113116D01*
X39581Y112939D01*
X39581Y112939D01*
X24069Y97427D01*
X23892Y97162D01*
X23830Y96850D01*
X23830Y96850D01*
Y85771D01*
X19317Y81257D01*
X19192Y81341D01*
X18228Y81533D01*
X17265Y81341D01*
X16449Y80795D01*
X15903Y79979D01*
X15711Y79016D01*
X15903Y78053D01*
X16449Y77236D01*
X16605Y77132D01*
X16563Y76558D01*
X16111Y76212D01*
X15635Y75591D01*
X15336Y74869D01*
X15287Y74494D01*
X18228D01*
X21170D01*
X21120Y74869D01*
X20821Y75591D01*
X20346Y76212D01*
X19894Y76558D01*
X19852Y77132D01*
X20008Y77236D01*
X20554Y78053D01*
X20745Y79016D01*
X20554Y79979D01*
X20470Y80104D01*
X25222Y84856D01*
X25399Y85121D01*
X25461Y85433D01*
X25461Y85433D01*
Y96513D01*
X40495Y111547D01*
X75358D01*
X75424Y111503D01*
X75736Y111441D01*
X76048Y111503D01*
X76313Y111680D01*
X86718Y122086D01*
X86718Y122086D01*
X86895Y122350D01*
X86957Y122662D01*
X86957Y122662D01*
Y194540D01*
X90827Y198410D01*
X90988Y198286D01*
X91936Y197894D01*
X92953Y197760D01*
X93970Y197894D01*
X94917Y198286D01*
X95731Y198910D01*
X96356Y199724D01*
X96748Y200672D01*
X96882Y201689D01*
X96748Y202706D01*
X96356Y203654D01*
X95731Y204467D01*
X94917Y205092D01*
X93970Y205484D01*
X92953Y205618D01*
D02*
G37*
G36*
X42953D02*
X41936Y205484D01*
X40988Y205092D01*
X40174Y204467D01*
X39550Y203654D01*
X39157Y202706D01*
X39024Y201689D01*
X39157Y200672D01*
X39550Y199724D01*
X40174Y198910D01*
X40988Y198286D01*
X41936Y197894D01*
X42953Y197760D01*
X43970Y197894D01*
X44917Y198286D01*
X45731Y198910D01*
X46356Y199724D01*
X46748Y200672D01*
X46882Y201689D01*
X46748Y202706D01*
X46356Y203654D01*
X45731Y204467D01*
X44917Y205092D01*
X43970Y205484D01*
X42953Y205618D01*
D02*
G37*
G36*
X227334Y201289D02*
X223353D01*
Y197308D01*
X224100Y197406D01*
X225170Y197849D01*
X226088Y198554D01*
X226792Y199472D01*
X227235Y200541D01*
X227334Y201289D01*
D02*
G37*
G36*
X157334D02*
X153353D01*
Y197308D01*
X154100Y197406D01*
X155170Y197849D01*
X156088Y198554D01*
X156792Y199472D01*
X157235Y200541D01*
X157334Y201289D01*
D02*
G37*
G36*
X222553D02*
X218572D01*
X218670Y200541D01*
X219113Y199472D01*
X219818Y198554D01*
X220736Y197849D01*
X221805Y197406D01*
X222553Y197308D01*
Y201289D01*
D02*
G37*
G36*
X152553D02*
X148572D01*
X148670Y200541D01*
X149113Y199472D01*
X149818Y198554D01*
X150736Y197849D01*
X151805Y197406D01*
X152553Y197308D01*
Y201289D01*
D02*
G37*
G36*
X328228Y203265D02*
X327265Y203073D01*
X326449Y202528D01*
X325903Y201711D01*
X325711Y200748D01*
X325903Y199785D01*
X326449Y198968D01*
X326605Y198864D01*
X326563Y198291D01*
X326111Y197944D01*
X325635Y197324D01*
X325336Y196602D01*
X325287Y196227D01*
X328228D01*
X331170D01*
X331120Y196602D01*
X330821Y197324D01*
X330346Y197944D01*
X329894Y198291D01*
X329852Y198864D01*
X330008Y198968D01*
X330554Y199785D01*
X330745Y200748D01*
X330554Y201711D01*
X330008Y202528D01*
X329191Y203073D01*
X328228Y203265D01*
D02*
G37*
G36*
X255044Y206293D02*
X242526D01*
Y193775D01*
X244152Y193903D01*
X246128Y194377D01*
X248005Y195155D01*
X249737Y196217D01*
X251283Y197536D01*
X252602Y199082D01*
X253664Y200814D01*
X254442Y202691D01*
X254916Y204667D01*
X255044Y206293D01*
D02*
G37*
G36*
X241726D02*
X229208D01*
X229336Y204667D01*
X229810Y202691D01*
X230588Y200814D01*
X231650Y199082D01*
X232969Y197536D01*
X234514Y196217D01*
X236247Y195155D01*
X238124Y194377D01*
X240100Y193903D01*
X241726Y193775D01*
Y206293D01*
D02*
G37*
G36*
X26697D02*
X14179D01*
Y193775D01*
X15805Y193903D01*
X17781Y194377D01*
X19658Y195155D01*
X21391Y196217D01*
X22936Y197536D01*
X24256Y199082D01*
X25317Y200814D01*
X26095Y202691D01*
X26570Y204667D01*
X26697Y206293D01*
D02*
G37*
G36*
X34685Y192864D02*
X34685Y192864D01*
X10394Y192864D01*
X10394Y192864D01*
X10011Y192706D01*
X9105Y191800D01*
X9105Y191800D01*
X8947Y191417D01*
X8947Y191417D01*
X8947Y66457D01*
X9105Y66074D01*
X10798Y64381D01*
X10798Y64381D01*
X11181Y64223D01*
X11181Y64223D01*
X21969Y64223D01*
X21969Y64223D01*
X22351Y64381D01*
X22351Y64381D01*
X31446Y73476D01*
X33847Y75877D01*
X33847Y75877D01*
X36523Y78553D01*
X62059Y78553D01*
X67137Y73476D01*
X67520Y73317D01*
X67520Y73317D01*
X85709Y73317D01*
X85709Y73317D01*
X86091Y73475D01*
X86091Y73476D01*
X92587Y79972D01*
X92746Y80354D01*
X92746Y80354D01*
X92746Y86772D01*
X92587Y87154D01*
X83296Y96446D01*
X83296Y96446D01*
X82914Y96604D01*
X82913Y96604D01*
X70315D01*
X70315Y96604D01*
X69932Y96446D01*
X61705Y88218D01*
X45539Y88218D01*
X43690Y90068D01*
X43307Y90226D01*
X43307Y90226D01*
X35118Y90226D01*
X34735Y90068D01*
X34735Y90068D01*
X32885Y88217D01*
X32726Y87835D01*
X32726Y87835D01*
X32726Y81011D01*
X21863Y70148D01*
X21545D01*
X21527Y70140D01*
X21509Y70146D01*
X21445Y70114D01*
X20558D01*
X20554Y70136D01*
X20008Y70953D01*
X19852Y71057D01*
X19894Y71631D01*
X20346Y71977D01*
X20821Y72597D01*
X21120Y73320D01*
X21170Y73694D01*
X18228D01*
X15287D01*
X15336Y73320D01*
X15635Y72597D01*
X16111Y71977D01*
X16563Y71631D01*
X16605Y71057D01*
X16449Y70953D01*
X15903Y70136D01*
X15899Y70114D01*
X15012D01*
X14947Y70146D01*
X14930Y70140D01*
X14912Y70148D01*
X14201D01*
X13612Y70736D01*
Y86981D01*
X14122Y87490D01*
X21927Y87490D01*
X22117Y87569D01*
X22307Y87646D01*
X22821Y88154D01*
X22822Y88156D01*
X22824Y88157D01*
X22902Y88347D01*
X22982Y88536D01*
X22981Y88538D01*
X22982Y88539D01*
X22982Y91654D01*
X22982Y91654D01*
X22824Y92036D01*
X22824Y92036D01*
X22430Y92430D01*
X22430Y92430D01*
X22047Y92589D01*
X22047Y92588D01*
X21545D01*
X21527Y92581D01*
X21509Y92587D01*
X21444Y92555D01*
X20558D01*
X20554Y92577D01*
X20008Y93394D01*
X19852Y93498D01*
X19894Y94072D01*
X20346Y94418D01*
X20821Y95038D01*
X21120Y95761D01*
X21170Y96135D01*
X18228D01*
X15287D01*
X15336Y95761D01*
X15635Y95038D01*
X16111Y94418D01*
X16563Y94072D01*
X16605Y93498D01*
X16449Y93394D01*
X15903Y92577D01*
X15899Y92555D01*
X15012D01*
X14947Y92587D01*
X14930Y92581D01*
X14912Y92588D01*
X14082D01*
X13612Y93059D01*
X13612Y109500D01*
X14082Y109971D01*
X21654D01*
X21654Y109971D01*
X22036Y110129D01*
X22036Y110129D01*
X22824Y110916D01*
X22824Y110916D01*
X22824Y110916D01*
X22824Y110916D01*
X22854Y110990D01*
X22982Y111299D01*
X22982Y111299D01*
X22982Y111299D01*
X22983Y114135D01*
X22983Y114135D01*
X22983Y114135D01*
X22915Y114299D01*
X22824Y114517D01*
X22824Y114517D01*
X22824Y114517D01*
X22471Y114871D01*
X22471Y114871D01*
X22471Y114871D01*
X22290Y114946D01*
X22088Y115029D01*
X22088Y115029D01*
X22088Y115029D01*
X21545D01*
X21527Y115022D01*
X21509Y115028D01*
X21444Y114996D01*
X20558D01*
X20554Y115018D01*
X20008Y115835D01*
X19852Y115939D01*
X19894Y116513D01*
X20346Y116859D01*
X20821Y117479D01*
X21120Y118201D01*
X21170Y118576D01*
X18228D01*
X15287D01*
X15336Y118201D01*
X15635Y117479D01*
X16111Y116859D01*
X16563Y116513D01*
X16605Y115939D01*
X16449Y115835D01*
X15903Y115018D01*
X15899Y114996D01*
X15012D01*
X14947Y115028D01*
X14930Y115022D01*
X14912Y115029D01*
X14082D01*
X13612Y115500D01*
Y131902D01*
X14083Y132372D01*
X21850Y132372D01*
X21850Y132372D01*
X22233Y132531D01*
X22824Y133121D01*
X22982Y133504D01*
X22982Y133504D01*
Y136535D01*
X22982Y136535D01*
X22824Y136918D01*
X22824Y136918D01*
X22430Y137312D01*
X22047Y137470D01*
X22047Y137470D01*
X21545D01*
X21527Y137463D01*
X21509Y137469D01*
X21445Y137437D01*
X20558D01*
X20554Y137459D01*
X20008Y138276D01*
X19852Y138380D01*
X19894Y138953D01*
X20346Y139300D01*
X20821Y139920D01*
X21120Y140642D01*
X21170Y141017D01*
X18228D01*
X15287D01*
X15336Y140642D01*
X15635Y139920D01*
X16111Y139300D01*
X16563Y138953D01*
X16605Y138380D01*
X16449Y138276D01*
X15903Y137459D01*
X15899Y137437D01*
X15012D01*
X14947Y137469D01*
X14930Y137463D01*
X14912Y137470D01*
X14082D01*
X13612Y137941D01*
Y186587D01*
X14358Y187333D01*
X22376D01*
X28209Y181552D01*
X28209Y181552D01*
X30917Y178868D01*
X31107Y178790D01*
X31298Y178711D01*
X37795D01*
X38178Y178869D01*
X38337Y179252D01*
Y180122D01*
X41257D01*
X41528Y179717D01*
X42182Y179280D01*
X42953Y179127D01*
X43724Y179280D01*
X44378Y179717D01*
X44649Y180122D01*
X51257D01*
X51528Y179717D01*
X52182Y179280D01*
X52953Y179127D01*
X53724Y179280D01*
X54378Y179717D01*
X54814Y180371D01*
X54968Y181142D01*
X54814Y181913D01*
X54378Y182567D01*
X53724Y183003D01*
X52953Y183157D01*
X52182Y183003D01*
X51528Y182567D01*
X51257Y182161D01*
X44649D01*
X44378Y182567D01*
X43724Y183003D01*
X42953Y183157D01*
X42182Y183003D01*
X41528Y182567D01*
X41257Y182161D01*
X38337D01*
X38337Y189213D01*
X38337Y189213D01*
X38178Y189595D01*
X35068Y192706D01*
X35068Y192706D01*
X34685Y192864D01*
D02*
G37*
G36*
X331170Y195427D02*
X328228D01*
X325287D01*
X325336Y195052D01*
X325635Y194330D01*
X326111Y193710D01*
X326563Y193363D01*
X326605Y192789D01*
X326449Y192685D01*
X325903Y191869D01*
X325711Y190905D01*
X325903Y189942D01*
X326449Y189126D01*
X327265Y188580D01*
X328228Y188389D01*
X329191Y188580D01*
X330008Y189126D01*
X330554Y189942D01*
X330745Y190905D01*
X330554Y191869D01*
X330008Y192685D01*
X329852Y192789D01*
X329894Y193363D01*
X330346Y193710D01*
X330821Y194330D01*
X331120Y195052D01*
X331170Y195427D01*
D02*
G37*
G36*
X143268Y191517D02*
X142264Y191385D01*
X141328Y190998D01*
X140524Y190381D01*
X139908Y189578D01*
X139520Y188642D01*
X139388Y187638D01*
X139520Y186634D01*
X139908Y185698D01*
X140524Y184895D01*
X141328Y184278D01*
X142264Y183890D01*
X143268Y183758D01*
X144272Y183890D01*
X145208Y184278D01*
X146011Y184895D01*
X146628Y185698D01*
X147015Y186634D01*
X147147Y187638D01*
X147015Y188642D01*
X146628Y189578D01*
X146011Y190381D01*
X145208Y190998D01*
X144272Y191385D01*
X143268Y191517D01*
D02*
G37*
G36*
X129213D02*
X128208Y191385D01*
X127273Y190998D01*
X126469Y190381D01*
X125853Y189578D01*
X125465Y188642D01*
X125333Y187638D01*
X125465Y186634D01*
X125853Y185698D01*
X126469Y184895D01*
X127273Y184278D01*
X128208Y183890D01*
X129213Y183758D01*
X130217Y183890D01*
X131152Y184278D01*
X131956Y184895D01*
X132572Y185698D01*
X132960Y186634D01*
X133092Y187638D01*
X132960Y188642D01*
X132572Y189578D01*
X131956Y190381D01*
X131152Y190998D01*
X130217Y191385D01*
X129213Y191517D01*
D02*
G37*
G36*
X18307Y186139D02*
X17344Y185947D01*
X16527Y185402D01*
X15982Y184585D01*
X15790Y183622D01*
X15982Y182659D01*
X16527Y181842D01*
X16683Y181738D01*
X16642Y181165D01*
X16190Y180818D01*
X15714Y180198D01*
X15415Y179476D01*
X15366Y179101D01*
X18307D01*
X21249D01*
X21199Y179476D01*
X20900Y180198D01*
X20424Y180818D01*
X19973Y181165D01*
X19931Y181738D01*
X20087Y181842D01*
X20632Y182659D01*
X20824Y183622D01*
X20632Y184585D01*
X20087Y185402D01*
X19270Y185947D01*
X18307Y186139D01*
D02*
G37*
G36*
X328228Y180824D02*
X327265Y180632D01*
X326449Y180087D01*
X325903Y179270D01*
X325711Y178307D01*
X325903Y177344D01*
X326449Y176527D01*
X326605Y176423D01*
X326563Y175850D01*
X326111Y175503D01*
X325635Y174883D01*
X325336Y174161D01*
X325287Y173786D01*
X328228D01*
X331170D01*
X331120Y174161D01*
X330821Y174883D01*
X330346Y175503D01*
X329894Y175850D01*
X329852Y176423D01*
X330008Y176527D01*
X330554Y177344D01*
X330745Y178307D01*
X330554Y179270D01*
X330008Y180087D01*
X329191Y180632D01*
X328228Y180824D01*
D02*
G37*
G36*
X143268Y181517D02*
X142264Y181385D01*
X141328Y180998D01*
X140524Y180381D01*
X139908Y179578D01*
X139520Y178642D01*
X139388Y177638D01*
X139520Y176634D01*
X139908Y175698D01*
X140524Y174894D01*
X141328Y174278D01*
X142264Y173890D01*
X143268Y173758D01*
X144272Y173890D01*
X145208Y174278D01*
X146011Y174894D01*
X146628Y175698D01*
X147015Y176634D01*
X147147Y177638D01*
X147015Y178642D01*
X146628Y179578D01*
X146011Y180381D01*
X145208Y180998D01*
X144272Y181385D01*
X143268Y181517D01*
D02*
G37*
G36*
X129213D02*
X128208Y181385D01*
X127273Y180998D01*
X126469Y180381D01*
X125853Y179578D01*
X125465Y178642D01*
X125333Y177638D01*
X125465Y176634D01*
X125853Y175698D01*
X126469Y174894D01*
X127273Y174278D01*
X128208Y173890D01*
X129213Y173758D01*
X130217Y173890D01*
X131152Y174278D01*
X131956Y174894D01*
X132572Y175698D01*
X132960Y176634D01*
X133092Y177638D01*
X132960Y178642D01*
X132572Y179578D01*
X131956Y180381D01*
X131152Y180998D01*
X130217Y181385D01*
X129213Y181517D01*
D02*
G37*
G36*
X331170Y172986D02*
X328228D01*
X325287D01*
X325336Y172611D01*
X325635Y171889D01*
X326111Y171269D01*
X326563Y170922D01*
X326605Y170349D01*
X326449Y170244D01*
X325903Y169428D01*
X325711Y168465D01*
X325903Y167501D01*
X326449Y166685D01*
X327265Y166139D01*
X328228Y165948D01*
X329191Y166139D01*
X330008Y166685D01*
X330554Y167501D01*
X330745Y168465D01*
X330554Y169428D01*
X330008Y170244D01*
X329852Y170349D01*
X329894Y170922D01*
X330346Y171269D01*
X330821Y171889D01*
X331120Y172611D01*
X331170Y172986D01*
D02*
G37*
G36*
X328228Y158383D02*
X327265Y158192D01*
X326449Y157646D01*
X325903Y156829D01*
X325711Y155866D01*
X325903Y154903D01*
X326449Y154086D01*
X326605Y153982D01*
X326563Y153409D01*
X326111Y153062D01*
X325635Y152442D01*
X325336Y151720D01*
X325287Y151345D01*
X328228D01*
X331170D01*
X331120Y151720D01*
X330821Y152442D01*
X330346Y153062D01*
X329894Y153409D01*
X329852Y153982D01*
X330008Y154086D01*
X330554Y154903D01*
X330745Y155866D01*
X330554Y156829D01*
X330008Y157646D01*
X329191Y158192D01*
X328228Y158383D01*
D02*
G37*
G36*
X331170Y150545D02*
X328228D01*
X325287D01*
X325336Y150170D01*
X325635Y149448D01*
X326111Y148828D01*
X326563Y148481D01*
X326605Y147908D01*
X326449Y147803D01*
X325903Y146987D01*
X325711Y146024D01*
X325903Y145061D01*
X326449Y144244D01*
X327265Y143698D01*
X328228Y143507D01*
X329191Y143698D01*
X330008Y144244D01*
X330554Y145061D01*
X330745Y146024D01*
X330554Y146987D01*
X330008Y147803D01*
X329852Y147908D01*
X329894Y148481D01*
X330346Y148828D01*
X330821Y149448D01*
X331120Y150170D01*
X331170Y150545D01*
D02*
G37*
G36*
X259095Y147487D02*
X258323Y147334D01*
X257670Y146897D01*
X257233Y146244D01*
X257079Y145472D01*
X257222Y144754D01*
X257061Y144592D01*
X256884Y144328D01*
X256822Y144016D01*
X256822Y144016D01*
Y104489D01*
X256213Y104082D01*
X255776Y103428D01*
X255623Y102657D01*
X255776Y101885D01*
X256213Y101232D01*
X256867Y100795D01*
X257638Y100642D01*
X258409Y100795D01*
X259063Y101232D01*
X259500Y101885D01*
X259653Y102657D01*
X259500Y103428D01*
X259063Y104082D01*
X258453Y104489D01*
Y143191D01*
X258840Y143508D01*
X259095Y143457D01*
X259866Y143611D01*
X260519Y144048D01*
X260956Y144701D01*
X261110Y145472D01*
X260956Y146244D01*
X260519Y146897D01*
X259866Y147334D01*
X259095Y147487D01*
D02*
G37*
G36*
X328228Y135942D02*
X327265Y135750D01*
X326449Y135205D01*
X326145Y134751D01*
X305079D01*
X304572Y134650D01*
X304141Y134362D01*
X303388Y133609D01*
X273224D01*
X273157Y133708D01*
X272503Y134145D01*
X271732Y134299D01*
X270961Y134145D01*
X270307Y133708D01*
X269871Y133055D01*
X269717Y132283D01*
X269871Y131512D01*
X270307Y130859D01*
X270961Y130422D01*
X271732Y130268D01*
X272503Y130422D01*
X273157Y130859D01*
X273224Y130958D01*
X303937D01*
X304444Y131059D01*
X304874Y131346D01*
X305628Y132100D01*
X326145D01*
X326449Y131646D01*
X326605Y131541D01*
X326563Y130968D01*
X326111Y130621D01*
X325635Y130001D01*
X325336Y129279D01*
X325287Y128904D01*
X328228D01*
X331170D01*
X331120Y129279D01*
X330821Y130001D01*
X330346Y130621D01*
X329894Y130968D01*
X329852Y131541D01*
X330008Y131646D01*
X330554Y132462D01*
X330745Y133425D01*
X330554Y134388D01*
X330008Y135205D01*
X329191Y135750D01*
X328228Y135942D01*
D02*
G37*
G36*
X331170Y128104D02*
X328228D01*
X325287D01*
X325336Y127729D01*
X325635Y127007D01*
X326111Y126387D01*
X326563Y126040D01*
X326605Y125467D01*
X326449Y125362D01*
X325903Y124546D01*
X325711Y123583D01*
X325903Y122620D01*
X326449Y121803D01*
X327265Y121257D01*
X328228Y121066D01*
X329191Y121257D01*
X330008Y121803D01*
X330554Y122620D01*
X330745Y123583D01*
X330554Y124546D01*
X330008Y125362D01*
X329852Y125467D01*
X329894Y126040D01*
X330346Y126387D01*
X330821Y127007D01*
X331120Y127729D01*
X331170Y128104D01*
D02*
G37*
G36*
X328228Y113501D02*
X327265Y113310D01*
X326449Y112764D01*
X325903Y111948D01*
X325711Y110984D01*
X325903Y110021D01*
X326449Y109205D01*
X326605Y109100D01*
X326563Y108527D01*
X326111Y108180D01*
X325635Y107560D01*
X325336Y106838D01*
X325287Y106463D01*
X328228D01*
X331170D01*
X331120Y106838D01*
X330821Y107560D01*
X330346Y108180D01*
X329894Y108527D01*
X329852Y109100D01*
X330008Y109205D01*
X330554Y110021D01*
X330745Y110984D01*
X330554Y111948D01*
X330008Y112764D01*
X329191Y113310D01*
X328228Y113501D01*
D02*
G37*
G36*
X158031Y110558D02*
X157260Y110405D01*
X156607Y109968D01*
X156170Y109315D01*
X156016Y108543D01*
X156170Y107772D01*
X156607Y107118D01*
X157160Y106749D01*
X157069Y106249D01*
X154393D01*
X152191Y108451D01*
X151926Y108628D01*
X151614Y108690D01*
X151614Y108690D01*
X148092D01*
X147685Y109299D01*
X147031Y109736D01*
X146260Y109889D01*
X145489Y109736D01*
X144835Y109299D01*
X144398Y108645D01*
X144245Y107874D01*
X144398Y107103D01*
X144835Y106449D01*
X145489Y106012D01*
X146260Y105859D01*
X147031Y106012D01*
X147685Y106449D01*
X148092Y107058D01*
X151276D01*
X153478Y104856D01*
X153478Y104856D01*
X153743Y104680D01*
X154055Y104617D01*
X179269D01*
X180287Y103599D01*
Y96675D01*
X179677Y96267D01*
X179241Y95614D01*
X179087Y94842D01*
X179241Y94071D01*
X179677Y93418D01*
X180331Y92981D01*
X181102Y92827D01*
X181874Y92981D01*
X182527Y93418D01*
X182964Y94071D01*
X183117Y94842D01*
X182964Y95614D01*
X182527Y96267D01*
X181918Y96675D01*
Y103937D01*
X181856Y104249D01*
X181679Y104514D01*
X181679Y104514D01*
X180183Y106010D01*
X179919Y106187D01*
X179606Y106249D01*
X179606Y106249D01*
X159611D01*
X159377Y106749D01*
X159405Y106783D01*
X181512D01*
X185405Y102891D01*
Y96714D01*
X184796Y96307D01*
X184359Y95653D01*
X184205Y94882D01*
X184359Y94111D01*
X184796Y93457D01*
X185449Y93020D01*
X186221Y92867D01*
X186992Y93020D01*
X187645Y93457D01*
X188082Y94111D01*
X188236Y94882D01*
X188082Y95653D01*
X187645Y96307D01*
X187036Y96714D01*
Y103228D01*
X187036Y103228D01*
X186974Y103541D01*
X186797Y103805D01*
X186797Y103805D01*
X182427Y108175D01*
X182162Y108352D01*
X181850Y108414D01*
X181850Y108414D01*
X160153D01*
X160047Y108543D01*
X159893Y109315D01*
X159456Y109968D01*
X158803Y110405D01*
X158031Y110558D01*
D02*
G37*
G36*
X191811Y155676D02*
X191040Y155523D01*
X190386Y155086D01*
X189949Y154433D01*
X189796Y153661D01*
X189819Y153544D01*
X184102Y147827D01*
X183815Y147397D01*
X183714Y146890D01*
Y117234D01*
X183553Y117074D01*
X175665D01*
X175598Y117173D01*
X174944Y117610D01*
X174173Y117763D01*
X173402Y117610D01*
X172748Y117173D01*
X172682Y117074D01*
X166846D01*
X166779Y117173D01*
X166126Y117610D01*
X165354Y117763D01*
X164583Y117610D01*
X163929Y117173D01*
X163863Y117074D01*
X157948D01*
X157882Y117173D01*
X157228Y117610D01*
X156457Y117763D01*
X155685Y117610D01*
X155032Y117173D01*
X154965Y117074D01*
X149090D01*
X149023Y117173D01*
X148370Y117610D01*
X147598Y117763D01*
X146827Y117610D01*
X146174Y117173D01*
X146107Y117074D01*
X140232D01*
X140165Y117173D01*
X139511Y117610D01*
X138740Y117763D01*
X137969Y117610D01*
X137315Y117173D01*
X137249Y117074D01*
X131373D01*
X131307Y117173D01*
X130653Y117610D01*
X129882Y117763D01*
X129111Y117610D01*
X128457Y117173D01*
X128391Y117074D01*
X122515D01*
X122449Y117173D01*
X121795Y117610D01*
X121024Y117763D01*
X120253Y117610D01*
X119599Y117173D01*
X119532Y117074D01*
X113657D01*
X113590Y117173D01*
X112936Y117610D01*
X112165Y117763D01*
X111394Y117610D01*
X110740Y117173D01*
X110674Y117074D01*
X104798D01*
X104732Y117173D01*
X104078Y117610D01*
X103307Y117763D01*
X102536Y117610D01*
X101882Y117173D01*
X101816Y117074D01*
X95940D01*
X95874Y117173D01*
X95220Y117610D01*
X94449Y117763D01*
X93678Y117610D01*
X93024Y117173D01*
X92587Y116519D01*
X92434Y115748D01*
X92587Y114977D01*
X93024Y114323D01*
X93678Y113886D01*
X94449Y113733D01*
X95220Y113886D01*
X95874Y114323D01*
X95940Y114423D01*
X101816D01*
X101882Y114323D01*
X102536Y113886D01*
X103307Y113733D01*
X104078Y113886D01*
X104732Y114323D01*
X104798Y114423D01*
X110674D01*
X110740Y114323D01*
X111394Y113886D01*
X112165Y113733D01*
X112936Y113886D01*
X113590Y114323D01*
X113657Y114423D01*
X119532D01*
X119599Y114323D01*
X120253Y113886D01*
X121024Y113733D01*
X121795Y113886D01*
X122449Y114323D01*
X122515Y114423D01*
X128391D01*
X128457Y114323D01*
X129111Y113886D01*
X129882Y113733D01*
X130653Y113886D01*
X131307Y114323D01*
X131373Y114423D01*
X137249D01*
X137315Y114323D01*
X137969Y113886D01*
X138740Y113733D01*
X139511Y113886D01*
X140165Y114323D01*
X140232Y114423D01*
X146107D01*
X146174Y114323D01*
X146827Y113886D01*
X147598Y113733D01*
X148370Y113886D01*
X149023Y114323D01*
X149090Y114423D01*
X154965D01*
X155032Y114323D01*
X155685Y113886D01*
X156457Y113733D01*
X157228Y113886D01*
X157882Y114323D01*
X157948Y114423D01*
X163863D01*
X163929Y114323D01*
X164583Y113886D01*
X165354Y113733D01*
X166126Y113886D01*
X166779Y114323D01*
X166846Y114423D01*
X172682D01*
X172748Y114323D01*
X173402Y113886D01*
X174173Y113733D01*
X174944Y113886D01*
X175598Y114323D01*
X175665Y114423D01*
X184102D01*
X184609Y114523D01*
X185039Y114811D01*
X185977Y115748D01*
X186264Y116178D01*
X186365Y116685D01*
Y146341D01*
X191694Y151670D01*
X191811Y151646D01*
X192582Y151800D01*
X193236Y152236D01*
X193302Y152336D01*
X203231D01*
X204737Y150829D01*
Y103342D01*
X204638Y103275D01*
X204201Y102622D01*
X204048Y101850D01*
X204201Y101079D01*
X204638Y100426D01*
X205292Y99989D01*
X206063Y99835D01*
X206834Y99989D01*
X207488Y100426D01*
X207925Y101079D01*
X208078Y101850D01*
X207925Y102622D01*
X207488Y103275D01*
X207388Y103342D01*
Y151378D01*
X207288Y151885D01*
X207000Y152315D01*
X204717Y154599D01*
X204287Y154886D01*
X203780Y154987D01*
X193302D01*
X193236Y155086D01*
X192582Y155523D01*
X191811Y155676D01*
D02*
G37*
G36*
X331170Y105663D02*
X328228D01*
X325287D01*
X325336Y105288D01*
X325635Y104566D01*
X326111Y103946D01*
X326563Y103599D01*
X326605Y103026D01*
X326449Y102921D01*
X325903Y102105D01*
X325711Y101142D01*
X325903Y100179D01*
X326449Y99362D01*
X327265Y98817D01*
X328228Y98625D01*
X329191Y98817D01*
X330008Y99362D01*
X330554Y100179D01*
X330745Y101142D01*
X330554Y102105D01*
X330008Y102921D01*
X329852Y103026D01*
X329894Y103599D01*
X330346Y103946D01*
X330821Y104566D01*
X331120Y105288D01*
X331170Y105663D01*
D02*
G37*
G36*
X250118Y147487D02*
X249347Y147334D01*
X248693Y146897D01*
X248256Y146244D01*
X248103Y145472D01*
X248256Y144701D01*
X248693Y144048D01*
X249304Y143640D01*
Y105175D01*
X249304Y105175D01*
X249366Y104863D01*
X249542Y104598D01*
X255766Y98375D01*
X255623Y97657D01*
X255776Y96886D01*
X256213Y96232D01*
X256867Y95795D01*
X257638Y95642D01*
X258409Y95795D01*
X259063Y96232D01*
X259500Y96886D01*
X259653Y97657D01*
X259500Y98428D01*
X259063Y99082D01*
X258409Y99518D01*
X257638Y99672D01*
X256919Y99529D01*
X250935Y105513D01*
Y143641D01*
X251543Y144048D01*
X251980Y144701D01*
X252133Y145472D01*
X251980Y146244D01*
X251543Y146897D01*
X250889Y147334D01*
X250118Y147487D01*
D02*
G37*
G36*
X134331Y109574D02*
X133560Y109421D01*
X132906Y108984D01*
X132469Y108330D01*
X132316Y107559D01*
X132469Y106788D01*
X132906Y106134D01*
X133436Y105780D01*
Y98722D01*
X132827Y98315D01*
X132390Y97661D01*
X132237Y96890D01*
X132390Y96119D01*
X132827Y95465D01*
X133481Y95028D01*
X134252Y94875D01*
X135023Y95028D01*
X135677Y95465D01*
X136114Y96119D01*
X136267Y96890D01*
X136114Y97661D01*
X135677Y98315D01*
X135068Y98722D01*
Y105691D01*
X135102Y105697D01*
X135756Y106134D01*
X136192Y106788D01*
X136346Y107559D01*
X136192Y108330D01*
X135756Y108984D01*
X135102Y109421D01*
X134331Y109574D01*
D02*
G37*
G36*
X125413Y109161D02*
X124642Y109007D01*
X123988Y108571D01*
X123552Y107917D01*
X123398Y107146D01*
X123552Y106375D01*
X123988Y105721D01*
X124224Y105564D01*
Y98722D01*
X123615Y98315D01*
X123178Y97661D01*
X123024Y96890D01*
X123178Y96119D01*
X123615Y95465D01*
X124268Y95028D01*
X125039Y94875D01*
X125811Y95028D01*
X126464Y95465D01*
X126901Y96119D01*
X127055Y96890D01*
X126901Y97661D01*
X126464Y98315D01*
X125855Y98722D01*
Y105218D01*
X126184Y105284D01*
X126838Y105721D01*
X127275Y106375D01*
X127428Y107146D01*
X127275Y107917D01*
X126838Y108571D01*
X126184Y109007D01*
X125413Y109161D01*
D02*
G37*
G36*
X116575Y109220D02*
X115804Y109066D01*
X115150Y108630D01*
X114713Y107976D01*
X114560Y107205D01*
X114713Y106434D01*
X115011Y105988D01*
Y98722D01*
X114402Y98315D01*
X113965Y97661D01*
X113812Y96890D01*
X113965Y96119D01*
X114402Y95465D01*
X115056Y95028D01*
X115827Y94875D01*
X116598Y95028D01*
X117252Y95465D01*
X117689Y96119D01*
X117842Y96890D01*
X117689Y97661D01*
X117252Y98315D01*
X116642Y98722D01*
Y105203D01*
X117346Y105343D01*
X118000Y105780D01*
X118437Y106434D01*
X118590Y107205D01*
X118437Y107976D01*
X118000Y108630D01*
X117346Y109066D01*
X116575Y109220D01*
D02*
G37*
G36*
X241142Y147487D02*
X240371Y147334D01*
X239717Y146897D01*
X239280Y146244D01*
X239127Y145472D01*
X239280Y144701D01*
X239717Y144048D01*
X240371Y143611D01*
X241142Y143457D01*
X241860Y143600D01*
X243121Y142339D01*
Y106358D01*
X243121Y106358D01*
X243183Y106046D01*
X243360Y105781D01*
X255770Y93372D01*
X255627Y92653D01*
X255781Y91882D01*
X256217Y91228D01*
X256871Y90791D01*
X257642Y90638D01*
X258414Y90791D01*
X259067Y91228D01*
X259504Y91882D01*
X259657Y92653D01*
X259504Y93424D01*
X259067Y94078D01*
X258414Y94515D01*
X257642Y94668D01*
X256924Y94525D01*
X244753Y106696D01*
Y142677D01*
X244753Y142677D01*
X244691Y142989D01*
X244514Y143254D01*
X244514Y143254D01*
X243014Y144754D01*
X243157Y145472D01*
X243003Y146244D01*
X242567Y146897D01*
X241913Y147334D01*
X241142Y147487D01*
D02*
G37*
G36*
X328228Y91100D02*
X327265Y90908D01*
X326449Y90362D01*
X326145Y89908D01*
X273224D01*
X273157Y90008D01*
X272503Y90444D01*
X271732Y90598D01*
X270961Y90444D01*
X270307Y90008D01*
X269871Y89354D01*
X269717Y88583D01*
X269871Y87811D01*
X270307Y87158D01*
X270961Y86721D01*
X271732Y86568D01*
X272503Y86721D01*
X273157Y87158D01*
X273224Y87257D01*
X326145D01*
X326449Y86803D01*
X326605Y86699D01*
X326563Y86125D01*
X326111Y85779D01*
X325635Y85158D01*
X325336Y84436D01*
X325287Y84061D01*
X328228D01*
X331170D01*
X331120Y84436D01*
X330821Y85158D01*
X330346Y85779D01*
X329894Y86125D01*
X329852Y86699D01*
X330008Y86803D01*
X330554Y87620D01*
X330745Y88583D01*
X330554Y89546D01*
X330008Y90362D01*
X329191Y90908D01*
X328228Y91100D01*
D02*
G37*
G36*
X331170Y83261D02*
X328228D01*
X325287D01*
X325336Y82886D01*
X325635Y82164D01*
X326111Y81544D01*
X326563Y81198D01*
X326605Y80624D01*
X326449Y80520D01*
X325903Y79703D01*
X325711Y78740D01*
X325903Y77777D01*
X326449Y76960D01*
X327265Y76415D01*
X328228Y76223D01*
X329191Y76415D01*
X330008Y76960D01*
X330554Y77777D01*
X330745Y78740D01*
X330554Y79703D01*
X330008Y80520D01*
X329852Y80624D01*
X329894Y81198D01*
X330346Y81544D01*
X330821Y82164D01*
X331120Y82886D01*
X331170Y83261D01*
D02*
G37*
G36*
X328228Y68619D02*
X327265Y68428D01*
X326449Y67882D01*
X325903Y67066D01*
X325711Y66102D01*
X325903Y65139D01*
X326449Y64323D01*
X326605Y64218D01*
X326563Y63645D01*
X326111Y63298D01*
X325635Y62678D01*
X325336Y61956D01*
X325287Y61581D01*
X328228D01*
X331170D01*
X331120Y61956D01*
X330821Y62678D01*
X330346Y63298D01*
X329894Y63645D01*
X329852Y64218D01*
X330008Y64323D01*
X330554Y65139D01*
X330745Y66102D01*
X330554Y67066D01*
X330008Y67882D01*
X329191Y68428D01*
X328228Y68619D01*
D02*
G37*
G36*
X331170Y60781D02*
X328228D01*
X325287D01*
X325336Y60406D01*
X325635Y59684D01*
X326111Y59064D01*
X326563Y58717D01*
X326605Y58144D01*
X326449Y58040D01*
X325903Y57223D01*
X325711Y56260D01*
X325903Y55297D01*
X326449Y54480D01*
X327265Y53935D01*
X328228Y53743D01*
X329191Y53935D01*
X330008Y54480D01*
X330554Y55297D01*
X330745Y56260D01*
X330554Y57223D01*
X330008Y58040D01*
X329852Y58144D01*
X329894Y58717D01*
X330346Y59064D01*
X330821Y59684D01*
X331120Y60406D01*
X331170Y60781D01*
D02*
G37*
G36*
X18228Y59092D02*
X17265Y58900D01*
X16449Y58355D01*
X15903Y57538D01*
X15711Y56575D01*
X15903Y55612D01*
X16449Y54795D01*
X16605Y54691D01*
X16563Y54117D01*
X16111Y53771D01*
X15635Y53151D01*
X15336Y52429D01*
X15287Y52053D01*
X18228D01*
X21170D01*
X21120Y52429D01*
X20821Y53151D01*
X20346Y53771D01*
X19894Y54117D01*
X19852Y54691D01*
X20008Y54795D01*
X20554Y55612D01*
X20745Y56575D01*
X20554Y57538D01*
X20008Y58355D01*
X19192Y58900D01*
X18228Y59092D01*
D02*
G37*
G36*
X21170Y51253D02*
X18228D01*
X15287D01*
X15336Y50879D01*
X15635Y50156D01*
X16111Y49536D01*
X16563Y49190D01*
X16605Y48616D01*
X16449Y48512D01*
X15903Y47695D01*
X15711Y46732D01*
X15903Y45769D01*
X16449Y44953D01*
X17265Y44407D01*
X18228Y44215D01*
X19192Y44407D01*
X20008Y44953D01*
X20554Y45769D01*
X20745Y46732D01*
X20554Y47695D01*
X20008Y48512D01*
X19852Y48616D01*
X19894Y49190D01*
X20346Y49536D01*
X20821Y50156D01*
X21120Y50879D01*
X21170Y51253D01*
D02*
G37*
G36*
X328228Y46178D02*
X327265Y45987D01*
X326449Y45441D01*
X325903Y44625D01*
X325711Y43661D01*
X325903Y42698D01*
X326449Y41882D01*
X326605Y41778D01*
X326563Y41204D01*
X326111Y40857D01*
X325635Y40237D01*
X325336Y39515D01*
X325287Y39140D01*
X328228D01*
X331170D01*
X331120Y39515D01*
X330821Y40237D01*
X330346Y40857D01*
X329894Y41204D01*
X329852Y41778D01*
X330008Y41882D01*
X330554Y42698D01*
X330745Y43661D01*
X330554Y44625D01*
X330008Y45441D01*
X329191Y45987D01*
X328228Y46178D01*
D02*
G37*
G36*
X331170Y38340D02*
X328228D01*
X325287D01*
X325336Y37965D01*
X325635Y37243D01*
X326111Y36623D01*
X326563Y36276D01*
X326605Y35703D01*
X326449Y35599D01*
X325903Y34782D01*
X325711Y33819D01*
X325903Y32856D01*
X326449Y32039D01*
X327265Y31494D01*
X328228Y31302D01*
X329191Y31494D01*
X330008Y32039D01*
X330554Y32856D01*
X330745Y33819D01*
X330554Y34782D01*
X330008Y35599D01*
X329852Y35703D01*
X329894Y36276D01*
X330346Y36623D01*
X330821Y37243D01*
X331120Y37965D01*
X331170Y38340D01*
D02*
G37*
G36*
X136221Y46503D02*
X135449Y46350D01*
X134796Y45913D01*
X134359Y45259D01*
X134205Y44488D01*
X134359Y43717D01*
X134796Y43063D01*
X134895Y42997D01*
Y22399D01*
X133134Y20639D01*
X132598Y20745D01*
X131635Y20554D01*
X130819Y20008D01*
X130714Y19852D01*
X130141Y19894D01*
X129794Y20346D01*
X129174Y20821D01*
X128452Y21120D01*
X128077Y21170D01*
Y18228D01*
Y15287D01*
X128452Y15336D01*
X129174Y15635D01*
X129794Y16111D01*
X130141Y16563D01*
X130714Y16605D01*
X130819Y16449D01*
X131635Y15903D01*
X132598Y15711D01*
X133562Y15903D01*
X134378Y16449D01*
X134924Y17265D01*
X135115Y18228D01*
X135009Y18764D01*
X137158Y20913D01*
X137445Y21343D01*
X137546Y21850D01*
Y42997D01*
X137645Y43063D01*
X138082Y43717D01*
X138236Y44488D01*
X138082Y45259D01*
X137645Y45913D01*
X136992Y46350D01*
X136221Y46503D01*
D02*
G37*
G36*
X217041Y21170D02*
X216666Y21121D01*
X215944Y20821D01*
X215324Y20346D01*
X214977Y19894D01*
X214404Y19852D01*
X214299Y20008D01*
X213483Y20554D01*
X212520Y20745D01*
X211557Y20554D01*
X210740Y20008D01*
X210194Y19192D01*
X210003Y18228D01*
X210194Y17265D01*
X210740Y16449D01*
X211557Y15903D01*
X212520Y15711D01*
X213483Y15903D01*
X214299Y16449D01*
X214404Y16605D01*
X214977Y16563D01*
X215324Y16111D01*
X215944Y15635D01*
X216666Y15336D01*
X217041Y15287D01*
Y18228D01*
Y21170D01*
D02*
G37*
G36*
X194600D02*
X194225Y21121D01*
X193503Y20821D01*
X192883Y20346D01*
X192536Y19894D01*
X191963Y19852D01*
X191858Y20008D01*
X191042Y20554D01*
X190079Y20745D01*
X189116Y20554D01*
X188299Y20008D01*
X187753Y19192D01*
X187562Y18228D01*
X187753Y17265D01*
X188299Y16449D01*
X189116Y15903D01*
X190079Y15711D01*
X191042Y15903D01*
X191858Y16449D01*
X191963Y16605D01*
X192536Y16563D01*
X192883Y16111D01*
X193503Y15635D01*
X194225Y15336D01*
X194600Y15287D01*
Y18228D01*
Y21170D01*
D02*
G37*
G36*
X172159Y21170D02*
X171784Y21120D01*
X171062Y20821D01*
X170442Y20346D01*
X170095Y19894D01*
X169522Y19852D01*
X169418Y20008D01*
X168601Y20554D01*
X167638Y20745D01*
X166675Y20554D01*
X165858Y20008D01*
X165313Y19192D01*
X165121Y18228D01*
X165313Y17265D01*
X165858Y16449D01*
X166675Y15903D01*
X167638Y15711D01*
X168601Y15903D01*
X169418Y16449D01*
X169522Y16605D01*
X170095Y16563D01*
X170442Y16111D01*
X171062Y15635D01*
X171784Y15336D01*
X172159Y15287D01*
Y18228D01*
Y21170D01*
D02*
G37*
G36*
X149718D02*
X149343Y21120D01*
X148621Y20821D01*
X148001Y20346D01*
X147654Y19894D01*
X147081Y19852D01*
X146976Y20008D01*
X146160Y20554D01*
X145197Y20745D01*
X144234Y20554D01*
X143417Y20008D01*
X142872Y19192D01*
X142680Y18228D01*
X142872Y17265D01*
X143417Y16449D01*
X144234Y15903D01*
X145197Y15711D01*
X146160Y15903D01*
X146976Y16449D01*
X147081Y16605D01*
X147654Y16563D01*
X148001Y16111D01*
X148621Y15635D01*
X149343Y15336D01*
X149718Y15287D01*
Y18228D01*
Y21170D01*
D02*
G37*
G36*
X127277D02*
X126902Y21120D01*
X126180Y20821D01*
X125560Y20346D01*
X125213Y19894D01*
X124640Y19852D01*
X124536Y20008D01*
X123719Y20554D01*
X122756Y20745D01*
X121793Y20554D01*
X120976Y20008D01*
X120431Y19192D01*
X120239Y18228D01*
X120431Y17265D01*
X120976Y16449D01*
X121793Y15903D01*
X122756Y15711D01*
X123719Y15903D01*
X124536Y16449D01*
X124640Y16605D01*
X125213Y16563D01*
X125560Y16111D01*
X126180Y15635D01*
X126902Y15336D01*
X127277Y15287D01*
Y18228D01*
Y21170D01*
D02*
G37*
G36*
X104836D02*
X104461Y21120D01*
X103739Y20821D01*
X103119Y20346D01*
X102772Y19894D01*
X102199Y19852D01*
X102095Y20008D01*
X101278Y20554D01*
X100315Y20745D01*
X99352Y20554D01*
X98535Y20008D01*
X97990Y19192D01*
X97798Y18228D01*
X97990Y17265D01*
X98535Y16449D01*
X99352Y15903D01*
X100315Y15711D01*
X101278Y15903D01*
X102095Y16449D01*
X102199Y16605D01*
X102772Y16563D01*
X103119Y16111D01*
X103739Y15635D01*
X104461Y15336D01*
X104836Y15287D01*
Y18228D01*
Y21170D01*
D02*
G37*
G36*
X82395D02*
X82020Y21120D01*
X81298Y20821D01*
X80678Y20346D01*
X80331Y19894D01*
X79758Y19852D01*
X79654Y20008D01*
X78837Y20554D01*
X77874Y20745D01*
X76911Y20554D01*
X76094Y20008D01*
X75549Y19192D01*
X75357Y18228D01*
X75549Y17265D01*
X76094Y16449D01*
X76911Y15903D01*
X77874Y15711D01*
X78837Y15903D01*
X79654Y16449D01*
X79758Y16605D01*
X80331Y16563D01*
X80678Y16111D01*
X81298Y15635D01*
X82020Y15336D01*
X82395Y15287D01*
Y18228D01*
Y21170D01*
D02*
G37*
G36*
X59954D02*
X59579Y21120D01*
X58857Y20821D01*
X58237Y20346D01*
X57890Y19894D01*
X57317Y19852D01*
X57213Y20008D01*
X56396Y20554D01*
X55433Y20745D01*
X54470Y20554D01*
X53653Y20008D01*
X53108Y19192D01*
X52916Y18228D01*
X53108Y17265D01*
X53653Y16449D01*
X54470Y15903D01*
X55433Y15711D01*
X56396Y15903D01*
X57213Y16449D01*
X57317Y16605D01*
X57890Y16563D01*
X58237Y16111D01*
X58857Y15635D01*
X59579Y15336D01*
X59954Y15287D01*
Y18228D01*
Y21170D01*
D02*
G37*
G36*
X37513D02*
X37139Y21120D01*
X36416Y20821D01*
X35796Y20346D01*
X35450Y19894D01*
X34876Y19852D01*
X34772Y20008D01*
X33955Y20554D01*
X32992Y20745D01*
X32029Y20554D01*
X31212Y20008D01*
X30667Y19192D01*
X30475Y18228D01*
X30667Y17265D01*
X31212Y16449D01*
X32029Y15903D01*
X32992Y15711D01*
X33955Y15903D01*
X34772Y16449D01*
X34876Y16605D01*
X35450Y16563D01*
X35796Y16111D01*
X36416Y15635D01*
X37139Y15336D01*
X37513Y15287D01*
Y18228D01*
Y21170D01*
D02*
G37*
G36*
X334482Y21170D02*
X334107Y21120D01*
X333385Y20821D01*
X332765Y20346D01*
X332418Y19894D01*
X331845Y19852D01*
X331740Y20008D01*
X330924Y20554D01*
X329961Y20745D01*
X328997Y20554D01*
X328181Y20008D01*
X327635Y19192D01*
X327444Y18228D01*
X327635Y17265D01*
X328181Y16449D01*
X328997Y15903D01*
X329961Y15711D01*
X330924Y15903D01*
X331740Y16449D01*
X331845Y16605D01*
X332418Y16563D01*
X332765Y16111D01*
X333385Y15635D01*
X334107Y15336D01*
X334482Y15287D01*
Y18228D01*
Y21170D01*
D02*
G37*
G36*
X312041Y21170D02*
X311666Y21120D01*
X310944Y20821D01*
X310324Y20346D01*
X309977Y19894D01*
X309404Y19852D01*
X309299Y20008D01*
X308483Y20554D01*
X307520Y20745D01*
X306557Y20554D01*
X305740Y20008D01*
X305194Y19192D01*
X305003Y18228D01*
X305194Y17265D01*
X305740Y16449D01*
X306557Y15903D01*
X307520Y15711D01*
X308483Y15903D01*
X309299Y16449D01*
X309404Y16605D01*
X309977Y16563D01*
X310324Y16111D01*
X310944Y15635D01*
X311666Y15336D01*
X312041Y15287D01*
Y18228D01*
Y21170D01*
D02*
G37*
G36*
X289600D02*
X289225Y21120D01*
X288503Y20821D01*
X287883Y20346D01*
X287536Y19894D01*
X286963Y19852D01*
X286858Y20008D01*
X286042Y20554D01*
X285079Y20745D01*
X284116Y20554D01*
X283299Y20008D01*
X282753Y19192D01*
X282562Y18228D01*
X282753Y17265D01*
X283299Y16449D01*
X284116Y15903D01*
X285079Y15711D01*
X286042Y15903D01*
X286858Y16449D01*
X286963Y16605D01*
X287536Y16563D01*
X287883Y16111D01*
X288503Y15635D01*
X289225Y15336D01*
X289600Y15287D01*
Y18228D01*
Y21170D01*
D02*
G37*
G36*
X267159D02*
X266784Y21120D01*
X266062Y20821D01*
X265442Y20346D01*
X265095Y19894D01*
X264522Y19852D01*
X264418Y20008D01*
X263601Y20554D01*
X262638Y20745D01*
X261675Y20554D01*
X260858Y20008D01*
X260313Y19192D01*
X260121Y18228D01*
X260313Y17265D01*
X260858Y16449D01*
X261675Y15903D01*
X262638Y15711D01*
X263601Y15903D01*
X264418Y16449D01*
X264522Y16605D01*
X265095Y16563D01*
X265442Y16111D01*
X266062Y15635D01*
X266784Y15336D01*
X267159Y15287D01*
Y18228D01*
Y21170D01*
D02*
G37*
G36*
X217841Y21170D02*
Y18228D01*
Y15287D01*
X218216Y15336D01*
X218938Y15635D01*
X219558Y16111D01*
X219905Y16563D01*
X220478Y16605D01*
X220583Y16449D01*
X221399Y15903D01*
X222362Y15711D01*
X223325Y15903D01*
X224142Y16449D01*
X224687Y17265D01*
X224879Y18228D01*
X224687Y19192D01*
X224142Y20008D01*
X223325Y20554D01*
X222362Y20745D01*
X221399Y20554D01*
X220583Y20008D01*
X220478Y19852D01*
X219905Y19894D01*
X219558Y20346D01*
X218938Y20821D01*
X218216Y21121D01*
X217841Y21170D01*
D02*
G37*
G36*
X195400D02*
Y18228D01*
Y15287D01*
X195775Y15336D01*
X196497Y15635D01*
X197117Y16111D01*
X197464Y16563D01*
X198037Y16605D01*
X198142Y16449D01*
X198958Y15903D01*
X199921Y15711D01*
X200884Y15903D01*
X201701Y16449D01*
X202246Y17265D01*
X202438Y18228D01*
X202246Y19192D01*
X201701Y20008D01*
X200884Y20554D01*
X199921Y20745D01*
X198958Y20554D01*
X198142Y20008D01*
X198037Y19852D01*
X197464Y19894D01*
X197117Y20346D01*
X196497Y20821D01*
X195775Y21121D01*
X195400Y21170D01*
D02*
G37*
G36*
X335282Y21170D02*
Y18228D01*
Y15287D01*
X335657Y15336D01*
X336379Y15635D01*
X336999Y16111D01*
X337346Y16563D01*
X337919Y16605D01*
X338023Y16449D01*
X338840Y15903D01*
X339803Y15711D01*
X340766Y15903D01*
X341583Y16449D01*
X342128Y17265D01*
X342320Y18228D01*
X342128Y19192D01*
X341583Y20008D01*
X340766Y20554D01*
X339803Y20745D01*
X338840Y20554D01*
X338023Y20008D01*
X337919Y19852D01*
X337346Y19894D01*
X336999Y20346D01*
X336379Y20821D01*
X335657Y21120D01*
X335282Y21170D01*
D02*
G37*
G36*
X312841D02*
Y18228D01*
Y15287D01*
X313216Y15336D01*
X313938Y15635D01*
X314558Y16111D01*
X314905Y16563D01*
X315478Y16605D01*
X315582Y16449D01*
X316399Y15903D01*
X317362Y15711D01*
X318325Y15903D01*
X319142Y16449D01*
X319688Y17265D01*
X319879Y18228D01*
X319688Y19192D01*
X319142Y20008D01*
X318325Y20554D01*
X317362Y20745D01*
X316399Y20554D01*
X315582Y20008D01*
X315478Y19852D01*
X314905Y19894D01*
X314558Y20346D01*
X313938Y20821D01*
X313216Y21120D01*
X312841Y21170D01*
D02*
G37*
G36*
X290400D02*
Y18228D01*
Y15287D01*
X290775Y15336D01*
X291497Y15635D01*
X292117Y16111D01*
X292464Y16563D01*
X293037Y16605D01*
X293142Y16449D01*
X293958Y15903D01*
X294921Y15711D01*
X295884Y15903D01*
X296701Y16449D01*
X297247Y17265D01*
X297438Y18228D01*
X297247Y19192D01*
X296701Y20008D01*
X295884Y20554D01*
X294921Y20745D01*
X293958Y20554D01*
X293142Y20008D01*
X293037Y19852D01*
X292464Y19894D01*
X292117Y20346D01*
X291497Y20821D01*
X290775Y21120D01*
X290400Y21170D01*
D02*
G37*
G36*
X267959Y21170D02*
Y18228D01*
Y15287D01*
X268334Y15336D01*
X269056Y15635D01*
X269676Y16111D01*
X270023Y16563D01*
X270596Y16605D01*
X270701Y16449D01*
X271517Y15903D01*
X272480Y15711D01*
X273444Y15903D01*
X274260Y16449D01*
X274806Y17265D01*
X274997Y18228D01*
X274806Y19192D01*
X274260Y20008D01*
X273444Y20554D01*
X272480Y20745D01*
X271517Y20554D01*
X270701Y20008D01*
X270596Y19852D01*
X270023Y19894D01*
X269676Y20346D01*
X269056Y20821D01*
X268334Y21120D01*
X267959Y21170D01*
D02*
G37*
G36*
X172959Y21170D02*
Y18228D01*
Y15287D01*
X173334Y15336D01*
X174056Y15635D01*
X174676Y16111D01*
X175023Y16563D01*
X175596Y16605D01*
X175701Y16449D01*
X176517Y15903D01*
X177480Y15711D01*
X178444Y15903D01*
X179260Y16449D01*
X179806Y17265D01*
X179997Y18228D01*
X179806Y19192D01*
X179260Y20008D01*
X178444Y20554D01*
X177480Y20745D01*
X176517Y20554D01*
X175701Y20008D01*
X175596Y19852D01*
X175023Y19894D01*
X174676Y20346D01*
X174056Y20821D01*
X173334Y21120D01*
X172959Y21170D01*
D02*
G37*
G36*
X150518D02*
Y18228D01*
Y15287D01*
X150893Y15336D01*
X151615Y15635D01*
X152235Y16111D01*
X152582Y16563D01*
X153155Y16605D01*
X153260Y16449D01*
X154076Y15903D01*
X155039Y15711D01*
X156002Y15903D01*
X156819Y16449D01*
X157365Y17265D01*
X157556Y18228D01*
X157365Y19192D01*
X156819Y20008D01*
X156002Y20554D01*
X155039Y20745D01*
X154076Y20554D01*
X153260Y20008D01*
X153155Y19852D01*
X152582Y19894D01*
X152235Y20346D01*
X151615Y20821D01*
X150893Y21120D01*
X150518Y21170D01*
D02*
G37*
G36*
X105636D02*
Y18228D01*
Y15287D01*
X106011Y15336D01*
X106733Y15635D01*
X107353Y16111D01*
X107700Y16563D01*
X108273Y16605D01*
X108378Y16449D01*
X109194Y15903D01*
X110158Y15711D01*
X111121Y15903D01*
X111937Y16449D01*
X112483Y17265D01*
X112674Y18228D01*
X112483Y19192D01*
X111937Y20008D01*
X111121Y20554D01*
X110158Y20745D01*
X109194Y20554D01*
X108378Y20008D01*
X108273Y19852D01*
X107700Y19894D01*
X107353Y20346D01*
X106733Y20821D01*
X106011Y21120D01*
X105636Y21170D01*
D02*
G37*
G36*
X83195D02*
Y18228D01*
Y15287D01*
X83570Y15336D01*
X84292Y15635D01*
X84913Y16111D01*
X85259Y16563D01*
X85833Y16605D01*
X85937Y16449D01*
X86753Y15903D01*
X87717Y15711D01*
X88680Y15903D01*
X89496Y16449D01*
X90042Y17265D01*
X90233Y18228D01*
X90042Y19192D01*
X89496Y20008D01*
X88680Y20554D01*
X87717Y20745D01*
X86753Y20554D01*
X85937Y20008D01*
X85833Y19852D01*
X85259Y19894D01*
X84913Y20346D01*
X84292Y20821D01*
X83570Y21120D01*
X83195Y21170D01*
D02*
G37*
G36*
X60754D02*
Y18228D01*
Y15287D01*
X61129Y15336D01*
X61851Y15635D01*
X62471Y16111D01*
X62818Y16563D01*
X63392Y16605D01*
X63496Y16449D01*
X64312Y15903D01*
X65276Y15711D01*
X66239Y15903D01*
X67055Y16449D01*
X67601Y17265D01*
X67792Y18228D01*
X67601Y19192D01*
X67055Y20008D01*
X66239Y20554D01*
X65276Y20745D01*
X64312Y20554D01*
X63496Y20008D01*
X63392Y19852D01*
X62818Y19894D01*
X62471Y20346D01*
X61851Y20821D01*
X61129Y21120D01*
X60754Y21170D01*
D02*
G37*
G36*
X38313D02*
Y18228D01*
Y15287D01*
X38688Y15336D01*
X39410Y15635D01*
X40031Y16111D01*
X40377Y16563D01*
X40951Y16605D01*
X41055Y16449D01*
X41872Y15903D01*
X42835Y15711D01*
X43798Y15903D01*
X44614Y16449D01*
X45160Y17265D01*
X45351Y18228D01*
X45160Y19192D01*
X44614Y20008D01*
X43798Y20554D01*
X42835Y20745D01*
X41872Y20554D01*
X41055Y20008D01*
X40951Y19852D01*
X40377Y19894D01*
X40031Y20346D01*
X39410Y20821D01*
X38688Y21120D01*
X38313Y21170D01*
D02*
G37*
G36*
X242526Y26697D02*
Y14179D01*
X255044D01*
X254916Y15805D01*
X254442Y17781D01*
X253664Y19658D01*
X252602Y21391D01*
X251283Y22936D01*
X249737Y24256D01*
X248005Y25317D01*
X246128Y26095D01*
X244152Y26570D01*
X242526Y26697D01*
D02*
G37*
G36*
X241726D02*
X240100Y26570D01*
X238124Y26095D01*
X236247Y25317D01*
X234514Y24256D01*
X232969Y22936D01*
X231650Y21391D01*
X230588Y19658D01*
X229810Y17781D01*
X229336Y15805D01*
X229208Y14179D01*
X241726D01*
Y26697D01*
D02*
G37*
G36*
X14179D02*
Y14179D01*
X26697D01*
X26570Y15805D01*
X26095Y17781D01*
X25317Y19658D01*
X24256Y21391D01*
X22936Y22936D01*
X21391Y24256D01*
X19658Y25317D01*
X17781Y26095D01*
X15805Y26570D01*
X14179Y26697D01*
D02*
G37*
%LPD*%
G36*
X37795Y189213D02*
X37795Y179252D01*
X31298D01*
X28589Y181936D01*
X22598Y187874D01*
X14134D01*
X13071Y186811D01*
Y137716D01*
X13858Y136929D01*
X14912D01*
X14941Y136896D01*
X18228D01*
X21516D01*
X21545Y136929D01*
X22047D01*
X22441Y136535D01*
Y133504D01*
X21850Y132913D01*
X13858Y132913D01*
X13071Y132126D01*
Y115276D01*
X13858Y114488D01*
X14912D01*
X14941Y114455D01*
X18228D01*
X21516D01*
X21545Y114488D01*
X22088D01*
X22442Y114135D01*
X22441Y111299D01*
X21654Y110512D01*
X13858D01*
X13071Y109724D01*
X13071Y92835D01*
X13858Y92047D01*
X14912D01*
X14941Y92014D01*
X18228D01*
X21516D01*
X21545Y92047D01*
X22047D01*
X22441Y91654D01*
X22441Y88539D01*
X21927Y88032D01*
X13898Y88032D01*
X13071Y87205D01*
Y70512D01*
X13976Y69606D01*
X14912D01*
X14941Y69573D01*
X18228D01*
X21516D01*
X21545Y69606D01*
X22087D01*
X33268Y80787D01*
X33268Y87835D01*
X35118Y89685D01*
X43307Y89685D01*
X45315Y87677D01*
X61929Y87677D01*
X70315Y96063D01*
X82914D01*
X92205Y86772D01*
X92205Y80354D01*
X85709Y73858D01*
X67520Y73858D01*
X62283Y79094D01*
X36299Y79094D01*
X33465Y76260D01*
X31063Y73858D01*
X21969Y64764D01*
X11181Y64764D01*
X9488Y66457D01*
X9488Y191417D01*
X10394Y192323D01*
X34685Y192323D01*
X37795Y189213D01*
D02*
G37*
%LPC*%
G36*
X21170Y136096D02*
X18628D01*
Y133555D01*
X19003Y133604D01*
X19725Y133903D01*
X20346Y134379D01*
X20821Y134999D01*
X21120Y135721D01*
X21170Y136096D01*
D02*
G37*
G36*
X17828D02*
X15287D01*
X15336Y135721D01*
X15635Y134999D01*
X16111Y134379D01*
X16731Y133903D01*
X17453Y133604D01*
X17828Y133555D01*
Y136096D01*
D02*
G37*
G36*
X21170Y113655D02*
X18628D01*
Y111114D01*
X19003Y111163D01*
X19725Y111462D01*
X20346Y111938D01*
X20821Y112558D01*
X21120Y113280D01*
X21170Y113655D01*
D02*
G37*
G36*
X17828D02*
X15287D01*
X15336Y113280D01*
X15635Y112558D01*
X16111Y111938D01*
X16731Y111462D01*
X17453Y111163D01*
X17828Y111114D01*
Y113655D01*
D02*
G37*
G36*
X17828Y91214D02*
X15287D01*
X15336Y90839D01*
X15635Y90117D01*
X16111Y89497D01*
X16731Y89021D01*
X17453Y88722D01*
X17828Y88673D01*
Y91214D01*
D02*
G37*
G36*
X21170D02*
X18628D01*
Y88673D01*
X19003Y88722D01*
X19725Y89021D01*
X20346Y89497D01*
X20821Y90117D01*
X21120Y90839D01*
X21170Y91214D01*
D02*
G37*
G36*
Y68773D02*
X18628D01*
Y66232D01*
X19003Y66281D01*
X19725Y66580D01*
X20346Y67056D01*
X20821Y67676D01*
X21120Y68398D01*
X21170Y68773D01*
D02*
G37*
G36*
X17828D02*
X15287D01*
X15336Y68398D01*
X15635Y67676D01*
X16111Y67056D01*
X16731Y66580D01*
X17453Y66281D01*
X17828Y66232D01*
Y68773D01*
D02*
G37*
%LPD*%
D44*
X36496Y181142D02*
X42953D01*
X52953D01*
D45*
X35551Y182087D02*
X36496Y181142D01*
X57958Y193302D02*
Y206694D01*
X58465Y169921D02*
X60984Y172441D01*
Y190276D01*
X57958Y193302D02*
X60984Y190276D01*
X24646Y85433D02*
Y96850D01*
X18228Y79016D02*
X24646Y85433D01*
Y96850D02*
X40157Y112362D01*
X75630D02*
X75736Y112256D01*
X86142Y122662D01*
Y194878D01*
X40157Y112362D02*
X75630D01*
X82953Y129646D02*
Y201689D01*
X71102Y117795D02*
X82953Y129646D01*
X86142Y194878D02*
X92953Y201689D01*
X23819Y101457D02*
X40157Y117795D01*
X71102D01*
X18228Y101457D02*
X23819D01*
X18228Y123898D02*
X65276D01*
X77958Y136580D01*
X250118Y145472D02*
X250119Y145471D01*
Y105175D02*
Y145471D01*
X241142Y145472D02*
X243937Y142677D01*
X257638Y144016D02*
X259095Y145472D01*
X186221Y94882D02*
Y103228D01*
X181850Y107598D02*
X186221Y103228D01*
X181102Y94842D02*
Y103937D01*
X154055Y105433D02*
X179606D01*
X181102Y103937D01*
X271732Y132283D02*
X271732Y132283D01*
X18228Y114055D02*
X18228Y114055D01*
X18225Y69176D02*
X18228Y69173D01*
X151614Y107874D02*
X154055Y105433D01*
X146260Y107874D02*
X151614D01*
X158976Y107598D02*
X181850D01*
X158031Y108543D02*
X158976Y107598D01*
X134252Y96890D02*
Y107480D01*
X134331Y107559D01*
X125039Y106772D02*
X125413Y107146D01*
X125039Y96890D02*
Y106772D01*
X115827Y106457D02*
X116575Y107205D01*
X115827Y96890D02*
Y106457D01*
X77958Y136580D02*
Y206694D01*
X82953Y211689D01*
X67958Y206694D02*
X72953Y211689D01*
X67958Y164493D02*
Y206694D01*
X49803Y146339D02*
X67958Y164493D01*
X18228Y146339D02*
X49803D01*
X44488Y165827D02*
X61260D01*
X62953Y167520D02*
Y201689D01*
X61260Y165827D02*
X62953Y167520D01*
X40315Y169921D02*
X58465D01*
X37835Y159173D02*
X44488Y165827D01*
X34331Y163937D02*
X40315Y169921D01*
X18307Y159016D02*
X18465Y159173D01*
X37835D01*
X57958Y206694D02*
X62953Y211689D01*
X18307Y163937D02*
X34331D01*
X257638Y102657D02*
Y144016D01*
X250119Y105175D02*
X257638Y97657D01*
X243937Y106358D02*
X257642Y92653D01*
X243937Y106358D02*
Y142677D01*
D46*
X206063Y101850D02*
Y151378D01*
X184102Y115748D02*
X185039Y116685D01*
X174173Y115748D02*
X184102D01*
X185039Y116685D02*
Y146890D01*
X191811Y153661D01*
X203780D01*
X206063Y151378D01*
X165354Y115748D02*
X174173D01*
X156457D02*
X165354D01*
X147598D02*
X156457D01*
X138740D02*
X147598D01*
X129882D02*
X138740D01*
X121024D02*
X129882D01*
X112165D02*
X121024D01*
X103307D02*
X112165D01*
X94449D02*
X103307D01*
X305079Y133425D02*
X328228D01*
X303937Y132283D02*
X305079Y133425D01*
X271732Y132283D02*
X303937D01*
X271732Y88583D02*
X328228D01*
X136221Y21850D02*
Y44488D01*
X132598Y18228D02*
X136221Y21850D01*
D48*
X262638Y18228D02*
D03*
X267559D02*
D03*
X272480D02*
D03*
X32992D02*
D03*
X37913D02*
D03*
X42835D02*
D03*
X18228Y136496D02*
D03*
Y141417D02*
D03*
Y146339D02*
D03*
Y114055D02*
D03*
Y118976D02*
D03*
Y123898D02*
D03*
Y91614D02*
D03*
Y96535D02*
D03*
Y101457D02*
D03*
Y69173D02*
D03*
Y74094D02*
D03*
Y79016D02*
D03*
Y46732D02*
D03*
Y51653D02*
D03*
Y56575D02*
D03*
X65276Y18228D02*
D03*
X60354D02*
D03*
X55433D02*
D03*
X87717D02*
D03*
X82795D02*
D03*
X77874D02*
D03*
X110158D02*
D03*
X105236D02*
D03*
X100315D02*
D03*
X132598D02*
D03*
X127677D02*
D03*
X122756D02*
D03*
X155039D02*
D03*
X150118D02*
D03*
X145197D02*
D03*
X177480D02*
D03*
X172559D02*
D03*
X167638D02*
D03*
X199921Y18228D02*
D03*
X195000D02*
D03*
X190079D02*
D03*
X222362D02*
D03*
X217441D02*
D03*
X212520D02*
D03*
X294921Y18228D02*
D03*
X290000D02*
D03*
X285079D02*
D03*
X317362D02*
D03*
X312441D02*
D03*
X307520D02*
D03*
X339803D02*
D03*
X334882D02*
D03*
X329961D02*
D03*
X328228Y43661D02*
D03*
Y38740D02*
D03*
Y33819D02*
D03*
X328228Y66102D02*
D03*
Y61181D02*
D03*
Y56260D02*
D03*
Y88583D02*
D03*
Y83661D02*
D03*
Y78740D02*
D03*
Y110984D02*
D03*
Y106063D02*
D03*
Y101142D02*
D03*
Y133425D02*
D03*
Y128504D02*
D03*
Y123583D02*
D03*
Y155866D02*
D03*
Y150945D02*
D03*
Y146024D02*
D03*
X328228Y178307D02*
D03*
Y173386D02*
D03*
Y168465D02*
D03*
Y200748D02*
D03*
Y195827D02*
D03*
Y190905D02*
D03*
X18307Y163937D02*
D03*
Y183622D02*
D03*
Y173779D02*
D03*
Y159016D02*
D03*
Y168858D02*
D03*
Y178701D02*
D03*
D49*
X242126Y206693D02*
D03*
Y13780D02*
D03*
X13780D02*
D03*
Y206693D02*
D03*
D50*
X143268Y187638D02*
D03*
Y177638D02*
D03*
X129213Y187638D02*
D03*
Y177638D02*
D03*
D51*
X142953Y201689D02*
D03*
X132953D02*
D03*
X122953D02*
D03*
X112953D02*
D03*
X102953D02*
D03*
X92953D02*
D03*
X82953D02*
D03*
X72953D02*
D03*
X222953D02*
D03*
X212953D02*
D03*
X202953D02*
D03*
X192953D02*
D03*
X182953D02*
D03*
X172953D02*
D03*
X162953D02*
D03*
X152953D02*
D03*
X62953D02*
D03*
X52953D02*
D03*
X42953D02*
D03*
X142953Y211689D02*
D03*
X132953D02*
D03*
X122953D02*
D03*
X112953D02*
D03*
X102953D02*
D03*
X92953D02*
D03*
X82953D02*
D03*
X72953D02*
D03*
X222953D02*
D03*
X212953D02*
D03*
X202953D02*
D03*
X192953D02*
D03*
X182953D02*
D03*
X172953D02*
D03*
X162953D02*
D03*
X152953D02*
D03*
X62953D02*
D03*
X52953D02*
D03*
X42953D02*
D03*
X32953D02*
D03*
D52*
Y201689D02*
D03*
D53*
X333071Y96850D02*
D03*
Y57480D02*
D03*
X313386Y96850D02*
D03*
X303543Y195276D02*
D03*
X293701Y175591D02*
D03*
X303543Y155905D02*
D03*
Y116535D02*
D03*
X293701Y57480D02*
D03*
X303543Y37795D02*
D03*
X274016Y175591D02*
D03*
X283858Y155905D02*
D03*
X274016Y96850D02*
D03*
X264173Y195276D02*
D03*
X254331Y175591D02*
D03*
X234646D02*
D03*
Y96850D02*
D03*
X244488Y77165D02*
D03*
X214961Y175591D02*
D03*
Y57480D02*
D03*
X224803Y37795D02*
D03*
X205118Y195276D02*
D03*
Y37795D02*
D03*
X175591Y136221D02*
D03*
Y96850D02*
D03*
X185433Y37795D02*
D03*
X165748Y155905D02*
D03*
X155905Y96850D02*
D03*
X146063Y155905D02*
D03*
X126378Y195276D02*
D03*
Y37795D02*
D03*
X96850Y96850D02*
D03*
X87008Y116535D02*
D03*
X67323Y155905D02*
D03*
X57480Y136221D02*
D03*
X47638Y195276D02*
D03*
X37795Y136221D02*
D03*
X47638Y37795D02*
D03*
X27953Y155905D02*
D03*
Y116535D02*
D03*
X42953Y181142D02*
D03*
X53740Y83346D02*
D03*
X41299Y81732D02*
D03*
X77953Y83346D02*
D03*
X66181D02*
D03*
X161142Y145158D02*
D03*
X100669Y69961D02*
D03*
Y82953D02*
D03*
X68012Y100354D02*
D03*
Y106181D02*
D03*
X40079Y96968D02*
D03*
X53759Y92401D02*
D03*
X58365Y66063D02*
D03*
X35394Y86496D02*
D03*
X85984Y89528D02*
D03*
Y77165D02*
D03*
X259095Y145472D02*
D03*
X202353Y97165D02*
D03*
X191811Y153661D02*
D03*
X199213Y112520D02*
D03*
X212913Y109213D02*
D03*
X211024Y68386D02*
D03*
X207008D02*
D03*
X202047D02*
D03*
X195630D02*
D03*
X220433Y77520D02*
D03*
X220236Y92520D02*
D03*
Y97598D02*
D03*
Y102657D02*
D03*
X188189Y71457D02*
D03*
X187795Y80984D02*
D03*
X181417Y90158D02*
D03*
X186221Y94882D02*
D03*
X181102Y94842D02*
D03*
X282677Y84153D02*
D03*
Y127657D02*
D03*
X220079Y49154D02*
D03*
Y54154D02*
D03*
Y59153D02*
D03*
X33465Y184252D02*
D03*
X94449Y115748D02*
D03*
X103307D02*
D03*
X112165D02*
D03*
X121024D02*
D03*
X129882D02*
D03*
X138740D02*
D03*
X147598D02*
D03*
X156457D02*
D03*
X165354D02*
D03*
X174173D02*
D03*
X206063Y101850D02*
D03*
X271732Y132283D02*
D03*
Y88583D02*
D03*
X136221Y44488D02*
D03*
X52953Y181142D02*
D03*
X146260Y107874D02*
D03*
X158031Y108543D02*
D03*
X134331Y107559D02*
D03*
X125413Y107146D02*
D03*
X116575Y107205D02*
D03*
X115827Y96890D02*
D03*
X125039D02*
D03*
X134252D02*
D03*
X250118Y145472D02*
D03*
X241142D02*
D03*
X257638Y102657D02*
D03*
Y97657D02*
D03*
X257642Y92653D02*
D03*
M02*
