G04*
G04 #@! TF.GenerationSoftware,Altium Limited,Altium Designer,20.2.6 (244)*
G04*
G04 Layer_Color=32896*
%FSLAX25Y25*%
%MOIN*%
G70*
G04*
G04 #@! TF.SameCoordinates,6014BA27-FBD2-41FC-A7C1-7B1D111333E3*
G04*
G04*
G04 #@! TF.FilePolarity,Positive*
G04*
G01*
G75*
%ADD14C,0.00620*%
G36*
X288878Y188695D02*
X288937Y188688D01*
X289002D01*
X289075Y188673D01*
X289243Y188651D01*
X289418Y188608D01*
X289600Y188557D01*
X289775Y188484D01*
X289782D01*
X289797Y188476D01*
X289819Y188462D01*
X289855Y188447D01*
X289892Y188425D01*
X289935Y188396D01*
X290045Y188323D01*
X290169Y188236D01*
X290307Y188126D01*
X290439Y187995D01*
X290570Y187842D01*
X290592D01*
X290424Y188542D01*
X292596D01*
X294040Y182768D01*
X291889D01*
X290927Y186581D01*
Y186588D01*
X290920Y186595D01*
X290912Y186639D01*
X290891Y186697D01*
X290861Y186770D01*
X290825Y186858D01*
X290774Y186938D01*
X290716Y187018D01*
X290643Y187091D01*
X290635Y187099D01*
X290606Y187120D01*
X290563Y187142D01*
X290504Y187179D01*
X290431Y187208D01*
X290344Y187230D01*
X290242Y187252D01*
X290132Y187259D01*
X290081D01*
X290030Y187252D01*
X289965Y187237D01*
X289892Y187215D01*
X289819Y187186D01*
X289761Y187150D01*
X289709Y187091D01*
X289702Y187084D01*
X289695Y187062D01*
X289680Y187018D01*
X289666Y186967D01*
X289658Y186894D01*
Y186800D01*
X289673Y186697D01*
X289702Y186574D01*
X290650Y182768D01*
X288499Y182768D01*
X287544Y186581D01*
Y186588D01*
X287537Y186595D01*
X287530Y186639D01*
X287508Y186697D01*
X287472Y186770D01*
X287435Y186858D01*
X287384Y186938D01*
X287326Y187018D01*
X287253Y187091D01*
X287245Y187099D01*
X287216Y187120D01*
X287173Y187142D01*
X287107Y187179D01*
X287034Y187208D01*
X286939Y187230D01*
X286837Y187252D01*
X286721Y187259D01*
X286670D01*
X286619Y187252D01*
X286553Y187237D01*
X286480Y187215D01*
X286415Y187186D01*
X286349Y187150D01*
X286305Y187091D01*
X286298Y187084D01*
X286291Y187062D01*
X286276Y187018D01*
X286261Y186967D01*
X286254Y186894D01*
Y186807D01*
X286261Y186705D01*
X286291Y186581D01*
X287245Y182768D01*
X286240D01*
X286203Y182775D01*
X286159D01*
X286108Y182783D01*
X285984Y182805D01*
X285846Y182841D01*
X285685Y182892D01*
X285525Y182965D01*
X285365Y183067D01*
X285357Y183074D01*
X285343Y183082D01*
X285328Y183096D01*
X285299Y183118D01*
X285226Y183184D01*
X285139Y183271D01*
X285044Y183381D01*
X284957Y183512D01*
X284884Y183658D01*
X284825Y183818D01*
X283994Y187120D01*
Y187128D01*
X283987Y187142D01*
Y187164D01*
X283980Y187200D01*
X283965Y187281D01*
X283943Y187390D01*
X283929Y187514D01*
X283921Y187638D01*
Y187769D01*
X283936Y187893D01*
Y187900D01*
Y187908D01*
X283943Y187944D01*
X283965Y188002D01*
X283987Y188075D01*
X284016Y188148D01*
X284060Y188228D01*
X284118Y188309D01*
X284184Y188382D01*
X284191Y188389D01*
X284220Y188411D01*
X284271Y188440D01*
X284330Y188476D01*
X284402Y188513D01*
X284497Y188557D01*
X284592Y188593D01*
X284701Y188622D01*
X284716Y188629D01*
X284752Y188637D01*
X284811Y188651D01*
X284891Y188666D01*
X284993Y188680D01*
X285109Y188688D01*
X285233Y188702D01*
X285467D01*
X285532Y188695D01*
X285613Y188688D01*
X285700Y188680D01*
X285882Y188651D01*
X285890D01*
X285926Y188644D01*
X285977Y188629D01*
X286035Y188615D01*
X286116Y188593D01*
X286196Y188564D01*
X286378Y188498D01*
X286393Y188491D01*
X286422Y188484D01*
X286473Y188462D01*
X286538Y188433D01*
X286611Y188389D01*
X286691Y188345D01*
X286779Y188294D01*
X286866Y188228D01*
X286874Y188221D01*
X286903Y188199D01*
X286947Y188163D01*
X287005Y188112D01*
X287071Y188046D01*
X287136Y187973D01*
X287209Y187893D01*
X287282Y187806D01*
Y187813D01*
X287289Y187842D01*
X287304Y187886D01*
X287318Y187937D01*
X287340Y188002D01*
X287369Y188068D01*
X287435Y188199D01*
X287442Y188207D01*
X287450Y188228D01*
X287472Y188258D01*
X287501Y188301D01*
X287537Y188345D01*
X287588Y188389D01*
X287639Y188440D01*
X287698Y188484D01*
X287705Y188491D01*
X287727Y188498D01*
X287763Y188520D01*
X287814Y188542D01*
X287880Y188571D01*
X287953Y188600D01*
X288033Y188622D01*
X288128Y188644D01*
X288142D01*
X288171Y188651D01*
X288222Y188666D01*
X288295Y188673D01*
X288383Y188688D01*
X288485Y188695D01*
X288601Y188702D01*
X288827D01*
X288878Y188695D01*
D02*
G37*
G36*
X300295Y184168D02*
Y184161D01*
X300302Y184146D01*
Y184124D01*
X300309Y184095D01*
X300324Y184008D01*
X300346Y183905D01*
X300360Y183782D01*
X300367Y183658D01*
Y183534D01*
X300353Y183410D01*
Y183395D01*
X300338Y183359D01*
X300324Y183308D01*
X300295Y183235D01*
X300258Y183162D01*
X300214Y183089D01*
X300149Y183016D01*
X300076Y182950D01*
X300069Y182943D01*
X300040Y182921D01*
X299996Y182892D01*
X299945Y182856D01*
X299872Y182812D01*
X299792Y182768D01*
X299697Y182732D01*
X299595Y182695D01*
X299580D01*
X299544Y182681D01*
X299485Y182674D01*
X299405Y182659D01*
X299310Y182644D01*
X299194Y182630D01*
X299070Y182622D01*
X298829D01*
X298786Y182630D01*
X298720Y182637D01*
X298654D01*
X298582Y182652D01*
X298421Y182674D01*
X298246Y182710D01*
X298071Y182761D01*
X297896Y182834D01*
X297889D01*
X297874Y182841D01*
X297852Y182856D01*
X297816Y182870D01*
X297780Y182892D01*
X297736Y182921D01*
X297626Y182987D01*
X297503Y183074D01*
X297371Y183184D01*
X297240Y183308D01*
X297109Y183454D01*
X297080D01*
X297247Y182761D01*
X295104D01*
X293661Y188542D01*
X295811D01*
X296774Y184722D01*
Y184715D01*
X296781Y184707D01*
X296788Y184664D01*
X296810Y184605D01*
X296839Y184532D01*
X296883Y184445D01*
X296934Y184357D01*
X296992Y184277D01*
X297065Y184204D01*
X297072Y184197D01*
X297102Y184175D01*
X297145Y184146D01*
X297204Y184117D01*
X297277Y184088D01*
X297364Y184059D01*
X297466Y184037D01*
X297583Y184029D01*
X297634D01*
X297685Y184037D01*
X297743Y184051D01*
X297816Y184073D01*
X297882Y184102D01*
X297940Y184146D01*
X297991Y184204D01*
X297998Y184212D01*
X298006Y184241D01*
X298020Y184277D01*
X298027Y184336D01*
X298042Y184408D01*
Y184496D01*
X298027Y184598D01*
X298006Y184722D01*
X297051Y188542D01*
X299201D01*
X300295Y184168D01*
D02*
G37*
G36*
X312899Y190379D02*
X312979D01*
X313081Y190364D01*
X313198Y190350D01*
X313329Y190328D01*
X313468Y190299D01*
X313606Y190262D01*
X313614D01*
X313621Y190255D01*
X313643Y190248D01*
X313665Y190241D01*
X313737Y190219D01*
X313825Y190182D01*
X313934Y190138D01*
X314051Y190080D01*
X314167Y190022D01*
X314291Y189949D01*
X314306Y189942D01*
X314342Y189912D01*
X314401Y189869D01*
X314481Y189818D01*
X314568Y189745D01*
X314663Y189665D01*
X314765Y189577D01*
X314867Y189475D01*
X314882Y189460D01*
X314911Y189431D01*
X314955Y189373D01*
X315020Y189300D01*
X315086Y189213D01*
X315166Y189103D01*
X315246Y188994D01*
X315319Y188870D01*
X318593Y182761D01*
X316114Y182768D01*
X315531Y184088D01*
X313679D01*
X313752Y182761D01*
X311266D01*
X311550Y190386D01*
X312870D01*
X312899Y190379D01*
D02*
G37*
G36*
X310814Y182761D02*
X308656D01*
X306746Y190386D01*
X308897D01*
X310814Y182761D01*
D02*
G37*
G36*
X303779D02*
X301629D01*
X300178Y188542D01*
X302336D01*
X303779Y182761D01*
D02*
G37*
G36*
X307278Y184161D02*
Y184153D01*
X307286Y184139D01*
Y184117D01*
X307293Y184080D01*
X307315Y184000D01*
X307330Y183891D01*
X307351Y183767D01*
X307366Y183643D01*
X307373Y183512D01*
X307366Y183395D01*
Y183381D01*
X307359Y183344D01*
X307344Y183293D01*
X307322Y183228D01*
X307293Y183162D01*
X307249Y183089D01*
X307198Y183023D01*
X307133Y182965D01*
X307125Y182958D01*
X307096Y182943D01*
X307060Y182921D01*
X307001Y182892D01*
X306928Y182863D01*
X306841Y182826D01*
X306739Y182797D01*
X306622Y182768D01*
X306608D01*
X306564Y182761D01*
X306491Y182746D01*
X306396Y182739D01*
X306272Y182724D01*
X306134Y182717D01*
X305974Y182710D01*
X305616D01*
X305529Y182717D01*
X305317D01*
X305208Y182724D01*
X305157D01*
X305091Y182732D01*
X305011D01*
X304917Y182739D01*
X304814Y182746D01*
X304698Y182754D01*
X304574Y182761D01*
X304253Y184044D01*
X304705D01*
X304763Y184051D01*
X304829Y184066D01*
X304895Y184080D01*
X304946Y184110D01*
X304997Y184146D01*
X305004Y184153D01*
X305011Y184168D01*
X305026Y184197D01*
X305040Y184233D01*
X305055Y184284D01*
Y184343D01*
Y184416D01*
X305040Y184496D01*
X304355Y187244D01*
X303451D01*
X303130Y188542D01*
X304034D01*
X303568Y190306D01*
X305726D01*
X307278Y184161D01*
D02*
G37*
G36*
X282055Y196737D02*
X281370D01*
Y198311D01*
X279533D01*
Y196737D01*
X278862D01*
Y200455D01*
X279533D01*
Y198909D01*
X281370D01*
Y200455D01*
X282055D01*
Y196737D01*
D02*
G37*
G36*
X274036D02*
X273365D01*
Y199492D01*
X271397Y196737D01*
X270726D01*
Y200455D01*
X271382D01*
Y197743D01*
X273336Y200455D01*
X274036D01*
Y196737D01*
D02*
G37*
G36*
X291153Y196737D02*
X290511D01*
Y199332D01*
X289491Y196737D01*
X288908D01*
X287887Y199332D01*
Y196737D01*
X287260D01*
Y200455D01*
X287945D01*
X289185Y197641D01*
X290424Y200455D01*
X291153D01*
Y196737D01*
D02*
G37*
G36*
X262912Y196737D02*
X262270D01*
Y199332D01*
X261249Y196737D01*
X260666D01*
X259660Y199332D01*
Y196737D01*
X259019D01*
Y200455D01*
X259704D01*
X260943Y197641D01*
X262197Y200455D01*
X262912D01*
Y196737D01*
D02*
G37*
G36*
X301607Y199857D02*
X300542D01*
Y196737D01*
X299872D01*
Y199857D01*
X298793D01*
Y200455D01*
X301607D01*
Y199857D01*
D02*
G37*
G36*
X298399Y196737D02*
X295833D01*
Y197335D01*
X297728D01*
Y198311D01*
X295964D01*
Y198924D01*
X297728D01*
Y199857D01*
X295862D01*
Y200455D01*
X298399D01*
Y196737D01*
D02*
G37*
G36*
X295512D02*
X294827D01*
X293588Y199740D01*
X293005Y198341D01*
X293763D01*
X293996Y197743D01*
X292757D01*
X292334Y196737D01*
X291590D01*
X293209Y200455D01*
X293952D01*
X295512Y196737D01*
D02*
G37*
G36*
X285306Y196737D02*
X284621D01*
Y199828D01*
X283688D01*
X283528Y199813D01*
X283426Y199769D01*
X283353Y199726D01*
X283338Y199711D01*
X283265Y199609D01*
X283236Y199507D01*
X283221Y199419D01*
Y199390D01*
Y199376D01*
X283236Y199274D01*
X283265Y199186D01*
X283338Y199040D01*
X283396Y198982D01*
X283426Y198938D01*
X283455Y198924D01*
X283469Y198909D01*
X283571Y198851D01*
X283673Y198793D01*
X283907Y198705D01*
X284009Y198676D01*
X284096Y198647D01*
X284155Y198632D01*
X284169D01*
X284067Y198034D01*
X283790Y198078D01*
X283557Y198151D01*
X283353Y198224D01*
X283192Y198297D01*
X283061Y198370D01*
X282974Y198428D01*
X282915Y198472D01*
X282901Y198486D01*
X282769Y198632D01*
X282667Y198778D01*
X282609Y198938D01*
X282551Y199084D01*
X282522Y199201D01*
X282507Y199317D01*
Y199376D01*
Y199405D01*
X282522Y199594D01*
X282551Y199755D01*
X282594Y199886D01*
X282653Y200003D01*
X282711Y200076D01*
X282755Y200149D01*
X282784Y200178D01*
X282799Y200192D01*
X282915Y200280D01*
X283047Y200338D01*
X283192Y200396D01*
X283324Y200426D01*
X283455Y200440D01*
X283557Y200455D01*
X285306D01*
Y196737D01*
D02*
G37*
G36*
X278396D02*
X277696D01*
X276471Y199740D01*
X275888Y198341D01*
X276631D01*
X276879Y197743D01*
X275640D01*
X275217Y196737D01*
X274473D01*
X276092Y200455D01*
X276835D01*
X278396Y196737D01*
D02*
G37*
G36*
X270333Y199857D02*
X269268D01*
Y196737D01*
X268568D01*
Y199857D01*
X267519D01*
Y200455D01*
X270333D01*
Y199857D01*
D02*
G37*
G36*
X265711Y200455D02*
X266002Y200396D01*
X266236Y200323D01*
X266440Y200236D01*
X266586Y200134D01*
X266702Y200061D01*
X266761Y200003D01*
X266790Y199988D01*
X266950Y199799D01*
X267052Y199580D01*
X267140Y199347D01*
X267198Y199113D01*
X267227Y198909D01*
X267242Y198749D01*
X267256Y198676D01*
Y198632D01*
Y198603D01*
Y198588D01*
X267227Y198253D01*
X267169Y197976D01*
X267081Y197728D01*
X266994Y197539D01*
X266906Y197378D01*
X266833Y197262D01*
X266775Y197203D01*
X266761Y197174D01*
X266557Y197014D01*
X266338Y196912D01*
X266119Y196824D01*
X265900Y196766D01*
X265696Y196737D01*
X265536Y196722D01*
X265478Y196708D01*
X265390D01*
X265069Y196722D01*
X264792Y196781D01*
X264559Y196853D01*
X264370Y196941D01*
X264209Y197028D01*
X264107Y197101D01*
X264034Y197160D01*
X264020Y197174D01*
X263859Y197378D01*
X263743Y197597D01*
X263670Y197830D01*
X263611Y198064D01*
X263582Y198268D01*
X263553Y198443D01*
Y198501D01*
Y198545D01*
Y198574D01*
Y198588D01*
X263568Y198924D01*
X263626Y199201D01*
X263699Y199449D01*
X263786Y199638D01*
X263874Y199799D01*
X263947Y199901D01*
X264005Y199973D01*
X264020Y199988D01*
X264209Y200149D01*
X264428Y200265D01*
X264661Y200353D01*
X264880Y200411D01*
X265084Y200440D01*
X265244Y200469D01*
X265390D01*
X265711Y200455D01*
D02*
G37*
G36*
X312236Y206141D02*
X312615Y206097D01*
X312950Y206039D01*
X313096Y206010D01*
X313227Y205980D01*
X313344Y205951D01*
X313446Y205922D01*
X313533Y205908D01*
X313592Y205893D01*
X313621Y205878D01*
X313635D01*
X314029Y205747D01*
X314393Y205587D01*
X314743Y205426D01*
X315035Y205266D01*
X315166Y205193D01*
X315297Y205120D01*
X315400Y205047D01*
X315487Y205004D01*
X315545Y204945D01*
X315604Y204916D01*
X315633Y204902D01*
X315647Y204887D01*
X315983Y204639D01*
X316303Y204362D01*
X316581Y204100D01*
X316828Y203852D01*
X317018Y203619D01*
X317105Y203531D01*
X317164Y203444D01*
X317222Y203371D01*
X317266Y203327D01*
X317280Y203298D01*
X317295Y203283D01*
X317528Y202919D01*
X317747Y202554D01*
X317907Y202204D01*
X318053Y201884D01*
X318111Y201738D01*
X318170Y201606D01*
X318199Y201490D01*
X318243Y201402D01*
X318272Y201315D01*
X318286Y201257D01*
X318301Y201227D01*
Y201213D01*
X318403Y200805D01*
X318476Y200396D01*
X318534Y200017D01*
X318563Y199682D01*
X318578Y199536D01*
Y199390D01*
X318593Y199274D01*
Y199172D01*
Y199099D01*
Y199026D01*
Y198997D01*
Y198982D01*
X318563Y198559D01*
X318505Y198166D01*
X318432Y197801D01*
X318359Y197466D01*
X318316Y197320D01*
X318286Y197189D01*
X318243Y197072D01*
X318213Y196985D01*
X318184Y196897D01*
X318170Y196839D01*
X318155Y196810D01*
Y196795D01*
X317995Y196401D01*
X317805Y196022D01*
X317616Y195687D01*
X317426Y195395D01*
X317339Y195264D01*
X317266Y195148D01*
X317193Y195045D01*
X317120Y194958D01*
X317076Y194885D01*
X317033Y194841D01*
X317018Y194812D01*
X317003Y194798D01*
Y194812D01*
X316755Y194987D01*
X317003Y195323D01*
X317237Y195658D01*
X317426Y195979D01*
X317572Y196270D01*
X317703Y196518D01*
X317747Y196635D01*
X317791Y196722D01*
X317820Y196795D01*
X317849Y196853D01*
X317863Y196883D01*
Y196897D01*
X317995Y197291D01*
X318082Y197655D01*
X318170Y198020D01*
X318213Y198341D01*
X318243Y198472D01*
X318257Y198603D01*
Y198720D01*
X318272Y198822D01*
X318286Y198895D01*
Y198953D01*
Y198982D01*
Y198997D01*
Y199390D01*
X318257Y199784D01*
X318213Y200134D01*
X318155Y200455D01*
X318126Y200601D01*
X318111Y200732D01*
X318082Y200848D01*
X318053Y200936D01*
X318039Y201023D01*
X318024Y201082D01*
X318009Y201111D01*
Y201125D01*
X317878Y201519D01*
X317718Y201884D01*
X317557Y202219D01*
X317397Y202510D01*
X317324Y202642D01*
X317251Y202758D01*
X317193Y202846D01*
X317134Y202933D01*
X317091Y203006D01*
X317062Y203050D01*
X317033Y203079D01*
Y203094D01*
X316770Y203429D01*
X316508Y203721D01*
X316245Y203998D01*
X315997Y204216D01*
X315793Y204406D01*
X315618Y204537D01*
X315560Y204595D01*
X315516Y204625D01*
X315487Y204654D01*
X315472D01*
X315123Y204872D01*
X314787Y205062D01*
X314466Y205222D01*
X314175Y205353D01*
X313912Y205456D01*
X313810Y205499D01*
X313723Y205528D01*
X313650Y205558D01*
X313592Y205572D01*
X313562Y205587D01*
X313548D01*
X313154Y205689D01*
X312775Y205762D01*
X312425Y205805D01*
X312090Y205835D01*
X311944D01*
X311813Y205849D01*
X311419D01*
X311011Y205820D01*
X310617Y205776D01*
X310253Y205703D01*
X309932Y205616D01*
X309786Y205587D01*
X309655Y205543D01*
X309538Y205514D01*
X309451Y205470D01*
X309363Y205456D01*
X309305Y205426D01*
X309276Y205412D01*
X309261D01*
X309159Y205689D01*
X309567Y205835D01*
X309976Y205951D01*
X310355Y206039D01*
X310690Y206097D01*
X310851Y206112D01*
X310982Y206141D01*
X311113D01*
X311215Y206155D01*
X311288Y206170D01*
X311827D01*
X312236Y206141D01*
D02*
G37*
G36*
X306681Y203604D02*
X306404Y203269D01*
X306170Y202933D01*
X305966Y202612D01*
X305806Y202321D01*
X305675Y202059D01*
X305616Y201956D01*
X305573Y201854D01*
X305543Y201781D01*
X305514Y201723D01*
X305500Y201694D01*
Y201679D01*
X305354Y201286D01*
X305252Y200907D01*
X305164Y200542D01*
X305106Y200221D01*
X305091Y200076D01*
X305062Y199944D01*
Y199828D01*
X305048Y199740D01*
X305033Y199653D01*
Y199594D01*
Y199565D01*
Y199551D01*
Y199143D01*
X305048Y198763D01*
X305091Y198399D01*
X305135Y198064D01*
X305164Y197918D01*
X305193Y197786D01*
X305208Y197670D01*
X305237Y197582D01*
X305252Y197495D01*
X305266Y197437D01*
X305281Y197407D01*
Y197393D01*
X305412Y196999D01*
X305573Y196620D01*
X305733Y196270D01*
X305893Y195964D01*
X305966Y195833D01*
X306039Y195716D01*
X306112Y195614D01*
X306156Y195527D01*
X306214Y195454D01*
X306243Y195410D01*
X306258Y195381D01*
X306272Y195366D01*
X306535Y195016D01*
X306812Y194710D01*
X307074Y194448D01*
X307337Y194214D01*
X307556Y194025D01*
X307643Y193952D01*
X307716Y193894D01*
X307789Y193835D01*
X307833Y193806D01*
X307862Y193792D01*
X307876Y193777D01*
X308226Y193558D01*
X308576Y193369D01*
X308911Y193208D01*
X309218Y193077D01*
X309480Y192975D01*
X309582Y192931D01*
X309684Y192902D01*
X309757Y192873D01*
X309815Y192859D01*
X309844Y192844D01*
X309859D01*
X310253Y192756D01*
X310646Y192683D01*
X311011Y192640D01*
X311332Y192625D01*
X311492Y192611D01*
X312032D01*
X312440Y192654D01*
X312833Y192713D01*
X313212Y192800D01*
X313533Y192888D01*
X313694Y192931D01*
X313825Y192975D01*
X313927Y193019D01*
X314029Y193048D01*
X314117Y193077D01*
X314175Y193106D01*
X314204Y193121D01*
X314218D01*
X314335Y192844D01*
X313869Y192669D01*
X313650Y192596D01*
X313446Y192538D01*
X313271Y192494D01*
X313140Y192465D01*
X313052Y192436D01*
X313023D01*
X312760Y192392D01*
X312527Y192363D01*
X312294Y192334D01*
X312090Y192319D01*
X311915D01*
X311784Y192304D01*
X311667D01*
X311317Y192319D01*
X311157D01*
X311026Y192334D01*
X310909Y192348D01*
X310807D01*
X310749Y192363D01*
X310734D01*
X310399Y192421D01*
X310238Y192450D01*
X310092Y192479D01*
X309976Y192509D01*
X309888Y192538D01*
X309830Y192552D01*
X309815D01*
X309392Y192683D01*
X308999Y192844D01*
X308649Y193004D01*
X308328Y193165D01*
X308197Y193238D01*
X308066Y193310D01*
X307964Y193369D01*
X307876Y193427D01*
X307803Y193485D01*
X307745Y193515D01*
X307716Y193529D01*
X307701Y193544D01*
X307351Y193806D01*
X307031Y194083D01*
X306739Y194360D01*
X306506Y194623D01*
X306302Y194841D01*
X306229Y194943D01*
X306156Y195016D01*
X306112Y195089D01*
X306068Y195133D01*
X306054Y195162D01*
X306039Y195177D01*
X305791Y195541D01*
X305587Y195906D01*
X305398Y196270D01*
X305252Y196591D01*
X305193Y196737D01*
X305150Y196868D01*
X305106Y196985D01*
X305062Y197087D01*
X305033Y197160D01*
X305018Y197232D01*
X305004Y197262D01*
Y197276D01*
X304902Y197699D01*
X304814Y198122D01*
X304771Y198515D01*
X304742Y198865D01*
X304727Y199026D01*
Y199172D01*
Y199303D01*
Y199405D01*
Y199492D01*
Y199551D01*
Y199594D01*
Y199609D01*
X304771Y200046D01*
X304844Y200455D01*
X304917Y200834D01*
X305004Y201169D01*
X305048Y201315D01*
X305091Y201446D01*
X305135Y201563D01*
X305164Y201665D01*
X305193Y201752D01*
X305223Y201811D01*
X305237Y201840D01*
Y201854D01*
X305412Y202248D01*
X305616Y202627D01*
X305806Y202948D01*
X306010Y203239D01*
X306098Y203371D01*
X306185Y203473D01*
X306258Y203575D01*
X306316Y203662D01*
X306375Y203721D01*
X306418Y203764D01*
X306433Y203794D01*
X306447Y203808D01*
X306681Y203604D01*
D02*
G37*
G36*
X305704Y206549D02*
X306170Y206170D01*
X306593Y205820D01*
X306797Y205660D01*
X306987Y205499D01*
X307147Y205368D01*
X307308Y205237D01*
X307439Y205135D01*
X307556Y205033D01*
X307643Y204960D01*
X307716Y204902D01*
X307760Y204872D01*
X307774Y204858D01*
X308241Y204479D01*
X308707Y204100D01*
X309145Y203750D01*
X309334Y203575D01*
X309524Y203429D01*
X309699Y203283D01*
X309859Y203167D01*
X309990Y203050D01*
X310107Y202948D01*
X310194Y202875D01*
X310267Y202817D01*
X310311Y202787D01*
X310326Y202773D01*
X310792Y202394D01*
X311259Y202015D01*
X311696Y201665D01*
X311886Y201504D01*
X312075Y201344D01*
X312250Y201213D01*
X312411Y201082D01*
X312542Y200979D01*
X312659Y200877D01*
X312746Y200805D01*
X312819Y200746D01*
X312863Y200717D01*
X312877Y200703D01*
X313358Y200309D01*
X313810Y199930D01*
X314248Y199580D01*
X314452Y199419D01*
X314641Y199259D01*
X314802Y199113D01*
X314962Y198997D01*
X315108Y198880D01*
X315225Y198778D01*
X315312Y198705D01*
X315385Y198647D01*
X315429Y198618D01*
X315443Y198603D01*
X315181Y198515D01*
X314918Y198428D01*
X314685Y198341D01*
X314481Y198268D01*
X314291Y198209D01*
X314160Y198166D01*
X314073Y198136D01*
X314058Y198122D01*
X314044D01*
X313781Y198034D01*
X313533Y197961D01*
X313300Y197874D01*
X313081Y197801D01*
X312906Y197743D01*
X312760Y197699D01*
X312673Y197670D01*
X312659Y197655D01*
X312644D01*
X312921Y197364D01*
X313183Y197072D01*
X313431Y196795D01*
X313665Y196562D01*
X313839Y196358D01*
X313985Y196197D01*
X314044Y196139D01*
X314087Y196095D01*
X314102Y196081D01*
X314117Y196066D01*
X314393Y195774D01*
X314656Y195483D01*
X314918Y195206D01*
X315137Y194973D01*
X315327Y194769D01*
X315472Y194608D01*
X315531Y194550D01*
X315575Y194506D01*
X315589Y194491D01*
X315604Y194477D01*
X315881Y194185D01*
X316143Y193908D01*
X316391Y193646D01*
X316610Y193412D01*
X316799Y193208D01*
X316930Y193048D01*
X316989Y192990D01*
X317033Y192946D01*
X317047Y192931D01*
X317062Y192917D01*
X317339Y192625D01*
X317601Y192348D01*
X317849Y192086D01*
X318068Y191852D01*
X318257Y191648D01*
X318388Y191488D01*
X318447Y191430D01*
X318491Y191386D01*
X318505Y191371D01*
X318520Y191357D01*
Y191342D01*
Y191328D01*
X318505Y191298D01*
X318491Y191284D01*
X317980Y191663D01*
X317499Y192027D01*
X317033Y192377D01*
X316814Y192538D01*
X316624Y192683D01*
X316435Y192829D01*
X316274Y192946D01*
X316128Y193063D01*
X315997Y193150D01*
X315895Y193223D01*
X315822Y193281D01*
X315779Y193310D01*
X315764Y193325D01*
X315254Y193704D01*
X314758Y194069D01*
X314291Y194419D01*
X314087Y194579D01*
X313883Y194725D01*
X313708Y194870D01*
X313533Y194987D01*
X313387Y195104D01*
X313271Y195191D01*
X313169Y195264D01*
X313096Y195323D01*
X313052Y195352D01*
X313037Y195366D01*
X312527Y195760D01*
X312032Y196124D01*
X311565Y196474D01*
X311346Y196635D01*
X311157Y196795D01*
X310967Y196926D01*
X310807Y197057D01*
X310661Y197160D01*
X310530Y197262D01*
X310428Y197335D01*
X310355Y197393D01*
X310311Y197422D01*
X310297Y197437D01*
X309786Y197830D01*
X309291Y198209D01*
X308824Y198559D01*
X308605Y198720D01*
X308401Y198865D01*
X308212Y199011D01*
X308051Y199128D01*
X307905Y199244D01*
X307774Y199332D01*
X307672Y199405D01*
X307599Y199463D01*
X307556Y199492D01*
X307541Y199507D01*
X307862Y199594D01*
X308168Y199682D01*
X308459Y199755D01*
X308722Y199828D01*
X308941Y199872D01*
X309028Y199901D01*
X309101Y199915D01*
X309159Y199944D01*
X309203D01*
X309232Y199959D01*
X309247D01*
X309567Y200046D01*
X309874Y200134D01*
X310151Y200207D01*
X310413Y200280D01*
X310632Y200338D01*
X310719Y200367D01*
X310792Y200382D01*
X310851Y200396D01*
X310894Y200411D01*
X310923Y200426D01*
X310938D01*
X310661Y200732D01*
X310399Y201009D01*
X310165Y201286D01*
X309947Y201534D01*
X309757Y201738D01*
X309611Y201898D01*
X309567Y201956D01*
X309524Y202000D01*
X309509Y202015D01*
X309495Y202029D01*
X309218Y202336D01*
X308955Y202627D01*
X308722Y202904D01*
X308503Y203152D01*
X308314Y203356D01*
X308168Y203517D01*
X308124Y203575D01*
X308080Y203619D01*
X308066Y203633D01*
X308051Y203648D01*
X307789Y203954D01*
X307526Y204231D01*
X307278Y204508D01*
X307074Y204756D01*
X306885Y204960D01*
X306739Y205120D01*
X306695Y205179D01*
X306651Y205222D01*
X306637Y205237D01*
X306622Y205252D01*
X306360Y205558D01*
X306098Y205835D01*
X305864Y206112D01*
X305645Y206345D01*
X305470Y206549D01*
X305325Y206710D01*
X305281Y206768D01*
X305237Y206811D01*
X305223Y206826D01*
X305208Y206841D01*
Y206870D01*
X305223Y206884D01*
Y206914D01*
X305237Y206928D01*
X305704Y206549D01*
D02*
G37*
%LPC*%
G36*
X313417Y188724D02*
X313599Y185546D01*
X314889D01*
X313417Y188724D01*
D02*
G37*
G36*
X265492Y199886D02*
X265390D01*
X265201Y199872D01*
X265026Y199828D01*
X264880Y199784D01*
X264763Y199726D01*
X264676Y199653D01*
X264617Y199609D01*
X264574Y199565D01*
X264559Y199551D01*
X264457Y199419D01*
X264384Y199274D01*
X264340Y199113D01*
X264297Y198953D01*
X264282Y198822D01*
X264267Y198705D01*
Y198632D01*
Y198618D01*
Y198603D01*
X264282Y198384D01*
X264311Y198180D01*
X264355Y198020D01*
X264413Y197889D01*
X264472Y197772D01*
X264515Y197699D01*
X264545Y197655D01*
X264559Y197641D01*
X264676Y197539D01*
X264807Y197451D01*
X264938Y197393D01*
X265084Y197364D01*
X265201Y197335D01*
X265303Y197320D01*
X265390D01*
X265594Y197335D01*
X265769Y197364D01*
X265930Y197422D01*
X266046Y197480D01*
X266148Y197539D01*
X266207Y197597D01*
X266250Y197626D01*
X266265Y197641D01*
X266352Y197772D01*
X266425Y197932D01*
X266469Y198093D01*
X266513Y198239D01*
X266527Y198384D01*
X266542Y198501D01*
Y198574D01*
Y198603D01*
X266527Y198822D01*
X266498Y199011D01*
X266454Y199172D01*
X266396Y199317D01*
X266352Y199419D01*
X266309Y199492D01*
X266280Y199536D01*
X266265Y199551D01*
X266148Y199667D01*
X266002Y199740D01*
X265857Y199799D01*
X265711Y199842D01*
X265594Y199872D01*
X265492Y199886D01*
D02*
G37*
%LPD*%
D14*
X14498Y148603D02*
Y145384D01*
Y148603D02*
X13425D01*
X12965Y148450D01*
X12659Y148143D01*
X12505Y147837D01*
X12352Y147377D01*
Y146610D01*
X12505Y146150D01*
X12659Y145844D01*
X12965Y145537D01*
X13425Y145384D01*
X14498D01*
X10712Y148603D02*
X11018Y148450D01*
X11325Y148143D01*
X11478Y147837D01*
X11631Y147377D01*
Y146610D01*
X11478Y146150D01*
X11325Y145844D01*
X11018Y145537D01*
X10712Y145384D01*
X10098D01*
X9792Y145537D01*
X9485Y145844D01*
X9332Y146150D01*
X9179Y146610D01*
Y147377D01*
X9332Y147837D01*
X9485Y148143D01*
X9792Y148450D01*
X10098Y148603D01*
X10712D01*
X8427D02*
Y146304D01*
X8274Y145844D01*
X7967Y145537D01*
X7508Y145384D01*
X7201D01*
X6741Y145537D01*
X6435Y145844D01*
X6281Y146304D01*
Y148603D01*
X4319D02*
Y145384D01*
X5392Y148603D02*
X3246D01*
X30308Y169442D02*
X30614Y169749D01*
X31074Y169902D01*
X31687D01*
X32147Y169749D01*
X32454Y169442D01*
Y169136D01*
X32301Y168829D01*
X32147Y168676D01*
X31841Y168523D01*
X30921Y168216D01*
X30614Y168063D01*
X30461Y167909D01*
X30308Y167603D01*
Y167143D01*
X30614Y166836D01*
X31074Y166683D01*
X31687D01*
X32147Y166836D01*
X32454Y167143D01*
X27288Y169136D02*
X27441Y169442D01*
X27747Y169749D01*
X28054Y169902D01*
X28667D01*
X28974Y169749D01*
X29280Y169442D01*
X29434Y169136D01*
X29587Y168676D01*
Y167909D01*
X29434Y167449D01*
X29280Y167143D01*
X28974Y166836D01*
X28667Y166683D01*
X28054D01*
X27747Y166836D01*
X27441Y167143D01*
X27288Y167449D01*
X26383Y169902D02*
Y166683D01*
X24543D01*
X12281Y54557D02*
X13508Y57776D01*
X14734Y54557D01*
X14274Y55630D02*
X12741D01*
X10611Y57776D02*
X10917Y57623D01*
X11224Y57316D01*
X11377Y57010D01*
X11530Y56550D01*
Y55783D01*
X11377Y55323D01*
X11224Y55017D01*
X10917Y54710D01*
X10611Y54557D01*
X9997D01*
X9691Y54710D01*
X9384Y55017D01*
X9231Y55323D01*
X9077Y55783D01*
Y56550D01*
X9231Y57010D01*
X9384Y57316D01*
X9691Y57623D01*
X9997Y57776D01*
X10611D01*
X8326D02*
Y55477D01*
X8173Y55017D01*
X7867Y54710D01*
X7407Y54557D01*
X7100D01*
X6640Y54710D01*
X6334Y55017D01*
X6180Y55477D01*
Y57776D01*
X4218D02*
Y54557D01*
X5291Y57776D02*
X3145D01*
X341894Y31683D02*
X343121Y34902D01*
X344347Y31683D01*
X343887Y32756D02*
X342354D01*
X340223Y34902D02*
X340530Y34749D01*
X340836Y34442D01*
X340990Y34136D01*
X341143Y33676D01*
Y32909D01*
X340990Y32449D01*
X340836Y32143D01*
X340530Y31836D01*
X340223Y31683D01*
X339610D01*
X339303Y31836D01*
X338997Y32143D01*
X338843Y32449D01*
X338690Y32909D01*
Y33676D01*
X338843Y34136D01*
X338997Y34442D01*
X339303Y34749D01*
X339610Y34902D01*
X340223D01*
X337939D02*
Y32603D01*
X337786Y32143D01*
X337479Y31836D01*
X337019Y31683D01*
X336713D01*
X336253Y31836D01*
X335946Y32143D01*
X335793Y32603D01*
Y34902D01*
X333830D02*
Y31683D01*
X334904Y34902D02*
X332757D01*
X27879Y185887D02*
X29412D01*
X29565Y184507D01*
X29412Y184660D01*
X28952Y184813D01*
X28492D01*
X28032Y184660D01*
X27725Y184354D01*
X27572Y183894D01*
Y183587D01*
X27725Y183127D01*
X28032Y182821D01*
X28492Y182667D01*
X28952D01*
X29412Y182821D01*
X29565Y182974D01*
X29718Y183280D01*
X26851Y185887D02*
X25625Y182667D01*
X24399Y185887D02*
X25625Y182667D01*
X327825Y5665D02*
X331044Y4439D01*
X327825Y3212D01*
X328898Y3672D02*
Y5205D01*
X331044Y7336D02*
X330891Y7029D01*
X330584Y6723D01*
X330277Y6569D01*
X329818Y6416D01*
X329051D01*
X328591Y6569D01*
X328285Y6723D01*
X327978Y7029D01*
X327825Y7336D01*
Y7949D01*
X327978Y8256D01*
X328285Y8562D01*
X328591Y8716D01*
X329051Y8869D01*
X329818D01*
X330277Y8716D01*
X330584Y8562D01*
X330891Y8256D01*
X331044Y7949D01*
Y7336D01*
Y9620D02*
X328745D01*
X328285Y9773D01*
X327978Y10080D01*
X327825Y10540D01*
Y10847D01*
X327978Y11306D01*
X328285Y11613D01*
X328745Y11766D01*
X331044D01*
Y13728D02*
X327825D01*
X331044Y12655D02*
Y14802D01*
X210029Y5586D02*
X213249Y4360D01*
X210029Y3133D01*
X211103Y3593D02*
Y5126D01*
X213249Y7257D02*
X213095Y6950D01*
X212789Y6644D01*
X212482Y6491D01*
X212022Y6337D01*
X211256D01*
X210796Y6491D01*
X210489Y6644D01*
X210183Y6950D01*
X210029Y7257D01*
Y7870D01*
X210183Y8177D01*
X210489Y8484D01*
X210796Y8637D01*
X211256Y8790D01*
X212022D01*
X212482Y8637D01*
X212789Y8484D01*
X213095Y8177D01*
X213249Y7870D01*
Y7257D01*
Y9541D02*
X210949D01*
X210489Y9695D01*
X210183Y10001D01*
X210029Y10461D01*
Y10768D01*
X210183Y11228D01*
X210489Y11534D01*
X210949Y11688D01*
X213249D01*
Y13650D02*
X210029D01*
X213249Y12577D02*
Y14723D01*
X37884Y194562D02*
X36427D01*
X35941Y194723D01*
X35780Y194885D01*
X35618Y195209D01*
Y195695D01*
X35780Y196018D01*
X35941Y196180D01*
X36427Y196342D01*
X37884D01*
Y192943D01*
X34533Y196342D02*
X34371Y196180D01*
X34209Y196342D01*
X34371Y196504D01*
X34533Y196342D01*
X34371Y195209D02*
Y192943D01*
X33611Y195209D02*
Y192943D01*
Y194562D02*
X33125Y195047D01*
X32801Y195209D01*
X32316D01*
X31992Y195047D01*
X31830Y194562D01*
Y192943D01*
X28269Y195695D02*
X27945Y195856D01*
X27459Y196342D01*
Y192943D01*
X174516Y179252D02*
X175742Y182471D01*
X176969Y179252D01*
X176509Y180325D02*
X174976D01*
X173765Y182471D02*
Y179252D01*
Y182471D02*
X172691D01*
X172231Y182318D01*
X171925Y182011D01*
X171772Y181705D01*
X171618Y181245D01*
Y180478D01*
X171772Y180018D01*
X171925Y179712D01*
X172231Y179405D01*
X172691Y179252D01*
X173765D01*
X168598Y181705D02*
X168752Y182011D01*
X169058Y182318D01*
X169365Y182471D01*
X169978D01*
X170285Y182318D01*
X170591Y182011D01*
X170745Y181705D01*
X170898Y181245D01*
Y180478D01*
X170745Y180018D01*
X170591Y179712D01*
X170285Y179405D01*
X169978Y179252D01*
X169365D01*
X169058Y179405D01*
X168752Y179712D01*
X168598Y180018D01*
X167694Y181858D02*
X167387Y182011D01*
X166927Y182471D01*
Y179252D01*
X165333Y178179D02*
X162880D01*
X161547Y182471D02*
X161853Y182318D01*
X162160Y182011D01*
X162313Y181705D01*
X162466Y181245D01*
Y180478D01*
X162313Y180018D01*
X162160Y179712D01*
X161853Y179405D01*
X161547Y179252D01*
X160933D01*
X160627Y179405D01*
X160320Y179712D01*
X160167Y180018D01*
X160013Y180478D01*
Y181245D01*
X160167Y181705D01*
X160320Y182011D01*
X160627Y182318D01*
X160933Y182471D01*
X161547D01*
X159262D02*
Y180172D01*
X159109Y179712D01*
X158802Y179405D01*
X158343Y179252D01*
X158036D01*
X157576Y179405D01*
X157269Y179712D01*
X157116Y180172D01*
Y182471D01*
X155154D02*
Y179252D01*
X156227Y182471D02*
X154081D01*
X119122Y179252D02*
X120348Y182471D01*
X121575Y179252D01*
X121115Y180325D02*
X119582D01*
X118371Y182471D02*
Y179252D01*
Y182471D02*
X117298D01*
X116838Y182318D01*
X116531Y182011D01*
X116378Y181705D01*
X116225Y181245D01*
Y180478D01*
X116378Y180018D01*
X116531Y179712D01*
X116838Y179405D01*
X117298Y179252D01*
X118371D01*
X113205Y181705D02*
X113358Y182011D01*
X113664Y182318D01*
X113971Y182471D01*
X114584D01*
X114891Y182318D01*
X115198Y182011D01*
X115351Y181705D01*
X115504Y181245D01*
Y180478D01*
X115351Y180018D01*
X115198Y179712D01*
X114891Y179405D01*
X114584Y179252D01*
X113971D01*
X113664Y179405D01*
X113358Y179712D01*
X113205Y180018D01*
X112147Y181705D02*
Y181858D01*
X111994Y182165D01*
X111840Y182318D01*
X111534Y182471D01*
X110920D01*
X110614Y182318D01*
X110460Y182165D01*
X110307Y181858D01*
Y181552D01*
X110460Y181245D01*
X110767Y180785D01*
X112300Y179252D01*
X110154D01*
X109433Y178179D02*
X106981D01*
X105647Y182471D02*
X105954Y182318D01*
X106260Y182011D01*
X106413Y181705D01*
X106567Y181245D01*
Y180478D01*
X106413Y180018D01*
X106260Y179712D01*
X105954Y179405D01*
X105647Y179252D01*
X105034D01*
X104727Y179405D01*
X104420Y179712D01*
X104267Y180018D01*
X104114Y180478D01*
Y181245D01*
X104267Y181705D01*
X104420Y182011D01*
X104727Y182318D01*
X105034Y182471D01*
X105647D01*
X103363D02*
Y180172D01*
X103209Y179712D01*
X102903Y179405D01*
X102443Y179252D01*
X102136D01*
X101676Y179405D01*
X101370Y179712D01*
X101216Y180172D01*
Y182471D01*
X99254D02*
Y179252D01*
X100327Y182471D02*
X98181D01*
X12895Y48446D02*
X14428D01*
X14581Y47066D01*
X14428Y47219D01*
X13968Y47372D01*
X13508D01*
X13048Y47219D01*
X12741Y46913D01*
X12588Y46453D01*
Y46146D01*
X12741Y45686D01*
X13048Y45380D01*
X13508Y45226D01*
X13968D01*
X14428Y45380D01*
X14581Y45533D01*
X14734Y45840D01*
X11868Y48446D02*
X10641Y45226D01*
X9415Y48446D02*
X10641Y45226D01*
X12435Y52325D02*
X12588Y52631D01*
X12895Y52938D01*
X13201Y53091D01*
X13814D01*
X14121Y52938D01*
X14428Y52631D01*
X14581Y52325D01*
X14734Y51865D01*
Y51098D01*
X14581Y50639D01*
X14428Y50332D01*
X14121Y50025D01*
X13814Y49872D01*
X13201D01*
X12895Y50025D01*
X12588Y50332D01*
X12435Y50639D01*
Y51098D01*
X13201D02*
X12435D01*
X11699Y53091D02*
Y49872D01*
Y53091D02*
X9553Y49872D01*
Y53091D02*
Y49872D01*
X8664Y53091D02*
Y49872D01*
Y53091D02*
X7591D01*
X7131Y52938D01*
X6824Y52631D01*
X6671Y52325D01*
X6517Y51865D01*
Y51098D01*
X6671Y50639D01*
X6824Y50332D01*
X7131Y50025D01*
X7591Y49872D01*
X8664D01*
X224194Y11593D02*
Y10060D01*
X222814Y9907D01*
X222967Y10060D01*
X223120Y10520D01*
Y10980D01*
X222967Y11440D01*
X222661Y11747D01*
X222201Y11900D01*
X221894D01*
X221434Y11747D01*
X221128Y11440D01*
X220974Y10980D01*
Y10520D01*
X221128Y10060D01*
X221281Y9907D01*
X221587Y9754D01*
X224194Y12621D02*
X220974Y13847D01*
X224194Y15073D02*
X220974Y13847D01*
X217955Y8994D02*
X218261Y8841D01*
X218568Y8534D01*
X218721Y8228D01*
Y7614D01*
X218568Y7308D01*
X218261Y7001D01*
X217955Y6848D01*
X217495Y6695D01*
X216728D01*
X216268Y6848D01*
X215962Y7001D01*
X215655Y7308D01*
X215502Y7614D01*
Y8228D01*
X215655Y8534D01*
X215962Y8841D01*
X216268Y8994D01*
X216728D01*
Y8228D02*
Y8994D01*
X218721Y9730D02*
X215502D01*
X218721D02*
X215502Y11876D01*
X218721D02*
X215502D01*
X218721Y12765D02*
X215502D01*
X218721D02*
Y13838D01*
X218568Y14298D01*
X218261Y14605D01*
X217955Y14758D01*
X217495Y14911D01*
X216728D01*
X216268Y14758D01*
X215962Y14605D01*
X215655Y14298D01*
X215502Y13838D01*
Y12765D01*
X341989Y11672D02*
Y10139D01*
X340609Y9986D01*
X340762Y10139D01*
X340916Y10599D01*
Y11059D01*
X340762Y11519D01*
X340456Y11825D01*
X339996Y11979D01*
X339689D01*
X339229Y11825D01*
X338923Y11519D01*
X338770Y11059D01*
Y10599D01*
X338923Y10139D01*
X339076Y9986D01*
X339383Y9833D01*
X341989Y12699D02*
X338770Y13926D01*
X341989Y15152D02*
X338770Y13926D01*
X335750Y9073D02*
X336057Y8919D01*
X336363Y8613D01*
X336516Y8306D01*
Y7693D01*
X336363Y7386D01*
X336057Y7080D01*
X335750Y6927D01*
X335290Y6773D01*
X334524D01*
X334064Y6927D01*
X333757Y7080D01*
X333451Y7386D01*
X333297Y7693D01*
Y8306D01*
X333451Y8613D01*
X333757Y8919D01*
X334064Y9073D01*
X334524D01*
Y8306D02*
Y9073D01*
X336516Y9809D02*
X333297D01*
X336516D02*
X333297Y11955D01*
X336516D02*
X333297D01*
X336516Y12844D02*
X333297D01*
X336516D02*
Y13917D01*
X336363Y14377D01*
X336057Y14683D01*
X335750Y14837D01*
X335290Y14990D01*
X334524D01*
X334064Y14837D01*
X333757Y14683D01*
X333451Y14377D01*
X333297Y13917D01*
Y12844D01*
X338486Y39608D02*
X338640Y39915D01*
X338946Y40221D01*
X339253Y40375D01*
X339866D01*
X340173Y40221D01*
X340479Y39915D01*
X340633Y39608D01*
X340786Y39148D01*
Y38382D01*
X340633Y37922D01*
X340479Y37615D01*
X340173Y37309D01*
X339866Y37155D01*
X339253D01*
X338946Y37309D01*
X338640Y37615D01*
X338486Y37922D01*
Y38382D01*
X339253D02*
X338486D01*
X337751Y40375D02*
Y37155D01*
Y40375D02*
X335604Y37155D01*
Y40375D02*
Y37155D01*
X334715Y40375D02*
Y37155D01*
Y40375D02*
X333642D01*
X333182Y40221D01*
X332875Y39915D01*
X332722Y39608D01*
X332569Y39148D01*
Y38382D01*
X332722Y37922D01*
X332875Y37615D01*
X333182Y37309D01*
X333642Y37155D01*
X334715D01*
X335887Y45847D02*
X337420D01*
X337573Y44467D01*
X337420Y44621D01*
X336960Y44774D01*
X336500D01*
X336040Y44621D01*
X335734Y44314D01*
X335580Y43854D01*
Y43548D01*
X335734Y43088D01*
X336040Y42781D01*
X336500Y42628D01*
X336960D01*
X337420Y42781D01*
X337573Y42935D01*
X337726Y43241D01*
X334860Y45847D02*
X333633Y42628D01*
X332407Y45847D02*
X333633Y42628D01*
X42316Y75781D02*
Y72561D01*
Y75781D02*
X41243D01*
X40783Y75627D01*
X40477Y75321D01*
X40323Y75014D01*
X40170Y74554D01*
Y73788D01*
X40323Y73328D01*
X40477Y73021D01*
X40783Y72715D01*
X41243Y72561D01*
X42316D01*
X38530Y75781D02*
X38836Y75627D01*
X39143Y75321D01*
X39296Y75014D01*
X39449Y74554D01*
Y73788D01*
X39296Y73328D01*
X39143Y73021D01*
X38836Y72715D01*
X38530Y72561D01*
X37916D01*
X37610Y72715D01*
X37303Y73021D01*
X37150Y73328D01*
X36997Y73788D01*
Y74554D01*
X37150Y75014D01*
X37303Y75321D01*
X37610Y75627D01*
X37916Y75781D01*
X38530D01*
X36245D02*
Y73481D01*
X36092Y73021D01*
X35785Y72715D01*
X35326Y72561D01*
X35019D01*
X34559Y72715D01*
X34253Y73021D01*
X34099Y73481D01*
Y75781D01*
X32137D02*
Y72561D01*
X33210Y75781D02*
X31064D01*
X30681Y75167D02*
X30374Y75321D01*
X29914Y75781D01*
Y72561D01*
X42333Y98497D02*
Y95278D01*
Y98497D02*
X41260D01*
X40800Y98344D01*
X40493Y98037D01*
X40340Y97731D01*
X40187Y97271D01*
Y96504D01*
X40340Y96044D01*
X40493Y95738D01*
X40800Y95431D01*
X41260Y95278D01*
X42333D01*
X38546Y98497D02*
X38853Y98344D01*
X39159Y98037D01*
X39313Y97731D01*
X39466Y97271D01*
Y96504D01*
X39313Y96044D01*
X39159Y95738D01*
X38853Y95431D01*
X38546Y95278D01*
X37933D01*
X37626Y95431D01*
X37320Y95738D01*
X37167Y96044D01*
X37013Y96504D01*
Y97271D01*
X37167Y97731D01*
X37320Y98037D01*
X37626Y98344D01*
X37933Y98497D01*
X38546D01*
X36262D02*
Y96198D01*
X36109Y95738D01*
X35802Y95431D01*
X35342Y95278D01*
X35036D01*
X34576Y95431D01*
X34269Y95738D01*
X34116Y96198D01*
Y98497D01*
X32154D02*
Y95278D01*
X33227Y98497D02*
X31080D01*
X30544Y97731D02*
Y97884D01*
X30391Y98190D01*
X30237Y98344D01*
X29931Y98497D01*
X29318D01*
X29011Y98344D01*
X28858Y98190D01*
X28704Y97884D01*
Y97577D01*
X28858Y97271D01*
X29164Y96811D01*
X30697Y95278D01*
X28551D01*
X42294Y120938D02*
Y117719D01*
Y120938D02*
X41221D01*
X40761Y120785D01*
X40454Y120478D01*
X40301Y120172D01*
X40148Y119712D01*
Y118945D01*
X40301Y118485D01*
X40454Y118179D01*
X40761Y117872D01*
X41221Y117719D01*
X42294D01*
X38507Y120938D02*
X38814Y120785D01*
X39121Y120478D01*
X39274Y120172D01*
X39427Y119712D01*
Y118945D01*
X39274Y118485D01*
X39121Y118179D01*
X38814Y117872D01*
X38507Y117719D01*
X37894D01*
X37588Y117872D01*
X37281Y118179D01*
X37128Y118485D01*
X36974Y118945D01*
Y119712D01*
X37128Y120172D01*
X37281Y120478D01*
X37588Y120785D01*
X37894Y120938D01*
X38507D01*
X36223D02*
Y118639D01*
X36070Y118179D01*
X35763Y117872D01*
X35303Y117719D01*
X34997D01*
X34537Y117872D01*
X34230Y118179D01*
X34077Y118639D01*
Y120938D01*
X32115D02*
Y117719D01*
X33188Y120938D02*
X31042D01*
X30352D02*
X28666D01*
X29585Y119712D01*
X29125D01*
X28819Y119558D01*
X28666Y119405D01*
X28512Y118945D01*
Y118639D01*
X28666Y118179D01*
X28972Y117872D01*
X29432Y117719D01*
X29892D01*
X30352Y117872D01*
X30505Y118025D01*
X30658Y118332D01*
X41589Y142828D02*
Y139609D01*
Y142828D02*
X40516D01*
X40056Y142675D01*
X39750Y142368D01*
X39596Y142061D01*
X39443Y141601D01*
Y140835D01*
X39596Y140375D01*
X39750Y140068D01*
X40056Y139762D01*
X40516Y139609D01*
X41589D01*
X37802Y142828D02*
X38109Y142675D01*
X38416Y142368D01*
X38569Y142061D01*
X38722Y141601D01*
Y140835D01*
X38569Y140375D01*
X38416Y140068D01*
X38109Y139762D01*
X37802Y139609D01*
X37189D01*
X36883Y139762D01*
X36576Y140068D01*
X36423Y140375D01*
X36270Y140835D01*
Y141601D01*
X36423Y142061D01*
X36576Y142368D01*
X36883Y142675D01*
X37189Y142828D01*
X37802D01*
X35518D02*
Y140528D01*
X35365Y140068D01*
X35059Y139762D01*
X34599Y139609D01*
X34292D01*
X33832Y139762D01*
X33525Y140068D01*
X33372Y140528D01*
Y142828D01*
X31410D02*
Y139609D01*
X32483Y142828D02*
X30337D01*
X28420D02*
X29954Y140682D01*
X27654D01*
X28420Y142828D02*
Y139609D01*
X317579Y215009D02*
Y209011D01*
Y215009D02*
X315579D01*
X314722Y214724D01*
X314151Y214152D01*
X313865Y213581D01*
X313580Y212724D01*
Y211296D01*
X313865Y210439D01*
X314151Y209868D01*
X314722Y209296D01*
X315579Y209011D01*
X317579D01*
X307667D02*
X309952Y215009D01*
X312237Y209011D01*
X311380Y211010D02*
X308524D01*
X304553Y215009D02*
X305124Y214724D01*
X305696Y214152D01*
X305981Y213581D01*
X306267Y212724D01*
Y211296D01*
X305981Y210439D01*
X305696Y209868D01*
X305124Y209296D01*
X304553Y209011D01*
X303410D01*
X302839Y209296D01*
X302268Y209868D01*
X301982Y210439D01*
X301696Y211296D01*
Y212724D01*
X301982Y213581D01*
X302268Y214152D01*
X302839Y214724D01*
X303410Y215009D01*
X304553D01*
X303696Y210153D02*
X301982Y208439D01*
X300297Y211581D02*
X295155D01*
X293098Y213581D02*
Y213867D01*
X292813Y214438D01*
X292527Y214724D01*
X291956Y215009D01*
X290813D01*
X290242Y214724D01*
X289956Y214438D01*
X289670Y213867D01*
Y213295D01*
X289956Y212724D01*
X290528Y211867D01*
X293384Y209011D01*
X289385D01*
X288042Y211581D02*
X282901D01*
X276559Y209011D02*
X278844Y215009D01*
X281130Y209011D01*
X280273Y211010D02*
X277416D01*
X12199Y142285D02*
X12352Y142592D01*
X12659Y142899D01*
X12965Y143052D01*
X13578D01*
X13885Y142899D01*
X14191Y142592D01*
X14345Y142285D01*
X14498Y141825D01*
Y141059D01*
X14345Y140599D01*
X14191Y140293D01*
X13885Y139986D01*
X13578Y139833D01*
X12965D01*
X12659Y139986D01*
X12352Y140293D01*
X12199Y140599D01*
Y141059D01*
X12965D02*
X12199D01*
X11463Y143052D02*
Y139833D01*
Y143052D02*
X9317Y139833D01*
Y143052D02*
Y139833D01*
X8427Y143052D02*
Y139833D01*
Y143052D02*
X7354D01*
X6894Y142899D01*
X6588Y142592D01*
X6435Y142285D01*
X6281Y141825D01*
Y141059D01*
X6435Y140599D01*
X6588Y140293D01*
X6894Y139986D01*
X7354Y139833D01*
X8427D01*
X14191Y137855D02*
X12505D01*
X13425Y136629D01*
X12965D01*
X12659Y136475D01*
X12505Y136322D01*
X12352Y135862D01*
Y135556D01*
X12505Y135096D01*
X12812Y134789D01*
X13272Y134636D01*
X13732D01*
X14191Y134789D01*
X14345Y134942D01*
X14498Y135249D01*
X11631Y137855D02*
X10405Y134636D01*
X9179Y137855D02*
X10405Y134636D01*
X8458Y137855D02*
X6772D01*
X7692Y136629D01*
X7232D01*
X6925Y136475D01*
X6772Y136322D01*
X6618Y135862D01*
Y135556D01*
X6772Y135096D01*
X7078Y134789D01*
X7538Y134636D01*
X7998D01*
X8458Y134789D01*
X8611Y134942D01*
X8765Y135249D01*
X40068Y158694D02*
X40375Y159001D01*
X40835Y159154D01*
X41448D01*
X41908Y159001D01*
X42215Y158694D01*
Y158388D01*
X42061Y158081D01*
X41908Y157928D01*
X41601Y157775D01*
X40682Y157468D01*
X40375Y157315D01*
X40222Y157161D01*
X40068Y156855D01*
Y156395D01*
X40375Y156088D01*
X40835Y155935D01*
X41448D01*
X41908Y156088D01*
X42215Y156395D01*
X39348Y159154D02*
Y155935D01*
X37202Y159154D02*
Y155935D01*
X39348Y157621D02*
X37202D01*
X35239Y159154D02*
Y155935D01*
X36313Y159154D02*
X34166D01*
X33783D02*
Y155935D01*
Y159154D02*
X32710D01*
X32250Y159001D01*
X31944Y158694D01*
X31790Y158388D01*
X31637Y157928D01*
Y157161D01*
X31790Y156702D01*
X31944Y156395D01*
X32250Y156088D01*
X32710Y155935D01*
X33783D01*
X30916Y159154D02*
X30150Y155935D01*
X29383Y159154D02*
X30150Y155935D01*
X29383Y159154D02*
X28617Y155935D01*
X27850Y159154D02*
X28617Y155935D01*
X27207Y159154D02*
Y155935D01*
Y159154D02*
X25060Y155935D01*
Y159154D02*
Y155935D01*
X39010Y164351D02*
Y161132D01*
X38335Y164351D02*
Y161132D01*
Y164351D02*
X36189Y161132D01*
Y164351D02*
Y161132D01*
X34227Y164351D02*
Y161132D01*
X35300Y164351D02*
X33154D01*
X32770D02*
Y161132D01*
Y164351D02*
X31391D01*
X30931Y164198D01*
X30777Y164044D01*
X30624Y163738D01*
Y163431D01*
X30777Y163125D01*
X30931Y162971D01*
X31391Y162818D01*
X32770D01*
X31697D02*
X30624Y161132D01*
X29904Y162665D02*
X28524D01*
X28064Y162818D01*
X27911Y162971D01*
X27757Y163278D01*
Y163738D01*
X27911Y164044D01*
X28064Y164198D01*
X28524Y164351D01*
X29904D01*
Y161132D01*
X25964Y164351D02*
Y161132D01*
X27037Y164351D02*
X24891D01*
X30599Y174679D02*
X30906Y174985D01*
X31365Y175138D01*
X31979D01*
X32439Y174985D01*
X32745Y174679D01*
Y174372D01*
X32592Y174065D01*
X32439Y173912D01*
X32132Y173759D01*
X31212Y173452D01*
X30906Y173299D01*
X30752Y173146D01*
X30599Y172839D01*
Y172379D01*
X30906Y172073D01*
X31365Y171919D01*
X31979D01*
X32439Y172073D01*
X32745Y172379D01*
X29879Y175138D02*
Y171919D01*
Y175138D02*
X28805D01*
X28346Y174985D01*
X28039Y174679D01*
X27886Y174372D01*
X27732Y173912D01*
Y173146D01*
X27886Y172686D01*
X28039Y172379D01*
X28346Y172073D01*
X28805Y171919D01*
X29879D01*
X24559D02*
X25785Y175138D01*
X27012Y171919D01*
X26552Y172992D02*
X25019D01*
X30478Y179569D02*
X30631Y179876D01*
X30938Y180182D01*
X31245Y180335D01*
X31858D01*
X32164Y180182D01*
X32471Y179876D01*
X32624Y179569D01*
X32778Y179109D01*
Y178342D01*
X32624Y177883D01*
X32471Y177576D01*
X32164Y177269D01*
X31858Y177116D01*
X31245D01*
X30938Y177269D01*
X30631Y177576D01*
X30478Y177883D01*
Y178342D01*
X31245D02*
X30478D01*
X29742Y180335D02*
Y177116D01*
Y180335D02*
X27596Y177116D01*
Y180335D02*
Y177116D01*
X26707Y180335D02*
Y177116D01*
Y180335D02*
X25634D01*
X25174Y180182D01*
X24867Y179876D01*
X24714Y179569D01*
X24561Y179109D01*
Y178342D01*
X24714Y177883D01*
X24867Y177576D01*
X25174Y177269D01*
X25634Y177116D01*
X26707D01*
M02*
