G04*
G04 #@! TF.GenerationSoftware,Altium Limited,Altium Designer,20.2.6 (244)*
G04*
G04 Layer_Color=32896*
%FSLAX25Y25*%
%MOIN*%
G70*
G04*
G04 #@! TF.SameCoordinates,5CDB893B-C90A-4E4D-8252-5211010A0FC4*
G04*
G04*
G04 #@! TF.FilePolarity,Positive*
G04*
G01*
G75*
%ADD12C,0.01000*%
%ADD14C,0.00620*%
%ADD16C,0.01181*%
G36*
X126924Y75602D02*
X126932D01*
X126939D01*
X126975Y75594D01*
X127034Y75572D01*
X127106Y75551D01*
X127179Y75521D01*
X127260Y75478D01*
X127340Y75419D01*
X127413Y75354D01*
X127420Y75346D01*
X127442Y75317D01*
X127471Y75266D01*
X127507Y75208D01*
X127544Y75135D01*
X127588Y75040D01*
X127624Y74945D01*
X127653Y74836D01*
X127661Y74822D01*
X127668Y74785D01*
X127682Y74727D01*
X127697Y74647D01*
X127711Y74545D01*
X127719Y74428D01*
X127733Y74304D01*
Y74071D01*
X127726Y74005D01*
X127719Y73925D01*
X127711Y73837D01*
X127682Y73655D01*
Y73648D01*
X127675Y73611D01*
X127661Y73560D01*
X127646Y73502D01*
X127624Y73422D01*
X127595Y73342D01*
X127529Y73159D01*
X127522Y73145D01*
X127515Y73116D01*
X127493Y73065D01*
X127464Y72999D01*
X127420Y72926D01*
X127376Y72846D01*
X127325Y72758D01*
X127260Y72671D01*
X127252Y72664D01*
X127230Y72635D01*
X127194Y72591D01*
X127143Y72532D01*
X127077Y72467D01*
X127004Y72401D01*
X126924Y72328D01*
X126837Y72255D01*
X126844D01*
X126873Y72248D01*
X126917Y72234D01*
X126968Y72219D01*
X127034Y72197D01*
X127099Y72168D01*
X127230Y72102D01*
X127238Y72095D01*
X127260Y72088D01*
X127289Y72066D01*
X127332Y72037D01*
X127376Y72000D01*
X127420Y71949D01*
X127471Y71898D01*
X127515Y71840D01*
X127522Y71833D01*
X127529Y71811D01*
X127551Y71774D01*
X127573Y71723D01*
X127602Y71658D01*
X127631Y71585D01*
X127653Y71505D01*
X127675Y71410D01*
Y71395D01*
X127682Y71366D01*
X127697Y71315D01*
X127704Y71242D01*
X127719Y71155D01*
X127726Y71053D01*
X127733Y70936D01*
Y70710D01*
X127726Y70659D01*
X127719Y70601D01*
Y70535D01*
X127704Y70462D01*
X127682Y70294D01*
X127639Y70120D01*
X127588Y69937D01*
X127515Y69762D01*
Y69755D01*
X127507Y69740D01*
X127493Y69718D01*
X127478Y69682D01*
X127456Y69646D01*
X127427Y69602D01*
X127354Y69493D01*
X127267Y69369D01*
X127157Y69230D01*
X127026Y69099D01*
X126873Y68968D01*
Y68946D01*
X127573Y69113D01*
Y66941D01*
X121799Y65498D01*
Y67648D01*
X125612Y68610D01*
X125619D01*
X125627Y68618D01*
X125670Y68625D01*
X125729Y68647D01*
X125802Y68676D01*
X125889Y68713D01*
X125969Y68764D01*
X126049Y68822D01*
X126122Y68895D01*
X126130Y68902D01*
X126152Y68931D01*
X126173Y68975D01*
X126210Y69033D01*
X126239Y69106D01*
X126261Y69194D01*
X126283Y69296D01*
X126290Y69405D01*
Y69456D01*
X126283Y69507D01*
X126268Y69573D01*
X126246Y69646D01*
X126217Y69718D01*
X126181Y69777D01*
X126122Y69828D01*
X126115Y69835D01*
X126093Y69842D01*
X126049Y69857D01*
X125998Y69872D01*
X125926Y69879D01*
X125831D01*
X125729Y69864D01*
X125605Y69835D01*
X121799Y68888D01*
Y71038D01*
X125612Y71993D01*
X125619D01*
X125627Y72000D01*
X125670Y72008D01*
X125729Y72029D01*
X125802Y72066D01*
X125889Y72102D01*
X125969Y72153D01*
X126049Y72212D01*
X126122Y72285D01*
X126130Y72292D01*
X126152Y72321D01*
X126173Y72365D01*
X126210Y72430D01*
X126239Y72503D01*
X126261Y72598D01*
X126283Y72700D01*
X126290Y72817D01*
Y72868D01*
X126283Y72919D01*
X126268Y72984D01*
X126246Y73057D01*
X126217Y73123D01*
X126181Y73189D01*
X126122Y73232D01*
X126115Y73240D01*
X126093Y73247D01*
X126049Y73261D01*
X125998Y73276D01*
X125926Y73283D01*
X125838D01*
X125736Y73276D01*
X125612Y73247D01*
X121799Y72292D01*
Y73298D01*
X121807Y73334D01*
Y73378D01*
X121814Y73429D01*
X121836Y73553D01*
X121872Y73692D01*
X121923Y73852D01*
X121996Y74012D01*
X122098Y74173D01*
X122106Y74180D01*
X122113Y74195D01*
X122127Y74209D01*
X122149Y74238D01*
X122215Y74311D01*
X122302Y74399D01*
X122412Y74493D01*
X122543Y74581D01*
X122689Y74654D01*
X122849Y74712D01*
X126152Y75543D01*
X126159D01*
X126173Y75551D01*
X126195D01*
X126232Y75558D01*
X126312Y75572D01*
X126421Y75594D01*
X126545Y75609D01*
X126669Y75616D01*
X126800D01*
X126924Y75602D01*
D02*
G37*
G36*
X127573Y63726D02*
X123753Y62764D01*
X123746D01*
X123739Y62757D01*
X123695Y62749D01*
X123636Y62727D01*
X123564Y62698D01*
X123476Y62655D01*
X123389Y62603D01*
X123308Y62545D01*
X123235Y62472D01*
X123228Y62465D01*
X123206Y62436D01*
X123177Y62392D01*
X123148Y62334D01*
X123119Y62261D01*
X123090Y62173D01*
X123068Y62071D01*
X123061Y61955D01*
Y61904D01*
X123068Y61853D01*
X123082Y61794D01*
X123104Y61721D01*
X123133Y61656D01*
X123177Y61598D01*
X123235Y61546D01*
X123243Y61539D01*
X123272Y61532D01*
X123308Y61517D01*
X123367Y61510D01*
X123440Y61495D01*
X123527D01*
X123629Y61510D01*
X123753Y61532D01*
X127573Y62487D01*
Y60336D01*
X123199Y59243D01*
X123192D01*
X123177Y59236D01*
X123155D01*
X123126Y59228D01*
X123039Y59214D01*
X122937Y59192D01*
X122813Y59177D01*
X122689Y59170D01*
X122565D01*
X122441Y59184D01*
X122426D01*
X122390Y59199D01*
X122339Y59214D01*
X122266Y59243D01*
X122193Y59279D01*
X122120Y59323D01*
X122047Y59389D01*
X121982Y59461D01*
X121974Y59469D01*
X121952Y59498D01*
X121923Y59542D01*
X121887Y59593D01*
X121843Y59666D01*
X121799Y59746D01*
X121763Y59841D01*
X121726Y59943D01*
Y59957D01*
X121712Y59994D01*
X121705Y60052D01*
X121690Y60132D01*
X121675Y60227D01*
X121661Y60344D01*
X121653Y60467D01*
Y60708D01*
X121661Y60752D01*
X121668Y60817D01*
Y60883D01*
X121683Y60956D01*
X121705Y61116D01*
X121741Y61291D01*
X121792Y61466D01*
X121865Y61641D01*
Y61648D01*
X121872Y61663D01*
X121887Y61685D01*
X121901Y61721D01*
X121923Y61758D01*
X121952Y61802D01*
X122018Y61911D01*
X122106Y62035D01*
X122215Y62166D01*
X122339Y62297D01*
X122485Y62428D01*
Y62458D01*
X121792Y62290D01*
Y64433D01*
X127573Y65877D01*
Y63726D01*
D02*
G37*
G36*
Y57202D02*
X121792Y55758D01*
Y57909D01*
X127573Y59359D01*
Y57202D01*
D02*
G37*
G36*
Y55503D02*
X129337Y55970D01*
Y53812D01*
X123192Y52259D01*
X123184D01*
X123170Y52252D01*
X123148D01*
X123111Y52244D01*
X123031Y52223D01*
X122922Y52208D01*
X122798Y52186D01*
X122674Y52171D01*
X122543Y52164D01*
X122426Y52171D01*
X122412D01*
X122375Y52179D01*
X122324Y52193D01*
X122259Y52215D01*
X122193Y52244D01*
X122120Y52288D01*
X122055Y52339D01*
X121996Y52405D01*
X121989Y52412D01*
X121974Y52441D01*
X121952Y52478D01*
X121923Y52536D01*
X121894Y52609D01*
X121858Y52696D01*
X121828Y52798D01*
X121799Y52915D01*
Y52930D01*
X121792Y52973D01*
X121777Y53046D01*
X121770Y53141D01*
X121756Y53265D01*
X121748Y53404D01*
X121741Y53564D01*
Y53921D01*
X121748Y54009D01*
Y54220D01*
X121756Y54329D01*
Y54380D01*
X121763Y54446D01*
Y54526D01*
X121770Y54621D01*
X121777Y54723D01*
X121785Y54840D01*
X121792Y54963D01*
X123075Y55284D01*
Y54832D01*
X123082Y54774D01*
X123097Y54708D01*
X123111Y54643D01*
X123141Y54592D01*
X123177Y54541D01*
X123184Y54533D01*
X123199Y54526D01*
X123228Y54512D01*
X123265Y54497D01*
X123316Y54482D01*
X123374D01*
X123447D01*
X123527Y54497D01*
X126275Y55182D01*
Y56086D01*
X127573Y56407D01*
Y55503D01*
D02*
G37*
G36*
X129417Y50641D02*
X121792Y48723D01*
Y50881D01*
X129417Y52791D01*
Y50641D01*
D02*
G37*
G36*
Y47987D02*
Y46668D01*
X129410Y46638D01*
Y46558D01*
X129395Y46456D01*
X129381Y46339D01*
X129359Y46208D01*
X129330Y46070D01*
X129294Y45931D01*
Y45924D01*
X129286Y45917D01*
X129279Y45895D01*
X129272Y45873D01*
X129250Y45800D01*
X129213Y45713D01*
X129169Y45603D01*
X129111Y45487D01*
X129053Y45370D01*
X128980Y45246D01*
X128973Y45231D01*
X128944Y45195D01*
X128900Y45137D01*
X128849Y45056D01*
X128776Y44969D01*
X128696Y44874D01*
X128608Y44772D01*
X128506Y44670D01*
X128492Y44655D01*
X128462Y44626D01*
X128404Y44583D01*
X128331Y44517D01*
X128244Y44451D01*
X128134Y44371D01*
X128025Y44291D01*
X127901Y44218D01*
X121792Y40945D01*
X121799Y43424D01*
X123119Y44007D01*
Y45858D01*
X121792Y45785D01*
Y48271D01*
X129417Y47987D01*
D02*
G37*
G36*
X139486Y99834D02*
X136672Y98594D01*
X139486Y97340D01*
Y96626D01*
X135768D01*
Y97267D01*
X138363D01*
X135768Y98288D01*
Y98871D01*
X138363Y99877D01*
X135768D01*
Y100519D01*
X139486D01*
Y99834D01*
D02*
G37*
G36*
X137955Y95970D02*
X138232Y95912D01*
X138480Y95839D01*
X138669Y95751D01*
X138830Y95664D01*
X138932Y95591D01*
X139005Y95532D01*
X139019Y95518D01*
X139180Y95328D01*
X139296Y95110D01*
X139384Y94876D01*
X139442Y94658D01*
X139471Y94454D01*
X139500Y94293D01*
Y94147D01*
X139486Y93827D01*
X139427Y93535D01*
X139355Y93302D01*
X139267Y93098D01*
X139165Y92952D01*
X139092Y92835D01*
X139034Y92777D01*
X139019Y92748D01*
X138830Y92587D01*
X138611Y92485D01*
X138378Y92398D01*
X138144Y92339D01*
X137940Y92310D01*
X137780Y92296D01*
X137707Y92281D01*
X137663D01*
X137634D01*
X137619D01*
X137284Y92310D01*
X137007Y92369D01*
X136759Y92456D01*
X136570Y92544D01*
X136409Y92631D01*
X136293Y92704D01*
X136234Y92762D01*
X136205Y92777D01*
X136045Y92981D01*
X135943Y93200D01*
X135855Y93418D01*
X135797Y93637D01*
X135768Y93841D01*
X135753Y94002D01*
X135739Y94060D01*
Y94147D01*
X135753Y94468D01*
X135812Y94745D01*
X135884Y94978D01*
X135972Y95168D01*
X136059Y95328D01*
X136132Y95430D01*
X136191Y95503D01*
X136205Y95518D01*
X136409Y95678D01*
X136628Y95795D01*
X136861Y95868D01*
X137095Y95926D01*
X137299Y95955D01*
X137474Y95984D01*
X137532D01*
X137576D01*
X137605D01*
X137619D01*
X137955Y95970D01*
D02*
G37*
G36*
X139486Y89205D02*
X138888D01*
Y90269D01*
X135768D01*
Y90969D01*
X138888D01*
Y92019D01*
X139486D01*
Y89205D01*
D02*
G37*
G36*
Y88155D02*
X136774D01*
X139486Y86201D01*
Y85501D01*
X135768D01*
Y86172D01*
X138523D01*
X135768Y88140D01*
Y88811D01*
X139486D01*
Y88155D01*
D02*
G37*
G36*
Y83446D02*
Y82702D01*
X135768Y81142D01*
Y81842D01*
X138771Y83066D01*
X137372Y83650D01*
Y82906D01*
X136774Y82658D01*
Y83898D01*
X135768Y84320D01*
Y85064D01*
X139486Y83446D01*
D02*
G37*
G36*
Y80005D02*
X137940D01*
Y78168D01*
X139486D01*
Y77482D01*
X135768D01*
Y78168D01*
X137343D01*
Y80005D01*
X135768D01*
Y80675D01*
X139486D01*
Y80005D01*
D02*
G37*
G36*
X138626Y77016D02*
X138786Y76987D01*
X138917Y76943D01*
X139034Y76885D01*
X139107Y76826D01*
X139180Y76783D01*
X139209Y76753D01*
X139223Y76739D01*
X139311Y76622D01*
X139369Y76491D01*
X139427Y76345D01*
X139457Y76214D01*
X139471Y76083D01*
X139486Y75981D01*
Y74231D01*
X135768D01*
Y74916D01*
X138859D01*
Y75849D01*
X138844Y76010D01*
X138801Y76112D01*
X138757Y76185D01*
X138742Y76199D01*
X138640Y76272D01*
X138538Y76301D01*
X138451Y76316D01*
X138421D01*
X138407D01*
X138305Y76301D01*
X138217Y76272D01*
X138072Y76199D01*
X138013Y76141D01*
X137970Y76112D01*
X137955Y76083D01*
X137940Y76068D01*
X137882Y75966D01*
X137824Y75864D01*
X137736Y75631D01*
X137707Y75529D01*
X137678Y75441D01*
X137663Y75383D01*
Y75368D01*
X137065Y75470D01*
X137109Y75747D01*
X137182Y75981D01*
X137255Y76185D01*
X137328Y76345D01*
X137401Y76476D01*
X137459Y76564D01*
X137503Y76622D01*
X137517Y76637D01*
X137663Y76768D01*
X137809Y76870D01*
X137970Y76928D01*
X138115Y76987D01*
X138232Y77016D01*
X138348Y77030D01*
X138407D01*
X138436D01*
X138626Y77016D01*
D02*
G37*
G36*
X139486Y71592D02*
X136672Y70353D01*
X139486Y69113D01*
Y68384D01*
X135768D01*
Y69026D01*
X138363D01*
X135768Y70047D01*
Y70630D01*
X138363Y71650D01*
X135768D01*
Y72277D01*
X139486D01*
Y71592D01*
D02*
G37*
G36*
Y66329D02*
Y65585D01*
X135768Y64025D01*
Y64710D01*
X138771Y65950D01*
X137372Y66533D01*
Y65775D01*
X136774Y65541D01*
Y66781D01*
X135768Y67203D01*
Y67947D01*
X139486Y66329D01*
D02*
G37*
G36*
X136366Y61809D02*
X137343D01*
Y63573D01*
X137955D01*
Y61809D01*
X138888D01*
Y63675D01*
X139486D01*
Y61138D01*
X135768D01*
Y63704D01*
X136366D01*
Y61809D01*
D02*
G37*
G36*
X139486Y57931D02*
X138888D01*
Y58995D01*
X135768D01*
Y59666D01*
X138888D01*
Y60745D01*
X139486D01*
Y57931D01*
D02*
G37*
G36*
X139077Y54767D02*
X139486Y54694D01*
X139865Y54621D01*
X140200Y54533D01*
X140346Y54490D01*
X140477Y54446D01*
X140594Y54402D01*
X140696Y54373D01*
X140783Y54344D01*
X140842Y54315D01*
X140871Y54300D01*
X140885D01*
X141279Y54125D01*
X141658Y53921D01*
X141979Y53732D01*
X142271Y53527D01*
X142402Y53440D01*
X142504Y53352D01*
X142606Y53280D01*
X142693Y53221D01*
X142752Y53163D01*
X142795Y53119D01*
X142825Y53105D01*
X142839Y53090D01*
X142635Y52857D01*
X142300Y53134D01*
X141964Y53367D01*
X141644Y53571D01*
X141352Y53732D01*
X141090Y53863D01*
X140988Y53921D01*
X140885Y53965D01*
X140813Y53994D01*
X140754Y54023D01*
X140725Y54038D01*
X140710D01*
X140317Y54184D01*
X139938Y54286D01*
X139573Y54373D01*
X139252Y54431D01*
X139107Y54446D01*
X138976Y54475D01*
X138859D01*
X138771Y54490D01*
X138684Y54504D01*
X138626D01*
X138596D01*
X138582D01*
X138174D01*
X137794Y54490D01*
X137430Y54446D01*
X137095Y54402D01*
X136949Y54373D01*
X136818Y54344D01*
X136701Y54329D01*
X136614Y54300D01*
X136526Y54286D01*
X136468Y54271D01*
X136439Y54256D01*
X136424D01*
X136030Y54125D01*
X135651Y53965D01*
X135301Y53804D01*
X134995Y53644D01*
X134864Y53571D01*
X134747Y53498D01*
X134645Y53425D01*
X134558Y53382D01*
X134485Y53323D01*
X134441Y53294D01*
X134412Y53280D01*
X134397Y53265D01*
X134047Y53003D01*
X133741Y52725D01*
X133479Y52463D01*
X133246Y52201D01*
X133056Y51982D01*
X132983Y51894D01*
X132925Y51822D01*
X132867Y51749D01*
X132837Y51705D01*
X132823Y51676D01*
X132808Y51661D01*
X132589Y51311D01*
X132400Y50961D01*
X132239Y50626D01*
X132108Y50320D01*
X132006Y50057D01*
X131963Y49955D01*
X131933Y49853D01*
X131904Y49780D01*
X131890Y49722D01*
X131875Y49693D01*
Y49678D01*
X131788Y49285D01*
X131715Y48891D01*
X131671Y48526D01*
X131656Y48206D01*
X131642Y48045D01*
Y47506D01*
X131685Y47098D01*
X131744Y46704D01*
X131831Y46325D01*
X131919Y46004D01*
X131963Y45844D01*
X132006Y45713D01*
X132050Y45610D01*
X132079Y45508D01*
X132108Y45421D01*
X132137Y45363D01*
X132152Y45333D01*
Y45319D01*
X131875Y45202D01*
X131700Y45669D01*
X131627Y45888D01*
X131569Y46092D01*
X131525Y46267D01*
X131496Y46398D01*
X131467Y46485D01*
Y46514D01*
X131423Y46777D01*
X131394Y47010D01*
X131365Y47243D01*
X131350Y47448D01*
Y47622D01*
X131335Y47754D01*
Y47870D01*
X131350Y48220D01*
Y48381D01*
X131365Y48512D01*
X131379Y48629D01*
Y48731D01*
X131394Y48789D01*
Y48803D01*
X131452Y49139D01*
X131481Y49299D01*
X131510Y49445D01*
X131540Y49562D01*
X131569Y49649D01*
X131583Y49707D01*
Y49722D01*
X131715Y50145D01*
X131875Y50538D01*
X132035Y50888D01*
X132196Y51209D01*
X132269Y51340D01*
X132342Y51472D01*
X132400Y51574D01*
X132458Y51661D01*
X132517Y51734D01*
X132546Y51792D01*
X132560Y51822D01*
X132575Y51836D01*
X132837Y52186D01*
X133114Y52507D01*
X133391Y52798D01*
X133654Y53032D01*
X133872Y53236D01*
X133975Y53309D01*
X134047Y53382D01*
X134120Y53425D01*
X134164Y53469D01*
X134193Y53484D01*
X134208Y53498D01*
X134572Y53746D01*
X134937Y53950D01*
X135301Y54140D01*
X135622Y54286D01*
X135768Y54344D01*
X135899Y54388D01*
X136016Y54431D01*
X136118Y54475D01*
X136191Y54504D01*
X136264Y54519D01*
X136293Y54533D01*
X136307D01*
X136730Y54636D01*
X137153Y54723D01*
X137547Y54767D01*
X137897Y54796D01*
X138057Y54811D01*
X138203D01*
X138334D01*
X138436D01*
X138523D01*
X138582D01*
X138626D01*
X138640D01*
X139077Y54767D01*
D02*
G37*
G36*
X145916Y54315D02*
X145945D01*
X145959Y54300D01*
X145580Y53834D01*
X145201Y53367D01*
X144851Y52944D01*
X144691Y52740D01*
X144530Y52551D01*
X144399Y52390D01*
X144268Y52230D01*
X144166Y52099D01*
X144064Y51982D01*
X143991Y51894D01*
X143933Y51822D01*
X143904Y51778D01*
X143889Y51763D01*
X143510Y51297D01*
X143131Y50830D01*
X142781Y50393D01*
X142606Y50203D01*
X142460Y50014D01*
X142314Y49839D01*
X142198Y49678D01*
X142081Y49547D01*
X141979Y49430D01*
X141906Y49343D01*
X141848Y49270D01*
X141819Y49226D01*
X141804Y49212D01*
X141425Y48745D01*
X141046Y48279D01*
X140696Y47841D01*
X140535Y47652D01*
X140375Y47462D01*
X140244Y47287D01*
X140113Y47127D01*
X140011Y46996D01*
X139909Y46879D01*
X139836Y46791D01*
X139777Y46719D01*
X139748Y46675D01*
X139734Y46660D01*
X139340Y46179D01*
X138961Y45727D01*
X138611Y45290D01*
X138451Y45086D01*
X138290Y44896D01*
X138144Y44736D01*
X138028Y44575D01*
X137911Y44429D01*
X137809Y44313D01*
X137736Y44225D01*
X137678Y44153D01*
X137649Y44109D01*
X137634Y44094D01*
X137547Y44357D01*
X137459Y44619D01*
X137372Y44852D01*
X137299Y45056D01*
X137241Y45246D01*
X137197Y45377D01*
X137168Y45465D01*
X137153Y45479D01*
Y45494D01*
X137065Y45756D01*
X136993Y46004D01*
X136905Y46237D01*
X136832Y46456D01*
X136774Y46631D01*
X136730Y46777D01*
X136701Y46864D01*
X136686Y46879D01*
Y46894D01*
X136395Y46617D01*
X136103Y46354D01*
X135826Y46106D01*
X135593Y45873D01*
X135389Y45698D01*
X135228Y45552D01*
X135170Y45494D01*
X135126Y45450D01*
X135112Y45436D01*
X135097Y45421D01*
X134806Y45144D01*
X134514Y44881D01*
X134237Y44619D01*
X134004Y44400D01*
X133800Y44211D01*
X133639Y44065D01*
X133581Y44007D01*
X133537Y43963D01*
X133523Y43948D01*
X133508Y43934D01*
X133216Y43657D01*
X132939Y43394D01*
X132677Y43146D01*
X132444Y42928D01*
X132239Y42738D01*
X132079Y42607D01*
X132021Y42549D01*
X131977Y42505D01*
X131963Y42490D01*
X131948Y42476D01*
X131656Y42199D01*
X131379Y41936D01*
X131117Y41688D01*
X130884Y41470D01*
X130679Y41280D01*
X130519Y41149D01*
X130461Y41091D01*
X130417Y41047D01*
X130402Y41032D01*
X130388Y41018D01*
X130373D01*
X130359D01*
X130330Y41032D01*
X130315Y41047D01*
X130694Y41557D01*
X131059Y42038D01*
X131408Y42505D01*
X131569Y42724D01*
X131715Y42913D01*
X131860Y43103D01*
X131977Y43263D01*
X132094Y43409D01*
X132181Y43540D01*
X132254Y43642D01*
X132312Y43715D01*
X132342Y43759D01*
X132356Y43773D01*
X132735Y44284D01*
X133100Y44779D01*
X133450Y45246D01*
X133610Y45450D01*
X133756Y45654D01*
X133902Y45829D01*
X134018Y46004D01*
X134135Y46150D01*
X134222Y46267D01*
X134295Y46369D01*
X134354Y46442D01*
X134383Y46485D01*
X134397Y46500D01*
X134791Y47010D01*
X135155Y47506D01*
X135505Y47972D01*
X135666Y48191D01*
X135826Y48381D01*
X135957Y48570D01*
X136089Y48731D01*
X136191Y48876D01*
X136293Y49008D01*
X136366Y49110D01*
X136424Y49183D01*
X136453Y49226D01*
X136468Y49241D01*
X136861Y49751D01*
X137241Y50247D01*
X137590Y50713D01*
X137751Y50932D01*
X137897Y51136D01*
X138042Y51326D01*
X138159Y51486D01*
X138276Y51632D01*
X138363Y51763D01*
X138436Y51865D01*
X138494Y51938D01*
X138523Y51982D01*
X138538Y51996D01*
X138626Y51676D01*
X138713Y51370D01*
X138786Y51078D01*
X138859Y50815D01*
X138903Y50597D01*
X138932Y50509D01*
X138946Y50437D01*
X138976Y50378D01*
Y50334D01*
X138990Y50305D01*
Y50291D01*
X139077Y49970D01*
X139165Y49664D01*
X139238Y49387D01*
X139311Y49124D01*
X139369Y48906D01*
X139398Y48818D01*
X139413Y48745D01*
X139427Y48687D01*
X139442Y48643D01*
X139457Y48614D01*
Y48599D01*
X139763Y48876D01*
X140040Y49139D01*
X140317Y49372D01*
X140565Y49591D01*
X140769Y49780D01*
X140929Y49926D01*
X140988Y49970D01*
X141031Y50014D01*
X141046Y50028D01*
X141060Y50043D01*
X141367Y50320D01*
X141658Y50582D01*
X141935Y50815D01*
X142183Y51034D01*
X142387Y51224D01*
X142548Y51370D01*
X142606Y51413D01*
X142650Y51457D01*
X142664Y51472D01*
X142679Y51486D01*
X142985Y51749D01*
X143262Y52011D01*
X143539Y52259D01*
X143787Y52463D01*
X143991Y52653D01*
X144151Y52798D01*
X144210Y52842D01*
X144253Y52886D01*
X144268Y52900D01*
X144283Y52915D01*
X144589Y53177D01*
X144866Y53440D01*
X145143Y53673D01*
X145376Y53892D01*
X145580Y54067D01*
X145741Y54213D01*
X145799Y54256D01*
X145843Y54300D01*
X145857Y54315D01*
X145872Y54329D01*
X145901D01*
X145916Y54315D01*
D02*
G37*
G36*
X144866Y49970D02*
X144982Y49562D01*
X145070Y49183D01*
X145128Y48847D01*
X145143Y48687D01*
X145172Y48556D01*
Y48424D01*
X145187Y48322D01*
X145201Y48250D01*
Y47710D01*
X145172Y47302D01*
X145128Y46923D01*
X145070Y46587D01*
X145041Y46442D01*
X145012Y46310D01*
X144982Y46194D01*
X144953Y46092D01*
X144939Y46004D01*
X144924Y45946D01*
X144910Y45917D01*
Y45902D01*
X144778Y45508D01*
X144618Y45144D01*
X144457Y44794D01*
X144297Y44502D01*
X144224Y44371D01*
X144151Y44240D01*
X144079Y44138D01*
X144035Y44050D01*
X143976Y43992D01*
X143947Y43934D01*
X143933Y43905D01*
X143918Y43890D01*
X143670Y43555D01*
X143393Y43234D01*
X143131Y42957D01*
X142883Y42709D01*
X142650Y42520D01*
X142562Y42432D01*
X142475Y42374D01*
X142402Y42315D01*
X142358Y42272D01*
X142329Y42257D01*
X142314Y42243D01*
X141950Y42009D01*
X141585Y41791D01*
X141235Y41630D01*
X140915Y41484D01*
X140769Y41426D01*
X140638Y41368D01*
X140521Y41339D01*
X140434Y41295D01*
X140346Y41266D01*
X140288Y41251D01*
X140259Y41236D01*
X140244D01*
X139836Y41134D01*
X139427Y41061D01*
X139048Y41003D01*
X138713Y40974D01*
X138567Y40960D01*
X138421D01*
X138305Y40945D01*
X138203D01*
X138130D01*
X138057D01*
X138028D01*
X138013D01*
X137590Y40974D01*
X137197Y41032D01*
X136832Y41105D01*
X136497Y41178D01*
X136351Y41222D01*
X136220Y41251D01*
X136103Y41295D01*
X136016Y41324D01*
X135928Y41353D01*
X135870Y41368D01*
X135841Y41382D01*
X135826D01*
X135433Y41543D01*
X135053Y41732D01*
X134718Y41922D01*
X134426Y42111D01*
X134295Y42199D01*
X134179Y42272D01*
X134077Y42345D01*
X133989Y42417D01*
X133916Y42461D01*
X133872Y42505D01*
X133843Y42520D01*
X133829Y42534D01*
X133843D01*
X134018Y42782D01*
X134354Y42534D01*
X134689Y42301D01*
X135010Y42111D01*
X135301Y41965D01*
X135549Y41834D01*
X135666Y41791D01*
X135753Y41747D01*
X135826Y41718D01*
X135884Y41688D01*
X135914Y41674D01*
X135928D01*
X136322Y41543D01*
X136686Y41455D01*
X137051Y41368D01*
X137372Y41324D01*
X137503Y41295D01*
X137634Y41280D01*
X137751D01*
X137853Y41266D01*
X137926Y41251D01*
X137984D01*
X138013D01*
X138028D01*
X138421D01*
X138815Y41280D01*
X139165Y41324D01*
X139486Y41382D01*
X139632Y41411D01*
X139763Y41426D01*
X139879Y41455D01*
X139967Y41484D01*
X140054Y41499D01*
X140113Y41513D01*
X140142Y41528D01*
X140156D01*
X140550Y41659D01*
X140915Y41820D01*
X141250Y41980D01*
X141542Y42140D01*
X141673Y42213D01*
X141789Y42286D01*
X141877Y42345D01*
X141964Y42403D01*
X142037Y42447D01*
X142081Y42476D01*
X142110Y42505D01*
X142125D01*
X142460Y42767D01*
X142752Y43030D01*
X143029Y43292D01*
X143247Y43540D01*
X143437Y43744D01*
X143568Y43919D01*
X143626Y43977D01*
X143656Y44021D01*
X143685Y44050D01*
Y44065D01*
X143904Y44415D01*
X144093Y44750D01*
X144253Y45071D01*
X144385Y45363D01*
X144487Y45625D01*
X144530Y45727D01*
X144560Y45815D01*
X144589Y45888D01*
X144603Y45946D01*
X144618Y45975D01*
Y45990D01*
X144720Y46383D01*
X144793Y46762D01*
X144837Y47112D01*
X144866Y47448D01*
Y47593D01*
X144880Y47725D01*
Y48118D01*
X144851Y48526D01*
X144808Y48920D01*
X144735Y49285D01*
X144647Y49605D01*
X144618Y49751D01*
X144574Y49882D01*
X144545Y49999D01*
X144501Y50086D01*
X144487Y50174D01*
X144457Y50232D01*
X144443Y50261D01*
Y50276D01*
X144720Y50378D01*
X144866Y49970D01*
D02*
G37*
%LPC*%
G36*
X127755Y46121D02*
X124577Y45939D01*
Y44648D01*
X127755Y46121D01*
D02*
G37*
G36*
X137736Y95270D02*
X137663D01*
X137649D01*
X137634D01*
X137415Y95255D01*
X137211Y95226D01*
X137051Y95183D01*
X136920Y95124D01*
X136803Y95066D01*
X136730Y95022D01*
X136686Y94993D01*
X136672Y94978D01*
X136570Y94862D01*
X136482Y94731D01*
X136424Y94599D01*
X136395Y94454D01*
X136366Y94337D01*
X136351Y94235D01*
Y94147D01*
X136366Y93943D01*
X136395Y93768D01*
X136453Y93608D01*
X136511Y93491D01*
X136570Y93389D01*
X136628Y93331D01*
X136657Y93287D01*
X136672Y93273D01*
X136803Y93185D01*
X136963Y93112D01*
X137124Y93068D01*
X137270Y93025D01*
X137415Y93010D01*
X137532Y92996D01*
X137605D01*
X137634D01*
X137853Y93010D01*
X138042Y93039D01*
X138203Y93083D01*
X138348Y93141D01*
X138451Y93185D01*
X138523Y93229D01*
X138567Y93258D01*
X138582Y93273D01*
X138698Y93389D01*
X138771Y93535D01*
X138830Y93681D01*
X138873Y93827D01*
X138903Y93943D01*
X138917Y94045D01*
Y94147D01*
X138903Y94337D01*
X138859Y94512D01*
X138815Y94658D01*
X138757Y94774D01*
X138684Y94862D01*
X138640Y94920D01*
X138596Y94964D01*
X138582Y94978D01*
X138451Y95080D01*
X138305Y95153D01*
X138144Y95197D01*
X137984Y95241D01*
X137853Y95255D01*
X137736Y95270D01*
D02*
G37*
%LPD*%
D12*
X44488Y142520D02*
X64173D01*
X44488Y173622D02*
X64173D01*
X57874Y235827D02*
X77559D01*
X57874Y255906D02*
X77559D01*
D14*
X66243Y246123D02*
X66405Y246447D01*
X66729Y246771D01*
X67053Y246933D01*
X67700D01*
X68024Y246771D01*
X68348Y246447D01*
X68510Y246123D01*
X68671Y245638D01*
Y244828D01*
X68510Y244343D01*
X68348Y244019D01*
X68024Y243695D01*
X67700Y243533D01*
X67053D01*
X66729Y243695D01*
X66405Y244019D01*
X66243Y244343D01*
Y244828D01*
X67053D02*
X66243D01*
X65466Y246933D02*
Y243533D01*
Y246933D02*
X63200Y243533D01*
Y246933D02*
Y243533D01*
X62261Y246933D02*
Y243533D01*
Y246933D02*
X61128D01*
X60643Y246771D01*
X60319Y246447D01*
X60157Y246123D01*
X59995Y245638D01*
Y244828D01*
X60157Y244343D01*
X60319Y244019D01*
X60643Y243695D01*
X61128Y243533D01*
X62261D01*
X80876Y44570D02*
X78610D01*
X79743D01*
Y41171D01*
X77477Y44570D02*
X75211Y41171D01*
Y44570D02*
X77477Y41171D01*
X80876Y54557D02*
Y57956D01*
X79177D01*
X78610Y57389D01*
Y56257D01*
X79177Y55690D01*
X80876D01*
X79743D02*
X78610Y54557D01*
X77477Y57956D02*
X75211Y54557D01*
Y57956D02*
X77477Y54557D01*
X82153Y82586D02*
X82720Y83153D01*
X83853D01*
X84419Y82586D01*
Y82020D01*
X83853Y81453D01*
X82720D01*
X82153Y80887D01*
Y80320D01*
X82720Y79754D01*
X83853D01*
X84419Y80320D01*
X81020Y83153D02*
Y79754D01*
X79321D01*
X78755Y80320D01*
Y82586D01*
X79321Y83153D01*
X81020D01*
X77622Y79754D02*
Y82020D01*
X76489Y83153D01*
X75356Y82020D01*
Y79754D01*
Y81453D01*
X77622D01*
X81760Y95578D02*
X82326Y96145D01*
X83459D01*
X84026Y95578D01*
Y95012D01*
X83459Y94445D01*
X82326D01*
X81760Y93879D01*
Y93313D01*
X82326Y92746D01*
X83459D01*
X84026Y93313D01*
X78361Y95578D02*
X78927Y96145D01*
X80060D01*
X80627Y95578D01*
Y93313D01*
X80060Y92746D01*
X78927D01*
X78361Y93313D01*
X77228Y96145D02*
Y92746D01*
X74962D01*
X59271Y127641D02*
Y124242D01*
X60404Y127641D02*
X58137D01*
X55628D02*
X57733D01*
Y124242D01*
X55628D01*
X57733Y126023D02*
X56438D01*
X55062Y127641D02*
Y124242D01*
Y127641D02*
X53767Y124242D01*
X52472Y127641D02*
X53767Y124242D01*
X52472Y127641D02*
Y124242D01*
X51501Y125861D02*
X50044D01*
X49558Y126023D01*
X49396Y126184D01*
X49235Y126508D01*
Y126994D01*
X49396Y127318D01*
X49558Y127479D01*
X50044Y127641D01*
X51501D01*
Y124242D01*
X74279Y267707D02*
X74603Y268031D01*
X75089Y268193D01*
X75736D01*
X76222Y268031D01*
X76545Y267707D01*
Y267383D01*
X76384Y267059D01*
X76222Y266898D01*
X75898Y266736D01*
X74927Y266412D01*
X74603Y266250D01*
X74441Y266088D01*
X74279Y265764D01*
Y265279D01*
X74603Y264955D01*
X75089Y264793D01*
X75736D01*
X76222Y264955D01*
X76545Y265279D01*
X73518Y268193D02*
Y264793D01*
X71252Y268193D02*
Y264793D01*
X73518Y266574D02*
X71252D01*
X69342Y268193D02*
X69666Y268031D01*
X69990Y267707D01*
X70152Y267383D01*
X70313Y266898D01*
Y266088D01*
X70152Y265603D01*
X69990Y265279D01*
X69666Y264955D01*
X69342Y264793D01*
X68695D01*
X68371Y264955D01*
X68047Y265279D01*
X67885Y265603D01*
X67723Y266088D01*
Y266898D01*
X67885Y267383D01*
X68047Y267707D01*
X68371Y268031D01*
X68695Y268193D01*
X69342D01*
X64502Y267383D02*
X64664Y267707D01*
X64988Y268031D01*
X65312Y268193D01*
X65959D01*
X66283Y268031D01*
X66606Y267707D01*
X66768Y267383D01*
X66930Y266898D01*
Y266088D01*
X66768Y265603D01*
X66606Y265279D01*
X66283Y264955D01*
X65959Y264793D01*
X65312D01*
X64988Y264955D01*
X64664Y265279D01*
X64502Y265603D01*
X63547Y268193D02*
Y264793D01*
X61281Y268193D02*
X63547Y265926D01*
X62738Y266736D02*
X61281Y264793D01*
X42389Y293691D02*
X42713Y294015D01*
X43199Y294177D01*
X43846D01*
X44332Y294015D01*
X44656Y293691D01*
Y293367D01*
X44494Y293044D01*
X44332Y292882D01*
X44008Y292720D01*
X43037Y292396D01*
X42713Y292234D01*
X42551Y292072D01*
X42389Y291749D01*
Y291263D01*
X42713Y290939D01*
X43199Y290777D01*
X43846D01*
X44332Y290939D01*
X44656Y291263D01*
X41629Y294177D02*
Y290777D01*
X39362Y294177D02*
Y290777D01*
X41629Y292558D02*
X39362D01*
X37452Y294177D02*
X37776Y294015D01*
X38100Y293691D01*
X38262Y293367D01*
X38424Y292882D01*
Y292072D01*
X38262Y291587D01*
X38100Y291263D01*
X37776Y290939D01*
X37452Y290777D01*
X36805D01*
X36481Y290939D01*
X36157Y291263D01*
X35996Y291587D01*
X35834Y292072D01*
Y292882D01*
X35996Y293367D01*
X36157Y293691D01*
X36481Y294015D01*
X36805Y294177D01*
X37452D01*
X32612Y293367D02*
X32774Y293691D01*
X33098Y294015D01*
X33422Y294177D01*
X34069D01*
X34393Y294015D01*
X34717Y293691D01*
X34879Y293367D01*
X35041Y292882D01*
Y292072D01*
X34879Y291587D01*
X34717Y291263D01*
X34393Y290939D01*
X34069Y290777D01*
X33422D01*
X33098Y290939D01*
X32774Y291263D01*
X32612Y291587D01*
X31657Y294177D02*
Y290777D01*
X29391Y294177D02*
X31657Y291911D01*
X30848Y292720D02*
X29391Y290777D01*
X23693Y293691D02*
X24017Y294015D01*
X24503Y294177D01*
X25150D01*
X25636Y294015D01*
X25960Y293691D01*
Y293367D01*
X25798Y293044D01*
X25636Y292882D01*
X25312Y292720D01*
X24341Y292396D01*
X24017Y292234D01*
X23855Y292072D01*
X23693Y291749D01*
Y291263D01*
X24017Y290939D01*
X24503Y290777D01*
X25150D01*
X25636Y290939D01*
X25960Y291263D01*
X22933Y293529D02*
X22609Y293691D01*
X22123Y294177D01*
Y290777D01*
X42389Y303534D02*
X42713Y303857D01*
X43199Y304019D01*
X43846D01*
X44332Y303857D01*
X44656Y303534D01*
Y303210D01*
X44494Y302886D01*
X44332Y302724D01*
X44008Y302562D01*
X43037Y302239D01*
X42713Y302077D01*
X42551Y301915D01*
X42389Y301591D01*
Y301106D01*
X42713Y300782D01*
X43199Y300620D01*
X43846D01*
X44332Y300782D01*
X44656Y301106D01*
X41629Y304019D02*
Y300620D01*
X39362Y304019D02*
Y300620D01*
X41629Y302401D02*
X39362D01*
X37452Y304019D02*
X37776Y303857D01*
X38100Y303534D01*
X38262Y303210D01*
X38424Y302724D01*
Y301915D01*
X38262Y301429D01*
X38100Y301106D01*
X37776Y300782D01*
X37452Y300620D01*
X36805D01*
X36481Y300782D01*
X36157Y301106D01*
X35996Y301429D01*
X35834Y301915D01*
Y302724D01*
X35996Y303210D01*
X36157Y303534D01*
X36481Y303857D01*
X36805Y304019D01*
X37452D01*
X32612Y303210D02*
X32774Y303534D01*
X33098Y303857D01*
X33422Y304019D01*
X34069D01*
X34393Y303857D01*
X34717Y303534D01*
X34879Y303210D01*
X35041Y302724D01*
Y301915D01*
X34879Y301429D01*
X34717Y301106D01*
X34393Y300782D01*
X34069Y300620D01*
X33422D01*
X33098Y300782D01*
X32774Y301106D01*
X32612Y301429D01*
X31657Y304019D02*
Y300620D01*
X29391Y304019D02*
X31657Y301753D01*
X30848Y302562D02*
X29391Y300620D01*
X23693Y303534D02*
X24017Y303857D01*
X24503Y304019D01*
X25150D01*
X25636Y303857D01*
X25960Y303534D01*
Y303210D01*
X25798Y302886D01*
X25636Y302724D01*
X25312Y302562D01*
X24341Y302239D01*
X24017Y302077D01*
X23855Y301915D01*
X23693Y301591D01*
Y301106D01*
X24017Y300782D01*
X24503Y300620D01*
X25150D01*
X25636Y300782D01*
X25960Y301106D01*
X21961Y304019D02*
X22447Y303857D01*
X22771Y303372D01*
X22933Y302562D01*
Y302077D01*
X22771Y301268D01*
X22447Y300782D01*
X21961Y300620D01*
X21638D01*
X21152Y300782D01*
X20828Y301268D01*
X20666Y302077D01*
Y302562D01*
X20828Y303372D01*
X21152Y303857D01*
X21638Y304019D01*
X21961D01*
X43523Y313862D02*
Y310462D01*
X44656Y313862D02*
X42389D01*
X39880D02*
X41985D01*
Y310462D01*
X39880D01*
X41985Y312243D02*
X40690D01*
X39314Y313862D02*
Y310462D01*
Y313862D02*
X38019Y310462D01*
X36724Y313862D02*
X38019Y310462D01*
X36724Y313862D02*
Y310462D01*
X35753Y312081D02*
X34296D01*
X33810Y312243D01*
X33648Y312405D01*
X33487Y312729D01*
Y313214D01*
X33648Y313538D01*
X33810Y313700D01*
X34296Y313862D01*
X35753D01*
Y310462D01*
X27789Y313376D02*
X28113Y313700D01*
X28598Y313862D01*
X29245D01*
X29731Y313700D01*
X30055Y313376D01*
Y313052D01*
X29893Y312729D01*
X29731Y312567D01*
X29407Y312405D01*
X28436Y312081D01*
X28113Y311919D01*
X27951Y311757D01*
X27789Y311434D01*
Y310948D01*
X28113Y310624D01*
X28598Y310462D01*
X29245D01*
X29731Y310624D01*
X30055Y310948D01*
X26866Y313052D02*
Y313214D01*
X26704Y313538D01*
X26542Y313700D01*
X26219Y313862D01*
X25571D01*
X25247Y313700D01*
X25085Y313538D01*
X24924Y313214D01*
Y312891D01*
X25085Y312567D01*
X25409Y312081D01*
X27028Y310462D01*
X24762D01*
X43523Y324098D02*
Y320699D01*
X44656Y324098D02*
X42389D01*
X39880D02*
X41985D01*
Y320699D01*
X39880D01*
X41985Y322479D02*
X40690D01*
X39314Y324098D02*
Y320699D01*
Y324098D02*
X38019Y320699D01*
X36724Y324098D02*
X38019Y320699D01*
X36724Y324098D02*
Y320699D01*
X35753Y322317D02*
X34296D01*
X33810Y322479D01*
X33648Y322641D01*
X33487Y322965D01*
Y323450D01*
X33648Y323774D01*
X33810Y323936D01*
X34296Y324098D01*
X35753D01*
Y320699D01*
X27789Y323612D02*
X28113Y323936D01*
X28598Y324098D01*
X29245D01*
X29731Y323936D01*
X30055Y323612D01*
Y323289D01*
X29893Y322965D01*
X29731Y322803D01*
X29407Y322641D01*
X28436Y322317D01*
X28113Y322156D01*
X27951Y321994D01*
X27789Y321670D01*
Y321184D01*
X28113Y320861D01*
X28598Y320699D01*
X29245D01*
X29731Y320861D01*
X30055Y321184D01*
X27028Y323450D02*
X26704Y323612D01*
X26219Y324098D01*
Y320699D01*
X43523Y333547D02*
Y330148D01*
X44656Y333547D02*
X42389D01*
X39880D02*
X41985D01*
Y330148D01*
X39880D01*
X41985Y331928D02*
X40690D01*
X39314Y333547D02*
Y330148D01*
Y333547D02*
X38019Y330148D01*
X36724Y333547D02*
X38019Y330148D01*
X36724Y333547D02*
Y330148D01*
X35753Y331766D02*
X34296D01*
X33810Y331928D01*
X33648Y332090D01*
X33487Y332414D01*
Y332899D01*
X33648Y333223D01*
X33810Y333385D01*
X34296Y333547D01*
X35753D01*
Y330148D01*
X27789Y333061D02*
X28113Y333385D01*
X28598Y333547D01*
X29245D01*
X29731Y333385D01*
X30055Y333061D01*
Y332737D01*
X29893Y332414D01*
X29731Y332252D01*
X29407Y332090D01*
X28436Y331766D01*
X28113Y331604D01*
X27951Y331442D01*
X27789Y331119D01*
Y330633D01*
X28113Y330309D01*
X28598Y330148D01*
X29245D01*
X29731Y330309D01*
X30055Y330633D01*
X26057Y333547D02*
X26542Y333385D01*
X26866Y332899D01*
X27028Y332090D01*
Y331604D01*
X26866Y330795D01*
X26542Y330309D01*
X26057Y330148D01*
X25733D01*
X25247Y330309D01*
X24924Y330795D01*
X24762Y331604D01*
Y332090D01*
X24924Y332899D01*
X25247Y333385D01*
X25733Y333547D01*
X26057D01*
X41996Y343691D02*
X42320Y344015D01*
X42805Y344177D01*
X43453D01*
X43938Y344015D01*
X44262Y343691D01*
Y343367D01*
X44100Y343044D01*
X43938Y342882D01*
X43614Y342720D01*
X42643Y342396D01*
X42320Y342234D01*
X42158Y342072D01*
X41996Y341749D01*
Y341263D01*
X42320Y340939D01*
X42805Y340777D01*
X43453D01*
X43938Y340939D01*
X44262Y341263D01*
X38807Y343367D02*
X38969Y343691D01*
X39292Y344015D01*
X39616Y344177D01*
X40264D01*
X40587Y344015D01*
X40911Y343691D01*
X41073Y343367D01*
X41235Y342882D01*
Y342072D01*
X41073Y341587D01*
X40911Y341263D01*
X40587Y340939D01*
X40264Y340777D01*
X39616D01*
X39292Y340939D01*
X38969Y341263D01*
X38807Y341587D01*
X37852Y344177D02*
Y340777D01*
X35909D01*
X41602Y353140D02*
X41926Y353464D01*
X42411Y353626D01*
X43059D01*
X43545Y353464D01*
X43868Y353140D01*
Y352816D01*
X43706Y352492D01*
X43545Y352331D01*
X43221Y352169D01*
X42250Y351845D01*
X41926Y351683D01*
X41764Y351521D01*
X41602Y351198D01*
Y350712D01*
X41926Y350388D01*
X42411Y350226D01*
X43059D01*
X43545Y350388D01*
X43868Y350712D01*
X40841Y353626D02*
Y350226D01*
Y353626D02*
X39708D01*
X39222Y353464D01*
X38899Y353140D01*
X38737Y352816D01*
X38575Y352331D01*
Y351521D01*
X38737Y351036D01*
X38899Y350712D01*
X39222Y350388D01*
X39708Y350226D01*
X40841D01*
X35224D02*
X36519Y353626D01*
X37814Y350226D01*
X37329Y351359D02*
X35710D01*
X43475Y364255D02*
Y360856D01*
Y364255D02*
X42018D01*
X41532Y364094D01*
X41370Y363932D01*
X41208Y363608D01*
Y363284D01*
X41370Y362961D01*
X41532Y362799D01*
X42018Y362637D01*
X43475D01*
X42341D02*
X41208Y360856D01*
X40448Y364255D02*
X38181Y360856D01*
Y364255D02*
X40448Y360856D01*
X43129Y373704D02*
Y370305D01*
X44262Y373704D02*
X41996D01*
X41591D02*
X39325Y370305D01*
Y373704D02*
X41591Y370305D01*
X41440Y404785D02*
X41602Y405108D01*
X41926Y405432D01*
X42250Y405594D01*
X42897D01*
X43221Y405432D01*
X43545Y405108D01*
X43706Y404785D01*
X43868Y404299D01*
Y403490D01*
X43706Y403004D01*
X43545Y402680D01*
X43221Y402357D01*
X42897Y402195D01*
X42250D01*
X41926Y402357D01*
X41602Y402680D01*
X41440Y403004D01*
Y403490D01*
X42250D02*
X41440D01*
X40663Y405594D02*
Y402195D01*
Y405594D02*
X38397Y402195D01*
Y405594D02*
Y402195D01*
X37458Y405594D02*
Y402195D01*
Y405594D02*
X36325D01*
X35839Y405432D01*
X35516Y405108D01*
X35354Y404785D01*
X35192Y404299D01*
Y403490D01*
X35354Y403004D01*
X35516Y402680D01*
X35839Y402357D01*
X36325Y402195D01*
X37458D01*
X54432Y158328D02*
X54594Y158652D01*
X54918Y158976D01*
X55242Y159137D01*
X55889D01*
X56213Y158976D01*
X56537Y158652D01*
X56698Y158328D01*
X56860Y157842D01*
Y157033D01*
X56698Y156547D01*
X56537Y156224D01*
X56213Y155900D01*
X55889Y155738D01*
X55242D01*
X54918Y155900D01*
X54594Y156224D01*
X54432Y156547D01*
Y157033D01*
X55242D02*
X54432D01*
X53655Y159137D02*
Y155738D01*
Y159137D02*
X51389Y155738D01*
Y159137D02*
Y155738D01*
X50450Y159137D02*
Y155738D01*
Y159137D02*
X49317D01*
X48831Y158976D01*
X48508Y158652D01*
X48346Y158328D01*
X48184Y157842D01*
Y157033D01*
X48346Y156547D01*
X48508Y156224D01*
X48831Y155900D01*
X49317Y155738D01*
X50450D01*
X44358Y95578D02*
X44925Y96145D01*
X46058D01*
X46624Y95578D01*
Y93313D01*
X46058Y92746D01*
X44925D01*
X44358Y93313D01*
Y94445D01*
X45491D01*
X43225Y92746D02*
Y96145D01*
X40959Y92746D01*
Y96145D01*
X39826D02*
Y92746D01*
X38127D01*
X37560Y93313D01*
Y95578D01*
X38127Y96145D01*
X39826D01*
X43964Y57783D02*
X44531Y58350D01*
X45664D01*
X46230Y57783D01*
Y55517D01*
X45664Y54951D01*
X44531D01*
X43964Y55517D01*
Y56650D01*
X45097D01*
X42832Y54951D02*
Y58350D01*
X40566Y54951D01*
Y58350D01*
X39433D02*
Y54951D01*
X37733D01*
X37167Y55517D01*
Y57783D01*
X37733Y58350D01*
X39433D01*
X43571Y45357D02*
X45837D01*
Y43658D01*
X44704Y44225D01*
X44137D01*
X43571Y43658D01*
Y42525D01*
X44137Y41959D01*
X45270D01*
X45837Y42525D01*
X42438Y45357D02*
Y43092D01*
X41305Y41959D01*
X40172Y43092D01*
Y45357D01*
X44358Y81578D02*
X46624D01*
Y79878D01*
X45491Y80445D01*
X44925D01*
X44358Y79878D01*
Y78746D01*
X44925Y78179D01*
X46058D01*
X46624Y78746D01*
X43225Y81578D02*
Y79312D01*
X42092Y78179D01*
X40959Y79312D01*
Y81578D01*
X50981Y190633D02*
X52600D01*
X52761Y189177D01*
X52600Y189339D01*
X52114Y189500D01*
X51628D01*
X51143Y189339D01*
X50819Y189015D01*
X50657Y188529D01*
Y188205D01*
X50819Y187720D01*
X51143Y187396D01*
X51628Y187234D01*
X52114D01*
X52600Y187396D01*
X52761Y187558D01*
X52923Y187882D01*
X49896Y190633D02*
X48601Y187234D01*
X47306Y190633D02*
X48601Y187234D01*
X41926Y394570D02*
X43545D01*
X43706Y393114D01*
X43545Y393275D01*
X43059Y393437D01*
X42573D01*
X42088Y393275D01*
X41764Y392952D01*
X41602Y392466D01*
Y392142D01*
X41764Y391657D01*
X42088Y391333D01*
X42573Y391171D01*
X43059D01*
X43545Y391333D01*
X43706Y391495D01*
X43868Y391819D01*
X40841Y394570D02*
X39546Y391171D01*
X38251Y394570D02*
X39546Y391171D01*
X63579Y227641D02*
X65198D01*
X65360Y226185D01*
X65198Y226346D01*
X64712Y226508D01*
X64227D01*
X63741Y226346D01*
X63417Y226023D01*
X63256Y225537D01*
Y225213D01*
X63417Y224728D01*
X63741Y224404D01*
X64227Y224242D01*
X64712D01*
X65198Y224404D01*
X65360Y224566D01*
X65522Y224889D01*
X62495Y227641D02*
X61200Y224242D01*
X59905Y227641D02*
X61200Y224242D01*
D16*
X154498Y42520D02*
X148594D01*
X154498D02*
Y44488D01*
X154217Y45331D01*
X153655Y45893D01*
X153092Y46175D01*
X152249Y46456D01*
X150843D01*
X150000Y46175D01*
X149437Y45893D01*
X148875Y45331D01*
X148594Y44488D01*
Y42520D01*
Y52276D02*
X154498Y50027D01*
X148594Y47777D01*
X150562Y48621D02*
Y51432D01*
X154498Y55340D02*
X154217Y54778D01*
X153655Y54216D01*
X153092Y53935D01*
X152249Y53653D01*
X150843D01*
X150000Y53935D01*
X149437Y54216D01*
X148875Y54778D01*
X148594Y55340D01*
Y56465D01*
X148875Y57027D01*
X149437Y57590D01*
X150000Y57871D01*
X150843Y58152D01*
X152249D01*
X153092Y57871D01*
X153655Y57590D01*
X154217Y57027D01*
X154498Y56465D01*
Y55340D01*
X149718Y56184D02*
X148031Y57871D01*
X154498Y64169D02*
X148594D01*
X154498D02*
Y66699D01*
X154217Y67542D01*
X153936Y67824D01*
X153373Y68105D01*
X152811D01*
X152249Y67824D01*
X151968Y67542D01*
X151687Y66699D01*
Y64169D02*
Y66699D01*
X151405Y67542D01*
X151124Y67824D01*
X150562Y68105D01*
X149718D01*
X149156Y67824D01*
X148875Y67542D01*
X148594Y66699D01*
Y64169D01*
X152530Y70832D02*
X152249Y70270D01*
X151687Y69707D01*
X150843Y69426D01*
X150281D01*
X149437Y69707D01*
X148875Y70270D01*
X148594Y70832D01*
Y71675D01*
X148875Y72238D01*
X149437Y72800D01*
X150281Y73081D01*
X150843D01*
X151687Y72800D01*
X152249Y72238D01*
X152530Y71675D01*
Y70832D01*
Y77748D02*
X148594D01*
X151687D02*
X152249Y77186D01*
X152530Y76624D01*
Y75780D01*
X152249Y75218D01*
X151687Y74656D01*
X150843Y74375D01*
X150281D01*
X149437Y74656D01*
X148875Y75218D01*
X148594Y75780D01*
Y76624D01*
X148875Y77186D01*
X149437Y77748D01*
X152530Y79323D02*
X148594D01*
X150843D02*
X151687Y79604D01*
X152249Y80166D01*
X152530Y80729D01*
Y81572D01*
X154498Y85480D02*
X148594D01*
X151687D02*
X152249Y84918D01*
X152530Y84355D01*
Y83512D01*
X152249Y82950D01*
X151687Y82387D01*
X150843Y82106D01*
X150281D01*
X149437Y82387D01*
X148875Y82950D01*
X148594Y83512D01*
Y84355D01*
X148875Y84918D01*
X149437Y85480D01*
X154498Y91694D02*
X148594D01*
X154498D02*
Y94224D01*
X154217Y95068D01*
X153936Y95349D01*
X153373Y95630D01*
X152811D01*
X152249Y95349D01*
X151968Y95068D01*
X151687Y94224D01*
Y91694D01*
Y93662D02*
X148594Y95630D01*
X150843Y96951D02*
Y100325D01*
X151405D01*
X151968Y100044D01*
X152249Y99763D01*
X152530Y99200D01*
Y98357D01*
X152249Y97795D01*
X151687Y97232D01*
X150843Y96951D01*
X150281D01*
X149437Y97232D01*
X148875Y97795D01*
X148594Y98357D01*
Y99200D01*
X148875Y99763D01*
X149437Y100325D01*
X152530Y101590D02*
X148594Y103277D01*
X152530Y104964D02*
X148594Y103277D01*
X153373Y110559D02*
X153655Y111121D01*
X154498Y111965D01*
X148594D01*
M02*
