M48
;Layer_Color=9474304
;FILE_FORMAT=2:5
INCH,LZ
;TYPE=PLATED
T1F00S00C0.01181
T2F00S00C0.01772
T3F00S00C0.02362
T4F00S00C0.16535
%
T01
X0037795Y0010236
X0051575
X0046457Y0019685
X0030512Y0024213
Y0029921
X0029126Y004174
X0030906Y0051575
X0038091Y0053937
X0037795Y0037795
X0055118Y0046063
X0010236Y0037795
X0056398Y0029921
X0061221Y0046063
X0072244Y0024016
X0065354Y0010236
X0072244Y0079134
X0058465
X0044685
X0030906
X0024016Y0065354
X0012697Y0060827
X0051575Y0065354
T02
X0018315Y004174
X0025386
Y0048811
X0018315
T03
X0068898Y0040157
Y0045079
Y005
T04
X0015157Y0015157
Y007874
M30
