M48
;Layer_Color=9474304
;FILE_FORMAT=2:5
INCH,LZ
;TYPE=PLATED
T1F00S00C0.01181
T2F00S00C0.01772
T3F00S00C0.02362
T4F00S00C0.16535
%
T01
X0029921Y0006299
X0041732
X0053543
X0040551Y0019685
X0038386Y0027165
X0044193Y0055216
X001811Y0053543
X0006299
X0012205Y0041732
X0006299Y0029921
X0060236Y0025197
X006063Y0019094
X007126Y001811
X0083071
X0077165Y0029921
X0065354
X0062205Y0047441
X0065354Y0053543
X0077165
X0083071Y0041732
X0077165Y0006299
X0065354
X007126Y0065354
X0083071
X0077165Y0077165
X0065354
X0053543
X0041732
X003189Y0077953
T02
X0025409Y0042913
Y0049984
X003248
Y0042913
T03
X0068898Y0040157
Y0045079
Y005
T04
X0015157Y0015157
Y0079331
M30
