G04*
G04 #@! TF.GenerationSoftware,Altium Limited,Altium Designer,18.1.11 (251)*
G04*
G04 Layer_Physical_Order=1*
G04 Layer_Color=255*
%FSLAX42Y42*%
%MOMM*%
G71*
G01*
G75*
%ADD11C,0.25*%
%ADD13R,0.95X0.85*%
%ADD14R,1.80X2.00*%
%ADD15R,0.85X2.65*%
%ADD21C,0.50*%
D11*
X550Y965D02*
X630D01*
X1053Y863D02*
X1409D01*
X1500Y772D01*
Y680D02*
Y772D01*
Y520D02*
X1582Y438D01*
Y198D02*
Y438D01*
X692Y1377D02*
X697Y1382D01*
X692Y1255D02*
Y1377D01*
X948Y757D02*
X1053Y863D01*
X942Y752D02*
X948Y757D01*
Y1382D01*
X1192Y1377D02*
X1198Y1382D01*
X1192Y985D02*
Y1377D01*
X948Y1382D02*
Y1745D01*
X654Y2038D02*
X948Y1745D01*
X654Y2038D02*
Y2284D01*
X948Y2577D01*
Y2752D01*
X382Y500D02*
X420D01*
X565Y645D01*
X942D02*
Y752D01*
X1073Y965D02*
X1173D01*
X1192Y985D01*
X565Y645D02*
X775D01*
X792D01*
X1235Y308D02*
X1473D01*
X1092Y450D02*
X1235Y308D01*
X1092Y450D02*
Y645D01*
X382Y797D02*
X550Y965D01*
X382Y660D02*
Y797D01*
X1473Y308D02*
X1582Y198D01*
X375Y1035D02*
X485Y1145D01*
X583D01*
X692Y1255D01*
D13*
X1500Y520D02*
D03*
Y680D02*
D03*
X382Y660D02*
D03*
Y500D02*
D03*
D14*
X697Y1382D02*
D03*
X948D02*
D03*
X1198D02*
D03*
X948Y2752D02*
D03*
D15*
X792Y645D02*
D03*
X942D02*
D03*
X1092D02*
D03*
D21*
X630Y965D02*
D03*
X1073D02*
D03*
X1582Y198D02*
D03*
X375Y1035D02*
D03*
M02*
