G04*
G04 #@! TF.GenerationSoftware,Altium Limited,Altium Designer,18.1.11 (251)*
G04*
G04 Layer_Color=65535*
%FSLAX42Y42*%
%MOMM*%
G71*
G01*
G75*
%ADD10C,0.20*%
%ADD11C,0.25*%
%ADD12C,0.30*%
D10*
X1462Y590D02*
Y610D01*
X1538Y590D02*
Y610D01*
X420Y570D02*
Y590D01*
X345Y570D02*
Y590D01*
D11*
X347Y1633D02*
Y2562D01*
X1248Y2860D02*
X1248D01*
X1548Y2560D01*
X347Y2562D02*
X643Y2858D01*
X645Y2860D02*
X1248D01*
X643Y2858D02*
X645Y2860D01*
X347Y1633D02*
X555Y1425D01*
X1548Y1640D02*
Y2560D01*
X1338Y1430D02*
X1548Y1640D01*
X1338Y1195D02*
Y1430D01*
X555Y1198D02*
X557Y1195D01*
X555Y1198D02*
Y1425D01*
X557Y1195D02*
X1338D01*
X159Y2508D02*
Y2541D01*
Y2525D01*
X75D01*
X59Y2541D01*
Y2558D01*
X75Y2575D01*
X125Y2458D02*
Y2425D01*
X109Y2408D01*
X59D01*
Y2458D01*
X75Y2475D01*
X92Y2458D01*
Y2408D01*
X125Y2375D02*
X75D01*
X59Y2358D01*
Y2308D01*
X42D01*
X25Y2325D01*
Y2341D01*
X59Y2308D02*
X125D01*
X59Y2175D02*
X159D01*
Y2125D01*
X142Y2108D01*
X109D01*
X92Y2125D01*
Y2175D01*
X125Y2058D02*
Y2025D01*
X109Y2008D01*
X59D01*
Y2058D01*
X75Y2075D01*
X92Y2058D01*
Y2008D01*
X125Y1908D02*
Y1958D01*
X109Y1975D01*
X75D01*
X59Y1958D01*
Y1908D01*
X125Y1858D02*
Y1825D01*
X109Y1808D01*
X59D01*
Y1858D01*
X75Y1875D01*
X92Y1858D01*
Y1808D01*
X59Y1775D02*
X125D01*
Y1758D01*
X109Y1742D01*
X59D01*
X109D01*
X125Y1725D01*
X109Y1708D01*
X59D01*
X125Y1658D02*
Y1625D01*
X109Y1608D01*
X59D01*
Y1658D01*
X75Y1675D01*
X92Y1658D01*
Y1608D01*
X125Y1575D02*
X59D01*
X92D01*
X109Y1558D01*
X125Y1542D01*
Y1525D01*
Y1475D02*
X59D01*
X92D01*
X109Y1458D01*
X125Y1442D01*
Y1425D01*
Y1358D02*
Y1325D01*
X109Y1308D01*
X59D01*
Y1358D01*
X75Y1375D01*
X92Y1358D01*
Y1308D01*
X1878Y3225D02*
Y3123D01*
Y3174D01*
X1725D01*
Y2996D02*
Y3047D01*
X1751Y3072D01*
X1802D01*
X1827Y3047D01*
Y2996D01*
X1802Y2971D01*
X1776D01*
Y3072D01*
X1827Y2895D02*
Y2844D01*
X1802Y2818D01*
X1725D01*
Y2895D01*
X1751Y2920D01*
X1776Y2895D01*
Y2818D01*
X1725Y2768D02*
X1827D01*
Y2742D01*
X1802Y2717D01*
X1725D01*
X1802D01*
X1827Y2691D01*
X1802Y2666D01*
X1725D01*
Y2463D02*
X1878D01*
Y2387D01*
X1852Y2361D01*
X1802D01*
X1776Y2387D01*
Y2463D01*
X1878Y2311D02*
X1725D01*
X1802D01*
X1827Y2285D01*
Y2234D01*
X1802Y2209D01*
X1725D01*
X1827Y2133D02*
Y2082D01*
X1802Y2057D01*
X1725D01*
Y2133D01*
X1751Y2158D01*
X1776Y2133D01*
Y2057D01*
X1725Y2006D02*
X1827D01*
Y1930D01*
X1802Y1904D01*
X1725D01*
X1852Y1828D02*
X1827D01*
Y1854D01*
Y1803D01*
Y1828D01*
X1751D01*
X1725Y1803D01*
Y1701D02*
Y1650D01*
X1751Y1625D01*
X1802D01*
X1827Y1650D01*
Y1701D01*
X1802Y1727D01*
X1751D01*
X1725Y1701D01*
Y1574D02*
X1827D01*
Y1549D01*
X1802Y1523D01*
X1725D01*
X1802D01*
X1827Y1498D01*
X1802Y1473D01*
X1725D01*
X680Y3225D02*
Y3125D01*
X730D01*
X746Y3142D01*
Y3159D01*
X730Y3175D01*
X680D01*
X730D01*
X746Y3192D01*
Y3209D01*
X730Y3225D01*
X680D01*
X846Y3209D02*
X830Y3225D01*
X796D01*
X780Y3209D01*
Y3192D01*
X796Y3175D01*
X830D01*
X846Y3159D01*
Y3142D01*
X830Y3125D01*
X796D01*
X780Y3142D01*
X946Y3225D02*
X880D01*
Y3125D01*
X946D01*
X880Y3175D02*
X913D01*
X1080Y3125D02*
Y3225D01*
X1130D01*
X1146Y3209D01*
Y3175D01*
X1130Y3159D01*
X1080D01*
X1113D02*
X1146Y3125D01*
X1230D02*
X1196D01*
X1180Y3142D01*
Y3175D01*
X1196Y3192D01*
X1230D01*
X1246Y3175D01*
Y3159D01*
X1180D01*
X1280Y3192D02*
X1313Y3125D01*
X1346Y3192D01*
X1380Y3125D02*
X1413D01*
X1396D01*
Y3225D01*
X1380Y3209D01*
X1463Y3125D02*
Y3142D01*
X1480D01*
Y3125D01*
X1463D01*
X1546Y3209D02*
X1563Y3225D01*
X1596D01*
X1613Y3209D01*
Y3142D01*
X1596Y3125D01*
X1563D01*
X1546Y3142D01*
Y3209D01*
X1447Y830D02*
Y982D01*
X1523D01*
X1549Y957D01*
Y906D01*
X1523Y880D01*
X1447D01*
X1498D02*
X1549Y830D01*
X1600Y957D02*
X1625Y982D01*
X1676D01*
X1701Y957D01*
Y931D01*
X1676Y906D01*
X1650D01*
X1676D01*
X1701Y880D01*
Y855D01*
X1676Y830D01*
X1625D01*
X1600Y855D01*
X462Y335D02*
X411D01*
X436D01*
Y208D01*
X411Y182D01*
X385D01*
X360Y208D01*
X512Y182D02*
X563D01*
X538D01*
Y335D01*
X512Y309D01*
X200Y2838D02*
Y2990D01*
X276D01*
X302Y2964D01*
Y2914D01*
X276Y2888D01*
X200D01*
X251D02*
X302Y2838D01*
X352D02*
X403D01*
X378D01*
Y2990D01*
X352Y2964D01*
X260Y830D02*
Y982D01*
X336D01*
X362Y957D01*
Y906D01*
X336Y880D01*
X260D01*
X311D02*
X362Y830D01*
X514D02*
X412D01*
X514Y931D01*
Y957D01*
X489Y982D01*
X438D01*
X412Y957D01*
D12*
X635Y150D02*
X1260D01*
X635Y882D02*
X1260D01*
X635Y150D02*
Y882D01*
X1260Y150D02*
Y882D01*
M02*
