G04*
G04 #@! TF.GenerationSoftware,Altium Limited,Altium Designer,20.2.6 (244)*
G04*
G04 Layer_Color=24703*
%FSLAX25Y25*%
%MOIN*%
G70*
G04*
G04 #@! TF.SameCoordinates,97AFD176-D21A-46EB-8268-D0DDF23825AD*
G04*
G04*
G04 #@! TF.FilePolarity,Positive*
G04*
G01*
G75*
%ADD14C,0.00620*%
D14*
X36978Y12526D02*
Y9127D01*
Y12526D02*
X38273Y9127D01*
X39568Y12526D02*
X38273Y9127D01*
X39568Y12526D02*
Y9127D01*
X40539Y12526D02*
Y9127D01*
X42805Y12526D02*
Y9127D01*
X40539Y10908D02*
X42805D01*
X45363Y12526D02*
X43744Y10260D01*
X46172D01*
X45363Y12526D02*
Y9127D01*
X123988Y10125D02*
Y6726D01*
Y10125D02*
X125283Y6726D01*
X126578Y10125D02*
X125283Y6726D01*
X126578Y10125D02*
Y6726D01*
X127549Y10125D02*
Y6726D01*
X129815Y10125D02*
Y6726D01*
X127549Y8506D02*
X129815D01*
X131078Y10125D02*
X132858D01*
X131887Y8830D01*
X132373D01*
X132696Y8668D01*
X132858Y8506D01*
X133020Y8021D01*
Y7697D01*
X132858Y7211D01*
X132535Y6887D01*
X132049Y6726D01*
X131563D01*
X131078Y6887D01*
X130916Y7049D01*
X130754Y7373D01*
X121271Y441739D02*
Y438340D01*
Y441739D02*
X122566Y438340D01*
X123861Y441739D02*
X122566Y438340D01*
X123861Y441739D02*
Y438340D01*
X124832Y441739D02*
Y438340D01*
X127099Y441739D02*
Y438340D01*
X124832Y440120D02*
X127099D01*
X128199Y440930D02*
Y441091D01*
X128361Y441415D01*
X128523Y441577D01*
X128847Y441739D01*
X129494D01*
X129818Y441577D01*
X129980Y441415D01*
X130142Y441091D01*
Y440768D01*
X129980Y440444D01*
X129656Y439958D01*
X128037Y438340D01*
X130304D01*
X30070Y441857D02*
Y438458D01*
Y441857D02*
X31365Y438458D01*
X32660Y441857D02*
X31365Y438458D01*
X32660Y441857D02*
Y438458D01*
X33632Y441857D02*
Y438458D01*
X35898Y441857D02*
Y438458D01*
X33632Y440238D02*
X35898D01*
X36837Y441210D02*
X37160Y441371D01*
X37646Y441857D01*
Y438458D01*
X88238Y370676D02*
Y368086D01*
X88076Y367600D01*
X87914Y367439D01*
X87590Y367277D01*
X87266D01*
X86943Y367439D01*
X86781Y367600D01*
X86619Y368086D01*
Y368410D01*
X89112Y368895D02*
X90569D01*
X91054Y369057D01*
X91216Y369219D01*
X91378Y369543D01*
Y370028D01*
X91216Y370352D01*
X91054Y370514D01*
X90569Y370676D01*
X89112D01*
Y367277D01*
X94081Y370676D02*
X92462D01*
X92300Y369219D01*
X92462Y369381D01*
X92948Y369543D01*
X93434D01*
X93919Y369381D01*
X94243Y369057D01*
X94405Y368572D01*
Y368248D01*
X94243Y367762D01*
X93919Y367439D01*
X93434Y367277D01*
X92948D01*
X92462Y367439D01*
X92300Y367600D01*
X92139Y367924D01*
X55757Y384889D02*
Y382299D01*
X55595Y381813D01*
X55433Y381651D01*
X55110Y381489D01*
X54786D01*
X54462Y381651D01*
X54300Y381813D01*
X54138Y382299D01*
Y382622D01*
X56631Y383108D02*
X58088D01*
X58574Y383270D01*
X58736Y383432D01*
X58898Y383755D01*
Y384241D01*
X58736Y384565D01*
X58574Y384727D01*
X58088Y384889D01*
X56631D01*
Y381489D01*
X59820Y384079D02*
Y384241D01*
X59982Y384565D01*
X60144Y384727D01*
X60468Y384889D01*
X61115D01*
X61439Y384727D01*
X61601Y384565D01*
X61763Y384241D01*
Y383917D01*
X61601Y383594D01*
X61277Y383108D01*
X59658Y381489D01*
X61924D01*
X100816Y380046D02*
Y377456D01*
X100654Y376971D01*
X100493Y376809D01*
X100169Y376647D01*
X99845D01*
X99521Y376809D01*
X99360Y376971D01*
X99198Y377456D01*
Y377780D01*
X101690Y378266D02*
X103147D01*
X103633Y378427D01*
X103795Y378589D01*
X103957Y378913D01*
Y379399D01*
X103795Y379722D01*
X103633Y379884D01*
X103147Y380046D01*
X101690D01*
Y376647D01*
X104717Y379399D02*
X105041Y379560D01*
X105527Y380046D01*
Y376647D01*
M02*
