G04*
G04 #@! TF.GenerationSoftware,Altium Limited,Altium Designer,20.2.6 (244)*
G04*
G04 Layer_Color=8421504*
%FSLAX25Y25*%
%MOIN*%
G70*
G04*
G04 #@! TF.SameCoordinates,B08247AD-C9F3-431D-B4F2-3EC6C1185143*
G04*
G04*
G04 #@! TF.FilePolarity,Positive*
G04*
G01*
G75*
%ADD17R,0.04134X0.03937*%
%ADD18R,0.03347X0.03543*%
%ADD19R,0.03937X0.04134*%
%ADD20R,0.03543X0.03347*%
%ADD21R,0.05315X0.02362*%
%ADD22R,0.05315X0.01575*%
%ADD23O,0.05709X0.01181*%
%ADD24C,0.07874*%
%ADD25R,0.07284X0.12598*%
%ADD26R,0.07284X0.03937*%
%ADD27R,0.03150X0.03150*%
%ADD28R,0.02362X0.05315*%
%ADD29R,0.01575X0.05315*%
D17*
X128898Y181968D02*
D03*
X122992D02*
D03*
X135118Y190315D02*
D03*
X141024D02*
D03*
X122835Y226299D02*
D03*
X128740D02*
D03*
D18*
X97697Y190433D02*
D03*
X91594D02*
D03*
X87382Y345630D02*
D03*
X81279D02*
D03*
Y328465D02*
D03*
X87382D02*
D03*
X81279Y334173D02*
D03*
X87382D02*
D03*
X81279Y316850D02*
D03*
X87382D02*
D03*
X81279Y339921D02*
D03*
X87382D02*
D03*
X81279Y311142D02*
D03*
X87382D02*
D03*
Y322756D02*
D03*
X81279D02*
D03*
X122736Y393071D02*
D03*
X116634D02*
D03*
X116673Y387362D02*
D03*
X122776D02*
D03*
X116713Y381614D02*
D03*
X122815D02*
D03*
D19*
X103543Y184331D02*
D03*
Y190236D02*
D03*
X119685Y357185D02*
D03*
Y351279D02*
D03*
X64882Y401457D02*
D03*
Y395551D02*
D03*
X58780Y395551D02*
D03*
Y401457D02*
D03*
X73110Y232559D02*
D03*
Y238465D02*
D03*
X104685Y404646D02*
D03*
Y398740D02*
D03*
D20*
X129055Y176142D02*
D03*
Y170039D02*
D03*
X81457Y357441D02*
D03*
Y363543D02*
D03*
X125591Y357283D02*
D03*
Y351181D02*
D03*
X87244Y357441D02*
D03*
Y363543D02*
D03*
X113386Y294488D02*
D03*
X105512D02*
D03*
X97638D02*
D03*
X89764D02*
D03*
X81890D02*
D03*
Y288386D02*
D03*
X89764D02*
D03*
X97638D02*
D03*
X105512D02*
D03*
X113386D02*
D03*
X121260Y288248D02*
D03*
Y294350D02*
D03*
X129134Y288248D02*
D03*
Y294350D02*
D03*
X137008Y288248D02*
D03*
Y294350D02*
D03*
X144882D02*
D03*
Y288248D02*
D03*
D21*
X128169Y202106D02*
D03*
X105138Y220807D02*
D03*
X128169D02*
D03*
X105138Y202106D02*
D03*
X102618Y345492D02*
D03*
Y316555D02*
D03*
X125650Y345492D02*
D03*
Y316555D02*
D03*
D22*
X128169Y205059D02*
D03*
Y207618D02*
D03*
Y210177D02*
D03*
Y212736D02*
D03*
Y215295D02*
D03*
Y217854D02*
D03*
X105138Y205059D02*
D03*
Y207618D02*
D03*
Y210177D02*
D03*
Y212736D02*
D03*
Y215295D02*
D03*
Y217854D02*
D03*
X125650Y319508D02*
D03*
Y322067D02*
D03*
Y327185D02*
D03*
Y329744D02*
D03*
X102618Y339980D02*
D03*
Y342539D02*
D03*
Y337421D02*
D03*
Y334862D02*
D03*
Y322067D02*
D03*
Y332303D02*
D03*
Y329744D02*
D03*
Y327185D02*
D03*
Y324626D02*
D03*
Y319508D02*
D03*
X125650Y342539D02*
D03*
Y339980D02*
D03*
Y337421D02*
D03*
Y334862D02*
D03*
Y332303D02*
D03*
Y324626D02*
D03*
D23*
X128071Y188425D02*
D03*
Y190394D02*
D03*
Y192362D02*
D03*
Y194331D02*
D03*
Y196299D02*
D03*
X110748Y188425D02*
D03*
Y190394D02*
D03*
Y192362D02*
D03*
Y194331D02*
D03*
Y196299D02*
D03*
D24*
X92520Y377953D02*
D03*
X66929D02*
D03*
X80276Y377795D02*
D03*
X85433Y267795D02*
D03*
X121575Y267795D02*
D03*
X130748D02*
D03*
X103543Y267795D02*
D03*
X112598D02*
D03*
X76378Y267795D02*
D03*
X94488D02*
D03*
X139764Y267795D02*
D03*
X148819D02*
D03*
D25*
X96909Y398701D02*
D03*
D26*
X72697Y389646D02*
D03*
Y398701D02*
D03*
Y407756D02*
D03*
D27*
X128504Y381614D02*
D03*
X134803D02*
D03*
X128189Y387559D02*
D03*
X134488D02*
D03*
X128150Y393071D02*
D03*
X134449D02*
D03*
D28*
X91890Y225630D02*
D03*
X73189Y202599D02*
D03*
Y225630D02*
D03*
X91890Y202599D02*
D03*
D29*
X88937Y225630D02*
D03*
X86378D02*
D03*
X83819D02*
D03*
X81260D02*
D03*
X78701D02*
D03*
X76142D02*
D03*
X88937Y202599D02*
D03*
X86378D02*
D03*
X83819D02*
D03*
X81260D02*
D03*
X78701D02*
D03*
X76142D02*
D03*
M02*
