G04*
G04 #@! TF.GenerationSoftware,Altium Limited,Altium Designer,20.2.6 (244)*
G04*
G04 Layer_Color=16711935*
%FSLAX25Y25*%
%MOIN*%
G70*
G04*
G04 #@! TF.SameCoordinates,68AA4284-844A-482A-B3AB-C5F20AFF4627*
G04*
G04*
G04 #@! TF.FilePolarity,Negative*
G04*
G01*
G75*
%ADD43C,0.07284*%
%ADD44C,0.06890*%
%ADD45C,0.12795*%
%ADD46C,0.06102*%
%ADD47C,0.25000*%
D43*
X50748Y372559D02*
D03*
Y362559D02*
D03*
Y352559D02*
D03*
Y342559D02*
D03*
Y332559D02*
D03*
Y322559D02*
D03*
Y312559D02*
D03*
Y302559D02*
D03*
Y292559D02*
D03*
X41653Y271142D02*
D03*
Y261142D02*
D03*
Y251142D02*
D03*
Y241142D02*
D03*
Y231142D02*
D03*
X51653Y261142D02*
D03*
Y221142D02*
D03*
Y231142D02*
D03*
Y241142D02*
D03*
Y251142D02*
D03*
Y271142D02*
D03*
X41653Y221142D02*
D03*
X50748Y393819D02*
D03*
Y403819D02*
D03*
D44*
X53189Y56890D02*
D03*
Y43110D02*
D03*
X65000D02*
D03*
Y56890D02*
D03*
X53189Y94291D02*
D03*
Y80512D02*
D03*
X65000D02*
D03*
Y94291D02*
D03*
D45*
X22047Y50000D02*
D03*
X22047Y87402D02*
D03*
D46*
X38583Y114961D02*
D03*
Y122835D02*
D03*
Y130709D02*
D03*
Y138583D02*
D03*
Y146457D02*
D03*
Y154331D02*
D03*
Y162205D02*
D03*
Y170079D02*
D03*
Y177953D02*
D03*
Y185827D02*
D03*
Y193701D02*
D03*
Y201575D02*
D03*
X30709Y201575D02*
D03*
Y193701D02*
D03*
Y185827D02*
D03*
Y177953D02*
D03*
Y170079D02*
D03*
Y162205D02*
D03*
Y154331D02*
D03*
Y146457D02*
D03*
Y138583D02*
D03*
Y130709D02*
D03*
Y114961D02*
D03*
Y122835D02*
D03*
D47*
X17717Y431102D02*
D03*
X147638D02*
D03*
Y17717D02*
D03*
X17717D02*
D03*
M02*
