G04*
G04 #@! TF.GenerationSoftware,Altium Limited,Altium Designer,18.1.11 (251)*
G04*
G04 Layer_Color=65535*
%FSLAX25Y25*%
%MOIN*%
G70*
G01*
G75*
%ADD10C,0.00787*%
%ADD11C,0.00984*%
%ADD12C,0.02362*%
%ADD13C,0.01000*%
%ADD14C,0.00197*%
%ADD15C,0.00620*%
%ADD16C,0.00800*%
%ADD17C,0.01181*%
G36*
X149839Y75160D02*
X149960Y75148D01*
X150016Y75139D01*
X150067Y75130D01*
X150111Y75122D01*
X150149Y75117D01*
X150184Y75109D01*
X150205Y75104D01*
X150223Y75100D01*
X150227D01*
X153528Y74268D01*
X153610Y74243D01*
X153692Y74212D01*
X153765Y74178D01*
X153834Y74139D01*
X153903Y74096D01*
X153964Y74049D01*
X154020Y74005D01*
X154071Y73958D01*
X154119Y73915D01*
X154162Y73872D01*
X154197Y73837D01*
X154227Y73803D01*
X154248Y73773D01*
X154265Y73751D01*
X154274Y73738D01*
X154278Y73734D01*
X154330Y73652D01*
X154377Y73574D01*
X154416Y73492D01*
X154451Y73411D01*
X154481Y73333D01*
X154502Y73255D01*
X154524Y73178D01*
X154537Y73109D01*
X154550Y73044D01*
X154559Y72988D01*
X154567Y72932D01*
X154571Y72889D01*
X154576Y72855D01*
Y71850D01*
X150774Y72803D01*
X150710Y72820D01*
X150654Y72833D01*
X150550Y72842D01*
X150460Y72846D01*
X150386Y72837D01*
X150335Y72825D01*
X150292Y72812D01*
X150270Y72799D01*
X150261Y72794D01*
X150231Y72773D01*
X150205Y72747D01*
X150162Y72682D01*
X150132Y72613D01*
X150111Y72544D01*
X150098Y72475D01*
X150093Y72449D01*
Y72424D01*
X150089Y72402D01*
Y72372D01*
X150098Y72256D01*
X150115Y72152D01*
X150145Y72062D01*
X150175Y71988D01*
X150205Y71928D01*
X150236Y71885D01*
X150244Y71868D01*
X150253Y71855D01*
X150261Y71850D01*
Y71846D01*
X150330Y71777D01*
X150412Y71717D01*
X150498Y71665D01*
X150580Y71622D01*
X150658Y71592D01*
X150688Y71579D01*
X150718Y71570D01*
X150740Y71562D01*
X150757Y71557D01*
X150770Y71553D01*
X150774D01*
X154576Y70600D01*
Y68450D01*
X150779Y69402D01*
X150714Y69420D01*
X150658Y69432D01*
X150550Y69441D01*
X150460D01*
X150391Y69432D01*
X150335Y69420D01*
X150292Y69407D01*
X150270Y69394D01*
X150261Y69389D01*
X150231Y69368D01*
X150205Y69338D01*
X150162Y69277D01*
X150132Y69208D01*
X150111Y69139D01*
X150098Y69075D01*
X150093Y69023D01*
X150089Y69002D01*
Y68971D01*
X150098Y68864D01*
X150115Y68764D01*
X150145Y68674D01*
X150175Y68601D01*
X150205Y68545D01*
X150236Y68497D01*
X150244Y68484D01*
X150253Y68471D01*
X150261Y68467D01*
Y68463D01*
X150330Y68394D01*
X150412Y68334D01*
X150498Y68282D01*
X150580Y68243D01*
X150658Y68213D01*
X150688Y68200D01*
X150718Y68191D01*
X150740Y68183D01*
X150757Y68178D01*
X150770Y68174D01*
X150774D01*
X154576Y67213D01*
Y65066D01*
X148813Y66506D01*
Y68678D01*
X149516Y68510D01*
Y68536D01*
X149438Y68601D01*
X149365Y68665D01*
X149296Y68730D01*
X149231Y68799D01*
X149175Y68864D01*
X149124Y68928D01*
X149072Y68993D01*
X149029Y69053D01*
X148994Y69109D01*
X148960Y69161D01*
X148934Y69208D01*
X148908Y69247D01*
X148891Y69282D01*
X148878Y69303D01*
X148874Y69320D01*
X148869Y69325D01*
X148830Y69411D01*
X148796Y69502D01*
X148770Y69592D01*
X148744Y69683D01*
X148705Y69859D01*
X148693Y69945D01*
X148680Y70023D01*
X148671Y70096D01*
X148667Y70165D01*
X148658Y70226D01*
Y70277D01*
X148654Y70320D01*
Y70376D01*
X148658Y70501D01*
X148662Y70618D01*
X148671Y70717D01*
X148680Y70807D01*
X148688Y70842D01*
X148693Y70876D01*
X148697Y70907D01*
X148701Y70932D01*
X148705Y70950D01*
Y70963D01*
X148710Y70971D01*
Y70976D01*
X148731Y71066D01*
X148757Y71148D01*
X148783Y71221D01*
X148809Y71281D01*
X148830Y71333D01*
X148852Y71368D01*
X148865Y71389D01*
X148869Y71398D01*
X148917Y71458D01*
X148964Y71510D01*
X149012Y71557D01*
X149055Y71596D01*
X149093Y71626D01*
X149124Y71648D01*
X149145Y71661D01*
X149154Y71665D01*
X149218Y71700D01*
X149287Y71730D01*
X149352Y71756D01*
X149412Y71777D01*
X149464Y71794D01*
X149507Y71803D01*
X149524Y71807D01*
X149537Y71812D01*
X149542D01*
X149546D01*
X149455Y71885D01*
X149378Y71958D01*
X149305Y72027D01*
X149244Y72092D01*
X149197Y72148D01*
X149158Y72191D01*
X149145Y72208D01*
X149137Y72221D01*
X149128Y72225D01*
Y72230D01*
X149068Y72316D01*
X149012Y72402D01*
X148964Y72484D01*
X148925Y72557D01*
X148895Y72622D01*
X148882Y72648D01*
X148869Y72674D01*
X148861Y72691D01*
X148856Y72704D01*
X148852Y72712D01*
Y72717D01*
X148818Y72807D01*
X148787Y72898D01*
X148762Y72980D01*
X148740Y73057D01*
X148727Y73122D01*
X148719Y73148D01*
X148714Y73169D01*
X148710Y73186D01*
X148705Y73199D01*
Y73212D01*
X148688Y73307D01*
X148675Y73398D01*
X148667Y73484D01*
X148658Y73562D01*
Y73630D01*
X148654Y73656D01*
Y73725D01*
X148658Y73863D01*
X148667Y73988D01*
X148680Y74100D01*
X148684Y74152D01*
X148693Y74199D01*
X148701Y74243D01*
X148705Y74281D01*
X148714Y74316D01*
X148719Y74342D01*
X148723Y74363D01*
X148727Y74380D01*
X148731Y74389D01*
Y74393D01*
X148762Y74501D01*
X148800Y74600D01*
X148839Y74686D01*
X148878Y74760D01*
X148912Y74824D01*
X148943Y74867D01*
X148951Y74885D01*
X148960Y74898D01*
X148969Y74902D01*
Y74906D01*
X149042Y74975D01*
X149119Y75031D01*
X149201Y75074D01*
X149279Y75104D01*
X149352Y75130D01*
X149382Y75139D01*
X149408Y75143D01*
X149430Y75152D01*
X149447D01*
X149455Y75156D01*
X149460D01*
X149585Y75169D01*
X149714D01*
X149839Y75160D01*
D02*
G37*
G36*
X154584Y64006D02*
Y61864D01*
X153891Y62032D01*
Y62002D01*
X153968Y61942D01*
X154037Y61877D01*
X154102Y61808D01*
X154166Y61743D01*
X154222Y61679D01*
X154270Y61614D01*
X154317Y61550D01*
X154360Y61489D01*
X154395Y61433D01*
X154429Y61386D01*
X154455Y61338D01*
X154477Y61300D01*
X154494Y61265D01*
X154507Y61243D01*
X154511Y61226D01*
X154515Y61222D01*
X154550Y61136D01*
X154584Y61045D01*
X154636Y60869D01*
X154671Y60692D01*
X154683Y60610D01*
X154697Y60532D01*
X154705Y60459D01*
X154709Y60390D01*
X154718Y60334D01*
Y60282D01*
X154722Y60239D01*
Y60045D01*
X154714Y59920D01*
X154701Y59808D01*
X154697Y59757D01*
X154688Y59709D01*
X154683Y59666D01*
X154675Y59632D01*
X154666Y59597D01*
X154662Y59571D01*
X154658Y59550D01*
X154653Y59532D01*
X154649Y59524D01*
Y59519D01*
X154615Y59420D01*
X154576Y59325D01*
X154533Y59244D01*
X154494Y59175D01*
X154455Y59114D01*
X154425Y59071D01*
X154416Y59058D01*
X154408Y59045D01*
X154399Y59041D01*
Y59037D01*
X154334Y58964D01*
X154261Y58903D01*
X154184Y58856D01*
X154110Y58821D01*
X154041Y58795D01*
X154016Y58787D01*
X153990Y58778D01*
X153968Y58774D01*
X153951Y58770D01*
X153942Y58765D01*
X153938D01*
X153817Y58752D01*
X153688D01*
X153559Y58761D01*
X153438Y58774D01*
X153386Y58783D01*
X153334Y58791D01*
X153291Y58800D01*
X153248Y58804D01*
X153218Y58813D01*
X153197Y58817D01*
X153179Y58821D01*
X153175D01*
X148813Y59912D01*
Y62062D01*
X152623Y61110D01*
X152684Y61097D01*
X152744Y61084D01*
X152848Y61075D01*
X152938D01*
X153011Y61084D01*
X153067Y61097D01*
X153106Y61110D01*
X153132Y61123D01*
X153140Y61127D01*
X153171Y61149D01*
X153197Y61174D01*
X153240Y61235D01*
X153270Y61304D01*
X153291Y61369D01*
X153304Y61433D01*
X153309Y61485D01*
X153313Y61502D01*
Y61532D01*
X153304Y61644D01*
X153287Y61748D01*
X153257Y61834D01*
X153227Y61907D01*
X153197Y61968D01*
X153166Y62015D01*
X153158Y62028D01*
X153149Y62041D01*
X153140Y62045D01*
Y62050D01*
X153067Y62123D01*
X152985Y62183D01*
X152899Y62230D01*
X152817Y62274D01*
X152740Y62300D01*
X152709Y62312D01*
X152679Y62321D01*
X152658Y62330D01*
X152636Y62334D01*
X152628Y62338D01*
X152623D01*
X148813Y63299D01*
Y65450D01*
X154584Y64006D01*
D02*
G37*
G36*
Y57485D02*
Y55343D01*
X148813Y56783D01*
Y58938D01*
X154584Y57485D01*
D02*
G37*
G36*
X150106Y55666D02*
Y54770D01*
X152852Y54085D01*
X152934Y54067D01*
X153003D01*
X153063Y54072D01*
X153115Y54085D01*
X153154Y54102D01*
X153179Y54115D01*
X153197Y54128D01*
X153201Y54132D01*
X153235Y54179D01*
X153266Y54235D01*
X153283Y54300D01*
X153296Y54360D01*
X153300Y54417D01*
X153304Y54464D01*
Y54869D01*
X154584Y54546D01*
X154593Y54425D01*
X154602Y54313D01*
X154610Y54205D01*
X154615Y54110D01*
X154619Y54067D01*
Y53998D01*
X154623Y53968D01*
Y53917D01*
X154628Y53804D01*
X154632Y53697D01*
Y53598D01*
X154636Y53511D01*
Y53072D01*
X154632Y52994D01*
X154628Y52921D01*
X154623Y52852D01*
X154619Y52787D01*
X154610Y52731D01*
X154606Y52680D01*
X154602Y52636D01*
X154593Y52593D01*
X154589Y52563D01*
X154584Y52537D01*
Y52520D01*
X154580Y52507D01*
Y52503D01*
X154554Y52386D01*
X154524Y52287D01*
X154490Y52201D01*
X154459Y52128D01*
X154429Y52072D01*
X154408Y52033D01*
X154390Y52007D01*
X154386Y51999D01*
X154330Y51930D01*
X154261Y51878D01*
X154192Y51835D01*
X154119Y51805D01*
X154054Y51783D01*
X154002Y51770D01*
X153985Y51766D01*
X153968D01*
X153959Y51762D01*
X153955D01*
X153834Y51757D01*
X153705Y51762D01*
X153580Y51774D01*
X153455Y51796D01*
X153399Y51805D01*
X153347Y51813D01*
X153300Y51826D01*
X153261Y51835D01*
X153227Y51839D01*
X153205Y51848D01*
X153188Y51852D01*
X153184D01*
X147050Y53404D01*
Y55554D01*
X148813Y55093D01*
Y55990D01*
X150106Y55666D01*
D02*
G37*
G36*
X154584Y50468D02*
Y48322D01*
X146973Y50231D01*
Y52382D01*
X154584Y50468D01*
D02*
G37*
G36*
Y45387D02*
X153261Y45456D01*
Y43607D01*
X154576Y43025D01*
X154584Y40551D01*
X148486Y43823D01*
X148361Y43896D01*
X148249Y43973D01*
X148145Y44051D01*
X148055Y44120D01*
X148016Y44154D01*
X147982Y44180D01*
X147951Y44210D01*
X147925Y44232D01*
X147904Y44249D01*
X147891Y44262D01*
X147882Y44271D01*
X147878Y44275D01*
X147779Y44374D01*
X147688Y44473D01*
X147607Y44568D01*
X147538Y44659D01*
X147486Y44736D01*
X147460Y44766D01*
X147443Y44796D01*
X147430Y44818D01*
X147417Y44835D01*
X147408Y44844D01*
Y44848D01*
X147339Y44969D01*
X147275Y45090D01*
X147223Y45206D01*
X147176Y45309D01*
X147158Y45357D01*
X147141Y45400D01*
X147128Y45439D01*
X147115Y45473D01*
X147107Y45499D01*
X147098Y45516D01*
X147094Y45529D01*
Y45534D01*
X147059Y45671D01*
X147029Y45805D01*
X147012Y45934D01*
X146994Y46055D01*
X146990Y46107D01*
X146982Y46154D01*
Y46197D01*
X146977Y46232D01*
X146973Y46262D01*
Y47585D01*
X154584Y47870D01*
Y45387D01*
D02*
G37*
G36*
X140598Y99474D02*
X138018D01*
X140598Y98455D01*
Y97877D01*
X138018Y96859D01*
X140598D01*
Y96211D01*
X136896D01*
Y96936D01*
X139710Y98179D01*
X136896Y99430D01*
Y100103D01*
X140598D01*
Y99474D01*
D02*
G37*
G36*
X138916Y95564D02*
X138993Y95556D01*
X139080Y95547D01*
X139183Y95538D01*
X139287Y95512D01*
X139511Y95461D01*
X139744Y95374D01*
X139865Y95323D01*
X139969Y95262D01*
X140072Y95193D01*
X140167Y95107D01*
X140176Y95098D01*
X140184Y95090D01*
X140210Y95055D01*
X140236Y95021D01*
X140271Y94977D01*
X140314Y94917D01*
X140357Y94848D01*
X140400Y94762D01*
X140443Y94675D01*
X140486Y94572D01*
X140521Y94459D01*
X140564Y94339D01*
X140590Y94209D01*
X140616Y94063D01*
X140624Y93907D01*
X140633Y93743D01*
Y93657D01*
X140624Y93597D01*
X140616Y93519D01*
X140607Y93433D01*
X140590Y93338D01*
X140573Y93234D01*
X140521Y93018D01*
X140435Y92794D01*
X140383Y92682D01*
X140322Y92570D01*
X140245Y92475D01*
X140167Y92380D01*
X140158Y92371D01*
X140141Y92362D01*
X140115Y92336D01*
X140081Y92311D01*
X140029Y92268D01*
X139969Y92233D01*
X139900Y92190D01*
X139813Y92147D01*
X139718Y92095D01*
X139615Y92052D01*
X139503Y92009D01*
X139373Y91974D01*
X139235Y91940D01*
X139088Y91914D01*
X138933Y91888D01*
X138760Y91879D01*
X138752D01*
X138717D01*
X138674D01*
X138605Y91888D01*
X138527Y91896D01*
X138441Y91905D01*
X138338Y91914D01*
X138234Y91940D01*
X138001Y91991D01*
X137768Y92069D01*
X137656Y92121D01*
X137543Y92190D01*
X137449Y92259D01*
X137354Y92336D01*
X137345Y92345D01*
X137336Y92362D01*
X137311Y92388D01*
X137276Y92423D01*
X137241Y92475D01*
X137207Y92535D01*
X137164Y92604D01*
X137112Y92690D01*
X137069Y92777D01*
X137026Y92889D01*
X136991Y93001D01*
X136957Y93130D01*
X136922Y93269D01*
X136896Y93415D01*
X136888Y93571D01*
X136879Y93743D01*
Y93830D01*
X136888Y93890D01*
X136896Y93968D01*
X136905Y94054D01*
X136922Y94149D01*
X136939Y94252D01*
X136991Y94477D01*
X137077Y94701D01*
X137129Y94813D01*
X137198Y94917D01*
X137267Y95021D01*
X137354Y95107D01*
X137362Y95115D01*
X137380Y95124D01*
X137405Y95150D01*
X137440Y95176D01*
X137492Y95219D01*
X137552Y95253D01*
X137621Y95297D01*
X137707Y95340D01*
X137794Y95383D01*
X137897Y95426D01*
X138018Y95469D01*
X138148Y95504D01*
X138277Y95530D01*
X138432Y95556D01*
X138588Y95564D01*
X138760Y95573D01*
X138769D01*
X138804D01*
X138847D01*
X138916Y95564D01*
D02*
G37*
G36*
X137500Y90559D02*
X140598D01*
Y89868D01*
X137500D01*
Y88807D01*
X136896D01*
Y91620D01*
X137500D01*
Y90559D01*
D02*
G37*
G36*
X140598Y87728D02*
X137854Y85760D01*
X140598D01*
Y85096D01*
X136896D01*
Y85795D01*
X139606Y87745D01*
X136896D01*
Y88401D01*
X140598D01*
Y87728D01*
D02*
G37*
G36*
Y83914D02*
X139606Y83482D01*
Y82257D01*
X139002Y82498D01*
Y83240D01*
X137604Y82654D01*
X140598Y81445D01*
Y80738D01*
X136896Y82300D01*
Y83042D01*
X140598Y84656D01*
Y83914D01*
D02*
G37*
G36*
Y79599D02*
X139037D01*
Y77769D01*
X140598D01*
Y77079D01*
X136896D01*
Y77769D01*
X138432D01*
Y79599D01*
X136896D01*
Y80272D01*
X140598D01*
Y79599D01*
D02*
G37*
G36*
X138035Y76621D02*
X138079D01*
X138139Y76613D01*
X138268Y76578D01*
X138415Y76535D01*
X138570Y76466D01*
X138717Y76362D01*
X138786Y76302D01*
X138855Y76233D01*
X138873Y76216D01*
X138890Y76190D01*
X138907Y76164D01*
X138942Y76121D01*
X138968Y76069D01*
X139002Y76009D01*
X139045Y75940D01*
X139080Y75862D01*
X139114Y75776D01*
X139157Y75681D01*
X139192Y75577D01*
X139226Y75456D01*
X139261Y75335D01*
X139287Y75206D01*
X139313Y75059D01*
X138709Y74973D01*
Y74982D01*
X138700Y74990D01*
Y75016D01*
X138691Y75051D01*
X138674Y75128D01*
X138639Y75232D01*
X138605Y75344D01*
X138562Y75456D01*
X138501Y75568D01*
X138441Y75663D01*
X138432Y75672D01*
X138407Y75698D01*
X138363Y75741D01*
X138312Y75784D01*
X138243Y75827D01*
X138165Y75871D01*
X138070Y75896D01*
X137975Y75905D01*
X137966D01*
X137941D01*
X137897Y75896D01*
X137846Y75888D01*
X137733Y75862D01*
X137673Y75827D01*
X137630Y75793D01*
X137621Y75784D01*
X137613Y75776D01*
X137595Y75741D01*
X137569Y75706D01*
X137543Y75663D01*
X137526Y75603D01*
X137518Y75534D01*
X137509Y75448D01*
Y74507D01*
X140598D01*
Y73834D01*
X136896D01*
Y75586D01*
X136914Y75689D01*
X136931Y75810D01*
X136965Y75948D01*
X137009Y76095D01*
X137077Y76224D01*
X137164Y76345D01*
X137172Y76354D01*
X137216Y76388D01*
X137276Y76431D01*
X137354Y76492D01*
X137466Y76544D01*
X137604Y76587D01*
X137759Y76621D01*
X137941Y76630D01*
X137949D01*
X137966D01*
X137992D01*
X138035Y76621D01*
D02*
G37*
G36*
X140598Y71253D02*
X138018D01*
X140598Y70235D01*
Y69648D01*
X138018Y68621D01*
X140598D01*
Y67991D01*
X136896D01*
Y68716D01*
X139710Y69959D01*
X136896Y71184D01*
Y71883D01*
X140598D01*
Y71253D01*
D02*
G37*
G36*
Y66809D02*
X139606Y66378D01*
Y65143D01*
X139002Y65376D01*
Y66127D01*
X137604Y65549D01*
X140598Y64315D01*
Y63625D01*
X136896Y65195D01*
Y65929D01*
X140598Y67543D01*
Y66809D01*
D02*
G37*
G36*
Y60733D02*
X136896D01*
Y63271D01*
X137500D01*
Y61415D01*
X138415D01*
Y63176D01*
X139037D01*
Y61415D01*
X140020D01*
Y63305D01*
X140598D01*
Y60733D01*
D02*
G37*
G36*
X137500Y59275D02*
X140598D01*
Y58602D01*
X137500D01*
Y57540D01*
X136896D01*
Y60354D01*
X137500D01*
Y59275D01*
D02*
G37*
G36*
X138053Y54416D02*
X138173D01*
X138320D01*
X138476Y54408D01*
X138648Y54390D01*
X138829Y54373D01*
X139019Y54356D01*
X139218Y54321D01*
X139641Y54252D01*
X139848Y54201D01*
X140064Y54140D01*
X140072D01*
X140115Y54123D01*
X140176Y54106D01*
X140253Y54080D01*
X140357Y54045D01*
X140478Y53993D01*
X140607Y53942D01*
X140754Y53890D01*
X140909Y53821D01*
X141082Y53743D01*
X141436Y53562D01*
X141798Y53355D01*
X142169Y53113D01*
X142178Y53105D01*
X142212Y53079D01*
X142264Y53044D01*
X142324Y52992D01*
X142411Y52923D01*
X142506Y52846D01*
X142609Y52751D01*
X142730Y52647D01*
X142851Y52526D01*
X142989Y52406D01*
X143119Y52267D01*
X143265Y52112D01*
X143403Y51957D01*
X143541Y51793D01*
X143809Y51439D01*
X143817Y51430D01*
X143835Y51396D01*
X143869Y51344D01*
X143921Y51266D01*
X143973Y51180D01*
X144042Y51068D01*
X144111Y50947D01*
X144189Y50809D01*
X144266Y50662D01*
X144353Y50498D01*
X144430Y50326D01*
X144517Y50136D01*
X144672Y49747D01*
X144741Y49540D01*
X144801Y49333D01*
Y49325D01*
X144810Y49316D01*
Y49290D01*
X144819Y49256D01*
X144844Y49169D01*
X144870Y49049D01*
X144896Y48910D01*
X144931Y48755D01*
X144957Y48591D01*
X144983Y48419D01*
Y48401D01*
X144991Y48375D01*
Y48341D01*
X145000Y48246D01*
X145009Y48134D01*
X145026Y47987D01*
X145034Y47832D01*
X145043Y47659D01*
Y47305D01*
X145034Y47236D01*
Y47150D01*
X145026Y47064D01*
X145009Y46856D01*
X144991Y46623D01*
X144957Y46382D01*
X144913Y46123D01*
Y46114D01*
X144905Y46088D01*
X144896Y46054D01*
X144888Y46011D01*
X144879Y45942D01*
X144862Y45873D01*
X144836Y45795D01*
X144810Y45700D01*
X144758Y45502D01*
X144689Y45286D01*
X144603Y45053D01*
X144508Y44811D01*
X144232Y44932D01*
X144240Y44941D01*
X144249Y44984D01*
X144275Y45035D01*
X144301Y45122D01*
X144335Y45217D01*
X144378Y45329D01*
X144413Y45467D01*
X144456Y45614D01*
X144508Y45769D01*
X144551Y45942D01*
X144594Y46123D01*
X144629Y46313D01*
X144698Y46701D01*
X144724Y46908D01*
X144741Y47115D01*
Y47227D01*
X144750Y47305D01*
Y47409D01*
X144741Y47530D01*
Y47659D01*
X144732Y47806D01*
X144724Y47970D01*
X144706Y48142D01*
X144689Y48324D01*
X144663Y48505D01*
X144594Y48893D01*
X144499Y49290D01*
Y49299D01*
X144482Y49333D01*
X144465Y49394D01*
X144439Y49471D01*
X144413Y49566D01*
X144370Y49670D01*
X144327Y49799D01*
X144266Y49929D01*
X144206Y50075D01*
X144137Y50239D01*
X143982Y50567D01*
X143792Y50912D01*
X143567Y51266D01*
X143559Y51275D01*
X143541Y51310D01*
X143507Y51353D01*
X143455Y51422D01*
X143395Y51499D01*
X143317Y51594D01*
X143231Y51698D01*
X143136Y51810D01*
X143024Y51931D01*
X142903Y52060D01*
X142773Y52198D01*
X142635Y52328D01*
X142489Y52466D01*
X142324Y52604D01*
X141988Y52863D01*
X141979Y52872D01*
X141945Y52889D01*
X141893Y52932D01*
X141824Y52975D01*
X141738Y53027D01*
X141634Y53096D01*
X141513Y53165D01*
X141384Y53243D01*
X141237Y53320D01*
X141082Y53407D01*
X140909Y53493D01*
X140737Y53571D01*
X140357Y53726D01*
X139960Y53864D01*
X139951D01*
X139908Y53881D01*
X139856Y53890D01*
X139770Y53916D01*
X139675Y53933D01*
X139563Y53959D01*
X139434Y53985D01*
X139287Y54011D01*
X139131Y54037D01*
X138959Y54062D01*
X138778Y54080D01*
X138596Y54097D01*
X138208Y54123D01*
X138001D01*
X137802Y54114D01*
X137794D01*
X137751D01*
X137699Y54106D01*
X137613Y54097D01*
X137518Y54088D01*
X137405Y54080D01*
X137276Y54062D01*
X137129Y54037D01*
X136974Y54011D01*
X136801Y53976D01*
X136629Y53942D01*
X136448Y53899D01*
X136059Y53786D01*
X135671Y53648D01*
X135662Y53640D01*
X135628Y53631D01*
X135567Y53605D01*
X135490Y53571D01*
X135403Y53527D01*
X135291Y53476D01*
X135170Y53415D01*
X135032Y53346D01*
X134894Y53268D01*
X134739Y53174D01*
X134575Y53079D01*
X134411Y52975D01*
X134247Y52863D01*
X134083Y52733D01*
X133746Y52466D01*
X133548Y52699D01*
X133556Y52708D01*
X133591Y52733D01*
X133634Y52777D01*
X133703Y52828D01*
X133781Y52889D01*
X133876Y52966D01*
X133988Y53044D01*
X134117Y53139D01*
X134256Y53234D01*
X134402Y53329D01*
X134566Y53433D01*
X134730Y53527D01*
X134911Y53631D01*
X135101Y53726D01*
X135498Y53899D01*
X135507Y53907D01*
X135550Y53916D01*
X135602Y53942D01*
X135688Y53968D01*
X135783Y54002D01*
X135904Y54045D01*
X136033Y54088D01*
X136180Y54132D01*
X136344Y54175D01*
X136517Y54218D01*
X136706Y54261D01*
X136896Y54304D01*
X137311Y54373D01*
X137742Y54416D01*
X137759D01*
X137794D01*
X137854D01*
X137941Y54425D01*
X138053Y54416D01*
D02*
G37*
G36*
X130510Y53933D02*
X130536Y53907D01*
X130579Y53873D01*
X130640Y53821D01*
X130709Y53760D01*
X130795Y53683D01*
X130890Y53597D01*
X131002Y53501D01*
X131123Y53398D01*
X131244Y53286D01*
X131511Y53044D01*
X131805Y52794D01*
X132098Y52526D01*
X132107Y52518D01*
X132132Y52492D01*
X132176Y52457D01*
X132236Y52406D01*
X132305Y52337D01*
X132391Y52259D01*
X132495Y52172D01*
X132598Y52078D01*
X132719Y51965D01*
X132840Y51853D01*
X133116Y51612D01*
X133401Y51353D01*
X133703Y51085D01*
X133712Y51077D01*
X133738Y51051D01*
X133781Y51016D01*
X133841Y50964D01*
X133910Y50895D01*
X133997Y50826D01*
X134091Y50740D01*
X134204Y50645D01*
X134316Y50533D01*
X134445Y50421D01*
X134722Y50179D01*
X135015Y49920D01*
X135317Y49653D01*
X135326Y49644D01*
X135352Y49618D01*
X135395Y49584D01*
X135455Y49532D01*
X135524Y49463D01*
X135610Y49385D01*
X135705Y49299D01*
X135818Y49204D01*
X135930Y49092D01*
X136059Y48979D01*
X136335Y48738D01*
X136629Y48470D01*
X136931Y48203D01*
Y48211D01*
X136939Y48237D01*
X136957Y48289D01*
X136965Y48349D01*
X136991Y48427D01*
X137017Y48513D01*
X137043Y48617D01*
X137069Y48729D01*
X137103Y48859D01*
X137138Y48988D01*
X137216Y49273D01*
X137293Y49575D01*
X137380Y49894D01*
Y49903D01*
X137388Y49929D01*
X137405Y49981D01*
X137414Y50041D01*
X137440Y50119D01*
X137466Y50205D01*
X137492Y50308D01*
X137518Y50429D01*
X137552Y50550D01*
X137587Y50679D01*
X137664Y50973D01*
X137751Y51284D01*
X137837Y51603D01*
X137846Y51586D01*
X137880Y51543D01*
X137941Y51465D01*
X138010Y51370D01*
X138104Y51240D01*
X138217Y51094D01*
X138346Y50930D01*
X138484Y50740D01*
X138631Y50541D01*
X138795Y50326D01*
X138968Y50093D01*
X139140Y49860D01*
X139520Y49359D01*
X139908Y48850D01*
X139917Y48833D01*
X139951Y48790D01*
X140012Y48712D01*
X140089Y48617D01*
X140176Y48496D01*
X140288Y48349D01*
X140417Y48177D01*
X140555Y47996D01*
X140702Y47797D01*
X140866Y47581D01*
X141039Y47357D01*
X141211Y47124D01*
X141591Y46623D01*
X141971Y46114D01*
X141979Y46097D01*
X142014Y46054D01*
X142074Y45976D01*
X142143Y45881D01*
X142238Y45760D01*
X142350Y45614D01*
X142471Y45441D01*
X142609Y45260D01*
X142765Y45061D01*
X142920Y44846D01*
X143093Y44621D01*
X143265Y44388D01*
X143636Y43888D01*
X144016Y43379D01*
X144025Y43361D01*
X144059Y43318D01*
X144120Y43240D01*
X144189Y43145D01*
X144283Y43025D01*
X144396Y42878D01*
X144517Y42714D01*
X144655Y42524D01*
X144810Y42326D01*
X144965Y42119D01*
X145138Y41894D01*
X145319Y41653D01*
X145690Y41169D01*
X146070Y40660D01*
X146061Y40652D01*
X146027Y40634D01*
X146018D01*
X146010D01*
X145992Y40626D01*
X145984Y40634D01*
X145958Y40660D01*
X145915Y40695D01*
X145854Y40755D01*
X145785Y40815D01*
X145699Y40893D01*
X145604Y40979D01*
X145500Y41083D01*
X145388Y41186D01*
X145267Y41299D01*
X145000Y41549D01*
X144724Y41816D01*
X144430Y42093D01*
X144422Y42101D01*
X144396Y42127D01*
X144353Y42162D01*
X144292Y42213D01*
X144223Y42283D01*
X144137Y42360D01*
X144042Y42447D01*
X143938Y42541D01*
X143826Y42645D01*
X143705Y42766D01*
X143438Y43007D01*
X143153Y43266D01*
X142860Y43543D01*
X142851Y43551D01*
X142825Y43577D01*
X142782Y43620D01*
X142721Y43672D01*
X142652Y43741D01*
X142566Y43819D01*
X142471Y43905D01*
X142368Y44008D01*
X142255Y44112D01*
X142126Y44233D01*
X141858Y44483D01*
X141574Y44751D01*
X141280Y45027D01*
X141272Y45035D01*
X141246Y45061D01*
X141203Y45096D01*
X141142Y45156D01*
X141073Y45217D01*
X140987Y45294D01*
X140892Y45389D01*
X140788Y45484D01*
X140668Y45597D01*
X140547Y45709D01*
X140279Y45959D01*
X139994Y46226D01*
X139692Y46503D01*
Y46494D01*
X139684Y46468D01*
X139666Y46434D01*
X139649Y46382D01*
X139632Y46321D01*
X139606Y46244D01*
X139572Y46157D01*
X139546Y46062D01*
X139468Y45847D01*
X139390Y45614D01*
X139304Y45364D01*
X139218Y45105D01*
Y45096D01*
X139209Y45070D01*
X139192Y45035D01*
X139175Y44984D01*
X139157Y44923D01*
X139131Y44846D01*
X139105Y44768D01*
X139071Y44673D01*
X139002Y44457D01*
X138916Y44224D01*
X138829Y43974D01*
X138743Y43707D01*
X138734Y43724D01*
X138700Y43767D01*
X138639Y43836D01*
X138562Y43931D01*
X138467Y44043D01*
X138355Y44181D01*
X138234Y44337D01*
X138087Y44509D01*
X137941Y44699D01*
X137777Y44897D01*
X137604Y45113D01*
X137423Y45329D01*
X137043Y45795D01*
X136655Y46270D01*
X136646Y46287D01*
X136603Y46330D01*
X136551Y46399D01*
X136473Y46485D01*
X136379Y46606D01*
X136266Y46744D01*
X136137Y46900D01*
X135999Y47072D01*
X135843Y47253D01*
X135679Y47452D01*
X135507Y47668D01*
X135326Y47883D01*
X134955Y48349D01*
X134566Y48824D01*
X134557Y48841D01*
X134523Y48884D01*
X134463Y48954D01*
X134385Y49040D01*
X134290Y49161D01*
X134186Y49299D01*
X134057Y49454D01*
X133919Y49618D01*
X133764Y49808D01*
X133600Y50006D01*
X133427Y50213D01*
X133254Y50438D01*
X132875Y50895D01*
X132486Y51370D01*
X132478Y51387D01*
X132443Y51430D01*
X132383Y51491D01*
X132305Y51586D01*
X132219Y51698D01*
X132107Y51836D01*
X131986Y51991D01*
X131839Y52164D01*
X131692Y52345D01*
X131528Y52544D01*
X131364Y52751D01*
X131183Y52975D01*
X130812Y53433D01*
X130424Y53907D01*
X130432Y53916D01*
X130467Y53933D01*
X130475Y53942D01*
X130501D01*
X130510Y53933D01*
D02*
G37*
G36*
X131934Y49886D02*
X131925Y49877D01*
X131917Y49834D01*
X131899Y49782D01*
X131874Y49704D01*
X131839Y49609D01*
X131805Y49489D01*
X131770Y49359D01*
X131727Y49221D01*
X131692Y49057D01*
X131649Y48893D01*
X131615Y48712D01*
X131580Y48531D01*
X131528Y48134D01*
X131511Y47935D01*
X131502Y47728D01*
Y47331D01*
X131511Y47202D01*
X131520Y47055D01*
X131528Y46900D01*
X131546Y46736D01*
X131572Y46554D01*
X131597Y46373D01*
X131667Y45993D01*
X131770Y45605D01*
Y45597D01*
X131787Y45562D01*
X131805Y45502D01*
X131831Y45432D01*
X131856Y45338D01*
X131899Y45234D01*
X131943Y45113D01*
X132003Y44975D01*
X132063Y44837D01*
X132132Y44682D01*
X132288Y44354D01*
X132478Y44017D01*
X132702Y43672D01*
X132711Y43663D01*
X132728Y43629D01*
X132763Y43586D01*
X132814Y43525D01*
X132875Y43448D01*
X132952Y43353D01*
X133039Y43258D01*
X133134Y43145D01*
X133237Y43025D01*
X133358Y42904D01*
X133487Y42775D01*
X133625Y42645D01*
X133772Y42507D01*
X133928Y42377D01*
X134256Y42119D01*
X134264Y42110D01*
X134299Y42093D01*
X134342Y42058D01*
X134411Y42015D01*
X134497Y41955D01*
X134601Y41894D01*
X134713Y41825D01*
X134842Y41747D01*
X134980Y41670D01*
X135136Y41592D01*
X135300Y41506D01*
X135464Y41428D01*
X135835Y41273D01*
X136223Y41135D01*
X136232D01*
X136266Y41118D01*
X136327Y41109D01*
X136404Y41083D01*
X136499Y41066D01*
X136611Y41040D01*
X136741Y41014D01*
X136888Y40988D01*
X137043Y40953D01*
X137207Y40928D01*
X137388Y40910D01*
X137569Y40885D01*
X137958Y40859D01*
X138355D01*
X138363D01*
X138398D01*
X138458Y40867D01*
X138536Y40876D01*
X138631Y40885D01*
X138743Y40893D01*
X138873Y40910D01*
X139011Y40928D01*
X139166Y40953D01*
X139330Y40979D01*
X139503Y41014D01*
X139684Y41057D01*
X140064Y41161D01*
X140452Y41290D01*
X140461Y41299D01*
X140495Y41307D01*
X140555Y41333D01*
X140624Y41359D01*
X140719Y41402D01*
X140823Y41445D01*
X140944Y41506D01*
X141073Y41575D01*
X141220Y41644D01*
X141367Y41730D01*
X141686Y41920D01*
X142023Y42136D01*
X142350Y42395D01*
X142540Y42153D01*
X142558D01*
X142549Y42145D01*
X142514Y42119D01*
X142463Y42084D01*
X142394Y42032D01*
X142307Y41963D01*
X142212Y41894D01*
X142092Y41808D01*
X141962Y41722D01*
X141815Y41635D01*
X141660Y41540D01*
X141496Y41437D01*
X141323Y41342D01*
X140952Y41161D01*
X140555Y40997D01*
X140547D01*
X140504Y40979D01*
X140452Y40962D01*
X140366Y40936D01*
X140271Y40902D01*
X140158Y40867D01*
X140020Y40833D01*
X139874Y40790D01*
X139718Y40755D01*
X139546Y40712D01*
X139365Y40677D01*
X139175Y40643D01*
X138769Y40591D01*
X138355Y40556D01*
X138338D01*
X138303D01*
X138243D01*
X138165D01*
X138061D01*
X137941Y40565D01*
X137802Y40574D01*
X137656Y40582D01*
X137492Y40591D01*
X137319Y40608D01*
X137138Y40634D01*
X136939Y40660D01*
X136542Y40738D01*
X136128Y40841D01*
X136120D01*
X136076Y40859D01*
X136025Y40876D01*
X135947Y40902D01*
X135843Y40936D01*
X135731Y40979D01*
X135602Y41031D01*
X135464Y41092D01*
X135308Y41161D01*
X135144Y41238D01*
X134799Y41411D01*
X134437Y41618D01*
X134066Y41860D01*
X134057Y41868D01*
X134022Y41894D01*
X133971Y41929D01*
X133902Y41980D01*
X133824Y42050D01*
X133729Y42127D01*
X133617Y42222D01*
X133505Y42326D01*
X133375Y42438D01*
X133246Y42567D01*
X133116Y42697D01*
X132978Y42843D01*
X132711Y43154D01*
X132452Y43499D01*
X132443Y43508D01*
X132426Y43543D01*
X132391Y43594D01*
X132348Y43663D01*
X132288Y43750D01*
X132227Y43853D01*
X132158Y43974D01*
X132081Y44104D01*
X132003Y44250D01*
X131925Y44405D01*
X131848Y44570D01*
X131761Y44742D01*
X131606Y45113D01*
X131477Y45510D01*
Y45519D01*
X131459Y45562D01*
X131442Y45614D01*
X131425Y45700D01*
X131399Y45795D01*
X131373Y45916D01*
X131347Y46045D01*
X131313Y46192D01*
X131287Y46356D01*
X131261Y46529D01*
X131235Y46718D01*
X131209Y46908D01*
X131183Y47314D01*
X131175Y47745D01*
Y47797D01*
X131183Y47857D01*
X131192Y47944D01*
X131201Y48047D01*
X131218Y48168D01*
X131235Y48298D01*
X131252Y48453D01*
X131278Y48617D01*
X131313Y48798D01*
X131356Y48979D01*
X131399Y49169D01*
X131511Y49575D01*
X131580Y49782D01*
X131658Y49989D01*
X131934Y49886D01*
D02*
G37*
%LPC*%
G36*
X148632Y45719D02*
X151800Y44254D01*
Y45542D01*
X148632Y45719D01*
D02*
G37*
G36*
X138743Y94865D02*
X138734D01*
X138717D01*
X138683D01*
X138639D01*
X138588Y94857D01*
X138527Y94848D01*
X138389Y94831D01*
X138234Y94796D01*
X138079Y94744D01*
X137923Y94675D01*
X137794Y94580D01*
X137777Y94563D01*
X137742Y94529D01*
X137690Y94459D01*
X137630Y94373D01*
X137569Y94252D01*
X137518Y94106D01*
X137483Y93942D01*
X137466Y93743D01*
Y93691D01*
X137475Y93648D01*
X137483Y93545D01*
X137509Y93415D01*
X137543Y93269D01*
X137604Y93130D01*
X137682Y92992D01*
X137794Y92872D01*
X137811Y92863D01*
X137854Y92828D01*
X137932Y92785D01*
X138035Y92734D01*
X138165Y92673D01*
X138329Y92630D01*
X138519Y92595D01*
X138743Y92587D01*
X138752D01*
X138769D01*
X138804D01*
X138847Y92595D01*
X138898D01*
X138968Y92604D01*
X139105Y92621D01*
X139261Y92656D01*
X139425Y92708D01*
X139580Y92777D01*
X139710Y92872D01*
X139727Y92889D01*
X139761Y92923D01*
X139813Y92992D01*
X139865Y93087D01*
X139925Y93208D01*
X139977Y93363D01*
X140012Y93536D01*
X140029Y93743D01*
Y93795D01*
X140020Y93838D01*
X140012Y93933D01*
X139986Y94054D01*
X139951Y94192D01*
X139891Y94330D01*
X139813Y94459D01*
X139710Y94580D01*
X139692Y94589D01*
X139649Y94624D01*
X139572Y94667D01*
X139468Y94727D01*
X139330Y94779D01*
X139166Y94822D01*
X138968Y94857D01*
X138743Y94865D01*
D02*
G37*
%LPD*%
D10*
X105547Y348232D02*
G03*
X105547Y348232I-315J0D01*
G01*
X113494Y346378D02*
G03*
X114774Y346378I640J0D01*
G01*
X108563D02*
X113494D01*
X114774D02*
X119705D01*
Y315669D02*
Y346378D01*
X108563Y315669D02*
X119705D01*
X108563D02*
Y346378D01*
X104526Y417814D02*
X130904D01*
X104526Y403247D02*
X130904D01*
Y417814D01*
X104526Y403247D02*
Y417814D01*
X107150Y191220D02*
Y217992D01*
X65811Y191220D02*
Y217992D01*
X107150D01*
X65811Y191220D02*
X107150D01*
X150732Y191181D02*
Y217953D01*
X109394Y191181D02*
Y217953D01*
X150732D01*
X109394Y191181D02*
X150732D01*
X112095Y160895D02*
Y173296D01*
X99891Y160895D02*
Y173099D01*
D11*
X131396Y422637D02*
G03*
X131396Y422637I-492J0D01*
G01*
X66126Y185906D02*
G03*
X66126Y185906I-492J0D01*
G01*
X109709Y185866D02*
G03*
X109709Y185866I-492J0D01*
G01*
X112587Y175068D02*
G03*
X112587Y175068I-492J0D01*
G01*
D12*
X70929Y195158D02*
G03*
X70929Y195158I-1181J0D01*
G01*
X114512Y195118D02*
G03*
X114512Y195118I-1181J0D01*
G01*
D13*
X98000Y393750D02*
Y446900D01*
X67900Y393750D02*
Y446900D01*
X2047Y67716D02*
X66220D01*
Y32283D02*
X79331D01*
X66220Y67716D02*
X79213D01*
X66181Y105118D02*
X79173D01*
X66181Y69685D02*
X79291D01*
X2047Y32283D02*
X66220D01*
X2008Y69685D02*
X66181D01*
X2047Y105118D02*
X66181D01*
X2008Y107087D02*
X39685D01*
X2008Y209449D02*
X39646D01*
X2047Y382598D02*
X53504D01*
X2008Y282638D02*
X19370D01*
X25709Y282677D02*
X53504D01*
X2047Y280669D02*
X52874D01*
X2008Y211457D02*
X52874D01*
D14*
X154889Y395126D02*
Y398079D01*
X154928Y401114D02*
Y404067D01*
D15*
X87689Y142080D02*
X87527Y142403D01*
X87204Y142727D01*
X86880Y142889D01*
X86233D01*
X85909Y142727D01*
X85585Y142403D01*
X85423Y142080D01*
X85261Y141594D01*
Y140785D01*
X85423Y140299D01*
X85585Y139975D01*
X85909Y139652D01*
X86233Y139490D01*
X86880D01*
X87204Y139652D01*
X87527Y139975D01*
X87689Y140299D01*
Y140785D01*
X86880D02*
X87689D01*
X88466Y142889D02*
Y139490D01*
Y142889D02*
X90733Y139490D01*
Y142889D02*
Y139490D01*
X91671Y142889D02*
Y139490D01*
Y142889D02*
X92804D01*
X93290Y142727D01*
X93614Y142403D01*
X93776Y142080D01*
X93937Y141594D01*
Y140785D01*
X93776Y140299D01*
X93614Y139975D01*
X93290Y139652D01*
X92804Y139490D01*
X91671D01*
X77539Y371080D02*
X77377Y371403D01*
X77054Y371727D01*
X76730Y371889D01*
X76082D01*
X75759Y371727D01*
X75435Y371403D01*
X75273Y371080D01*
X75111Y370594D01*
Y369785D01*
X75273Y369299D01*
X75435Y368975D01*
X75759Y368652D01*
X76082Y368490D01*
X76730D01*
X77054Y368652D01*
X77377Y368975D01*
X77539Y369299D01*
Y369785D01*
X76730D02*
X77539D01*
X78316Y371889D02*
Y368490D01*
Y371889D02*
X80582Y368490D01*
Y371889D02*
Y368490D01*
X81521Y371889D02*
Y368490D01*
Y371889D02*
X82654D01*
X83140Y371727D01*
X83464Y371403D01*
X83626Y371080D01*
X83788Y370594D01*
Y369785D01*
X83626Y369299D01*
X83464Y368975D01*
X83140Y368652D01*
X82654Y368490D01*
X81521D01*
X159431Y390794D02*
Y392574D01*
X160726Y391603D01*
Y392089D01*
X160888Y392412D01*
X161049Y392574D01*
X161535Y392736D01*
X161859D01*
X162344Y392574D01*
X162668Y392251D01*
X162830Y391765D01*
Y391279D01*
X162668Y390794D01*
X162506Y390632D01*
X162182Y390470D01*
X159431Y393497D02*
X162830Y394792D01*
X159431Y396087D02*
X162830Y394792D01*
X159431Y396848D02*
Y398628D01*
X160726Y397657D01*
Y398143D01*
X160888Y398466D01*
X161049Y398628D01*
X161535Y398790D01*
X161859D01*
X162344Y398628D01*
X162668Y398305D01*
X162830Y397819D01*
Y397333D01*
X162668Y396848D01*
X162506Y396686D01*
X162182Y396524D01*
X159181Y405262D02*
Y403644D01*
X160638Y403482D01*
X160476Y403644D01*
X160314Y404129D01*
Y404615D01*
X160476Y405101D01*
X160799Y405424D01*
X161285Y405586D01*
X161609D01*
X162094Y405424D01*
X162418Y405101D01*
X162580Y404615D01*
Y404129D01*
X162418Y403644D01*
X162256Y403482D01*
X161933Y403320D01*
X159181Y406347D02*
X162580Y407642D01*
X159181Y408937D02*
X162580Y407642D01*
X74498Y243248D02*
X77897D01*
X74498Y242115D02*
Y244381D01*
Y246890D02*
Y244786D01*
X77897D01*
Y246890D01*
X76116Y244786D02*
Y246081D01*
X74498Y247457D02*
X77897D01*
X74498D02*
X77897Y248752D01*
X74498Y250047D02*
X77897Y248752D01*
X74498Y250047D02*
X77897D01*
X76278Y251018D02*
Y252475D01*
X76116Y252961D01*
X75955Y253122D01*
X75631Y253284D01*
X75145D01*
X74821Y253122D01*
X74660Y252961D01*
X74498Y252475D01*
Y251018D01*
X77897D01*
X79030Y254045D02*
Y256635D01*
X74983Y259338D02*
X74660Y259015D01*
X74498Y258529D01*
Y257881D01*
X74660Y257396D01*
X74983Y257072D01*
X75307D01*
X75631Y257234D01*
X75793Y257396D01*
X75955Y257720D01*
X76278Y258691D01*
X76440Y259015D01*
X76602Y259176D01*
X76926Y259338D01*
X77411D01*
X77735Y259015D01*
X77897Y258529D01*
Y257881D01*
X77735Y257396D01*
X77411Y257072D01*
X74498Y261070D02*
X74660Y260585D01*
X75145Y260261D01*
X75955Y260099D01*
X76440D01*
X77249Y260261D01*
X77735Y260585D01*
X77897Y261070D01*
Y261394D01*
X77735Y261880D01*
X77249Y262203D01*
X76440Y262365D01*
X75955D01*
X75145Y262203D01*
X74660Y261880D01*
X74498Y261394D01*
Y261070D01*
X83398Y244705D02*
X86797D01*
X83398Y243572D02*
Y245838D01*
Y248347D02*
Y246243D01*
X86797D01*
Y248347D01*
X85016Y246243D02*
Y247538D01*
X83398Y248914D02*
X86797D01*
X83398D02*
X86797Y250209D01*
X83398Y251504D02*
X86797Y250209D01*
X83398Y251504D02*
X86797D01*
X85178Y252475D02*
Y253932D01*
X85016Y254417D01*
X84855Y254579D01*
X84531Y254741D01*
X84045D01*
X83721Y254579D01*
X83560Y254417D01*
X83398Y253932D01*
Y252475D01*
X86797D01*
X87930Y255502D02*
Y258092D01*
X83883Y260795D02*
X83560Y260471D01*
X83398Y259986D01*
Y259338D01*
X83560Y258853D01*
X83883Y258529D01*
X84207D01*
X84531Y258691D01*
X84693Y258853D01*
X84855Y259176D01*
X85178Y260148D01*
X85340Y260471D01*
X85502Y260633D01*
X85826Y260795D01*
X86311D01*
X86635Y260471D01*
X86797Y259986D01*
Y259338D01*
X86635Y258853D01*
X86311Y258529D01*
X84045Y261556D02*
X83883Y261880D01*
X83398Y262365D01*
X86797D01*
X93098Y243248D02*
X96497D01*
X93098Y242115D02*
Y244381D01*
Y246890D02*
Y244786D01*
X96497D01*
Y246890D01*
X94716Y244786D02*
Y246081D01*
X93098Y247457D02*
X96497D01*
X93098D02*
X96497Y248752D01*
X93098Y250047D02*
X96497Y248752D01*
X93098Y250047D02*
X96497D01*
X94878Y251018D02*
Y252475D01*
X94716Y252961D01*
X94555Y253122D01*
X94231Y253284D01*
X93745D01*
X93421Y253122D01*
X93260Y252961D01*
X93098Y252475D01*
Y251018D01*
X96497D01*
X97630Y254045D02*
Y256635D01*
X93583Y259338D02*
X93260Y259015D01*
X93098Y258529D01*
Y257881D01*
X93260Y257396D01*
X93583Y257072D01*
X93907D01*
X94231Y257234D01*
X94393Y257396D01*
X94555Y257720D01*
X94878Y258691D01*
X95040Y259015D01*
X95202Y259176D01*
X95526Y259338D01*
X96011D01*
X96335Y259015D01*
X96497Y258529D01*
Y257881D01*
X96335Y257396D01*
X96011Y257072D01*
X93907Y260261D02*
X93745D01*
X93421Y260423D01*
X93260Y260585D01*
X93098Y260908D01*
Y261556D01*
X93260Y261880D01*
X93421Y262041D01*
X93745Y262203D01*
X94069D01*
X94393Y262041D01*
X94878Y261718D01*
X96497Y260099D01*
Y262365D01*
X101433Y241743D02*
X101110Y241419D01*
X100948Y240934D01*
Y240286D01*
X101110Y239801D01*
X101433Y239477D01*
X101757D01*
X102081Y239639D01*
X102243Y239801D01*
X102404Y240124D01*
X102728Y241095D01*
X102890Y241419D01*
X103052Y241581D01*
X103376Y241743D01*
X103861D01*
X104185Y241419D01*
X104347Y240934D01*
Y240286D01*
X104185Y239801D01*
X103861Y239477D01*
X100948Y242504D02*
X104347D01*
X100948Y244770D02*
X104347D01*
X102566Y242504D02*
Y244770D01*
X100948Y246680D02*
X101110Y246356D01*
X101433Y246033D01*
X101757Y245871D01*
X102243Y245709D01*
X103052D01*
X103538Y245871D01*
X103861Y246033D01*
X104185Y246356D01*
X104347Y246680D01*
Y247327D01*
X104185Y247651D01*
X103861Y247975D01*
X103538Y248137D01*
X103052Y248299D01*
X102243D01*
X101757Y248137D01*
X101433Y247975D01*
X101110Y247651D01*
X100948Y247327D01*
Y246680D01*
X101757Y251520D02*
X101433Y251358D01*
X101110Y251034D01*
X100948Y250711D01*
Y250063D01*
X101110Y249739D01*
X101433Y249416D01*
X101757Y249254D01*
X102243Y249092D01*
X103052D01*
X103538Y249254D01*
X103861Y249416D01*
X104185Y249739D01*
X104347Y250063D01*
Y250711D01*
X104185Y251034D01*
X103861Y251358D01*
X103538Y251520D01*
X100948Y252475D02*
X104347D01*
X100948Y254741D02*
X103214Y252475D01*
X102404Y253284D02*
X104347Y254741D01*
X105480Y255502D02*
Y258092D01*
X101433Y260795D02*
X101110Y260471D01*
X100948Y259986D01*
Y259338D01*
X101110Y258853D01*
X101433Y258529D01*
X101757D01*
X102081Y258691D01*
X102243Y258853D01*
X102404Y259176D01*
X102728Y260148D01*
X102890Y260471D01*
X103052Y260633D01*
X103376Y260795D01*
X103861D01*
X104185Y260471D01*
X104347Y259986D01*
Y259338D01*
X104185Y258853D01*
X103861Y258529D01*
X101595Y261556D02*
X101433Y261880D01*
X100948Y262365D01*
X104347D01*
X120466Y256279D02*
X120143Y255955D01*
X119981Y255470D01*
Y254822D01*
X120143Y254337D01*
X120466Y254013D01*
X120790D01*
X121114Y254175D01*
X121276Y254337D01*
X121438Y254660D01*
X121761Y255631D01*
X121923Y255955D01*
X122085Y256117D01*
X122409Y256279D01*
X122894D01*
X123218Y255955D01*
X123380Y255470D01*
Y254822D01*
X123218Y254337D01*
X122894Y254013D01*
X120790Y259468D02*
X120466Y259306D01*
X120143Y258982D01*
X119981Y258658D01*
Y258011D01*
X120143Y257687D01*
X120466Y257364D01*
X120790Y257202D01*
X121276Y257040D01*
X122085D01*
X122571Y257202D01*
X122894Y257364D01*
X123218Y257687D01*
X123380Y258011D01*
Y258658D01*
X123218Y258982D01*
X122894Y259306D01*
X122571Y259468D01*
X119981Y260423D02*
X123380D01*
Y262365D01*
X113383Y240286D02*
X113059Y239962D01*
X112898Y239477D01*
Y238829D01*
X113059Y238344D01*
X113383Y238020D01*
X113707D01*
X114031Y238182D01*
X114193Y238344D01*
X114355Y238667D01*
X114678Y239639D01*
X114840Y239962D01*
X115002Y240124D01*
X115326Y240286D01*
X115811D01*
X116135Y239962D01*
X116297Y239477D01*
Y238829D01*
X116135Y238344D01*
X115811Y238020D01*
X112898Y241047D02*
X116297D01*
X112898Y243313D02*
X116297D01*
X114516Y241047D02*
Y243313D01*
X112898Y245223D02*
X113059Y244900D01*
X113383Y244576D01*
X113707Y244414D01*
X114193Y244252D01*
X115002D01*
X115488Y244414D01*
X115811Y244576D01*
X116135Y244900D01*
X116297Y245223D01*
Y245871D01*
X116135Y246194D01*
X115811Y246518D01*
X115488Y246680D01*
X115002Y246842D01*
X114193D01*
X113707Y246680D01*
X113383Y246518D01*
X113059Y246194D01*
X112898Y245871D01*
Y245223D01*
X113707Y250063D02*
X113383Y249901D01*
X113059Y249577D01*
X112898Y249254D01*
Y248606D01*
X113059Y248283D01*
X113383Y247959D01*
X113707Y247797D01*
X114193Y247635D01*
X115002D01*
X115488Y247797D01*
X115811Y247959D01*
X116135Y248283D01*
X116297Y248606D01*
Y249254D01*
X116135Y249577D01*
X115811Y249901D01*
X115488Y250063D01*
X112898Y251018D02*
X116297D01*
X112898Y253284D02*
X115164Y251018D01*
X114355Y251828D02*
X116297Y253284D01*
X117430Y254045D02*
Y256635D01*
X113383Y259338D02*
X113059Y259015D01*
X112898Y258529D01*
Y257881D01*
X113059Y257396D01*
X113383Y257072D01*
X113707D01*
X114031Y257234D01*
X114193Y257396D01*
X114355Y257720D01*
X114678Y258691D01*
X114840Y259015D01*
X115002Y259176D01*
X115326Y259338D01*
X115811D01*
X116135Y259015D01*
X116297Y258529D01*
Y257881D01*
X116135Y257396D01*
X115811Y257072D01*
X112898Y261070D02*
X113059Y260585D01*
X113545Y260261D01*
X114355Y260099D01*
X114840D01*
X115649Y260261D01*
X116135Y260585D01*
X116297Y261070D01*
Y261394D01*
X116135Y261880D01*
X115649Y262203D01*
X114840Y262365D01*
X114355D01*
X113545Y262203D01*
X113059Y261880D01*
X112898Y261394D01*
Y261070D01*
X147631Y258561D02*
X151030D01*
X147631Y257428D02*
Y259694D01*
Y260099D02*
X151030Y262365D01*
X147631D02*
X151030Y260099D01*
X138131Y257072D02*
X141530D01*
X138131D02*
Y258529D01*
X138293Y259015D01*
X138454Y259176D01*
X138778Y259338D01*
X139102D01*
X139426Y259176D01*
X139588Y259015D01*
X139749Y258529D01*
Y257072D01*
Y258205D02*
X141530Y259338D01*
X138131Y260099D02*
X141530Y262365D01*
X138131D02*
X141530Y260099D01*
X129966Y255988D02*
X129643Y255664D01*
X129481Y255178D01*
Y254531D01*
X129643Y254045D01*
X129966Y253721D01*
X130290D01*
X130614Y253883D01*
X130776Y254045D01*
X130938Y254369D01*
X131261Y255340D01*
X131423Y255664D01*
X131585Y255826D01*
X131909Y255988D01*
X132394D01*
X132718Y255664D01*
X132880Y255178D01*
Y254531D01*
X132718Y254045D01*
X132394Y253721D01*
X129481Y256748D02*
X132880D01*
X129481D02*
Y257881D01*
X129643Y258367D01*
X129966Y258691D01*
X130290Y258853D01*
X130776Y259015D01*
X131585D01*
X132071Y258853D01*
X132394Y258691D01*
X132718Y258367D01*
X132880Y257881D01*
Y256748D01*
Y262365D02*
X129481Y261070D01*
X132880Y259775D01*
X131747Y260261D02*
Y261880D01*
X64925Y371303D02*
X63306D01*
X63144Y369846D01*
X63306Y370008D01*
X63792Y370170D01*
X64277D01*
X64763Y370008D01*
X65087Y369684D01*
X65248Y369198D01*
Y368875D01*
X65087Y368389D01*
X64763Y368065D01*
X64277Y367903D01*
X63792D01*
X63306Y368065D01*
X63144Y368227D01*
X62982Y368551D01*
X66009Y371303D02*
X67304Y367903D01*
X68599Y371303D02*
X67304Y367903D01*
X88897Y371421D02*
X90677D01*
X89706Y370126D01*
X90192D01*
X90515Y369964D01*
X90677Y369802D01*
X90839Y369317D01*
Y368993D01*
X90677Y368507D01*
X90353Y368183D01*
X89868Y368022D01*
X89382D01*
X88897Y368183D01*
X88735Y368345D01*
X88573Y368669D01*
X91600Y371421D02*
X92895Y368022D01*
X94190Y371421D02*
X92895Y368022D01*
X94950Y371421D02*
X96731D01*
X95760Y370126D01*
X96245D01*
X96569Y369964D01*
X96731Y369802D01*
X96893Y369317D01*
Y368993D01*
X96731Y368507D01*
X96407Y368183D01*
X95922Y368022D01*
X95436D01*
X94950Y368183D01*
X94789Y368345D01*
X94627Y368669D01*
X56777Y404434D02*
Y401520D01*
X55320Y402977D02*
X58234D01*
X61908D02*
X64822D01*
X116000Y157464D02*
X118428D01*
X118914Y157626D01*
X119238Y157950D01*
X119400Y158436D01*
Y158759D01*
X119238Y159245D01*
X118914Y159569D01*
X118428Y159731D01*
X116000D01*
Y162612D02*
Y160993D01*
X117457Y160831D01*
X117295Y160993D01*
X117133Y161479D01*
Y161964D01*
X117295Y162450D01*
X117619Y162774D01*
X118105Y162936D01*
X118428D01*
X118914Y162774D01*
X119238Y162450D01*
X119400Y161964D01*
Y161479D01*
X119238Y160993D01*
X119076Y160831D01*
X118752Y160669D01*
X88703Y151590D02*
X88542Y151914D01*
X88218Y152238D01*
X87894Y152400D01*
X87247D01*
X86923Y152238D01*
X86599Y151914D01*
X86437Y151590D01*
X86275Y151105D01*
Y150295D01*
X86437Y149810D01*
X86599Y149486D01*
X86923Y149162D01*
X87247Y149000D01*
X87894D01*
X88218Y149162D01*
X88542Y149486D01*
X88703Y149810D01*
X91925Y152400D02*
X90306Y149000D01*
X89658Y152400D02*
X91925D01*
X55663Y278060D02*
X58253D01*
X58738Y277898D01*
X58900Y277737D01*
X59062Y277413D01*
Y277089D01*
X58900Y276765D01*
X58738Y276604D01*
X58253Y276442D01*
X57929D01*
X56148Y280877D02*
X55824Y280715D01*
X55663Y280229D01*
Y279906D01*
X55824Y279420D01*
X56310Y279096D01*
X57119Y278934D01*
X57929D01*
X58576Y279096D01*
X58900Y279420D01*
X59062Y279906D01*
Y280067D01*
X58900Y280553D01*
X58576Y280877D01*
X58091Y281039D01*
X57929D01*
X57443Y280877D01*
X57119Y280553D01*
X56958Y280067D01*
Y279906D01*
X57119Y279420D01*
X57443Y279096D01*
X57929Y278934D01*
X119285Y274156D02*
X121874D01*
X122360Y273995D01*
X122522Y273833D01*
X122684Y273509D01*
Y273185D01*
X122522Y272862D01*
X122360Y272700D01*
X121874Y272538D01*
X121551D01*
X121065Y275031D02*
Y276487D01*
X120903Y276973D01*
X120741Y277135D01*
X120418Y277297D01*
X119932D01*
X119608Y277135D01*
X119447Y276973D01*
X119285Y276487D01*
Y275031D01*
X122684D01*
X119285Y278867D02*
X119447Y278381D01*
X119770Y278219D01*
X120094D01*
X120418Y278381D01*
X120580Y278705D01*
X120741Y279352D01*
X120903Y279838D01*
X121227Y280162D01*
X121551Y280324D01*
X122036D01*
X122360Y280162D01*
X122522Y280000D01*
X122684Y279514D01*
Y278867D01*
X122522Y278381D01*
X122360Y278219D01*
X122036Y278058D01*
X121551D01*
X121227Y278219D01*
X120903Y278543D01*
X120741Y279029D01*
X120580Y279676D01*
X120418Y280000D01*
X120094Y280162D01*
X119770D01*
X119447Y280000D01*
X119285Y279514D01*
Y278867D01*
X128812Y274156D02*
X131402D01*
X131888Y273995D01*
X132050Y273833D01*
X132211Y273509D01*
Y273185D01*
X132050Y272862D01*
X131888Y272700D01*
X131402Y272538D01*
X131078D01*
X130593Y275031D02*
Y276487D01*
X130431Y276973D01*
X130269Y277135D01*
X129945Y277297D01*
X129460D01*
X129136Y277135D01*
X128974Y276973D01*
X128812Y276487D01*
Y275031D01*
X132211D01*
X128812Y280324D02*
X132211Y278705D01*
X128812Y278058D02*
Y280324D01*
X46332Y204357D02*
X48922D01*
X49407Y204195D01*
X49569Y204034D01*
X49731Y203710D01*
Y203386D01*
X49569Y203062D01*
X49407Y202901D01*
X48922Y202739D01*
X48598D01*
X46332Y207174D02*
Y205555D01*
X47789Y205393D01*
X47627Y205555D01*
X47465Y206041D01*
Y206526D01*
X47627Y207012D01*
X47951Y207336D01*
X48436Y207498D01*
X48760D01*
X49246Y207336D01*
X49569Y207012D01*
X49731Y206526D01*
Y206041D01*
X49569Y205555D01*
X49407Y205393D01*
X49084Y205231D01*
X48639Y388250D02*
Y385660D01*
X48477Y385174D01*
X48316Y385012D01*
X47992Y384850D01*
X47668D01*
X47344Y385012D01*
X47182Y385174D01*
X47021Y385660D01*
Y385983D01*
X49837Y388250D02*
X51618D01*
X50646Y386955D01*
X51132D01*
X51456Y386793D01*
X51618Y386631D01*
X51780Y386145D01*
Y385822D01*
X51618Y385336D01*
X51294Y385012D01*
X50808Y384850D01*
X50323D01*
X49837Y385012D01*
X49675Y385174D01*
X49513Y385498D01*
X152050Y191734D02*
X154478D01*
X154964Y191895D01*
X155288Y192219D01*
X155450Y192705D01*
Y193028D01*
X155288Y193514D01*
X154964Y193838D01*
X154478Y194000D01*
X152050D01*
Y196557D02*
X154316Y194939D01*
Y197367D01*
X152050Y196557D02*
X155450D01*
X109075Y352093D02*
Y349665D01*
X109237Y349180D01*
X109561Y348856D01*
X110047Y348694D01*
X110370D01*
X110856Y348856D01*
X111180Y349180D01*
X111342Y349665D01*
Y352093D01*
X112604D02*
X114385D01*
X113414Y350798D01*
X113899D01*
X114223Y350637D01*
X114385Y350475D01*
X114547Y349989D01*
Y349665D01*
X114385Y349180D01*
X114061Y348856D01*
X113575Y348694D01*
X113090D01*
X112604Y348856D01*
X112442Y349018D01*
X112280Y349342D01*
X60500Y191164D02*
X62928D01*
X63414Y191326D01*
X63738Y191650D01*
X63900Y192136D01*
Y192459D01*
X63738Y192945D01*
X63414Y193269D01*
X62928Y193431D01*
X60500D01*
X61310Y194531D02*
X61148D01*
X60824Y194693D01*
X60662Y194855D01*
X60500Y195179D01*
Y195826D01*
X60662Y196150D01*
X60824Y196312D01*
X61148Y196474D01*
X61472D01*
X61795Y196312D01*
X62281Y195988D01*
X63900Y194369D01*
Y196636D01*
X132450Y413543D02*
X134878D01*
X135364Y413705D01*
X135688Y414028D01*
X135850Y414514D01*
Y414838D01*
X135688Y415323D01*
X135364Y415647D01*
X134878Y415809D01*
X132450D01*
X133098Y416748D02*
X132936Y417072D01*
X132450Y417557D01*
X135850D01*
X69182Y312817D02*
Y309418D01*
Y312817D02*
X70639D01*
X71124Y312655D01*
X71286Y312493D01*
X71448Y312170D01*
Y311846D01*
X71286Y311522D01*
X71124Y311360D01*
X70639Y311198D01*
X69182D01*
X70315D02*
X71448Y309418D01*
X72209Y312170D02*
X72533Y312331D01*
X73018Y312817D01*
Y309418D01*
X74863Y312008D02*
Y312170D01*
X75025Y312493D01*
X75187Y312655D01*
X75511Y312817D01*
X76158D01*
X76482Y312655D01*
X76644Y312493D01*
X76806Y312170D01*
Y311846D01*
X76644Y311522D01*
X76320Y311036D01*
X74702Y309418D01*
X76968D01*
X70639Y318329D02*
Y314930D01*
Y318329D02*
X72096D01*
X72581Y318167D01*
X72743Y318005D01*
X72905Y317681D01*
Y317357D01*
X72743Y317034D01*
X72581Y316872D01*
X72096Y316710D01*
X70639D01*
X71772D02*
X72905Y314930D01*
X73666Y317681D02*
X73989Y317843D01*
X74475Y318329D01*
Y314930D01*
X76158Y317681D02*
X76482Y317843D01*
X76968Y318329D01*
Y314930D01*
X71837Y324150D02*
Y320750D01*
Y324150D02*
X73293D01*
X73779Y323988D01*
X73941Y323826D01*
X74103Y323502D01*
Y323178D01*
X73941Y322855D01*
X73779Y322693D01*
X73293Y322531D01*
X71837D01*
X72970D02*
X74103Y320750D01*
X76968Y323017D02*
X76806Y322531D01*
X76482Y322207D01*
X75997Y322045D01*
X75835D01*
X75349Y322207D01*
X75025Y322531D01*
X74863Y323017D01*
Y323178D01*
X75025Y323664D01*
X75349Y323988D01*
X75835Y324150D01*
X75997D01*
X76482Y323988D01*
X76806Y323664D01*
X76968Y323017D01*
Y322207D01*
X76806Y321398D01*
X76482Y320912D01*
X75997Y320750D01*
X75673D01*
X75187Y320912D01*
X75025Y321236D01*
X71675Y329864D02*
Y326465D01*
Y329864D02*
X73132D01*
X73617Y329702D01*
X73779Y329540D01*
X73941Y329217D01*
Y328893D01*
X73779Y328569D01*
X73617Y328407D01*
X73132Y328245D01*
X71675D01*
X72808D02*
X73941Y326465D01*
X75511Y329864D02*
X75025Y329702D01*
X74863Y329379D01*
Y329055D01*
X75025Y328731D01*
X75349Y328569D01*
X75997Y328407D01*
X76482Y328245D01*
X76806Y327922D01*
X76968Y327598D01*
Y327112D01*
X76806Y326789D01*
X76644Y326627D01*
X76158Y326465D01*
X75511D01*
X75025Y326627D01*
X74863Y326789D01*
X74702Y327112D01*
Y327598D01*
X74863Y327922D01*
X75187Y328245D01*
X75673Y328407D01*
X76320Y328569D01*
X76644Y328731D01*
X76806Y329055D01*
Y329379D01*
X76644Y329702D01*
X76158Y329864D01*
X75511D01*
X71675Y335500D02*
Y332100D01*
Y335500D02*
X73132D01*
X73617Y335338D01*
X73779Y335176D01*
X73941Y334852D01*
Y334528D01*
X73779Y334205D01*
X73617Y334043D01*
X73132Y333881D01*
X71675D01*
X72808D02*
X73941Y332100D01*
X76968Y335500D02*
X75349Y332100D01*
X74702Y335500D02*
X76968D01*
X71837Y358000D02*
Y354600D01*
Y358000D02*
X73293D01*
X73779Y357838D01*
X73941Y357676D01*
X74103Y357352D01*
Y357028D01*
X73941Y356705D01*
X73779Y356543D01*
X73293Y356381D01*
X71837D01*
X72970D02*
X74103Y354600D01*
X76806Y357514D02*
X76644Y357838D01*
X76158Y358000D01*
X75835D01*
X75349Y357838D01*
X75025Y357352D01*
X74863Y356543D01*
Y355733D01*
X75025Y355086D01*
X75349Y354762D01*
X75835Y354600D01*
X75997D01*
X76482Y354762D01*
X76806Y355086D01*
X76968Y355572D01*
Y355733D01*
X76806Y356219D01*
X76482Y356543D01*
X75997Y356705D01*
X75835D01*
X75349Y356543D01*
X75025Y356219D01*
X74863Y355733D01*
X71675Y363439D02*
Y360040D01*
Y363439D02*
X73132D01*
X73617Y363277D01*
X73779Y363115D01*
X73941Y362791D01*
Y362468D01*
X73779Y362144D01*
X73617Y361982D01*
X73132Y361820D01*
X71675D01*
X72808D02*
X73941Y360040D01*
X76644Y363439D02*
X75025D01*
X74863Y361982D01*
X75025Y362144D01*
X75511Y362306D01*
X75997D01*
X76482Y362144D01*
X76806Y361820D01*
X76968Y361335D01*
Y361011D01*
X76806Y360525D01*
X76482Y360202D01*
X75997Y360040D01*
X75511D01*
X75025Y360202D01*
X74863Y360364D01*
X74702Y360687D01*
X91272Y341800D02*
Y338400D01*
Y341800D02*
X92729D01*
X93215Y341638D01*
X93377Y341476D01*
X93539Y341152D01*
Y340828D01*
X93377Y340505D01*
X93215Y340343D01*
X92729Y340181D01*
X91272D01*
X92406D02*
X93539Y338400D01*
X95918Y341800D02*
X94300Y339533D01*
X96728D01*
X95918Y341800D02*
Y338400D01*
X91272Y351950D02*
Y348550D01*
Y351950D02*
X92729D01*
X93215Y351788D01*
X93377Y351626D01*
X93539Y351302D01*
Y350978D01*
X93377Y350655D01*
X93215Y350493D01*
X92729Y350331D01*
X91272D01*
X92406D02*
X93539Y348550D01*
X94623Y351950D02*
X96404D01*
X95433Y350655D01*
X95918D01*
X96242Y350493D01*
X96404Y350331D01*
X96566Y349845D01*
Y349522D01*
X96404Y349036D01*
X96080Y348712D01*
X95594Y348550D01*
X95109D01*
X94623Y348712D01*
X94461Y348874D01*
X94300Y349198D01*
X135453Y392550D02*
Y389150D01*
Y392550D02*
X136910D01*
X137396Y392388D01*
X137558Y392226D01*
X137720Y391902D01*
Y391578D01*
X137558Y391255D01*
X137396Y391093D01*
X136910Y390931D01*
X135453D01*
X136586D02*
X137720Y389150D01*
X138642Y391740D02*
Y391902D01*
X138804Y392226D01*
X138966Y392388D01*
X139290Y392550D01*
X139937D01*
X140261Y392388D01*
X140423Y392226D01*
X140585Y391902D01*
Y391578D01*
X140423Y391255D01*
X140099Y390769D01*
X138480Y389150D01*
X140747D01*
X137632Y409350D02*
Y405950D01*
Y409350D02*
X139089D01*
X139574Y409188D01*
X139736Y409026D01*
X139898Y408702D01*
Y408378D01*
X139736Y408055D01*
X139574Y407893D01*
X139089Y407731D01*
X137632D01*
X138765D02*
X139898Y405950D01*
X140659Y408702D02*
X140982Y408864D01*
X141468Y409350D01*
Y405950D01*
X68182Y63432D02*
X70772D01*
X71258Y63270D01*
X71420Y63108D01*
X71582Y62785D01*
Y62461D01*
X71420Y62137D01*
X71258Y61975D01*
X70772Y61813D01*
X70448D01*
X68830Y64306D02*
X68668Y64630D01*
X68182Y65116D01*
X71582D01*
X63039Y397550D02*
Y394960D01*
X62877Y394474D01*
X62716Y394312D01*
X62392Y394150D01*
X62068D01*
X61744Y394312D01*
X61582Y394474D01*
X61421Y394960D01*
Y395284D01*
X64075Y396740D02*
Y396902D01*
X64237Y397226D01*
X64399Y397388D01*
X64723Y397550D01*
X65370D01*
X65694Y397388D01*
X65856Y397226D01*
X66018Y396902D01*
Y396578D01*
X65856Y396255D01*
X65532Y395769D01*
X63913Y394150D01*
X66180D01*
X146603Y392850D02*
Y389450D01*
Y392850D02*
X147737D01*
X148222Y392688D01*
X148546Y392364D01*
X148708Y392040D01*
X148870Y391555D01*
Y390745D01*
X148708Y390260D01*
X148546Y389936D01*
X148222Y389612D01*
X147737Y389450D01*
X146603D01*
X149792Y392040D02*
Y392202D01*
X149954Y392526D01*
X150116Y392688D01*
X150440Y392850D01*
X151087D01*
X151411Y392688D01*
X151573Y392526D01*
X151735Y392202D01*
Y391878D01*
X151573Y391555D01*
X151249Y391069D01*
X149630Y389450D01*
X151897D01*
X147182Y409750D02*
Y406350D01*
Y409750D02*
X148315D01*
X148801Y409588D01*
X149124Y409264D01*
X149286Y408940D01*
X149448Y408455D01*
Y407645D01*
X149286Y407160D01*
X149124Y406836D01*
X148801Y406512D01*
X148315Y406350D01*
X147182D01*
X150209Y409102D02*
X150532Y409264D01*
X151018Y409750D01*
Y406350D01*
X96195Y389308D02*
X96033Y389632D01*
X95710Y389956D01*
X95386Y390118D01*
X94738D01*
X94415Y389956D01*
X94091Y389632D01*
X93929Y389308D01*
X93767Y388823D01*
Y388013D01*
X93929Y387528D01*
X94091Y387204D01*
X94415Y386880D01*
X94738Y386719D01*
X95386D01*
X95710Y386880D01*
X96033Y387204D01*
X96195Y387528D01*
X97150Y389470D02*
X97474Y389632D01*
X97960Y390118D01*
Y386719D01*
X124917Y385201D02*
X124755Y385524D01*
X124431Y385848D01*
X124107Y386010D01*
X123460D01*
X123136Y385848D01*
X122812Y385524D01*
X122651Y385201D01*
X122489Y384715D01*
Y383906D01*
X122651Y383420D01*
X122812Y383096D01*
X123136Y382772D01*
X123460Y382611D01*
X124107D01*
X124431Y382772D01*
X124755Y383096D01*
X124917Y383420D01*
X126196Y386010D02*
X127976D01*
X127005Y384715D01*
X127490D01*
X127814Y384553D01*
X127976Y384391D01*
X128138Y383906D01*
Y383582D01*
X127976Y383096D01*
X127652Y382772D01*
X127167Y382611D01*
X126681D01*
X126196Y382772D01*
X126034Y382934D01*
X125872Y383258D01*
X111337Y436865D02*
X111175Y437188D01*
X110852Y437512D01*
X110528Y437674D01*
X109880D01*
X109557Y437512D01*
X109233Y437188D01*
X109071Y436865D01*
X108909Y436379D01*
Y435570D01*
X109071Y435084D01*
X109233Y434760D01*
X109557Y434437D01*
X109880Y434275D01*
X110528D01*
X110852Y434437D01*
X111175Y434760D01*
X111337Y435084D01*
X112454Y436865D02*
Y437027D01*
X112616Y437350D01*
X112778Y437512D01*
X113102Y437674D01*
X113749D01*
X114073Y437512D01*
X114235Y437350D01*
X114397Y437027D01*
Y436703D01*
X114235Y436379D01*
X113911Y435893D01*
X112292Y434275D01*
X114558D01*
X111686Y298045D02*
X115085D01*
X111686D02*
Y299501D01*
X111848Y299987D01*
X112010Y300149D01*
X112334Y300311D01*
X112657D01*
X112981Y300149D01*
X113143Y299987D01*
X113305Y299501D01*
Y298045D01*
Y299178D02*
X115085Y300311D01*
X112496Y301234D02*
X112334D01*
X112010Y301395D01*
X111848Y301557D01*
X111686Y301881D01*
Y302529D01*
X111848Y302852D01*
X112010Y303014D01*
X112334Y303176D01*
X112657D01*
X112981Y303014D01*
X113467Y302690D01*
X115085Y301072D01*
Y303338D01*
X112334Y304099D02*
X112172Y304422D01*
X111686Y304908D01*
X115085D01*
X100859Y274156D02*
X103449D01*
X103935Y273995D01*
X104097Y273833D01*
X104259Y273509D01*
Y273185D01*
X104097Y272862D01*
X103935Y272700D01*
X103449Y272538D01*
X103126D01*
X102640Y275031D02*
Y276487D01*
X102478Y276973D01*
X102316Y277135D01*
X101992Y277297D01*
X101507D01*
X101183Y277135D01*
X101021Y276973D01*
X100859Y276487D01*
Y275031D01*
X104259D01*
X101507Y278058D02*
X101345Y278381D01*
X100859Y278867D01*
X104259D01*
X101507Y280550D02*
X101345Y280874D01*
X100859Y281360D01*
X104259D01*
X113760Y231334D02*
X113436Y231172D01*
X113112Y230849D01*
X112950Y230525D01*
Y229877D01*
X113112Y229554D01*
X113436Y229230D01*
X113760Y229068D01*
X114245Y228906D01*
X115055D01*
X115540Y229068D01*
X115864Y229230D01*
X116188Y229554D01*
X116350Y229877D01*
Y230525D01*
X116188Y230849D01*
X115864Y231172D01*
X115540Y231334D01*
X113436Y234232D02*
X113112Y234070D01*
X112950Y233584D01*
Y233261D01*
X113112Y232775D01*
X113598Y232451D01*
X114407Y232289D01*
X115217D01*
X115864Y232451D01*
X116188Y232775D01*
X116350Y233261D01*
Y233422D01*
X116188Y233908D01*
X115864Y234232D01*
X115378Y234394D01*
X115217D01*
X114731Y234232D01*
X114407Y233908D01*
X114245Y233422D01*
Y233261D01*
X114407Y232775D01*
X114731Y232451D01*
X115217Y232289D01*
X74660Y232973D02*
X74336Y232811D01*
X74012Y232487D01*
X73850Y232163D01*
Y231516D01*
X74012Y231192D01*
X74336Y230868D01*
X74660Y230706D01*
X75145Y230544D01*
X75955D01*
X76440Y230706D01*
X76764Y230868D01*
X77088Y231192D01*
X77250Y231516D01*
Y232163D01*
X77088Y232487D01*
X76764Y232811D01*
X76440Y232973D01*
X73850Y235546D02*
X76117Y233927D01*
Y236356D01*
X73850Y235546D02*
X77250D01*
X118007Y363777D02*
X117684Y363615D01*
X117360Y363291D01*
X117198Y362967D01*
Y362320D01*
X117360Y361996D01*
X117684Y361672D01*
X118007Y361510D01*
X118493Y361349D01*
X119302D01*
X119788Y361510D01*
X120112Y361672D01*
X120435Y361996D01*
X120597Y362320D01*
Y362967D01*
X120435Y363291D01*
X120112Y363615D01*
X119788Y363777D01*
X117198Y366674D02*
Y365055D01*
X118655Y364894D01*
X118493Y365055D01*
X118331Y365541D01*
Y366027D01*
X118493Y366512D01*
X118817Y366836D01*
X119302Y366998D01*
X119626D01*
X120112Y366836D01*
X120435Y366512D01*
X120597Y366027D01*
Y365541D01*
X120435Y365055D01*
X120273Y364894D01*
X119950Y364732D01*
X84521Y274156D02*
X87111D01*
X87596Y273995D01*
X87758Y273833D01*
X87920Y273509D01*
Y273185D01*
X87758Y272862D01*
X87596Y272700D01*
X87111Y272538D01*
X86787D01*
X86301Y275031D02*
Y276487D01*
X86140Y276973D01*
X85978Y277135D01*
X85654Y277297D01*
X85168D01*
X84845Y277135D01*
X84683Y276973D01*
X84521Y276487D01*
Y275031D01*
X87920D01*
X85654Y280162D02*
X86140Y280000D01*
X86463Y279676D01*
X86625Y279191D01*
Y279029D01*
X86463Y278543D01*
X86140Y278220D01*
X85654Y278058D01*
X85492D01*
X85006Y278220D01*
X84683Y278543D01*
X84521Y279029D01*
Y279191D01*
X84683Y279676D01*
X85006Y280000D01*
X85654Y280162D01*
X86463D01*
X87273Y280000D01*
X87758Y279676D01*
X87920Y279191D01*
Y278867D01*
X87758Y278381D01*
X87435Y278220D01*
X103930Y298045D02*
X107329D01*
X103930D02*
Y299501D01*
X104092Y299987D01*
X104254Y300149D01*
X104578Y300311D01*
X104902D01*
X105225Y300149D01*
X105387Y299987D01*
X105549Y299501D01*
Y298045D01*
Y299178D02*
X107329Y300311D01*
X104740Y301234D02*
X104578D01*
X104254Y301395D01*
X104092Y301557D01*
X103930Y301881D01*
Y302529D01*
X104092Y302852D01*
X104254Y303014D01*
X104578Y303176D01*
X104902D01*
X105225Y303014D01*
X105711Y302690D01*
X107329Y301072D01*
Y303338D01*
X103930Y305070D02*
X104092Y304584D01*
X104578Y304260D01*
X105387Y304099D01*
X105873D01*
X106682Y304260D01*
X107168Y304584D01*
X107329Y305070D01*
Y305394D01*
X107168Y305879D01*
X106682Y306203D01*
X105873Y306365D01*
X105387D01*
X104578Y306203D01*
X104092Y305879D01*
X103930Y305394D01*
Y305070D01*
X96056Y298045D02*
X99455D01*
X96056D02*
Y299501D01*
X96218Y299987D01*
X96380Y300149D01*
X96704Y300311D01*
X97027D01*
X97351Y300149D01*
X97513Y299987D01*
X97675Y299501D01*
Y298045D01*
Y299178D02*
X99455Y300311D01*
X96704Y301072D02*
X96542Y301395D01*
X96056Y301881D01*
X99455D01*
X97189Y305669D02*
X97675Y305507D01*
X97999Y305183D01*
X98161Y304697D01*
Y304536D01*
X97999Y304050D01*
X97675Y303726D01*
X97189Y303564D01*
X97027D01*
X96542Y303726D01*
X96218Y304050D01*
X96056Y304536D01*
Y304697D01*
X96218Y305183D01*
X96542Y305507D01*
X97189Y305669D01*
X97999D01*
X98808Y305507D01*
X99294Y305183D01*
X99455Y304697D01*
Y304374D01*
X99294Y303888D01*
X98970Y303726D01*
X88064Y298045D02*
X91463D01*
X88064D02*
Y299501D01*
X88226Y299987D01*
X88388Y300149D01*
X88712Y300311D01*
X89035D01*
X89359Y300149D01*
X89521Y299987D01*
X89683Y299501D01*
Y298045D01*
Y299178D02*
X91463Y300311D01*
X88712Y301072D02*
X88550Y301395D01*
X88064Y301881D01*
X91463D01*
X88064Y304374D02*
X88226Y303888D01*
X88550Y303726D01*
X88873D01*
X89197Y303888D01*
X89359Y304212D01*
X89521Y304859D01*
X89683Y305345D01*
X90007Y305669D01*
X90330Y305831D01*
X90816D01*
X91140Y305669D01*
X91302Y305507D01*
X91463Y305021D01*
Y304374D01*
X91302Y303888D01*
X91140Y303726D01*
X90816Y303564D01*
X90330D01*
X90007Y303726D01*
X89683Y304050D01*
X89521Y304536D01*
X89359Y305183D01*
X89197Y305507D01*
X88873Y305669D01*
X88550D01*
X88226Y305507D01*
X88064Y305021D01*
Y304374D01*
X80190Y298045D02*
X83589D01*
X80190D02*
Y299501D01*
X80352Y299987D01*
X80514Y300149D01*
X80838Y300311D01*
X81161D01*
X81485Y300149D01*
X81647Y299987D01*
X81809Y299501D01*
Y298045D01*
Y299178D02*
X83589Y300311D01*
X80838Y301072D02*
X80676Y301395D01*
X80190Y301881D01*
X83589D01*
X80190Y305831D02*
X83589Y304212D01*
X80190Y303564D02*
Y305831D01*
X119718Y298045D02*
X123117D01*
X119718D02*
Y299501D01*
X119879Y299987D01*
X120041Y300149D01*
X120365Y300311D01*
X120689D01*
X121013Y300149D01*
X121175Y299987D01*
X121336Y299501D01*
Y298045D01*
Y299178D02*
X123117Y300311D01*
X120365Y301072D02*
X120203Y301395D01*
X119718Y301881D01*
X123117D01*
X120203Y305507D02*
X119879Y305345D01*
X119718Y304859D01*
Y304536D01*
X119879Y304050D01*
X120365Y303726D01*
X121175Y303564D01*
X121984D01*
X122631Y303726D01*
X122955Y304050D01*
X123117Y304536D01*
Y304697D01*
X122955Y305183D01*
X122631Y305507D01*
X122146Y305669D01*
X121984D01*
X121498Y305507D01*
X121175Y305183D01*
X121013Y304697D01*
Y304536D01*
X121175Y304050D01*
X121498Y303726D01*
X121984Y303564D01*
X127513Y298045D02*
X130912D01*
X127513D02*
Y299501D01*
X127675Y299987D01*
X127837Y300149D01*
X128160Y300311D01*
X128484D01*
X128808Y300149D01*
X128970Y299987D01*
X129132Y299501D01*
Y298045D01*
Y299178D02*
X130912Y300311D01*
X128160Y301072D02*
X127999Y301395D01*
X127513Y301881D01*
X130912D01*
X127513Y305507D02*
Y303888D01*
X128970Y303726D01*
X128808Y303888D01*
X128646Y304374D01*
Y304859D01*
X128808Y305345D01*
X129132Y305669D01*
X129617Y305831D01*
X129941D01*
X130427Y305669D01*
X130750Y305345D01*
X130912Y304859D01*
Y304374D01*
X130750Y303888D01*
X130588Y303726D01*
X130265Y303564D01*
X135663Y298045D02*
X139062D01*
X135663D02*
Y299501D01*
X135824Y299987D01*
X135986Y300149D01*
X136310Y300311D01*
X136634D01*
X136958Y300149D01*
X137119Y299987D01*
X137281Y299501D01*
Y298045D01*
Y299178D02*
X139062Y300311D01*
X136310Y301072D02*
X136148Y301395D01*
X135663Y301881D01*
X139062D01*
X135663Y305183D02*
X137929Y303564D01*
Y305993D01*
X135663Y305183D02*
X139062D01*
X143104Y298045D02*
X146503D01*
X143104D02*
Y299501D01*
X143265Y299987D01*
X143427Y300149D01*
X143751Y300311D01*
X144075D01*
X144398Y300149D01*
X144560Y299987D01*
X144722Y299501D01*
Y298045D01*
Y299178D02*
X146503Y300311D01*
X143751Y301072D02*
X143589Y301395D01*
X143104Y301881D01*
X146503D01*
X143104Y303888D02*
Y305669D01*
X144398Y304697D01*
Y305183D01*
X144560Y305507D01*
X144722Y305669D01*
X145208Y305831D01*
X145532D01*
X146017Y305669D01*
X146341Y305345D01*
X146503Y304859D01*
Y304374D01*
X146341Y303888D01*
X146179Y303726D01*
X145855Y303564D01*
X132600Y350107D02*
X136000D01*
X132600D02*
Y351564D01*
X132762Y352049D01*
X132924Y352211D01*
X133248Y352373D01*
X133572D01*
X133895Y352211D01*
X134057Y352049D01*
X134219Y351564D01*
Y350107D01*
Y351240D02*
X136000Y352373D01*
X133248Y353134D02*
X133086Y353458D01*
X132600Y353943D01*
X136000D01*
X132600Y356598D02*
X132762Y356112D01*
X133248Y355789D01*
X134057Y355627D01*
X134543D01*
X135352Y355789D01*
X135838Y356112D01*
X136000Y356598D01*
Y356922D01*
X135838Y357407D01*
X135352Y357731D01*
X134543Y357893D01*
X134057D01*
X133248Y357731D01*
X132762Y357407D01*
X132600Y356922D01*
Y356598D01*
X110350Y274156D02*
X112940D01*
X113426Y273995D01*
X113588Y273833D01*
X113750Y273509D01*
Y273185D01*
X113588Y272862D01*
X113426Y272700D01*
X112940Y272538D01*
X112617D01*
X112131Y275031D02*
Y276487D01*
X111969Y276973D01*
X111807Y277135D01*
X111483Y277297D01*
X110998D01*
X110674Y277135D01*
X110512Y276973D01*
X110350Y276487D01*
Y275031D01*
X113750D01*
X110998Y278058D02*
X110836Y278381D01*
X110350Y278867D01*
X113750D01*
X111160Y280712D02*
X110998D01*
X110674Y280874D01*
X110512Y281036D01*
X110350Y281360D01*
Y282007D01*
X110512Y282331D01*
X110674Y282493D01*
X110998Y282655D01*
X111322D01*
X111645Y282493D01*
X112131Y282169D01*
X113750Y280550D01*
Y282817D01*
X91922Y274156D02*
X94512D01*
X94998Y273995D01*
X95160Y273833D01*
X95322Y273509D01*
Y273185D01*
X95160Y272862D01*
X94998Y272700D01*
X94512Y272538D01*
X94189D01*
X93703Y275031D02*
Y276487D01*
X93541Y276973D01*
X93379Y277135D01*
X93055Y277297D01*
X92570D01*
X92246Y277135D01*
X92084Y276973D01*
X91922Y276487D01*
Y275031D01*
X95322D01*
X92570Y278058D02*
X92408Y278381D01*
X91922Y278867D01*
X95322D01*
X91922Y281522D02*
X92084Y281036D01*
X92570Y280712D01*
X93379Y280550D01*
X93865D01*
X94674Y280712D01*
X95160Y281036D01*
X95322Y281522D01*
Y281845D01*
X95160Y282331D01*
X94674Y282655D01*
X93865Y282817D01*
X93379D01*
X92570Y282655D01*
X92084Y282331D01*
X91922Y281845D01*
Y281522D01*
X75072Y274156D02*
X77662D01*
X78148Y273995D01*
X78309Y273833D01*
X78471Y273509D01*
Y273185D01*
X78309Y272862D01*
X78148Y272700D01*
X77662Y272538D01*
X77338D01*
X76853Y275031D02*
Y276487D01*
X76691Y276973D01*
X76529Y277135D01*
X76205Y277297D01*
X75719D01*
X75396Y277135D01*
X75234Y276973D01*
X75072Y276487D01*
Y275031D01*
X78471D01*
X75558Y280000D02*
X75234Y279838D01*
X75072Y279352D01*
Y279029D01*
X75234Y278543D01*
X75719Y278219D01*
X76529Y278058D01*
X77338D01*
X77986Y278219D01*
X78309Y278543D01*
X78471Y279029D01*
Y279191D01*
X78309Y279676D01*
X77986Y280000D01*
X77500Y280162D01*
X77338D01*
X76853Y280000D01*
X76529Y279676D01*
X76367Y279191D01*
Y279029D01*
X76529Y278543D01*
X76853Y278219D01*
X77338Y278058D01*
X137710Y274156D02*
X140300D01*
X140785Y273995D01*
X140947Y273833D01*
X141109Y273509D01*
Y273185D01*
X140947Y272862D01*
X140785Y272700D01*
X140300Y272538D01*
X139976D01*
X139490Y275031D02*
Y276487D01*
X139329Y276973D01*
X139167Y277135D01*
X138843Y277297D01*
X138357D01*
X138033Y277135D01*
X137872Y276973D01*
X137710Y276487D01*
Y275031D01*
X141109D01*
X137710Y279676D02*
X139976Y278058D01*
Y280486D01*
X137710Y279676D02*
X141109D01*
X146804Y274156D02*
X149394D01*
X149880Y273995D01*
X150042Y273833D01*
X150204Y273509D01*
Y273185D01*
X150042Y272862D01*
X149880Y272700D01*
X149394Y272538D01*
X149071D01*
X148585Y275031D02*
Y276487D01*
X148423Y276973D01*
X148261Y277135D01*
X147937Y277297D01*
X147452D01*
X147128Y277135D01*
X146966Y276973D01*
X146804Y276487D01*
Y275031D01*
X150204D01*
X146804Y278381D02*
Y280162D01*
X148099Y279191D01*
Y279676D01*
X148261Y280000D01*
X148423Y280162D01*
X148909Y280324D01*
X149232D01*
X149718Y280162D01*
X150042Y279838D01*
X150204Y279352D01*
Y278867D01*
X150042Y278381D01*
X149880Y278219D01*
X149556Y278058D01*
X62828Y108961D02*
X65418D01*
X65903Y108800D01*
X66065Y108638D01*
X66227Y108314D01*
Y107990D01*
X66065Y107667D01*
X65903Y107505D01*
X65418Y107343D01*
X65094D01*
X62828Y111454D02*
X65094Y109836D01*
Y112264D01*
X62828Y111454D02*
X66227D01*
D16*
X58864Y219461D02*
X58301Y218898D01*
X58020Y218055D01*
Y216930D01*
X58301Y216087D01*
X58864Y215524D01*
X59426D01*
X59988Y215806D01*
X60269Y216087D01*
X60551Y216649D01*
X61113Y218336D01*
X61394Y218898D01*
X61675Y219179D01*
X62238Y219461D01*
X63081D01*
X63643Y218898D01*
X63924Y218055D01*
Y216930D01*
X63643Y216087D01*
X63081Y215524D01*
X58020Y220782D02*
X63924D01*
X58020Y224718D02*
X63924D01*
X60832Y220782D02*
Y224718D01*
X58020Y228036D02*
X58301Y227473D01*
X58864Y226911D01*
X59426Y226630D01*
X60269Y226349D01*
X61675D01*
X62519Y226630D01*
X63081Y226911D01*
X63643Y227473D01*
X63924Y228036D01*
Y229160D01*
X63643Y229723D01*
X63081Y230285D01*
X62519Y230566D01*
X61675Y230847D01*
X60269D01*
X59426Y230566D01*
X58864Y230285D01*
X58301Y229723D01*
X58020Y229160D01*
Y228036D01*
X59426Y236442D02*
X58864Y236161D01*
X58301Y235599D01*
X58020Y235036D01*
Y233912D01*
X58301Y233350D01*
X58864Y232787D01*
X59426Y232506D01*
X60269Y232225D01*
X61675D01*
X62519Y232506D01*
X63081Y232787D01*
X63643Y233350D01*
X63924Y233912D01*
Y235036D01*
X63643Y235599D01*
X63081Y236161D01*
X62519Y236442D01*
X58020Y238101D02*
X63924D01*
X58020Y242037D02*
X61956Y238101D01*
X60551Y239507D02*
X63924Y242037D01*
X58020Y249966D02*
X63924D01*
X58020Y247998D02*
Y251934D01*
Y252637D02*
X63924D01*
X58020D02*
Y255167D01*
X58301Y256011D01*
X58583Y256292D01*
X59145Y256573D01*
X59707D01*
X60269Y256292D01*
X60551Y256011D01*
X60832Y255167D01*
Y252637D01*
Y254605D02*
X63924Y256573D01*
Y262393D02*
X58020Y260144D01*
X63924Y257894D01*
X61956Y258738D02*
Y261549D01*
X58020Y263771D02*
X63924Y266020D01*
X58020Y268269D02*
X63924Y266020D01*
X58020Y272683D02*
Y269028D01*
X63924D01*
Y272683D01*
X60832Y269028D02*
Y271277D01*
X58020Y273667D02*
X63924D01*
Y277041D01*
X72930Y46750D02*
X72368Y46468D01*
X71805Y45906D01*
X71524Y45344D01*
Y44219D01*
X71805Y43657D01*
X72368Y43095D01*
X72930Y42813D01*
X73773Y42532D01*
X75179D01*
X76023Y42813D01*
X76585Y43095D01*
X77147Y43657D01*
X77428Y44219D01*
Y45344D01*
X77147Y45906D01*
X76585Y46468D01*
X76023Y46750D01*
X75179D01*
Y45344D02*
Y46750D01*
X74617Y48099D02*
Y50630D01*
X74336Y51473D01*
X74054Y51754D01*
X73492Y52035D01*
X72649D01*
X72086Y51754D01*
X71805Y51473D01*
X71524Y50630D01*
Y48099D01*
X77428D01*
X72368Y57293D02*
X71805Y56731D01*
X71524Y55887D01*
Y54763D01*
X71805Y53919D01*
X72368Y53357D01*
X72930D01*
X73492Y53638D01*
X73773Y53919D01*
X74054Y54481D01*
X74617Y56168D01*
X74898Y56731D01*
X75179Y57012D01*
X75741Y57293D01*
X76585D01*
X77147Y56731D01*
X77428Y55887D01*
Y54763D01*
X77147Y53919D01*
X76585Y53357D01*
X71327Y81036D02*
X77232D01*
X71327Y82273D02*
X77232D01*
X71327D02*
X77232Y84522D01*
X71327Y86772D02*
X77232Y84522D01*
X71327Y86772D02*
X77232D01*
X71327Y88459D02*
X75545D01*
X76388Y88740D01*
X76950Y89302D01*
X77232Y90146D01*
Y90708D01*
X76950Y91551D01*
X76388Y92114D01*
X75545Y92395D01*
X71327D01*
X58256Y302768D02*
X64161D01*
X58256D02*
Y305299D01*
X58538Y306142D01*
X58819Y306423D01*
X59381Y306705D01*
X59943D01*
X60506Y306423D01*
X60787Y306142D01*
X61068Y305299D01*
Y302768D01*
Y304737D02*
X64161Y306705D01*
Y312525D02*
X58256Y310275D01*
X64161Y308026D01*
X62193Y308870D02*
Y311681D01*
X59100Y317838D02*
X58538Y317276D01*
X58256Y316433D01*
Y315308D01*
X58538Y314464D01*
X59100Y313902D01*
X59662D01*
X60224Y314183D01*
X60506Y314464D01*
X60787Y315027D01*
X61349Y316714D01*
X61630Y317276D01*
X61911Y317557D01*
X62474Y317838D01*
X63317D01*
X63880Y317276D01*
X64161Y316433D01*
Y315308D01*
X63880Y314464D01*
X63317Y313902D01*
X61349Y319160D02*
Y321690D01*
X61068Y322534D01*
X60787Y322815D01*
X60224Y323096D01*
X59381D01*
X58819Y322815D01*
X58538Y322534D01*
X58256Y321690D01*
Y319160D01*
X64161D01*
X58256Y324417D02*
X64161D01*
X58256D02*
Y326948D01*
X58538Y327791D01*
X58819Y328072D01*
X59381Y328354D01*
X59943D01*
X60506Y328072D01*
X60787Y327791D01*
X61068Y326948D01*
Y324417D02*
Y326948D01*
X61349Y327791D01*
X61630Y328072D01*
X62193Y328354D01*
X63036D01*
X63598Y328072D01*
X63880Y327791D01*
X64161Y326948D01*
Y324417D01*
X58256Y333330D02*
Y329675D01*
X64161D01*
Y333330D01*
X61068Y329675D02*
Y331924D01*
X58256Y334314D02*
X64161D01*
X58256D02*
Y336844D01*
X58538Y337688D01*
X58819Y337969D01*
X59381Y338250D01*
X59943D01*
X60506Y337969D01*
X60787Y337688D01*
X61068Y336844D01*
Y334314D01*
Y336282D02*
X64161Y338250D01*
X58256Y339572D02*
X64161D01*
X58256D02*
Y342102D01*
X58538Y342946D01*
X58819Y343227D01*
X59381Y343508D01*
X59943D01*
X60506Y343227D01*
X60787Y342946D01*
X61068Y342102D01*
Y339572D01*
Y341540D02*
X64161Y343508D01*
X58256Y344829D02*
X61068Y347078D01*
X64161D01*
X58256Y349328D02*
X61068Y347078D01*
X61349Y354726D02*
Y357256D01*
X61068Y358100D01*
X60787Y358381D01*
X60224Y358662D01*
X59381D01*
X58819Y358381D01*
X58538Y358100D01*
X58256Y357256D01*
Y354726D01*
X64161D01*
X58256Y359983D02*
X64161D01*
X48700Y431361D02*
X51230D01*
X52074Y431643D01*
X52355Y431924D01*
X52636Y432486D01*
Y433330D01*
X52355Y433892D01*
X52074Y434173D01*
X51230Y434454D01*
X48700D01*
Y428550D01*
X53958Y434454D02*
Y428550D01*
Y434454D02*
X55926D01*
X56769Y434173D01*
X57331Y433611D01*
X57613Y433048D01*
X57894Y432205D01*
Y430799D01*
X57613Y429956D01*
X57331Y429393D01*
X56769Y428831D01*
X55926Y428550D01*
X53958D01*
X59215Y434454D02*
Y428550D01*
Y434454D02*
X61746D01*
X62589Y434173D01*
X62870Y433892D01*
X63151Y433330D01*
Y432767D01*
X62870Y432205D01*
X62589Y431924D01*
X61746Y431643D01*
X59215D02*
X61746D01*
X62589Y431361D01*
X62870Y431080D01*
X63151Y430518D01*
Y429675D01*
X62870Y429112D01*
X62589Y428831D01*
X61746Y428550D01*
X59215D01*
D17*
X121880Y42126D02*
X127784D01*
X121880D02*
Y44094D01*
X122161Y44938D01*
X122723Y45500D01*
X123286Y45781D01*
X124129Y46062D01*
X125535D01*
X126378Y45781D01*
X126941Y45500D01*
X127503Y44938D01*
X127784Y44094D01*
Y42126D01*
Y51882D02*
X121880Y49633D01*
X127784Y47384D01*
X125816Y48227D02*
Y51039D01*
X121880Y54947D02*
X122161Y54384D01*
X122723Y53822D01*
X123286Y53541D01*
X124129Y53260D01*
X125535D01*
X126378Y53541D01*
X126941Y53822D01*
X127503Y54384D01*
X127784Y54947D01*
Y56071D01*
X127503Y56634D01*
X126941Y57196D01*
X126378Y57477D01*
X125535Y57758D01*
X124129D01*
X123286Y57477D01*
X122723Y57196D01*
X122161Y56634D01*
X121880Y56071D01*
Y54947D01*
X126660Y55790D02*
X128347Y57477D01*
X121880Y63775D02*
X127784D01*
X121880D02*
Y66305D01*
X122161Y67149D01*
X122442Y67430D01*
X123004Y67711D01*
X123567D01*
X124129Y67430D01*
X124410Y67149D01*
X124691Y66305D01*
Y63775D02*
Y66305D01*
X124973Y67149D01*
X125254Y67430D01*
X125816Y67711D01*
X126660D01*
X127222Y67430D01*
X127503Y67149D01*
X127784Y66305D01*
Y63775D01*
X123848Y70438D02*
X124129Y69876D01*
X124691Y69314D01*
X125535Y69033D01*
X126097D01*
X126941Y69314D01*
X127503Y69876D01*
X127784Y70438D01*
Y71282D01*
X127503Y71844D01*
X126941Y72406D01*
X126097Y72688D01*
X125535D01*
X124691Y72406D01*
X124129Y71844D01*
X123848Y71282D01*
Y70438D01*
Y77355D02*
X127784D01*
X124691D02*
X124129Y76792D01*
X123848Y76230D01*
Y75387D01*
X124129Y74824D01*
X124691Y74262D01*
X125535Y73981D01*
X126097D01*
X126941Y74262D01*
X127503Y74824D01*
X127784Y75387D01*
Y76230D01*
X127503Y76792D01*
X126941Y77355D01*
X123848Y78929D02*
X127784D01*
X125535D02*
X124691Y79210D01*
X124129Y79773D01*
X123848Y80335D01*
Y81178D01*
X121880Y85086D02*
X127784D01*
X124691D02*
X124129Y84524D01*
X123848Y83962D01*
Y83118D01*
X124129Y82556D01*
X124691Y81994D01*
X125535Y81713D01*
X126097D01*
X126941Y81994D01*
X127503Y82556D01*
X127784Y83118D01*
Y83962D01*
X127503Y84524D01*
X126941Y85086D01*
X121880Y91300D02*
X127784D01*
X121880D02*
Y93830D01*
X122161Y94674D01*
X122442Y94955D01*
X123004Y95236D01*
X123567D01*
X124129Y94955D01*
X124410Y94674D01*
X124691Y93830D01*
Y91300D01*
Y93268D02*
X127784Y95236D01*
X125535Y96557D02*
Y99931D01*
X124973D01*
X124410Y99650D01*
X124129Y99369D01*
X123848Y98807D01*
Y97963D01*
X124129Y97401D01*
X124691Y96839D01*
X125535Y96557D01*
X126097D01*
X126941Y96839D01*
X127503Y97401D01*
X127784Y97963D01*
Y98807D01*
X127503Y99369D01*
X126941Y99931D01*
X123848Y101197D02*
X127784Y102884D01*
X123848Y104570D02*
X127784Y102884D01*
X123004Y110165D02*
X122723Y110728D01*
X121880Y111571D01*
X127784D01*
M02*
