M48
;Layer_Color=9474304
;FILE_FORMAT=2:5
INCH,LZ
;TYPE=PLATED
T1F00S00C0.01772
T2F00S00C0.02165
T3F00S00C0.04528
T4F00S00C0.10827
%
T01
X0047638Y0037795
X0126378
X0136221Y0044488
X0185433Y0037795
X0205118
X0224803
X0220079Y0049154
Y0054154
X0303543Y0037795
X0293701Y005748
X0282677Y0084153
X0271732Y0088583
X0274016Y009685
X0257638Y0097657
Y0102657
X0257642Y0092653
X0234646Y009685
X0220236Y0097598
Y0102657
Y009252
X0220433Y007752
X0220079Y0059153
X0214961Y005748
X0244488Y0077165
X0212913Y0109213
X0241142Y0145472
X0250118
X0259095
X0271732Y0132283
X0282677Y0127657
X0283858Y0155905
X0303543
X0293701Y0175591
X0274016
X0254331
X0234646
X0214961
X0264173Y0195276
X0303543
Y0116535
X0313386Y009685
X0333071
Y005748
X0211024Y0068386
X0207008
X0202047
X019563
X0188189Y0071457
X0187795Y0080984
X0186221Y0094882
X0181102Y0094842
X0181417Y0090158
X0175591Y009685
X0155905
X0158031Y0108543
X0156457Y0115748
X0147598
X013874
X0129882
X0121024
X0112165
X0103307
X0094449
X0087008Y0116535
X0085984Y0089528
Y0077165
X0077953Y0083346
X0066181
X0068012Y0100354
Y0106181
X009685Y009685
X0100669Y0082953
Y0069961
X0115827Y009689
X0125039
X0134252
X0134331Y0107559
X0125413Y0107146
X0116575Y0107205
X014626Y0107874
X0165354Y0115748
X0174173
X0175591Y0136221
X0161142Y0145158
X0165748Y0155905
X0146063
X0191811Y0153661
X0199213Y011252
X0206063Y010185
X0202353Y0097165
X0205118Y0195276
X0126378
X0106732Y013937
X0099803
X005748Y0136221
X0067323Y0155905
X0058365Y0066063
X005374Y0083346
X0053759Y0092401
X0040079Y0096968
X0035394Y0086496
X0041299Y0081732
X0037795Y005748
X0027953Y0116535
X0037795Y0136221
X0042953Y0181142
X0052953
X0047638Y0195276
X0033465Y0184252
T02
X0037913Y0018228
X0042835
X0055433
X0018228Y005185
X0060354Y0018228
X0065276
X0077874
X0082795
X0087717
X0100315
X0105236
X0110158
X0122756
X0127677
X0132598
X0145197
X0150118
X0155039
X0167638
X0172559
X017748
X0190079Y0018228
X0195
X0199921
X021252
X0217441
X0222362
X0262638Y0018228
X0267559
X027248
X0285079
X029
X0294921
X030752
X0312441
X0317362
X0329961
X0334882
X0339803
X0328228Y0033819
Y003874
Y0043661
X0328228Y005626
Y0061181
Y0066102
Y007874
Y0083661
Y0088583
Y0101142
Y0106063
Y0110984
Y0123583
Y0128504
Y0133425
Y0146024
Y0150945
Y0155866
X0328228Y0168465
Y0173386
Y0178307
Y0190905
Y0195827
Y0200748
X0018307Y0178701
Y0173779
Y0168858
Y0163937
Y0159016
X0018228Y0146339
Y0141417
Y0136496
Y0123898
Y0118976
Y0114055
Y0101457
Y0096535
Y0091614
Y0079016
Y0074094
Y0069173
Y0056772
T03
X0212953Y0201689
X0222953
Y0211689
X0212953
X0202953
Y0201689
X0192953
X0182953
X0172953
X0162953
X0152953
X0142953
X0132953
X0122953
X0112953
X0102953
X0092953
X0082953
X0072953
X0062953
Y0211689
X0072953
X0082953
X0092953
X0102953
X0112953
X0122953
X0132953
X0142953
X0152953
X0162953
X0172953
X0182953
X0192953
X0143268Y0187638
Y0177638
X0129213
Y0187638
X0052953Y0201689
X0042953
X0032953
Y0211689
X0042953
X0052953
T04
X001378Y001378
X0242126
Y0206693
X001378
M30
